<?xml version="1.0" encoding="utf-8"?>
<!-- Generator: Adobe Illustrator 23.0.0, SVG Export Plug-In . SVG Version: 6.00 Build 0)  -->
<svg version="1.1" id="图层_1" xmlns="http://www.w3.org/2000/svg" xmlns:xlink="http://www.w3.org/1999/xlink" x="0px" y="0px"
	 viewBox="0 0 539 538" style="enable-background:new 0 0 539 538;" xml:space="preserve">
<style type="text/css">
	.st0{fill:#0E419C;}
</style>
<g>
	<path class="st0" d="M0,288c0-12,0-24,0-36c0.26-0.93,0.63-1.84,0.78-2.79c2.65-16.73,4.06-33.77,8.13-50.14
		C22.89,142.84,54.39,97.52,98.34,60.48c37.31-31.45,80.16-50.69,128.5-57.54C234.87,1.8,242.95,0.97,251,0c12.33,0,24.67,0,37,0
		c9.02,1.11,18.08,1.95,27.05,3.36c61.06,9.62,111.8,38.36,153.44,83.57c35.76,38.82,58.8,83.97,66.7,136.45
		c1.38,9.19,2.54,18.41,3.8,27.62c0,12,0,24,0,36c-0.33,1.94-0.82,3.88-0.96,5.83c-1.57,22.53-6.19,44.43-13.44,65.78
		c-14.65,43.1-40.12,79.05-73.38,109.64c-38.05,34.99-82.29,57.77-133.64,65.91c-8.84,1.4-17.72,2.56-26.57,3.84c-15,0-30,0-45,0
		c-1.43-0.32-2.85-0.82-4.3-0.95c-20.62-1.9-40.75-6.13-60.38-12.72C139.37,510.24,103.97,486,73.61,454.2
		C34.9,413.67,10.59,365.95,2.93,310.12C1.91,302.75,0.97,295.37,0,288z M271.05,526.35c139.78,2.08,260.09-117.47,256.42-263.2
		c-3.39-134.6-117.13-252.57-262.58-249.8c-132.53,2.52-251,112.71-251.14,256.81C13.62,412.93,132.14,528.9,271.05,526.35z"/>
	<path class="st0" d="M269.43,89.77c99.44-3.13,183.22,81.43,182.96,181.83c-0.26,99.4-83.48,181.26-181.85,181
		C168.8,452.33,88.35,368.94,88.62,270.84C88.9,168.52,174.63,85.89,269.43,89.77z M272.24,103.65
		c-92.64-2.09-168.68,74.6-169.47,165.77c-0.79,91.66,73.88,169.48,167.78,169.37c94.56-0.11,169.13-78.8,167.64-170.51
		C436.65,174.13,357.75,102.38,272.24,103.65z"/>
	<path class="st0" d="M215.28,489.81c-3.39-0.64-6.84-1.1-10.17-1.96c-5.59-1.46-10.49-4.02-13.85-9.07
		c-5.98-9.01-4.21-21.74,4.61-28.07c6.56-4.71,14.12-3.13,21.19-1.26c14.36,3.8,20.03,14.25,16.54,30.15
		c-1.13,5.17-2.77,10.27-4.65,15.23c-3.35,8.84-13.87,15.52-23.25,15.15c-12.13-0.47-21.93-7.23-25-17.28
		c-0.29-0.94-0.9-2.13-0.58-2.86c1.32-3.02,2.93-5.91,4.44-8.85c2.03,1.9,4.78,3.43,5.96,5.76c4.64,9.18,10.64,13.06,18.18,10.27
		c2.79-1.03,5.02-3.61,7.5-5.48C215.89,490.96,215.59,490.38,215.28,489.81z M212.5,477.11c5.93,0.01,10.26-3.45,10.43-8.33
		c0.13-3.86-8.35-10.37-13.7-10.52c-4.04-0.11-8.42,4.76-8.5,9.44C200.64,473.07,205.67,477.1,212.5,477.11z"/>
	<path class="st0" d="M325.23,492.88c0.3,15.12-9.03,27.28-21.46,26.85c-16.28-0.57-25.65-6.72-28.84-22.73
		c-1.72-8.64-3.4-17.39,0.04-26.07c3.23-8.15,8.59-13.8,17.73-14.85c10.16-1.16,19.19,0.09,24.95,10.24
		C322.39,474.64,325.06,483.36,325.23,492.88z M286.57,486.54c0.88,3.53,1.57,8.18,3.23,12.44c2.31,5.92,6.66,8.6,11.32,8
		c5.1-0.66,10.18-5.48,10.7-11.1c0.77-8.16-1.2-15.92-5.59-22.83c-2.28-3.59-6.01-5.31-10.36-4.63c-4.54,0.71-6.78,4.01-7.79,8.12
		C287.38,479.43,287.17,482.44,286.57,486.54z"/>
	<path class="st0" d="M363.62,471.45c-4.94-10.47-9.2-19.45-13.41-28.46c-1.29-2.76-0.94-4.71,2.23-6.32
		c8.3-4.21,16.42-8.76,24.55-13.28c4.05-2.25,7.11-0.79,9.51,2.46c2.54,3.45,1.66,6.78-1.65,9.11c-2.96,2.08-6.26,3.71-9.48,5.39
		c-3.37,1.76-6.83,3.34-10.63,5.18c1.08,2.93,2.09,5.67,3.45,9.37c3.39-2.4,6.49-4.2,9.12-6.53c9.45-8.33,22.58-6.32,28.95,4.59
		c5.44,9.33,4.59,21.45-2.03,28.95c-8.14,9.22-19.78,12.46-29.67,7.95c-3.31-1.51-7.74-2.82-6.07-8.12c1.46-4.65,4.8-5.87,10.6-4.23
		c8.43,2.38,12.29,0.94,17.18-6.4c2.85-4.29,2.01-9.74-2.1-13.47c-3.95-3.59-7.08-3.25-11.89,0.45
		C376.54,462.51,370.51,466.54,363.62,471.45z"/>
	<path class="st0" d="M97.17,110.36c2.96,2.59,5.95,5.15,8.87,7.78c2.97,2.67,6.01,5.28,8.78,8.15c4.69,4.86,9.23,9.86,17.96,8.05
		c-2.56,7.62-7.65,11.19-12.97,14.44c-0.58,0.35-2.71-0.59-3.11-1.42c-4.92-10.09-14.54-15.83-21.89-23.63
		c-4.45-4.73-8.68-10.29-16.17-10.82c-0.92-0.06-1.75-1.33-3.21-2.53c4.4-4.69,8.46-9.26,12.87-13.48c0.79-0.76,3.08-0.35,4.53,0.04
		c11.01,3,21.99,6.14,33.32,8.64c-7.28-6.01-10.49-17.06-22.79-16.71c-4.13,0.12-3.11-4.2-1.64-5.98c2.55-3.1,6.02-5.44,8.84-7.87
		c12.5,13.91,24.46,27.06,36.16,40.44c1.28,1.47,1.11,4.21,1.61,6.36c-2.11,0.11-4.38,0.78-6.3,0.23
		c-14.05-4.04-28.03-8.33-42.03-12.52c-0.6-0.18-1.25-0.21-1.87-0.31C97.81,109.61,97.49,109.98,97.17,110.36z"/>
	<path class="st0" d="M432.41,83.18c10.41,9.47,21.63,16.5,27.76,28.33c1.92,3.7,2.82,8.75,2.12,12.82
		c-1.41,8.1-9.01,11.98-17.67,10.21c-6.9-1.41-7.07-1.45-8.73,5.38c-1.17,4.82-2.04,9.73-2.59,14.66c-0.33,2.91-1.71,3.64-4.23,3.56
		c-7-0.22-11.25-7.74-7.91-14.19c1.6-3.09,3.52-6.02,5.07-9.14c2.36-4.75,2.02-9.3-2.06-14.02c-5.06,3.96-11.11,6.74-12.35,14.24
		c-0.24,1.43-1.29,3.19-2.49,3.83c-0.7,0.38-2.71-0.88-3.64-1.87c-3.08-3.26-6.17-6.56-8.82-10.16c-2.5-3.4-1.26-5.9,2.86-5.72
		c4.15,0.18,6.82-1.67,9.45-4.49c5.21-5.6,10.52-11.13,16.06-16.4c3.69-3.5,6.22-7.26,6.06-12.54
		C431.25,86.6,431.81,85.49,432.41,83.18z M452.11,115.75c-0.06-3.79-7.13-11.76-10.43-11.75c-2.93,0-11.06,8.46-10.91,11.35
		c0.23,4.31,6.57,10.05,11.02,9.98C447.17,125.23,452.19,120.57,452.11,115.75z"/>
	<path class="st0" d="M472.4,172.73c0.68,6.53,1.34,11.49,1.69,16.46c0.61,8.45-4.08,13.83-12.63,14.77
		c-12.75,1.41-22.75-6.22-25.29-19.51c-0.59-3.08-0.87-6.29-0.73-9.42c0.14-3.1-0.05-5.14-3.63-6.37c-3.21-1.1-3.12-3.88-0.24-5.58
		c4.28-2.53,8.72-4.9,13.32-6.76c1.55-0.63,3.81,0.47,5.75,0.78c-0.47,1.76-0.36,4.15-1.49,5.19c-7.04,6.49-5.86,14.29-4.01,22.24
		c0.29,1.25,0.88,2.84,1.85,3.45c2.76,1.74,5.99,4.55,8.67,4.2c4.3-0.57,5.34-5.04,5.01-9.11c-0.47-5.96-1.55-11.89-1.82-17.86
		c-0.31-6.82,1.36-12.83,8.35-16.15c11.6-5.52,23.85,1.47,26.67,15.33c1.28,6.31,2.87,12.57,3.91,18.93
		c0.25,1.53-0.69,4.07-1.91,4.86c-2.72,1.78-5.91,2.93-9.03,3.96c-1.2,0.39-2.74-0.24-4.12-0.41c0.25-1.41,0.03-3.24,0.83-4.17
		c7.53-8.77,4.27-17.7,0.64-26.65c-1.24-3.06-3.68-5.47-6.85-4.3c-1.87,0.69-3.61,3.6-4.1,5.8
		C472.39,166.24,472.55,170.3,472.4,172.73z"/>
	<path class="st0" d="M21.15,240.62c1.44-10.76,2.69-22.45,4.68-34c1.13-6.57,5.66-9.75,12.84-10.49
		c11.98-1.24,23.53,1.14,34.77,4.89c7.61,2.54,12.79,10.19,12.02,18.83c-0.78,8.7-2.94,17.3-4.76,25.88
		c-0.39,1.83-1.87,3.44-2.36,4.29c-9.75-2.09-18.83-4.38-28.03-5.9C41.04,242.59,31.66,241.85,21.15,240.62z M74.57,236.99
		c0.89-3.2,1.84-5.85,2.35-8.59c1.69-9.07-0.18-13.58-8.7-17.06c-5.88-2.4-12.37-3.58-18.7-4.56c-12.81-1.97-15.21-0.06-17.71,12.83
		c-0.53,2.72-0.76,5.49-1.2,8.76C45.39,231.27,59.67,234.07,74.57,236.99z"/>
	<path class="st0" d="M225.73,35.56c0.87,8.19,1.89,16.37,2.57,24.57c0.52,6.27,1.69,12.15,7.45,16.15
		c-5.03,4.76-10.56,4.82-15.99,4.6c-0.79-0.03-2.4-2.98-2.05-4.05c3.43-10.39,0.01-20.48-1.21-30.6c-0.89-7.38-3.06-14.6-4.76-22.36
		c8.4-4.68,14.6-3.75,21.31,4.56c4.49,5.56,8.49,11.52,12.89,17.15c2,2.56,4.44,4.78,7.74,6.68c-0.77-7.82-1.14-15.72-2.52-23.43
		c-0.48-2.71-3.43-4.99-5.56-7.89c4.57-5.32,10.83-2.87,17.18-2.89c-6.63,12.36-1.33,24.73-1.38,36.96
		c-0.02,5.15,0.77,10.3,0.69,15.44c-0.03,1.8-1.6,3.57-2.46,5.35c-1.55-0.95-3.61-1.53-4.57-2.89
		c-7.7-10.86-15.17-21.88-22.79-32.79c-1.35-1.94-3.08-3.61-4.64-5.41C226.99,35,226.36,35.28,225.73,35.56z"/>
	<path class="st0" d="M351.78,94.61c12.25-11.86,20.79-25.17,27.34-39.8c1.94-4.34,2.92-5.04,6.82-2.56
		c9.55,6.08,19.11,12.12,28.58,18.33c5.84,3.83,5.33,9.1-1.41,12.77c-3.14-9.25-11.4-12.84-19.01-17.25
		c-2.26-1.31-3.63-1.14-5.56,0.72c-8.98,8.64-8.89,10.44,2.08,16.34c2.21,1.19,4.96,1.52,7.51,1.86c2.24,0.3,4.55,0.06,6.83,0.06
		c-0.07,7.41-4.1,13.09-10.51,15.13c-2.31-6.83-6.94-11.72-13.55-14.37c-1.6-0.64-4.72-0.04-5.87,1.19
		c-8.41,9.01-7.97,11.41,1.86,18.71c4.95,3.68,9.89,6.13,16.1,3.47c0.59-0.25,1.31-0.24,1.97-0.24c0.47,0,0.93,0.19,1.37,0.29
		c1.31,7-4.07,12-10.47,9.48c-3.52-1.39-6.78-3.54-9.95-5.66c-6.36-4.26-12.66-8.63-18.82-13.17
		C354.94,98.34,353.26,96.12,351.78,94.61z"/>
	<path class="st0" d="M50.37,324.78c4.12-6.32,8.01-7.73,14.95-6.41c1.22,6.67,2.34,12.87,3.51,19.06c0.62,3.3,2.96,4.6,5.84,3.54
		c5.94-2.17,13.65-1.16,16.75-8.93c0.21-0.53,3.64-0.66,3.89-0.15c2.7,5.57,5.06,11.3,8.12,18.37c-12.18-2.89-20.75,2.87-29.89,5.75
		c-9.22,2.9-19.47,3.85-26.92,12.77c-2.07-2.93-4.35-5.2-5.47-7.94c-3.78-9.21-7.35-18.53-10.59-27.94
		c-1.39-4.04-2.35-8.38,3.5-10.62c5.13-1.97,7.87-0.71,6.62,4.57c-1.85,7.8,1.33,13.96,4.48,20.38c0.22,0.45,0.35,1.01,0.7,1.31
		c4.52,3.84,8.21-0.54,12.15-1.51c2.28-0.56,6.07-1,4.52-5.45C60.13,334.73,58.82,327.19,50.37,324.78z"/>
	<path class="st0" d="M25.13,293.61c15.48-0.9,29.91-1.89,44.37-2.5c4.93-0.21,7.83-2.39,7.8-7.05c-0.02-4.03-0.82-8.22-2.23-11.99
		c-0.58-1.56-3.63-3.15-5.54-3.13c-11.81,0.1-23.63,0.53-35.42,1.21c-1.49,0.09-2.77,2.39-4.29,3.46c-1.41,0.99-3.16,2.53-4.47,2.29
		c-1.16-0.22-2.46-2.46-2.76-3.99c-0.93-4.74-1.31-9.56,1.8-14.19c8.26,5.75,17.37,2.81,26.16,2.84c5.99,0.02,11.98-0.49,17.96-0.37
		c8.41,0.16,13.84,4.04,15.13,12.38c1.05,6.76,0.73,13.89-0.07,20.73c-0.61,5.19-4.39,8.31-10.03,8.75
		c-10.78,0.83-21.56,1.69-32.31,2.87c-3.54,0.39-7.07,1.53-10.42,2.8c-3.46,1.31-5.57,1.01-5.68-3.14
		C25.05,300.96,25.13,297.34,25.13,293.61z"/>
	<path class="st0" d="M108.16,166.13c-1.51-0.93-2.46-1.6-3.47-2.14c-8.4-4.53-9.97-4.17-15.33,3.45
		c-5.99,8.51-4.34,13.44,5.65,17.04c1.23,0.44,2.42,1.01,4.52,1.89c-3.7,5.33-7.17,10.32-10.46,15.06
		c-1.53-0.59-1.95-0.62-2.11-0.84C75.41,184.28,63.84,168,52.4,151.63c-0.97-1.39-2.01-4.27-1.39-4.93
		c1.36-1.46,3.95-2.96,5.72-2.65c12.6,2.22,25.12,4.96,37.69,7.38c4.72,0.91,9.55,1.29,14.28,2.16c5.92,1.08,6.56,2.7,3.25,7.5
		C110.83,162.72,109.58,164.25,108.16,166.13z M78.88,158.14c-3.57-0.91-6.54-1.67-9.52-2.43c-0.2,0.31-0.39,0.62-0.59,0.94
		c2,2.24,3.99,4.47,6.18,6.93c0.92-1.1,1.47-1.68,1.94-2.33C77.46,160.43,77.96,159.58,78.88,158.14z"/>
	<path class="st0" d="M510.07,322.22c-1.7,6.89-3.41,13.78-5.38,21.75c-9.82-8.65-17.61-0.34-26.14-0.01
		c5.26,6.05,9.42,12.77,17.43,15.27c1.26,0.39,2.73,2.38,2.86,3.76c0.54,5.41-0.75,10.18-5.32,12.39
		c-8.26-9.05-15.62-18.35-24.31-26.19c-5.85-5.28-13.44-8.61-21.96-4.12c-4,2.1-5.89,0.7-5.04-3.65c1.11-5.7,2.58-11.34,4.3-16.89
		c0.45-1.45,2.21-2.82,3.7-3.46c0.6-0.26,2.34,1.37,3.12,2.46c1.46,2.05,2.16,5.69,3.94,6.26c5.27,1.67,10.96,3.15,16.39,2.86
		c6.73-0.35,13.49-2.11,19.98-4.08c5.12-1.56,9.85-4.38,14.75-6.63C508.96,322.01,509.51,322.12,510.07,322.22z"/>
	<path class="st0" d="M507.56,288.29c-13.76-0.47-27.52-1.04-41.29-1.25c-1.45-0.02-2.88,2.16-4.41,3.19
		c-1.55,1.04-3.43,2.9-4.76,2.6c-1.26-0.29-2.78-2.88-2.81-4.49c-0.12-5.62,0.21-11.26,0.7-16.87c0.14-1.6,1.38-3.11,2.54-5.55
		c8.22,10.06,19.25,7.09,29.18,8.42c4.61,0.62,9.3,1.4,13.9,1.15c2.6-0.15,6.11-1.64,7.32-3.66c0.96-1.6-0.4-5.26-1.74-7.38
		c-1.14-1.82-3.69-2.74-5.62-4.06c0.29-0.68,0.58-1.36,0.87-2.04c2.11-1.07,4.11-2.55,6.34-3.12c6.39-1.63,8.65,0.14,8.39,6.66
		c-0.48,12.48-1.33,24.94-1.78,37.42c-0.19,5.16-3.35,6.51-7.51,6.59c-1.46,0.03-3.54-0.74-4.21-1.83
		c-0.52-0.84,0.59-2.83,1.22-4.19c1.5-3.22,3.16-6.37,4.75-9.55C508.29,289.63,507.92,288.96,507.56,288.29z"/>
	<path class="st0" d="M139.41,435.71c-2.81-2.63-5.25-4.88-7.66-7.15c-2.89-2.72-1.73-5.39,0.18-7.99c1.83-2.5,4.07-3.33,6.84-1.37
		c4.51,3.18,8.83,1.58,13.19-0.44c5-2.31,7.41-1.34,11.91,3.43c3.44,3.64,0.62,6.21-1.15,8.69c-9.86,13.83-19.96,27.49-29.86,41.3
		c-2.47,3.45-4.95,4.54-8.69,1.83c-5.53-4.01-6.75-6.77-3.9-10.94C126.47,454.02,132.85,445.08,139.41,435.71z"/>
	<path class="st0" d="M147.71,47.92c6.52-2.24,12.53-4.31,18.45-6.34c0.55,1.22,0.87,1.6,0.78,1.77
		c-3.71,6.87-1.27,13.07,1.79,19.37c2.83,5.82,5.09,11.93,7.89,17.77c3.56,7.46,7.3,8.8,14.84,5.77c8.66-3.48,9.88-6.07,6.61-14.75
		c-2.81-7.46-5.46-15.01-8.79-22.24c-2.22-4.82-5.5-9.16-8.62-14.23c2.91-3.75,7.54-4.39,13.27-3.8c-2.29,8.7,2.41,15.61,4.85,23.06
		c2.32,7.1,4.89,14.13,6.79,21.34c2.18,8.29-0.45,12.93-8.29,16.19c-0.61,0.25-1.23,0.49-1.85,0.74
		c-15.1,6.14-24.88,3.85-30.68-13.19c-1.5-4.4-3.54-8.6-5.27-12.92c-2.1-5.24-3.82-10.66-8.91-14.07
		C149.46,51.64,148.98,49.97,147.71,47.92z"/>
	<path class="st0" d="M316.81,24.11c6.26,1.61,11.39,2.81,16.43,4.27c3.29,0.95,3.73,3.63,1.77,5.81c-3.42,3.81-3.05,8.2-3.02,12.66
		c0.03,5.33-0.16,10.66,0.08,15.98c0.11,2.3,1.05,4.57,1.61,6.85c0.5,0.11,1,0.22,1.5,0.32c3.9-5.1,7.83-10.18,11.68-15.31
		c3.87-5.16,8.27-10.11,7.04-17.57c6.41-0.66,11.53,0.36,15.85,5.51c-13.02,8.32-19.51,21.69-28.68,32.77
		c-2.33,2.82-4.49,5.81-7.08,8.38c-1.27,1.27-3.47,2.63-5,2.39c-2.86-0.45-5.34-1.83-5.62-5.73c-0.91-12.27-2.08-24.53-3.41-36.76
		C319.3,37.64,318.04,31.66,316.81,24.11z"/>
	<path class="st0" d="M507.42,207.87c0.44,0.6,2.02,1.89,2.42,3.48c1.59,6.26,2.93,12.6,4.06,18.96c0.23,1.29-0.84,2.82-1.31,4.23
		c-1.34-0.57-3.18-0.76-3.94-1.77c-2.06-2.74-4.35-3.65-7.74-2.98c-11.88,2.33-23.8,4.45-35.71,6.65c-3.21,0.59-5.28,1.94-5.69,5.7
		c-0.19,1.75-2.27,3.29-3.49,4.93c-1.31-1.54-3.34-2.9-3.79-4.66c-1.72-6.73-3.25-13.55-4.14-20.42c-0.28-2.11,1.7-4.52,2.64-6.8
		c1.77,1.45,4.19,2.56,5.17,4.42c1.69,3.21,3.63,4.14,7.14,3.47c11.73-2.23,23.63-3.73,35.2-6.58
		C501.57,215.68,504.01,211.22,507.42,207.87z"/>
	<path class="st0" d="M295.53,77.85c-6.66-0.81-12.09-1.23-17.43-2.2c-3.51-0.64-4.57-3.33-1.77-5.7c4.1-3.48,4.18-8.09,4.65-12.64
		c0.92-8.93,1.8-17.87,2.35-26.83c0.13-2.08-0.81-4.43-1.85-6.34c-2.4-4.4-1.63-6.29,3.44-6.01c4.43,0.24,8.89,1.08,13.18,2.25
		c3.65,0.99,4.3,4.19,1.17,6.24c-3.32,2.18-3.82,5.19-4.23,8.48c-1.03,8.25-2.31,16.48-2.86,24.76c-0.25,3.79,0.92,7.68,1.58,11.51
		C294.08,73.11,294.69,74.8,295.53,77.85z"/>
	<path class="st0" d="M233.9,340.73c-32.86,1.23-65.28-0.46-97.05,6.96c-3.99,0.93-7.17-0.05-8.66-3.8
		c-2.01-5.07-3.59-10.32-4.94-15.6c-0.24-0.96,1.3-3.21,2.41-3.54c6.01-1.79,12.07-4.01,18.24-4.51c18.9-1.53,37.85-2.57,56.8-3.35
		c11.26-0.46,22.56-0.09,34.38-0.09c0.55-32.14,3.29-62.85,17.19-91.52c-0.67-0.3-1.33-0.6-2-0.9c-1.87,2.14-4.24,4.02-5.51,6.46
		c-5.38,10.3-10.83,20.61-15.41,31.28c-1.9,4.43-1.78,9.76-2.35,14.71c-2.44,21.27-12.49,32.78-33.65,36.05
		c-11.44,1.77-23.26,2.39-34.81,1.74c-18.19-1.03-34.34-17.53-37.12-37.06c-3.11-21.82-2.23-43.47,4.51-64.69
		c1.7-5.34,4.44-9.5,9.42-12.3c24.78-13.93,50.1-14.03,75.73-2.84c7.63,3.33,9.28,10.8,10.79,18.07c0.36,1.76,0.56,3.55,0.77,4.96
		c9.53-12.2,19.05-24.36,28.67-36.67c-1.76-3.26-3.76-2.73-6.19-0.59c-6.09,5.35-12.85,9.37-20.99,10.91
		c-5.08,0.96-8.79-0.76-11.59-4.85c-2.78-4.05-1.28-7.55,1.57-10.83c6.23-7.17,12.32-14.45,18.7-21.48
		c9.04-9.98,13.18-22.11,16.36-34.84c0.79-3.18,2.76-6.5,5.13-8.75c4.44-4.21,12.34-4.9,16.75-1.81c5.2,3.64,7.73,8.97,6.23,15.21
		c-1.82,7.57-4.49,14.92-6.66,22.41c-0.73,2.51-1.71,5.23-1.39,7.7c0.7,5.34,4.02,7.22,10.57,6.78c27.57-1.88,55.13-3.94,82.72-5.56
		c6.94-0.41,13.99,0.2,20.92,0.95c8.03,0.87,14.05,7.96,13.69,15.26c-0.29,5.96-3.9,9.85-9.84,9.54
		c-11.96-0.62-23.9-2.36-35.85-2.43c-18.11-0.11-36.27,0.24-54.33,1.58c-7.06,0.52-14.09,3.78-20.77,6.64
		c-7.21,3.1-8.57,7.19-6.29,14.53c0.3,0.95,0.51,1.98,1.01,2.81c6.17,10.17,4.93,20.29,1.02,31.04
		c-11.27,31.03-13.02,63.34-11.55,95.98c0.81,18.13,1.45,36.27,2.46,54.38c0.41,7.3,1.69,14.54,2.46,21.82
		c0.29,2.8,0.61,5.69,0.27,8.45c-0.55,4.36-1.71,8.67-6.84,9.97c-6.17,1.56-11.35,0.26-14.04-4.72c-2.56-4.73-4.63-10.01-5.6-15.28
		c-3.83-20.84-5.38-41.91-5.15-63.11C234.13,344.34,233.99,342.88,233.9,340.73z M202.98,242.91c0-4.13,0.26-7.47-0.05-10.76
		c-1.02-11.01-5.65-15.7-16.55-16.94c-3.47-0.39-6.98-0.49-10.47-0.72c-21.17-1.39-33.33,9.98-32.14,31.02
		C163.3,244.65,182.84,243.8,202.98,242.91z M146.13,267.43c-0.64,12.02,6,21.59,17.14,23.58c6.6,1.18,13.5,1.22,20.24,0.98
		c14.56-0.52,23.22-12.23,20.09-26.99C184.23,260.64,165.2,264.94,146.13,267.43z"/>
	<path class="st0" d="M339.21,305.5c8.37-0.7,15.54-0.89,22.55-2.08c2.8-0.47,5.44-2.87,7.76-4.86c2.38-2.03,4.03-4.93,6.46-6.89
		c3.25-2.63,6.9-4.89,11.39-2.42c3.96,2.18,7.34,7.71,6.09,12.24c-4.55,16.49-9.43,32.89-14.65,49.18
		c-0.52,1.63-4.19,3.06-6.47,3.16c-7.63,0.36-15.3-0.03-22.94,0.07c-7.84,0.1-8.13,0.51-6.39,7.97c2.43,10.35,5.22,20.63,7.34,31.04
		c0.88,4.32,0.65,8.92,0.51,13.38c-0.12,3.76-2.56,5.6-6.28,5.64c-6.73,0.06-11.21-3.51-14.48-9.02
		c-6.38-10.75-9.46-22.64-11.95-34.73c-2.14-10.41-3.12-11.09-13.29-7.53c-4.37,1.53-8.47,3.82-12.74,5.66
		c-3.35,1.45-6.7,2.97-10.17,4.06c-6.02,1.88-9.71,0.61-12.11-3.72c-2.82-5.08-2.36-11.15,2.05-14.55c3.34-2.57,7.37-4.57,11.4-5.85
		c9.92-3.16,20.02-5.76,30.21-8.63c0-3.78,0-8.15,0-13.92c-6.5,1.79-12.2,3.23-17.82,4.95c-5.87,1.8-11.61,4.03-17.49,5.79
		c-4.21,1.26-8.31,1.49-10.45-3.69c-2.16-5.24-0.8-10.98,3.49-13.75c7.77-5.02,16.74-4.91,25.47-5.96
		c5.58-0.67,11.13-1.76,16.62-3.01c1.15-0.26,1.95-2.06,2.91-3.15c-1.35-0.58-2.71-1.67-4.06-1.66c-4.98,0.05-9.97,0.76-14.94,0.64
		c-4.14-0.1-8.01-1.49-9.07-6.27c-1.19-5.33,1.92-9.05,8.02-9.41c14.78-0.88,29.58-1.61,44.37-2.39c0.66-0.04,1.34-0.09,2,0
		c2.27,0.32,4.53,0.7,6.8,1.06c-0.47,2.69-0.27,5.77-1.56,7.98C345.72,298.33,342.68,301.27,339.21,305.5z M339.21,336.82
		c6.35-0.55,12.18-0.77,17.88-1.74c1.79-0.31,4.01-2.38,4.65-4.14c1.07-2.96,1.03-6.33,1.59-10.53c-8.69,0.82-16.37,1.55-24.12,2.29
		C339.21,327.64,339.21,331.92,339.21,336.82z"/>
	<path class="st0" d="M329.99,282.84c-10.47,0-20.95-0.2-31.42,0.06c-9.33,0.24-15.79-3.27-19.74-11.47
		c-4.3-8.93-3.07-16.24,3-23.47c6.15-7.32,14.29-9.39,23.12-9.8c18.61-0.85,37.23-1.86,55.84-1.98c8.91-0.06,17.85,1.56,26.73,2.82
		c2.28,0.32,4.85,1.69,6.42,3.38c6.43,6.94,7.9,15.4,4.98,24.12c-2.79,8.32-9.33,12.87-18.1,13.39
		c-16.93,1.02-33.87,1.74-50.81,2.58C330.01,282.61,330,282.73,329.99,282.84z M376.65,259c-0.2-0.63-0.41-1.26-0.61-1.9
		c-3.89-0.37-7.79-1.15-11.67-1.05c-19.96,0.52-39.91,1.17-59.86,2.04c-3.1,0.13-8.46-1.02-8.31,3.79c0.15,5.02,5.68,3.85,8.87,3.71
		c21.77-0.98,43.52-2.27,65.26-3.7C372.48,261.75,374.54,260.01,376.65,259z"/>
	<path class="st0" d="M332.89,232.66c-14.28-0.55-28.57-0.89-42.82-1.81c-2.81-0.18-6.13-1.98-8.09-4.08
		c-8.22-8.8-6.28-25.48,4.13-31.36c5.28-2.98,11.81-4.73,17.89-5.12c18.9-1.21,37.86-1.64,56.81-2.09c8.86-0.21,17.55,1.14,25.7,5
		c6.86,3.25,10.28,8.6,10.46,16.16c0.19,7.92-1.91,14.88-9.96,17.75c-6.33,2.25-13.04,4.18-19.69,4.61
		c-11.43,0.74-22.94,0.21-34.42,0.21C332.91,232.16,332.9,232.41,332.89,232.66z M375.76,213.61c-0.51-5.96-2.7-7.8-7.31-7.69
		c-13.13,0.29-26.28,0.08-39.41,0.35c-9.13,0.19-18.25,0.72-27.36,1.34c-3.32,0.23-6.18,2.3-5.15,5.78
		c0.47,1.59,3.95,3.24,6.07,3.23c18.28-0.05,36.56-0.32,54.83-0.87C363.46,215.58,369.45,214.38,375.76,213.61z"/>
</g>
</svg>
