<svg xmlns="http://www.w3.org/2000/svg" height="69.382" viewBox="0 0 156.64263 69.381721" width="156.64"><g transform="matrix(1.25 0 0 -1.25 -213.04 491.19)"><g><path d="m14.197 11.318c-8.056 0-13.277 4.925-13.277 11.104-0.00008 6.175 5.221 11.099 13.277 11.099 2.462 0 5.596-0.716 7.422-2.775l0.41 2.326h4.477v-11.668h-11.19v4.119h4.848c-0.371 1.939-2.683 3.223-6.115 3.223-4.4752 0-6.1916-3.162-6.1916-6.324 0-3.164 1.7164-6.328 6.1916-6.328 2.797 0 5.034 1.104 5.258 2.926h6.937c-0.634-5.343-6.527-7.702-12.047-7.702zm92.853 0.45v3.878h6.34v-3.878h-6.34zm-68.726 5.371c-5.706 0-10.443 3.402-10.443 8.146 0 5.193 4.29 8.236 10.594 8.236 4.326 0 8.464-1.55 9.621-5.132h-5.93c-0.597 1.133-2.089 1.699-3.619 1.699-2.685 0-4.215-1.402-4.326-3.522h14.211c0.297-5.251-3.17-9.427-10.108-9.427zm21.28 0c-6.005 0-10.182 3.551-10.182 8.205s4.177 8.177 10.182 8.177 10.218-3.523 10.218-8.177-4.213-8.205-10.218-8.205zm33.693 0c-5.485 0-8.504 3.462-8.504 7.58 0 4.355 2.646 7.697 8.504 7.697 2.05 0 3.988-0.833 5.144-2.266h0.077v1.461c0 1.912-0.301 3.612-3.321 3.612-0.967 0-1.752-0.092-2.312-0.33-0.596-0.238-0.932-0.657-1.082-1.342h-6.34c0.746 4.147 4.996 4.953 9.51 4.953 9.067 0 9.657-4.776 9.657-7.311v-13.607h-6.077v1.939h-0.074c-1.118-1.581-2.871-2.386-5.182-2.386zm31.133 0c-2.2 0-4.44 0.297-6.15 1.072-1.72 0.806-2.91 2.12-3.02 4.15h5.93c0.29-1.313 1.42-1.941 3.17-1.941 1.3 0 3.06 0.448 3.06 1.611 0 0.955-0.6 1.254-1.68 1.434-4.4 0.716-11.26 0.327-11.26 5.371 0 3.192 2.9 4.685 6.6 4.685 2.31 0 4.74-0.537 6.38-1.91 0.07 0.509 0.14 0.984 0.37 1.461h6.38c-0.75-1.222-0.75-2.657-0.75-3.967v-6.773c0-4.387-4.44-5.193-9.03-5.193zm-41.508 0.148c-2.723 0-4.886 1.046-5.818 3.016h-0.077v-2.717h-6.152v15.486h6.342v-7.668c0-1.937 1.639-3.672 4.771-3.672 0.858 0 1.605 0.12 2.426 0.299v-4.625c-0.485-0.09-1.007-0.119-1.492-0.119zm24.128 0.299v15.486h6.34v-15.486h-6.34zm-68.726 2.984c2.126 0 3.655 1.431 3.768 3.162h-7.871c0.372-1.881 1.866-3.162 4.103-3.162zm21.28 0.448c2.946 0 3.878 2.357 3.878 4.326 0 1.968-0.932 4.297-3.878 4.297-2.947 0-3.842-2.329-3.842-4.297 0-1.969 0.895-4.326 3.842-4.326zm35.22 0c2.835 0 3.805 1.941 3.805 3.91 0 1.938-1.156 3.609-3.842 3.609-2.611 0-3.654-1.821-3.654-3.641 0-1.91 0.894-3.878 3.691-3.878zm32.516 4.804c0.15 3.193-0.86 4.565-3.88 4.565-1.42 0-2.65-0.508-2.65-1.76 0-1.224 1.2-1.701 2.62-1.971 1.38-0.298 3.02-0.387 3.91-0.834zm-73.555 11.121v4.774h7.944v16.533h6.935v-16.533h7.947v-4.774h-22.826zm60.365 0v21.307h6.34v-8.445c0-1.7 1.04-3.313 3.43-3.313 3.47 0 3.17 2.149 3.17 4.268v7.49h6.34v-9.938c0-2.238-0.52-5.998-6.97-5.998-2.31 0-4.93 0.985-5.9 2.569h-0.07v-7.94h-6.34zm-32.691 5.371c-5.706 0-10.445 3.403-10.445 8.147 0 5.192 4.29 8.238 10.593 8.238 4.325 0 8.465-1.552 9.622-5.135h-5.928c-0.599 1.134-2.09 1.702-3.621 1.702-2.685 0-4.213-1.402-4.325-3.522h14.211c0.297-5.252-3.17-9.43-10.107-9.43zm21.661 0c-6.233 0-10.149 3.521-10.149 8.446 0 4.745 4.327 7.939 10.149 7.939 5.14 0 9.17-2.389 9.73-6.537h-6.15c-0.3 1.641-1.42 2.656-3.62 2.656-2.69 0-3.768-2.061-3.768-4.058 0-2.149 0.56-4.567 4.098-4.567 1.61 0 3.06 0.925 3.1 2.239h6.15c-0.44-4.087-4.73-6.118-9.54-6.118zm-21.661 3.432c2.126 0 3.653 1.432 3.766 3.164h-7.87c0.373-1.882 1.866-3.164 4.104-3.164z" transform="matrix(.8 0 0 -.8 170.43 392.95)" fill="#B3A369"/><path d="m294.49 338.73h-10.504v2.007h10.504v-2.007zm-2.6263 14.077-2.627 39.404-2.626-39.404m7.8796 9.6454-5.253-19.699h5.253v19.699zm-10.504 0 5.251-19.699h-5.251v19.699z" stroke="#B3A369" stroke-width=".796" fill="none"/></g></g></svg>