<?xml version="1.0" encoding="UTF-8" standalone="no"?>
<!-- Created with Inkscape (http://www.inkscape.org/) -->

<svg
   xmlns:dc="http://purl.org/dc/elements/1.1/"
   xmlns:cc="http://creativecommons.org/ns#"
   xmlns:rdf="http://www.w3.org/1999/02/22-rdf-syntax-ns#"
   xmlns:svg="http://www.w3.org/2000/svg"
   xmlns="http://www.w3.org/2000/svg"
   xmlns:sodipodi="http://sodipodi.sourceforge.net/DTD/sodipodi-0.dtd"
   xmlns:inkscape="http://www.inkscape.org/namespaces/inkscape"
   id="svg2816"
   version="1.1"
   inkscape:version="0.47 r22583"
   width="188"
   height="88"
   xml:space="preserve"
   sodipodi:docname="Logo HHU DUS.svg"><metadata
     id="metadata2822"><rdf:RDF><cc:Work
         rdf:about=""><dc:format>image/svg+xml</dc:format><dc:type
           rdf:resource="http://purl.org/dc/dcmitype/StillImage" /><dc:title /></cc:Work></rdf:RDF></metadata><defs
     id="defs2820"><inkscape:perspective
       sodipodi:type="inkscape:persp3d"
       inkscape:vp_x="0 : 0.5 : 1"
       inkscape:vp_y="0 : 1000 : 0"
       inkscape:vp_z="1 : 0.5 : 1"
       inkscape:persp3d-origin="0.5 : 0.33333333 : 1"
       id="perspective2824" /><clipPath
       clipPathUnits="userSpaceOnUse"
       id="clipPath2842"><path
         d="m 36.589,675.324 4.519,-517.89 610.557,5.328 -4.52,517.891"
         id="path2844" /></clipPath><clipPath
       clipPathUnits="userSpaceOnUse"
       id="clipPath2850"><path
         d="m 646.299,673.937 -603.779,0 0,-510.648 603.779,0 0,510.648 z"
         id="path2852" /></clipPath><clipPath
       clipPathUnits="userSpaceOnUse"
       id="clipPath2862"><path
         d="m 646.299,892.913 -612.283,0 0,-858.897 612.283,0 0,858.897 z"
         id="path2864" /></clipPath></defs><sodipodi:namedview
     pagecolor="#ffffff"
     bordercolor="#666666"
     borderopacity="1"
     objecttolerance="10"
     gridtolerance="10"
     guidetolerance="10"
     inkscape:pageopacity="0"
     inkscape:pageshadow="2"
     inkscape:window-width="1680"
     inkscape:window-height="988"
     id="namedview2818"
     showgrid="false"
     inkscape:zoom="8.4893617"
     inkscape:cx="94"
     inkscape:cy="44"
     inkscape:window-x="-8"
     inkscape:window-y="-8"
     inkscape:window-maximized="1"
     inkscape:current-layer="g2826"
     borderlayer="true"
     inkscape:showpageshadow="false" /><g
     id="g2826"
     inkscape:groupmode="layer"
     inkscape:label="Uni-Magazin_2010_03"
     transform="matrix(1.25,0,0,-1.25,-53.15,141.15009)"><text
   transform="matrix(1,0,0,-1,86.5116,835.34)"
   id="text2834"><tspan
     style="font-size:11px;font-variant:normal;font-weight:bold;writing-mode:lr-tb;fill:#ffffff;fill-opacity:1;fill-rule:nonzero;stroke:none;font-family:CelesteSansPro;-inkscape-font-specification:CelesteSansPro-Bold"
     x="0 7.2919002 14.9798 21.4687 28.815599 36.2505 42.871399 49.008301 52.175201 58.159199 64.143204 67.223198 69.346199 72.426201 78.410202 84.394203 89.784203"
     y="0"
     sodipodi:role="line"
     id="tspan2836">AUSGABE 03 | 2010</tspan></text>

<g
   id="g2878"
   transform="translate(173.72586,53.463625)"><path
     d="m 0,0 0,0.912 -4.501,0 0,3.743 3.696,0 0,0.881 -3.696,0 0,3.264 4.253,0 0,0.85 -5.444,0 0,-9.65 L 0,0 z m -9.913,0 1.051,0 0,9.65 -1.051,0 0,-6.31 c 0,-0.68 0.061,-1.515 0.123,-1.887 -0.123,0.387 -0.463,1.083 -0.866,1.687 l -4.33,6.51 -1.485,0 0,-9.65 1.036,0 0,7.021 c 0,0.665 -0.062,1.516 -0.139,1.871 0.139,-0.371 0.48,-1.067 0.882,-1.67 L -9.913,0 z m -10.038,9.65 -1.252,0 0,-9.65 1.252,0 0,9.65 z M -23.909,0 l 0,0.912 -4.501,0 0,3.743 3.696,0 0,0.881 -3.696,0 0,3.264 4.253,0 0,0.85 -5.444,0 0,-9.65 5.692,0 z m -14.692,0 0,4.608 4.748,0 0,-4.608 1.237,0 0,9.65 -1.237,0 0,-4.191 -4.748,0 0,4.191 -1.238,0 0,-9.65 1.238,0 z m -14.084,0 0,4.608 4.748,0 0,-4.608 1.238,0 0,9.65 -1.238,0 0,-4.191 -4.748,0 0,4.191 -1.237,0 0,-9.65 1.237,0 z m -3.464,8.985 c -0.742,0.542 -1.778,0.82 -3.124,0.82 -3.139,0 -4.686,-2.119 -4.686,-5.104 0,-2.953 1.408,-4.902 4.47,-4.902 1.33,0 2.536,0.417 3.263,0.835 l -0.371,1.052 c -0.603,-0.449 -1.655,-0.898 -2.738,-0.898 -2.366,0 -3.356,1.794 -3.356,3.805 0,2.026 0.743,4.362 3.387,4.362 1.361,0 1.98,-0.403 2.552,-0.851 l 0.603,0.881 z m -10.501,0.665 -1.252,0 0,-9.65 1.252,0 0,9.65 z m -6.263,-2.103 c 0,-1.686 -1.314,-1.964 -2.784,-1.964 l -0.278,0 0,3.294 c 0.294,0.031 0.634,0.046 1.067,0.046 0.804,0 1.995,-0.123 1.995,-1.376 m -3.062,-2.83 0.17,0 c 2.103,0 3.124,-3.325 3.866,-4.748 L -70.485,0 c -0.603,0.958 -1.67,4.531 -3.773,5.119 1.407,0.139 2.644,0.711 2.644,2.474 0,1.47 -0.99,2.135 -3.093,2.135 -1.299,0 -1.871,-0.062 -2.505,-0.093 l 0,-9.635 1.237,0 0,4.717 z M -81.434,0 l 1.052,0 0,9.65 -1.052,0 0,-6.31 c 0,-0.68 0.062,-1.515 0.124,-1.887 -0.124,0.387 -0.464,1.083 -0.866,1.687 l -4.331,6.51 -1.484,0 0,-9.65 1.035,0 0,7.021 c 0,0.665 -0.061,1.516 -0.139,1.871 0.139,-0.371 0.48,-1.067 0.882,-1.67 L -81.434,0 z m -10.037,9.65 -1.253,0 0,-9.65 1.253,0 0,9.65 z M -95.43,0 l 0,0.912 -4.5,0 0,3.743 3.696,0 0,0.881 -3.696,0 0,3.264 4.253,0 0,0.85 -5.444,0 0,-9.65 5.691,0 z m -14.692,0 0,4.608 4.748,0 0,-4.608 1.237,0 0,9.65 -1.237,0 0,-4.191 -4.748,0 0,4.191 -1.237,0 0,-9.65 1.237,0"
     style="fill:#231f20;fill-opacity:1;fill-rule:nonzero;stroke:none"
     id="path2880" /></g><g
   id="g2882"
   transform="translate(173.73085,48.988615)"><path
     d="m 0,0 0,0.521 -3.234,0 0,-5.91 0.708,0 0,2.85 2.196,0 0,0.54 -2.196,0 0,1.999 L 0,0 z m -6.026,-0.767 c 0,-1.033 -0.781,-1.203 -1.654,-1.203 l -0.165,0 0,2.017 c 0.175,0.019 0.377,0.028 0.634,0.028 0.477,0 1.185,-0.075 1.185,-0.842 m -1.819,-1.733 0.101,0 c 1.25,0 1.856,-2.037 2.297,-2.908 l 0.863,0.019 c -0.358,0.587 -0.992,2.775 -2.241,3.135 0.836,0.085 1.57,0.435 1.57,1.515 0,0.9 -0.587,1.307 -1.837,1.307 -0.771,0 -1.111,-0.038 -1.488,-0.057 l 0,-5.9 0.735,0 0,2.889 z m -2.94,0.123 c 0,-1.563 -0.716,-2.586 -1.929,-2.586 -1.213,0 -1.929,1.023 -1.929,2.586 0,1.534 0.809,2.481 1.929,2.481 1.121,0 1.929,-0.947 1.929,-2.481 m 0.809,0 c 0,1.847 -1.158,2.993 -2.738,2.993 -1.58,0 -2.737,-1.146 -2.737,-2.993 0,-2.017 1.083,-3.135 2.737,-3.135 1.654,0 2.738,1.136 2.738,3.135 m -7.294,0 c 0,-2.027 -1.011,-2.529 -2.187,-2.529 -0.23,0 -0.459,0.009 -0.735,0.047 l 0,4.925 c 0.211,0.009 0.432,0.009 0.625,0.009 1.599,0 2.297,-0.842 2.297,-2.452 m 0.817,0.019 c 0,1.969 -1.148,2.916 -2.967,2.916 -0.753,0 -0.753,-0.018 -1.507,-0.037 l 0,-5.91 c 0.35,0 0.901,-0.019 1.498,-0.019 1.231,0 2.976,0.521 2.976,3.05 m -5.659,-3.031 0,0.559 -2.672,0 0,5.351 -0.717,0 0,-5.91 3.389,0 z m -4.813,0 0,0.559 -2.674,0 0,2.291 2.196,0 0,0.54 -2.196,0 0,1.999 2.526,0 0,0.521 -3.233,0 0,-5.91 3.381,0 z m -4.998,1.695 c 0,1.288 -1.057,1.591 -1.589,1.753 -0.597,0.179 -1.268,0.378 -1.268,1.174 0,0.54 0.487,0.861 1.075,0.861 0.634,0 1.047,-0.303 1.259,-0.511 l 0.349,0.54 c -0.303,0.313 -0.883,0.493 -1.544,0.493 -1.074,0 -1.892,-0.55 -1.892,-1.563 0,-1.251 1.259,-1.592 1.663,-1.695 0.487,-0.124 1.176,-0.304 1.176,-1.222 0,-0.805 -0.643,-1.08 -1.167,-1.08 -0.763,0 -1.167,0.483 -1.397,0.758 l -0.449,-0.502 c 0.367,-0.426 0.89,-0.824 1.827,-0.824 1.112,0 1.957,0.692 1.957,1.818 m -5.172,0 c 0,1.288 -1.056,1.591 -1.589,1.753 -0.598,0.179 -1.268,0.378 -1.268,1.174 0,0.54 0.487,0.861 1.075,0.861 0.634,0 1.047,-0.303 1.259,-0.511 l 0.349,0.54 c -0.303,0.313 -0.882,0.493 -1.544,0.493 -1.075,0 -1.892,-0.55 -1.892,-1.563 0,-1.251 1.259,-1.592 1.663,-1.695 0.486,-0.124 1.176,-0.304 1.176,-1.222 0,-0.805 -0.644,-1.08 -1.167,-1.08 -0.762,0 -1.167,0.483 -1.396,0.758 l -0.451,-0.502 c 0.368,-0.426 0.891,-0.824 1.828,-0.824 1.112,0 1.957,0.692 1.957,1.818 m -7.891,5.398 c 0,0.228 -0.184,0.427 -0.422,0.427 -0.23,0 -0.423,-0.199 -0.423,-0.427 0,-0.227 0.193,-0.426 0.423,-0.426 0.238,0 0.422,0.199 0.422,0.426 m 1.7,0 c 0,0.228 -0.193,0.427 -0.423,0.427 -0.238,0 -0.422,-0.199 -0.422,-0.427 0,-0.227 0.184,-0.426 0.422,-0.426 0.23,0 0.423,0.199 0.423,0.426 m 0.937,-4.886 0,3.703 -0.717,0 0,-3.637 c 0,-1.563 -0.652,-1.932 -1.488,-1.932 -0.845,0 -1.488,0.369 -1.488,1.932 l 0,3.637 -0.744,0 0,-3.703 c 0,-1.743 0.753,-2.406 2.232,-2.406 1.479,0 2.205,0.663 2.205,2.406 m -6.559,0.805 c 0,-2.027 -1.011,-2.529 -2.187,-2.529 -0.229,0 -0.459,0.009 -0.735,0.047 l 0,4.925 c 0.212,0.009 0.432,0.009 0.625,0.009 1.598,0 2.297,-0.842 2.297,-2.452 m 0.817,0.019 c 0,1.969 -1.148,2.916 -2.967,2.916 -0.754,0 -0.754,-0.018 -1.507,-0.037 l 0,-5.91 c 0.349,0 0.9,-0.019 1.498,-0.019 1.23,0 2.976,0.521 2.976,3.05 m -8.885,2.33 0,0.549 -4.934,0 0,-0.549 2.067,0 0,-5.361 0.754,0 0,5.361 2.113,0 z m -8.03,1.732 c 0,0.228 -0.184,0.427 -0.422,0.427 -0.23,0 -0.423,-0.199 -0.423,-0.427 0,-0.227 0.193,-0.426 0.423,-0.426 0.238,0 0.422,0.199 0.422,0.426 m 1.7,0 c 0,0.228 -0.193,0.427 -0.423,0.427 -0.239,0 -0.422,-0.199 -0.422,-0.427 0,-0.227 0.183,-0.426 0.422,-0.426 0.23,0 0.423,0.199 0.423,0.426 m -1.58,-2.737 c 0.092,0.275 0.202,0.654 0.248,0.938 0.046,-0.322 0.147,-0.644 0.257,-0.938 l 0.689,-1.846 -1.837,0 0.643,1.846 z m 2.122,-4.356 0.762,0 -2.241,5.957 -0.717,-0.047 -2.131,-5.91 0.689,0 0.698,2.017 2.196,0 0.744,-2.017 z m -4.455,5.361 0,0.549 -4.934,0 0,-0.549 2.067,0 0,-5.361 0.754,0 0,5.361 2.113,0 z m -6.266,0.549 -0.744,0 0,-5.91 0.744,0 0,5.91 z m -2.545,-4.215 c 0,1.288 -1.056,1.591 -1.589,1.753 -0.597,0.179 -1.268,0.378 -1.268,1.174 0,0.54 0.488,0.861 1.075,0.861 0.634,0 1.048,-0.303 1.259,-0.511 l 0.349,0.54 c -0.303,0.313 -0.882,0.493 -1.543,0.493 -1.075,0 -1.893,-0.55 -1.893,-1.563 0,-1.251 1.259,-1.592 1.663,-1.695 0.487,-0.124 1.176,-0.304 1.176,-1.222 0,-0.805 -0.643,-1.08 -1.167,-1.08 -0.762,0 -1.166,0.483 -1.396,0.758 l -0.45,-0.502 c 0.367,-0.426 0.891,-0.824 1.828,-0.824 1.111,0 1.956,0.692 1.956,1.818 m -6.348,2.927 c 0,-1.033 -0.78,-1.203 -1.653,-1.203 l -0.165,0 0,2.017 c 0.174,0.019 0.376,0.028 0.634,0.028 0.477,0 1.184,-0.075 1.184,-0.842 m -1.818,-1.733 0.101,0 c 1.249,0 1.856,-2.037 2.297,-2.908 l 0.863,0.019 c -0.358,0.587 -0.992,2.775 -2.242,3.135 0.837,0.085 1.571,0.435 1.571,1.515 0,0.9 -0.588,1.307 -1.837,1.307 -0.771,0 -1.112,-0.038 -1.488,-0.057 l 0,-5.9 0.735,0 0,2.889 z m -2.159,-2.889 0,0.559 -2.673,0 0,2.291 2.195,0 0,0.54 -2.195,0 0,1.999 2.526,0 0,0.521 -3.234,0 0,-5.91 3.381,0 z m -6.936,1.875 c -0.156,-0.388 -0.294,-0.871 -0.34,-1.193 -0.046,0.322 -0.156,0.729 -0.34,1.203 l -1.534,4.025 -0.808,0 2.379,-5.995 0.487,0 2.453,5.995 -0.689,0 -1.608,-4.035 z m -4.492,4.035 -0.744,0 0,-5.91 0.744,0 0,5.91 z m -3.436,-5.91 0.625,0 0,5.91 -0.625,0 0,-3.864 c 0,-0.417 0.037,-0.928 0.074,-1.156 -0.074,0.237 -0.276,0.663 -0.515,1.033 l -2.572,3.987 -0.882,0 0,-5.91 0.616,0 0,4.3 c 0,0.407 -0.037,0.928 -0.083,1.146 0.083,-0.227 0.285,-0.654 0.523,-1.023 l 2.839,-4.423 z m -5.686,2.207 0,3.703 -0.717,0 0,-3.637 c 0,-1.563 -0.652,-1.932 -1.488,-1.932 -0.845,0 -1.488,0.369 -1.488,1.932 l 0,3.637 -0.744,0 0,-3.703 c 0,-1.743 0.753,-2.406 2.232,-2.406 1.479,0 2.205,0.663 2.205,2.406"
     style="fill:#231f20;fill-opacity:1;fill-rule:nonzero;stroke:none"
     id="path2884" /></g><g
   id="g2886"
   transform="translate(62.28986,80.14062)"><path
     d="m 0,0 0,-13.168 111.444,0 0,32.669 L 0,0"
     style="fill:#d0d1d1;fill-opacity:1;fill-rule:nonzero;stroke:none"
     id="path2888" /></g><g
   id="g2890"
   transform="translate(104.74587,79.22861)"><path
     d="m 0,0 c -1.162,-1.225 -2.679,-2.206 -4.334,-2.74 -1.283,-0.413 -0.381,0.683 0.16,1.256 0.687,0.728 1.628,1.543 2.394,2.188 C 0.042,2.235 1.989,3.631 3.993,4.917 2.74,3.201 1.444,1.522 0,0 m -37.375,15.24 c 0.674,0.48 1.346,0.967 2.084,1.395 1.102,0.638 1.586,0.342 0.642,-0.477 -1.11,-0.964 -2.233,-1.665 -3.522,-2.417 -1.188,-0.693 -2.377,-1.358 -3.614,-1.952 1.408,1.205 2.908,2.382 4.41,3.451 m 56.511,5.986 c 0.826,0.463 2.138,0.83 0.734,-0.315 -0.546,-0.445 -1.229,-0.87 -1.838,-1.259 -1.156,-0.738 -2.149,-1.379 -3.439,-2.195 0.973,1.005 2.961,2.884 4.543,3.769 m 2.222,-6.254 c -0.111,0.271 -4.34,-1.989 -5.421,-2.541 -2.218,-1.133 -4.275,-2.22 -9.147,-4.856 1.971,2.699 4.396,5.981 6.19,8.083 1.001,0.635 1.995,1.277 2.994,1.895 1.309,0.812 2.368,1.422 3.65,2.279 0.816,0.545 2.75,1.712 2.615,2.675 -0.162,1.16 -1.894,0.331 -2.192,0.197 -1.309,-0.59 -2.641,-1.569 -3.725,-2.477 C 14.84,18.985 13.337,17.344 12.09,15.896 10.598,14.692 8.155,13.448 6.492,12.644 7.214,13.15 7.615,13.618 7.37,13.907 6.972,14.376 5.864,13.66 5.224,13.323 4.706,13.051 1.854,11.386 1.092,11.746 c -0.2,0.108 0.258,0.383 0.439,0.472 0.619,0.299 0.864,0.45 2.587,1.169 0.516,0.216 0.894,0.43 0.872,1.092 C 4.975,14.87 4.125,14.605 3.599,14.359 3.049,14.102 2.16,13.804 1.076,13.56 c -0.88,-0.197 -2.23,-0.468 -3.014,-0.391 0.007,0.085 -0.119,0.416 -0.502,0.465 -0.352,0.045 -0.639,-0.101 -1.059,-0.391 -0.206,-0.142 -1.157,-0.998 -0.896,-1.347 -0.315,-0.327 -0.937,-0.709 -1.006,-0.741 -0.342,-0.16 -0.851,-0.578 -1.53,-0.77 -1.123,-0.32 -0.354,0.227 0.113,0.568 0.84,0.611 1.746,1.361 1.399,1.673 -0.347,0.312 -1.481,-0.309 -1.83,-0.485 -1.47,-0.743 -3.545,-1.892 -5.46,-2.661 -0.945,-0.379 -1.346,-0.551 -1.479,-0.421 -0.296,0.29 1.381,0.84 1.929,1.787 0.053,0.091 0.143,0.251 0.063,0.358 -0.403,0.534 -2.068,-0.466 -2.469,-0.654 -1.826,-0.855 -3.771,-1.855 -4.373,-2.078 -0.733,-0.271 -1.545,-0.554 -1.607,-0.431 -0.063,0.122 1.213,0.781 1.734,1.059 0.637,0.34 1.835,0.895 1.972,1.243 0.076,0.196 0.062,0.346 -0.055,0.421 -0.703,0.454 -3.559,-1.051 -6.045,-2.156 -0.686,-0.304 -1.534,-0.729 -2.145,-0.98 -0.698,-0.286 -1.483,-0.649 -1.671,-0.511 -0.074,0.055 0.555,0.407 0.75,0.503 1.13,0.56 2.956,1.434 3.265,1.802 0.094,0.112 0.19,0.42 0.071,0.564 -0.385,0.465 -1.484,-0.353 -2.491,-0.76 -1.232,-0.498 -2.452,-1.016 -3.683,-1.512 -1.12,-0.452 -2.513,-0.986 -3.75,-1.401 -0.63,-0.212 -1.498,-0.544 -1.675,-0.344 -0.142,0.161 1.68,0.941 2.305,1.396 0.22,0.159 0.917,0.665 0.723,1.02 -0.26,0.478 -5.476,-2.737 -5.776,-2.61 -0.457,0.192 3.104,2.088 3.176,2.15 0.194,0.167 0.731,0.432 0.594,0.732 -0.407,0.885 -2.863,-0.858 -8.811,-3.958 0.674,0.671 1.36,1.329 2.043,1.992 0.354,0.343 1.012,0.84 1.141,1.35 0.35,1.375 -2.398,-0.319 -2.665,-0.496 -1.637,-1.091 -3.202,-2.29 -4.851,-3.358 0.011,0.011 0.023,0.021 0.035,0.033 0.49,0.46 1.936,1.725 1.776,2.528 -0.183,0.922 -1.733,0.341 -3.146,-0.407 1.186,1.152 2.465,2.159 3.694,3.271 2.151,1.046 4.24,2.195 6.309,3.4 1.768,1.029 3.893,2.196 5.094,3.911 0.312,0.446 0.613,1.06 0.085,1.464 -0.589,0.45 -1.767,-0.273 -2.272,-0.544 -2.335,-1.254 -4.531,-3.149 -6.523,-4.874 -0.881,-0.763 -1.756,-1.533 -2.626,-2.307 -2.308,-1.148 -6.009,-2.849 -8.493,-3.572 -0.876,-0.255 -5.265,-1.156 -4.388,0.626 0.822,1.671 6.361,4.964 6.038,5.141 -0.143,0.078 -5.043,-2.787 -6.666,-4.801 -0.349,-0.432 -1.066,-1.21 -0.828,-1.835 0.346,-0.905 2.433,-0.729 3.175,-0.61 3.569,0.575 6.094,1.804 9.077,3.173 -1.49,-1.363 -2.956,-2.751 -4.389,-4.177 -0.572,-0.57 -0.263,-0.945 0.4,-0.482 0.658,0.458 1.331,0.947 2.062,1.282 0.151,0.069 2.11,0.724 1.787,0.076 -0.542,-1.086 -2.062,-2.141 -2.967,-2.949 -0.362,-0.323 -0.877,-1.23 0.027,-0.774 1.964,0.991 3.957,2.207 5.707,3.54 0.485,0.369 1.232,0.815 1.726,1.174 0.419,0.304 1.236,0.745 1.375,0.874 -2.787,-2.602 -5.315,-5.181 -7.603,-8.175 -2.422,-3.171 -4.687,-6.486 -7.279,-9.525 -0.64,-0.75 -1.807,-1.502 -1.737,-0.356 0.06,0.968 0.824,1.982 1.389,2.734 0.956,1.271 2.032,2.457 3.336,3.898 0.76,0.838 1.458,1.473 1.3,1.616 -0.12,0.109 -4.099,-3.761 -5.677,-5.647 -1.04,-1.244 -2.173,-3.499 -0.999,-4.29 1.176,-0.791 2.95,1.566 3.684,2.427 1.81,2.126 3.458,4.422 5.133,6.655 1.558,2.077 3.105,4.101 4.819,6.018 0.051,0.035 0.103,0.075 0.158,0.123 0.416,0.36 3.497,2.543 6.017,3.668 -0.565,-0.266 -1.428,-1.116 -1.753,-1.473 -0.421,-0.464 0.13,-0.812 1.005,-0.601 0.56,0.135 1.896,0.721 2.605,1.119 -0.042,-0.055 -0.079,-0.116 -0.107,-0.187 -0.049,-0.129 0.074,-0.471 0.471,-0.522 0.927,-0.117 3.709,1.079 4.7,1.487 1.124,0.463 2.214,0.917 3.319,1.374 0.097,0.04 0.29,0.169 0.543,0.271 -0.473,-0.306 -1.206,-0.904 -1.488,-1.39 -0.061,-0.103 -0.107,-0.284 -0.037,-0.402 0.613,-1.028 5.993,1.933 6.891,2.283 0.169,0.066 0.34,0.127 0.51,0.19 -0.99,-0.803 -1.994,-2.121 0.153,-1.712 1.482,0.282 3.03,1.102 4.373,1.747 0.387,0.185 0.77,0.377 1.154,0.566 -0.213,-0.201 -0.401,-0.424 -0.542,-0.679 -0.27,-0.487 0.124,-0.772 0.572,-0.683 1.895,0.378 4.416,1.732 6.18,2.517 0.5,0.222 1.028,0.453 1.525,0.686 -0.503,-0.304 -0.847,-0.583 -1.196,-0.928 -1.11,-1.101 0.359,-1.202 1.34,-0.654 -1.047,-1.132 0.533,-0.966 0.962,-0.632 0.356,0.278 1.17,0.815 1.917,1.429 1.314,1.08 1.49,1.32 1.915,1.703 0.54,0.074 1.209,0.235 1.616,0.32 0.998,0.208 2.176,0.582 3.157,0.85 C 1.644,13.028 0.7,12.576 0.469,12.419 -0.185,11.973 -1.568,10.9 0.016,10.665 c 0.759,-0.114 2.103,0.255 3.001,0.672 0.14,0.065 0.573,0.283 0.847,0.462 -0.2,-0.09 -0.285,-0.289 -0.27,-0.337 0.255,-0.851 2.45,0.307 2.592,0.375 1.738,0.838 2.948,1.448 4.534,2.407 C 9.641,12.899 7.277,9.656 7.069,9.387 6.14,8.184 5.825,7.77 4.93,6.517 3.272,5.451 2.042,4.591 0.442,3.486 c -2.191,-1.514 -4.047,-3.013 -4.931,-3.8 -1.112,-0.989 -2.008,-1.851 -2.269,-3.05 -0.248,-1.14 1.703,-0.647 2.1,-0.552 1.414,0.339 2.918,1.3 4.021,2.213 2.529,2.095 4.307,5.023 6.226,7.641 1.6,1.007 3.22,1.98 4.86,2.925 3.538,2.04 10.977,5.946 10.909,6.109 M 31.166,6.29 C 29.817,4.515 27.602,2.282 25.641,0.912 25.071,0.513 22.177,-1.292 22.47,0.229 c 0.237,1.236 3.261,4.456 5.602,6.688 2.768,2.64 5.395,4.998 8.65,7.524 C 34.869,11.723 33.151,8.903 31.166,6.29 m 12.898,20.713 c 1.736,1.375 2.814,2.237 4.723,3.169 1.308,0.638 0.345,-0.438 -0.155,-0.876 -0.585,-0.512 -1.467,-1.112 -2.138,-1.517 -1.836,-1.109 -3.254,-1.869 -5.172,-2.929 0.883,0.716 1.853,1.447 2.742,2.153 m 40.45,1.77 c -0.992,-0.58 -2.7,-1.754 -2.899,-1.894 -0.173,0.071 -0.198,0.131 -0.654,-0.1 0.595,0.607 0.789,1.135 0.376,1.188 -0.582,0.074 -1.841,-0.421 -2.495,-0.747 -1.139,-0.568 -2.268,-1.039 -3.396,-1.51 -0.86,-0.358 -1.816,-0.72 -2.694,-1.035 -0.447,-0.16 -1.281,-0.36 -1.397,-0.17 -0.116,0.191 1.543,1.07 2.404,1.581 0.229,0.136 0.921,0.477 0.689,0.911 -0.2,0.372 -1.1,-0.112 -1.344,-0.223 -2.128,-0.966 -2.656,-1.262 -4.799,-2.121 -0.675,-0.27 -2.076,-0.775 -2.778,-0.969 -0.857,-0.236 -0.402,0.143 -0.114,0.3 0.691,0.346 1.336,0.597 1.999,0.981 0.805,0.466 0.319,1.024 -0.172,0.854 -3.304,-1.142 -5.812,-2.295 -9.089,-3.45 -0.256,-0.09 -0.77,-0.216 -0.828,-0.12 -0.058,0.095 1.454,0.838 1.974,1.086 0.665,0.317 1.166,0.573 1.824,0.922 0.298,0.157 0.48,0.394 0.188,0.677 -0.296,0.286 -1.043,0.009 -1.363,-0.142 -2.089,-0.982 -7.471,-3.445 -10.319,-4.334 -0.191,-0.059 -0.966,-0.266 -1.022,-0.045 -0.03,0.124 0.922,0.632 1.354,0.916 0.913,0.6 2.258,1.205 2.84,2.182 0.062,0.106 0.132,0.243 0.063,0.362 -0.315,0.538 -3.253,-1.404 -3.691,-1.537 -0.155,-0.047 0.444,0.398 1.002,0.805 0.484,0.354 0.683,0.633 0.703,1.092 0.03,0.665 -0.633,0.256 -0.861,0.151 -2.458,-1.129 -4.753,-2.759 -6.988,-4.266 -0.827,-0.557 -1.645,-1.131 -2.456,-1.72 0.212,0.258 0.427,0.515 0.654,0.764 0.426,0.469 2.89,2.674 2.288,3.405 -0.081,0.099 -0.269,0.035 -0.358,0.001 -0.716,-0.274 -1.241,-0.855 -1.776,-1.382 -1.022,-1.006 -2.177,-1.917 -3.321,-2.781 -0.409,-0.308 -0.83,-0.599 -1.278,-0.847 -0.867,-0.479 0.256,0.839 0.644,1.243 0.991,1.036 2.138,2.051 3.125,3.091 0.195,0.205 0.446,1.014 -0.242,0.817 -1.456,-0.417 -2.66,-1.145 -3.635,-1.653 0.717,0.604 1.251,1.138 1.684,1.462 2.622,1.331 5.213,2.718 7.789,4.156 1.938,1.082 4.92,3.115 5.347,4.289 0.151,0.414 -0.034,0.89 -0.467,0.966 -1.994,0.346 -5.684,-2.772 -7.739,-4.531 -1.611,-1.38 -3.054,-2.518 -4.705,-3.855 -1.13,-0.556 -2.424,-1.214 -3.55,-1.771 -1.646,-0.814 -3.786,-1.699 -5.127,-2.196 -0.592,-0.22 -1.484,-0.426 -2.1,-0.559 -1.606,-0.346 -1.125,0.359 -0.354,0.906 1.221,0.867 1.403,1.087 0.748,0.863 -1.065,-0.363 -4.116,-2.359 -2.183,-2.675 1.082,-0.177 2.658,0.305 3.497,0.608 1.732,0.626 3.055,1.157 4.623,1.895 0.575,0.271 1.142,0.552 1.713,0.83 -1.067,-0.895 -2.149,-1.991 -3.167,-2.942 -0.599,-0.558 -0.247,-0.976 0.407,-0.486 1.634,1.224 3.473,2.072 5.337,2.871 -0.922,-0.938 -1.817,-1.802 -2.63,-2.831 -0.515,-0.652 -1.488,-2.11 -0.318,-1.887 1.096,0.209 2.073,1.024 2.939,1.678 0.899,0.679 0.992,0.748 1.837,1.495 -0.036,-0.041 0.441,0.328 0.404,0.287 -0.429,-0.481 -0.601,-0.717 -1.028,-1.2 -0.485,-0.546 -0.911,-1.141 -1.333,-1.739 -4.82,-3.731 -9.594,-7.776 -13.754,-12.149 -1.699,-1.785 -4.751,-5.41 -2.721,-5.828 1.007,-0.208 2.166,0.257 3.548,1.031 1.419,0.795 2.463,1.75 3.634,2.878 4.183,4.032 6.443,8.3 9.38,12.83 0.174,0.268 0.368,0.519 0.553,0.777 2.858,2.25 4.833,3.69 8.008,5.519 -0.221,-0.169 -0.355,-0.255 -0.575,-0.425 -0.595,-0.459 -2.228,-1.412 -1.523,-2.029 0.447,-0.39 1.599,0.15 1.969,0.483 -0.392,-0.644 0.311,-0.608 1.116,-0.479 1.961,0.312 3.594,1.176 5.33,1.916 1.068,0.456 2.131,0.92 3.209,1.351 -0.619,-0.479 -1.214,-1.079 -0.912,-1.44 0.541,-0.644 3.251,0.648 3.795,0.851 1.243,0.465 3.636,1.414 3.734,1.381 -0.398,-0.215 -1.156,-1.366 -0.082,-1.19 0.665,0.109 4.542,1.554 7.239,2.603 -0.704,-0.505 -1.232,-1.059 -1.216,-1.654 0.003,-0.077 0.042,-0.124 0.117,-0.14 0.555,-0.142 1.228,0.19 1.746,0.359 1.127,0.367 2.238,0.79 3.345,1.214 1.264,0.486 2.505,1.03 3.76,1.538 0.26,0.105 2.651,1.071 2.076,0.363 -0.315,-0.388 -0.676,-0.739 -0.998,-1.122 -0.383,-0.455 -0.014,-0.629 0.534,-0.456 0.419,0.133 0.627,0.213 1.043,0.426 0.233,0.12 -0.166,-0.037 0.044,-0.324 0.277,-0.382 0.939,-0.012 1.271,0.063 0.257,0.06 0.394,0.37 0.243,0.578 -0.047,0.064 -0.1,0.137 -0.232,0.169 0.835,0.789 1.712,1.518 2.613,2.261 1.007,0.831 1.061,1.394 -0.076,0.728 m -21.486,2.813 c 0.054,0.016 0.033,0.007 0,0 m -1.435,-1.361 c 0.046,0.008 0.091,0.027 0.137,0.042 0.034,-0.036 0.094,-0.055 0.196,-0.044 0.463,0.051 0.896,0.381 1.214,0.69 0.194,0.19 0.659,0.727 0.241,0.93 -0.11,0.054 -0.327,-0.023 -0.429,-0.053 -0.126,-0.037 -0.242,-0.098 -0.359,-0.155 -0.467,-0.233 -0.841,-0.617 -1.133,-1.04 -0.111,-0.16 -0.131,-0.412 0.133,-0.37 M -23.843,13.452 c 0.096,0.033 0.182,0.086 0.272,0.131 l 0.002,0 c 0.06,0.025 0.121,0.051 0.183,0.074 0.012,0.004 0.055,0.019 0.081,0.027 0.045,0.011 0.09,0.021 0.137,0.029 0.01,0.001 0.015,0.002 0.021,0.004 0.004,-0.001 0.005,-0.001 0.009,-0.002 0.001,0 0.002,0 0.003,0 0.006,-0.019 0.008,-0.039 0.021,-0.055 0.085,-0.102 0.278,-0.038 0.372,-0.002 0.402,0.149 0.851,0.497 1.057,0.879 0.007,0.013 0.015,0.026 0.022,0.039 0.037,0.069 0.164,0.282 0.065,0.366 -0.283,0.239 -0.773,0.045 -1.064,-0.079 -0.568,-0.239 -1.242,-0.642 -1.501,-1.226 -0.111,-0.25 0.173,-0.235 0.32,-0.185 m 26.698,4.242 c 0.105,-0.022 0.227,0.019 0.33,0.068 0.057,-0.093 0.234,-0.054 0.314,-0.034 0.359,0.09 0.675,0.265 0.963,0.499 0.27,0.22 0.62,0.544 0.633,0.92 C 5.107,19.539 4.516,19.363 4.332,19.29 4.116,19.204 3.917,19.093 3.725,18.962 3.541,18.836 3.38,18.692 3.218,18.54 3.154,18.475 3.092,18.407 3.034,18.337 2.983,18.276 2.806,18.026 2.943,18.213 2.879,18.126 2.596,17.75 2.855,17.694"
     style="fill:#315ca5;fill-opacity:1;fill-rule:nonzero;stroke:none"
     id="path2892" /></g><g
   id="g2958"
   transform="translate(31.181,884.409)"><path
     d="m 0,0 -15,0 m 632.953,0 15,0 M 0,-841.889 l -15,0 m 632.953,0 15,0 M 11.339,11.339 l 0,15 m 0,-879.567 0,-15 m 595.275,879.567 0,15 m 0,-879.567 0,-15"
     style="fill:none;stroke:#ffffff;stroke-width:1.25;stroke-linecap:butt;stroke-linejoin:miter;stroke-miterlimit:10;stroke-opacity:1;stroke-dasharray:none"
     id="path2960" /></g></g></svg>