<?xml version="1.0" encoding="utf-8"?>
<!-- Generator: Adobe Illustrator 16.0.0, SVG Export Plug-In . SVG Version: 6.00 Build 0)  -->
<!DOCTYPE svg PUBLIC "-//W3C//DTD SVG 1.0//EN" "http://www.w3.org/TR/2001/REC-SVG-20010904/DTD/svg10.dtd">
<svg version="1.0" id="HTW_x5F_Berlin_x5F_Logo" xmlns="http://www.w3.org/2000/svg" xmlns:xlink="http://www.w3.org/1999/xlink"
	 x="0px" y="0px" width="154.117px" height="85.034px" viewBox="0 0 154.117 85.034" enable-background="new 0 0 154.117 85.034"
	 xml:space="preserve">
<g>
	<g>
		<path d="M42.489,42.48h1.217v2.548h1.882V42.48h1.217v6.207h-1.217v-2.576h-1.882v2.576h-1.217V42.48z"/>
		<path d="M47.999,47.404c-0.076-0.313-0.086-0.58-0.086-1.103c0-0.514,0.01-0.779,0.086-1.094c0.19-0.808,0.912-1.378,1.882-1.378
			s1.664,0.57,1.863,1.378c0.076,0.314,0.086,0.58,0.086,1.094c0,0.522-0.01,0.789-0.086,1.103
			c-0.189,0.799-0.922,1.378-1.901,1.378C48.882,48.783,48.198,48.203,47.999,47.404z M50.593,47.157
			c0.067-0.285,0.067-0.571,0.067-0.855c0-0.275,0-0.58-0.067-0.865c-0.075-0.304-0.313-0.57-0.731-0.57
			c-0.409,0-0.665,0.257-0.732,0.599c-0.047,0.257-0.057,0.562-0.057,0.837c0,0.285,0.01,0.57,0.057,0.827
			c0.067,0.342,0.323,0.6,0.732,0.6C50.28,47.728,50.518,47.461,50.593,47.157z"/>
		<path d="M52.844,47.404c-0.076-0.313-0.096-0.58-0.096-1.103c0-0.514,0.02-0.79,0.096-1.112c0.189-0.799,0.808-1.359,1.787-1.359
			c0.912,0,1.549,0.39,1.739,1.273c0.038,0.19,0.058,0.391,0.058,0.618v0.143h-1.15v-0.076c0-0.133,0-0.218-0.01-0.294
			c-0.057-0.419-0.275-0.628-0.665-0.628c-0.409,0-0.59,0.247-0.656,0.656c-0.028,0.171-0.028,0.504-0.028,0.779
			c0,0.285,0,0.561,0.028,0.731c0.076,0.419,0.295,0.695,0.741,0.695c0.447,0,0.741-0.276,0.932-0.637l0.779,0.75
			c-0.352,0.627-1.036,0.941-1.729,0.941C53.642,48.783,53.034,48.213,52.844,47.404z"/>
		<path d="M58.563,48.688h-1.169v-6.55h1.169v2.101c0.209-0.228,0.542-0.409,0.979-0.409c0.96,0,1.559,0.656,1.559,1.626v3.231
			h-1.179v-3.08c0-0.446-0.229-0.704-0.675-0.704c-0.399,0-0.685,0.257-0.685,0.704V48.688z"/>
		<path d="M64.254,45.94c0.684,0.256,1.188,0.532,1.188,1.426c0,0.827-0.675,1.417-1.663,1.417c-0.884,0-1.54-0.39-1.815-1.007
			l0.836-0.694c0.238,0.39,0.532,0.647,0.998,0.647c0.247,0,0.447-0.105,0.447-0.333c0-0.267-0.162-0.333-0.57-0.485l-0.371-0.133
			c-0.874-0.324-1.159-0.751-1.159-1.483c0-0.836,0.693-1.464,1.645-1.464c1.141,0,1.635,0.59,1.635,1.483
			c0,0.075,0,0.151-0.01,0.228h-1.169c0.01-0.047,0.01-0.104,0.01-0.142c0-0.438-0.247-0.533-0.485-0.533
			c-0.304,0-0.456,0.209-0.456,0.418c0,0.247,0.199,0.381,0.589,0.523L64.254,45.94z"/>
		<path d="M66.448,47.404c-0.076-0.313-0.096-0.58-0.096-1.103c0-0.514,0.02-0.79,0.096-1.112c0.189-0.799,0.808-1.359,1.787-1.359
			c0.912,0,1.549,0.39,1.739,1.273c0.038,0.19,0.058,0.391,0.058,0.618v0.143h-1.15v-0.076c0-0.133,0-0.218-0.01-0.294
			c-0.057-0.419-0.275-0.628-0.665-0.628c-0.409,0-0.59,0.247-0.656,0.656c-0.028,0.171-0.028,0.504-0.028,0.779
			c0,0.285,0,0.561,0.028,0.731c0.076,0.419,0.295,0.695,0.741,0.695c0.447,0,0.741-0.276,0.932-0.637l0.779,0.75
			c-0.352,0.627-1.036,0.941-1.729,0.941C67.246,48.783,66.637,48.213,66.448,47.404z"/>
		<path d="M72.12,48.688h-1.169v-6.55h1.169v2.101c0.209-0.228,0.542-0.409,0.979-0.409c0.96,0,1.559,0.656,1.559,1.626v3.231
			h-1.179v-3.08c0-0.446-0.229-0.704-0.675-0.704c-0.399,0-0.685,0.257-0.685,0.704V48.688z"/>
		<path d="M78.447,48.231c-0.257,0.371-0.666,0.551-1.103,0.551c-0.961,0-1.54-0.656-1.54-1.635v-3.213h1.169v3.089
			c0,0.418,0.219,0.694,0.665,0.694c0.409,0,0.694-0.275,0.694-0.694v-3.089h1.169v4.753h-0.988L78.447,48.231z"/>
		<path d="M81.952,47.49c0.066,0.114,0.2,0.171,0.381,0.171c0.143,0,0.237-0.029,0.304-0.048v1.056
			c-0.133,0.028-0.352,0.047-0.522,0.047c-0.637,0-1.094-0.285-1.283-0.731c-0.086-0.209-0.124-0.466-0.124-0.723v-5.124h1.179
			v5.095C81.885,47.328,81.905,47.414,81.952,47.49z"/>
		<path d="M86.921,45.208c0.057,0.238,0.066,0.457,0.066,0.808c0,0.209,0,0.457-0.01,0.742h-2.557c0,0.124,0.009,0.229,0.028,0.323
			c0.076,0.409,0.323,0.647,0.761,0.647c0.342,0,0.685-0.086,0.97-0.562l0.76,0.732c-0.428,0.627-1.064,0.884-1.749,0.884
			c-1.017,0-1.654-0.58-1.854-1.378c-0.076-0.313-0.086-0.58-0.086-1.103c0-0.514,0.01-0.779,0.086-1.094
			c0.199-0.817,0.837-1.378,1.815-1.378C86.113,43.83,86.731,44.4,86.921,45.208z M84.45,45.494
			c-0.02,0.085-0.028,0.199-0.028,0.332h1.406c0-0.181-0.009-0.275-0.019-0.332c-0.057-0.391-0.267-0.628-0.675-0.628
			C84.715,44.866,84.516,45.095,84.45,45.494z"/>
		<path d="M91.527,44.961v3.726h-1.169v-3.726h-0.532v-1.027h0.532v-0.399c0-0.932,0.57-1.492,1.407-1.492
			c0.475,0,0.76,0.104,1.026,0.266L92.42,43.25c-0.143-0.085-0.285-0.123-0.484-0.123c-0.237,0-0.409,0.171-0.409,0.466v0.342h0.941
			v1.027H91.527z"/>
		<path d="M95.974,48.231c-0.257,0.371-0.666,0.551-1.103,0.551c-0.961,0-1.54-0.656-1.54-1.635v-3.213H94.5v3.089
			c0,0.418,0.219,0.694,0.665,0.694c0.409,0,0.694-0.275,0.694-0.694v-3.089h1.169v4.753h-0.988L95.974,48.231z M93.617,42.794
			c0-0.352,0.285-0.646,0.665-0.646c0.361,0,0.665,0.295,0.665,0.646s-0.304,0.665-0.665,0.665
			C93.902,43.459,93.617,43.146,93.617,42.794z M95.432,42.794c0-0.352,0.285-0.646,0.665-0.646c0.361,0,0.666,0.295,0.666,0.646
			s-0.305,0.665-0.666,0.665C95.717,43.459,95.432,43.146,95.432,42.794z"/>
		<path d="M99.451,48.688h-1.169v-4.753h0.988l0.066,0.466c0.247-0.409,0.608-0.551,0.998-0.551c0.086,0,0.238,0,0.419,0.029v1.15
			c-0.295-0.058-0.495-0.058-0.618-0.058c-0.399,0-0.685,0.237-0.685,0.713V48.688z"/>
		<path d="M104.362,43.602h-1.53V42.48h4.268v1.121h-1.521v5.086h-1.217V43.602z"/>
		<path d="M110.795,45.208c0.057,0.238,0.066,0.457,0.066,0.808c0,0.209,0,0.457-0.01,0.742h-2.557c0,0.124,0.009,0.229,0.028,0.323
			c0.076,0.409,0.323,0.647,0.761,0.647c0.342,0,0.685-0.086,0.97-0.562l0.76,0.732c-0.428,0.627-1.064,0.884-1.749,0.884
			c-1.017,0-1.654-0.58-1.854-1.378c-0.076-0.313-0.086-0.58-0.086-1.103c0-0.514,0.01-0.779,0.086-1.094
			c0.199-0.817,0.837-1.378,1.815-1.378C109.987,43.83,110.605,44.4,110.795,45.208z M108.324,45.494
			c-0.02,0.085-0.028,0.199-0.028,0.332h1.406c0-0.181-0.009-0.275-0.019-0.332c-0.057-0.391-0.267-0.628-0.675-0.628
			C108.589,44.866,108.39,45.095,108.324,45.494z"/>
		<path d="M111.867,47.404c-0.076-0.313-0.096-0.58-0.096-1.103c0-0.514,0.02-0.79,0.096-1.112c0.189-0.799,0.808-1.359,1.787-1.359
			c0.912,0,1.549,0.39,1.739,1.273c0.038,0.19,0.058,0.391,0.058,0.618v0.143h-1.15v-0.076c0-0.133,0-0.218-0.01-0.294
			c-0.057-0.419-0.275-0.628-0.665-0.628c-0.409,0-0.59,0.247-0.656,0.656c-0.028,0.171-0.028,0.504-0.028,0.779
			c0,0.285,0,0.561,0.028,0.731c0.076,0.419,0.295,0.695,0.741,0.695c0.447,0,0.741-0.276,0.932-0.637l0.779,0.75
			c-0.352,0.627-1.036,0.941-1.729,0.941C112.665,48.783,112.056,48.213,111.867,47.404z"/>
		<path d="M117.585,48.688h-1.169v-6.55h1.169v2.101c0.209-0.228,0.542-0.409,0.979-0.409c0.96,0,1.559,0.656,1.559,1.626v3.231
			h-1.179v-3.08c0-0.446-0.229-0.704-0.675-0.704c-0.399,0-0.685,0.257-0.685,0.704V48.688z"/>
		<path d="M122.477,48.688h-1.169v-4.753h0.998l0.057,0.428c0.247-0.352,0.646-0.532,1.094-0.532c0.96,0,1.559,0.656,1.559,1.626
			v3.231h-1.179v-3.08c0-0.446-0.229-0.704-0.675-0.704c-0.399,0-0.685,0.257-0.685,0.704V48.688z"/>
		<path d="M126.106,42.746c0-0.38,0.313-0.703,0.722-0.703c0.399,0,0.723,0.323,0.723,0.703c0,0.381-0.323,0.723-0.723,0.723
			C126.419,43.469,126.106,43.127,126.106,42.746z M126.249,48.688v-4.753h1.179v4.753H126.249z"/>
		<path d="M129.887,46.844v1.844H128.7v-6.55h1.188v3.612h0.096c0.903,0,1.217-0.722,1.217-1.53c0-0.095,0-0.19-0.01-0.285h1.198
			c0.009,0.114,0.019,0.229,0.019,0.343c0,0.912-0.342,1.739-1.046,2.195l1.397,2.215h-1.426l-1.084-1.854
			c-0.076,0.01-0.161,0.01-0.247,0.01H129.887z"/>
		<path d="M45.037,58.032c-0.257,0.37-0.666,0.55-1.103,0.55c-0.961,0-1.54-0.655-1.54-1.634v-3.213h1.169v3.089
			c0,0.419,0.219,0.694,0.665,0.694c0.409,0,0.694-0.275,0.694-0.694v-3.089h1.169v4.752h-0.988L45.037,58.032z"/>
		<path d="M48.484,58.488h-1.169v-4.752h0.998l0.057,0.428c0.247-0.352,0.646-0.532,1.094-0.532c0.96,0,1.559,0.655,1.559,1.625
			v3.232h-1.179v-3.08c0-0.446-0.229-0.703-0.675-0.703c-0.399,0-0.685,0.256-0.685,0.703V58.488z"/>
		<path d="M54.955,58.117c-0.257,0.267-0.628,0.465-1.179,0.465c-0.855,0-1.474-0.56-1.654-1.388
			c-0.066-0.323-0.086-0.57-0.086-1.092c0-0.524,0.02-0.799,0.086-1.122c0.161-0.827,0.855-1.35,1.701-1.35
			c0.438,0,0.761,0.123,0.999,0.313v-2.006h1.169v6.549h-0.979L54.955,58.117z M54.774,56.862c0.048-0.217,0.048-0.475,0.048-0.769
			c0-0.295,0-0.542-0.048-0.771c-0.086-0.408-0.352-0.665-0.771-0.665c-0.418,0-0.684,0.257-0.76,0.665
			c-0.038,0.19-0.038,0.476-0.038,0.771c0,0.294,0,0.58,0.038,0.769c0.076,0.41,0.342,0.676,0.76,0.676
			C54.422,57.538,54.688,57.271,54.774,56.862z"/>
		<path d="M60.026,58.488l-0.903-3.897c-0.114-0.494-0.181-1.169-0.181-1.626V52.28h1.217v0.685c0,0.333,0.038,0.913,0.114,1.341
			l0.161,0.874c0.134,0.704,0.285,1.359,0.295,1.702h0.038c0.038-0.399,0.171-0.932,0.275-1.321l0.485-1.892h1.017l0.494,1.749
			c0.152,0.522,0.305,1.15,0.343,1.53h0.038c0.01-0.362,0.152-1.008,0.266-1.692l0.152-0.95c0.066-0.428,0.104-1.008,0.104-1.341
			V52.28h1.217v0.685c0,0.457-0.066,1.122-0.171,1.626l-0.846,3.897h-1.331l-0.552-1.958c-0.161-0.581-0.209-0.941-0.228-1.189
			h-0.038c-0.02,0.257-0.066,0.608-0.229,1.198l-0.522,1.949H60.026z"/>
		<path d="M66.04,52.547c0-0.38,0.313-0.703,0.722-0.703c0.399,0,0.723,0.323,0.723,0.703c0,0.38-0.323,0.723-0.723,0.723
			C66.353,53.27,66.04,52.927,66.04,52.547z M66.182,58.488v-4.752h1.179v4.752H66.182z"/>
		<path d="M69.754,58.488h-1.169v-4.752h0.988l0.066,0.466c0.247-0.41,0.608-0.552,0.998-0.552c0.086,0,0.238,0,0.419,0.029v1.15
			c-0.295-0.057-0.495-0.057-0.618-0.057c-0.399,0-0.685,0.237-0.685,0.713V58.488z"/>
		<path d="M73.431,58.564c-0.798,0-1.378-0.552-1.378-1.493v-2.31h-0.532v-1.026h0.532v-1.293h1.169v1.293h1.141v1.026h-1.141v2.281
			c0,0.295,0.172,0.466,0.428,0.466c0.181,0,0.343-0.057,0.485-0.189l0.342,0.95C74.24,58.46,73.926,58.564,73.431,58.564z"/>
		<path d="M77.241,55.741c0.684,0.257,1.188,0.533,1.188,1.426c0,0.828-0.675,1.416-1.663,1.416c-0.884,0-1.54-0.389-1.815-1.008
			l0.836-0.693c0.238,0.39,0.532,0.646,0.998,0.646c0.247,0,0.447-0.104,0.447-0.333c0-0.265-0.162-0.333-0.57-0.484l-0.371-0.134
			c-0.874-0.324-1.159-0.751-1.159-1.482c0-0.837,0.693-1.464,1.645-1.464c1.141,0,1.635,0.589,1.635,1.482
			c0,0.077,0,0.153-0.01,0.229h-1.169c0.01-0.047,0.01-0.104,0.01-0.142c0-0.438-0.247-0.533-0.485-0.533
			c-0.304,0-0.456,0.209-0.456,0.418c0,0.247,0.199,0.38,0.589,0.522L77.241,55.741z"/>
		<path d="M79.434,57.205c-0.076-0.314-0.096-0.581-0.096-1.103c0-0.514,0.02-0.789,0.096-1.112
			c0.189-0.799,0.808-1.359,1.787-1.359c0.912,0,1.549,0.389,1.739,1.273c0.038,0.191,0.058,0.39,0.058,0.619v0.143h-1.15v-0.076
			c0-0.133,0-0.219-0.01-0.295c-0.057-0.418-0.275-0.627-0.665-0.627c-0.409,0-0.59,0.248-0.656,0.655
			c-0.028,0.172-0.028,0.504-0.028,0.781c0,0.285,0,0.561,0.028,0.731c0.076,0.419,0.295,0.694,0.741,0.694
			c0.447,0,0.741-0.275,0.932-0.637l0.779,0.751c-0.352,0.627-1.036,0.94-1.729,0.94C80.232,58.583,79.624,58.012,79.434,57.205z"/>
		<path d="M85.106,58.488h-1.169v-6.549h1.169v2.101c0.209-0.228,0.542-0.408,0.979-0.408c0.96,0,1.559,0.655,1.559,1.625v3.232
			h-1.179v-3.08c0-0.446-0.229-0.703-0.675-0.703c-0.399,0-0.685,0.256-0.685,0.703V58.488z"/>
		<path d="M90.189,58.526c-0.323,0-0.476-0.02-0.676-0.077c-0.599-0.171-0.95-0.665-0.95-1.359c0-0.723,0.438-1.131,0.95-1.284
			c0.2-0.056,0.419-0.076,0.742-0.076c0.285,0,0.522,0.047,0.703,0.124v-0.58c0-0.381-0.237-0.609-0.608-0.609
			c-0.323,0-0.57,0.153-0.761,0.599l-0.912-0.599c0.361-0.713,0.836-1.036,1.73-1.036c1.103,0,1.729,0.741,1.729,1.597v3.26h-0.932
			l-0.047-0.333c-0.058,0.058-0.114,0.105-0.162,0.143C90.835,58.44,90.531,58.526,90.189,58.526z M90.759,57.528
			c0.161-0.038,0.294-0.2,0.294-0.418c0-0.229-0.123-0.391-0.285-0.438c-0.104-0.028-0.266-0.028-0.408-0.028s-0.295,0-0.399,0.028
			c-0.181,0.047-0.285,0.209-0.285,0.438c0,0.218,0.123,0.38,0.285,0.418c0.114,0.028,0.267,0.028,0.399,0.028
			C90.512,57.557,90.655,57.557,90.759,57.528z"/>
		<path d="M94.729,54.762v3.726H93.56v-3.726h-0.532v-1.026h0.532v-0.399c0-0.932,0.57-1.492,1.407-1.492
			c0.475,0,0.76,0.104,1.026,0.266l-0.371,0.941c-0.143-0.086-0.285-0.124-0.484-0.124c-0.238,0-0.409,0.172-0.409,0.466v0.343
			h0.941v1.026H94.729z"/>
		<path d="M98.103,58.564c-0.799,0-1.379-0.552-1.379-1.493v-2.31h-0.532v-1.026h0.532v-1.293h1.169v1.293h1.141v1.026h-1.141v2.281
			c0,0.295,0.172,0.466,0.428,0.466c0.181,0,0.343-0.057,0.485-0.189l0.342,0.95C98.911,58.46,98.597,58.564,98.103,58.564z"/>
		<path d="M102.072,58.488V52.28h1.986c1.122,0,1.893,0.685,1.893,1.806c0,0.438-0.19,0.922-0.694,1.274
			c0.561,0.353,0.771,0.855,0.771,1.341c0,1.112-0.732,1.787-1.826,1.787H102.072z M103.289,53.374v1.55h0.694
			c0.437,0,0.76-0.333,0.76-0.78c0-0.447-0.323-0.77-0.76-0.77H103.289z M103.289,55.95v1.426h0.837
			c0.408,0,0.675-0.314,0.675-0.731c0-0.4-0.267-0.695-0.675-0.695H103.289z"/>
		<path d="M110.547,55.009c0.057,0.238,0.066,0.456,0.066,0.809c0,0.209,0,0.456-0.01,0.741h-2.557c0,0.124,0.009,0.229,0.028,0.324
			c0.076,0.408,0.323,0.646,0.761,0.646c0.342,0,0.685-0.086,0.97-0.561l0.76,0.731c-0.428,0.628-1.064,0.883-1.749,0.883
			c-1.017,0-1.654-0.579-1.854-1.377c-0.076-0.314-0.086-0.581-0.086-1.103c0-0.514,0.01-0.781,0.086-1.094
			c0.199-0.818,0.837-1.378,1.815-1.378C109.739,53.631,110.357,54.201,110.547,55.009z M108.076,55.294
			c-0.02,0.086-0.028,0.2-0.028,0.333h1.406c0-0.181-0.009-0.275-0.019-0.333c-0.057-0.39-0.267-0.627-0.675-0.627
			C108.341,54.667,108.142,54.895,108.076,55.294z"/>
		<path d="M112.807,58.488h-1.169v-4.752h0.988l0.066,0.466c0.247-0.41,0.608-0.552,0.998-0.552c0.086,0,0.238,0,0.419,0.029v1.15
			c-0.295-0.057-0.495-0.057-0.618-0.057c-0.399,0-0.685,0.237-0.685,0.713V58.488z"/>
		<path d="M116.131,57.29c0.066,0.114,0.2,0.171,0.381,0.171c0.143,0,0.237-0.029,0.304-0.047v1.056
			c-0.133,0.028-0.352,0.046-0.522,0.046c-0.637,0-1.094-0.285-1.283-0.731c-0.086-0.21-0.124-0.466-0.124-0.723v-5.124h1.179v5.096
			C116.065,57.128,116.084,57.215,116.131,57.29z"/>
		<path d="M117.5,52.547c0-0.38,0.313-0.703,0.722-0.703c0.399,0,0.723,0.323,0.723,0.703c0,0.38-0.323,0.723-0.723,0.723
			C117.813,53.27,117.5,52.927,117.5,52.547z M117.642,58.488v-4.752h1.179v4.752H117.642z"/>
		<path d="M121.214,58.488h-1.169v-4.752h0.998l0.057,0.428c0.247-0.352,0.646-0.532,1.094-0.532c0.96,0,1.559,0.655,1.559,1.625
			v3.232h-1.179v-3.08c0-0.446-0.229-0.703-0.675-0.703c-0.399,0-0.685,0.256-0.685,0.703V58.488z"/>
		<path fill="#86BC25" d="M45.077,69.655h0.939v2.532c0,0.807-0.036,1.133-0.155,1.429c-0.236,0.6-0.792,0.947-1.613,0.947
			c-0.828,0-1.384-0.347-1.613-0.94c-0.118-0.303-0.162-0.629-0.162-1.436v-2.532h0.939v2.577c0,0.606,0.008,0.732,0.044,0.888
			c0.082,0.325,0.318,0.562,0.792,0.562s0.703-0.229,0.777-0.555c0.037-0.157,0.052-0.29,0.052-0.896V69.655z"/>
		<path fill="#86BC25" d="M47.867,74.488h-0.91v-3.7h0.776l0.045,0.333c0.192-0.273,0.503-0.414,0.851-0.414
			c0.748,0,1.214,0.509,1.214,1.265v2.516h-0.918v-2.397c0-0.348-0.178-0.548-0.525-0.548c-0.311,0-0.532,0.2-0.532,0.548V74.488z"
			/>
		<path fill="#86BC25" d="M50.612,69.863c0-0.295,0.244-0.547,0.562-0.547c0.311,0,0.562,0.252,0.562,0.547
			c0,0.296-0.252,0.563-0.562,0.563C50.856,70.426,50.612,70.159,50.612,69.863z M50.723,74.488v-3.7h0.917v3.7H50.723z"/>
		<path fill="#86BC25" d="M53.454,74.488c-0.281-0.57-0.629-1.428-0.844-1.976c-0.155-0.393-0.244-0.858-0.244-1.213v-0.511h0.903
			v0.511c0,0.258,0.066,0.651,0.185,1.006c0.111,0.34,0.348,0.844,0.451,1.421h0.03c0.104-0.577,0.348-1.081,0.458-1.421
			c0.104-0.311,0.178-0.748,0.178-1.006v-0.511h0.903v0.511c0,0.355-0.081,0.836-0.229,1.213c-0.215,0.547-0.585,1.406-0.858,1.976
			H53.454z"/>
		<path fill="#86BC25" d="M58.9,71.779c0.045,0.186,0.052,0.356,0.052,0.63c0,0.162,0,0.354-0.007,0.577h-1.991
			c0,0.096,0.008,0.178,0.022,0.25c0.06,0.319,0.252,0.504,0.592,0.504c0.267,0,0.533-0.067,0.755-0.438l0.592,0.571
			c-0.333,0.488-0.828,0.688-1.361,0.688c-0.792,0-1.288-0.451-1.443-1.073c-0.059-0.244-0.066-0.451-0.066-0.858
			c0-0.399,0.008-0.607,0.066-0.852c0.155-0.635,0.651-1.072,1.414-1.072C58.271,70.707,58.752,71.15,58.9,71.779z M56.976,72.002
			c-0.015,0.066-0.022,0.155-0.022,0.259h1.096c0-0.141-0.008-0.215-0.015-0.259c-0.045-0.304-0.208-0.488-0.525-0.488
			C57.183,71.514,57.028,71.69,56.976,72.002z"/>
		<path fill="#86BC25" d="M60.618,74.488h-0.91v-3.7h0.77l0.052,0.362c0.192-0.318,0.474-0.428,0.776-0.428
			c0.067,0,0.186,0,0.326,0.021v0.896c-0.229-0.044-0.385-0.044-0.481-0.044c-0.311,0-0.532,0.184-0.532,0.554V74.488z"/>
		<path fill="#86BC25" d="M63.725,72.349c0.533,0.2,0.925,0.415,0.925,1.111c0,0.643-0.525,1.102-1.295,1.102
			c-0.688,0-1.198-0.303-1.413-0.784l0.651-0.542c0.185,0.304,0.414,0.504,0.776,0.504c0.192,0,0.349-0.082,0.349-0.259
			c0-0.208-0.126-0.259-0.444-0.377l-0.289-0.103c-0.681-0.252-0.902-0.585-0.902-1.154c0-0.652,0.54-1.14,1.28-1.14
			c0.888,0,1.272,0.458,1.272,1.154c0,0.059,0,0.118-0.007,0.178h-0.91c0.007-0.037,0.007-0.082,0.007-0.111
			c0-0.341-0.192-0.414-0.377-0.414c-0.237,0-0.355,0.162-0.355,0.325c0,0.192,0.155,0.296,0.459,0.407L63.725,72.349z"/>
		<path fill="#86BC25" d="M65.301,69.863c0-0.295,0.244-0.547,0.562-0.547c0.311,0,0.562,0.252,0.562,0.547
			c0,0.296-0.252,0.563-0.562,0.563C65.545,70.426,65.301,70.159,65.301,69.863z M65.413,74.488v-3.7h0.917v3.7H65.413z"/>
		<path fill="#86BC25" d="M68.468,74.548c-0.621,0-1.072-0.43-1.072-1.162v-1.799h-0.415v-0.798h0.415v-1.007h0.91v1.007h0.888
			v0.798h-0.888v1.776c0,0.23,0.133,0.363,0.333,0.363c0.141,0,0.267-0.044,0.377-0.147l0.267,0.74
			C69.098,74.466,68.854,74.548,68.468,74.548z"/>
		<path fill="#86BC25" d="M69.86,75.865v-0.837c0.096,0.015,0.192,0.015,0.325,0.015c0.222,0,0.362-0.059,0.511-0.385l0.104-0.229
			c-0.325-0.688-0.695-1.472-0.896-1.953c-0.178-0.422-0.229-0.792-0.229-1.162v-0.525h0.94v0.525c0,0.258,0.044,0.562,0.162,0.881
			c0.126,0.347,0.378,0.844,0.474,1.413h0.03c0.11-0.614,0.362-1.14,0.466-1.413c0.126-0.326,0.163-0.623,0.163-0.881v-0.525h0.933
			v0.525c0,0.37-0.06,0.769-0.223,1.162c-0.236,0.577-0.747,1.791-1.103,2.515c-0.273,0.562-0.6,0.918-1.236,0.918
			C70.193,75.909,70.088,75.909,69.86,75.865z"/>
		<path fill="#86BC25" d="M74.919,73.489c-0.059-0.244-0.066-0.451-0.066-0.858c0-0.399,0.008-0.607,0.066-0.852
			c0.148-0.629,0.711-1.072,1.466-1.072s1.295,0.443,1.45,1.072c0.06,0.245,0.066,0.453,0.066,0.852
			c0,0.407-0.007,0.614-0.066,0.858c-0.147,0.623-0.718,1.073-1.48,1.073C75.608,74.562,75.075,74.111,74.919,73.489z M76.94,73.297
			c0.052-0.222,0.052-0.444,0.052-0.666c0-0.215,0-0.451-0.052-0.674c-0.059-0.237-0.244-0.443-0.569-0.443
			c-0.318,0-0.519,0.199-0.57,0.465c-0.037,0.201-0.044,0.437-0.044,0.652c0,0.222,0.007,0.444,0.044,0.643
			c0.052,0.267,0.252,0.467,0.57,0.467C76.696,73.741,76.881,73.533,76.94,73.297z"/>
		<path fill="#86BC25" d="M79.774,71.586v2.901h-0.91v-2.901H78.45v-0.798h0.414v-0.311c0-0.726,0.444-1.162,1.096-1.162
			c0.369,0,0.592,0.081,0.799,0.207l-0.289,0.732c-0.11-0.066-0.222-0.096-0.377-0.096c-0.185,0-0.318,0.132-0.318,0.362v0.267
			h0.732v0.798H79.774z"/>
		<path fill="#86BC25" d="M83.282,74.488h-0.947v-0.533c0-0.354,0.096-0.902,0.229-1.287l1.043-3.013h1.117l1.036,3.02
			c0.134,0.378,0.229,0.926,0.229,1.281v0.533H85.05v-0.533c0-0.133-0.015-0.325-0.045-0.495h-1.68
			c-0.029,0.17-0.044,0.362-0.044,0.495V74.488z M84.155,70.655l-0.6,1.953h1.206L84.155,70.655z"/>
		<path fill="#86BC25" d="M87.596,74.311v1.576h-0.91v-5.099h0.762l0.045,0.296c0.199-0.222,0.495-0.377,0.932-0.377
			c0.666,0,1.14,0.437,1.273,1.08c0.052,0.259,0.066,0.437,0.066,0.844s-0.015,0.621-0.066,0.873
			c-0.134,0.644-0.659,1.059-1.332,1.059C88.033,74.562,87.781,74.466,87.596,74.311z M87.625,72.023
			c-0.029,0.148-0.029,0.386-0.029,0.607c0,0.229,0,0.444,0.029,0.592c0.066,0.318,0.273,0.525,0.6,0.525
			c0.325,0,0.54-0.208,0.6-0.525c0.029-0.148,0.036-0.362,0.036-0.592c0-0.222-0.007-0.459-0.036-0.607
			c-0.06-0.317-0.274-0.518-0.6-0.518C87.899,71.506,87.692,71.706,87.625,72.023z"/>
		<path fill="#86BC25" d="M91.452,74.311v1.576h-0.91v-5.099h0.762l0.045,0.296c0.199-0.222,0.495-0.377,0.932-0.377
			c0.666,0,1.14,0.437,1.273,1.08c0.052,0.259,0.066,0.437,0.066,0.844s-0.015,0.621-0.066,0.873
			c-0.134,0.644-0.659,1.059-1.332,1.059C91.888,74.562,91.636,74.466,91.452,74.311z M91.481,72.023
			c-0.029,0.148-0.029,0.386-0.029,0.607c0,0.229,0,0.444,0.029,0.592c0.066,0.318,0.273,0.525,0.6,0.525
			c0.325,0,0.54-0.208,0.6-0.525c0.029-0.148,0.036-0.362,0.036-0.592c0-0.222-0.007-0.459-0.036-0.607
			c-0.06-0.317-0.274-0.518-0.6-0.518C91.754,71.506,91.547,71.706,91.481,72.023z"/>
		<path fill="#86BC25" d="M95.351,73.556c0.052,0.089,0.155,0.134,0.296,0.134c0.111,0,0.186-0.023,0.237-0.037v0.821
			c-0.104,0.022-0.274,0.037-0.407,0.037c-0.496,0-0.852-0.223-0.999-0.57c-0.066-0.162-0.097-0.362-0.097-0.562V69.39h0.918v3.967
			C95.299,73.43,95.314,73.497,95.351,73.556z"/>
		<path fill="#86BC25" d="M96.342,69.863c0-0.295,0.244-0.547,0.562-0.547c0.311,0,0.562,0.252,0.562,0.547
			c0,0.296-0.252,0.563-0.562,0.563C96.586,70.426,96.342,70.159,96.342,69.863z M96.454,74.488v-3.7h0.917v3.7H96.454z"/>
		<path fill="#86BC25" d="M101.004,71.779c0.045,0.186,0.052,0.356,0.052,0.63c0,0.162,0,0.354-0.007,0.577h-1.991
			c0,0.096,0.008,0.178,0.022,0.25c0.06,0.319,0.252,0.504,0.592,0.504c0.267,0,0.533-0.067,0.755-0.438l0.592,0.571
			c-0.333,0.488-0.828,0.688-1.361,0.688c-0.792,0-1.288-0.451-1.443-1.073c-0.059-0.244-0.066-0.451-0.066-0.858
			c0-0.399,0.008-0.607,0.066-0.852c0.155-0.635,0.651-1.072,1.414-1.072C100.375,70.707,100.857,71.15,101.004,71.779z
			 M99.081,72.002c-0.015,0.066-0.022,0.155-0.022,0.259h1.096c0-0.141-0.008-0.215-0.015-0.259
			c-0.045-0.304-0.208-0.488-0.525-0.488C99.288,71.514,99.132,71.69,99.081,72.002z"/>
		<path fill="#86BC25" d="M103.95,74.199c-0.2,0.208-0.489,0.363-0.918,0.363c-0.666,0-1.147-0.436-1.288-1.081
			c-0.052-0.251-0.066-0.443-0.066-0.851s0.015-0.622,0.066-0.874c0.126-0.645,0.666-1.05,1.325-1.05
			c0.34,0,0.592,0.096,0.777,0.244V69.39h0.91v5.098h-0.763L103.95,74.199z M103.809,73.223c0.037-0.17,0.037-0.37,0.037-0.6
			s0-0.422-0.037-0.6c-0.067-0.317-0.274-0.518-0.6-0.518c-0.326,0-0.533,0.2-0.592,0.518c-0.03,0.148-0.03,0.37-0.03,0.6
			s0,0.452,0.03,0.6c0.059,0.318,0.266,0.525,0.592,0.525C103.535,73.748,103.742,73.541,103.809,73.223z"/>
		<path fill="#86BC25" d="M106.917,73.593l0.732-0.6c0.229,0.481,0.548,0.688,0.925,0.688c0.348,0,0.555-0.178,0.555-0.488
			c0-0.267-0.214-0.451-0.466-0.562l-0.511-0.229c-0.695-0.319-1.014-0.732-1.014-1.377c0-0.85,0.6-1.442,1.473-1.442
			c0.799,0,1.487,0.437,1.487,1.546c0,0.066,0,0.133-0.007,0.208h-0.947c0.007-0.066,0.007-0.134,0.007-0.2
			c0-0.422-0.155-0.689-0.555-0.689c-0.333,0-0.519,0.201-0.519,0.511c0,0.223,0.082,0.43,0.43,0.592l0.614,0.29
			c0.695,0.325,0.97,0.747,0.97,1.295c0,0.895-0.607,1.428-1.592,1.428C107.745,74.562,107.212,74.163,106.917,73.593z"/>
		<path fill="#86BC25" d="M110.824,73.489c-0.06-0.244-0.074-0.451-0.074-0.858c0-0.399,0.015-0.615,0.074-0.866
			c0.147-0.621,0.629-1.058,1.392-1.058c0.71,0,1.206,0.303,1.354,0.991c0.03,0.148,0.045,0.304,0.045,0.481v0.11h-0.896v-0.059
			c0-0.104,0-0.171-0.008-0.229c-0.044-0.326-0.214-0.488-0.518-0.488c-0.318,0-0.459,0.192-0.511,0.51
			c-0.022,0.134-0.022,0.392-0.022,0.607c0,0.222,0,0.437,0.022,0.569c0.06,0.327,0.229,0.541,0.577,0.541s0.577-0.214,0.726-0.496
			l0.606,0.585c-0.273,0.488-0.807,0.732-1.347,0.732C111.445,74.562,110.971,74.118,110.824,73.489z"/>
		<path fill="#86BC25" d="M114.175,69.863c0-0.295,0.244-0.547,0.562-0.547c0.311,0,0.562,0.252,0.562,0.547
			c0,0.296-0.252,0.563-0.562,0.563C114.419,70.426,114.175,70.159,114.175,69.863z M114.287,74.488v-3.7h0.917v3.7H114.287z"/>
		<path fill="#86BC25" d="M118.837,71.779c0.045,0.186,0.052,0.356,0.052,0.63c0,0.162,0,0.354-0.007,0.577h-1.991
			c0,0.096,0.008,0.178,0.022,0.25c0.06,0.319,0.252,0.504,0.592,0.504c0.267,0,0.533-0.067,0.755-0.438l0.592,0.571
			c-0.333,0.488-0.828,0.688-1.361,0.688c-0.792,0-1.288-0.451-1.443-1.073c-0.059-0.244-0.066-0.451-0.066-0.858
			c0-0.399,0.008-0.607,0.066-0.852c0.155-0.635,0.651-1.072,1.414-1.072C118.208,70.707,118.69,71.15,118.837,71.779z
			 M116.914,72.002c-0.015,0.066-0.022,0.155-0.022,0.259h1.096c0-0.141-0.008-0.215-0.015-0.259
			c-0.045-0.304-0.208-0.488-0.525-0.488C117.121,71.514,116.965,71.69,116.914,72.002z"/>
		<path fill="#86BC25" d="M120.554,74.488h-0.91v-3.7h0.776l0.045,0.333c0.192-0.273,0.503-0.414,0.851-0.414
			c0.748,0,1.214,0.509,1.214,1.265v2.516h-0.918v-2.397c0-0.348-0.178-0.548-0.525-0.548c-0.311,0-0.532,0.2-0.532,0.548V74.488z"
			/>
		<path fill="#86BC25" d="M123.352,73.489c-0.06-0.244-0.074-0.451-0.074-0.858c0-0.399,0.015-0.615,0.074-0.866
			c0.147-0.621,0.629-1.058,1.392-1.058c0.71,0,1.206,0.303,1.354,0.991c0.03,0.148,0.045,0.304,0.045,0.481v0.11h-0.896v-0.059
			c0-0.104,0-0.171-0.008-0.229c-0.044-0.326-0.214-0.488-0.518-0.488c-0.318,0-0.459,0.192-0.511,0.51
			c-0.022,0.134-0.022,0.392-0.022,0.607c0,0.222,0,0.437,0.022,0.569c0.06,0.327,0.229,0.541,0.577,0.541s0.577-0.214,0.726-0.496
			l0.606,0.585c-0.273,0.488-0.807,0.732-1.347,0.732C123.973,74.562,123.5,74.118,123.352,73.489z"/>
		<path fill="#86BC25" d="M129.575,71.779c0.045,0.186,0.052,0.356,0.052,0.63c0,0.162,0,0.354-0.007,0.577h-1.991
			c0,0.096,0.008,0.178,0.022,0.25c0.06,0.319,0.252,0.504,0.592,0.504c0.267,0,0.533-0.067,0.755-0.438l0.592,0.571
			c-0.333,0.488-0.828,0.688-1.361,0.688c-0.792,0-1.288-0.451-1.443-1.073c-0.059-0.244-0.066-0.451-0.066-0.858
			c0-0.399,0.008-0.607,0.066-0.852c0.155-0.635,0.651-1.072,1.414-1.072C128.946,70.707,129.427,71.15,129.575,71.779z
			 M127.651,72.002c-0.015,0.066-0.022,0.155-0.022,0.259h1.096c0-0.141-0.008-0.215-0.015-0.259
			c-0.045-0.304-0.208-0.488-0.525-0.488C127.858,71.514,127.703,71.69,127.651,72.002z"/>
		<path fill="#86BC25" d="M131.913,72.349c0.533,0.2,0.925,0.415,0.925,1.111c0,0.643-0.525,1.102-1.295,1.102
			c-0.688,0-1.198-0.303-1.413-0.784l0.651-0.542c0.185,0.304,0.414,0.504,0.776,0.504c0.192,0,0.349-0.082,0.349-0.259
			c0-0.208-0.126-0.259-0.444-0.377l-0.289-0.103c-0.681-0.252-0.902-0.585-0.902-1.154c0-0.652,0.54-1.14,1.28-1.14
			c0.888,0,1.272,0.458,1.272,1.154c0,0.059,0,0.118-0.007,0.178h-0.91c0.007-0.037,0.007-0.082,0.007-0.111
			c0-0.341-0.192-0.414-0.377-0.414c-0.237,0-0.355,0.162-0.355,0.325c0,0.192,0.155,0.296,0.459,0.407L131.913,72.349z"/>
	</g>
	<g>
		<polygon fill="#86BC25" points="79.69,15.952 85.005,15.952 85.005,26.582 79.69,26.582 79.69,15.952 		"/>
		<polygon fill="#86BC25" points="90.32,26.582 90.32,31.896 85.005,31.896 85.005,26.582 90.32,26.582 		"/>
		<path fill="#86BC25" d="M42.485,10.637H47.8v5.315h5.315v5.315H47.8v5.315h5.315v5.314H47.8c-2.936,0-5.315-2.379-5.315-5.314
			C42.506,26.584,42.485,10.637,42.485,10.637L42.485,10.637z"/>
		<path fill="#86BC25" d="M58.43,15.952h5.315v10.63h5.315v-10.63h5.314v10.63h5.315v5.314H63.745c-2.935,0-5.315-2.379-5.315-5.314
			V15.952L58.43,15.952z"/>
		<polygon fill="#86BC25" points="26.541,21.267 26.541,31.896 21.226,31.896 21.226,21.267 26.541,21.267 		"/>
		<polygon fill="#86BC25" points="26.541,10.637 26.541,15.952 21.226,15.952 21.226,10.637 26.541,10.637 		"/>
		<path fill="#86BC25" d="M26.538,15.952l5.315-0.001c2.935,0,5.317,2.381,5.317,5.316v10.629h-5.315V21.267h-5.315L26.538,15.952
			L26.538,15.952z"/>
	</g>
</g>
</svg>
