<?xml version="1.0" encoding="UTF-8" standalone="no"?>
<svg
   xmlns:dc="http://purl.org/dc/elements/1.1/"
   xmlns:cc="http://creativecommons.org/ns#"
   xmlns:rdf="http://www.w3.org/1999/02/22-rdf-syntax-ns#"
   xmlns:svg="http://www.w3.org/2000/svg"
   xmlns="http://www.w3.org/2000/svg"
   xmlns:sodipodi="http://sodipodi.sourceforge.net/DTD/sodipodi-0.dtd"
   xmlns:inkscape="http://www.inkscape.org/namespaces/inkscape"
   inkscape:version="1.0 (4035a4f, 2020-05-01)"
   sodipodi:docname="Logo ICAM - 2008.svg"
   viewBox="0 0 700 373.29028"
   height="373.29028"
   width="700"
   xml:space="preserve"
   id="svg833"
   version="1.1"><metadata
     id="metadata839"><rdf:RDF><cc:Work
         rdf:about=""><dc:format>image/svg+xml</dc:format><dc:type
           rdf:resource="http://purl.org/dc/dcmitype/StillImage" /><dc:title></dc:title></cc:Work></rdf:RDF></metadata><defs
     id="defs837" /><sodipodi:namedview
     inkscape:current-layer="g841"
     inkscape:window-maximized="0"
     inkscape:window-y="0"
     inkscape:window-x="0"
     inkscape:cy="156.06093"
     inkscape:cx="65.123882"
     inkscape:zoom="1.4412752"
     showgrid="false"
     id="namedview835"
     inkscape:window-height="900"
     inkscape:window-width="1440"
     inkscape:pageshadow="2"
     inkscape:pageopacity="0"
     guidetolerance="10"
     gridtolerance="10"
     objecttolerance="10"
     borderopacity="1"
     bordercolor="#666666"
     pagecolor="#ffffff" /><g
     transform="matrix(1.3333333,0,0,-1.3333333,-187.41016,889.39076)"
     inkscape:label="Logo"
     inkscape:groupmode="layer"
     id="g841"><g
       transform="matrix(1.6711232,0,0,1.6711232,-94.331477,-447.66788)"
       id="g1175"><path
         d="m 225.7969,614.7359 c 1.192,-3.106 1.192,-4.556 1.192,-7.458 -4.353,-10.158 -17.414,-17.412 -26.121,-8.706 -2.901,2.902 -4.352,5.804 -5.804,8.706 -1.449,4.352 0,7.255 1.452,11.609 1.451,2.902 4.352,5.803 7.254,7.255 h 10.158 c 2.902,-1.452 7.256,-1.452 8.898,-5.735 1.311,-1.647 2.338,-3.563 2.971,-5.671"
         style="fill:#ea5b0b;fill-opacity:1;fill-rule:nonzero;stroke:none"
         id="path1063" /><path
         id="path1067"
         style="fill:none;stroke:#fdc300;stroke-width:3.524;stroke-linecap:butt;stroke-linejoin:miter;stroke-miterlimit:4;stroke-dasharray:none;stroke-opacity:1"
         d="m 225.7969,614.7359 c 1.192,-3.106 1.192,-4.556 1.192,-7.458 -4.353,-10.158 -17.414,-17.412 -26.121,-8.706 -2.901,2.902 -4.352,5.804 -5.804,8.706 -1.449,4.352 0,7.255 1.452,11.609 1.451,2.902 4.352,5.803 7.254,7.255 h 10.158 c 2.902,-1.452 7.256,-1.452 8.898,-5.735 1.311,-1.647 2.338,-3.563 2.971,-5.671 z" /><path
         d="m 216.603,613.4961 c 1.68,-4.768 -1.223,-7.67 -4.125,-7.67 -2.903,0 -5.805,1.452 -7.256,4.354 0,2.902 -2.902,8.706 8.268,7.142 1.42,-0.814 2.57,-2.154 3.113,-3.826"
         style="fill:#bd1d1d;fill-opacity:1;fill-rule:nonzero;stroke:none"
         id="path1069" /></g><path
       d="m 335.42055,667.02901 c -2.00058,-0.21061 -3.27835,-2.76479 -3.38551,-3.07217 -2.91443,-8.08488 0.20472,-12.92767 0.94001,-27.40462 0.0334,9.84125 0.73689,-5.64415 0.24725,-15.94829 -0.48965,-12.75903 -1.83295,-31.01959 -9.16751,-45.14725 -1.54246,-3.52275 -3.51188,-7.0732 -5.67432,-11.09894 -3.07586,-4.40593 -6.38011,-8.59805 -9.92638,-12.54811 -10.47473,-8.4616 -22.49183,-14.27553 -33.88185,-17.18695 -19.64406,-5.39438 -39.87762,-5.75994 -59.75898,-3.46383 -5.36765,0.97428 -10.70649,2.1525 -15.89199,3.68659 -10.66511,3.0899 -20.87777,7.40219 -30.27115,12.70968 -8.99232,4.31317 -19.904,16.2123 -28.0925,15.70595 1.89171,-2.75067 4.47431,-5.37885 6.41114,-7.92397 -1.31852,0.44452 -2.94973,0.91326 -4.13457,1.84575 0.80382,-1.13972 1.71552,-2.41428 2.92039,-3.0844 -1.02272,0.52975 -2.13564,1.0378 -2.99626,0.86901 1.02272,-1.3887 3.48334,-2.4418 4.70492,-3.08684 0.67514,-0.46792 4.4101,-1.66149 5.01337,-2.45529 -2.99632,0.56651 -6.11266,2.20399 -8.92516,2.69029 0.60493,-0.73028 1.31969,-1.34427 1.83105,-2.1297 -1.25502,0.376 -2.98827,1.84581 -4.06113,1.70375 1.7246,-1.69953 3.50825,-2.93439 5.19942,-4.7392 1.48396,-1.34692 2.76138,-2.64168 4.46259,-3.6009 -2.124,1.03442 -4.86229,2.63232 -6.81751,2.98157 0.5097,-1.0411 1.53605,-1.62829 2.46017,-2.27168 l -0.45775,-0.13708 c 0.38603,-0.31584 0.762,-0.88221 1.18479,-1.18969 -0.0554,-0.07 -0.0948,-0.15236 -0.13953,-0.23011 l 0.0661,0.0637 0.15667,-0.44553 c 1.74465,-1.85829 3.85038,-3.38223 6.08801,-4.39159 4.26743,-2.26489 6.36559,-6.57521 10.71705,-8.46007 0.74391,-0.71166 1.51452,-1.4303 2.45039,-2.07584 1.38287,-1.08133 3.58833,-1.33391 6.01702,-1.98283 0.71982,-0.43119 1.4442,-0.85729 2.17377,-1.27782 0.0311,-0.31117 0.1341,-0.63186 0.67073,-0.72704 0.48477,-0.13272 0.9053,-0.24941 1.3635,-0.37454 1.62292,-0.82907 3.31436,-1.54977 5.17249,-1.98282 0.45357,-0.0981 0.9093,-0.17276 1.3635,-0.26438 0.68608,-0.6083 1.3673,-1.40545 2.07095,-1.46631 2.1986,-0.62731 7.71872,-0.59064 6.21285,0.0808 8.68303,-1.18317 17.38337,-1.7495 25.82571,-3.28514 1.66039,-0.2817 3.30925,-0.5163 4.95461,-0.72704 -1.33704,-0.0959 -2.65758,-0.18094 -3.95586,-0.23254 1.95059,-0.0736 3.69158,-0.0236 5.42219,0.0612 2.55835,-0.2964 5.10174,-0.51115 7.63265,-0.64626 -1.30683,-0.43987 -2.86968,-0.85272 -3.87018,-0.95224 -1.0712,-0.2958 -2.73092,1.16246 -3.78206,0.86167 -2.30114,-0.0117 -4.42975,-0.34508 -6.94478,-0.5924 -1.08289,-0.22226 -0.85401,1.08625 -1.39044,0.97427 -3.36898,-0.0685 -6.16971,-1.22827 -8.2887,-0.62667 -1.62433,0.376 -3.04653,0.85925 -4.41852,1.38063 l -2.70742,0.64626 -1.87756,0.0539 c -4.49699,0.33088 -9.75628,0.97244 -14.47219,2.26924 l 0.0269,-0.13219 c 2.6905,-0.94419 5.27188,-1.92509 7.92396,-3.44915 -1.15643,0.6367 -0.89015,0.94031 0.53364,0.61444 l 0.90329,-0.94735 c -2.53509,0.40273 -5.19412,0.58568 -7.12593,2.40387 0,0 -1.12346,0.10397 -1.68662,0.15911 -0.69855,0.45455 -0.51158,0.82804 -0.54834,1.21908 l -1.61809,0.48958 c 0.86898,-1.02273 4.13444,-3.14805 4.13945,-3.14805 6.94853,-2.23428 13.62254,-3.92619 20.24687,-5.05253 0.54646,0.18382 0.95399,0.42925 1.61075,0.1836 l 1.50303,-0.67808 2.8959,-0.46022 1.04527,-0.0269 0.0196,0.005 c 0.56651,0.11531 0.42768,0.32452 0.11016,0.54344 0.43282,-0.19552 0.94404,-0.36461 1.53731,-0.47491 0.90239,0.0234 1.82639,0.007 2.79064,-0.13463 -1.08958,-0.0785 -2.01525,-0.0241 -2.79064,0.13463 l -1.66705,-0.0734 -0.49448,-0.0661 6.6853,-0.65116 1.40023,0.0196 c 1.61597,0.0201 3.23081,0.29792 4.22513,-0.36719 l 1.20194,-0.0367 -0.23011,0.11506 0.44308,-0.11994 5.0917,-0.14198 c 3.3155,0.14872 6.69563,0.18715 10.11976,0.45286 16.57893,1.39089 32.05417,5.82691 46.7531,13.72067 11.01775,3.91469 22.25191,10.79891 30.3813,19.78176 7.58358,7.24098 20.51045,24.96158 20.44026,34.64071 -2.78977,-8.95817 -8.23867,-17.36815 -14.6876,-24.29084 1.36291,1.76211 2.68357,3.55117 3.92159,5.39524 13.63469,20.6317 15.74782,43.58655 17.68632,67.87633 0.51304,9.4736 -2.63213,26.7533 -5.46134,35.22088 -2.21967,4.83121 -4.21379,6.08535 -5.76977,5.92156 z m -188.207,-124.52643 -0.24969,-0.2448 c 0.12346,0.0509 0.19185,0.14424 0.24969,0.2448 z m -1.17255,0 0.0147,-0.0612 1.23375,-1.18479 0.0441,0.12484 z m 1.24844,-1.24599 c -0.1504,-0.36598 -0.48967,-0.60474 -0.0686,-1.33168 0.4863,-0.31083 1.45164,-0.92043 1.45164,-0.92043 0.91075,-2.5284 3.06936,-4.11663 5.31201,-5.47358 l -0.42104,1.24599 c -1.15643,0.91244 -1.5413,0.76467 -0.74418,-0.31822 -1.82821,2.47326 -3.41089,4.82598 -5.52988,6.79792 z m 149.94087,-0.30845 c -3.89431,-3.2481 -8.05287,-6.22064 -12.50649,-8.87131 -6.39473,-1.75745 -12.84547,-2.68836 -19.05961,-2.80289 10.17784,1.79455 21.22259,5.65302 31.5661,11.6742 z M 164.518,529.15889 c 0.16304,-0.0654 0.32247,-0.13502 0.49203,-0.19339 2.46661,-0.73332 4.67933,-1.96277 6.87135,-3.26309 -1.97198,0.76224 -3.93238,1.60099 -5.96806,2.48955 -0.50526,0.28872 -0.96127,0.6201 -1.39532,0.96693 z m 0.17381,-4.9081 2.73679,-1.67439 -1.14809,1.21662 c -0.52139,0.47627 -0.99044,0.41097 -1.5887,0.45777 z m 6.5678,-3.19702 c 0.21892,-0.32252 0.26822,-0.57205 -0.31333,-0.4651 l -0.0196,0.005 1.59605,-0.55324 c -0.50635,0.32253 -0.92557,0.66419 -1.26313,1.01344 z m 1.26313,-1.01344 c 0.6835,-0.43449 1.53377,-0.83522 2.58992,-1.16276 -0.86063,0.48796 -1.7226,0.84357 -2.58992,1.16276 z m -2.56054,0.98162 0.48469,-0.29865 0.47735,-0.12973 z m 71.03906,-11.29476 c 0.93186,-0.0123 1.88261,-0.10921 2.74659,-0.28886 -1.98196,-0.89238 -3.80881,-0.49809 -5.38301,0.0734 0.79128,0.15541 1.70456,0.22774 2.63642,0.21542 z"
       style="fill:#f39200;fill-opacity:1;fill-rule:nonzero;stroke:none;stroke-width:1.67112"
       id="path1071" /><g
       transform="matrix(1.6711232,0,0,1.6711232,-94.331477,-447.66788)"
       id="g1168"><path
         d="m 185.3685,572.8204 -0.84,-0.007 3.348,-0.327 c -0.568,0.422 -1.531,0.377 -2.508,0.334"
         style="fill:#f39200;fill-opacity:1;fill-rule:nonzero;stroke:none"
         id="path1101" /><path
         d="m 216.7328,532.1953 c -1.182,-8.664 -2.231,-18.772 -3.283,-30.323 0,-0.262 -0.13,-0.393 -0.524,-0.393 -0.394,0 -1.707,0 -3.807,0.131 -2.101,0.13 -3.543,0.13 -4.331,0.13 -0.788,0 -2.232,0 -4.332,-0.13 -2.1,-0.131 -3.28,-0.131 -3.675,-0.131 -0.264,0 -0.394,0.261 -0.264,0.655 1.444,8.14 3.152,18.903 4.859,32.162 1.18,8.663 2.04,28.49 2.433,28.49 0.394,0 17.388,3.394 17.388,3 -0.92,-5.647 -2.364,-18.494 -4.464,-33.591"
         style="fill:#646363;fill-opacity:1;fill-rule:nonzero;stroke:none"
         id="path1103" /><path
         d="m 276.5889,549.3914 c -0.13,-0.394 -0.263,-0.526 -0.655,-0.131 -3.676,2.099 -7.745,3.149 -12.209,3.149 -5.512,0 -10.106,-2.756 -13.781,-8.269 -3.413,-5.118 -5.12,-11.157 -5.12,-17.984 0,-8.532 3.281,-12.733 9.976,-12.733 4.069,0 8.794,2.101 14.439,6.432 0.262,0.263 0.526,0.263 0.656,0 2.363,-4.068 4.332,-7.088 6.039,-9.056 0.262,-0.264 0.262,-0.525 -0.132,-0.918 -8.402,-6.96 -16.802,-10.371 -25.333,-10.371 -6.958,0 -12.471,2.23 -16.409,6.824 -3.677,4.332 -5.513,9.977 -5.513,17.197 0,10.501 3.149,19.821 9.319,28.092 7.219,9.582 16.934,14.308 28.88,14.308 5.907,0 10.895,-1.051 14.701,-3.281 0.394,-0.133 0.394,-0.396 0.262,-0.789 -2.494,-5.384 -4.2,-9.452 -5.12,-12.47"
         style="fill:#646363;fill-opacity:1;fill-rule:nonzero;stroke:none"
         id="path1105" /><path
         d="m 329.7534,550.3103 c 0.132,0.526 -0.132,0.919 -0.789,1.313 -2.361,1.18 -5.12,1.837 -8.269,1.837 -6.171,0 -11.157,-3.283 -14.964,-9.713 -3.282,-5.778 -4.989,-12.47 -4.989,-20.085 0,-6.432 1.576,-9.583 4.858,-9.583 3.938,0 8.531,3.283 13.652,9.715 4.332,5.382 7.351,10.369 8.926,14.963 0.394,2.627 0.919,6.433 1.575,11.553 m -4.726,-41.612 c 0,1.444 0.132,3.28 0.526,5.512 0.131,1.576 0.131,2.364 0,2.364 -0.133,0 -0.394,-0.527 -0.92,-1.445 -0.656,-1.311 -1.313,-2.362 -1.969,-3.151 -6.433,-8.267 -13.782,-12.468 -22.053,-12.468 -4.594,0 -8.269,1.706 -11.025,5.118 -3.151,3.807 -4.725,9.19 -4.725,16.279 0,11.419 2.888,21.394 8.662,29.929 6.826,10.107 16.408,15.095 28.615,15.095 5.907,0 11.16,-1.051 15.754,-3.281 0.523,-0.264 0.918,-0.395 1.18,-0.395 0.788,0 2.232,0.523 4.462,1.575 1.839,0.92 3.019,1.313 3.546,1.313 0.131,0 0.262,-0.263 0.262,-0.658 0,-0.13 -0.524,-3.28 -1.575,-9.58 -1.181,-7.088 -1.968,-12.209 -2.362,-15.491 -2.232,-16.933 -3.283,-26.516 -3.283,-28.485 0,-5.118 0.788,-9.189 0.788,-8.663 0,-0.261 -0.132,-0.394 -0.393,-0.394 -1.183,-0.132 -3.545,-0.262 -7.089,-0.526 -1.182,-0.13 -2.624,-0.261 -4.331,-0.524 -1.707,-0.262 -2.758,-0.393 -2.888,-0.393 -0.264,0 -0.394,0.262 -0.525,0.787 -0.394,1.969 -0.657,4.464 -0.657,7.482"
         style="fill:#646363;fill-opacity:1;fill-rule:nonzero;stroke:none"
         id="path1107" /><path
         d="m 417.5706,549.1295 c 0.131,0 1.048,1.181 3.019,3.542 3.281,4.07 6.169,7.09 8.661,8.926 3.94,3.021 8.141,4.464 12.472,4.464 6.169,0 10.107,-2.624 11.945,-7.877 0.656,-1.836 1.05,-4.461 1.05,-8.007 0,-1.707 -1.05,-10.367 -3.019,-25.99 -0.656,-6.299 -1.312,-13.522 -2.231,-21.526 -0.131,-0.788 -0.394,-1.182 -0.92,-1.182 -0.131,0 -1.183,0 -3.149,0.13 -1.97,0.131 -3.282,0.131 -4.07,0.131 -0.788,0 -2.362,0 -4.594,-0.131 -2.232,-0.13 -3.283,-0.13 -3.414,-0.13 -0.393,0 -0.393,0.394 -0.261,1.182 1.968,11.156 3.413,20.082 4.332,26.907 1.18,9.584 1.837,15.229 1.837,16.803 0,3.545 -1.051,5.252 -3.151,5.252 -3.675,0 -8.006,-3.415 -12.864,-10.107 -4.331,-5.908 -7.219,-11.29 -8.663,-16.409 -0.657,-2.232 -1.444,-10.241 -2.887,-22.446 -0.133,-0.788 -0.394,-1.182 -0.919,-1.182 -0.134,0 -1.05,0 -3.022,0.13 -1.967,0.131 -3.281,0.131 -4.066,0.131 -0.788,0 -2.364,0 -4.595,-0.131 -2.232,-0.13 -3.281,-0.13 -3.415,-0.13 -0.392,0 -0.392,0.394 -0.261,1.182 1.97,11.156 3.413,20.082 4.331,26.907 1.181,9.584 1.84,15.229 1.84,16.803 0,3.545 -1.051,5.252 -3.153,5.252 -3.674,0 -8.007,-3.415 -12.862,-10.107 -4.333,-5.908 -7.221,-11.29 -8.665,-16.409 -0.393,-1.181 -0.788,-3.676 -1.312,-7.612 -0.13,-0.395 -0.656,-5.254 -1.705,-14.834 -0.134,-0.788 -0.396,-1.182 -0.92,-1.182 -0.131,0 -1.181,0 -3.281,0.13 -2.1,0.131 -3.544,0.131 -4.331,0.131 -0.788,0 -2.234,0 -4.202,-0.131 -1.971,-0.13 -2.888,-0.13 -3.02,-0.13 -0.262,0 -0.262,0.526 -0.131,1.442 1.312,5.908 2.493,13.126 3.675,21.661 2.232,16.934 3.414,27.434 3.414,31.503 0,3.282 -0.524,6.957 -0.524,6.826 0,0.131 0.26,0.263 0.653,0.263 1.578,0 3.94,0.131 7.091,0.523 5.512,0.657 7.876,0.921 7.088,0.921 0.129,0 0.392,-0.396 0.524,-1.052 0.656,-2.361 0.92,-5.117 0.788,-8.137 -0.132,-4.069 -0.263,-6.038 -0.394,-6.038 l 2.626,3.28 c 3.282,4.07 6.169,7.09 8.664,8.926 3.937,3.021 8.137,4.464 12.47,4.464 6.168,0 10.239,-2.624 12.076,-7.877 0.656,-1.836 1.052,-4.461 1.052,-8.007 0,-0.654 0.129,-1.048 0.393,-1.048"
         style="fill:#646363;fill-opacity:1;fill-rule:nonzero;stroke:none"
         id="path1109" /></g></g></svg>
