<?xml version="1.0" encoding="UTF-8" standalone="no"?>
<!-- Created with Inkscape (http://www.inkscape.org/) -->

<svg
   xmlns:dc="http://purl.org/dc/elements/1.1/"
   xmlns:cc="http://creativecommons.org/ns#"
   xmlns:rdf="http://www.w3.org/1999/02/22-rdf-syntax-ns#"
   xmlns:svg="http://www.w3.org/2000/svg"
   xmlns="http://www.w3.org/2000/svg"
   xmlns:sodipodi="http://sodipodi.sourceforge.net/DTD/sodipodi-0.dtd"
   xmlns:inkscape="http://www.inkscape.org/namespaces/inkscape"
   width="297.68216"
   height="130"
   id="svg3463"
   version="1.1"
   inkscape:version="0.48.1 "
   sodipodi:docname="IIIT logo.svg">
  <defs
     id="defs3465" />
  <sodipodi:namedview
     id="base"
     pagecolor="#ffffff"
     bordercolor="#666666"
     borderopacity="1.0"
     inkscape:pageopacity="0.0"
     inkscape:pageshadow="2"
     inkscape:zoom="1"
     inkscape:cx="195.2439"
     inkscape:cy="45.125953"
     inkscape:document-units="px"
     inkscape:current-layer="layer1"
     showgrid="false"
     fit-margin-top="0"
     fit-margin-left="0"
     fit-margin-right="0"
     fit-margin-bottom="0"
     inkscape:window-width="1024"
     inkscape:window-height="721"
     inkscape:window-x="-4"
     inkscape:window-y="-4"
     inkscape:window-maximized="1" />
  <metadata
     id="metadata3468">
    <rdf:RDF>
      <cc:Work
         rdf:about="">
        <dc:format>image/svg+xml</dc:format>
        <dc:type
           rdf:resource="http://purl.org/dc/dcmitype/StillImage" />
        <dc:title></dc:title>
      </cc:Work>
    </rdf:RDF>
  </metadata>
  <g
     inkscape:label="Layer 1"
     inkscape:groupmode="layer"
     id="layer1"
     transform="translate(-457.24987,-401.01428)">
    <g
       id="g4906">
      <path
         id="path4682"
         style="fill:#00adef;fill-opacity:1;fill-rule:nonzero;stroke:none"
         d="m 600.85887,411.67823 0,-8.60114 8.19399,0 0,8.60114 -8.19399,0 z m 0,39.88014 0,-35.11605 8.19399,0 0,35.11605 -8.19399,0 z m 15.8415,2.31396 9.35885,1.28706 c 0.15907,1.24175 0.51762,2.08784 1.0756,2.55045 0.77643,0.66664 2.01096,0.99376 3.67383,0.99376 2.14082,0 3.74373,-0.36094 4.8191,-1.09476 0.71712,-0.48561 1.26474,-1.26451 1.6329,-2.34777 0.2491,-0.76741 0.37829,-2.18997 0.37829,-4.26698 l 0,-5.12457 c -2.44879,3.79287 -5.54571,5.68885 -9.27973,5.68885 -4.16216,0 -7.45768,-1.99833 -9.88685,-5.98215 -1.90185,-3.16073 -2.85773,-7.07759 -2.85773,-11.77336 0,-5.89198 1.25437,-10.38463 3.75433,-13.50072 2.49882,-3.10369 5.6052,-4.66173 9.31872,-4.66173 3.82421,0 6.9899,1.90748 9.47902,5.72335 l 0,-4.92144 7.66735,0 0,31.51504 c 0,4.14298 -0.29826,7.2354 -0.90605,9.28987 -0.59767,2.05447 -1.44375,3.65738 -2.52949,4.83126 -1.0952,1.16307 -2.5491,2.07747 -4.36077,2.74343 -1.8227,0.65447 -4.12268,0.99308 -6.9006,0.99308 -5.25736,0 -8.98058,-1.02757 -11.17121,-3.05905 -2.20033,-2.0432 -3.29554,-4.62814 -3.29554,-7.75437 0,-0.3163 0.0108,-0.68896 0.0299,-1.12925 z m 7.31768,-20.60039 c 0,3.72568 0.63779,6.45694 1.91221,8.18429 1.27421,1.72667 2.83722,2.59576 4.70841,2.59576 2.00218,0 3.69503,-0.8914 5.07859,-2.66362 1.37452,-1.77267 2.07114,-4.40224 2.07114,-7.89031 0,-3.63484 -0.66708,-6.33228 -1.99067,-8.09367 -1.31455,-1.77199 -2.98758,-2.65212 -5.00891,-2.65212 -1.9715,0 -3.58433,0.86863 -4.85854,2.59599 -1.27444,1.73817 -1.91222,4.36797 -1.91222,7.92368 z m 58.10932,18.28643 -8.19534,0 0,-17.92482 c 0,-3.79287 -0.17891,-6.24232 -0.52777,-7.36007 -0.3483,-1.10603 -0.92544,-1.97512 -1.71202,-2.59576 -0.7868,-0.60961 -1.73253,-0.92545 -2.83811,-0.92545 -1.4239,0 -2.69811,0.43984 -3.82353,1.32042 -1.1252,0.89209 -1.90184,2.0538 -2.3196,3.51039 -0.41864,1.45637 -0.62764,4.14299 -0.62764,8.07045 l 0,15.90484 -8.19398,0 0,-35.11605 7.60671,0 0,5.15838 c 2.70825,-3.97345 6.11383,-5.96029 10.21599,-5.96029 1.80198,0 3.46486,0.37243 4.95843,1.10671 1.49401,0.74464 2.62823,1.68203 3.39517,2.83293 0.76696,1.15111 1.30442,2.44967 1.60336,3.90536 0.30864,1.45637 0.45833,3.53339 0.45833,6.24232 l 0,21.83064 z m 6.41208,-18.06031 c 0,-3.0816 0.67679,-6.07301 2.0112,-8.96276 1.34386,-2.87824 3.24504,-5.09075 5.70553,-6.60325 2.45913,-1.52423 5.20686,-2.29164 8.24449,-2.29164 4.67908,0 8.5229,1.72735 11.5195,5.18138 2.99706,3.45403 4.49063,7.81118 4.49063,13.08274 0,5.3047 -1.51341,9.70785 -4.5303,13.20674 -3.02658,3.49934 -6.83029,5.23751 -11.42055,5.23751 -2.84757,0 -5.54568,-0.72277 -8.125,-2.17914 -2.57839,-1.45569 -4.54044,-3.58884 -5.8843,-6.39945 -1.33441,-2.81106 -2.0112,-6.23128 -2.0112,-10.27213 z m 8.40365,0.49665 c 0,3.48784 0.72662,6.15146 2.18997,8.00349 1.45389,1.85067 3.25609,2.77589 5.39622,2.77589 2.1415,0 3.934,-0.92522 5.37774,-2.77589 1.45367,-1.85203 2.18028,-4.53864 2.18028,-8.07135 0,-3.43171 -0.72661,-6.08383 -2.18028,-7.93518 -1.44374,-1.85179 -3.23624,-2.77657 -5.37774,-2.77657 -2.14013,0 -3.94233,0.92478 -5.39622,2.77657 -1.46335,1.85135 -2.18997,4.52647 -2.18997,8.00304 z m 50.38178,17.56366 0,-5.26005 c -1.13444,1.87434 -2.61898,3.35257 -4.45093,4.43628 -1.84188,1.07244 -3.78341,1.61418 -5.82436,1.61418 -2.08152,0 -3.94302,-0.51942 -5.59574,-1.54632 -1.65319,-1.03862 -2.84826,-2.49499 -3.59448,-4.36798 -0.73765,-1.87434 -1.10557,-4.47078 -1.10557,-7.77804 l 0,-22.21412 8.1951,0 0,16.13029 c 0,4.94376 0.14898,7.96922 0.45834,9.08607 0.29825,1.10693 0.84541,1.98684 1.64235,2.64198 0.79627,0.65446 1.81167,0.97076 3.03673,0.97076 1.40407,0 2.65844,-0.42947 3.76401,-1.29788 1.10491,-0.88126 1.8615,-1.95302 2.27001,-3.24008 0.4076,-1.29856 0.61726,-4.45861 0.61726,-9.48173 l 0,-14.80941 8.19444,0 0,35.11605 -7.60716,0 z"
         inkscape:connector-curvature="0" />
      <path
         id="path4684"
         style="fill:#231f20;fill-opacity:1;fill-rule:nonzero;stroke:none"
         d="m 610.10274,488.57944 0,-15.58517 -4.85742,0 0,-2.08604 11.68567,0 0,2.08604 -4.87792,0 0,15.58517 -1.95033,0 z m 8.88724,0 0,-17.67121 1.9537,0 0,7.25772 7.66148,0 0,-7.25772 1.95304,0 0,17.67121 -1.95304,0 0,-8.32745 -7.66148,0 0,8.32745 -1.9537,0 z m 14.85743,0 0,-17.67121 10.6581,0 0,2.08604 -8.70847,0 0,5.4102 8.15567,0 0,2.07364 -8.15567,0 0,6.01484 9.05227,0 0,2.08649 -11.0019,0 z m 19.41841,0 0,-17.67121 5.56101,0 c 0.97822,0 1.72667,0.0575 2.24227,0.16885 0.72344,0.14429 1.33126,0.41978 1.82271,0.82693 0.48697,0.40309 0.88127,0.97505 1.1802,1.703 0.29849,0.73292 0.44617,1.53505 0.44617,2.41113 0,1.50168 -0.39814,2.77724 -1.19442,3.81834 -0.80009,1.03659 -2.24182,1.5594 -4.32514,1.5594 l -3.78318,0 0,7.18355 -1.94962,0 z m 1.94962,-9.27026 3.81384,0 c 1.26024,0 2.15548,-0.2791 2.68483,-0.84271 0.52844,-0.56384 0.79287,-1.35424 0.79287,-2.37415 0,-0.74059 -0.15474,-1.37408 -0.46712,-1.90049 -0.31246,-0.52664 -0.72142,-0.87247 -1.23273,-1.04178 -0.32914,-0.10214 -0.93357,-0.15579 -1.81864,-0.15579 l -3.77305,0 0,6.31491 z m 11.82951,9.27026 0,-17.67121 10.65876,0 0,2.08604 -8.70957,0 0,5.4102 8.15678,0 0,2.07364 -8.15678,0 0,6.01484 9.05225,0 0,2.08649 -11.00144,0 z m 13.10326,-8.60746 c 0,-2.93392 0.65491,-5.2294 1.96948,-6.88708 1.31524,-1.65837 3.01058,-2.48913 5.09074,-2.48913 1.35921,0 2.5881,0.39047 3.68038,1.16893 1.0907,0.78093 1.92529,1.86712 2.49859,3.2624 0.57331,1.38986 0.85827,2.97473 0.85827,4.73905 0,1.79386 -0.29917,3.39857 -0.90291,4.80963 -0.60395,1.41556 -1.45839,2.48529 -2.56396,3.2137 -1.10874,0.72796 -2.30067,1.09025 -3.58051,1.09025 -1.39077,0 -2.62912,-0.39949 -3.72141,-1.20523 -1.09452,-0.80258 -1.92145,-1.90117 -2.48461,-3.2917 -0.56294,-1.38671 -0.84406,-2.85976 -0.84406,-4.41082 z m 2.01051,0.037 c 0,2.13134 0.47794,3.80572 1.43202,5.03191 0.9579,1.22574 2.15546,1.83939 3.59718,1.83939 1.46921,0 2.67759,-0.61749 3.62536,-1.85585 0.9471,-1.23791 1.42459,-2.99525 1.42459,-5.27043 0,-1.43518 -0.20584,-2.6909 -0.61095,-3.76469 -0.4058,-1.07356 -0.99962,-1.905 -1.77854,-2.49724 -0.78229,-0.58796 -1.65768,-0.88442 -2.62913,-0.88442 -1.38354,0 -2.57096,0.56744 -3.56652,1.70751 -0.99556,1.13489 -1.49401,3.03606 -1.49401,5.69382 z m 14.60291,8.57048 0,-17.67121 5.56102,0 c 0.97842,0 1.72735,0.0575 2.24181,0.16885 0.72346,0.14429 1.33169,0.41978 1.82249,0.82693 0.48765,0.40309 0.88194,0.97505 1.18043,1.703 0.2996,0.73292 0.44659,1.53505 0.44659,2.41113 0,1.50168 -0.39813,2.77724 -1.1944,3.81834 -0.79988,1.03659 -2.24113,1.5594 -4.32492,1.5594 l -3.7834,0 0,7.18355 -1.94962,0 z m 1.94962,-9.27026 3.81406,0 c 1.25957,0 2.15548,-0.2791 2.68392,-0.84271 0.52911,-0.56384 0.79378,-1.35424 0.79378,-2.37415 0,-0.74059 -0.15474,-1.37408 -0.46712,-1.90049 -0.31246,-0.52664 -0.72097,-0.87247 -1.23273,-1.04178 -0.32913,-0.10214 -0.9331,-0.15579 -1.81955,-0.15579 l -3.77236,0 0,6.31491 z m 11.70641,9.27026 0,-17.67121 1.95279,0 0,15.58472 7.26044,0 0,2.08649 -9.21322,0 z m 11.57835,0 0,-17.67121 10.65811,0 0,2.08604 -8.70914,0 0,5.4102 8.15633,0 0,2.07364 -8.15633,0 0,6.01484 9.05226,0 0,2.08649 -11.00123,0 z m 13.35305,-15.33403 0,-2.51866 1.94266,0 0,1.99202 c 0,1.07357 -0.10659,1.85135 -0.31247,2.32478 -0.28833,0.64996 -0.73742,1.1394 -1.34839,1.46787 l -0.44367,-0.85556 c 0.36432,-0.17652 0.63148,-0.45247 0.81048,-0.83527 0.17837,-0.38213 0.27796,-0.90493 0.29849,-1.57518 l -0.9471,0 z m 4.25593,9.65599 1.84052,-0.19298 c 0.0857,0.88374 0.28769,1.60855 0.60713,2.17599 0.31947,0.56812 0.81364,1.02509 1.48321,1.37385 0.66912,0.35034 1.42457,0.52281 2.26232,0.52281 0.74442,0 1.40069,-0.13166 1.97016,-0.39498 0.57014,-0.26715 0.99557,-0.62944 1.27308,-1.09025 0.27865,-0.46441 0.41911,-0.96625 0.41911,-1.51385 0,-0.55527 -0.13347,-1.03704 -0.40513,-1.45254 -0.26783,-0.41549 -0.70992,-0.7611 -1.32471,-1.0411 -0.39814,-0.18464 -1.27037,-0.47275 -2.62664,-0.86322 -1.35222,-0.39115 -2.30314,-0.75727 -2.84489,-1.1031 -0.70429,-0.44029 -1.22889,-0.99173 -1.57652,-1.64552 -0.34268,-0.65378 -0.51401,-1.3867 -0.51401,-2.20146 0,-0.88847 0.20897,-1.72352 0.63146,-2.49679 0.42248,-0.77778 1.03974,-1.36642 1.84954,-1.76951 0.81409,-0.39949 1.71316,-0.60081 2.70556,-0.60081 1.09476,0 2.05605,0.20966 2.8938,0.63395 0.83459,0.4191 1.47552,1.0411 1.92596,1.85901 0.44616,0.81859 0.68896,1.749 0.72413,2.78559 l -1.87052,0.16863 c -0.10353,-1.11505 -0.44344,-1.96249 -1.02373,-2.52993 -0.57963,-0.57195 -1.43473,-0.85556 -2.56714,-0.85556 -1.18088,0 -2.03845,0.25881 -2.5811,0.77755 -0.53927,0.5183 -0.81092,1.14323 -0.81092,1.87187 0,0.63778 0.1923,1.16058 0.57375,1.56683 0.37784,0.41166 1.3556,0.83144 2.94159,1.25978 1.58556,0.43195 2.67377,0.80574 3.26443,1.12722 0.85828,0.47727 1.49334,1.07808 1.90161,1.80152 0.40851,0.72841 0.61096,1.56819 0.61096,2.51393 0,0.94258 -0.22296,1.82722 -0.67228,2.65799 -0.44975,0.83076 -1.0952,1.47733 -1.93633,1.94197 -0.8409,0.46081 -1.788,0.69144 -2.83855,0.69144 -1.33577,0 -2.45464,-0.23063 -3.35373,-0.69978 -0.90312,-0.46464 -1.61055,-1.16442 -2.12503,-2.10182 -0.51107,-0.93424 -0.78274,-1.99585 -0.80707,-3.17673 z m -133.14497,16.27661 3.41592,0 0,10.98476 c 0,1.74268 0.044,2.87576 0.12643,3.3909 0.14555,0.83144 0.49598,1.49717 1.04426,1.99766 0.55144,0.50545 1.30418,0.75524 2.25715,0.75524 0.9694,0 1.70231,-0.23627 2.19513,-0.71241 0.49261,-0.4723 0.78794,-1.05778 0.88623,-1.74719 0.10227,-0.69459 0.15006,-1.84232 0.15006,-3.44771 l 0,-11.22125 3.41593,0 0,10.65381 c 0,2.43727 -0.0909,4.15628 -0.27618,5.16221 -0.18463,1.00593 -0.52393,1.85135 -1.01991,2.54527 -0.49709,0.68963 -1.16306,1.24242 -1.99067,1.65273 -0.83075,0.41143 -1.91853,0.61411 -3.25788,0.61411 -1.61553,0 -2.84128,-0.22184 -3.67654,-0.67048 -0.83528,-0.4484 -1.49268,-1.02937 -1.97783,-1.74268 -0.48447,-0.71308 -0.80325,-1.46403 -0.95724,-2.24745 -0.22499,-1.16171 -0.33501,-2.87644 -0.33501,-5.14824 l 0,-10.81928 z m 17.77085,20.28365 0,-20.28365 3.32575,0 6.92656,13.54422 0,-13.54422 3.17558,0 0,20.28365 -3.43171,0 -6.82058,-13.2277 0,13.2277 -3.1756,0 z m 17.5772,0 0,-20.28365 3.41638,0 0,20.28365 -3.41638,0 z m 11.63156,0 -6.04822,-20.28365 3.70787,0 4.27916,15.01344 4.1448,-15.01344 3.62469,0 -6.05948,20.28365 -3.64882,0 z m 12.09709,0 0,-20.28365 12.54529,0 0,3.43306 -9.12937,0 0,4.49648 8.49473,0 0,3.41367 -8.49473,0 0,5.52158 9.45287,0 0,3.41886 -12.86879,0 z m 16.41796,0 0,-20.28365 7.19527,0 c 1.80852,0 3.12038,0.18419 3.94031,0.54783 0.81994,0.36364 1.47756,1.01089 1.97017,1.9413 0.49213,0.93446 0.7363,1.9972 0.7363,3.19724 0,1.5204 -0.37402,2.78108 -1.11844,3.77303 -0.74441,0.98677 -1.86419,1.61554 -3.34919,1.86984 0.74059,0.5201 1.35154,1.08641 1.83219,1.70503 0.48041,0.61862 1.12653,1.7145 1.94264,3.29171 l 2.06801,3.95767 -4.0855,0 -2.47065,-4.41577 c -0.87854,-1.57721 -1.47732,-2.56916 -1.80085,-2.97992 -0.32328,-0.41099 -0.66529,-0.68964 -1.02892,-0.84542 -0.36161,-0.15081 -0.93289,-0.22634 -1.72082,-0.22634 l -0.68963,0 0,8.46745 -3.42089,0 z m 3.42089,-11.70754 2.52497,0 c 1.63965,0 2.66407,-0.0798 3.07371,-0.24528 0.4058,-0.16547 0.72479,-0.45314 0.95745,-0.85962 0.22883,-0.4058 0.34697,-0.91192 0.34697,-1.52084 0,-0.68445 -0.15403,-1.23273 -0.45765,-1.65273 -0.30345,-0.42046 -0.73225,-0.6849 -1.28819,-0.79807 -0.27549,-0.0421 -1.10693,-0.0665 -2.49431,-0.0665 l -2.66295,0 0,5.14305 z m 13.42092,5.11059 3.32551,-0.39227 c 0.19614,1.34072 0.60262,2.32298 1.21673,2.95174 0.61096,0.62313 1.43473,0.93943 2.47448,0.93943 1.09971,0 1.93115,-0.27865 2.48664,-0.84046 0.5591,-0.5573 0.83956,-1.20973 0.83956,-1.9555 0,-0.4811 -0.11886,-0.88757 -0.3553,-1.22303 -0.23199,-0.33997 -0.6423,-0.63283 -1.22891,-0.87811 -0.39813,-0.17067 -1.31253,-0.46329 -2.7344,-0.88757 -1.83219,-0.54332 -3.11677,-1.21357 -3.85421,-2.00736 -1.03973,-1.11459 -1.55984,-2.47515 -1.55984,-4.08031 0,-1.03478 0.24394,-1.99766 0.73291,-2.89943 0.48878,-0.89795 1.19374,-1.58307 2.11151,-2.05447 0.92207,-0.4678 2.02947,-0.70361 3.33005,-0.70361 2.12795,0 3.72364,0.55707 4.79856,1.67166 1.07176,1.11888 1.63606,2.60681 1.6904,4.47214 l -3.41571,0.17945 c -0.14591,-1.04358 -0.46148,-1.79499 -0.94146,-2.24813 -0.48109,-0.4581 -1.20251,-0.68512 -2.16312,-0.68512 -0.99309,0 -1.77403,0.241 -2.33245,0.73247 -0.36296,0.31178 -0.544,0.73179 -0.544,1.25572 0,0.48245 0.16935,0.89276 0.50815,1.23273 0.42879,0.43465 1.47801,0.88757 3.14022,1.35537 1.66287,0.4723 2.89244,0.95926 3.68736,1.45975 0.79694,0.50476 1.4194,1.18989 1.87254,2.06348 0.44908,0.8736 0.67339,1.95032 0.67339,3.23039 0,1.16171 -0.26759,2.25264 -0.80709,3.26353 -0.53993,1.01495 -1.30036,1.77018 -2.2851,2.26165 -0.98609,0.49598 -2.21431,0.74126 -3.68487,0.74126 -2.13947,0 -3.7825,-0.58976 -4.92911,-1.77582 -1.14639,-1.18493 -1.83219,-2.91274 -2.05244,-5.17958 z m 17.17071,6.59695 0,-20.28365 3.41638,0 0,20.28365 -3.41638,0 z m 11.12318,0 0,-16.85059 -5.01974,0 0,-3.43306 13.44842,0 0,3.43306 -5.00846,0 0,16.85059 -3.42022,0 z m 15.71817,0 0,-8.53847 -6.19812,-11.74518 4.00749,0 3.98383,8.024 3.90018,-8.024 3.9367,0 -6.22135,11.77336 0,8.51029 -3.40871,0 z"
         inkscape:connector-curvature="0" />
      <path
         id="path4686"
         style="fill:none;stroke:#231f20;stroke-width:1.12722003;stroke-linecap:butt;stroke-linejoin:miter;stroke-miterlimit:2.61312604;stroke-opacity:1;stroke-dasharray:none"
         d="M 589.42412,401.57789 588.2331,523.86864"
         inkscape:connector-curvature="0" />
      <path
         id="path4688"
         style="fill:#00adef;fill-opacity:1;fill-rule:evenodd;stroke:none"
         d="m 457.24991,418.14735 c 3.59402,0 7.18874,0 10.77194,0 0.19546,21.08487 -0.32599,47.61197 0.0543,55.76898 0.30413,5.77182 1.81371,10.98972 3.49687,15.08942 4.02869,9.74414 9.83838,16.08047 18.25397,22.73625 12.71663,10.06315 35.91097,13.37469 54.95807,1.81032 15.60433,-9.5205 23.31452,-24.46113 25.05224,-41.05223 0.5316,-27.71946 -0.0557,-54.63838 -0.0557,-54.63838 0,0 11.48119,-0.22567 11.30737,-0.22567 0,9.79667 -0.30096,22.01168 -0.37965,33.22504 0.0869,12.70444 0.10623,24.88676 -2.46726,34.77992 -5.65751,21.64916 -26.55075,41.48868 -49.47435,44.70509 -33.38104,4.67458 -61.83163,-15.68684 -69.50868,-45.15237 -2.23731,-8.55132 -1.66197,-19.25337 -1.66197,-28.88005 -0.11904,-12.72564 -0.2277,-25.44091 -0.34719,-38.16632"
         inkscape:connector-curvature="0" />
      <path
         id="path4690"
         style="fill:#00adef;fill-opacity:1;fill-rule:evenodd;stroke:none"
         d="m 515.31955,418.7973 8.48909,0.002 -10e-4,23.55484 -8.48797,0 c 0,-7.84884 0,-23.55732 0,-23.55732"
         inkscape:connector-curvature="0" />
      <path
         id="path4692"
         style="fill:#00adef;fill-opacity:1;fill-rule:evenodd;stroke:none"
         d="m 514.00116,419.09444 -0.0774,9.26056 c -5.41225,1.65138 -9.66885,1.68204 -15.92266,6.49279 -11.15723,8.55425 -16.93694,21.07969 -16.89591,33.38668 0.0516,16.38211 10.53996,32.1943 28.21861,37.83514 5.90302,1.866 22.72746,4.64459 38.51011,-11.70618 18.34912,-19.06806 10.14813,-54.0511 -12.3115,-62.73002 -0.44277,-0.21733 -0.88554,-0.42496 -1.32853,-0.64297 -0.2268,-0.10349 -0.44346,-0.20718 -0.66981,-0.32148 -2.80203,-1.27489 -7.93878,-2.146 -7.93878,-2.146 l -0.0314,-9.22788 c 24.22125,2.41564 41.52498,24.76007 40.99969,48.60776 -0.50477,23.4845 -16.64858,47.09367 -45.31018,48.64924 -24.60226,1.30622 -44.89808,-19.79354 -47.65865,-38.85122 -2.21566,-15.36604 0.33795,-30.05101 10.87722,-42.71127 13.24574,-16.12578 29.78386,-15.82549 29.53903,-15.89515"
         inkscape:connector-curvature="0" />
      <path
         id="path4694"
         style="fill:#00adef;fill-opacity:1;fill-rule:evenodd;stroke:none"
         d="m 513.87332,434.05986 -0.0108,8.03798 c -4.56344,0.43579 -11.53754,8.7071 -4.16079,16.13097 0.97844,0.98542 5.43953,1.60719 5.43953,1.60719 l 0,0 -0.11254,-9.30069 8.67779,0.0203 0.1028,18.31462 -0.29263,-0.0868 c 0,0 -10.6831,0.81927 -14.06229,-0.8914 -2.92627,-1.47238 -6.243,-2.96594 -8.27268,-5.41224 -2.95692,-3.5672 -4.00816,-8.34729 -3.37917,-12.60863 0.85488,-5.77497 2.6679,-8.79277 5.31552,-11.23951 3.51353,-3.24527 8.08779,-4.57245 10.75593,-4.57245"
         inkscape:connector-curvature="0" />
      <path
         id="path4696"
         style="fill:#00adef;fill-opacity:1;fill-rule:evenodd;stroke:none"
         d="m 525.52517,450.31731 c 13.76404,3.41119 20.94894,15.72967 20.42366,26.97956 -0.44301,9.15505 -6.82013,19.03626 -17.79273,23.3702 -5.70734,2.24001 -11.15654,1.97015 -17.12202,0.0832 l 0,4.64527 c -4.14186,-1.10941 -7.6182,-2.6023 -9.44722,-4.15516 l 0,-6.38998 c -3.53383,-5.69201 -8.75691,-13.69685 -3.68848,-18.9019 -0.12336,0.062 2.63724,-3.23422 6.92338,-2.57097 4.28615,0.66348 5.38788,2.53963 5.67667,4.94579 0.35035,2.92356 0.25769,6.97772 0.17512,12.16248 11.02308,4.80038 18.00847,-0.42564 21.56305,-4.35535 4.81143,-5.28802 4.03816,-16.61026 -0.53634,-21.75264 -2.53444,-2.85142 -6.45107,-4.34228 -6.28696,-4.34228 l 0.11182,-9.71821 z"
         inkscape:connector-curvature="0" />
      <path
         id="path4698"
         style="fill:#2e3192;fill-opacity:1;fill-rule:evenodd;stroke:none"
         d="m 505.02555,436.21466 c -0.0433,-0.18081 -0.0433,-0.36229 -0.0433,-0.5431 0.0867,-0.0455 0.21711,-0.0455 0.34764,-0.0455 0,0.18148 0,0.36252 0,0.58864 -0.13058,0 -0.21733,0 -0.30435,0"
         inkscape:connector-curvature="0" />
    </g>
  </g>
</svg>
