<?xml version="1.0" encoding="utf-8"?>
<!-- Generator: Adobe Illustrator 16.0.0, SVG Export Plug-In . SVG Version: 6.00 Build 0)  -->
<!DOCTYPE svg PUBLIC "-//W3C//DTD SVG 1.1//EN" "http://www.w3.org/Graphics/SVG/1.1/DTD/svg11.dtd">
<svg version="1.1"
	 id="svg3969" inkscape:version="0.46" sodipodi:docname="IIT_Bombay_Logo.svg" sodipodi:version="0.32" xmlns:inkscape="http://www.inkscape.org/namespaces/inkscape" xmlns:sodipodi="http://sodipodi.sourceforge.net/DTD/sodipodi-0.dtd" xmlns:cc="http://creativecommons.org/ns#" xmlns:dc="http://purl.org/dc/elements/1.1/" xmlns:svg="http://www.w3.org/2000/svg" xmlns:rdf="http://www.w3.org/1999/02/22-rdf-syntax-ns#" inkscape:output_extension="org.inkscape.output.svg.inkscape"
	 xmlns="http://www.w3.org/2000/svg" xmlns:xlink="http://www.w3.org/1999/xlink" x="0px" y="0px" width="3000px" height="3000px"
	 viewBox="0 0 3000 3000" enable-background="new 0 0 3000 3000" xml:space="preserve">
<defs>
	
	
		<inkscape:perspective  id="perspective4256" inkscape:persp3d-origin="1080 : 704.16667 : 1" inkscape:vp_y="0 : 1000 : 0" inkscape:vp_z="2160 : 1056.25 : 1" inkscape:vp_x="0 : 1056.25 : 1" sodipodi:type="inkscape:persp3d">
		</inkscape:perspective>
</defs>
<sodipodi:namedview  id="base" inkscape:pageopacity="0.0" inkscape:pageshadow="2" inkscape:window-width="640" inkscape:window-height="669" inkscape:current-layer="svg3969" inkscape:window-x="23" inkscape:window-y="51" inkscape:cy="1056.25" guidetolerance="10.0" gridtolerance="10.0" pagecolor="#ffffff" inkscape:cx="1080" showgrid="false" borderopacity="1.0" bordercolor="#666666" inkscape:zoom="0.21869822" objecttolerance="10.0">
	</sodipodi:namedview>
<g id="_x23_ffffffff">
</g>
<g id="_x23_fcfbfbff">
</g>
<g id="_x23_fefdfeff">
</g>
<g id="_x23_fcfcfbff">
</g>
<g id="_x23_fdfefdff">
</g>
<g id="_x23_fbfbfaff">
</g>
<g id="_x23_fefefeff">
</g>
<g id="_x23_fcfbfaff">
</g>
<g id="_x23_fdfdfcff">
</g>
<g id="_x23_fdfefeff">
</g>
<g id="_x23_fcfcfcff">
</g>
<g id="_x23_fdfdfdff">
</g>
<g id="_x23_fefefcff">
</g>
<g id="_x23_fefefdff">
</g>
<g id="_x23_fcfbf8ff">
</g>
<g id="_x23_fdfcfcff">
</g>
<g id="_x23_fefffeff">
</g>
<g id="_x23_fbfaf9ff">
</g>
<g id="_x23_fcfafbff">
</g>
<g id="_x23_fcfdfbff">
</g>
<g id="_x23_fefdfcff">
</g>
<g id="_x23_fefdfdff">
</g>
<g id="_x23_fdfdfbff">
</g>
<g id="_x23_fbfafaff">
</g>
<g id="_x23_fcfcfaff">
</g>
<g id="_x23_fcfdfcff">
</g>
<g id="_x23_fdfcfbff">
</g>
<g>
	<g id="_x23_1f1a17ff">
		<path id="path3973" fill="#1F1A17" d="M1347.063,159.561c14.855-0.441,29.629-2.37,44.42-3.808
			c9.904,0.196,19.66-1.814,29.564-1.732c41.936-0.833,83.904-0.752,125.84,0.115c35.578,2.484,71.238,4.968,106.619,9.969
			c14.938,65.355,31.264,130.399,46.758,195.64c61.221,11.195,121.166,28.469,180.162,48.113
			c25.201-24.743,49.895-50.009,75.57-74.295c22.422-22.242,44.926-44.436,67.316-66.711c1.373-1.504,3.137-2.925,5.246-1.732
			c93.873,40.399,184.607,89.101,266.568,150.436c-2.697,13.908-7.73,27.228-11.277,40.923
			c-12.029,41.38-24.105,82.744-36.053,124.123c-2.074,8.874-5.932,17.34-7.338,26.345c12.029,10.868,25.184,20.494,37.018,31.639
			c33.615,29.499,65.305,61.237,95.016,94.658c1.553,2.255,4.348,0.457,6.342-0.066c37.734-14.692,75.65-28.91,113.387-43.603
			c22.16-8.237,43.994-17.372,66.352-25.07c19.088,24.677,38.324,49.29,56.219,74.866c40.988,58.573,78.07,119.94,110.43,183.693
			c-23.191,25.25-47.82,49.111-71.682,73.723c-19.529,20.788-39.746,40.906-59.764,61.236c-2.371,2.452-5.002,4.74-6.865,7.632
			c0.457,6.194,4.152,11.571,6.113,17.356c10.883,28.666,23.746,56.612,32.555,86.029c5.621,18.859,11.586,37.637,16.049,56.807
			c64.422,8.367,128.846,16.965,193.154,26.247c2.256,0.115,4.74,0.949,5.148,3.58c14.594,65.73,22.504,132.769,26.703,199.889
			c1.244,14.202,1.766,28.437,1.848,42.721c2.107,19.087,1.227,38.373,1.619,57.542c-63.82,20.756-127.229,42.9-191.18,63.215
			c-5.377,57.117-12.648,114.186-24.973,170.291c49.16,34.795,99.252,68.395,146.221,106.195
			c5.459,4.412,11.229,8.549,16.131,13.613c0.604,5.215-1.293,10.232-2.6,15.199c-26.197,96.668-67.938,188.4-115.689,276.178
			c-57.332-13.123-114.875-25.314-172.287-38.045c-7.42-1.227-14.691-4.055-22.258-3.598c-8.385,11.996-15.527,24.857-23.797,36.936
			c-26.883,40.988-56.48,80.08-86.225,119.01c-25.445-19.465-50.367-39.566-75.65-59.229
			c-24.236-19.414-49.125-38.012-72.758-58.162c-38.912-32.377-77.727-64.865-116.541-97.322
			c8.695-12.027,18.893-22.848,28.061-34.5c9.709-10.182,17.699-21.785,26.002-33.094c62.789-86.895,108.713-185.818,135.236-289.66
			c1.586-5.639,3.088-11.326,3.498-17.176c0.113,0.85,0.244,1.715,0.408,2.613c8.254-38.258,15.428-76.811,18.795-115.82
			c4.217-40.09,3.611-80.504,2.859-120.757c-0.883-8.694-1.584-17.405-1.584-26.148c-3.547-34.696-7.553-69.44-15.102-103.548
			c-27.75-136.937-90.639-266.372-180.018-373.662c-78.918-95.082-178.545-172.94-290.02-226.315
			c-133.227-64.016-283.4-92.141-430.682-81.011c-107.062,7.746-212.734,36.084-309.271,83.151
			c-108.99,52.918-206.411,129.37-284.12,222.263c-87.696,104.839-150.061,230.809-179.232,364.396
			c-8.057,35.824-13.45,72.203-16.587,108.762c-3.53,36.149-3.236,72.578-2.5,108.892c4.265,81.975,22.063,163.035,49.747,240.271
			c39.173,109.023,97.665,211.264,172.972,299.367c2.452,1.963,1.406,5.068-1.128,6.375
			c-86.208,69.701-171.958,139.992-258.282,209.58c-18.811-22.896-36.82-46.381-55.549-69.311
			c-21.949-28.174-42.671-57.346-61.269-87.842c-1.504-2.059-2.828-5.688-5.999-4.314c-67.038,12.076-134.158,23.795-201.163,36.102
			c-52.313-93.613-91.863-194.039-120.333-297.357c57.576-35.611,115.544-70.619,173.217-106.049
			c1.569-4.006-1.144-8.449-1.667-12.535c-12.225-56.008-21.785-112.848-24.155-170.145
			c-59.259-17.291-118.485-34.73-177.728-52.053c-6.047-1.863-12.078-3.758-18.271-5.018c-0.572-22.912-0.425-45.824-0.294-68.737
			c0.13-15.265,0.049-30.562,1.765-45.744c-0.278-11.506,1.536-22.848,2.321-34.287c5-54.177,14.153-108.01,27.08-160.879
			c51.006-6.619,102.012-13.188,153.083-19.235c17.421-2.647,35.023-3.988,52.363-7.19c0.49-6.946,3.154-13.401,4.952-20.054
			c13.809-48.799,30.986-96.65,51.137-143.211c0.834-1.88,0.654-4.151-1.063-5.442c-14.447-14.938-29.123-29.679-43.701-44.486
			c-22.063-22.602-43.814-45.498-66.139-67.855c-10.067-10.574-20.984-20.445-30.169-31.786
			c31.542-66.255,70.356-128.994,114.645-187.469c21.066-28.11,44.028-54.7,66.973-81.256
			c44.698,20.559,88.937,42.13,133.537,62.886c15.28,7.747,31.132,14.284,46.25,22.34c41.625-41.543,84.525-81.844,129.794-119.4
			c1.635-1.455,3.481-2.778,4.707-4.658c-10.067-30.79-20.412-61.497-30.561-92.255c-10.623-33.029-22.259-65.731-32.327-98.923
			c88.791-58.949,180.867-114.057,279.872-154.146c2.418-0.638,5.638-1.422,7.321,1.078
			c40.154,44.895,80.048,90.033,120.251,134.894c3.791,4.38,7.436,8.939,11.75,12.829c1.994,0.196,3.906-0.457,5.77-1.144
			c57.886-20.184,118.044-32.947,178.349-43.423c9.217-35.692,19.563-71.107,29.172-106.702
			C1330.164,220.782,1337.959,189.975,1347.063,159.561 M1409.557,205.305c-7.68,1.193-15.477,0.997-23.205,1.405
			c-18.403,65.191-35.874,130.677-54.34,195.836c-10.804,3.105-22.178,3.808-33.225,5.802
			c-34.631,6.243-69.293,12.568-103.303,21.621c-33.143,8.27-65.649,18.958-97.648,30.888c-2.189,0.605-5.099,2.027-6.521-0.588
			c-42.817-48.228-85.864-96.242-128.633-144.52c-1.585-1.912-4.2-3.301-6.455-1.618c-72.088,32.146-140.647,71.712-206.753,114.727
			c1.602,8.22,5.001,15.901,7.37,23.909c18.173,54.421,35.905,109.007,54.242,163.379c-13.679,12.241-28.469,23.224-42.165,35.48
			c-24.023,20.068-47.067,41.249-69.931,62.626c-24.105,22.536-46.92,46.462-70.241,69.832
			c-59.357-27.93-118.567-56.187-177.94-84.084c-50.353,59.767-95.067,124.419-131.56,193.581c-1.014,2.027-1.994,4.919,0.294,6.505
			c8.58,8.874,17.373,17.552,25.871,26.507c23.272,24.645,47.623,48.244,70.879,72.906c13.662,14.578,28.436,28.175,41.723,43.08
			c-1.405,6.472-5.312,12.126-7.648,18.304c-30.005,65.747-52.755,134.633-69.653,204.874c-25.953,3.956-52.085,6.652-78.119,10.084
			c-41.854,5.622-83.806,10.312-125.644,15.934c-11.849,55.075-18.5,111.146-21.523,167.317c-0.49,16.358-0.016,32.751-1.389,49.061
			c0.082,3.203-0.637,7.043,1.847,9.609c64.8,18.387,129.288,37.883,194.006,56.514c0.948,63.295,8.842,126.412,22.422,188.27
			c3.383,19.023,9.462,37.508,12.453,56.596c-57.167,34.826-114.449,69.506-171.338,104.822c0.932,6.732,3.351,13.123,5.23,19.643
			c21.72,68.199,48.816,134.748,81.829,198.289c11.8-1.324,23.403-4.021,35.104-6.014c38.209-6.408,76.256-13.762,114.448-20.348
			c17.814-2.762,35.399-7.125,53.343-8.988c29.548,51.691,63.623,100.785,102.323,146.039
			c39.729-32.506,79.687-64.717,119.465-97.176c21.05-17.289,42.606-33.975,63.247-51.771
			c-54.323-69.621-98.629-146.939-132.834-228.293c-35.088-83.824-59.438-172.5-68.754-262.975
			c-4.216-36.77-4.085-73.852-3.383-110.836c-0.032-8.743,0.311-17.47,1.389-26.131c0-16.311,2.958-32.359,4.053-48.587
			c3.955-30.611,8.972-61.106,15.755-91.21c29.907-132.998,90.571-258.87,175.718-365.295
			c60.24-75.831,132.883-141.676,213.812-194.854c109.154-71.483,233.948-119.271,363.138-137.885
			c19.889-3.154,39.909-5.474,60.011-6.651c12.568-2.207,25.412-0.704,38.029-2.599c23.959-0.294,47.982-0.948,71.924,0.408
			c127.574,5.181,254.033,38.177,368.041,95.834c113.338,57.167,214.516,138.424,294.775,236.759
			c83.563,101.767,144.486,222,177.01,349.605c2.926,12.699,7.076,25.25,8.072,38.324c0.148-0.915,0.311-1.814,0.508-2.696
			c6.684,35.643,13.074,71.435,15.754,107.618c1.863,10.246,0.639,20.739,2.354,31.019c1.193,25.02,0.865,50.106,0.703,75.161
			c-3.465,125.447-34.646,249.898-88.676,363.121c-29.01,60.305-64.146,117.865-106.197,169.965
			c14.252,12.191,28.83,24.008,43.131,36.166c22.977,18.893,45.35,38.553,68.949,56.678c24.072,19.057,48.408,37.801,72.301,57.068
			c17.471-22.945,34.156-46.463,50.123-70.453c16.213-23.566,30.463-48.359,45.336-72.742
			c49.322,11.57,98.971,21.752,148.393,32.898c14.773,2.549,29.154,7.289,44.059,8.955c31.313-61.268,59.898-124.189,80.686-189.871
			c2.191-7.402,5.295-14.594,6.504-22.242c0.523-4.053-4.527-5.359-6.848-7.746c-50.531-38.912-103.824-74.049-155.484-111.408
			c19.496-73.887,27.521-150.061,34.695-225.908c-0.459-3.465,3.498-4.135,5.916-5.049c60.223-19.824,120.201-40.416,180.555-59.848
			c0.475-39.533-2.711-78.904-6.111-118.224c-3.318-34.679-8.955-69.097-14.414-103.482c-32.734-5.476-65.748-9.218-98.598-13.957
			c-32.766-3.71-65.354-8.923-98.121-12.666c-7.305-32.653-16.195-64.947-26.443-96.799c-4.266-13.694-10.148-26.786-15.264-40.154
			c-10.018-24.824-19.676-49.796-29.824-74.572c-0.867-2.484-2.6-5.85-0.033-7.91c14.414-15.019,29.416-29.466,43.504-44.795
			c22.291-22.913,45.041-45.384,66.973-68.657c7.551-8.252,16.164-15.623,23.24-24.285c-5.264-13.304-13.811-25.12-20.479-37.769
			c-30.43-52.476-63.721-103.401-100.965-151.302c-25.43,8.76-50.271,19.154-75.455,28.567
			c-35.578,13.614-71.059,27.488-106.703,40.923c-33.371-38.75-68.281-76.272-106.359-110.461
			c-22.699-20.772-46.887-39.828-71.059-58.851c9.48-30.97,18.043-62.217,27.391-93.22c8.76-32.26,19.334-64.047,27.455-96.471
			c-61.268-43.063-127.488-78.674-195.557-109.726c-2.189-1.111-5.082-1.242-6.635,0.932c-46.807,45.286-92.5,91.749-139.34,137.018
			c-1.961,2.092-4.936,0.751-7.207,0.196c-74.426-26.705-150.926-48.244-229.143-60.338
			c-11.488-47.181-22.732-94.429-34.141-141.626c-3.742-17.52-9.15-34.679-12.207-52.362c-30.545-2.386-61.025-5.622-91.717-5.524
			c-16.277-1.716-32.668-1.063-49.012-1.16c-9.805,0.212-19.676-0.475-29.416,0.898
			C1431.408,204.994,1420.441,204.21,1409.557,205.305z"/>
		<path id="path3975" fill="#1F1A17" d="M1388.393,2224.477c15.723-1.701,31.576-1.209,47.363-1.52
			c37.604-0.426,75.225-0.197,112.814,0.57c11.717,1.717,23.582,0.752,35.348,1.799c8.01,1.355,16.197,0.506,24.238,1.717
			c244.309,16.391,485.609,77.676,708.477,179.199c-12.338,27.848-25.902,55.172-37.883,83.168
			c30.676,12.846,60.273,28.094,89.492,43.945c16.834,8.287,32.393,18.811,48.475,28.42c4.738,3.008,9.805,5.59,14.234,9.119
			c-0.736,5.572-4.281,10.197-6.734,15.117c-47.115,87.875-93.971,175.865-141.186,263.691
			c-26.883-12.076-53.439-24.955-80.668-36.264c-68.295-29.141-138.357-54.309-209.973-74.002
			c-17.078-4.412-34.172-8.742-51.234-13.221c10.705-42.801,21.508-85.586,31.854-128.486
			c-71.893-18.861-145.043-32.783-218.65-43.049c-43.898-6.029-87.957-10.965-132.166-13.563c-8.139-1.537-16.49-0.441-24.611-1.961
			c-11.229-1.111-22.586-0.295-33.764-1.863c-14.35-0.654-28.732-0.359-43.08-0.801c-22.293-1.701-44.682-0.588-67.006-0.9
			c-8.76-0.359-17.422,1.291-26.166,1.064c-14.168,0.359-28.387-0.328-42.49,1.256c-135.793,5.623-271.013,25.381-403.341,56.662
			c10.247,43.488,21.426,86.797,32.131,130.188c-30.366,8.496-61.123,15.574-91.227,25.068
			c-75.438,23.176-149.145,51.873-220.758,84.982c-10.051,4.332-19.627,9.758-29.957,13.451
			c-49.944-92.598-98.972-185.688-149.096-278.188c17.225-10.313,34.124-21.197,51.496-31.23
			c33.274-17.701,66.303-36.184,101.375-50.076c-2.763-10.018-8.434-18.924-12.552-28.402c-8.71-18.533-17.519-37.018-26.23-55.551
			c131.87-60.436,270.424-106.129,412.117-137.049c73.69-15.789,148.229-27.881,223.243-35.123
			c24.677-3.023,49.502-4.135,74.245-6.34C1360.496,2225.783,1374.388,2224.279,1388.393,2224.477 M1393.23,2272.605
			c-11.914,1.619-23.991,0.605-35.937,1.83c-225.058,13.256-447.858,65.977-655.266,154.555
			c26.917,57.396,54.225,114.611,81.338,171.91c157.348-52.215,320.384-87.58,485.398-103.449
			c15.395-1.963,30.937-2.256,46.299-4.445c8.172-0.426,16.392-0.426,24.515-1.668c14.692,0.033,29.221-2.238,43.93-1.879
			c9.854,0.441,19.512-1.912,29.367-1.553c46.332-0.523,92.68-0.604,139.029,0.229c8.627,1.096,17.307,1.455,26.018,1.439
			c186.863,9.037,372.926,43.145,550.18,103.596c13.957,4.479,27.375,10.656,41.445,14.691c5.213-8.416,8.549-17.895,12.912-26.77
			c17.895-38.535,35.758-77.088,53.555-115.656c5.018-11.637,11.473-22.686,15.395-34.762
			c-212.896-91.26-442.154-144.242-673.275-156.826c-13.418,0.246-26.721-1.781-40.121-1.65c-9.037-0.213-18.074-0.229-27.096-0.408
			c-21.182-1.879-42.492-0.77-63.736-0.947C1429.252,2272.672,1411.191,2271.576,1393.23,2272.605 M673.231,2542.441
			c34.533,69.115,69.653,137.951,103.842,207.244c5.949-2.141,11.832-4.445,17.65-6.896
			c-31.525-70.748-64.292-140.941-97.615-210.889C689.101,2535.301,681.158,2538.863,673.231,2542.441 M2241.439,2568.967
			c-26.654,58.572-54.176,116.736-81.176,175.145c5.9,2.305,11.832,4.545,17.732,6.898c34.271-69.277,69.311-138.18,103.811-207.359
			c-7.697-3.725-15.625-6.961-23.402-10.441C2252.16,2544.844,2247.307,2557.15,2241.439,2568.967 M628.436,2564.93
			c35.073,67.578,70.977,134.713,106.082,202.291c6.603-2.598,13.173-5.246,19.645-8.139
			c-34.092-68.721-69.048-137.018-102.977-205.805C643.553,2557.035,635.954,2560.893,628.436,2564.93 M2304.064,2554.455
			c-34.172,68.703-68.836,137.146-103.139,205.787c5.621,2.322,11.064,5.1,16.865,7.045c1.863,1.029,3.988,0.344,4.658-1.75
			c35.137-66.203,69.473-132.85,104.889-198.891C2319.656,2562.412,2311.895,2558.344,2304.064,2554.455 M588.232,2587.467
			c0.311,5.393,4.642,9.871,6.75,14.791c32.8,61.039,65.453,122.162,98.106,183.283c6.162-2.467,12.176-5.246,18.157-8.09
			c-4.821-8.057-8.759-16.588-13.352-24.758c-30.61-58.59-61.58-117.016-92.288-175.555
			C599.836,2580.521,592.907,2582.727,588.232,2587.467 M2348.91,2578.51c-35.186,66.564-69.865,133.391-105.264,199.842
			c6.145,2.598,11.881,7.107,18.729,7.418c5.998-10.361,11.244-21.146,17.063-31.605c29.27-55.322,59.453-110.201,88.316-165.732
			C2361.689,2584.688,2355.48,2581.207,2348.91,2578.51 M785.54,2661.893c10.296,24.137,21.654,47.803,32.179,71.842
			c6.193-1.666,12.192-4.004,18.288-6.063c-6.161-17.83-14.513-34.811-21.147-52.461c-1.438-2.975-2.109-6.717-5.083-8.531
			C801.817,2664.555,793.776,2662.465,785.54,2661.893 M2143.48,2668.119c-7.746,20.461-16.898,40.365-24.58,60.859
			c6.211,1.75,12.242,4.135,18.369,6.193c11.195-24.367,22.57-48.635,33.699-73.002
			C2161.703,2663.625,2152.682,2666.336,2143.48,2668.119 M841.023,2673.871c5.998,15.117,12.388,30.104,18.615,45.139
			c6.406-1.699,12.649-3.889,18.924-6.014c-3.088-9.479-7.289-18.533-10.606-27.914c-1.209-2.256-1.438-5.721-4.38-6.275
			C856.206,2676.551,848.574,2675.309,841.023,2673.871 M2090.09,2680.588c-5.525,10.803-9.414,22.439-13.549,33.846
			c6.324,1.848,12.566,3.988,18.859,5.965c6.193-15.066,12.715-30.004,18.516-45.203
			C2105.875,2676.453,2097.787,2677.973,2090.09,2680.588 M894.922,2685.377c1.977,6.83,4.902,13.336,7.697,19.873
			c11.767-3.76,23.894-6.408,35.448-10.82C923.799,2690.9,909.222,2688.775,894.922,2685.377 M2015.613,2695.982
			c12.57,2.73,24.598,7.518,37.246,9.953c2.762-6.26,5.262-12.648,7.143-19.219
			C2045.229,2689.936,2030.307,2692.469,2015.613,2695.982z"/>
	</g>
	<g id="_x23_211d1aff">
		<path id="path3978" fill="#211D1A" d="M1454.092,474.373c5.441-0.735,10.998-1.977,16.457-0.49
			c0.064,9.168,0.311,18.337,0.785,27.488c1.617,9.724,0.621,19.644,2.205,29.369c0.785,7.86,0.557,15.77,0.898,23.664
			c-5.393,0.571-10.768,1.455-16.178,1.748c-12.766-17.731-23.648-36.738-36.412-54.47c-0.883,18.745,2.5,37.343,2.059,56.121
			c-5.426,0.032-10.852,0.262-16.262,0.179c0.277-18.401-2.271-36.64-2.354-55.01c-0.834-8.792-1.779-17.584-1.602-26.442
			c5.9-0.245,11.816-0.474,17.75-0.703c11.699,17.356,22.193,35.529,34.678,52.33
			C1457.213,510.18,1454.076,492.333,1454.092,474.373z"/>
		<path id="path3980" fill="#211D1A" d="M1523.223,474.259c5.555,0.065,11.096,0.147,16.668,0.229
			c-0.098,27.276-0.441,54.568-1.715,81.812c-5.623-0.098-11.229-0.196-16.834-0.196c0.426-17.161-0.393-34.385,1.537-51.463
			C1523.107,494.524,1523.123,484.391,1523.223,474.259z"/>
		<path id="path3982" fill="#211D1A" d="M1553.684,557.64c0.934-27.276,4.234-54.389,5.787-81.616
			c6.145,0.556,12.566,0.458,18.467,2.354c5.197,10.769,10.02,21.736,15.248,32.522c4.135,8.481,7.371,17.455,12.6,25.38
			c0.605-18.647,2.91-37.18,4.021-55.762c5.049,0.229,10.115,0.507,15.199,0.687c-0.033,27.325-4.104,54.454-5.41,81.714
			c-5.965-0.083-11.963-0.295-17.75-1.798c-8.611-19.219-18.057-38.046-26.637-57.266c-0.605-0.049-1.799-0.147-2.404-0.196
			c-0.457,18.664-2.025,37.294-4.002,55.86C1563.752,558.865,1558.75,557.967,1553.684,557.64z"/>
	</g>
	<g id="_x23_221d1bff">
		<path id="path3985" fill="#221D1B" d="M1341.652,484.097c6.488-1.39,13.124-1.7,19.743-2.026
			c8.858,17.176,16.833,34.794,25.38,52.134c3.922,8.384,8.416,16.522,11.816,25.151c-6.049,1.504-12.273,1.813-18.484,1.879
			c-1.961-5.131-4.314-10.084-6.21-15.23c-10.05,0-19.905,2.271-29.956,2.385c-1.161,5.883-2.681,11.668-3.922,17.52
			c-5.999,0.931-11.996,1.797-18.043,2.222C1328.628,540.136,1335.034,512.092,1341.652,484.097 M1353.501,501.371
			c-2.467,10.787-4.379,21.671-6.912,32.425c6.798-0.458,13.663-0.671,20.379-1.962
			C1362.473,521.686,1358.159,511.455,1353.501,501.371z"/>
		<path id="path3987" fill="#221D1B" d="M1197.607,513.498c10.182-3.056,20.592-5.36,30.823-8.237
			c7.272-2.206,15.133-2.353,22.603-1.111c12.649,4.119,19.448,16.801,23.272,28.682c1.471,7.388,1.063,14.987,1.063,22.489
			c0.67,12.551-8.924,24.04-20.674,27.554c-12.126,3.464-24.433,6.341-36.607,9.674
			C1211.008,566.269,1204.569,539.81,1197.607,513.498 M1217.317,523.532c5.376,16.751,8.417,34.14,13.679,50.924
			c7.812-2.974,17.602-2.484,23.615-8.988c6.014-6.211,3.955-15.591,3.677-23.371c-1.977-8.841-5.36-19.529-14.528-23.239
			C1234.673,517.224,1225.831,520.803,1217.317,523.532z"/>
		<path id="path3989" fill="#221D1B" d="M1824.697,531.197c6.488,0.473,12.471,3.17,18.582,5.148
			c15.102,4.919,30.119,10.116,45.172,15.215c-1.193,4.576-2.664,9.07-4.217,13.532c-8.074-1.716-15.723-4.887-23.469-7.648
			c-6.586,21.18-14.219,42.017-20.852,63.182c-5.736-0.769-11.131-2.877-16.557-4.724c6.357-21.523,14.725-42.409,20.838-64.014
			c-7.568-2.403-15.053-5.002-22.604-7.42C1822.688,540.055,1823.945,535.675,1824.697,531.197z"/>
		<path id="path3991" fill="#221D1B" d="M1081.279,554.224c5.278-2.305,10.705-4.315,16.375-5.475
			c8.776,25.495,19.154,50.417,27.636,76.01c-5.115,2.223-10.345,4.103-15.444,6.324
			C1100.024,605.589,1090.48,579.948,1081.279,554.224z"/>
		<path id="path3993" fill="#221D1B" d="M2359.549,970.083c8.238-1.536,17.307-1.389,24.711,3.04
			c9.527,4.951,15.869,14.43,18.99,24.497c3.057,11.358,0.572,24.907-8.842,32.637c-0.539,0.032-1.602,0.114-2.141,0.163
			c-3.775-3.448-5.672-8.546-8.547-12.73c2.549-4.462,6.488-8.989,5.426-14.513c-1.391-6.39-5.084-12.862-11.342-15.46
			c-5.852-3.121-12.912-1.782-18.664,0.833c-9.953,4.152-19.547,11.408-23.223,21.916c-2.582,8.695,3.188,17.716,10.852,21.622
			c4.412,2.353,9.625,0.833,14.217-0.261c2.289,4.951,8.074,9.315,7.389,15.035c-7.6,2.729-16.18,3.791-23.91,1.013
			c-12.045-4.02-20.609-15.167-24.057-27.064c-2.992-9.544-0.393-20.052,5.262-28.077
			C2333.957,981.622,2346.098,973.45,2359.549,970.083z"/>
		<path id="path3995" fill="#221D1B" d="M501.387,1144.184c4.102-1.308,8.498,1.961,12.453,3.203
			c-1.504,4.871-3.334,9.609-4.74,14.513c21.017,8.71,42.442,16.473,63.329,25.511c-1.7,4.478-3.481,8.939-5.295,13.401
			c-11.784-2.664-22.553-8.434-33.83-12.633c-10.313-3.759-20.2-8.711-30.79-11.653c-3.677,9.871-7.6,19.693-10.313,29.891
			c0.032,6.472-2.436,12.47-3.988,18.664c2.828,0.751,5.688,1.389,8.515,2.125c-0.67-8.972,2.239-18.615,9.381-24.416
			c8.727-7.387,22.651-6.292,31.1,1.062c7.077,5.507,10.983,13.826,14.072,22.014c-4.528,3.023-9.169,6.014-14.415,7.632
			c-3.612-7.975-7.78-17.781-16.915-20.428c-7.289-1.585-9.561,7.077-11.081,12.388c-1.781,3.612,1.374,7.256,4.904,7.91
			c13.074,4.331,26.001,9.168,39.206,13.074c-1.127,4.707-2.615,9.332-4.527,13.794c-5.278,0.801-10.361-2.876-15.542-4.053
			c-1.553,9.315-4.134,19.153-11.326,25.789c-6.848,7.272-18.598,8.4-27.243,3.889c-6.701-3.219-11.228-10.606-10.852-18.058
			c-0.326-7.682,2.926-14.791,5.051-21.981c2.99-0.147,5.981-0.359,8.972-0.687c-4.053-2.583-8.646-4.119-13.353-4.968
			c-4.2,14.234-8.71,28.403-12.796,42.67c-0.196,6.146-0.719,12.273-2.631,18.157c22.03,5.852,44.371,10.428,66.287,16.719
			c-0.409,5.148-1.929,10.117-3.874,14.889c-22.16-6.146-44.648-11.015-66.956-16.539c-0.212,6.374,0.817,12.911-1.422,19.055
			c14.153,3.286,28.355,6.472,42.328,10.476c2.614,0.196,2.14,3.35,1.781,5.116c-5.932,7.354-14.741,11.456-22.635,16.277
			c-2.517,1.782-5.671,1.7-8.596,1.945c-0.082-4.936,0.246-9.838,0.523-14.742c-5.688-0.833-11.211-2.467-16.702-4.119
			c-1.683,5.802-3.399,11.587-4.723,17.487c-0.605,2.828,1.994,5.263,1.536,8.139c-0.278,3.922-1.291,7.73-1.961,11.604
			c22.569,3.693,44.991,8.269,67.447,12.601c-0.572,4.936-1.667,9.773-2.418,14.692c-22.75-2.992-45.155-8.335-67.774-12.208
			c-0.49,3.921-3.039,7.991-1.144,11.881c2.125,5.131,0.359,10.705,0.147,16.048c22.537,2.877,44.959,6.815,67.594,8.793
			c-0.099,5.361-1.079,10.656-1.962,15.951c-22.765-3.188-45.515-7.094-68.46-8.695c-0.049,8.155,0.703,16.294,0.311,24.449
			c14.415,0.556,28.73,2.288,43.064,3.611c8.531-0.131,16.882,1.536,25.364,1.912c-0.147,4.936-0.311,9.888-0.556,14.855
			c-4.642,0.033-9.267-0.311-13.892-0.473c5.785,13.089,12.029,27.242,9.168,41.886c-2.565,8.678-9.364,18.811-19.676,17.486
			c-4.364,0.293-7.19-3.301-10.132-5.883c-4.217,6.912-10.803,14.152-19.563,13.973c-5.328,0.311-9.396-4.527-10.018-9.479
			c-1.406-8.482,1.144-16.98,0.719-25.494c-2.157,0-4.314,0-6.472,0c0.212,11.309,0.311,22.684-1.144,33.928
			c1.373,7.207,3.497,14.348,2.745,21.816c22.897,0.262,45.711-1.83,68.608-1.602c0.114,5.066,0.163,10.164,0.147,15.248
			c-23.077-0.213-46.087,1.879-69.163,1.486c1.912,6.93,2.778,14.072,2.32,21.279c23.273-0.016,46.545-0.621,69.817-0.588
			c0.049,4.984,0.082,9.969,0.115,14.986c-8.989,0.277-17.961,0.064-26.95,0.375c10.557,10.885,20.331,22.504,31.117,33.176
			c-2.778,4.299-5.77,8.416-8.695,12.617c-8.302-8.367-14.545-18.451-22.226-27.357c-0.898,8.041-3.203,17.42-10.95,21.523
			c-8.481,2.271-17.339,2.189-26.066,2.303c0.049,3.744,0.114,7.486,0.245,11.262c-4.331,0.49-8.645,1.111-12.959,1.764
			c-2.419-11.961-2.207-24.252-3.515-36.361c-0.833-2.469-2.68-4.594-2.892-7.225c-0.621-11.979,0.817-24.203-2.174-35.953
			c-2.795-13.973,1.275-28.6-2.958-42.295c-0.997-23.387,3.759-46.986,0.376-70.177c1.111-10.344,2.321-20.722,2.713-31.083
			c-3.432-7.47,0.491-15.2-0.016-22.849c-0.474-3.611-0.769-7.223-1.046-10.834c0.948-0.344,1.912-0.687,2.876-0.998
			c0.458-4.02,2.37-8.22,0.588-12.158c-2.37-5.312,0.082-10.999,1.127-16.311c-8.922,2.991-20.493,4.249-27.373-3.596
			c-9.038-10.164-10.542-25.723-6.047-38.258c4.755-12.012,13.614-21.72,22.03-31.297c8.205-9.315,18.386-16.587,27.063-25.397
			c3.188-5.981,3.383-12.927,3.809-19.529c2.141-10.1,6.472-19.676,8.237-29.842c-0.279-7.861,4.118-14.693,5.948-22.128
			c1.03-3.187,0.245-6.635,1.192-9.823c5.361-16.621,11.179-33.094,17.046-49.518c1.013-3.956,2.157-7.877,3.89-11.554
			C497.056,1153.907,498.216,1148.368,501.387,1144.184 M502.089,1246.457c-3.514,7.044-5.573,16.016-1.634,23.289
			c2.01,4.707,8.825,4.87,12.175,1.585c5.818-4.707,6.423-13.237,5.066-20.069C512.746,1248.958,507.434,1247.454,502.089,1246.457
			 M416.012,1368.113c-1.929,8.155,3.694,19.138,13.042,18.647c4.02-0.098,8.809,0.082,11.914-2.925
			c2.075-6.733-1.324-13.614,0.522-20.314c2.337-9.756,4.576-19.529,7.158-29.205c1.439-5.049,0.343-10.312,0.507-15.46
			C434.316,1332.044,419.167,1347.668,416.012,1368.113 M447.423,1507.402c6.209-0.033,12.42,0.033,18.63,0.18
			c0.393,12.143-0.996,24.303,0.115,36.428c2.059-1.225,4.2-2.908,4.625-5.393c1.781-8.693,1.095-17.635,1.536-26.443
			c3.448-1.111,6.831-2.451,10.214-3.725c0,5.277-0.49,10.557-0.212,15.852c1.406,3.922,3.808,9.594,8.76,9.314
			c3.432-1.078,5.589-4.428,7.093-7.484c2.173-12.895-5.034-24.824-10.247-36.084c-13.172-2.468-26.803-2.647-40.154-4.086
			C447.603,1493.102,447.636,1500.245,447.423,1507.402 M452.457,1631.053c0.278,8.857,0.604,17.73,1.683,26.572
			c7.583-1.42,15.313-1.291,22.962-2.025c6.782-6.406,6.455-18.125-0.784-24.09C468.44,1630.301,460.399,1631.477,452.457,1631.053z
			"/>
		<path id="path3997" fill="#221D1B" d="M2490.488,1367.116c11.521-2.958,24.17-2.729,34.939,2.746
			c21.182,11.702,26.051,44.632,9.006,61.841c-9.854,9.92-24.514,13.025-38.047,12.225c-14.396,1.128-28.451-8.237-33.746-21.508
			c-4.137-8.269-3.645-17.813-2.846-26.753C2462.492,1380.664,2475.844,1369.632,2490.488,1367.116 M2497.105,1383.246
			c-7.369,1.618-15.426,4.102-19.889,10.624c-4.281,5.229-3.693,12.502-2.646,18.729c2.795,9.151,12.582,14.513,21.752,14.545
			c9.479,0.327,19.758-1.797,27.145-8.057c9.35-8.024,8.434-24.188-1.127-31.64
			C2515.066,1382.184,2505.621,1382.069,2497.105,1383.246z"/>
		<path id="path3999" fill="#221D1B" d="M2480.52,1466.006c8.203-6.357,18.711-8.939,28.926-9.364
			c12.666-0.49,26.344,3.546,34.516,13.761c7.258,7.909,9.479,19.121,8.859,29.58c0.244,14.349-9.953,28.583-24.434,31.166
			c-0.67-5.49-1.504-10.949-1.748-16.473c6.127-3.221,12.174-8.859,11.619-16.409c1.684-11.13-7.404-21.344-18.043-23.175
			c-8.891-1.323-18.303-0.931-26.621,2.729c-7.568,3.726-12.65,11.849-11.424,20.429c-1.193,10.476,8.367,19.154,18.367,19.644
			c-0.08-6.291-0.293-12.568-0.424-18.843c4.463-0.049,8.955-0.147,13.451-0.295c0.703,11.472,2.238,22.88,1.863,34.417
			c-14.611-0.326-29.025,2.715-43.637,2.045c-0.18-3.629-0.326-7.225-0.506-10.82c3.268-0.816,6.521-1.764,9.838-2.564
			c-8.252-5.623-14.563-14.824-13.777-25.168C2466.088,1485.045,2471.088,1472.985,2480.52,1466.006z"/>
		<path id="path4001" fill="#221D1B" d="M2500.537,1572.316c17.063-7.91,33.063-18.109,50.42-25.381
			c-0.066,5.557,0.195,11.129-0.377,16.686c-0.506,4.184-4.967,5.018-8.09,6.604c-9.396,3.971-18.68,8.221-27.896,12.551
			c11.783,5.23,23.059,11.506,34.844,16.785c-0.018,6.438-0.066,12.861-0.23,19.299c-17.242-8.449-33.307-19.088-50.27-28.01
			c-10.199-1.717-21.295,1.094-30.986-2.68c-0.082-5.23,0.229-10.443,0.229-15.658
			C2478.949,1572.104,2489.818,1573.328,2500.537,1572.316z"/>
		<path id="path4003" fill="#221D1B" d="M2461.561,1658.836c15.527-0.311,30.824,2.762,46.25,4.068
			c11.701,2.125,23.648,2.418,35.367,4.494c-2.109,15.133-2.713,30.496-5.818,45.482c-2.289,10.23-12.404,18.385-23.092,16.441
			c-6.457-0.475-11.801-4.789-14.709-10.379c-4.299,4.479-9.463,9.529-16.164,9.037c-11.619,1.014-23.402-7.664-25.412-19.219
			C2456.396,1691.979,2461.48,1675.57,2461.561,1658.836 M2474.406,1676.664c-0.947,8.531-2.68,17.111-1.977,25.74
			c-0.018,3.27,2.662,5.639,5.195,7.322c4.758,0.752,11.898,2.043,13.826-3.824c3.236-8.613,2.844-18.107,4.463-27.096
			C2488.869,1677.023,2481.598,1676.959,2474.406,1676.664 M2509.217,1680.26c-0.082,8.059-2.305,15.951-1.994,24.041
			c-0.033,3.498,2.631,6.781,5.98,7.797c4.348,2.287,10.248-1.586,10.721-6.359c1.635-7.762,2.338-15.721,3.041-23.615
			C2521.115,1680.898,2515.166,1680.277,2509.217,1680.26z"/>
		<path id="path4005" fill="#221D1B" d="M2461.527,1746.367c10.689-4.102,22.799-2.957,33.619,0.18
			c12.664,3.611,24.775,12.91,28.01,26.197c5.705,19.791-5.637,44.42-26.359,49.682c-17.178,2.631-36.691-0.93-48.996-14.021
			C2430.656,1790.084,2438.73,1756.043,2461.527,1746.367 M2467.625,1762.121c-11.146,3.203-17.227,16.965-12.65,27.473
			c3.023,8.156,11.424,12.307,19.203,14.773c8.465,2.469,18.418,3.367,26.213-1.568c5.754-3.629,8.939-10.346,9.561-16.947
			c0.082-8.531-5.295-16.637-13.09-20.037C2487.809,1761.893,2477.314,1758.656,2467.625,1762.121z"/>
		<path id="path4007" fill="#221D1B" d="M1614.121,1760.029c11.111-0.637,22.176,1.209,32.424,5.574
			c-1.324,3.414-2.615,6.848-4.037,10.23c-9.25-2.664-18.598-5.688-28.338-5.559
			C1614.17,1766.844,1614.121,1763.412,1614.121,1760.029z"/>
		<path id="path4009" fill="#221D1B" d="M2365.416,1980.086c18.533,18.156,35.629,37.719,54.078,55.959
			c2.043,2.449,6.031,5.049,4.43,8.775c-2.061,5.197-5.018,9.969-7.338,15.051c-28.535-2.893-56.889-7.42-85.408-10.395
			c1.977-5.736,4.74-11.145,7.566-16.506c5.9,0.311,11.719,1.391,17.537,2.436c4.494-9.004,9.037-17.977,13.4-27.047
			c-4.102-3.891-8.434-7.615-11.848-12.094C2359.141,1990.398,2362.539,1985.266,2365.416,1980.086 M2379.781,2020.273
			c-3.006,5.719-5.59,11.635-8.645,17.338c10.867,1.275,21.572,3.988,32.555,4.512c-7.143-7.502-14.447-14.855-22.047-21.867
			C2381.188,2020.256,2380.256,2020.273,2379.781,2020.273z"/>
		<path id="path4011" fill="#221D1B" d="M1337.323,2336.98c17.29-3.711,35.07-1.945,52.541-3.922
			c46.365-1.178,92.746-1.047,139.127-0.688c3.334,0.018,6.734-0.031,10.051,0.67c8.467,1.93,17.242,0.77,25.822,1.879
			c10.557,1.455,21.277,0.213,31.885,1.391c10.395,1.389,20.936,0.947,31.33,2.582c1.994,4.592,4.053,9.168,6.16,13.744
			c-5.949,0.049-11.896-0.197-17.814-0.475c-0.113,11.424-2.01,22.717-1.961,34.158c-1.732,10.605-0.801,21.424-2.664,32.031
			c-0.441,4.592-0.359,9.234-0.588,13.891c-5.67-3.465-11.781-6.814-15.869-12.158c1.014-6.75,1.57-13.549,1.504-20.348
			c-8.139,0.082-16.195-0.932-24.236-1.814c-0.262,4.037-0.572,8.139-1.748,12.063c-2.941-0.131-6.096-0.182-7.746-2.975
			c-5.623-7.209-12.584-13.631-16.262-22.113c3.432-1.127,6.994-1.666,10.605-1.879c-0.701-11.162,1.832-22.145,1.553-33.258
			c-4.379-1.535-9.25-0.326-13.727-1.486c-5.557-1.602-11.326-1.26-17.014-1.16c-0.031,26.639-0.326,53.277-0.621,79.932
			c-5.721-2.695-10.803-6.471-16.131-9.789c-0.131-7.518,0.049-15.02,0.131-22.52c-8.041-0.016-16.064,0.049-24.09-0.098
			c-0.178,4.068-0.701,8.121-2.123,12.012c-2.238-0.377-4.855-0.213-6.439-2.109c-5.197-5.195-10.051-10.721-14.773-16.309
			c-1.668-1.717-2.043-4.104-2.615-6.26c3.121-0.736,6.26-1.488,9.43-2.158c-0.213-11.309,0.033-22.602-0.164-33.895
			c-12.502,0.539-25.119-1.178-37.521,0.883c0.098,12.992,0.75,26,0.211,38.994c0.164,5.246-4.838,8.318-8.041,11.732
			c7.682,8.744,16.557,16.361,24.318,25.055c-1.943,1.781-3.822,3.627-5.637,5.557c-12.945-12.191-25.201-25.119-37.785-37.67
			c-4.217-3.742-8.516-10.395-4.43-15.674c3.693-5.277,10.492-2.564,15.379-0.85c-0.295-8.939-0.326-17.879-0.408-26.803
			c-13.156,0.182-26.297,0.541-39.452,0.41c-0.115,10.539,0.294,21.115,1.438,31.605c0.816,10.328-0.033,20.756,1.455,31.053
			c0.588,6.063,0.539,12.191,0.555,18.32c-5.638-2.746-11.064-5.867-16.424-9.088c-0.098-4.035-0.163-8.09-0.196-12.076
			c-17.585,6.373-41.15-6.848-41.085-26.477c-1.095-9.102-1.177-18.27-1.521-27.406c-3.775-0.555-7.567-0.816-11.326-1.129
			c-2.843-4.23-5.442-8.596-7.91-13.023C1314.132,2338.99,1325.735,2337.928,1337.323,2336.98 M1487.201,2346.867
			c0.148,10.82-0.049,21.654,0.051,32.506c7.795,2.076,16.506,0.393,24.66,0.818c-0.146-11.098,0.164-22.193,0.18-33.273
			C1503.791,2346.836,1495.504,2346.785,1487.201,2346.867 M1338.025,2350.986c0.065,14.447,1.046,28.877,2.598,43.242
			c2.419,1.014,5.312,2.631,7.894,1.029c5.197-2.385,10.1-5.621,13.973-9.838c0.687-11.684-1.879-23.369-1.128-35.121
			C1353.566,2350.445,1345.804,2350.871,1338.025,2350.986 M1573.689,2384.832c8.203,0.016,16.391,0.475,24.596,0.475
			c-0.508-11.539,2.385-22.865,1.813-34.402c-8.203-0.113-16.406-0.277-24.611-0.703
			C1573.867,2361.674,1573.9,2373.262,1573.689,2384.832z"/>
		<path id="path4013" fill="#221D1B" d="M1138.528,2364.387c33.928-7.713,68.542-12.125,102.944-17.16
			c4.592,3.219,7.109,8.646,10.77,12.879c-5.671,1.275-11.423,2.125-17.241,2.254c0.393,13.893,3.693,27.457,5.197,41.25
			c1.536,13.059,3.726,26.035,5.312,39.092c-5.851-2.354-11.783-4.674-17.095-8.09c-1.831-6.748-2.419-13.873-2.909-20.836
			c-8.237,0.016-16.245,2.223-24.466,2.566c0.049,4.379,0.344,8.824-0.719,13.139c-2.925-0.311-6.03-0.523-8.204-2.713
			c-6.374-5.492-13.761-10.002-19.104-16.539c0.85-3.824,5.964-3.645,8.972-4.82c-1.275-11.391-3.155-22.734-5.508-33.945
			c-8.792,1.896-17.487,4.332-26.409,5.557c2.042,18.648,6.145,37.033,9.053,55.566c1.374,7.844,3.351,15.623,3.58,23.648
			c-5.704-2.207-11.292-4.674-16.915-7.045c-1.536-9.674-3.367-19.301-5.263-28.91c-6.651,0.883-13.221,2.305-19.823,3.498
			c0.424,4.543,0.67,9.152,0.246,13.744c-2.861-0.408-6.211,0.588-8.531-1.52c-5.933-4.396-11.636-9.07-17.438-13.615
			c-0.048-2.303-0.048-4.607,0-6.863c13.581-5.736,28.617-6.504,42.867-9.92c-0.964-8.27-2.925-16.375-3.906-24.629
			c-11.505,0.441-22.586,3.891-33.878,5.736c-8.957,1.863-18.19,2.076-26.983,4.707c5.132,26.328,11.865,52.361,16.032,78.871
			c-5.769-2.207-11.505-4.479-17.192-6.865c-5.197-22.568-9.643-45.301-14.446-67.936c-7.404,0.898-14.529,3.252-21.851,4.607
			c4.56,26.41,12.191,52.248,17.306,78.594c-6.063-1.732-11.929-4.004-17.813-6.195c-3.04-13.629-6.439-27.162-9.185-40.84
			c-9.136,0.965-17.863,3.922-26.737,6.129c9.119,4.232,19.677,9.658,22.341,20.264c1.667,10.166-6.929,18.158-14.921,22.799
			c6.521,7.158,13.793,13.598,20.281,20.789c-2.549,0.98-5.017,2.172-7.648,2.941c-7.272-5.541-13.482-12.42-20.739-18.01
			c-6.472-0.506-13.907-1.309-18.14-6.881c-2.19-2.402-1.471-5.916-0.948-8.744c1.209-3.447,2.32-8.775,7.06-8.203
			c5.524-0.752,7.829,8.074,13.548,5.361c2.975-2.061,6.161-4.871,5.54-8.875c0.441-5.639-4.314-9.561-8.546-12.322
			c-8.123-5.377-17.879-6.881-26.803-10.346c1.014-3.203,2.239-6.799,5.998-7.484c15.182-4.396,30.675-7.797,45.988-11.734
			c-0.686-4.479-1.797-8.875-2.811-13.271c-18.974,3.924-37.718,8.957-56.464,13.877c-4.331-3.76-8.237-7.977-11.521-12.65
			c25.855-5.785,51.316-13.287,77.335-18.354c20.101-6.16,40.922-9.838,61.661-13.123
			C1106.463,2370.811,1122.299,2366.561,1138.528,2364.387 M1192.835,2368.996c1.553,11.457,3.497,22.863,5.442,34.287
			c8.155-1.389,16.293-2.959,24.547-3.873c-0.866-11.588-2.255-23.191-5.083-34.451
			C1209.472,2366.527,1201.203,2368.096,1192.835,2368.996z"/>
	</g>
	<g id="_x23_211c1aff">
		<path id="path4016" fill="#211C1A" d="M1282.427,492.808c5.54-0.458,10.999-1.618,16.506-2.387
			c2.942,16.065,5.099,32.261,8.188,48.326c1.324,10.982,4.74,21.769,3.971,32.963c-5.458,0.506-10.884,1.079-16.343,1.242
			C1291.791,546.085,1285.45,519.676,1282.427,492.808z"/>
		<path id="path4018" fill="#211C1A" d="M1783.041,570.42c4.918-16.801,8.709-33.961,14.527-50.467
			c5.018,1.732,10.117,3.35,15.395,4.167c-0.408,6.636-2.893,12.862-4.559,19.236c-5.395,19.79-11.098,39.483-16.508,59.259
			c-5.506-0.36-10.801-1.832-15.982-3.547C1776.6,589.166,1780.752,579.997,1783.041,570.42z"/>
		<path id="path4020" fill="#211C1A" d="M1135.995,1868.498c14.202,0.096,28.404,0.08,42.606-0.018
			c0.359,4.348,0.915,8.711,1.291,13.107c-14.708,0.295-29.417,0.375-44.125,0.031
			C1135.832,1877.225,1135.896,1872.859,1135.995,1868.498z"/>
	</g>
	<g id="_x23_231e1cff">
		<path id="path4023" fill="#231E1C" d="M1647.559,526.442c-11.262-12.781-1.373-35.938,15.279-37.59
			c7.813-0.228,16.018-0.882,23.42,2.207c7.861,2.647,14.709,8.646,17.748,16.441c1.291,4.184,1.65,8.58,2.174,12.911
			c-5.541,0.115-10.982-0.883-16.359-2.06c-1.438-4.478-1.896-10.279-6.732-12.502c-5.754-3.007-13.189-5.23-19.252-1.862
			c-4.627,2.385-6.783,9.805-1.896,13.09c11.375,7.452,25.92,9.92,35.791,19.725c5.148,4.74,4.184,12.29,3.678,18.582
			c-1.373,9.038-8.924,15.918-17.422,18.418c-14.252,2.174-30.268,0.295-41.217-9.854c-6.211-5.899-7.992-14.692-6.848-22.944
			c5.344,0.474,10.605,1.699,15.918,2.467c-0.213,5.524,1.912,11.244,7.143,13.809c6.438,2.844,14.299,5.115,21.064,1.994
			c5.051-2.157,7.389-10.296,2.338-13.646C1671.549,537.898,1657.266,535.887,1647.559,526.442z"/>
		<path id="path4025" fill="#231E1C" d="M931.334,616.228c23.158-12.208,46.544-24.023,69.784-36.051
			c2.108,3.922,4.233,7.844,6.374,11.767c-4.184,2.647-8.515,5.033-12.927,7.272c2.681,5.818,5.72,11.489,8.237,17.404
			c-9.086,5.623-19.121,9.528-28.175,15.183c-2.68,1.422-3.203,4.641-4.527,7.109c3.367,2.99,8.122,5.41,12.584,3.269
			c6.913-6.047,12.045-15.297,21.67-17.307c6.896-1.422,12.568,3.792,16.032,9.12c3.219,5.115,5.671,11.571,3.448,17.552
			c-1.896,6.962-7.795,11.587-13.025,16.065c7.566-0.213,15.117-0.441,22.684-0.278c-1.536,4.494-2.779,9.2-5.198,13.335
			c-9.854,0.556-19.333-2.844-29.058-3.775c-6.292-0.769-11.488,4.314-17.797,3.873c-4.87,0.54-10.328-1.324-12.077-6.308
			c-0.54-4.233,2.255-8.155,5.524-10.542c7.729-1.307,15.575,0.899,23.305-0.032c7.468-5.393,14.61-15.265,9.87-24.613
			c-11.031-2.369-13.629,12.601-23.681,13.189c-9.789,0.882-20.82,0.473-28.829-5.933c-5.098-5.752-2.957-15.215,1.553-20.723
			c7.861-5.85,17.226-9.332,25.79-14.055c-0.72-1.862-1.242-3.856-2.746-5.23c-12.551,6.586-25.185,13.01-37.736,19.579
			c-5.703,3.759-10.9,8.27-16.719,11.897c11.212,19.873,24.351,38.635,36.135,58.181c-4.135,3.155-8.613,5.786-13.287,8.041
			c-2.452-4.085-5.001-8.123-7.713-12.044c-8.041,8.58-18.402,18.14-31.15,16.179c-15.313-1.536-24.955-19.317-19.873-33.323
			c4.397-8.874,12.796-14.807,21.165-19.611c3.251,3.007,6.585,5.948,9.789,9.037c-5.442,2.173-10.541,5.164-14.676,9.364
			c7.795,0.752,15.656,0.441,23.485,0.294c-5.622-8.923-11.13-17.911-16.768-26.818c-13.189,8.449-26.459,16.801-39.664,25.2
			c-4.314,3.923-8.106,8.4-12.895,11.816c-2.566,1.602-0.065,4.249,0.899,6.014c11.375,15.836,22.635,31.754,33.896,47.656
			c1.961,2.059,0.587,4.837,0.358,7.272c7.583-0.67,15.281,2.418,19.628,8.809c5.18,5.818,5.508,15.427,0.522,21.458
			c-13.564,18.63-37.621,26.361-59.913,25.625c-0.915-4.952-0.899-10.002-1.128-15.003c7.959,0.653,16.049,1.405,23.991,0.098
			c8.09-2.566,14.954-7.992,20.51-14.267c2.338-2.076,1.586-5.427,1.978-8.188c-2.974-1.34-5.785-4.526-9.299-3.186
			c-4.461,2.271-7.256,6.569-10.802,9.92c-4.249,0.538-8.22-1.603-12.225-2.583c2.86-7.894,8.939-13.826,14.675-19.661
			c-6.373-8.646-12.061-17.797-18.941-26.051c-6.537,5.328-13.385,10.247-19.84,15.673c3.709,4.74,9.283,9.054,9.103,15.656
			c-9.625,4.004-19.464-1.193-29.106-2.386c-3.874-0.719-10.836-2.321-8.94-7.698c2.271-2.942,5.36-5.066,8.205-7.419
			c-3.824-4.968-7.485-10.067-11.277-15.035c-5.867,4.445-11.832,8.743-17.585,13.352c-3.056-3.465-5.654-7.272-8.237-11.097
			c14.317-11.767,30.415-21.491,43.374-34.811c8.646-6.699,18.141-12.305,26.606-19.268c8.841-11.293,23.223-15.804,34.124-24.759
			C903.437,633.764,919.191,627.457,931.334,616.228 M902.799,685.196c3.252,3.987,5.981,9.903,11.849,10.164
			c7.599,0.704,13.434-5.229,18.304-10.246C922.9,684.656,912.834,684.934,902.799,685.196 M824.746,711.753
			c3.955,4.755,7.714,9.674,11.408,14.643c7.174-4.887,14.055-10.182,20.886-15.525c-3.71-4.609-6.668-9.741-10.41-14.301
			c-0.491,0-1.487,0-1.979,0C837.902,701.457,831.348,706.654,824.746,711.753z"/>
		<path id="path4027" fill="#231E1C" d="M1973.516,607.404c1.633-4.561,4.494-8.547,7.256-12.486
			c18.615,11.489,37.523,22.521,56.398,33.601c-2.043,4.576-4.625,8.858-7.516,12.928c-6.768-4.511-13.811-8.563-20.938-12.453
			c-11.014,19.3-22.715,38.21-33.715,57.526c-4.902-2.712-9.789-5.475-14.609-8.302c5.131-10.934,12.027-20.902,17.895-31.444
			c5.377-8.809,10.197-17.961,15.967-26.523C1987.473,615.738,1979.84,612.568,1973.516,607.404z"/>
		<path id="path4029" fill="#231E1C" d="M724.287,783.449c9.381-7.976,17.831-16.948,26.917-25.233
			c3.187,3.203,6.308,6.472,9.479,9.708c-3.596,3.808-7.354,7.436-11.015,11.178c16.212,16,31.052,33.29,47.149,49.404
			c-3.693,3.775-7.534,7.437-11.44,10.999c-8.302-9.576-17.11-18.679-26.083-27.635c-5.327,6.128-11.162,11.783-16.375,17.994
			c2.795,4.837,11.44,8.204,8.351,14.823c-8.024,4.2-17.536,4.658-26.345,3.235c-4.592-0.588-6.716-5.066-9.397-8.236
			c2.844-4.51,6.227-8.662,10.117-12.307c8.465-8.252,16.424-17.012,24.759-25.396c-3.579-3.841-7.19-7.665-10.835-11.44
			c-11.047,10.787-21.458,22.178-32.097,33.356c-6.619,6.096-10.574,14.333-16.817,20.771
			c16.196,15.363,33.503,29.547,49.781,44.845c0.294,5.246-6.244,8.187-8.972,12.24c-17.307-14.888-34.287-30.152-51.12-45.58
			c-5.982,5.948-10.477,13.172-15.82,19.676c17.667,14.676,36.167,28.355,53.49,43.423c-3.203,3.759-6.243,7.665-9.495,11.407
			c-6.472-4.348-12.159-9.724-18.467-14.284c0.833,12.764-4.919,24.792-12.045,35.007c-8.155,10.263-22.095,13.466-34.63,13.025
			c-3.104,4.577-7.142,8.515-12.584,10.116c0.622,5.001,0.278,10.035-0.408,15.003c11.26-0.441,22.259-3.17,33.487-3.856
			c-0.948,5.884-2.158,11.734-2.615,17.683c-20.968-0.326-41.805,1.88-62.724,2.565c-0.278-5.001-1.095-9.937-2.076-14.839
			c6.358-1.16,12.765-2.108,19.253-2.288c0.669-0.964,1.993-2.876,2.663-3.824c-5.197-6.145-12.437-9.887-19.104-14.12
			c-6.096,9.495-12.96,18.517-18.582,28.29c-0.769,6.325-4.217,11.75-6.341,17.65c19.529,11.357,39.255,22.356,58.867,33.567
			c-2.272,4.478-4.723,8.875-7.453,13.124c-10.672-4.789-20.216-11.702-30.757-16.735c-3.709,6.341-5.622,15.183-13.81,17.16
			c0.719,5.23,0.883,10.542,0.572,15.82c11.015-2.124,21.916-4.837,32.8-7.583c-0.049,5.589-0.196,11.179-0.703,16.751
			c-20.494,3.906-41.07,7.437-61.727,10.296c-1.52-4.854-2.86-9.756-3.579-14.773c7.142-1.454,14.299-2.958,21.115-5.589
			c-3.677-8.449-13.679-10.214-20.837-14.675c-5.949,11.864-12.388,23.468-18.255,35.382c-4.511-1.063-8.678-3.139-12.829-5.148
			c8.416-17.797,18.271-34.893,27.243-52.412c4.331-14.022,13.303-25.837,20.118-38.7c2.19-3.398,0.948-7.844,3.268-11.129
			c11.963-18.108,24.057-36.134,36.151-54.16c3.546-5.033,2.516-11.75,5.736-16.947c3.971-6.619,10.002-12.388,17.552-14.627
			c14.578-4.184,31.477,6.292,33.748,21.426c0.393,7.354-3.873,13.761-8.22,19.301c5.474,1.912,11.783-0.523,14.774-5.557
			c6.488-10.083,11.668-21.964,10.018-34.221c-6.684-6.799-14.578-12.421-22.145-18.222c-0.491,0.114-1.471,0.326-1.945,0.441
			c-3.546,4.51-6.635,9.397-10.166,13.923c-3.53-2.173-7.501-4.004-10.197-7.207c0.147-3.203,1.7-6.145,3.513-8.695
			c8.319-10.671,17.242-20.918,24.956-32.064c8.874-10.802,19.448-20.298,26.688-32.326c9.005-8.989,17.274-18.663,26.28-27.652
			C718.795,791.979,720.25,786.717,724.287,783.449 M623.697,921.676c-4.625,2.418-5.851,9.495-2.402,13.319
			c4.331,3.122,9.135-0.343,13.499-1.584c1.667,1.355,3.366,2.729,5.083,4.085c-4.2,9.741-15.836,15.33-25.756,10.525
			c-1.879,3.023-3.873,5.998-5.394,9.234c4.887,5.409,11.735,8.481,17.585,12.714c3.906-7.044,6.913-14.594,11.179-21.426
			c1.929-0.916,3.971-1.536,5.981-2.239c2.026-5.197,5.295-10.949,2.615-16.539C643.438,920.548,631.558,917.574,623.697,921.676
			 M566.104,1031.892c-3.661,6.031-6.782,12.388-9.659,18.827c6.423,3.285,12.829,6.635,19.333,9.805
			c2.714-6.733,5.034-13.597,7.943-20.232c-5.213-3.024-10.198-6.504-15.623-9.12
			C567.608,1031.353,566.611,1031.712,566.104,1031.892z"/>
		<path id="path4031" fill="#231E1C" d="M2267.834,837.87c3.203-3.546,6.781-6.717,10.41-9.823
			c14.889,16.556,29.154,33.683,43.26,50.892c-3.695,3.008-7.371,6.031-11.049,9.039c-5.408-5.965-10.492-12.208-15.607-18.418
			c-17.404,14.038-33.977,29.106-51.348,43.21c-3.646-4.38-7.404-8.645-11.277-12.797c17.061-14.692,34.336-29.139,51.365-43.863
			C2278.08,850.242,2273.014,843.982,2267.834,837.87z"/>
		<path id="path4033" fill="#231E1C" d="M2388.002,1145.229c24.873-9.92,49.828-19.693,74.801-29.4
			c2.387,5.475,4.494,11.064,6.832,16.555c-13.189,16.98-27.162,33.356-40.188,50.45c17.797-5.654,34.516-14.545,52.525-19.48
			c1.635,4.903,3.58,9.741,4.643,14.824c-25.283,9.363-49.992,20.33-75.473,29.073c-1.781-5.262-4.951-10.181-5.539-15.738
			c12.666-17.585,27.342-33.699,40.268-51.121c-17.91,5.753-35.283,13.238-52.672,20.445
			C2391.58,1155.656,2387.43,1150.671,2388.002,1145.229z"/>
		<path id="path4035" fill="#231E1C" d="M453.764,1735.172c4.396-0.686,8.841-1.145,13.27-1.471
			c0.54,4.756,1.586,9.463,2.534,14.186c22.635-3.742,45.155-8.252,67.79-12.076c0.784,5.016,1.864,10,2.468,15.066
			c-5.851,1.193-11.717,2.207-17.536,3.432c8.319,9.938,12.6,23.438,10.361,36.332c-3.514,12.371-14.463,20.363-25.414,25.918
			c-2.091-6.65-1.633-16.129-9.298-19.137c-7.632-4.217-18.827,3.465-15.133,12.176c1.536,11.129,6.537,21.146,9.576,31.852
			c22.112-6.029,44.093-12.518,66.058-19.072c1.504,4.871,2.992,9.773,4.347,14.709c-21.997,6.93-44.289,12.943-66.367,19.66
			c2.483,7.045,6.39,13.467,8.628,20.609c21.737-6.357,43.521-12.535,65.224-19.041c2.207,4.707,3.694,9.742,4.315,14.938
			c-12.502,3.742-25.103,7.094-37.523,11.098c1.7,8.074,4.674,15.787,7.256,23.6c1.242,3.824,3.318,7.91,7.306,9.479
			c5.606,0.213,10.835-3.611,13.99-8.008c3.971-6.994,6.455-14.709,10.181-21.834c2.763,1.895,5.589,3.709,8.417,5.557
			c-2.713,11.686-8.236,22.684-15.721,32.064c-3.727,4.689-8.972,9.168-15.33,8.906c-7.91,1.045-15.656-4.15-18.468-11.439
			c-4.347-10.998-6.961-22.619-11.439-33.553c-4.103,0.051-8.024,1.324-11.882,2.533c5.9,17.078,11.75,34.189,17.716,51.252
			c1.929,6.406,6.488,11.473,9.283,17.486c10.329-2.549,19.709-9.904,30.676-8.727c7.485,1.16,10.1,9.086,11.603,15.477
			c5.165-10.672,10.476-21.295,16.31-31.607c0.474-0.213,1.422-0.637,1.896-0.85c3.562,3.023,7.027,6.275,9.821,10.051
			c-0.424,4.135-3.121,7.518-5.033,11.08c-9.986,17.209-19.906,34.434-29.663,51.758c-4.2-3.873-8.367-7.779-12.225-11.979
			c3.023-5.688,7.926-11.441,6.831-18.289c-1.193-2.795-2.941-5.277-4.608-7.762c-6.995,0.098-13.418,3.17-19.824,5.639
			c4.56,11.08,9.463,22.014,14.071,33.094c2.746,7.371,8.727,12.926,11.244,20.445c21.083-8.646,41.837-18.043,62.805-26.918
			c2.288,4.494,4.543,9.055,6.488,13.744c-20.674,9.904-42.165,18.061-63.001,27.621c3.138,8.465,9.021,15.443,12.878,23.549
			c20.689-9.92,40.596-21.459,61.482-30.92c2.385,4.379,4.51,8.924,6.193,13.662c-9.298,4.887-18.695,9.625-28.011,14.496
			c2.941,5.998,6.292,11.783,9.528,17.65c5.115-2.354,9.952-5.736,15.722-6.242c3.089,7.859,2.647,16.701,1.177,24.873
			c-1.586,4.902-3.661,12.404-10.101,12.094c-6.096,0.932-7.615-6.26-11.489-9.299c-6.014,2.615-11.57,6.16-17.307,9.332
			c0.13,2.123,0.359,4.248,0.67,6.406c3.48-0.605,6.831-1.75,10.263-2.518c3.252,3.416,4.789,8.074,6.766,12.307
			c-5.556,4.787-15.149,7.811-20.624,1.324c-6.162-6.914-12.323-16.295-9.348-25.953c5.311-7.779,15.199-10.246,22.684-15.412
			c-3.612-5.932-6.896-12.043-10.28-18.074c-6.831,3.072-13.418,6.717-19.97,10.346c1.896,4.412,4.037,8.711,6.145,13.041
			c-3.938,2.174-7.943,4.215-12.143,5.834c-6.292-11.113-11.636-22.732-17.764-33.928c-7.812-11.93-12.176-25.658-18.615-38.307
			c-2.174-3.793-5.197-7.029-6.913-11.049c-7.24-16.293-14.071-32.75-21.083-49.127c-2.598-6.389-6.766-12.027-8.857-18.631
			c-3.939-11.08-7.453-22.307-11.587-33.307c-1.144-3.447-4.085-5.719-6.111-8.596c-5.148-12.715-6.292-26.934-13.189-38.961
			c-1.929-4.299-3.024-8.891-4.413-13.336c-9.005,6.16-16.85,14.791-20.021,25.414c-0.849,5.115-1.095,10.885,1.88,15.428
			c2.501,3.512,6.685,7.207,11.293,5.311c5.785-2.5,9.299-8.041,12.78-12.992c1.16,5.197,3.057,10.346,3.057,15.721
			c-3.007,10.51-15.396,17.602-25.887,13.418c-11.244-4.771-17.291-17.764-17.111-29.498c-0.67-10.035,4.723-19.105,10.165-27.064
			c5.557-7.795,12.454-14.578,19.89-20.543c-6.129-13.107-7.86-27.488-11.31-41.396
			C462.246,1777.141,455.104,1756.68,453.764,1735.172 M472.068,1763.887c2.614,7.158,4.363,14.594,5.671,22.111
			c4.413-3.449,8.857-8.27,14.986-7.582c9.446-0.621,16.898,6.193,23.174,12.355c5.818-7.438,5.85-18.795-0.359-26.02
			c-3.481-4.053-8.417-9.102-14.252-6.879C491.63,1760.26,481.629,1761.01,472.068,1763.887z"/>
		<path id="path4037" fill="#231E1C" d="M1341.391,1849.018c9.969-0.705,19.971-0.572,29.957,0.096
			c-0.834,4.299-1.75,8.613-2.19,12.994c-8.465-0.523-16.931-0.785-25.364-0.082
			C1343.173,1857.629,1342.175,1853.33,1341.391,1849.018z"/>
		<path id="path4039" fill="#231E1C" d="M2396.68,1914.959c11.588,3.334,22.078,9.529,33.109,14.316
			c13.859,6.473,27.996,12.371,41.627,19.367c-6.016,12.633-11.311,25.609-17.617,38.111c-3.939,7.813-11.816,14.84-21.1,13.842
			c-9.314-0.686-17.273-7.551-19.055-16.768c-10.199,8.4-26.395,3.678-32.736-7.207c-4.625-7.125-3.971-16.457-0.865-24.023
			C2385.24,1939.898,2391.646,1927.725,2396.68,1914.959 M2403.396,1935.258c-3.432,7.99-7.697,15.656-10.295,23.975
			c-2.551,9.299,11.896,17.34,17.846,9.201c5.361-7.256,8.336-16,11.701-24.303
			C2416.193,1941.223,2409.738,1938.363,2403.396,1935.258 M2435.281,1950.588c-3.121,7.762-7.305,15.1-9.609,23.172
			c-1.553,7.258,9.398,14.219,14.219,7.225c4.951-7.225,8.678-15.477,10.867-23.975
			C2445.709,1954.592,2440.576,1952.352,2435.281,1950.588z"/>
		<path id="path4041" fill="#231E1C" d="M1587.857,2433.859c9.086-3.643,19.465-1.355,27.08,4.496
			c10.525,7.992,19.072,18.32,26.754,29.008c2.402,2.256,0.18,6.014-2.828,5.98c-8.154-8.809-16.131-18.613-27.586-23.205
			c-4.92-2.289-10.428-1.537-15.641-1.717C1591.6,2444.549,1590.373,2438.682,1587.857,2433.859z"/>
	</g>
	<g id="_x23_221d1aff">
		<path id="path4045" fill="#221D1A" d="M1718.861,514.625c0.475-4.984,1.799-9.838,3.596-14.512
			c21.359,5.327,42.834,10.263,64.195,15.688c-1.129,4.805-2.436,9.577-3.824,14.316c-7.895-2.092-15.756-4.445-23.846-5.54
			c-4.738,21.687-10.377,43.161-15.508,64.75c-5.59-1.127-11.098-2.517-16.572-3.987c4.951-21.671,10.215-43.276,15.592-64.866
			C1734.664,518.319,1726.869,515.965,1718.861,514.625z"/>
		<path id="path4047" fill="#221D1A" d="M2491.746,1295.338c9.807-2.026,19.35-5.817,29.467-5.867
			c0.734,5.246,2.174,10.361,2.795,15.64c-21.084,5.361-42.23,10.476-63.428,15.428c1.275,13.515,6.521,26.344,7.861,39.86
			c-4.494,1.192-9.037,2.207-13.5,3.35c-5.229-18.451-8.891-37.311-13.662-55.876
			C2457.818,1302.692,2474.994,1299.784,2491.746,1295.338z"/>
	</g>
	<g id="_x23_221e1bff">
		<path id="path4051" fill="#221E1B" d="M1161.604,525.297c4.936-1.83,9.937-3.498,14.904-5.278
			c9.316,25.691,17.192,51.888,26.148,77.693c-5.654,1.455-10.981,4.413-16.865,4.658c-16.67-14.153-32.408-29.385-49.126-43.472
			c5.573,18.369,12.649,36.265,17.781,54.765c-5.018,1.732-10.067,3.367-15.117,4.969c-7.992-26.182-17.928-51.774-25.233-78.152
			c5.949-1.11,11.521-4.396,17.65-4.199c15.852,13.989,31.459,28.289,47.247,42.361
			C1173.632,560.728,1167.324,543.111,1161.604,525.297z"/>
		<path id="path4053" fill="#221E1B" d="M2352.473,1071.098c24.072-12.192,48.275-24.105,72.463-36.068
			c2.846,5.033,5.346,10.247,7.648,15.558c-9.25,4.249-18.27,8.957-27.34,13.548c4.656,9.414,9.152,18.925,14.088,28.208
			c8.971-4.658,18.123-8.988,27.096-13.695c3.057,5.018,5.801,10.296,7.484,15.967c-24.383,11.473-48.229,24.041-72.463,35.791
			c-2.779-4.984-5.264-10.117-7.486-15.346c10.607-5.77,21.654-10.688,32.311-16.36c-4.609-9.414-9.104-18.892-13.941-28.191
			c-11.08,5.229-21.686,11.554-33.191,15.722C2356.82,1081.231,2354.385,1076.262,2352.473,1071.098z"/>
		<path id="path4055" fill="#221E1B" d="M2467.674,1202.837c8.367-0.637,17.307,0.376,24.236,5.558
			c13.549,9.56,19.66,27.701,16.18,43.7c-2.012,8.09-6.848,15.526-13.826,20.167c-12.094,8.302-27.326,13.221-41.984,10.394
			c-24.434-6.096-37.002-38.52-23.355-59.586C2437.652,1210.6,2452.883,1204.129,2467.674,1202.837 M2459.664,1221.78
			c-7.256,2.68-14.578,6.684-18.695,13.482c-7.648,11.767,1.684,30.675,16.113,30.43c10.949,1.029,22.129-2.843,30.416-10.002
			c9.674-8.204,8.465-25.494-2.061-32.44C2478.018,1217.857,2467.854,1218.838,2459.664,1221.78z"/>
		<path id="path4057" fill="#221E1B" d="M1656.596,1779.543c0.18-3.891,0.932-7.73,2.174-11.408
			c7.287,1.145,14.527,2.648,21.768,4.119c-0.555,3.352-1.16,6.717-1.83,10.084
			C1671.207,1782.453,1663.998,1780.328,1656.596,1779.543z"/>
		<path id="path4059" fill="#221E1B" d="M1261.295,1832.92c9.609-0.197,18.925-2.73,28.371-4.25c1.456,3.775,2.632,7.648,3.71,11.57
			c-9.92,2.125-20.053,3.121-29.924,5.49C1262.358,1841.516,1261.589,1837.232,1261.295,1832.92z"/>
		<path id="path4061" fill="#221E1B" d="M1684.836,1856.402c11.719,1.619,23.369,3.711,35.105,5.346
			c-0.213,4.494-0.672,9.021-2.061,13.352c-12.109-1.748-24.072-4.363-36.23-5.523
			C1682.76,1865.18,1683.365,1860.686,1684.836,1856.402z"/>
		<path id="path4063" fill="#221E1B" d="M1756.352,2306.338c7.027-4.299,15.607-1.438,20.82,4.314
			c12.553,13.287,19.629,30.578,26.051,47.426c0.852,2.223,2.059,5.279,4.969,5.264c15.951,1.127,31.541,4.951,47.346,7.271
			c10.965,2.469,22.34,3.252,32.979,7.109c17.373,3.203,34.484,7.697,51.857,11.047c10.736,2.73,22.078,3.613,32.162,8.582
			c7.779,3.447,17.078,2.924,24.236,7.631c1.814,4.691,2.859,9.627,4.004,14.545c-5.965-1.209-11.783-2.926-17.748-4.053
			c-6.113,26.051-12.83,51.986-19.17,78.02c-4.479-4.313-9.086-8.578-12.666-13.645c0.523-8.27,3.709-16.115,5.328-24.205
			c-8.809-0.031-17.111-3.365-25.807-4.217c-0.996,3.516-2.174,7.012-3.529,10.428c-1.75-0.082-3.465-0.162-5.148-0.195
			c-5.033-9.119-11.914-17.535-14.398-27.801c3.4-0.67,7.682,0.9,10.379-1.861c2.074-10.641,5.295-21.1,6.227-31.934
			c-8.988-1.424-17.699-4.088-26.639-5.623c-5.066,26.443-10.59,52.803-15.477,79.279c-4.527-4.184-8.908-8.498-13.254-12.846
			c0.309-5.459,1.143-10.836,2.646-16.064c-10.182,3.008-22.553,4.461-31.328-2.762c-11.604-9.889-16.277-25.887-16.719-40.662
			c7.566-0.18,15.361-0.244,22.635-2.646c5.082-4.119,0.93-11.473-2.828-15.035c-11.031-3.025-22.52-3.775-33.781-5.688
			c-4.15,26.377-8.514,52.754-12.551,79.164c-5.197-3.678-10.066-7.762-14.414-12.387c0.588-4.986,1.619-9.889,2.516-14.791
			c-9.232,2.369-19.953,4.689-28.6-0.621c-7.42-4.299-11.945-11.881-15.525-19.398c-0.816,4.51-1.764,9.004-2.402,13.58
			c-9.068,3.742-19.234,7.271-28.992,4.021c-13.188-3.287-25.004-16.377-22.717-30.496c1.471-6.701,7.256-10.934,13.238-13.418
			c-4.887-3.857-9.838-8.236-11.637-14.432c-2.354-13.891,14.627-26.098,27.162-20.133c8.613,3.055,16.867,13.467,11.734,22.635
			c-3.693,5.408-10.738,6.863-16.883,6.945c0.279,1.373,0.572,2.777,0.867,4.217c4.004,0.195,8.023,0.195,12.012,0.801
			c4.902,3.578,4.053,10.916,6.113,16.178c-7.861-1.16-15.805-2.859-23.746-1.535c-3.695,1.438-8.516,4.641-7.371,9.25
			c2.777,4.691,8.498,6.129,13.598,6.455c9.412,0.164,18.172-4.035,26.098-8.742c-0.326-5.688-1.438-11.277-2.744-16.801
			c8.236-1.342,16.555-2.289,24.727-4.168c1.029-5.885-0.375-12.797-6.375-15.379c-6.291-1.309-12.648-2.123-19.039-2.5
			c-2.123-5.246-4.248-10.508-6.08-15.836c6.326,0.049,12.65,0.834,18.844,2.174c16.916,4.15,34.713,3.84,51.414,8.857
			c-5.768-12.258-11.602-25.119-21.801-34.385c-4.396-4.037-10.426-4.756-16.129-4.43
			C1759.703,2317.238,1758.035,2311.764,1756.352,2306.338 M1706.326,2358.568c-5.947,3.154-3.611,13.107,2.959,13.516
			c4.756,1.26,10.736-2.287,9.902-7.631C1719.646,2358.291,1710.836,2354.549,1706.326,2358.568 M1763.15,2369.797
			c6.064,6.455,11.293,14.855,10.117,24.105c0.016,3.611-3.66,5.77-6.686,6.832c-5.213,0.932-10.949-0.229-15.607,2.844
			c-4.625,3.84-0.424,10.377,4.314,11.75c11.162,2.582,22.766-0.359,32.621-5.818c2.043-11.357,3.986-22.732,5.328-34.174
			C1783.139,2373.834,1773.283,2371.088,1763.15,2369.797 M1853.299,2385.879c5.67,7.467,8.824,17.061,6.209,26.359
			c-5.246,4.854-12.748,3.09-19.17,4.037c-2.223,1.209-3.742,3.318-5.441,5.148c1.666,3.873,4.248,7.6,8.547,8.857
			c8.383,1.488,17.193,0.654,25.086-2.664c2.975-1.307,7.256-2.582,7.5-6.455c1.668-9.904,3.678-19.742,5.641-29.58
			C1872.271,2389.344,1863.137,2385.551,1853.299,2385.879 M1940.453,2403.889c-2.076,11.096-5.393,21.996-6.16,33.307
			c7.893,2.451,16.049,3.986,24.236,5.311c-0.213,3.219-0.572,6.488-0.686,9.789c2.811-13.678,6.422-27.195,9.902-40.727
			C1958.48,2409.51,1950.096,2404.377,1940.453,2403.889z"/>
	</g>
	<g id="_x23_231f1eff">
		<path id="path4066" fill="#231F1E" d="M953.021,568.458c1.438-10.492,12.42-16.49,22.275-15.967
			c1.438,2.631,2.828,5.295,4.232,7.976c-4.984,1.536-9.74,3.726-13.875,6.913c0.033,3.497-0.751,7.452,1.52,10.475
			c3.399,5.557,10.329,6.505,16.032,8.287c-4.134,1.993-8.269,5.654-13.188,4.281C960.505,587.645,952.809,578.575,953.021,568.458z
			"/>
		<path id="path4068" fill="#231F1E" d="M1532.096,1800.15c16.016-8.154,34.025-12.533,52.02-12.305
			c-0.033,3.873-0.016,7.779-0.082,11.686c-15.215-0.9-30.021,3.432-43.619,9.854
			C1536.393,1808.748,1534.727,1803.158,1532.096,1800.15z"/>
		<path id="path4070" fill="#231F1E" d="M1402.008,1825.189c10.002,1.65,19.414,5.867,28.109,11.031
			c-2.811,3.203-5.59,6.438-8.482,9.576c-7.73-4.281-16.064-7.223-24.285-10.361
			C1398.918,1832.02,1400.406,1828.572,1402.008,1825.189z"/>
	</g>
	<g id="_x23_231e1bff">
		<path id="path4073" fill="#231E1B" d="M1904.059,560.173c5.213,1.994,10.295,4.347,15.477,6.487
			c-6.193,18.713-16.85,35.628-23.174,54.308c-3.66,14.479,20.82,24.531,27.701,10.868c8.596-17.045,15.656-34.843,24.252-51.905
			c5.133,2.387,10.264,4.805,15.346,7.371c-6.209,15.525-13.777,30.463-20.494,45.776c-3.365,7.779-8.301,15.754-16.506,19.088
			c-9.904,4.56-21.115,0.833-30.299-3.71c-9.92-4.87-18.469-14.676-18.354-26.165c1.535-12.077,8.367-22.487,12.959-33.519
			C1895.363,579.261,1899.547,569.635,1904.059,560.173z"/>
		<path id="path4075" fill="#231E1B" d="M2048.561,636.314c16.949,10.688,34.158,21.083,50.434,32.768
			c-2.695,3.774-5.262,7.632-7.811,11.506c-12.486-7.061-23.828-15.968-36.592-22.505c-3.023,4.479-5.834,9.087-8.775,13.613
			c10.934,7.437,22.275,14.252,33.338,21.524c-2.467,3.905-4.705,7.958-7.598,11.554c-2.469,0.458-4.168-1.863-6.146-2.827
			c-7.957-5.213-15.934-10.395-23.941-15.509c-1.373-0.687-3.203-2.5-4.445-0.638c-4.004,5.067-6.928,10.853-10.459,16.229
			c12.828,7.697,25.232,16.114,38.029,23.876c-2.549,4.103-5.082,8.205-7.582,12.323c-10.754-5.867-20.576-13.237-31.068-19.53
			c-7.207-4.575-14.627-8.841-21.344-14.12C2019.52,681.992,2033.559,658.834,2048.561,636.314z"/>
		<path id="path4077" fill="#231E1B" d="M2158.844,823.815c18.939-19.611,37.506-39.599,56.43-59.243
			c13.893,13.304,27.98,26.394,41.871,39.698c-2.957,3.709-6.078,7.272-9.217,10.818c-10.885-8.04-19.334-18.777-29.711-27.356
			c-5.59,2.418-8.711,8.318-12.781,12.6c8.318,8.482,17.078,16.506,25.709,24.661c-3.352,3.645-6.848,7.142-10.51,10.477
			c-8.121-8.531-16.914-16.376-25.445-24.466c-8.434,7.697-15.607,16.637-23.779,24.596
			C2167.242,831.644,2162.977,827.803,2158.844,823.815z"/>
		<path id="path4079" fill="#231E1B" d="M2309.949,2078.307c1.699-5.313,5.441-9.627,8.219-14.383
			c7.289,4.609,14.529,9.268,21.785,13.941c7.469,5.393,17.227,1.863,25.691,3.988c12.127,0.49,24.188,1.52,36.281,2.418
			c-3.35,5.475-6.848,10.885-10.033,16.473c-13.043-0.08-25.822-3.104-38.799-3.709c6.57,10.818,13.596,21.377,20.396,32.064
			c-3.432,5.459-6.801,10.982-10.721,16.113c-8.107-14.822-16.605-29.434-24.678-44.271
			C2332.617,2089.369,2318.234,2087.131,2309.949,2078.307z"/>
	</g>
	<g id="_x23_232021ff">
		<path id="path4082" fill="#232021" d="M818.078,664.325c3.497-3.383,7.256-6.585,11.538-8.939
			c3.856,1.389,4.854,6.226,7.289,9.201c-4.151,2.762-8.287,5.507-12.388,8.318C822.376,670.029,820.251,667.153,818.078,664.325z"
			/>
	</g>
	<g id="_x23_231d1bff">
		<path id="path4086" fill="#231D1B" d="M2136.045,716.263c21.246-7.91,46.021,7.926,50.875,29.385
			c3.023,9.479-0.408,19.562-4.953,27.946c-7.32,11.767-18.09,22.585-32.031,25.69c-21.49,3.727-43.242-13.532-46.43-34.712
			c-1.355-11.309,3.711-22.34,10.623-31.002C2120.111,726.396,2127.105,719.564,2136.045,716.263 M2144.15,731.332
			c-11.129,4.69-20.281,14.888-23.518,26.573c-3.268,10.557,4.463,21.85,14.496,25.021c7.453,1.684,15.492-0.376,21.166-5.507
			c8.006-6.995,15.051-16.507,15.377-27.521C2170.676,736.953,2156.703,726.952,2144.15,731.332z"/>
	</g>
	<g id="_x23_211c19ff">
		<path id="path4090" fill="#211C19" d="M1491.059,791.865c1.111-1.749,3.465-0.196,4.266,1.145
			c24.906,30.838,46.43,64.488,63.23,100.41c18.305-18.059,38.029-35.725,62.168-45.563c24.105-10.377,51.121-11.178,76.729-7.06
			c-10.328,30.757-18.303,62.757-19.021,95.328c24.727-18.222,54.602-31.526,85.832-30.659c9.234-0.18,19.398,0.179,27.031,6.112
			c-2.729,11.194-7.779,21.817-10.574,33.078c-4.314,15.967-7.256,32.277-9.512,48.652c17.699-9.037,37.23-13.728,56.742-16.963
			c16.572-1.471,34.158-0.833,49.404,6.472c3.973,2.418,10.672,5.606,8.973,11.244c-7.633,10.836-17.879,19.709-24.678,31.166
			c-8.988,15.019-15.133,31.541-20.281,48.195c16.213-7.91,33.764-13.614,51.938-13.974c20.037-0.735,41.412,0.164,59.014,10.868
			c8.482,4.004,15.705,10.917,17.928,20.298c-26.637,9.691-46.74,31.362-62.445,54.209c-18.697,27.228-33.633,56.758-50.744,84.967
			c-22.521,35.578-58.264,62.364-98.777,73.918c14.906,8.841,29.074,19.317,39.828,33.094c11.621,14.43,18.91,31.803,30.709,46.103
			c8.072,8.956,16.539,17.928,27.063,24.023c15.674,7.567,33.617,5.9,50.305,9.185c-1.732,15.787-11.932,28.845-21.182,41.151
			c-21.277,24.514-47.246,45.45-77.137,58.524c-31.869,12.518-66.99,15.443-100.77,10.639c-21.264-3.09-42.656-7.273-62.332-16.146
			c-9.283-4.561-19.285-10.231-22.732-20.674c-5.867,12.502-15.658,22.897-27.424,30.022c-18.5,11.031-39.549,16.916-60.648,20.543
			c-15.428,36.771-25.74,76.484-24.285,116.621c-0.719,22.357,2.01,44.633,7.42,66.32c16.131-6.063,32.684-11.311,49.813-13.646
			c21.947-4.068,44.451-3.611,66.678-2.648c34.107,4.74,65.715,19.303,98.859,27.898c28.436,7.926,58.457,7.32,87.467,3.252
			c2.32,1.797,3.66,4.494,5.229,6.945c37.557,63.084,75.111,126.168,112.668,189.25c1.994,3.482,4.527,6.732,5.947,10.541
			c-0.488,4.838-3.758,8.824-5.523,13.254c-6.814,15.33-13.613,31.477-13.023,48.572c-0.051,9.266,3.219,18.695,9.689,25.445
			c6.211,6.602,13.025,12.633,19.27,19.219c-129.223,1.846-258.463-0.703-387.701,0.131c-4.494,0.426-9.887-1.291-13.434,2.271
			c-20.609,18.451-48.898,27.619-76.402,26.164c-25.691,1.111-50.434-10.197-70.242-25.869c-1.912-1.471-3.971-3.09-6.537-2.73
			c-109.513,0.229-219.026,0.621-328.54,0.818c-19.594,1.127-39.222,0.719-58.834,0.652c5.883-10.605,16.768-19.807,15.82-32.963
			c0.834-11.098-4.461-21.311-9.593-30.74c-8.139-14.822-17.961-28.6-27.375-42.605c57.282-71.746,114.367-143.67,171.388-215.611
			c10.394,0.277,20.804,0.229,31.132,1.684c48.62,1.322,97.551-2.697,144.798-14.709c22.046-6.031,45.057-5.279,67.676-4.592
			c9.723,0.834,19.252,3.236,28.992,4.117c-2.6-17.861-5.705-35.773-5.525-53.881c-1.307-37.377,4.104-75.096,16.965-110.266
			c1.928-5.736,4.641-11.309,5.197-17.404c-8.564-0.557-16.621-3.711-24.727-6.26c-19.498-6.473-38.555-15.461-53.981-29.238
			c-7.306-6.046-12.977-13.793-20.624-19.415c-34.745,13.074-70.405,26.721-108.059,26.721c-15.608-0.148-31.608,1.045-46.691-3.809
			c-22.226-6.913-43.75-16.473-63.263-29.238c-12.796-8.154-23.714-18.875-34.026-29.924c-8.465-9.298-16.179-19.529-21.18-31.148
			c-1.765-4.527-2.337-11.261,3.286-13.173c12.044-5.736,24.17-12.42,32.358-23.321c9.021-10.59,13.793-23.893,21.998-35.055
			c11.375-17.389,25.675-32.604,41.119-46.43c-23.419-5.394-45.449-17.242-62.054-34.746c-17.258-16.26-27.194-38.291-37.212-59.34
			c-13.075-29.417-24.106-60.518-45.221-85.407c-6.979-7.812-15.035-14.693-24.072-20.003c-4.185-3.073-9.937-4.805-12.765-9.186
			c5.835-16.718,19.579-30.332,35.922-36.852c24.285-8.646,51.496-6.684,75.356,2.418c-5.066-14.267-10.508-28.502-18.026-41.69
			c-7.73-13.124-19.187-23.387-28.911-34.909c-2.32-2.827,0.262-6.112,2.925-7.419c18.223-10.885,40.743-11.702,61.22-8.334
			c23.795,5.229,46.708,17.062,62.708,35.741c0.327-17.062-3.595-33.862-6.979-50.482c-4.15-15.379-10.263-30.152-15.542-45.139
			c-0.801-2.288,1.831-3.727,3.399-4.756c9.104-2.958,18.794-2.385,28.24-2.647c29.482-0.686,57.821,11.996,80.619,30.022
			c5.77,4.315,10.345,9.937,14.66,15.64c4.413-24.53,7.387-49.322,9.871-74.114c1.373-13.106-4.446-25.364-5.41-38.226
			c13.826-0.637,27.734-0.147,41.364,2.418c23.893,5.736,47.361,15.167,66.516,30.872c9.576,8.041,17.748,17.667,24.709,28.044
			C1446.557,853.428,1466.904,821.118,1491.059,791.865 M1466.268,874.919c-14.203,23.157-25.119,48.211-34.189,73.771
			c-10.559,28.633-17.438,58.54-21.295,88.791c-2.908,20.886-2.387,42.017-1.896,63.034c3.203,38.782,12.373,77.727,31.787,111.752
			c10.279,17.487,26.051,32.098,45.27,39.092c4.004,1.651,8.662,2.01,12.732,0.311c20.313-7.468,36.133-24.514,44.795-44.06
			c12.895-29.172,21.1-60.289,25.396-91.863c2.256-21.654,4.201-43.504,2.436-65.272c-2.582-50.99-16.637-100.884-36.984-147.527
			c-9.986-22.651-23.502-43.897-41.463-61.074C1482.201,851.304,1473.752,862.923,1466.268,874.919 M1313.805,988.534
			c-5.426,37.409-10.819,75.455-5.507,113.207c6.57,34.582,21.066,67.823,42.785,95.573c14.447,16.801,31.705,32.358,52.919,39.876
			c10.197,2.91,20.346,6.488,30.953,7.6c-35.711-38.635-52.314-91.814-54.047-143.67c-2.484-57.216,9.707-114.153,29.238-167.693
			c0.719-2.026,0.604-4.249-0.131-6.21c-5.117-13.859-11.424-27.62-21.721-38.422c-15.166-16.064-34.009-30.153-56.235-34.091
			C1329.87,899.744,1320.93,944.083,1313.805,988.534 M1615.623,883.957c-16.326,11.424-32.701,24.04-43.178,41.331
			c0.277,4.837,3.172,9.3,4.414,14.022c14.104,44.322,23.207,90.638,21.865,137.313c1.193,42.524-7.01,85.212-23.826,124.303
			c-7.666,17.062-16.262,34.141-29.598,47.558c4.74,2.648,9.609,5.067,14.627,7.142c18.877-9.772,37.654-21.082,50.924-38.095
			c26.346-31.46,36.396-73.02,39.746-113.059c0.85-23.436,0.621-46.92-0.246-70.356c-1.959-11.897-0.703-24.04-2.744-35.921
			c-0.719-21.785-0.85-43.586-0.359-65.371c0.113-22.129,4.738-43.881,10.557-65.127
			C1642.264,867.679,1628.389,875.949,1615.623,883.957 M1206.253,923.18c0.032,14.234,4.331,28.093,5.802,42.23
			c1.797,20.935,0.179,42.017,1.896,62.968c0.523,18.369,2.125,36.674,4.314,54.913c3.824,24.465,7.943,49.289,18.517,71.908
			c12.649,27.211,30.055,52.558,52.412,72.692c18.533,17.504,43.178,27.277,67.985,31.623c10.754,3.645,22.341,3.122,33.537,2.5
			c-1.766-1.225-3.074-4.396-5.605-3.251c-13.435-8.4-27.539-16.082-39.257-26.901c-7.893-7.876-16.261-15.329-23.435-23.893
			c-17.797-22.798-31.296-49.159-37.572-77.464c-11.947-47.672-6.733-97.387,0.588-145.354c0.261-3.612,2.011-7.747-0.441-10.95
			c-12.126-19.938-28.976-37.768-50.598-47.329C1225.896,922.673,1215.356,919.698,1206.253,923.18 M1687.141,966.978
			c-3.154,3.579-9.25,6.047-8.875,11.555c0.064,13.254,0.098,26.557,1.521,39.746c0.57,8.008-0.133,16.098,1.422,24.023
			c0.914,10.868,0.277,21.785,0.408,32.686c0.375,8.204-1.732,16.245-1.57,24.448c-1.781,23.158-6.078,46.168-13.27,68.264
			c-8.678,25.74-22.309,49.846-39.975,70.486c-7.959,9.333-18.369,16.017-27.457,24.122c19.334,1.521,37.41-7.992,53.262-18.042
			c25.104-15.738,42.131-41.266,54.422-67.659c14.889-30.774,21.916-64.539,26.9-98.139c6.275-39.402,8.547-79.328,15.297-118.665
			c1.568-8.106,1.912-16.441,1.096-24.646C1726.396,938.296,1704.432,950.423,1687.141,966.978 M1102.345,984.433
			c2.583,10.1,10.051,17.961,14.333,27.325c10.328,18.157,15.525,38.487,21,58.475c11.162,38.046,21.36,76.648,37.801,112.848
			c8.842,17.961,21,34.222,35.415,48.08c16,16.294,35.006,30.3,56.938,37.36c16.751,5.442,34.337,10.688,52.118,9.185
			c-7.322-5.524-15.836-9.168-23.321-14.463c-39.615-25.561-68.689-65.192-86.503-108.418c-11.8-28.993-17.471-60.109-20.183-91.177
			c-0.801-11.113,0.572-22.472-2.239-33.372c-8.629-12.731-19.84-23.828-32.604-32.392
			C1139.754,987.358,1120.862,982.537,1102.345,984.433 M1781.699,1017.543c-4.936,2.941-10.572,5.229-14.219,9.838
			c-5.621,39.615-11.553,79.279-21.293,118.126c-3.514,15.15-9.479,29.63-16.67,43.391c-8.188,16.751-17.945,32.75-29.205,47.622
			c-10.574,14.268-24.742,25.267-38.994,35.628c11.979-0.769,23.648-4.25,34.908-8.253c24.629-9.838,42.9-30.283,58.752-50.81
			c11.195-15.28,22.555-30.675,30.381-48.032c15.314-34.859,22.586-72.448,34.076-108.599c3.873-12.175,9.625-23.614,15.721-34.81
			c3.352-6.21,7.715-12.078,9.137-19.138C1822.295,999.239,1800.723,1007.214,1781.699,1017.543 M1041.86,1074.514
			c-3.301,0.49-5.589,2.86-7.911,5.001c9.054,13.156,22.407,22.798,30.382,36.82c19.661,33.111,30.284,70.699,49.796,103.908
			c11.914,20.085,29.499,37.18,50.99,46.692c20.952,9.642,44.485,11.407,67.25,10.018c-27.505-15.656-50.728-38.242-68.296-64.456
			c-8.939-13.271-14.66-28.339-20.167-43.26c-8.384-21.638-14.071-44.158-20.591-66.384c-2.436-8.041-10.051-12.83-16.376-17.65
			C1088.209,1072.095,1063.759,1068.958,1041.86,1074.514 M1863.037,1097.067c-13.939,7.028-25.527,17.862-35.463,29.744
			c-4.445,4.952-6.014,11.521-8.139,17.634c-7.225,20.919-15.951,41.56-28.879,59.651c-12.076,16.637-24.563,33.078-39.271,47.476
			c-11.08,11.44-23.518,21.802-37.734,29.107c-3.252,1.062-6.162,2.859-8.744,5.049c9.152,1.406,18.469,1.439,27.701,0.622
			c7.977-0.884,16.244-1.7,23.436-5.606c17.373-5.475,33.322-14.889,48.146-25.332c22.406-19.203,37.801-44.975,51.904-70.552
			c7.551-15.117,15.035-30.299,23.42-44.992c5.98-11.211,12.387-22.242,20.543-32.031c4.559-6.456,11.162-12.094,12.6-20.233
			C1895.576,1085.284,1878.154,1089.255,1863.037,1097.067 M1469.143,1280.515c-11.064,1.406-22.193,3.072-32.586,7.338
			c-24.875,8.858-43.85,28.862-57.691,50.744c-10.116,14.169-15.346,32.392-11.375,49.617c6.341,31.396,38.519,53.736,69.898,52.134
			c17.389-0.458,34.354-5.899,49.846-13.548c2.697-1.39,6.26-2.844,8.875-0.409c27.113,20.592,67.986,21.18,95.18,0.393
			c11.26-7.697,19.236-19.792,21.949-33.143c3.84-16.801-1.471-34.141-8.924-49.176c-19.334-36.068-57.264-61.857-98.188-65.354
			C1493.789,1278.08,1481.482,1280.221,1469.143,1280.515 M1241.554,1304.016c-12.421,1.095-24.744,3.645-36.543,7.681
			c-22.732,9.462-38.079,29.972-51.153,49.959c-11.62,16.866-21.425,35.252-36.118,49.765c30.415,9.527,62.757,7.403,94.103,5.262
			c17.584-2.402,35.333-4.461,52.281-9.969c23.713-7.076,45.678-19.415,65.027-34.729c8.547-8.253,13.434-19.35,18.86-29.728
			c7.665-14.415,14.349-30.006,27.211-40.727c-21.785-0.033-43.537-0.768-65.306-0.555
			C1287.1,1301.206,1264.139,1300.29,1241.554,1304.016 M1614.727,1304.523c6.715,15.819,16.586,30.103,22.584,46.25
			c7.012,16.44,9.512,34.336,10.117,52.083c0.996,8.074,3.121,17.455,10.9,21.688c16.375,8.955,34.025,15.313,51.822,20.804
			c29.631,9.544,61.221,11.538,92.125,9.332c20.119-1.847,40.529-7.371,56.709-19.955c-12.959-7.289-26.051-14.938-36.51-25.642
			c-19.773-22.603-33.943-49.519-54.225-71.712c-8.695-9.97-20.102-18.01-33.16-20.87c-15.902-5.41-32.963-2.027-49.273-4.87
			C1661.973,1310.864,1638.391,1307.171,1614.727,1304.523 M1325.67,1414.183c-0.246,13.288-0.082,26.607-0.033,39.91
			c4.511-3.399,10.901-4.969,13.875-9.92c0.425-11.882-0.997-23.763-1.029-35.644
			C1334.119,1410.179,1329.772,1411.944,1325.67,1414.183 M1295.19,1424.529c-1.715,1.683-0.506,4.494-0.866,6.65
			c0.114,13.222-0.033,26.443,0.098,39.647c4.495-1.731,9.038-3.447,13.238-5.85c2.435-0.899,1.52-3.955,1.814-5.884
			c-0.049-13.042-0.049-26.067-0.082-39.093C1304.587,1421.292,1299.75,1422.551,1295.19,1424.529 M1263.125,1432.079
			c0.033,15.999-0.032,31.999,0.115,47.998c4.919-0.963,9.773-2.222,14.741-3.056c0.197-15.771-0.017-31.541,0.115-47.313
			C1273.046,1430.215,1268.078,1431.065,1263.125,1432.079 M1230.571,1438.452c0.261,14.84,0.049,29.695,0.164,44.535
			c5.393-0.05,10.803-0.181,16.228-0.376c0.181-15.787,0.033-31.575-0.017-47.345
			C1241.455,1436.18,1235.964,1437.096,1230.571,1438.452 M1128.559,1438.992c6.423,7.697,13.973,14.283,22.063,20.199
			c0.246-5.769,0.147-11.554,0.246-17.323C1143.381,1441.377,1135.896,1440.544,1128.559,1438.992 M1167.079,1442.145
			c-0.032,8.793,0.017,17.586-0.065,26.378c5.165,2.501,10.46,4.739,15.902,6.618c0.065-10.704,0.277-21.425,0.048-32.13
			C1178.11,1441.034,1172.292,1442.636,1167.079,1442.145 M1199.242,1441.721c0.099,12.96-0.393,25.936,0.212,38.896
			c5.066,0.294,10.149,0.653,15.231,0.996c0.017-13.76-0.098-27.537,0.065-41.281
			C1209.538,1440.315,1204.356,1440.723,1199.242,1441.721 M1376.545,1449.483c0,5.802-0.475,11.637,0.13,17.438
			c4.118,4.919,8.94,9.201,13.76,13.418c0.49-7.829,0.18-15.673,0.393-23.502C1385.91,1454.681,1381.007,1452.475,1376.545,1449.483
			 M1592.516,1454.549c-0.85,12.323-0.344,24.776-0.164,37.132c5.475-4.38,12.063-8.253,15.33-14.692
			c-0.736-9.332-0.85-18.681-0.768-28.012C1602.092,1450.807,1597.189,1452.393,1592.516,1454.549 M1647.313,1450.611
			c-0.295,9.496,0.064,19.008-0.146,28.519c5.703,4.184,11.832,7.795,18.305,10.737c-0.361-10.231,0.898-20.756-0.654-30.773
			C1659.242,1455.743,1653.295,1453.095,1647.313,1450.611 M1487.578,1460.302c-3.58,2.239-6.684,5.476-6.373,10.035
			c-0.279,15.329-0.311,30.692-0.311,46.038c6.209,3.66,14.234,1.748,21.213,2.615c0.098-9.088,0.18-18.174,0.213-27.26
			c-0.23-8.694,1.471-17.34,0.752-26.018C1499.313,1462.051,1492.742,1455.318,1487.578,1460.302 M1408.691,1459.501
			c-0.098,11.506-0.262,23.011-0.146,34.533c5.49,3.089,11.08,6.046,16.686,8.938c0.098-13.645,0.016-27.292-0.195-40.937
			C1419.477,1461.954,1414.002,1461.038,1408.691,1459.501 M1557.426,1460.286c0.1,16.507-0.064,33.029,0.115,49.552
			c5.654-1.422,11.195-3.334,16.605-5.541c0.113-15.395,0.195-30.789-0.066-46.184
			C1568.59,1459.29,1563.033,1460.025,1557.426,1460.286 M1521,1464.715c-1.537,17.471-0.459,35.071-0.949,52.607
			c6.555-0.064,12.91-1.684,19.398-2.402c0.148-17.324-0.031-34.646,0.1-51.954C1533.338,1463.163,1527.111,1463.539,1521,1464.715
			 M1443.012,1464.584c0.064,15.149,0.162,30.316,0.195,45.466c6.521,1.879,13.074,3.758,19.857,4.525
			c0.375-16.081,1.209-32.113,0.914-48.21C1456.984,1465.696,1450.039,1464.633,1443.012,1464.584 M1681.828,1466.708
			c0,9.414-0.211,18.844,0.1,28.257c5.049,3.938,11.914,3.955,18.01,4.92c0-9.233,0.098-18.451-0.1-27.686
			C1693.711,1470.795,1687.826,1468.523,1681.828,1466.708 M1808.861,1475.077c-0.033,4.592,0.033,9.184,0.18,13.793
			c10.443-5.785,20.02-13.059,28.73-21.229C1828.211,1470.386,1818.65,1473.311,1808.861,1475.077 M1716.035,1477.217
			c0.082,8.776,0.064,17.568,0.129,26.361c5.885,0.426,11.734,1.063,17.586,1.979c-0.344-9.087,1.193-18.403-1.16-27.31
			C1727.049,1478.165,1721.525,1477.741,1716.035,1477.217 M1779.902,1479.898c0.18,6.636,0.18,13.27,0.244,19.922
			c4.217-0.817,8.352-1.978,12.52-3.056c-0.018-6.391,0-12.765-0.064-19.138C1788.352,1478.378,1784.135,1479.211,1779.902,1479.898
			 M1749.994,1480.78c0.066,8.286-0.082,16.571,0.115,24.875c4.674-1.227,10.393-0.344,14.463-2.795
			c0.295-7.322-0.082-14.643,0.033-21.949C1759.719,1480.894,1754.865,1480.845,1749.994,1480.78 M1458.422,1616.033
			c-4.705,37.197-2.369,75.193,6.342,111.654c6.896,3.578,13.32,7.975,20.084,11.783c2.764-0.996,5.313-2.484,7.912-3.824
			c-6.719-26.836-10.674-54.422-10.266-82.123c0.359-37.654,8.172-75.078,21.607-110.232c-8.189-0.016-16.441,0.18-24.482-1.553
			C1469.307,1565.42,1462.246,1590.506,1458.422,1616.033 M1498.658,1755.094c0.033,16.277-1.961,32.49-1.863,48.783
			c-1.176,10.869-1.486,21.77-1.748,32.703c-1.863,14.627-0.637,29.465-2.518,44.092c-0.521,9.789-0.229,19.613-0.834,29.4
			c-1.143,9.283-1.502,18.697-1.209,28.045c1.521,3.578,5.77,2.893,8.221,0.703c26.672-18.762,58.359-29.254,90.441-33.879
			c33.666-4.004,67.807-2.664,101.439,1.047c37.785,4.51,75.063,12.24,112.586,18.385c36.625,6.799,73.854,12.094,111.197,9.25
			c-29.662-49.469-58.982-99.152-88.563-148.67c-5.393-8.482-9.691-17.717-15.902-25.609c-16.227,1.846-32.635,1.52-48.945,0.996
			c-33.063-3.316-63.998-16.129-95.541-25.689c-16.637-5.297-33.992-9.186-51.527-8.613
			C1573.9,1725.203,1532.914,1733.816,1498.658,1755.094 M1369.665,1732.867c-19.236,1.047-37.523,7.682-56.416,10.836
			c-40.89,7.926-82.695,9.725-124.255,8.352c-5.377-0.377-10.754-1.504-16.146-0.867c-4.184,3.629-7.419,8.172-10.819,12.52
			c-44.844,56.709-90.098,113.092-134.828,169.883c20.707,0.672,41.511,0.867,62.103-1.617
			c34.025-3.596,67.659-9.984,101.439-15.297c43.194-7.354,86.667-14.791,130.612-14.365c16.506,0.229,33.127-0.572,49.486,1.961
			c34.418,3.971,68.215,15.623,96.684,35.578c-0.229-8.875,1.699-17.602,1.635-26.443c0.277-8.219-0.018-16.457,1.094-24.596
			c1.178-11.945,0-24.008,1.75-35.889c0.783-9.805,0.18-19.693,1.617-29.434c0.752-9.904,0.277-19.855,0.932-29.775
			c1.438-11.914,1.209-23.943,1.535-35.922c-15.508-10.852-33.027-19.285-51.953-21.801
			C1406.273,1731.855,1387.854,1732.264,1369.665,1732.867 M1295.272,1920.762c-55.026,3.334-108.941,15.656-163.429,23.387
			c-37.555,5.947-75.879,10.443-113.859,6.111c2.287,2.305,3.366,7.125,7.468,6.275c21.246,0.393,42.606,1.113,63.802-0.783
			c48.882-3.531,97.24-11.963,145.697-19.072c17.862-2.6,35.692-5.721,53.735-6.684c12.437-1.93,25.07-0.916,37.572-2.24
			c11.521,1.078,23.158,0.426,34.646,2.092c30.708,2.779,61.515,11.016,87.582,27.93c3.334,2.402,5.359-2.793,7.68-4.477
			c-8.889-5.279-17.6-10.902-27.111-15.004c-32.588-15.051-68.983-18.68-104.431-19.039
			C1314.769,1918.719,1305.094,1920.926,1295.272,1920.762 M1506.715,1954.412c3.4,4.02,6.537,8.268,9.92,12.338
			c23.928-17.848,52.445-28.975,81.682-34.385c38.635-6.635,78.25-4.332,116.9,0.932c38.063,5.344,75.684,13.221,113.697,18.842
			c28.307,4.758,57.086,5.869,85.75,4.316c2.615-0.082,3.563-3.236,5.313-4.789c-9.969-0.213-19.922,0.67-29.891,0.424
			c-22.57,0.1-45.041-2.664-67.252-6.52c-35.922-5.328-71.467-12.797-107.355-18.271c-36.82-5.639-74.229-8.58-111.441-5.77
			C1569.504,1923.932,1535.381,1934.799,1506.715,1954.412 M1190.678,1957.01c-36.199,5.246-72.48,10.246-108.99,12.73
			c-16.963,0.033-33.944,0.605-50.907,0.051c0.212,0.701,0.654,2.123,0.882,2.842c5.327,0.719,10.671,2.42,16.113,1.732
			c62.806,4.086,124.516-10.246,186.374-18.564c39.664-5.523,79.917-9.627,119.956-5.834c29.908,2.531,59.39,10.313,86.421,23.451
			c0.506-1.34,1.045-2.664,1.584-3.955c-26.996-17.797-59.471-24.873-91.273-27.424c-19.612-0.375-39.305-0.932-58.867,0.688
			C1257.994,1945.848,1224.41,1952.025,1190.678,1957.01 M1524.088,1977.568c1.291,1.994,2.648,3.955,4.086,5.9
			c22.438-13.369,47.002-23.354,72.611-28.697c43.373-9.561,88.381-6.881,131.967-0.229c59.049,7.533,118.143,24.416,178.057,16.375
			c-0.066-0.326-0.197-0.965-0.262-1.275c-11.031,2.207-22.373,2.125-33.52,0.916c-63.264-3.531-124.777-20.609-187.729-26.885
			c-20.104-2.68-40.467-1.945-60.699-1.65C1591.584,1944.67,1554.258,1955.344,1524.088,1977.568 M1441.164,2019.521
			c-2.189,8.074-5.639,18.025,0.328,25.314c6.389,9.186,18.352,10.639,28.633,11.521c15.018,0.246,31.395,1.193,44.795-6.799
			c3.596-3.17,9.086-6.439,8.711-11.816c0.834-10.98-3.857-21.195-8.385-30.854c-8.711-17.848-20.805-33.83-34.451-48.162
			C1464.143,1976.311,1448.877,1996.281,1441.164,2019.521 M1546.576,1988.502c-4.217,2.451-9.186,4.102-12.322,8.041
			c0.686,3.268,4.084,3.645,6.65,2.238c28.289-12.518,58.441-21.164,89.266-24.236c17.289-2.729,34.891-1.732,52.346-1.961
			c24.105-0.293,47.998,2.861,71.924,5.246c33.602,3.203,66.549,11.146,100.084,14.824c16.033,1.992,32.555,2.631,48.406-1.047
			c3.531-0.277,4.037-4.33,4.904-7.012c-46.332,5.508-92.566-3.447-138.162-10.77c-40.123-6.717-80.686-13.385-121.494-11.652
			C1613.01,1963.857,1577.773,1971.85,1546.576,1988.502 M1240.083,1968.416c-33.781,4.871-67.48,10.199-101.228,15.25
			c-11.456,0.881-22.864,2.287-34.32,3.023c-21.622,2.418-43.407,0.637-65.06,0.963c9.38,3.416,19.66,4.168,29.531,4.609
			c14.904,1.371,29.809,2.484,44.796,2.156c33.845,0.768,67.496-3.922,100.655-10.361c19.121-4.068,38.308-8.121,57.821-9.723
			c15.133-2.387,30.544-1.324,45.809-1.439c30.43,1.275,60.256,8.287,89.476,16.523c6.719,1.848,13.256,4.625,20.232,5.441
			c1.473-3.514,3.188-6.896,4.691-10.361c-23.959-11.898-50.369-18.059-76.828-21.098c-18.5-1.16-37.032-0.801-55.533-0.621
			C1279.975,1962.91,1260.037,1965.982,1240.083,1968.416 M1225.063,1995.416c-38.161,8.072-77.056,13.58-116.149,12.256
			c-20.722,0.654-41.184-2.451-61.759-4.248c0.065,0.996,0.196,2.99,0.261,3.986c34.304,5.492,69.278,8.123,103.974,5.018
			c41.134-1.486,81.403-12.127,122.571-13.27c19.644-0.195,39.386-0.85,58.949,1.422c19.186,1.502,38.127,5.295,57.035,8.824
			c10.051,1.896,19.742,5.574,29.924,6.717c0.277-2.908,0.59-5.785,0.9-8.645c-30.121-9.838-61.156-17.291-92.714-20.494
			C1293.507,1983.453,1258.876,1988.52,1225.063,1995.416 M1650.811,1986.051c-37.277,2.207-74.295,10.754-108.256,26.459
			c0.082,2.207,0.213,4.414,0.408,6.652c14.17-3.727,28.127-8.336,42.541-11.098c36.625-8.303,74.295-11.178,111.77-9.936
			c11.93,1.422,24.006,0.521,35.92,2.223c36.691,2.01,72.955,8.139,109.498,11.766c16.881,0.688,33.813,0.785,50.711,0.033
			c3.924-0.441,8.123-0.752,11.719-2.5c0.098-1.127,0.295-3.367,0.391-4.494c-6.273,0.311-12.354,2.107-18.629,2.174
			c-38.324,1.52-75.635-9.021-113.42-13.631c-18.256-2.32-36.559-4.25-54.863-6.047
			C1696.096,1985.201,1673.396,1985.578,1650.811,1986.051 M1208.981,2019.537c-52.672,8.955-106.718,10.23-159.587,2.059
			c-0.669,3.465-1.421,6.93-2.108,10.443c79.361-0.164,158.738-0.262,238.115-0.475c20.151-0.342,40.351,0.639,60.452-0.947
			c18.566,0.018,37.131-0.098,55.696-0.082c5.492-0.244,10.41,2.633,15.135,5.084c-0.066-2.158-0.115-4.281-0.18-6.375
			c-17.52-3.203-34.582-8.563-52.232-11.064c-36.281-6.291-73.363-7.631-110.02-4.346
			C1239.085,2014.896,1224.066,2017.609,1208.981,2019.537 M1560.795,2028.199c-3.891-0.131-7.389,1.863-10.918,3.17
			c26.77,0.605,53.572-0.113,80.357,0.131c93.432-0.098,186.863,1.176,280.279,0.146c-1.078-2.777-2.107-5.523-3.203-8.252
			c-5.131,1.273-10.344,2.107-15.607,2.156c-19.088,0.426-38.209,0.557-57.248-0.523c-53.621-7.402-107.488-14.186-161.729-13.221
			C1634.844,2011.398,1597.107,2017.609,1560.795,2028.199z"/>
	</g>
	<g id="_x23_231f1cff">
		<path id="path4093" fill="#231F1C" d="M2266.689,939.522c22.096-15.803,44.012-31.868,66.4-47.247
			c11.391,16.326,23.371,32.26,34.369,48.881c-3.76,3.023-7.682,5.834-11.506,8.728c-8.236-11.718-16.408-23.469-24.906-34.958
			c-5.213,2.337-9.463,6.227-14.104,9.462c5.621,6.962,10.328,14.594,15.754,21.703c2.32,3.448,5.395,6.619,6.57,10.721
			c-3.514,3.139-7.5,5.671-11.275,8.449c-7.256-10.654-14.627-21.229-22.275-31.59c-6.455,1.357-11.393,7.24-16.719,11
			c0.914,2.925,2.842,5.392,4.592,7.893c6.928,9.692,13.842,19.383,20.658,29.172c-4.283,2.026-7.83,7.926-12.717,7.223
			C2289.928,972.485,2278.145,956.094,2266.689,939.522z"/>
		<path id="path4095" fill="#231F1C" d="M391.547,1455.138c14.087-8.662,27.684-18.124,41.968-26.491
			c0.278,3.611,0.572,7.223,1.046,10.834c-12.535,9.84-23.338,21.655-35.023,32.458
			C396.793,1466.366,393.933,1460.875,391.547,1455.138z"/>
		<path id="path4097" fill="#231F1C" d="M1290.614,1773.84c7.159-1.193,14.382-2.125,21.491-3.629
			c0.997,3.711,2.042,7.42,3.317,11.064c-7.86,1.438-15.77,2.844-23.794,2.549
			C1291.317,1780.475,1290.974,1777.156,1290.614,1773.84z"/>
		<path id="path4099" fill="#231F1C" d="M1640.791,1848.346c10.051-0.098,19.693,2.828,29.549,4.381
			c-1.355,4.281-2.697,8.547-3.938,12.877c-9.268-1.389-18.371-3.758-27.686-4.902
			C1639.287,1856.551,1640.088,1852.449,1640.791,1848.346z"/>
		<path id="path4101" fill="#231F1C" d="M1297.495,1854.703c9.119-2.68,18.615-4.135,28.11-4.674
			c0.898,4.379,1.536,8.842,1.978,13.303c-9.463,0.182-18.549,3.057-27.881,4.037
			C1298.77,1863.201,1296.677,1859.051,1297.495,1854.703z"/>
	</g>
	<g id="_x23_23211fff">
		<path id="path4106" fill="#23211F" d="M537.782,994.042c4.167-0.702,6.995,3.612,10.361,5.426
			c-2.811,4.086-5.54,8.238-8.187,12.437c-3.269-1.944-6.472-3.955-9.659-5.981C532.536,1001.805,534.841,997.703,537.782,994.042z"
			/>
	</g>
	<g id="_x23_221e1cff">
		<path id="path4110" fill="#221E1C" d="M441.637,1180.857c7.616-12.208,21.769-18.239,35.22-21.573
			c5.556-1.11,11.488-3.432,17.045-1.045c-1.733,3.677-2.876,7.599-3.89,11.554c-11.571,2.5-24.645,3.955-33.209,13.074
			c-5.295,5.72-7.73,16.587-0.605,21.817c6.685,1.961,13.532-0.18,19.808-2.5c-2.141,4.854-3.481,10.214-6.537,14.595
			c-8.956,7.386-24.17,5.033-29.728-5.492C433.989,1201.808,437.062,1190.14,441.637,1180.857z"/>
		<path id="path4112" fill="#221E1C" d="M1386.072,1791.229c18.338-0.768,36.25,4.689,52.525,12.764
			c-2.531,3.188-4.51,7.076-7.908,9.414c-6.619-2.436-12.863-5.9-19.727-7.6c-8.221-2.566-16.834-3.008-25.282-4.266
			C1385.828,1798.092,1385.959,1794.66,1386.072,1791.229z"/>
		<path id="path4114" fill="#221E1C" d="M1303.771,1826.512c9.332-1.52,18.5-4.412,28.06-4.346
			c0.719,3.807,1.569,7.631,2.125,11.504c-8.874,0.572-17.455,3.074-26.247,4.234
			C1306.336,1834.111,1305.028,1830.305,1303.771,1826.512z"/>
		<path id="path4116" fill="#221E1C" d="M2428.172,1825.172c12.355,2.451,23.975,7.6,35.973,11.342
			c13.857,4.822,27.912,9.021,41.607,14.316c-2.762,7.502-5.441,15.051-7.387,22.814c-20.527,0.033-40.709-5.098-61.254-3.939
			c8.939,7.666,19.76,12.699,29.582,19.154c6.994,4.445,14.104,8.744,21.375,12.764c-1.813,8.287-5.082,16.148-7.682,24.205
			c-25.576-8.908-51.299-17.439-76.975-26.066c1.309-5.264,3.139-10.395,5.361-15.33c21.1,7.141,42.197,14.316,63.297,21.457
			c-19.336-12.518-39.535-23.631-58.803-36.264c1.65-5.426,3.514-10.787,5.654-16.016c22.178,2.434,44.307,6.047,66.613,6.961
			c-20.836-6.617-41.428-13.988-62.232-20.705C2424.855,1834.945,2426.488,1830.043,2428.172,1825.172z"/>
		<path id="path4118" fill="#221E1C" d="M1722.801,1844.521c0.523-3.611,1.291-7.158,1.83-10.736
			c10.262,1.684,20.607,2.582,30.936,3.791c2.828,2.533,0.59,7.91,1.406,11.537c-9.104,0.541-18.01-1.371-26.998-2.287
			C1727.557,1846.223,1724.549,1846.467,1722.801,1844.521z"/>
		<path id="path4120" fill="#221E1C" d="M1245.917,1862.27c11.75-0.457,23.223-3.447,34.958-4.117
			c0.801,4.086,1.944,8.09,2.762,12.191c-11.93,2.516-24.041,4.461-36.215,5.1C1246.914,1871.029,1246.358,1866.65,1245.917,1862.27
			z"/>
		<path id="path4122" fill="#221E1C" d="M1785.752,1882.912c0.916-4.365,2.01-8.695,2.828-13.074
			c11.195,2.484,22.602,3.971,34.107,3.742c0,4.396-0.082,8.809-0.082,13.221
			C1810.201,1886.785,1797.748,1886.277,1785.752,1882.912z"/>
		<path id="path4124" fill="#221E1C" d="M1223.2,2446.492c7.419-3.527,16.147-4.379,23.943-1.535
			c13.58,4.822,24.203,14.953,34.908,24.203c3.023,1.814,1.145,7.895-2.647,5.736c-9.315-6.748-18.697-14.512-30.398-16.439
			c-5.703-1.063-11.407,0.701-17.062,0.244C1228.512,2455.025,1225.831,2450.742,1223.2,2446.492z"/>
	</g>
	<g id="_x23_9b9896ff">
		<path id="path4128" fill="#9B9896" d="M1385.109,1258.763c2.531-1.145,3.84,2.026,5.605,3.251
			c-11.195,0.622-22.783,1.145-33.537-2.5C1366.461,1260.446,1376.022,1261.623,1385.109,1258.763z"/>
	</g>
	<g id="_x23_827f7dff">
		<path id="path4131" fill="#827F7D" d="M1704.807,1285.729c2.582-2.19,5.492-3.988,8.744-5.049
			c-0.539,1.013-1.602,3.056-2.125,4.085c14.971,1.16,29.875-1.062,44.518-4.02c-7.191,3.906-15.459,4.722-23.436,5.606
			C1723.275,1287.167,1713.959,1287.134,1704.807,1285.729z"/>
	</g>
	<g id="_x23_23211eff">
		<path id="path4145" fill="#23211E" d="M390.566,1604.283c13.483-9.889,26.852-19.938,40.808-29.123
			c-0.114,3.301,1.095,7.582-2.255,9.789c-10.819,10.182-20.886,21.18-32.441,30.545
			C394.783,1611.652,392.724,1607.943,390.566,1604.283z"/>
	</g>
	<g id="_x23_22201eff">
		<path id="path4148" fill="#22201E" d="M403.15,1627.18c9.004-11.326,17.797-22.979,28.125-33.145
			c0.279,7.861-3.921,14.727-7.092,21.623c-3.889,7.631-7.158,15.574-11.26,23.123
			C409.867,1634.746,406.582,1630.889,403.15,1627.18z"/>
	</g>
	<g id="_x23_211d1dff">
		<path id="path4153" fill="#211D1D" d="M1573.541,1757.17c8.336-0.408,16.67-0.049,25.021,0.311
			c-0.148,3.775-0.277,7.566-0.393,11.375c-7.223-0.426-14.447-0.377-21.654-0.557
			C1573.541,1765.717,1574.457,1760.748,1573.541,1757.17z"/>
	</g>
	<g id="_x23_211e1eff">
		<path id="path4156" fill="#211E1E" d="M1372.574,1759.213c8.401-0.393,16.833-0.164,25.102,1.584
			c-0.523,3.4-1.127,6.799-1.781,10.199c-7.256-0.557-14.545-0.523-21.817-0.752
			C1371.479,1767.531,1373.227,1762.709,1372.574,1759.213z"/>
	</g>
	<g id="_x23_23201fff">
		<path id="path4159" fill="#23201F" d="M1525.967,1771.143c10.426-5.131,21.262-10.688,33.111-11.227
			c0.801,3.301,1.666,6.617,2.336,9.984c-9.74,2.5-19.301,5.803-28.109,10.672
			C1530.838,1777.436,1528.418,1774.264,1525.967,1771.143z"/>
		<path id="path4161" fill="#23201F" d="M1248.303,1805.039c10.508,0.277,20.804-2.24,31.296-2.322
			c0.18,3.809,0.441,7.648,0.588,11.49c-10.607,0.375-21.065,2.482-31.706,2.305
			C1248.368,1812.67,1248.319,1808.846,1248.303,1805.039z"/>
	</g>
	<g id="_x23_231e1dff">
		<path id="path4164" fill="#231E1D" d="M1326.275,1767.498c9.952-2.303,19.938-4.525,30.07-5.9
			c0.85,3.547,1.684,7.111,2.337,10.723c-9.871,1.961-19.774,3.709-29.466,6.438
			C1328.121,1775.016,1327.042,1771.291,1326.275,1767.498z"/>
		<path id="path4166" fill="#231E1D" d="M1636.607,1818.994c9.496,0.67,18.697,3.285,27.963,5.395
			c-1.291,3.904-2.713,7.779-4.199,11.635c-8.662-2.32-17.455-3.971-26.264-5.539
			C1634.957,1826.643,1635.938,1822.852,1636.607,1818.994z"/>
	</g>
	<g id="_x23_23201eff">
		<path id="path4169" fill="#23201E" d="M1412.172,1763.25c11.701,0.898,22.342,6.52,32.506,11.945
			c-2.451,2.877-3.986,6.93-7.484,8.695c-9.055-3.809-17.928-8.172-27.555-10.395
			C1410.342,1770.031,1411.225,1766.633,1412.172,1763.25z"/>
	</g>
	<g id="_x23_221d1dff">
		<path id="path4172" fill="#221D1D" d="M1696.947,1774.836c9.232-0.064,18.154,2.959,27.422,2.551
			c0.066,3.824-0.016,7.648,0,11.504c-9.527-0.342-18.975-1.83-28.305-3.693C1696.357,1781.717,1696.668,1778.285,1696.947,1774.836
			z"/>
		<path id="path4174" fill="#221D1D" d="M1245.492,1777.223c9.577-0.164,19.17-0.605,28.764-0.736
			c0.196,3.367,0.441,6.734,0.752,10.117c-9.806,1.291-19.661,1.979-29.549,1.748
			C1245.426,1784.609,1245.458,1780.916,1245.492,1777.223z"/>
	</g>
	<g id="_x23_221e1dff">
		<path id="path4177" fill="#221E1D" d="M1206.253,1776.635c6.537,0.082,13.058,0.277,19.595,0.473
			c-0.017,3.727-0.049,7.469-0.098,11.229c-6.717,0.016-13.4-0.377-20.036-1.373
			C1205.942,1783.498,1206.138,1780.066,1206.253,1776.635z"/>
		<path id="path4179" fill="#221E1D" d="M1594.918,1847.152c9.625-2.646,19.693-1.486,29.547-1.584
			c-0.211,4.396-0.652,8.793-1.242,13.172c-8.727-0.244-17.438,0.148-26.131,0.326
			C1596.748,1855.014,1595.898,1851.043,1594.918,1847.152z"/>
	</g>
	<g id="_x23_231e1eff">
		<path id="path4182" fill="#231E1E" d="M1741.529,1791.229c0.637-3.939,1.961-7.715,3.563-11.326
			c6.555,1.781,13.369,1.928,20.135,1.684c0.098,3.758,0.213,7.533,0.262,11.326
			C1757.447,1793.125,1749.504,1791.932,1741.529,1791.229z"/>
	</g>
	<g id="_x23_201d1aff">
		<path id="path4185" fill="#201D1A" d="M1602.109,1787.895c9.902-0.359,19.627,1.65,29.236,3.791
			c-0.947,3.334-1.848,6.701-2.516,10.117c-9.119-0.719-18.207-1.963-27.195-3.613
			C1601.814,1794.742,1601.945,1791.326,1602.109,1787.895z"/>
	</g>
	<g id="_x23_211e1dff">
		<path id="path4188" fill="#211E1D" d="M1339.496,1793.516c9.479-1.307,18.958-2.662,28.519-3.447
			c0.065,3.758,0.195,7.566,0.344,11.357c-8.842,0.344-17.553,2.01-26.231,3.531
			C1341.179,1801.148,1340.248,1797.34,1339.496,1793.516z"/>
	</g>
	<g id="_x23_211f1cff">
		<path id="path4191" fill="#211F1C" d="M1647.051,1794.285c9.332,0.441,18.402,2.842,27.57,4.477
			c0.588,3.775-1.209,7.469-1.65,11.229c-9.871-0.949-19.447-3.563-29.074-5.656
			C1644.977,1800.969,1646.006,1797.619,1647.051,1794.285z"/>
	</g>
	<g id="_x23_231f1dff">
		<path id="path4194" fill="#231F1D" d="M1295.484,1800.15c9.544-0.26,18.647-3.791,28.208-4.035
			c0.898,3.547,1.781,7.092,2.354,10.721c-9.348,1.994-18.778,3.693-28.257,4.869
			C1296.71,1807.898,1295.828,1804.057,1295.484,1800.15z"/>
		<path id="path4196" fill="#231F1D" d="M1389.391,1852.955c12.109,0.719,23.697,5.623,33.469,12.682
			c-3.055,3.154-5.832,6.57-8.922,9.709c-8.76-3.955-17.504-8.074-26.967-10.248
			C1387.674,1861.012,1388.541,1856.992,1389.391,1852.955z"/>
	</g>
	<g id="_x23_231d1fff">
		<path id="path4199" fill="#231D1F" d="M1691.455,1801.051c10.459,0.947,20.902,2.205,31.295,3.758
			c-0.244,3.334-0.424,6.686-0.588,10.035c-11.014,0.588-21.883-1.193-32.783-2.287
			C1689.918,1808.699,1690.605,1804.842,1691.455,1801.051z"/>
	</g>
	<g id="_x23_211d1cff">
		<path id="path4202" fill="#211D1C" d="M1181.804,1817.41c0.458-4.086-0.752-9.252,2.517-12.324
			c14.938,1.814,30.022,1.145,45.041,1.031c0.016,3.889,0.049,7.777,0.081,11.701
			C1213.558,1818.014,1197.672,1817.785,1181.804,1817.41z"/>
	</g>
	<g id="_x23_211e1cff">
		<path id="path4205" fill="#211E1C" d="M1742.264,1807.26c13.844,1.029,27.604,3.629,41.545,2.795
			c0.816,4.086,0.996,8.27,1.029,12.471c-13.844,0-27.439-3.072-41.232-3.711C1737.934,1817.688,1742.281,1810.953,1742.264,1807.26
			z"/>
		<path id="path4207" fill="#211E1C" d="M1733.424,1876.439c0.734-4.381,1.715-8.693,2.613-13.025
			c11.344,1.699,22.717,3.857,34.256,3.563c-0.049,4.396-0.082,8.793-0.049,13.238
			C1757.871,1880.23,1745.598,1878.369,1733.424,1876.439z"/>
	</g>
	<g id="_x23_221d1cff">
		<path id="path4210" fill="#221D1C" d="M1584.588,1817.818c11.686-1.863,23.797-2.436,35.482-0.246
			c-0.654,3.842-1.26,7.715-1.93,11.572c-10.328-0.572-20.674-0.557-30.986,0.146
			C1586.338,1825.434,1585.406,1821.643,1584.588,1817.818z"/>
	</g>
	<g id="_x23_231d1dff">
		<path id="path4213" fill="#231D1D" d="M1348.632,1819.682c11.586-0.18,23.32-0.949,34.793,1.373
			c-0.507,3.922-1.226,7.811-2.206,11.652c-10.083-0.818-20.167-0.523-30.25-0.605
			C1347.928,1828.865,1348.55,1823.783,1348.632,1819.682z"/>
	</g>
	<g id="_x23_231d1cff">
		<path id="path4216" fill="#231D1C" d="M1538.438,1831.35c8.76-4.396,17.992-7.746,27.309-10.721
			c1.879,3.709,3.578,7.551,5.229,11.408c-8.678,2.156-16.604,6.684-25.135,8.955
			C1542.752,1838.264,1540.658,1834.732,1538.438,1831.35z"/>
	</g>
	<g id="_x23_221f1dff">
		<path id="path4219" fill="#221F1D" d="M1678.281,1827.102c9.561,0.57,18.73,3.955,28.34,4.232
			c-0.311,3.807-0.688,7.648-0.883,11.488c-10.492,0.195-20.592-2.859-30.855-4.445
			C1675.963,1834.602,1677.09,1830.826,1678.281,1827.102z"/>
		<path id="path4221" fill="#221F1D" d="M1777.059,1837.199c4.887,1.098,9.74,2.73,14.789,3.041
			c5.182-0.523,10.182-2.125,15.281-3.236c1.863,3.76,3.693,7.566,5.605,11.342c-13.041,4.086-27.326,5.459-40.252,0.148
			C1773.92,1844.686,1775.506,1840.943,1777.059,1837.199z"/>
	</g>
	<g id="_x23_211e1bff">
		<path id="path4224" fill="#211E1B" d="M1158.613,1837.037c11.506,0.393,23.027,0.67,34.55,0.588
			c0.097,4.199,0.114,8.434,0.032,12.666c-11.734,0.557-23.354-1.273-35.055-1.422
			C1158.287,1844.914,1158.499,1840.959,1158.613,1837.037z"/>
		<path id="path4226" fill="#211E1B" d="M1194.682,1867.025c12.078,0.408,23.91-2.418,35.971-2.271
			c0.539,4.299,1.356,8.564,1.847,12.895c-12.47,0.523-24.825,2.779-37.344,2.418
			C1194.927,1875.705,1194.731,1871.357,1194.682,1867.025z"/>
	</g>
	<g id="_x23_221f1eff">
		<path id="path4229" fill="#221F1E" d="M1210.96,1837.625c10.981,0.393,21.769-2.092,32.75-2.174
			c-0.164,3.891,0.571,7.715,1.487,11.49c-10.852,1.666-21.802,1.977-32.637,3.643
			C1211.09,1846.4,1211.008,1841.973,1210.96,1837.625z"/>
	</g>
	<g id="_x23_22201dff">
		<path id="path4232" fill="#22201D" d="M1543.193,1862.123c10.033-6.881,21.768-12.24,34.156-12.176
			c0.865,4.283,1.471,8.598,1.715,12.977c-9.381,0.246-17.682,4.773-25.854,8.809
			C1549.189,1869.461,1546.609,1865.195,1543.193,1862.123z"/>
		<path id="path4234" fill="#22201D" d="M1940.504,2489.359c6.373-0.326,13.123-0.113,18.564,3.727
			c9.887,6.619,16.391,16.932,22.193,27.064c2.779,5.131,6.473,10.197,6.473,16.311c-1.65,0.164-3.285,0.359-4.904,0.572
			c-5.932-11.441-13.564-22.945-25.379-28.928c-3.924-2.223-8.531-2.141-12.732-3.367
			C1942.447,2499.887,1941.613,2494.525,1940.504,2489.359z"/>
	</g>
	<g id="_x23_d0d0ceff">
		<path id="path4237" fill="#D0D0CE" d="M1030.78,1969.791c16.963,0.555,33.944-0.018,50.907-0.051
			c-11.375,0.932-22.749,2.158-33.912,4.625c-5.442,0.688-10.786-1.014-16.113-1.732
			C1031.434,1971.914,1030.993,1970.492,1030.78,1969.791z"/>
	</g>
	<g id="_x23_cbcac8ff">
		<path id="path4240" fill="#CBCAC8" d="M1104.535,1986.689c11.456-0.736,22.864-2.143,34.32-3.023
			c-22.979,5.326-46.937,2.957-69.849,8.596c-9.871-0.441-20.151-1.193-29.531-4.609
			C1061.128,1987.326,1082.914,1989.107,1104.535,1986.689z"/>
	</g>
	<g id="_x23_cec9c6ff">
		<path id="path4245" fill="#CEC9C6" d="M1549.877,2031.369c3.529-1.307,7.027-3.301,10.918-3.17
			c16.016,1.668,32.129,0.916,48.195,1.063c21.244,0.031,42.49,0.064,63.736-0.033c15.264-0.146,30.494,1.096,45.758,1.063
			c17.424,0.018,34.859-0.049,52.283,0.605c46.576,1.094,93.17,0.064,139.746,0.75c-93.416,1.029-186.848-0.244-280.279-0.146
			C1603.449,2031.256,1576.646,2031.975,1549.877,2031.369z"/>
	</g>
	<g id="_x23_fcfbf9ff">
	</g>
</g>
</svg>
