<?xml version="1.0" encoding="UTF-8" standalone="no"?>
<svg xmlns="http://www.w3.org/2000/svg" width="267.538" height="299.737" xmlns:dc="http://purl.org/dc/elements/1.1/" xmlns:cc="http://creativecommons.org/ns#" xmlns:rdf="http://www.w3.org/1999/02/22-rdf-syntax-ns#">
  <metadata>
    <rdf:RDF>
      <cc:Work>
        <dc:format>
          image/svg+xml
        </dc:format>
        <dc:type rdf:resource="http://purl.org/dc/dcmitype/StillImage"/>
        <dc:title/>
      </cc:Work>
    </rdf:RDF>
  </metadata>
  <g fill="#291973" fill-rule="evenodd">
    <path d="M115.34 235.698h-2.496v-9.434l-.348.308-.373.283-.374.27-.4.246-.42.24-.43.21-.44.19-.47.16v-2.28l.5-.19.51-.27.54-.33.56-.41.28-.23.24-.23.23-.24.2-.25.19-.27.16-.27.14-.28.11-.3h2.03v13.11zm6.77-3.025l2.432-.27.052.347.102.297.065.14.07.117.17.206.1.077.11.077.23.116.26.065.28.025.38-.052.17-.052.17-.077.17-.11.16-.13.15-.14.14-.17.13-.21.12-.25.11-.31.09-.35.14-.84.11-1.03-.24.25-.25.23-.27.18-.28.15-.31.13-.31.07-.33.05-.34.02-.38-.02-.37-.05-.35-.09-.34-.15-.33-.17-.31-.2-.29-.25-.28-.28-.27-.3-.22-.32-.19-.36-.08-.18-.08-.2-.06-.19-.06-.21-.09-.42-.05-.45-.01-.46.03-.49.05-.45.09-.44.13-.41.17-.38.21-.37.23-.34.28-.31.29-.3.34-.25.33-.21.37-.17.39-.14.4-.09.43-.05.45-.03.49.03.47.07.22.05.22.06.41.17.4.21.19.13.18.12.35.32.33.36.29.41.26.48.22.54.18.61.14.66.11.74.05.79.03.85-.03.86-.06.79-.1.75-.14.67-.18.62-.12.28-.12.27-.13.26-.14.23-.14.24-.17.2-.17.19-.18.17-.36.33-.19.14-.21.13-.41.22-.45.18-.46.12-.25.05-.24.02-.51.02-.37-.01-.36-.04-.33-.07-.32-.09-.3-.12-.28-.14-.25-.17-.24-.2-.22-.22-.2-.23-.18-.28-.16-.3-.14-.32-.12-.35-.1-.36-.08-.4zm5.636-5.47l-.01-.296-.024-.27-.04-.27-.064-.232-.167-.438-.11-.192-.13-.18-.14-.154-.15-.12-.31-.2-.15-.07-.18-.05-.35-.04-.33.03-.15.05-.14.05-.27.17-.13.12-.11.13-.11.14-.09.18-.14.4-.09.49-.02.58.04.59.09.51.06.22.09.19.11.18.12.17.13.13.13.13.14.1.16.08.17.06.16.06.34.04.35-.04.32-.11.14-.08.14-.09.26-.26.22-.3.09-.19.06-.19.05-.22.04-.23.03-.25.01-.25zm15.38 5.15l2.497-.26.025.207.05.193.13.36.194.323.102.14.13.13.27.218.14.077.156.08.154.05.154.04.168.03h.167l.386-.04.34-.11.15-.09.15-.11.15-.13.13-.15.12-.16.11-.19.09-.2.07-.23.06-.26.04-.27.02-.28.01-.32-.01-.28-.03-.28-.04-.25-.06-.23-.07-.22-.09-.19-.05-.09-.05-.09-.07-.09-.07-.08-.14-.14-.16-.11-.15-.1-.17-.09-.19-.07-.18-.05-.41-.04-.27.01-.26.05-.26.08-.25.1-.23.13-.23.17-.23.19-.22.22-2.02-.29 1.27-6.77h6.62v2.33h-4.71l-.4 2.22.43-.18.42-.13.43-.08.43-.02.41.01.38.07.37.09.36.14.35.17.33.21.31.25.3.28.27.32.13.17.12.17.1.18.09.18.16.38.13.4.09.43.05.45.01.48-.02.4-.04.39-.04.19-.04.2-.1.36-.13.36-.17.33-.18.34-.22.33-.33.41-.18.18-.19.17-.39.3-.44.25-.22.1-.23.09-.49.13-.26.05-.26.04-.55.03-.44-.01-.42-.05-.4-.08-.39-.11-.35-.14-.35-.17-.31-.19-.15-.1-.14-.13-.27-.25-.24-.28-.22-.29-.18-.31-.15-.34-.13-.36-.1-.39-.07-.4zm19.434 3.345h-2.497v-9.434l-.347.308-.36.283-.387.27-.39.246-.41.24-.43.21-.45.19-.45.16v-2.28l.5-.19.51-.27.54-.33.56-.41.27-.23.25-.23.23-.24.2-.25.18-.27.16-.27.14-.28.12-.3h2.02v13.11zm-32.084-92.148l-.31.27-.81.67-.618.476-.734.54-.836.58-.952.604-1.056.644-1.17.643-1.25.644-1.35.61-.734.31-.734.29-1.505.53-.824.25-.81.23-.838.2-.836.2-.89.17-.89.13-.9.1-.94.09-.93.05-.97.01-.97-.01-.99-.05-1.01-.09-1-.13-1.02-.18-1.03-.22-1.03-.26-1.06-.3-1.06-.35-1.07-.4-1.08-.46-1.07-.51-1.08-.56-1.08-.62-1.11-.68-1.1-.73-1.09-.8-1.1-.86-1.1-.91-1.11-1.01-1.09-1.05-1.1-1.12-1.1-1.19-1.09-1.26-1.11-1.37-1.08-1.4 2.1-1.62 1.07 1.36 1.05 1.3 1.05 1.21 1.05 1.13 1.04 1.07 1.04 1 1.04.94 1.03.86 1.02.8 1.02.75 1.01.69 1.02.63.99.57.99.52.98.47.97.41.98.38.95.31.95.28.94.23.93.19.91.16.9.12.9.08.9.05h1.73l.84-.05.85-.08.82-.1.81-.12.78-.14.77-.18.76-.18.76-.22.71-.21 1.44-.5.65-.26.64-.27 1.27-.56 1.17-.6 1.06-.59.98-.59.89-.56.79-.54.67-.49.54-.42.77-.63.24-.22 1.77 1.97zm-48.596-8.392l-.58-.823-.554-.888-.528-.888-.476-.89-.45-.93-.41-.92-.375-.96-.335-.94-.322-.97-.27-.95-.244-.97-.218-.99-.18-.98-.155-.99-.117-.99-.09-1.01-.064-.99-.04-1.02v-1.01l.016-1.02.04-1.02.076-1.02.102-1.01.117-1.01.13-1.03.18-1.02.37-1.98.478-2 .56-1.97.31-.99.34-.98.34-.97.36-.96.36-.95.39-.95.81-1.84.89-1.82.92-1.77.98-1.73 1.01-1.66 1.04-1.58.54-.79.56-.77 1.1-1.46 1.13-1.39 1.14-1.31.59-.63.59-.61.58-.58.61-.57 1.14-1.02 1.76 1.98-1.12 1-.54.5-.54.54-.55.56-.55.58-1.08 1.25-1.07 1.31-1.06 1.42-.51.72-.5.74-1.01 1.52-.96 1.59-.93 1.63-.87 1.7-.85 1.72-.79 1.79-.36.88-.35.91-.35.91-.32.93-.32.94-.29.9-.52 1.9-.45 1.88-.36 1.9-.17.94-.12.97-.12.94-.09.95-.08.95-.04.94v.94l-.01.93.04.94.07.93.08.93.12.92.14.9.17.9.2.9.22.87.26.87.29.87.3.85.33.86.37.83.42.84.42.81.48.79.5.8.55.79-2.17 1.52z"/>
    <path d="M81.917 135.21l-.025-.04-.01-.014 2.175-1.518-.04-.052-2.098 1.622zm12.33-56.485l1.003-.838 1.017-.797 1.004-.773 1.03-.746 2.02-1.4 1.05-.67 1.02-.64 1.03-.61 1.03-.59 2.02-1.09 1.03-.51 1.02-.5 1.01-.46 1.01-.45 1.98-.83 1.97-.76 1.93-.67.96-.32.97-.31 1.84-.51 1.81-.47 1.75-.4 1.7-.36 1.64-.28 1.56-.26 1.49-.2 1.42-.15 1.31-.12 1.25-.09 1.14-.06 1.06-.02h1.77l1.34.06.85.09.41.11.76.61.17.49-2.62.39.16.44.68.59.07.01-.68-.07-1.17-.05h-1.69l-.98.02-1.11.07-1.17.08-1.27.12-1.34.14-1.45.21-1.49.25-1.55.27-1.65.35-1.69.39-1.74.47-1.8.5-.89.28-.91.31-1.85.64-1.9.74-1.91.81-.95.43-.98.45-.98.49-.96.48-1.97 1.07-.97.56-.99.59-.98.62-.98.63-1.97 1.37-.98.71-.97.75-.96.76-.99.82-1.68-2.04z"/>
    <path d="M94.21 78.75l-.105.09.142-.115 1.685 2.046.04-.04-1.763-1.98zm45.982-15.752l.258-.015h.72l1.145.025 1.532.116.926.09.992.116 1.08.154 1.172.206 1.248.23 1.313.285.694.167.722.18 1.453.386 1.507.463 1.595.52 1.64.59 1.7.67 1.75.74 1.8.82 1.84.93 1.88.98 1.91 1.1.96.58.99.61.99.63.99.67 1 .68 1 .71 1 .75 1.03.77 2.03 1.61 1.04.86 1.03.88 1.05.93 1.03.93-1.79 1.96-1.02-.92-1.01-.89-1.02-.86-.98-.81-2.01-1.58-.99-.74-.98-.72-.97-.68-.97-.65-.96-.64-.97-.61-.96-.58-.93-.55-1.84-1.05-1.84-.95-1.75-.89-1.73-.77-1.69-.7-1.63-.64-1.58-.56-1.52-.49-1.44-.45-1.42-.37-.67-.17-.64-.15-1.27-.27-1.19-.22-1.11-.19-1.03-.15-.93-.1-.86-.09-1.45-.11-1.06-.02h-.64l-.19.01-.11-2.65z"/>
    <path d="M138.93 64.516l.18 1.185 1.184-.05-.102-2.65 1.364 1.13-2.625.39zm44.35 17.824l.785.76.786.798.78.836.75.85.71.888.7.9.65.915.65.952.62.97.58.98.55 1 .54 1.03.52 1.03.48 1.04.47 1.08.42 1.07.41 1.09.38 1.1.34 1.11.34 1.12.31 1.13.27 1.13.26 1.16.22 1.14.19 1.14.18 1.16.14 1.17.12 1.17.16 2.3.04 1.18.02 1.12-2.65.02-.01-1.11-.04-1.1-.14-2.22-.12-1.11-.13-1.1-.17-1.1-.2-1.11-.2-1.08-.24-1.1-.26-1.08-.28-1.05-.32-1.07-.32-1.06-.36-1.04-.39-1.03-.4-1-.44-1.02-.45-.99-.49-.97-.5-.97-.53-.95-.54-.91-.58-.92-.59-.88-.61-.86-.64-.84-.66-.82-.69-.79-.71-.77-.72-.74-.76-.74 1.83-1.92z"/>
    <path d="M183.254 82.315l-.024-.024.05.06-1.827 1.92.014.02 1.79-1.95zm13.334 33.488l-.09 1.196-.078.7-.116.73-.128.76-.168.82-.386 1.68-.502 1.81-.295.98-.322.95-.335.99-.387 1.01-.82 2.02-.47 1.04-.49 1.04-.51 1.03-.54 1.04-.58 1.04-.6 1.04-.63 1-.35.52-.34.5-.69.99-.73.98-.77.96-.8.94-.85.9-.86.87-.45.43-.46.42-.9.79-1.75-2 .89-.79.41-.37.4-.39.81-.82.79-.84.74-.86.72-.9.7-.93.66-.94.33-.47.31-.47.61-.97.57-.98.56-.99.52-1 .49-.98.47-.99.44-.95.8-1.97.36-.95.33-.94.31-.91.27-.89.48-1.74.38-1.61.14-.72.13-.72.1-.67.07-.58.08-1.14 2.65.17z"/>
    <path d="M196.588 115.7v.104l-2.65-.168v.09l2.65-.025zm-14.724 29.395l-.514.424-.554.42-1.08.8-1.133.74-1.17.7-1.186.65-.618.31-.63.31-1.23.55-1.28.49-1.28.46-1.3.39-1.3.33-1.31.28-.67.11-.7.1-1.29.15-.7.06-.67.04-1.33.04-1.33-.03-1.33-.09-1.3-.16-.68-.12-.65-.12-.64-.14-.67-.17-1.25-.36-1.24-.44-.64-.26-.62-.27-1.16-.58-.63-.34-.57-.34-.58-.38-.58-.4-1.09-.8-1.06-.91-1.01-.97-.5-.53-.48-.54-.48-.57-.44-.57 2.08-1.63.41.53.42.5.42.49.41.44.93.88.93.8.99.74.47.32.52.33.5.3.51.27 1.08.54.53.23.53.21 1.12.4 1.15.33.57.14.58.13.58.1.55.09 1.2.15 1.21.09 1.19.01 1.22-.02.59-.04.59-.05 1.23-.16.61-.09.58-.09 1.22-.27 1.2-.31 1.18-.35 1.17-.43 1.18-.45 1.16-.53.55-.27.54-.27 1.1-.62 1.07-.65 1.05-.69 1.02-.75.48-.37.49-.4 1.68 2.05z"/>
    <path d="M181.903 145.068l.103-.09-.142.117-1.685-2.048-.03.025 1.75 1.994zm-36.228-3.32l-.193 1.016-.477 2.845-.297 2-.295 2.33-.295 2.61-.142 1.4-.142 1.47-.22 3.06-.09 1.59-.063 1.63-.05 1.66-.02 1.68v1.7l.04 1.72.07 1.72.09 1.72.13 1.72.18 1.72.21 1.71.26 1.68.3 1.67.18.82.18.81.03.23.08.67.16 1.06.24 1.43.17.82.18.9.45 1.99.28 1.09.31 1.15.72 2.42.43 1.26.45 1.3.5 1.33.56 1.35.58 1.36.64 1.38.69 1.39.74 1.38.8 1.39.84 1.36.9 1.35.96 1.34 1.02 1.31 1.07 1.29 1.14 1.25.59.6.61.61-.31-.03-.85-.08-1.33-.2-.81-.14-.91-.18-.97-.23-1.06-.27-1.1-.32-1.15-.39-.59-.22-.6-.23-1.22-.52-.62-.29-.63-.31-1.25-.65-.31-.16-.3-.12-.3-.07-.27-.02-.27.01-.27.04-.26.09-.24.1-.24.14-.24.18-.23.19-.22.22-.22.25-.22.26-.21.28-.21.31-.4.63-.38.69-.39.71-.37.72-.73 1.44-.37.67-.39.63-.38.55-.2.26-.21.23-.21.2-.21.18-.22.15-.22.13-.21.09-.23.06-.23.02-.24-.01-.25-.04-.25-.09-.26-.14-.27-.18-.28-.22-.29-.27-.3-.32-.31-.37-.31-.44-.32-.49-.34-.54-.34-.6-.73-1.39-.77-1.66-.4-.93-.43-1.01-.87-2.24-.06-.14-.21-.36-.17-.22-.19-.2-.25-.2-.3-.14-.32-.09-.19-.02h-.19l-.2.04-.21.05-.48.19-.25.16-.27.18-.28.22-.29.25-.31.31-.32.34-.7.83-.99.69-2.51 1.71-1.6 1.05-1.73 1.08-1.77 1.04-.85.49-.84.45-.79.42-.76.34-.7.28-.63.22-.54.12-.45.04-.19-.01-.17-.06-.13-.07-.11-.1-.06-.13-.05-.17v-.18l.03-.24.05-.26.11-.3.14-.33.18-.36.22-.41.26-.45.67-1.01.85-1.18 1.06-1.37.18-.18.5-.53.79-.88.48-.57.52-.66.59-.75.63-.84.66-.93.7-1 .72-1.09.75-1.18.75-1.26.76-1.37.77-1.45.76-1.51.74-1.62.73-1.7.72-1.79.69-1.88.33-.96.32-.99.31-1.01.31-1.04.3-1.06.28-1.07.53-2.23.49-2.31.2-1.18.2-1.21.18-1.23.16-1.26.28-2.56.12-1.32.09-1.33.07-1.35.05-1.38.06-.77.12-2.11.05-1.44.04-1.66.03-1.84-.01-1.96-.04-2.06-.09-2.1-.14-2.11-.11-1.05-.1-1.03-.13-1.02-.15-.99-.17-.97-.18-.93-.22-.89-.23-.85-.26-.8-.28-.75 8.49-.04 8.5-.02z"/>
    <path d="M145.983 141.812l-.193 1.017-.476 2.83-.283 1.99-.29 2.33-.29 2.61-.14 1.39-.14 1.46-.22 3.06-.09 1.58-.06 1.62-.05 1.66-.02 1.68v1.7l.04 1.72.07 1.71.09 1.72.13 1.71.18 1.72.21 1.7.25 1.67.3 1.67.18.81.18.81-.63.14-.18-.81-.18-.84-.29-1.67-.26-1.71-.2-1.72-.18-1.74-.13-1.73-.09-1.74-.06-1.72-.04-1.74V165l.03-1.7.05-1.66.07-1.632.09-1.595.22-3.06.14-1.48.15-1.405.3-2.61.3-2.33.3-2.04.48-2.843.19-1.02.63.114z"/>
    <path d="M145.327 182.07l.025.23.077.657.14 1.042.24 1.42.16.81.18.9.45 1.99.28 1.07.31 1.14.72 2.42.41 1.25.45 1.3.5 1.32.55 1.33.58 1.35.63 1.36.68 1.38.73 1.37.78 1.37.83 1.36.89 1.34.95 1.32 1 1.31 1.07 1.28 1.13 1.23.58.59.6.6-.45.46-.61-.61-.61-.62-1.15-1.26-1.08-1.29-1.02-1.33-.96-1.34-.9-1.36-.85-1.38-.8-1.4-.74-1.38-.7-1.4-.64-1.39-.58-1.36-.56-1.37-.5-1.33-.45-1.3-.42-1.28-.73-2.42-.31-1.14-.3-1.11-.45-2-.18-.91-.17-.83-.25-1.43-.16-1.08-.08-.67-.02-.23.64-.06z"/>
    <path d="M145.314 182.03l.014.078v-.04l-.644.065v.04l.63-.142zm14.762 33.398l-.322-.025-.862-.08-1.338-.19-.824-.143-.927-.192-.978-.233-1.068-.27-1.12-.322-1.172-.385-.592-.232-.617-.232-1.223-.515-.63-.29-.644-.32-1.25-.66.31-.57 1.23.65.63.31.6.28 1.21.5.6.23.58.21 1.14.38 1.1.31 1.04.27.96.23.9.18.81.14 1.32.19.84.08.31.03-.05.63z"/>
    <path d="M160.32 214.874l.618.605-.862-.06.052-.63-.258.54.45-.47zm-13.81-3.526l-.282-.142-.27-.103-.258-.052-.218-.02-.22.02-.23.03-.22.08-.206.09-.218.13-.232.17-.206.17-.206.22-.206.24-.22.24-.192.27-.193.3-.4.62-.372.68-.38.71-.37.72-.73 1.45-.38.68-.38.65-.39.57-.21.28-.22.23-.22.22-.23.21-.23.17-.25.14-.25.12-.28.08-.27.03-.31-.01-.28-.05-.29-.1-.29-.15-.29-.21-.31-.23-.3-.28-.31-.33-.32-.38-.31-.45-.33-.51-.34-.55-.35-.61-.73-1.39-.79-1.68-.4-.94-.42-1-.87-2.24.59-.24.88 2.24.43 1.01.39.91.77 1.65.73 1.38.34.59.33.54.31.47.3.43.29.36.29.31.28.25.26.2.25.17.22.13.22.06.19.04.18.02.19-.02.18-.05.18-.07.19-.1.19-.14.18-.17.19-.19.2-.22.17-.23.39-.54.37-.63.38-.66.73-1.43.37-.73.39-.71.39-.71.41-.63.21-.32.22-.3.23-.27.23-.26.22-.23.26-.2.27-.19.27-.17.27-.12.3-.1.32-.04.32-.02.31.03.33.08.33.13.32.15-.29.57z"/>
    <path d="M146.82 210.78h-.014l-.296.568.31-.567zm-16.77-1.413l-.05-.13-.193-.334-.142-.18-.168-.18-.206-.168-.23-.116-.27-.07-.13-.02h-.16l-.16.04-.17.02-.45.19-.23.13-.24.16-.27.2-.28.24-.29.31-.31.33-.69.82-.5-.4.71-.85.33-.36.31-.32.31-.27.31-.24.29-.2.3-.17.5-.21.27-.06.24-.04.23-.01.24.02.39.1.35.17.3.23.21.23.19.24.23.39.07.17-.58.27z"/>
    <path d="M130.642 209.11l-.01-.01-.58.27v-.016l.593-.243zm-5.314 1.594l-1.004.708-2.51 1.712-1.61 1.056-1.723 1.08-1.76 1.055-.86.49-.83.45-.81.424-.77.34-.7.28-.65.23-.57.14-.49.04-.28-.03-.2-.07-.2-.11-.18-.16-.1-.21-.08-.25v-.25l.03-.27.07-.29.12-.33.14-.36.2-.37.22-.42.27-.45.67-1.03.86-1.2 1.06-1.38.5.4-1.04 1.36-.85 1.19-.66 1-.26.44-.2.4-.18.34-.13.32-.1.27-.04.22-.02.19v.11l.04.1.01.05.05.04.07.02.13.04.1.01.41-.04.51-.12.61-.22.68-.27.76-.35.79-.41.83-.44.85-.49 1.75-1.05 1.73-1.08 1.58-1.04 2.51-1.71.99-.7.39.51z"/>
    <path d="M125.378 210.654l-.024.04-.025.014-.39-.514-.07.064.5.4zm-11.788.886l.18-.18.503-.515.77-.875.49-.553.515-.643.59-.746.633-.838.66-.926.69-.99.72-1.082.75-1.184.74-1.262.76-1.35.78-1.442.75-1.505.75-1.61.73-1.69.72-1.79.69-1.87.34-.97.32-.99.31-1.02.31-1.03.3-1.06.28-1.06.53-2.23.48-2.29.21-1.17.21-1.21.18-1.23.17-1.25.28-2.57.12-1.3.09-1.34.07-1.34.05-1.38.63.04-.05 1.37-.06 1.35-.09 1.35-.11 1.31-.28 2.57-.17 1.26-.18 1.23-.2 1.21-.21 1.18-.49 2.32-.53 2.24-.28 1.07-.29 1.05-.32 1.05-.3 1.01-.32 1-.33.97-.69 1.89-.72 1.79-.74 1.71-.75 1.62-.76 1.53-.78 1.45-.76 1.37-.74 1.27-.74 1.18-.74 1.1-.7 1.01-.65.93-.64.85-.59.75-.53.67-.5.56-.78.89-.52.52-.18.18-.45-.46z"/>
    <path d="M113.564 211.58l.04-.052-.015.014.45.462.02-.024-.5-.4zm16.626-44.49l.053-.773.117-2.098.05-1.45.04-1.66.025-1.83-.014-1.96-.04-2.05-.09-2.09-.14-2.11-.1-1.03-.1-1.03-.13-1.01-.15-.99-.16-.96-.17-.92-.22-.88-.23-.84-.25-.79-.27-.74.59-.24.29.76.26.81.25.86.22.9.18.94.17.96.16 1 .13 1.01.1 1.03.11 1.05.15 2.12.09 2.1.05 2.07.02 1.95-.04 1.85-.04 1.66-.05 1.45-.12 2.11-.05.77-.63-.05zm0 .01v-.01l.633.053-.632-.04z"/>
    <path d="M128.686 141.49v.644l8.494-.04 8.495-.024v-.643l-8.495.025-8.494.04z"/>
    <path d="M128.39 141.928l-.167-.438h.463v.644l.297-.438-.592.232zm17.285-.5h.385l-.077.384-.63-.116.322.374v-.643z"/>
    <path d="M147.644 79.638l.193.592.192.695.2.9.16 1.08.06.58.02.31.02.31.01.63-.02.656-.04.67-.09.67-.13.68-.19.67-.25.67-.14.34-.16.32-.17.33-.2.31-.43.62-.24.3-.26.3-.29.29-.3.27-.32.27-.34.25-.36.25-.39.23-.41.22-.44.22-.45.2-.49.18-1.05.33-.55.14-.6.12-.62.11-.65.09-.67.06-.71.05.17 8.68.17 8.69.06.18.16.42.11.24.13.24.13.22.15.17.16.09.07.03.07-.02.07-.04.09-.06.08-.1.07-.14.15-.38.06-.27.08-.31.06-.36.06-.41.11-.99.35-.62.94-1.67 1.41-2.42.84-1.39.9-1.45.97-1.51.99-1.49 1-1.45 1.03-1.38.99-1.26.49-.56.48-.53.46-.48.45-.44.44-.36.41-.31.32-.19.34-.15.34-.13.35-.09.36-.06.33-.04h.35l.32.02.3.05.29.07.25.11.2.13.18.15.13.17.09.2.03.21-.53.49-1.41 1.34-.94.94-1.04 1.09-1.11 1.21-1.15 1.33-.57.7-.56.71-.56.72-.55.75-.51.75-.51.76-.46.75-.43.76-.4.77-.36.76-.31.75-.26.75-.21.73-.14.72-.08.69v.69l1.89-1.75 2-1.79 1.14-1 1.21-1.03 1.23-1.02 1.24-.98 1.19-.9 1.13-.8.53-.34.5-.29.46-.26.44-.22.39-.15.35-.11.3-.04.24.03 1.66-.82-.09-.18-.22-.49-.27-.72-.11-.42-.12-.45-.08-.46-.03-.24-.01-.24.01-.49.02-.23.05-.24.07-.23.07-.23.1-.22.11-.22.16-.2.16-.21.19-.18.22-.16.28-.27.36-.28.24-.16.27-.19.66-.38.8-.4.46-.19.49-.18.54-.17.56-.16.61-.13.65-.12.34-.04.34-.04.72-.05.75-.02.8.02.84.07.86.1.92.15.94.22.98.26 1.03.34 1.06.39 1.1.45 1.15.53 1.17.6.99.67 1.02.73 1.18.92.61.51.61.51.57.53.53.53.48.51.39.5.28.48.106.23.06.21.09 2.25-.78-.05-.85-.03h-1.03l-1.13.08-.29.04-.28.04-.55.1-.54.13-.5.17-.46.19-.41.25-.25.28-.71.74-.5.49-.62.56-.7.59-.78.62-.86.63-.94.61-.5.3-.52.28-.526.29-.54.26-.553.25-.57.22-.58.21-.59.18-.604.16-.62.13-.63.09-.63.06-.377-.06-.42-.09-.53-.14-.62-.2-.68-.24-.71-.32-.72-.38-.69-.45-.32-.27-.33-.27-.29-.31-.27-.32-.23-.36-.22-.38-.18-.4-.14-.43-.106-.45-.05-.48v-.5l.04-.54.04-.27.06-.28.16-.59.12-.28.08-.26-.02-.23-.05-.09-.07-.06-.14-.02-.19.03-.26.08-.32.14-.4.22-.49.31-.61.36-.7.44-.93.58-2.31 1.53-1.3.92-1.36.99-1.35 1.06-.68.54-.66.55-.63.57-.62.57-.59.57-.55.57-.52.56-.48.57-.42.56-.36.56-.31.54-.24.53-.18.51-.07.26-.04.25-.11.13-.33.37-.45.58-.51.79-.26.46-.26.5-.23.53-.21.57-.17.6-.13.63-.08.66-.01.34v.33l.02 1.66.02 2.1.02 4.695.02 5.7.063-.01.19-.05.29-.17.384-.31.22-.23.23-.29.24-.35.27-.42.26-.5.28-.57.27-.66.29-.76.32-.58.89-1.56.62-1.05.75-1.2.824-1.32.93-1.36.99-1.42 1.04-1.42 1.11-1.39.57-.67.58-.65.58-.63.58-.59.59-.57.59-.53.59-.47.59-.45.6-.39.6-.33.8-.63 1.94-1.48 1.19-.89 1.24-.86 1.19-.78.55-.32.51-.29.13-.02.34-.03.46-.01.24.03.26.04.25.06.22.11.19.14.09.09.068.094.1.23.024.13.01.15-.02.33-.12.41-.62.46-.74.57-.94.76-1.15.93-1.27 1.08-1.41 1.22-1.47 1.35-1.5 1.44-1.5 1.53-.75.79-.72.8-.71.82-.68.82-.65.83-.62.84-.58.84-.54.85-.49.83-.44.82-.386.82-.32.82-.17 2.4-.83.84v.91l.27-.16.73-.42 1.07-.605 1.28-.67 1.35-.67.67-.3.64-.26.59-.21.55-.14.25-.05.22-.03h.19l.18.03.335-5.26.14-.2.39-.52.58-.74.36-.41.378-.41.41-.41.43-.4.43-.36.45-.31.44-.26.44-.17.41-.076h.2l.2.03 7.23.04.45.18 1.2.53.81.4.92.5.49.28.5.31 1.04.68.53.39.53.41 1.04.89.5.49.5.515.47.54.46.57.436.59.41.62.37.66.35.67.31.71.27.73.214.76.09.39.09.4.08 3.5-.84-.18-.86-.17-.5-.08-.52-.08-.53-.06-.53-.05-.52-.02-.47.01-.22.01-.202.015-.2.04-.18.04-.16.05-.14.06-.12.07-.09.09-1.04.81-.53.39-.62.44-1.42.96-.77.48-.8.47-.83.43-.81.4-.42.18-.4.17-.77.26-.74.18-.69.07-.33-.04-.87-.14-.59-.13-.67-.17-.73-.22-.76-.28-.37-.17-.39-.18-.75-.41-.38-.24-.34-.26-.35-.27-.33-.31-.31-.32-.3-.33-.26-.37-.11-.2-.12-.206-.22-.41-.16-.45-.14-.48-.1-.49.25-2.17.21-.21.18-.2.13-.23.03-.1-.01-.09-.04-.07-.1-.06-.16-.04h-.22l-.3.04-.39.06-.39.14-1.05.42-.7.31-.8.37-.84.45-.89.512-.89.59-.44.31-.44.33-.41.36-.41.36-.38.386-.38.4-.35.41-.3.44-.3.45-.24.46-.22.47-.18.5-.13.51-.09.53-.04.27-.06.25-.08.22-.09.21-.12.21-.15.17-.14.17-.17.15-.16.13-.19.12-.42.2-.46.16-.52.11-.56.06-.59.01-.62-.02-.63-.05-.67-.09-.67-.11-.67-.13-.69-.16-1.36-.35-1.3-.4-1.21-.4-1.09-.38-.91-.36-.69-.28-.62-.25-.53-.33-1.21-.71-.68-.36-.62-.28-.27-.1-.23-.08-.2-.01-.12.02-.05.02-.04-.02-.1-.08-.27-.37-.22-.28-.3-.33-.4-.37-.5-.41-.62-.42-.37-.22-.42-.22-.45-.24-.49-.22-.54-.23-.58-.22-.63-.22-.68-.2-1.54-.41-.85-.19-.92-.18-.98-.18-1.05-.16-.02.23-.12.63-.1.42-.14.49-.18.53-.22.564-.27.58-.17.3-.17.29-.4.59-.22.28-.23.28-.26.27-.27.26-.29.25-.31.25-.33.22-.35.205-.37.18-.4.17-.35.06-.94.12-.65.05-.76.04h-.85l-.915-.04-.98-.09-1-.15-1.02-.23-.51-.14-.51-.18-.51-.2-.5-.22-.51-.24-.49-.27-.48-.31-.46-.33-.44-.37-.22-.2-.22-.21-.09-.12-.3-.29-.24-.18-.3-.19-.37-.19-.45-.19-.54-.17-.62-.14-.7-.09-.8-.05-.9.01-.47.04-.52.05-1.12.17-1.22.27.01-.26.08-.73.05-.244.05-.27.16-.62.22-.69.3-.78.374-.85.49-.93.59-.98.336-.5.373-.51.41-.53.44-.54.47-.55.51-.55.56-.57.59-.57.64-.57.68-.58.62-.3.73-.3.95-.36.55-.18.61-.18.63-.18.68-.153.69-.14.73-.13.76-.09.77-.06.8-.02.8.02.794.08.81.13.8.18.8.25.4.15.38.17.78.39.37.22.38.24.36.27.36.29.35.31.35.34.34.36.33.39.31.4.31.434.29.45.29.48.27.52.26.53.25.58.23.59 9.82 3.67-.5-.89-.6-1.01-.836-1.33-1.04-1.58-1.23-1.78-.68-.95-.73-.98-1.58-2-.85-1.01-.89-1.02-.91-1-.97-.99-.98-.98-1.02-.94-1.054-.91-1.07-.86-1.1-.83-1.12-.76-.58-.34-.56-.35-1.17-.62-1.19-.555-1.19-.46-.6-.19-.61-.18-1.22-.27-.06-.15-.11-.36-.03-.22v-.24l.05-.23.05-.1.06-.1.09-.11.11-.09.13-.08.14-.06.18-.04.21-.04h.5l.65.08.37.08.41.1.96.294.53.2.59.23.72.26.85.33 1.14.5 1.39.68.77.41.82.46.88.51.9.56.95.62.49.33.5.35 1 .75 1.04.8 1.06.86 1.08.93 1.1 1 .54.53.55.54 1.09 1.13.554.59.55.62 1.09 1.29.55.67.54.68 1.08 1.44.53.76.53.76 1.05 1.61 1.01 1.69.99 1.77.96 1.86v-.3l.01-.826-.05-1.3-.04-.81-.08-.92-.1-.99-.14-1.07-.18-1.14-.22-1.21-.27-1.26-.33-1.32-.38-1.35-.44-1.39-.52-1.41-.284-.72-.31-.71-.32-.72-.35-.72-.74-1.45-.4-.72-.42-.7-.45-.71-.48-.71-1.01-1.4-.55-.68-.58-.68-.59-.67-.63-.653-.65-.652-.69-.63-.705-.62-.75-.62-.77-.6-.8-.57-.82-.57-.87-.54-.89-.52-.93-.51-.97-.49-1.01-.45-1.03-.44-1.065-.41-.01.17-.09.46-.06.31-.09.36-.28.82-.19.45-.1.22-.12.23-.27.468-.32.45-.36.44-.43.41-.46.378-.54.34-.247.13-.72.26-.53.14-.32.06-.34.06-.36.04-.39.04-.86.01-.48-.01-.49-.04-1.06-.16-.57-.13-.59-.14-.62-.2-.64-.22-.67-.26-.68-.3-.71-.35-.73-.39-.76-.43-.77-.49-.8-.54-.81-.61-.14-.11-.18-.13-.25-.165-.31-.19-.385-.22-.45-.21-.52-.22-.59-.19-.66-.16-.72-.13-.8-.07-.41-.03-.44-.017-.93.04-.99.11-.52.09-.54.11-.06-.06-.08-.09-.08-.13-.08-.18-.06-.23-.02-.13-.026-.15v-.34l.04-.4.1-.46.17-.526.24-.59.35-.68.43-.76.56-.84.68-.91.4-.49.45-.5.49-.5.54-.52.57-.5.62-.5.65-.49.67-.49.7-.477.73-.45.76-.44.79-.42.8-.39.82-.38.83-.32.83-.31.86-.252.87-.22.86-.18.87-.13.86-.09.88-.02.85.024.86.08.84.14.84.22.81.27.4.17.4.18.39.21.39.22.75.49.73.58.34.32.35.33.16.14.16.15.21.23.22.3.24.36.24.428.104.237.118.24.1.27.09.28.08.3.08.31.05.32.04.35.02.36v.3l-.03.38-.04.4-.06.423-.11.42-.27.91-.18.48-.22.49.55.26 1.45.67 2.1 1.02 1.2.61 1.25.64 1.27.67 1.25.71 1.2.71 1.11.69.99.68.42.34.4.32.35.32.28.3.23.3.1.13.08.14.19.33.04.04-.01-.06-.1-.32-.24-.59-.8-1.8-1.12-2.36-1.27-2.55-.65-1.25-.66-1.17-.63-1.04-.3-.46-.29-.42-.27-.36-.26-.31-.23-.24-.21-.18-.2-.14-.17-.16-.31-.32-.24-.35-.17-.35-.11-.35-.05-.34-.01-.16.01-.15.06-.285.06-.13.07-.12.08-.1.1-.09.11-.07.12-.06.14-.04.14-.024h.17l.17.03.38.1.21.09.22.12.49.32 1.85 2.15.91 1.09 1.04 1.25 2.33 2.87 1.24 1.57 1.24 1.59 1.23 1.64 1.16 1.6 1.07 1.57.97 1.49.43.71.39.68.35.66.29.6V94.5l-.55-.09-.63-.15-.81-.214-.94-.3-.5-.2-.51-.22-.53-.245-.54-.28-.528-.31-.53-.33-.52-.37-.5-.42-.47-.45-.45-.49-.41-.53-.375-.58-.33-.62-.27-.67-.13-.34-.104-.37-.155-.76-.05-.4-.04-.41-.02-.44v-.44l.02-.46.04-.46.06-.49.08-.49.23-1.04.16-.54.16-.55.09-.19.24-.54.42-.78.28-.46.32-.5.37-.52.42-.54.46-.53.5-.53.28-.25.28-.26.6-.47.65-.44.35-.19.36-.19.11-.04.28-.16.2-.14.23-.19.24-.23.28-.31.29-.36.29-.44.16-.24.15-.27.29-.59.3-.67.284-.79.26-.86.24-.98.19-.19.23-.16.27-.18.32-.14.15-.04.17-.02.15.01.154.05.15.09.14.13.09.27.31.78.26.55.33.64.41.74.51.81.61.87.72.94.82.99.47.52.49.52 1.07 1.07 1.21 1.1 1.35 1.09.73.56.77.57z"/>
    <path d="M147.94 79.535l.205.606.194.72.2.92.17 1.08.07.61.02.32.02.31.01.64-.02.67-.04.7-.11.7-.13.7-.18.68-.26.7-.16.37-.16.32-.17.34-.21.34-.44.63-.26.32-.27.31-.3.29-.3.28-.35.29-.34.25-.39.26-.39.25-.43.22-.45.23-.48.2-.5.2-1.06.33-.57.14-.62.13-.62.1-.66.09-.69.07-.71.05-.06-.63.7-.05.66-.06.63-.09.62-.1.58-.11.54-.15 1.01-.31.47-.18.43-.18.43-.22.4-.21.37-.23.34-.23.32-.23.31-.26.28-.27.28-.27.25-.28.23-.29.41-.59.18-.3.16-.31.15-.31.13-.31.24-.65.16-.64.13-.67.09-.64.04-.66.01-.65-.02-.61-.03-.29-.03-.29-.07-.57-.17-1.07-.21-.88-.18-.68-.2-.57.6-.22z"/>
    <path d="M137.978 94.49l-.643.01.167 8.674.168 8.688.642-.015-.166-8.687-.168-8.674z"/>
    <path d="M137.618 94.18l-.283.026v.296l.643-.01-.295.322-.065-.63zm.682 17.58l.052.168.154.4.103.22.11.217.11.194.09.11.1.05-.07-.01h-.03l.04-.02.04-.07.05-.09.14-.36.06-.25.08-.3.05-.35.06-.4.11-.99.63.09-.12.99-.07.42-.07.37-.08.32-.08.29-.17.41-.11.18-.11.15-.16.1-.16.08-.16.02-.22-.05-.22-.13-.21-.23-.16-.24-.14-.27-.12-.26-.16-.42-.06-.2.62-.2z"/>
    <path d="M137.67 111.865v.05l.015.04.617-.194.01.09-.643.02zm1.956-1.675l.347-.616.94-1.686 1.415-2.42.863-1.39.9-1.455.97-1.518.99-1.493 1.02-1.467 1.02-1.364 1.01-1.27.49-.58.49-.53.47-.49.47-.43.45-.37.43-.32.39.52-.41.31-.41.35-.45.43-.45.48-.48.52-.47.57-.99 1.25-1.01 1.35-1 1.46-.99 1.48-.95 1.51-.9 1.46-.85 1.38-1.41 2.42-.94 1.68-.35.62-.55-.32z"/>
    <path d="M139.587 110.308l.015-.065.025-.052.553.33.04-.11-.63-.09zm12.303-17.543l.335-.206.36-.17.386-.14.38-.09.39-.08.36-.04h.36l.35.02.34.06.32.07.29.11.25.15.23.18.17.22.13.27.04.25-.64.07-.01-.16-.06-.12-.09-.12-.13-.09-.15-.11-.21-.09-.25-.05-.25-.05-.29-.03h-.32l-.32.04-.32.06-.32.07-.32.11-.29.14-.31.19-.33-.56z"/>
    <path d="M151.865 92.778l-.01.01.04-.025.334.554.02-.025-.39-.515zm4.582.9l-.528.49-1.41 1.338-.93.94-1.05 1.08-1.11 1.21-1.14 1.326-.57.683-.57.707-.54.708-.56.746-.52.747-.49.746-.46.74-.43.74-.4.76-.35.74-.31.73-.24.72-.21.72-.14.69-.07.66v.67h-.65v-.7l.08-.74.14-.73.22-.76.25-.76.32-.77.36-.78.42-.79.44-.77.47-.76.5-.77.51-.75.57-.76.56-.72.57-.71.58-.71 1.15-1.34 1.1-1.21 1.06-1.1.94-.95 1.4-1.33.53-.49.45.46z"/>
    <path d="M156.55 93.408l.024.156-.13.114-.45-.463-.09.27.643-.077zm-12.613 17.954l1.892-1.75 1.99-1.79 1.14-1.016 1.21-1.03 1.25-1.016 1.23-.98 1.19-.912 1.13-.798.54-.36.51-.297.47-.27.46-.23.41-.155.38-.116.36-.052.27.024-.07.643-.21-.025-.24.04-.31.09-.36.142-.42.206-.45.258-.51.283-.52.35-1.12.79-1.19.9-1.24.98-1.22 1.01-1.21 1.03-1.13 1.01-2 1.79-1.89 1.75-.44-.47z"/>
    <path d="M143.834 111.595v.746l.54-.5-.437-.47.54.24h-.643zm14.414-10.94l.283.58 1.67-.824-.28-.58-1.66.83z"/>
    <path d="M158.35 101.26l.104.014.077-.04-.28-.58.17-.04-.06.644zm1.417-.992l-.103-.192-.22-.503-.28-.734-.118-.45-.128-.48-.077-.48-.02-.27-.01-.27.02-.52.03-.26.07-.27.06-.26.09-.25.12-.26.13-.23.17-.22.2-.25.21-.2.25-.18.39.51-.21.15-.18.17-.14.18-.13.16-.1.19-.09.19-.07.2-.05.2-.05.23-.02.19v.68l.02.22.08.46.12.42.1.4.27.7.21.46.09.18-.57.29z"/>
    <path d="M160.192 100.41l.295-.142-.154-.296-.566.296.142-.437.28.58zm-.104-6.358l.285-.282.384-.297.246-.167.295-.206.67-.4.81-.398.49-.206.488-.18.567-.18.58-.155.616-.12.65-.11.34-.05.36-.04.73-.05.76-.02.81.03.85.07.89.11.92.16.94.22 1 .26 1.04.35 1.05.39 1.12.45 1.16.54 1.17.6-.28.58-1.17-.6-1.14-.53-1.08-.44-1.06-.38-1.01-.33-.97-.24-.93-.22-.9-.15-.85-.1-.82-.07-.77-.02-.74.02-.71.05-.35.04-.31.04-.65.12-.59.13-.54.14-.53.17-.49.18-.43.18-.79.39-.64.38-.26.18-.23.15-.35.27-.27.27-.44-.48z"/>
    <path d="M160.5 94.542l.08-.052-.053.04-.44-.477.026-.025.385.516zm18.88-.182l.99.67 1.032.734 1.183.927.63.51.62.53.565.53.54.54.49.53.398.53.31.51.115.29.077.22-.618.2-.065-.19-.076-.19-.27-.43-.36-.47-.46-.5-.53-.52-.55-.52-.6-.51-.6-.49-1.17-.91-1.02-.72-.99-.67.38-.53z"/>
    <path d="M179.34 94.336l.04.024-.372.528.05.025.284-.58zm7.004 6.59l-.645.023.09 2.25.64-.03-.09-2.25z"/>
    <path d="M186.33 100.848l.015.04v.04l-.645.023.015.09.618-.19zm-.244 2.662l-.785-.05-.82-.024h-1.01l-1.12.076-.25.04-.28.04-.54.09-.51.13-.47.153-.42.18-.4.232-.34-.54.44-.258.49-.21.54-.18.55-.13.57-.11.3-.04.3-.04 1.15-.08 1.06-.02.86.04.8.05-.05.63z"/>
    <path d="M186.434 103.176l.01.362-.36-.025.052-.63-.35.322.645-.025zm-6.924 1.146l-.246.297-.72.73-.502.49-.618.56-.707.59-.798.63-.88.64-.96.6-.51.31-.53.28-.54.28-.54.27-.58.24-.58.22-.59.21-.61.18-.62.15-.65.14-.64.09-.63.07-.08-.64.62-.07.62-.09.6-.13.59-.15.58-.17.57-.21.56-.22.54-.23.52-.26.52-.28.5-.27.49-.3.92-.59.85-.62.77-.62.69-.58.6-.56.5-.49.7-.72.23-.29.47.43z"/>
    <path d="M179.098 103.833l-.04.025-.024.024.476.438-.064.052-.348-.54zm-12.11 7.504l-.374-.077-.425-.09-.55-.143-.65-.193-.7-.256-.72-.335-.75-.4-.72-.463-.35-.282-.34-.283-.31-.323-.28-.334-.25-.387-.23-.39-.2-.42-.16-.46-.12-.47-.06-.51v-.54l.04-.56.04-.28.08-.3.15-.61.62.18-.16.6-.07.26-.04.25-.04.53v.45l.05.45.1.41.13.4.17.37.2.35.2.34.26.3.28.31.31.26.29.25.68.44.69.37.68.31.67.25.6.18.51.14.4.09.36.06-.11.63z"/>
    <path d="M167.09 111.337l-.064.014-.04-.01.117-.63h-.09l.077.63zm-6.91-8.187l.102-.257.064-.193-.015-.13.07.093h.01-.01l-.13.014-.21.065-.29.13-.37.218-.49.295-.35-.54.5-.31.42-.232.35-.154.3-.09.27-.03.26.02.18.11.16.28.02.33-.09.32-.13.31-.58-.27z"/>
    <path d="M160.165 103.19v-.024l.015-.01.578.27.025-.052-.62-.18zm-1.273.192l-.617.362-.696.436-.92.58-2.31 1.53-1.29.903-1.37.99-1.35 1.056-.67.52-.65.55-.63.56-.62.55-.6.56-.54.56-.5.55-.48.55-.41.55-.35.52-.3.52-.23.5-.17.47-.07.23-.04.24-.63-.11.04-.25.07-.3.19-.54.25-.55.31-.57.37-.57.43-.58.49-.58.52-.58.55-.58.59-.57.63-.57.63-.57.66-.56.7-.54 1.35-1.06 1.38-1 1.3-.91 2.31-1.53.92-.59.69-.44.62-.36.35.54zm0 0l-.347-.54.347.54z"/>
    <path d="M144.053 116.91l-.116.116-.308.36-.44.565-.5.78-.25.44-.26.49-.22.52-.2.53-.17.59-.13.61-.07.63-.01.31v.34h-.65v-.33l.01-.36.08-.68.13-.64.18-.63.22-.59.23-.55.27-.52.27-.47.51-.8.46-.59.34-.4.13-.13.46.45z"/>
    <path d="M144.13 116.74l-.014.105-.065.064-.46-.46-.09.17.63.11zm-2.728 6.424l.025 1.66.01 2.098.025 4.698.014 5.7h-.644l-.015-5.7-.024-4.698-.01-2.085-.025-1.66.644-.015z"/>
    <path d="M140.758 123.164v.014l.644-.014h-.644zm.362 13.834h.014l.154-.04.23-.128.362-.283.194-.22.218-.256.23-.33.26-.41.257-.49.27-.54.27-.65.28-.76.59.23-.29.78-.29.68-.29.58-.27.52-.29.44-.26.37-.25.3-.24.26-.43.34-.35.19-.25.07-.12.03-.06-.64z"/>
    <path d="M140.835 137.32v.36l.347-.04-.063-.643.36.322h-.65zm3.037-4.478l.323-.592.887-1.558.63-1.054.747-1.198.82-1.326.93-1.364 1-1.428 1.04-1.416 1.12-1.402.56-.682.58-.657.59-.63.58-.605.6-.567.59-.54.6-.477.6-.462.62-.4.59-.334.32.553-.58.335-.58.372-.58.44-.58.463-.58.526-.59.55-.57.59-.58.62-.58.65-.56.65-1.11 1.39-1.03 1.4-.99 1.41-.93 1.35-.81 1.31-.75 1.19-.62 1.04-.89 1.56-.32.58-.56-.32z"/>
    <path d="M143.86 132.88l.01-.05v.014l.553.323.025-.052-.592-.233zm13.41-16.705l.81-.642 1.944-1.48 1.185-.888 1.23-.864 1.19-.78.58-.33.51-.28.31.57-.52.28-.54.31-1.18.78-1.24.86-1.17.88-1.94 1.48-.8.64-.4-.5z"/>
    <path d="M157.63 116.703l.025-.014.015-.02-.4-.51.04-.03.323.55zm7.207-5.83l.142-.04.36-.024.47-.02.28.02.28.05.28.08.28.13.23.16.13.14.1.12.11.28.05.2.01.18-.04.4-.12.44-.62-.18.1-.38.02-.3-.01-.11-.02-.05-.08-.19-.04-.04-.04-.05-.15-.1-.17-.08-.21-.05-.22-.04-.22-.03-.44.01-.32.02-.1.02-.11-.63z"/>
    <path d="M164.735 110.898l.025-.014.077-.015.103.63.102-.04-.307-.57zm2.585 2.292l-.616.463-.734.566-.927.74-1.144.93-1.27 1.08-1.41 1.22-1.47 1.34-1.51 1.44-1.5 1.53-.75.77-.72.79-.7.82-.69.81-.64.81-.62.83-.57.82-.54.83-.48.82-.44.81-.38.81-.32.81-.61-.22.33-.84.38-.85.45-.84.49-.85.55-.85.58-.85.63-.85.66-.82.69-.84.71-.84.72-.8.76-.79 1.5-1.55 1.51-1.44 1.48-1.35 1.4-1.22 1.27-1.09 1.16-.93.94-.76.73-.57.62-.46.4.5z"/>
    <path d="M167.438 113.023l-.025.102-.09.065-.4-.502-.1.154.617.18zm-17.465 19.162l-.643-.04-.168 2.407.644.04.167-2.408z"/>
    <path d="M149.343 132.056l-.01.025v.07l.642.04-.024.09-.6-.22zm.36 2.742l-.45-.463-.837.836.45.47.837-.83z"/>
    <path d="M149.806 134.593l-.015.114-.08.09-.45-.462-.09.218.65.04zm-1.48.81h.643v.914h-.65v-.913z"/>
    <path d="M148.416 135.17l-.09.092v.142h.643l-.11.23-.45-.463zm.064.876l.27-.166.734-.426 1.08-.618 1.288-.67 1.352-.667.682-.31.656-.26.618-.22.566-.14.283-.07.23-.03h.23l.19.02-.07.64-.17-.03h-.16l-.21.02-.21.05-.53.13-.58.2-.63.24-.65.29-1.35.67-1.26.66-1.07.6-.72.42-.27.17-.34-.56z"/>
    <path d="M148.326 136.317v.58l.488-.297-.334-.554.49.27h-.644zm7.992-3.514l.63.052.335-5.25-.63-.052-.335 5.25z"/>
    <path d="M156.6 133.15l.323.04.025-.335-.63-.052.347-.295-.064.643zm.103-5.75l.156-.22.38-.515.59-.76.36-.425.38-.412.41-.424.45-.412.43-.374.46-.32.47-.27.49-.194.46-.09h.27l.22.025-.08.64-.21-.03h-.14l-.35.06-.39.15-.42.23-.42.29-.41.35-.42.38-.4.41-.37.39-.35.41-.58.73-.38.5-.14.2-.52-.37z"/>
    <path d="M156.653 127.553v-.09l.05-.064.528.37.06-.17-.63-.05zm5.572-4.543v.642l7.234.04v-.645l-7.24-.04z"/>
    <path d="M162.186 123.652h.04v-.643h.04l-.078.64zm7.374-.578l.477.18 1.21.54.824.4.92.502.5.295.51.31 1.06.7.54.39.53.43 1.07.9.51.49.52.53.49.56.48.58.44.61.42.63.39.67.35.68.33.74.28.76.22.76.09.42.09.4-.63.13-.09-.4-.08-.36-.21-.74-.26-.71-.3-.69-.34-.65-.36-.63-.41-.6-.42-.59-.45-.55-.48-.54-.49-.5-.49-.47-1.03-.87-.51-.41-.52-.37-1.03-.68-.49-.29-.47-.28-.91-.5-.79-.39-1.19-.52-.44-.17.22-.6z"/>
    <path d="M169.46 123.047h.038l.064.025-.218.605.116.015v-.645zm12.314 12.523l-.643.015.08 3.5.65-.014-.07-3.5z"/>
    <path d="M181.76 135.506l.016.064-.643.015v.052l.63-.13zm-.308 3.874l-.824-.167-.86-.168-.49-.077-.527-.077-.51-.06-.51-.05-.5-.02-.45.02-.21.02-.19.02-.16.03-.15.04-.13.04-.1.06-.07.04-.06.06-.45-.46.12-.1.16-.09.18-.09.2-.06.2-.04.22-.04.22-.01.25-.01.5-.01.52.03.54.05.53.06.54.08.5.08.86.17.85.18-.14.62z"/>
    <path d="M181.85 139.07l.01.4-.41-.09.142-.618-.386.322.643-.015zm-6.202 0l-1.043.812-.527.385-.63.45-1.417.966-.78.476-.8.49-.83.43-.82.41-.44.18-.41.18-.78.26-.78.19-.69.07-.07-.63.66-.08.72-.18.75-.25.39-.17.4-.17.8-.4.81-.43.79-.48.77-.47 1.4-.97.62-.44.52-.37 1.04-.81.4.5z"/>
    <path d="M175.674 139.045l-.025.024-.4-.51-.03.01.45.46zm-10.076 5.34l-.35-.04-.887-.14-.6-.143-.68-.167-.74-.218-.77-.297-.38-.167-.4-.193-.76-.412-.39-.258-.36-.27-.36-.283-.33-.322-.32-.335-.31-.347-.27-.385-.12-.22-.11-.218-.23-.424-.18-.477-.14-.51-.1-.5.62-.14.11.47.13.45.15.42.22.39.1.19.11.18.25.36.29.31.29.32.31.29.33.26.34.24.36.23.74.4.36.18.36.15.75.28.71.21.66.16.57.13.88.14.32.04-.07.63z"/>
    <path d="M165.675 144.386h-.08l.078-.63h-.077l.077.63zm-8.933-6.436l.63.092.246-2.175-.63-.09-.246 2.174z"/>
    <path d="M156.755 138.067l-.015-.077v-.04l.63.09v-.115l-.617.14zm.322-2.484l.194-.194.16-.17.11-.2v.01l.01.06.03.02.02.01-.08-.03h-.15l-.27.04-.38.06-.11-.63.39-.07.34-.04h.27l.24.05.22.13.11.19.03.23-.05.22-.16.28-.2.23-.22.22-.45-.47z"/>
    <path d="M156.987 135.776l.015-.116.077-.077.45.463.09-.18-.63-.09zm-.245-.566l-.373.13-1.06.423-.67.31-.79.36-.84.45-.88.502-.88.593-.43.295-.44.334-.39.348-.41.347-.38.387-.36.38-.35.4-.3.42-.29.42-.23.43-.21.46-.17.46-.13.49-.09.52-.63-.12.09-.54.14-.54.19-.53.22-.51.26-.49.3-.46.32-.45.36-.43.38-.41.39-.4.42-.36.42-.37.44-.34.45-.33.9-.61.9-.52.85-.46.81-.38.7-.33 1.05-.43.4-.14.22.6z"/>
    <path d="M156.576 134.593h-.04l-.014.01.218.605-.05.01-.117-.63zm-9.446 9.097l-.04.284-.065.27-.09.258-.104.23-.14.246-.15.18-.15.193-.19.17-.19.16-.22.13-.46.22-.49.17-.55.12-.58.07-.61.02-.64-.01-.64-.05-.68-.09-.68-.1-.68-.14-.68-.15-1.37-.34-1.31-.4-1.22-.4-1.09-.4-.92-.36-.69-.28-.61-.26.24-.59.62.26.7.29.92.36 1.08.39 1.21.4 1.29.39 1.35.35.67.16.65.13.67.1.66.09.6.05h1.18l.52-.06.49-.1.43-.14.4-.19.15-.09.15-.11.16-.13.12-.14.13-.15.1-.18.08-.17.07-.19.05-.21.04-.27.63.1z"/>
    <path d="M146.498 143.587l.63.104v.02l-.63-.11zm-14.735-.23l-.515-.335-1.21-.695-.67-.36-.605-.27-.23-.09-.207-.078h-.09l-.064.01-.155-.62.155-.03.296.01.27.09.295.11.632.28.695.37 1.222.7.528.33-.347.54z"/>
    <path d="M131.813 143.382l-.024-.015-.03-.015.34-.54-.05-.025-.25.59zm-3.616-1.84l-.116.024-.24-.064-.18-.142-.28-.374-.2-.27-.28-.322-.38-.36-.47-.4-.6-.41-.36-.207-.4-.218-.44-.22-.48-.22-.54-.23-.56-.21-.61-.22-.67-.21-1.54-.41-.83-.2-.9-.17-.98-.18-1.04-.16.1-.63 1.06.15.98.18.93.18.86.19 1.56.41.7.21.63.21.59.22.55.24.51.22.47.23.41.23.4.23.63.43.51.44.41.38.33.35.22.29.27.36.03.02-.17-.03H128l.22.6z"/>
    <path d="M128.017 140.924l-.04.015.218.6h-.024l-.15-.62zm-11.597-4.814l-.04.258-.115.63-.104.45-.14.49-.19.553-.22.58-.28.6-.18.32-.16.31-.41.61-.23.3-.24.3-.27.29-.27.27-.31.25-.32.26-.36.23-.36.22-.38.19-.42.17-.24-.59.39-.15.36-.18.32-.19.32-.2.3-.23.29-.23.26-.26.25-.25.22-.26.2-.27.4-.58.16-.28.16-.28.27-.55.21-.55.18-.52.14-.47.09-.41.12-.62.03-.21.64.07z"/>
    <path d="M116.15 135.763l-.334-.052-.04.34.643.07-.38.29.1-.63zm-4.825 7.62l-.348.063-.952.116-.67.052-.77.04h-.864l-.93-.04-1-.09-1.01-.155-1.03-.25-.54-.14-.53-.18-.52-.21-.52-.22-.51-.26-.5-.29-.5-.31-.47-.35-.45-.39-.23-.21-.22-.21.45-.45.22.19.21.18.43.37.45.32.46.29.48.26.49.24.48.2.5.2.52.18.49.13.99.23.99.15.96.09.89.04h.84l.75-.04.65-.05.92-.12.34-.07.12.63z"/>
    <path d="M111.39 143.357l-.065.024-.116-.63-.07.02.24.59zm-12.69-3l-.065-.09-.282-.283-.22-.154-.283-.18-.348-.18-.424-.18-.515-.167-.59-.13-.683-.09-.76-.05-.89.015-.448.04-.503.05-1.12.17-1.21.255-.14-.617 1.23-.27 1.13-.167.53-.06.49-.04.92-.02.82.05.73.09.64.14.56.18.49.2.38.2.33.2.27.2.31.31.11.14-.5.4z"/>
    <path d="M98.725 140.384l-.025-.025.5-.4-.023-.03-.45.45zm-8.75-1.326l.013-.284.078-.732.05-.27.066-.285.155-.63.22-.707.306-.798.387-.876.49-.952.604-.978.347-.528.38-.515.41-.528.45-.553.48-.566.53-.553.56-.58.61-.566.65-.58.68-.578.43.48-.68.58-.63.57-.59.55-.54.56-.51.54-.46.55-.44.53-.4.51-.37.51-.32.49-.59.96-.47.91-.36.82-.29.77-.21.67-.16.6-.05.25-.05.23-.08.72-.01.23L90 139z"/>
    <path d="M90.36 139.38l-.4.09.016-.412.63.025-.385-.322.15.62zm7.13-12.42l.63-.308.734-.297.952-.36.58-.193.605-.18.63-.18.71-.156.7-.14.75-.128.79-.104.79-.064.81-.015.81.015.81.077.84.14.84.182.81.25.41.15.42.18.79.38.39.23.39.25.38.27.37.29.36.32.36.34.34.36.35.41.33.4.3.45.31.46.31.5.27.53.26.52.27.6.23.59-.59.24-.23-.59-.26-.57-.25-.53-.26-.51-.29-.48-.28-.42-.3-.44-.31-.39-.32-.38-.32-.35-.33-.32-.35-.31-.33-.27-.36-.26-.36-.25-.35-.21-.76-.37-.37-.17-.38-.14-.77-.25-.77-.16-.79-.13-.78-.07-.77-.02-.79.02-.76.07-.73.09-.73.13-.68.14-.67.14-.62.18-.61.18-.54.18-.95.36-.69.28-.61.29-.28-.58z"/>
    <path d="M97.413 127l.077-.04.283.58.064-.053-.424-.488zm19.46 5.61l-.22.604 9.82 3.67.22-.606-9.82-3.668z"/>
    <path d="M116.473 133.035l.052.13.13.05.217-.605.193.18-.592.245zm9.832 3.705l-.5-.887-.594-1.003-.83-1.34-1.04-1.583-1.22-1.763-.68-.952-.73-.965-1.57-2.007-.85-1.004-.88-1.017-.9-1-.96-.99-.97-.98-1-.93-1.05-.92-1.05-.85-1.08-.83-1.11-.75-.57-.35-.56-.34-1.16-.62-1.16-.54-1.18-.47-.59-.18-.58-.18-1.22-.27.14-.62 1.24.27.62.19.63.19 1.2.46 1.21.57 1.18.63.58.34.59.36 1.12.76 1.11.83 1.08.86 1.07.92 1.02.94.98.98.98 1 .92 1 .89 1.03.87 1.02 1.59 2.02.75.98.68.96 1.24 1.77 1.06 1.59.84 1.34.61 1.01.51.9-.56.32z"/>
    <path d="M126.473 136.884l.824.308-.438-.772-.56.32.38-.462-.22.606zm-24.48-23l-.076-.167-.103-.386-.04-.27v-.3l.065-.28.07-.16.09-.14.13-.14.12-.11.18-.1.17-.07.23-.05.26-.05h.53l.68.09.38.08.44.1.96.31.52.21.6.23-.25.59-.58-.22-.53-.2-.93-.3-.4-.09-.36-.07-.61-.07h-.47l-.16.04-.14.03-.11.05-.09.05-.06.06-.05.05-.05.08-.02.02-.05.2v.18l.02.17.09.32.06.13-.59.24z"/>
    <path d="M102.214 114.065l-.156-.04-.064-.14.592-.245-.23-.193-.142.617zm5.006-1.43l.72.26.875.334 1.146.51 1.39.68.79.41.84.48.88.51.9.56.95.61.51.35.5.34 1.02.74 1.05.81 1.07.86 1.1.94 1.09 1 .54.52.57.55 1.1 1.13.56.59.57.63 1.1 1.29.55.68.56.68 1.08 1.44.53.77.54.77 1.04 1.61 1.02 1.68 1 1.78.95 1.87-.56.31-.95-1.87-.99-1.75-1-1.67-1.04-1.61-.53-.75-.51-.76-1.08-1.44-.54-.67-.54-.66-1.1-1.3-.55-.61-.54-.58-1.09-1.13-.55-.54-.53-.51-1.09-1.01-1.08-.93-1.04-.85-1.03-.8-1-.74-.5-.35-.48-.34-.96-.62-.89-.56-.88-.51-.81-.47-.76-.4-1.39-.68-1.12-.51-.83-.32-.72-.26.22-.6z"/>
    <path d="M106.988 113.23l.014.014.22-.606h.01l-.245.593zm26.112 24.99v-.282l.01-.823-.05-1.275-.04-.81-.077-.9-.104-.993-.15-1.054-.18-1.133-.22-1.21-.26-1.248-.34-1.313-.39-1.34-.44-1.38-.51-1.4-.28-.71-.31-.71-.32-.71-.34-.71-.75-1.44-.4-.71-.41-.7-.46-.71-.46-.7-1.02-1.39-.54-.68-.58-.67-.58-.67-.63-.65-.66-.66-.67-.62-.71-.62-.73-.61-.76-.59-.8-.56-.81-.57-.87-.54-.89-.51-.91-.5-.96-.48-1-.45-1.02-.44-1.06-.41.23-.59 1.07.41 1.04.45 1.01.45.98.49.92.51.9.51.89.55.82.56.81.56.77.6.76.61.72.63.68.63.66.65.64.67.6.68.59.68.55.69 1.03 1.42.47.7.46.72.43.71.41.74.75 1.45.35.73.32.72.32.72.28.72.52 1.41.44 1.4.4 1.36.33 1.32.27 1.29.22 1.21.18 1.14.14 1.08.1 1.01.07.91.04.82.05 1.31v.83l-.02.31-.63-.04z"/>
    <path d="M133.14 138.39l.592-.13-.632-.04.605-.14-.566.31zm-21.21-34.247l-.025.18-.09.475-.065.322-.09.374-.296.85-.193.462-.11.23-.13.26-.27.475-.33.47-.38.47-.44.44-.49.39-.56.35-.35-.54.53-.32.44-.34.4-.4.35-.41.31-.42.26-.45.1-.22.11-.2.18-.43.28-.81.08-.33.07-.29.09-.46.02-.14.64.06z"/>
    <path d="M111.724 103.808l-.386-.155-.05.425.642.065-.437.256.23-.6zm-3.308 6.074l-.27.14-.734.272-.553.14-.35.08-.34.064-.38.04-.41.04-.88.014-.51-.015-.52-.04-1.08-.154-.58-.142-.61-.14-.63-.19-.66-.23-.68-.25-.7-.29-.72-.36-.75-.38-.76-.45-.78-.49-.81-.55-.81-.6.38-.51.8.61.79.54.76.48.75.44.72.37.69.35.67.29.67.26.63.22.61.18.58.14.54.13 1.05.16.47.04h1.29l.37-.04.34-.04.32-.07.29-.06.51-.13.69-.25.21-.11.3.56z"/>
    <path d="M108.443 109.87l-.025.014-.296-.566-.024.015.348.54zm-14.53-3.527l-.13-.102-.167-.12-.233-.15-.295-.18-.372-.21-.426-.19-.5-.22-.567-.18-.644-.16-.7-.11-.79-.08-.39-.02-.41-.01-.92.04-.97.12-.52.09-.54.11-.15-.61.55-.12.54-.09 1-.11.95-.04.46.02.42.03.82.08.73.13.68.17.61.21.53.24.46.21.41.23.32.21.26.17.18.14.15.11-.43.49z"/>
    <path d="M93.938 106.356l-.077-.05.06.04.43-.49-.01-.015-.38.52zm-8.868-1.52l-.064-.076-.116-.116-.09-.167-.103-.22-.065-.255-.04-.17-.024-.18v-.372l.04-.44.116-.5.18-.553.244-.617.36-.695.45-.773.567-.863.682-.92.515.38-.682.91-.54.82-.44.74-.332.65-.232.56-.155.5-.1.43-.04.36v.29l.03.13.03.09.05.2.07.14.05.09.05.05.06.05-.45.46z"/>
    <path d="M85.366 104.915l-.18.04-.115-.117.46-.463-.29-.078.14.618zm1.854-7.002l.398-.502.463-.5.5-.51.56-.51.57-.51.63-.5.66-.5.67-.49.72-.49.75-.45.77-.45.8-.42.8-.38.84-.38.85-.32.85-.31.88-.27.87-.22.88-.18.9-.14.88-.09.9-.02.86.03.89.08.87.15.86.22.83.29.42.17.41.2.41.21.4.23.77.51.74.59.38.34.35.34-.45.46-.35-.33-.32-.29-.72-.58-.74-.47-.36-.2-.38-.19-.38-.18-.38-.15-.78-.27-.81-.2-.81-.14-.85-.08-.82-.02-.86.03-.85.09-.85.13-.85.18-.84.2-.84.26-.83.31-.82.31-.8.37-.8.39-.77.41-.75.43-.73.44-.7.48-.65.48-.64.49-.61.49-.56.5-.54.5-.47.51-.45.49-.39.49-.49-.42z"/>
    <path d="M87.206 97.926l.015-.015.49.43.02-.02-.51-.38zm24.287-4.876l.154.14.166.168.22.256.23.31.26.372.257.44.115.256.116.257.11.28.11.29.08.32.08.31.07.35.04.36.03.37v.38l-.02.41-.04.41-.07.45-.1.45-.28.92-.18.5-.22.49-.59-.26.22-.48.17-.47.27-.9.09-.39.07-.4.04-.38.02-.39v-.35l-.02-.35-.04-.34-.05-.3-.08-.3-.06-.29-.09-.26-.09-.26-.12-.25-.09-.21-.25-.41-.23-.34-.2-.29-.19-.22-.14-.14-.14-.13.44-.48z"/>
    <path d="M111.042 93.512l.014.015.44-.476-.452.47zm1.364 7.63l.566.27 1.455.67 2.098 1.017 1.196.6 1.27.64 1.28.67 1.26.72 1.2.71 1.11.69 1.01.69.44.34.41.32.36.33.3.3.26.32.12.15.08.14-.55.33-.07-.14-.08-.1-.22-.27-.27-.29-.32-.31-.4-.31-.41-.32-.98-.68-1.09-.68-1.2-.71-1.23-.71-1.27-.67-1.23-.63-1.19-.61-2.1-1.02-1.45-.67-.54-.26.26-.6z"/>
    <path d="M111.98 101.31l-.127.296.295.13.258-.593.168.426-.593-.26zm14.8 8.457l.195.334-.554.2v.07l-.09-.29-.24-.59-.8-1.78-1.1-2.35-1.27-2.53-.65-1.23-.65-1.17-.62-1.03-.29-.46-.28-.41-.27-.35-.24-.29-.22-.23-.18-.16.42-.49.22.2.25.26.27.33.29.36.3.44.31.48.63 1.04.66 1.19.67 1.26 1.28 2.55 1.12 2.37.8 1.8.26.61.11.34.03.17-.63.12-.19-.33.55-.33z"/>
    <path d="M126.78 109.767l-.552.334.553-.33zm-7.282-12.317l-.22-.14-.192-.182-.322-.347-.27-.38-.194-.38-.128-.4-.065-.37-.015-.22.015-.19.077-.32.09-.19.078-.14.115-.14.143-.12.127-.08.168-.09.194-.05.17-.04h.2l.22.04.42.12.24.1.24.13.49.32-.35.54-.49-.32-.18-.09-.18-.08-.35-.09-.12-.02h-.13l-.09.03-.11.03-.07.04-.07.04-.07.06-.05.06-.04.08-.04.07-.06.26-.02.12.01.1.05.3.1.31.14.29.22.31.28.3.14.14.2.13-.39.52z"/>
    <path d="M119.897 96.95l-.015-.016-.385.515-.015-.02.413-.49zm1.287-2.537l1.853 2.15.913 1.093 1.043 1.262 2.33 2.87 1.234 1.57 1.25 1.596 1.222 1.634 1.15 1.607 1.08 1.584.96 1.49.42.71.4.69.34.67.29.6-.58.28-.3-.61-.34-.65-.39-.67-.41-.7-.97-1.5-1.07-1.56-1.15-1.6-1.22-1.64-1.24-1.58-1.24-1.57-2.33-2.87-1.03-1.24-.91-1.09-1.86-2.16.49-.41z"/>
    <path d="M121.105 94.348l.052.04.025.024-.49.412.064.064.347-.54zm13.99.104h.644v19.638h-.65V94.452z"/>
    <path d="M135.12 114.232l.62-.142h-.644l.605-.14-.58.282zm.232-19.46l-.553-.09-.65-.153-.84-.22-.96-.3-.52-.21-.53-.22-.54-.26-.55-.28-.55-.33-.54-.34-.53-.39-.52-.44-.49-.47-.47-.5-.43-.56-.4-.61-.35-.64-.27-.68-.14-.38-.11-.4-.17-.77-.05-.43-.04-.43-.03-.45v-.46l.01-.47.04-.48.06-.51.08-.5.24-1.06.15-.56.17-.55.6.2-.17.55-.14.53-.23 1.01-.08.47-.06.48-.04.45-.01.44v.41l.02.42.04.4.05.38.15.73.09.36.13.32.26.64.32.59.36.57.4.5.43.48.47.44.47.41.5.36.51.32.51.31.53.27.51.24.5.21.49.19.93.3.8.2.6.14.55.09-.12.63z"/>
    <path d="M135.74 94.452v-.258l-.272-.052-.116.63-.256-.32h.643zm-9.782-13.772l.09-.22.257-.552.425-.784.297-.476.32-.516.387-.528.438-.553.476-.54.5-.54.297-.25.297-.27.618-.49.67-.45.37-.2.363-.19.308.57-.36.2-.33.18-.64.44-.59.47-.26.24-.28.25-.49.53-.45.52-.41.52-.37.52-.31.49-.28.45-.41.78-.24.53-.07.18-.59-.24z"/>
    <path d="M125.946 80.694l.01-.015.592.24v-.03l-.605-.21zm5.842-6.604l.09-.024.257-.154.18-.116.22-.18.23-.232.27-.283.27-.34.284-.42.14-.23.15-.26.28-.57.29-.64.27-.77.26-.85.24-.96.61.17-.25.98-.27.89-.29.8-.31.68-.3.61-.17.28-.17.27-.29.44-.3.39-.31.32-.25.25-.26.21-.23.15-.3.18-.16.05-.25-.59z"/>
    <path d="M131.763 74.105l.025-.015.245.592.04-.01-.31-.565zm3.564-6.23l.193-.206.258-.18.308-.21.36-.16.22-.06.218-.04.206.02.232.06.22.13.166.15-.45.46-.104-.11-.09-.05-.09-.02-.09-.01-.116.02-.102.02-.27.11-.245.16-.2.14-.18.19-.44-.48z"/>
    <path d="M135.238 68.03l.024-.09.064-.065.44.477.09-.156-.62-.166zm2.547-.49l.09.27.31.747.244.54.33.63.4.722.51.81.59.85.7.94.82.97.45.5.49.51 1.05 1.05 1.2 1.08 1.33 1.09.73.54.76.57-.38.52-.77-.58-.75-.56-1.36-1.11-1.24-1.11-1.07-1.07-.5-.53-.46-.53-.84-.99-.72-.95-.62-.89-.52-.82-.41-.75-.35-.66-.26-.57-.33-.79-.09-.27.6-.22z"/>
    <path d="M137.708 67.412l.052.052.024.077-.605.22.07.12.45-.46zm10.115 11.968l.09.064.026.09-.61.22.11.154.37-.528zM38.495 266.43l-.283.154-.335.156-.412.18-.515.167-.592.102h-.618l-.553-.11-.387-.17-.424-.3-.36-.4-.245-.45-.14-.49-.05-.48.02-.48.05-.48.11-.5.16-.54.21-.59.53-1.24.35-.76.41-.81.99-1.77 2.73 1.52-.98 1.74-.36.72-.28.63-.49 1.12-.13.39-.1.36-.05.27-.01.19-.01.09-.02-.08-.08-.16-.13-.16-.17-.12-.11-.05-.24-.06.09.01.15-.03.22-.08.22-.11.18-.08.21-.11 1.51 2.74z"/>
    <path d="M36.32 257.77l2.844 1.3 2.522-5.574 2.535-5.56 2.53-5.56 2.54-5.56 2.53-5.56 2.54-5.56 2.52-5.56 2.54-5.56 2.52-5.57 2.54-5.56 2.52-5.56 2.54-5.56 2.53-5.56 2.53-5.56 2.54-5.56 2.53-5.56-2.84-1.3-2.54 5.56-2.53 5.56-2.53 5.56-2.53 5.56-2.53 5.56-2.52 5.56-2.54 5.56-2.52 5.572-2.53 5.56-2.52 5.56-2.54 5.56-2.52 5.56-2.53 5.56-2.52 5.558-2.53 5.56-2.53 5.573z"/>
    <path d="M39.112 259.172l.025-.052.025-.05-2.845-1.3.065-.116 2.728 1.518zm37.902-90.732l.258-.296.67-.773.513-.52.605-.6.734-.68.823-.73.94-.78 1.042-.8.57-.42.58-.44 1.25-.84 1.34-.82.73-.42.76-.41 1.54-.78 1.66-.74.89-.38.9-.35.92-.32.94-.31.98-.29.98-.26 1.03-.24 1.05-.23 1.07-.2 1.09-.15 1.13-.16 1.13-.1 1.17-.07 1.18-.04 1.22-.01 1.23.03 1.26.07 1.27.1 1.31.14 1.32.18 1.35.25 1.37.26 1.4.32 1.4.37 1.45.43 1.46.47 1.46.53 1.49.57 1.53.64 1.53.68 1.57.74 1.55.8-1.4 2.79-1.53-.78-1.49-.71-1.47-.65-1.45-.6-1.43-.54-1.39-.5-1.38-.43-1.37-.4-1.32-.34-1.3-.3-1.3-.24-1.26-.23-1.24-.16-1.22-.13-1.2-.1-1.16-.05-1.15-.02-1.13.01-1.11.04-1.06.07-1.07.1-1.03.14-1.02.14-.96.18-1 .22-.93.22-.91.25-.9.27-.86.29-.85.29-.84.32-.79.34-1.56.69-1.44.73-.68.37-.64.37-1.27.77-1.17.79-.53.4-.5.37-.98.74-.86.72-.77.68-.66.62-.55.55-.45.46-.62.71-.19.22-2.4-1.99z"/>
    <path d="M76.795 168.787l.09-.18.13-.167 2.406 1.994.22-.347-2.84-1.3zm53.062-7.155l.386 3.1 8.893-1.08 8.907-1.08-.387-3.102-8.905 1.08-8.89 1.082z"/>
    <path d="M129.343 164.58l.424.217.476-.064-.386-3.1.89.154-1.404 2.792zm17.98-5.033l.99-.347 1.184-.374 1.582-.437 1.95-.48 1.1-.25 1.16-.22 1.26-.22 1.31-.2 1.39-.18 1.42-.13 1.51-.1 1.53-.07 1.58-.02 1.63.02 1.67.09 1.68.15.87.11.86.11.88.13.86.16.89.17.88.2.89.21.9.23.89.27.9.3 1.78.64.9.36.89.39.88.43.91.45 1.72.94.91.54.85.55-1.67 2.64-.84-.54-.79-.46-1.65-.9-.81-.4-.81-.39-.83-.36-.8-.32-1.69-.61-.81-.27-.81-.25-.84-.22-.81-.2-.82-.2-.82-.15-.8-.16-.84-.13-.8-.11-.77-.11-1.62-.16-1.55-.07-1.53-.03-1.5.01-1.45.07-1.4.09-1.37.13-1.3.17-1.23.18-1.2.21-1.09.2-1.03.23-1.86.45-1.48.41-1.1.35-.92.32-1.05-2.95z"/>
    <path d="M148.043 162.57l.154-.01.167-.064-1.042-2.946.334-.078.387 3.1zm40.513 1.094l-2.805 1.378 3.05 6.19 3.06 6.204 3.05 6.19 3.07 6.203 3.05 6.19 3.06 6.2 3.05 6.19 3.07 6.2 3.05 6.19 3.07 6.2 3.05 6.19 3.07 6.2 3.05 6.19 3.07 6.2 3.05 6.19 3.06 6.2 2.81-1.38-3.06-6.21-3.05-6.19-3.06-6.2-3.05-6.19-3.06-6.21-3.05-6.19-3.06-6.21-3.05-6.19-3.06-6.21-3.05-6.19-3.06-6.21-3.05-6.19-3.06-6.2-3.05-6.19-3.05-6.21-3.05-6.2z"/>
    <path d="M187.99 163.034l.373.245.193.38-2.805 1.38.57.63 1.68-2.64zm49.588 100.18l.024.206.025.36-.077.463-.233.54-.436.502-.61.335-.62.14h-.61l-.62-.114-.67-.18-.77-.27-.87-.387-1.01-.51-1.17-.65-1.31-.77 1.6-2.69 1.27.74 1.07.59.9.45.72.31.57.2.39.1.22.05.04-.02-.17.04-.27.15-.26.28-.13.28-.04.22v.16l3.07-.58z"/>
    <path d="M237.45 262.814l.09.18.04.22-3.076.578.14.4 2.806-1.378zm-8.932.026l-.374-.258-1.21-.746-.86-.502-1.07-.592-1.25-.656-1.415-.696-1.6-.746-1.75-.76-1.93-.77-2.09-.774-1.08-.373-1.12-.36-2.41-.708-1.22-.34-1.28-.34-1.31-.3-1.35-.3-1.38-.29-1.42-.24-1.44-.24-1.47-.22-1.51-.17-1.53-.16-1.57-.13-1.59-.09-1.63-.07-1.62-.02-1.69-.01-1.7.05-1.73.09-1.78.13-1.77.18-1.8.2-1.84.27-1.84.33-1.88.34-1.88.41-1.93.47-1.95.51-1.96.58-1.98.63-2 .71-2.03.76-2.03.82-2.05.89-2.09.97-2.09 1.01-2.12 1.11-2.12 1.19-1.52-2.73 2.16-1.21 2.17-1.14 2.16-1.06 2.15-.99 2.12-.93 2.1-.85 2.1-.79 2.07-.74 2.06-.66 2.02-.59 2.02-.54 1.99-.49 1.97-.44 1.96-.36 1.91-.33 1.89-.27 1.88-.22 1.85-.2 1.84-.13 1.79-.09 1.77-.05H190l1.7.02 1.692.06 1.65.09 1.623.13 1.61.17 1.57.18 1.53.22 1.49.25 1.48.25 1.43.29 1.39.29 1.36.3 1.32.35 1.32.36 2.46.72 1.18.39 1.157.4 2.15.8 2.01.8 1.83.8 1.66.78 1.498.73 1.315.69 1.12.62.94.55 1.26.78.44.29-1.74 2.6z"/>
    <path d="M228.595 262.89l-.077-.05 1.737-2.6-.065-.04-1.595 2.69zm-80-.282l-.063.36-.116.452-.194.552-.27.63-.36.71-.476.707-.335.41-.32.37-.37.36-.4.36-.45.34-.49.33-.54.32-.56.29-.63.27-.65.23-.71.2-.76.18-.78.14-.83.1-.9.06-.94.02-1-.04-1.01-.07.22-3.12.96.07.86.02.79-.01.73-.05.69-.09.63-.12.57-.13.53-.15.48-.17.45-.19.4-.21.36-.22.34-.23.29-.22.27-.24.24-.23.22-.26.16-.19.35-.51.22-.44.17-.4.12-.32.07-.25.04-.23 3.08.55z"/>
    <path d="M146.305 260.96l-.657.36-.128.736 3.076.552-.773 1.082-1.518-2.73zm-11.248 8.92l-.322-.102-.76-.285-.54-.23-.618-.284-.67-.35-.694-.41-.733-.51-.76-.57-.733-.66-.682-.71-.387-.43-.32-.43-.323-.45-.295-.48-.284-.52-.27-.51-.232-.57-.206-.53 2.934-1.08.168.45.167.4.193.37.206.37.206.33.245.33.244.32.24.26.57.58.57.51.59.43.58.4.56.32.54.29.51.23.4.16.66.24.21.07-.93 2.98z"/>
    <path d="M135.404 269.944l-.18-.015-.167-.06.927-2.99-.362-.07-.218 3.11zm-8.7-7.387l-.04-.04-.295-.206-.56-.33-.76-.46-.97-.54-1.2-.62-1.38-.68-1.57-.73-1.78-.77-.95-.38-.99-.4-1.04-.38-1.08-.38-1.12-.4-1.18-.37-1.22-.38-1.25-.36-1.29-.36-1.33-.33-1.37-.33-1.42-.31-1.44-.29-1.47-.27-1.52-.25-1.56-.23-1.59-.19-1.61-.18-1.66-.14-1.67-.11-1.71-.08-1.75-.04H86.2l-1.81.02-1.84.08-1.85.12-1.893.17-1.915.22-1.93.25-1.98.31-1.996.35-2.007.42-2.06.46-2.04.52-2.1.61-2.1.65-2.13.71-2.15.78-2.18.85-2.19.92-2.2.98-2.24 1.06-2.24 1.13-2.26 1.21-2.28 1.29-2.29 1.38-1.63-2.68 2.33-1.39 2.38-1.4 2.31-1.25 2.32-1.17 2.29-1.08 2.29-1.01 2.24-.93 2.26-.87 2.21-.79 2.2-.73 2.17-.67 2.16-.61 2.14-.54 2.12-.48 2.07-.43 2.07-.36 2.04-.32 2.01-.25 1.99-.21 1.96-.18 1.93-.12 1.9-.07 1.88-.02H88l1.828.05 1.78.08 1.737.11 1.726.16 1.67.18 1.64.21 1.61.23 1.58.26 1.54.29 1.49.31 1.47.33 1.42.35 1.37.35 1.34.37 1.3.37 1.26.4 1.22.38 1.16.41 1.13.41 1.08.4 1.03.41 1.02.42 1.83.8 1.64.76 1.46.72 1.26.65 1.03.58.84.5.62.38.42.28.2.16-1.97 2.42z"/>
    <path d="M129.162 260.806l-.14-.385-.348-.28-1.97 2.42-.476-.67 2.934-1.08zm-90.602 5.587l-.065.04-1.506-2.74-.06.024 1.62 2.677z"/>
    <path d="M128.88 259.725l.014-.488.025-.477.06-.476.07-.476.1-.464.11-.45.14-.437.16-.438.18-.43.19-.41.45-.79.26-.38.27-.36.28-.35.29-.34.31-.31.33-.3.33-.28.36-.27.36-.25.37-.24.4-.21.4-.2.39-.18.42-.14.42-.13.43-.1.45-.09.45-.06.45-.04.46-.02.46.01.46.04.45.06.44.09.43.1.44.13.41.14.41.18.4.19.39.2.38.23.36.24.35.27.35.28.32.29.32.31.3.33.28.35.27.36.24.37.23.38.22.4.2.41.18.42.16.44.14.44.13.45.1.46.08.47.05.47.04.48.01.48-.01.5-.04.47-.05.48-.08.48-.1.47-.13.45-.14.44-.15.43-.18.42-.21.41-.45.79-.24.37-.27.36-.29.35-.3.32-.32.32-.32.3-.35.28-.35.27-.36.25-.39.23-.38.2-.4.19-.41.16-.41.15-.44.13-.44.1-.44.09-.45.07-.46.02-.47.02-.46-.02-.45-.03-.45-.06-.46-.09-.43-.1-.43-.13-.42-.16-.4-.16-.4-.19-.4-.21-.37-.23-.36-.25-.36-.27-.34-.29-.33-.3-.31-.32-.3-.33-.29-.35-.27-.36-.26-.38-.23-.39-.22-.4-.19-.41-.18-.42-.17-.44-.14-.44-.12-.45-.1-.46-.08-.48-.06-.48-.03-.48-.02-.5zm53.86-98.08l-2.922 1.12 2.188 5.714 2.2 5.71 2.202 5.71 2.2 5.73 2.2 5.71 2.202 5.72 2.2 5.71 2.202 5.72 2.2 5.71 2.2 5.73 2.2 5.71 2.203 5.72 2.2 5.71 2.2 5.72 2.202 5.71 2.2 5.73 2.922-1.12-2.21-5.73-2.2-5.72-2.2-5.73-2.2-5.71-2.2-5.73-2.2-5.71-2.2-5.73-2.2-5.72-2.2-5.73-2.2-5.71-2.2-5.73-2.2-5.72-2.2-5.73-2.21-5.72-2.2-5.72-2.19-5.72zm2.87 1.39l-1.597.68 2.485 5.883 2.497 5.894 2.483 5.895 2.497 5.894 2.484 5.89 2.49 5.9 2.49 5.9 2.49 5.9 2.48 5.88 2.5 5.9 2.49 5.9 2.49 5.9 2.48 5.88 2.5 5.9 2.49 5.9 2.5 5.9 1.59-.68-2.5-5.9-2.5-5.89-2.5-5.89-2.49-5.88-2.5-5.89-2.5-5.89-2.49-5.9-2.49-5.88-2.5-5.89-2.5-5.9-2.5-5.9-2.49-5.88-2.5-5.89-2.48-5.89-2.5-5.89-2.48-5.88z"/>
    <path d="M140.68 254.822l2.974.94 1.957-6.27-2.97-.937-1.95 6.267z"/>
    <path d="M143.024 247.91l.23-.23.63-.555.49-.424.605-.47.72-.53.82-.58.95-.63 1.08-.64 1.2-.68 1.33-.7 1.45-.72 1.61-.72 1.73-.72 1.89-.71 2.01-.69 2.17-.67 1.16-.32 1.17-.31 1.22-.32 1.26-.28 1.3-.29 1.33-.27 1.37-.26 1.43-.24 2.94-.44 1.53-.19 1.61-.19 1.61-.16 1.65-.14 1.72-.11 1.75-.1 1.8-.08 1.83-.05 1.89-.02 1.93-.01 1.98.03 2 .04 2.07.08 2.11.1 2.17.13 2.21.15 2.25.19 2.28.22-.3 3.11-2.27-.22-2.22-.19-2.18-.15-2.11-.12-2.09-.1-2.04-.08-1.97-.04-1.95-.02-1.89.02-1.85.03-1.79.05-1.77.08-1.71.11-1.66.11-1.62.14-1.59.17-1.55.18-1.48.19-2.89.42-1.35.23-1.33.25-1.29.27-1.27.29-1.21.27-1.17.31-1.14.29-1.09.31-2.1.64-1.91.67-1.81.67-1.65.68-1.52.68-1.38.68-1.24.66-1.11.63-1.02.61-.88.58-.74.52-.65.47-.54.43-.4.35-.56.49-.16.16-2.21-2.21z"/>
    <path d="M142.637 248.555l.116-.374.27-.27 2.214 2.22.374-.63-2.97-.94zm.836 5.56l.27-.232.71-.567.565-.438.67-.476.785-.528.926-.59 1.04-.632 1.16-.656.65-.347.67-.35 1.43-.71 1.58-.74 1.72-.72 1.85-.72 1.98-.72 1.06-.36 1.09-.35 1.1-.35 1.17-.34 1.2-.32 1.25-.33 2.57-.59 2.71-.57 1.44-.26 1.47-.26 3.03-.43 1.6-.19 1.62-.19 1.65-.16 1.71-.13 1.74-.12 1.78-.1 1.83-.07 1.87-.05 1.91-.02h1.93l1.98.02 2.05.05 4.17.2 2.17.14 2.2.18 2.25.2 2.26.23-.32 3.11-2.26-.23-2.21-.21-2.18-.18-2.09-.13-4.15-.21-1.98-.05-1.94-.03h-1.89l-1.88.01-1.83.05-1.78.06-1.75.1-1.68.1-1.67.13-1.61.15-1.57.18-1.54.19-2.97.41-1.4.25-1.38.24-2.65.55-2.51.58-1.18.31-1.16.31-1.12.32-1.07.33-1.06.34-.99.33-1.92.69-1.78.69-1.64.68-1.5.7-1.38.68-.62.32-.58.31-1.12.63-.98.59-.84.54-.73.49-.6.42-.49.37-.64.51-.19.17-2.07-2.34zm-16.693 6.06l-.552-.23-1.66-.657-1.17-.45-1.455-.515-1.674-.567-1.9-.592-2.09-.63-2.31-.643-1.21-.32-1.25-.31-1.3-.32-1.33-.29-2.81-.59-2.98-.56-1.51-.24-1.55-.24-3.23-.42-1.61-.18-1.7-.17-1.67-.13-1.73-.12-1.74-.07-1.77-.06-1.75-.02-1.82.02-1.81.04-1.82.08-1.86.12-1.86.14-1.85.21-1.88.22-1.88.29-1.91.32-1.88.37-1.9.42-1.89.47-1.9.51-1.89.58-1.9.62-1.89.67-1.89.76-1.88.8-1.85.84-1.87.93-1.86.97-1.84 1.07-1.83 1.12-1.83 1.18-1.83 1.27-2.69-3.83 1.88-1.31 1.95-1.26 1.96-1.2 1.95-1.13 1.98-1.04 1.98-.99 1.99-.9 2.01-.85 2-.8 2.02-.72 2.01-.66 2-.6 2.02-.55 2.01-.49 1.99-.45 2.01-.39 1.99-.33 1.99-.3 1.98-.23 1.96-.22 1.95-.16 1.93-.11 1.9-.08 1.91-.05 1.9-.01 1.86.04 1.84.07 1.81.08 1.8.12 1.76.14 1.73.17 1.73.19 3.31.44 1.62.25 1.61.26 3.03.58 2.91.62 1.4.31 1.35.34 1.29.32 1.27.33 2.38.67 2.16.66 1.97.62 1.75.59 1.5.53 1.28.49 1.73.68.62.25-1.83 4.31z"/>
    <path d="M130.218 253.702l-.426-.192-1.208-.555-1.983-.823-2.71-1.042-1.59-.566-1.75-.605-1.9-.62-2.04-.62-2.16-.62-2.31-.61-2.43-.59-2.53-.56-2.65-.5-2.76-.48-1.4-.22-1.42-.19-1.46-.18-1.47-.17-1.49-.15-1.53-.13-1.52-.1-1.56-.08-1.56-.07-1.58-.02-1.6-.02-1.59.02-1.62.05-1.64.07-1.65.11-1.64.14-1.67.18-1.67.19-1.69.24-1.67.27-1.7.31-1.69.36-1.7.37-1.7.44-1.71.47-1.71.5-1.7.55-1.73.62-1.04-2.95 1.78-.63 1.77-.57 1.78-.53 1.79-.5 1.76-.45 1.75-.38 1.77-.38 1.76-.33 1.74-.28 1.74-.25 1.74-.21 1.73-.18 1.7-.16 1.7-.11 1.7-.08 1.68-.05 1.66-.03 1.65.01 1.64.02 1.61.06 1.61.08 1.57.1 1.56.13 1.54.16 1.52.17 1.5.19 1.47.19 1.47.23 2.8.48 2.74.53 2.6.56 2.5.6 2.36.62 2.23.63 2.1.64 1.95.63 1.81.62 1.66.6 2.77 1.07 2.06.84 1.27.58.47.22-1.34 2.82z"/>
    <path d="M54.673 246.88l5.21-13.126L71.39 204.68l6.204-15.674 5.456-13.887 3.964-10.17 1.16-3.05.513-1.42 2.935 1.06-.516 1.43-1.184 3.11-3.964 10.16-5.458 13.89-6.214 15.69-11.506 29.09-5.213 13.12-2.894-1.17z"/>
    <path d="M56.642 248.94l-3.23 1.133 1.26-3.192 2.895 1.18-1.97-2.06 1.045 2.95zm69.212 12.82l2.91 1.144 2.96-7.566 2.96-7.556-2.91-1.146-2.96 7.556-2.96 7.567z"/>
    <path d="M132.483 248.58l-.373-.206-1.12-.565-.81-.4-.99-.48-1.173-.53-1.313-.57-1.467-.59-1.608-.63-1.77-.67-1.88-.66-2.04-.66-2.15-.66-2.28-.65-2.4-.61-1.21-.3-1.26-.27-2.6-.53-2.71-.46-1.38-.22-1.4-.19-1.42-.17-1.45-.16-1.46-.14-1.49-.12-1.51-.09-1.52-.07-1.53-.04h-3.11l-1.59.04-1.6.08-1.62.1-1.62.14-1.63.16-1.66.2-1.67.23-1.66.28-1.67.31-1.7.36-1.71.38-1.7.42-1.71.49-1.72.51-1.75.57-.99-2.96 1.79-.58 1.77-.54 1.79-.5 1.77-.45 1.76-.4 1.76-.38 1.73-.32 1.73-.3 1.73-.23 1.72-.22 1.68-.17 1.69-.16 1.68-.1 1.64-.08 1.64-.04 1.63-.02 1.61.01 1.58.04 1.57.06 1.56.09 1.53.11 1.51.16 1.49.15 1.47.18 1.44.2 1.44.23 2.77.47 2.66.54 1.31.28 1.27.31 2.44.62 2.34.65 2.21.68 2.1.67 1.94.68 1.81.68 1.66.66 1.52.62 1.37.58 1.21.55 1.03.49.86.42 1.17.59.42.23-1.49 2.74z"/>
    <path d="M134.684 247.782l.502-1.287-1.21-.657-1.493 2.742-.708-1.944 2.91 1.146zm-74.568-7.49l2.946 1.042 3.025-8.558 3.038-8.558 3.024-8.56 3.03-8.545 3.02-8.558 3.04-8.558 3.03-8.558 3.04-8.55-2.95-1.05-3.04 8.54-3.04 8.56-3.04 8.56-3.03 8.55-3.04 8.54-3.03 8.56-3.04 8.56-3.03 8.56z"/>
    <path d="M62.085 242.287l-3.025.99 1.056-2.985 2.946 1.042-1.968-2.008.99 2.96zm170.59 21.633l-.54-.322-.618-.36-.89-.5-1.106-.618-1.35-.696-1.55-.797-1.76-.838-1.97-.9-1.03-.46-1.09-.47-1.14-.46-1.15-.47-1.23-.48-1.25-.47-1.28-.47-1.34-.45-1.38-.45-1.39-.44-1.44-.41-1.47-.42-1.49-.4-1.52-.37-1.55-.35-1.58-.32-1.6-.31-1.61-.27-1.66-.26-1.66-.22-1.69-.19-1.72-.16-1.73-.11-1.74-.08-1.75-.06-1.78.01-1.78.05-1.79.09-1.79.12-1.81.2-1.82.23-1.81.3-1.82.35-1.84.41-1.82.47-1.84.52-1.83.59-1.85.66-1.81.72-1.84.8-1.83.86-1.83.93-1.81 1.01-1.8 1.1-1.8 1.17-1.83 1.27-2.69-3.84 1.89-1.31 1.93-1.26 1.94-1.17 1.95-1.09 1.97-1.01 1.97-.93 1.98-.86 1.96-.78 1.99-.71 1.98-.65 1.97-.56 1.97-.51 1.96-.44 1.97-.37 1.95-.32 1.95-.25 1.95-.22 1.92-.14 1.91-.09 1.91-.06 1.88-.02 1.88.07 1.84.08 1.82.12 1.81.15 1.79.21 1.75.23 1.75.27 1.7.28 1.69.32 1.68.34 1.64.36 1.6.4 1.56.41 1.55.44 1.51.42 1.46.46 1.44.46 1.39.48 1.34.47 1.31.49 1.28.49 1.22.49 1.2.49 1.13.48 1.11.49 2.03.92 1.84.87 1.63.84 1.42.73 1.17.64.95.54.68.4.58.35-2.44 3.99zm-188.93-6.537l2.858 1.275 2.587-5.894 2.586-5.895 2.587-5.9 2.6-5.88 2.586-5.9 2.58-5.9 2.58-5.9 2.6-5.88 2.58-5.9 2.58-5.9 2.58-5.9 2.6-5.88 2.59-5.9 2.6-5.89 2.58-5.9 2.6-5.88-2.86-1.27-2.6 5.88-2.58 5.9-2.6 5.89-2.59 5.9-2.6 5.88-2.59 5.89-2.59 5.9-2.58 5.89-2.6 5.88-2.59 5.9-2.59 5.89-2.59 5.89-2.6 5.88-2.59 5.89-2.59 5.89-2.59 5.89zm92.575-46.023h3.126v39.23h-3.127v-39.23z"/>
    <path d="M226.215 182.03l.205.09.192.116.168.13.167.154.143.154.127.18.117.192.09.206.078.22.05.22.04.217v.21l-.01.22-.025.2-.065.22-.077.22-.102.2-.116.19-.13.16-.14.17-.167.14-.18.13-.194.11-.206.09-.218.07-.22.05-.425.04-.218-.01-.22-.03-.22-.07-.21-.08-.22-.11-.18-.12-.18-.13-.16-.14-.16-.17-.12-.18-.12-.19-.11-.21-.08-.22-.05-.22-.02-.22-.02-.21.01-.22.04-.22.05-.22.09-.21.09-.22.11-.18.13-.18.15-.15.15-.16.18-.12.19-.12.2-.11.22-.07.21-.07.44-.04.22.01.2.04.22.05.22.09zm7.566-10.887l-.48 1.518-.22.67-.14.53-.09.41-.02.27.02.2.06.18.08.18.1.16.13.14.16.13.2.11.22.08.25.07.23.03.23-.02.21-.06.2-.1.17-.14.16-.18.13-.22.19-.48.32-.99.53-1.59-2.57-.83zm-5.17-3.938l10.12 3.28-1.39 4.313-.27.746-.25.63-.13.27-.12.232-.26.386-.28.296-.31.245-.36.193-.19.065-.2.07-.43.08-.43.02-.22-.01-.22-.04-.44-.11-.28-.1-.25-.12-.23-.13-.22-.15-.1-.07-.09-.09-.18-.18-.09-.1-.08-.1-.14-.22-.12-.23-.09-.26-.07-.25-.05-.28-.01-.3v-.31l.02-.32.05-.35-.29.25-.31.22-.29.18-.3.17-.36.14-.45.14-1.21.34-2.38.59.8-2.44 2.68-.75 1.19-.35.39-.14.27-.1.36-.22.14-.13.12-.14.11-.17.11-.22.12-.27.11-.33.14-.41-4.23-1.38.67-2.04zm13.09-8.263l-.53 2.085-5.58-1.39-1.11-.258-.38-.07-.25-.04-.32.01-.3.06-.14.06-.14.06-.27.16-.11.11-.12.11-.1.14-.09.15-.17.34-.13.4-.07.41-.03.38.02.16.03.15.1.3.14.24.17.22.21.16.25.13.3.11.39.13 1.04.28 5.72 1.43-.51 2.08-5.43-1.35-.86-.24-.72-.21-.57-.21-.43-.18-.35-.19-.31-.22-.26-.26-.23-.27-.2-.31-.15-.35-.05-.18-.07-.19-.04-.2-.04-.21-.03-.22-.01-.21.03-.49.07-.54.13-.6.19-.68.11-.31.12-.28.23-.49.26-.39.28-.31.3-.27.3-.22.33-.18.33-.14.32-.09.32-.05.33-.02.52.03.62.09.72.14.81.19 5.52 1.38zm-.17-9.266l-2.98-.477-.19 1.15-.08.56-.04.47-.01.37.04.28.07.2.09.19.12.18.14.15.17.14.18.1.21.08.23.05.27.02.27-.03.24-.08.12-.05.12-.05.19-.16.17-.18.13-.21.1-.25.16-.56.17-.95.16-1.02zm-8.39-3.514l5.25.824 5.27.836-.54 3.398-.15.888-.14.707-.14.54-.13.362-.22.412-.28.36-.17.16-.18.15-.41.26-.46.2-.25.06-.25.03-.28.02-.28.01-.29-.03-.31-.04-.46-.09-.41-.14-.37-.17-.32-.21-.28-.23-.24-.26-.21-.27-.16-.3-.14-.3-.09-.3-.06-.3-.04-.29v-.44l.04-.52.07-.59.1-.68.22-1.38-3.96-.63.34-2.12zm4.56-6.77l1.8.116-.32 4.62-4.24-.295-.28-.4-.27-.476-.24-.54-.22-.618-.09-.34-.07-.32-.11-.66-.04-.66.02-.66.04-.42.07-.39.08-.39.1-.36.13-.35.14-.34.17-.32.18-.3.21-.3.22-.26.25-.25.26-.23.27-.21.29-.18.3-.17.34-.14.34-.13.35-.1.35-.08.36-.06.36-.04.38-.03h.37l.37.02.42.04.4.06.39.08.36.1.36.13.35.14.32.17.32.18.3.2.29.21.26.24.24.27.22.28.2.3.18.33.15.33.1.27.09.28.13.62.03.33.02.33-.02.73-.04.47-.08.45-.09.42-.11.4-.15.36-.17.33-.18.31-.22.27-.23.25-.25.22-.27.2-.29.17-.31.14-.32.13-.35.09-.36.07-.26-2.16.39-.12.34-.15.31-.22.27-.27.22-.31.17-.36.07-.19.06-.21.05-.44.01-.35-.01-.32-.05-.31-.08-.3-.1-.29-.14-.26-.17-.25-.19-.23-.22-.22-.26-.18-.27-.17-.31-.13-.35-.12-.36-.09-.4-.08-.42-.04-.46-.02h-.42l-.41.04-.37.06-.35.1-.33.11-.14.08-.14.08-.27.18-.13.11-.1.1-.22.22-.18.23-.14.26-.13.28-.09.3-.07.31-.04.33v.33l.02.33.07.35.09.35.11.33.13.31.14.29.17.26 1.35.1.17-2.44zm.47-10.9l3.89-1.61-3.99-1.3.11 2.91zm-4.08 4.08l-.08-2.316 2.39-1.005-.14-4.26-2.46-.79-.08-2.27 5.4 1.88 5.39 1.88.08 2.28-5.25 2.31-5.24 2.32zm4.47-19.382l.22 1.57.21 1.234.09.414.11.244.11.168.12.154.14.116.17.102.18.064.19.04.22.015.23-.01.25-.05.22-.09.19-.11.09-.06.08-.09.12-.17.11-.2.05-.23.02-.24-.05-.52-.13-1.03-.23-1.66-2.68.37zm-6.38-1.287l5.26-.747 5.28-.734.63 4.492.09.785.04.68-.01.56-.06.46-.11.38-.07.18-.1.17-.1.17-.12.16-.31.29-.35.25-.37.19-.43.15-.45.09-.56.04-.27-.02-.27-.04-.24-.06-.24-.09-.23-.11-.21-.14-.22-.16-.19-.18-.18-.21-.17-.23-.14-.26-.14-.28-.11-.3-.11-.34-.15.36-.18.33-.18.29-.21.27-.25.28-.34.33-.44.38-.51.44-1.87 1.58-.36-2.55 2.08-1.84.9-.84.3-.3.2-.22.12-.17.1-.18.08-.18.05-.17.01-.21.01-.24-.02-.3-.04-.35-.06-.44-4.4.62-.29-2.14zm2.68-6.436l3.41-2.445-4.17-.372.76 2.817zm-3.06 4.89l-.6-2.24 2.11-1.504-1.11-4.13-2.57-.22-.59-2.2 5.68.618 5.68.62.6 2.2-9.17 6.86zm-6.41-19.714l9.86-3.99.81 2.006-3.88 1.57 1.57 3.87 3.89-1.57.81 2.01-9.87 3.97-.8-2 4.32-1.74-1.57-3.89-4.31 1.73-.81-2zm-5.08-9.95l9.39-4.993 1 1.904-4.16 2.214 6.21 1.622 1.35 2.548-5.54-1.608-3.74 6.782-1.31-2.445 3.04-4.942-2.38-.696-2.84 1.51-1-1.91zm-9.72-13.603l3.43-2.882 2.22-6.95 1.61 1.93-1.61 4.633 4.8-.83 1.6 1.91-7.24.98-3.41 2.87-1.39-1.64zm-4.01-9.923l1.28-1.274 3.27 3.27-3.01 3.01-.48-.05-.53-.104-.28-.08-.28-.1-.6-.24-.62-.31-.29-.17-.28-.18-.52-.39-.48-.44-.28-.31-.25-.3-.23-.31-.2-.32-.19-.33-.15-.32-.13-.34-.12-.35-.08-.34-.05-.35-.03-.35v-.33l.07-.69.08-.35.11-.35.13-.34.15-.32.17-.32.2-.31.21-.31.22-.28.5-.57.3-.29.31-.26.31-.23.32-.22.34-.18.33-.17.34-.14.34-.12.36-.09.35-.07.36-.04.35-.01.36.01.36.05.35.08.36.1.55.22.54.31.54.4.54.49.33.36.3.35.26.35.22.35.18.34.14.35.1.33.08.34.03.34v.33l-.02.34-.07.33-.09.34-.13.32-.15.32-.18.31-1.8-1.22.17-.36.1-.36.04-.37-.02-.39-.09-.37-.08-.18-.09-.18-.22-.35-.29-.33-.26-.23-.26-.2-.25-.17-.28-.15-.27-.09-.29-.08-.29-.04h-.3l-.31.03-.3.06-.31.11-.31.14-.31.18-.31.22-.31.24-.31.29-.32.34-.27.33-.25.32-.19.33-.15.32-.11.32-.08.32-.02.15-.02.17v.31l.04.29.05.3.1.29.13.27.15.27.2.25.22.24.26.22.27.2.3.18.33.15.33.14.33.1.31.07.31.05.97-.95-1.74-1.73zM194.2 46.472l-.207.387-.18.38-.13.36-.1.35-.06.34-.03.33.01.32.04.3.08.31.114.27.13.27.155.23.18.23.22.2.23.2.27.16.283.14.29.12.284.07.28.05.28.01.3-.02.29-.05.29-.08.3-.12.28-.15.27-.19.27-.24.12-.13.13-.14.26-.31.25-.34.23-.38.2-.4.18-.38.14-.36.1-.36.06-.33.02-.34-.02-.31-.04-.31-.08-.28-.1-.27-.13-.25-.17-.23-.09-.12-.09-.12-.22-.21-.25-.19-.28-.17-.29-.16-.3-.12-.28-.09-.28-.05-.29-.01-.29.01-.3.05-.29.08-.14.05-.15.06-.27.15-.28.18-.26.23-.25.27-.13.14-.12.16-.25.35-.24.37zm-1.958-1.042l.41-.656.22-.296.22-.284.23-.257.23-.232.23-.206.245-.2.378-.25.39-.21.4-.18.427-.14.434-.11.202-.03.22-.03.412-.02.4.02.27.04.27.06.27.06.286.09.556.23.27.14.283.15.49.31.44.32.19.18.19.18.18.19.17.19.28.4.25.43.103.22.09.23.156.49.05.25.04.24.04.52-.01.51-.074.52-.13.54-.18.54-.243.55-.297.55-.338.53-.35.49-.19.22-.18.21-.4.37-.41.32-.22.14-.22.14-.45.22-.48.15-.49.11-.49.06h-.5l-.49-.05-.5-.11-.5-.15-.5-.21-.505-.27-.49-.31-.45-.34-.192-.18-.19-.18-.35-.38-.28-.41-.246-.43-.12-.22-.09-.23-.14-.48-.06-.25-.04-.26-.04-.5.01-.5.06-.52.13-.52.18-.53.23-.54.29-.55zm-10.71.502l4.786-9.394 1.93.977-3.977 7.8 4.75 2.42-.81 1.607-6.68-3.41zm-7.38-8.982l-.15.41-.13.386-.08.387-.053.36-.03.348.03.34.04.32.09.3.11.3.13.26.17.25.09.12.1.11.2.21.23.18.26.16.28.15.29.11.29.08.29.05.28.01.3-.02.28-.05.28-.08.29-.11.27-.15.12-.09.13-.1.26-.21.23-.26.23-.31.21-.33.2-.36.18-.41.17-.41.13-.4.09-.38.05-.36.02-.33-.01-.33-.03-.31-.08-.3-.05-.14-.06-.14-.13-.24-.08-.13-.09-.12-.09-.11-.1-.1-.21-.2-.25-.18-.13-.09-.14-.08-.3-.13-.29-.11-.31-.09-.3-.04-.3-.02-.29.03-.28.05-.28.08-.29.11-.27.14-.26.19-.25.22-.23.26-.23.3-.21.34-.19.36-.2.41zm-2.06-.8l.34-.708.36-.63.2-.283.208-.26.205-.23.22-.22.335-.29.36-.26.37-.24.415-.2.41-.14.413-.12.41-.07.415-.02.54.02.564.09.58.16.58.22.52.24.476.28.213.14.206.15.19.16.19.18.335.36.3.4.13.2.124.22.2.46.16.47.09.5.06.51-.01.53-.06.54-.11.56-.17.58-.23.59-.13.28-.14.28-.28.51-.32.48-.35.42-.37.38-.39.32-.42.27-.45.22-.23.09-.23.09-.49.12-.49.06-.49.02-.52-.06-.51-.09-.53-.16-.53-.19-.53-.26-.48-.27-.44-.31-.19-.17-.2-.16-.33-.36-.29-.4-.13-.22-.13-.21-.19-.46-.16-.48-.11-.49-.05-.52v-.26l.02-.26.02-.27.04-.27.1-.54.18-.57.22-.58zm-12.26 1.494l3.29-10.13 1.98.645 1.97 8.13 2.2-6.79 1.89.61-3.28 10.13-2.042-.67-1.945-7.99-2.16 6.65-1.89-.61zm-10.9-2.56l1.11-5.214 1.11-5.198 2.11.45-.872 4.105 4.105.876.864-4.106 2.11.45-1.11 5.2-1.11 5.21-2.1-.448.96-4.56-4.11-.88-.97 4.55-2.11-.45zm-3.92-4.52l2.01.85-.18.412-.195.374-.205.348-.22.32-.24.297-.26.258-.27.22-.14.1-.156.105-.3.166-.332.14-.332.105-.18.05-.18.04-.36.05-.385.02h-.414l-.41-.03-.26-.04-.25-.04-.49-.12-.45-.17-.43-.21-.41-.25-.18-.15-.19-.16-.34-.32-.32-.39-.27-.4-.13-.22-.1-.23-.19-.47-.14-.49-.06-.27-.04-.26-.05-.55v-.58l.034-.62.09-.65.13-.59.167-.55.208-.53.245-.47.28-.44.155-.21.164-.2.17-.18.19-.17.39-.31.41-.26.44-.21.45-.16.474-.12.5-.06.53-.01.54.04.48.06.45.11.41.13.4.18.363.19.35.24.31.26.14.16.14.15.16.19.14.22.26.48.1.27.09.29.13.63-2.16.27-.03-.21-.05-.19-.13-.36-.09-.17-.1-.16-.246-.29-.293-.24-.156-.09-.18-.09-.36-.13-.207-.04-.2-.04-.28-.02-.28.01-.27.04-.26.06-.24.09-.23.13-.1.06-.12.08-.2.18-.2.22-.16.24-.15.27-.14.33-.11.35-.1.38-.08.41-.06.46-.04.48-.02.45.01.43.04.39.08.34.09.31.11.28.14.26.17.21.18.19.21.17.21.14.24.12.24.1.26.06.29.04.43.01.19-.03.2-.04.37-.13.16-.09.18-.12.16-.12.16-.16.16-.17.13-.19.13-.2.13-.24.21-.53zm-17.49 3.09V23.01h7.878v1.803h-5.73v2.368h5.31v1.79h-5.31v2.89h5.93v1.8h-8.08zm-7.115.875l-1.53-8.72-3.1.55-.323-1.78 8.32-1.47.33 1.77-3.09.54 1.53 8.71-2.12.37zm-20.15 5.97l-3.64-10 6.868-2.5.62 1.68-4.84 1.77.87 2.38 4.18-1.53.62 1.69-4.195 1.52 1.554 4.24-2.032.73zm-11.58-.56l.194.4.22.36.22.32.23.28.24.24.26.22.27.16.28.14.29.12.29.06.29.05h.3l.29-.02.3-.06.3-.08.28-.12.28-.15.26-.17.22-.18.21-.22.09-.1.09-.12.16-.24.13-.27.1-.28.07-.31.04-.32v-.34l-.05-.33-.07-.38-.11-.37-.14-.4-.17-.41-.2-.4-.2-.36-.22-.32-.23-.29-.24-.26-.24-.21-.27-.18-.27-.13-.27-.1-.28-.08-.3-.04H91l-.3.02-.284.05-.298.1-.31.11-.28.15-.27.16-.23.19-.21.2-.09.1-.09.11-.15.25-.13.27-.1.28-.065.29-.04.32V38l.04.35.062.36.1.37.14.4.18.4zm-1.984 1.01l-.3-.72-.112-.35-.1-.34-.08-.34-.06-.32-.04-.32-.01-.3.02-.45.05-.44.09-.43.13-.44.16-.41.21-.37.22-.35.26-.32.39-.39.45-.35.51-.32.56-.3.53-.22.53-.17.52-.12.5-.06h.51l.49.05.49.1.48.15.47.2.44.26.21.14.21.17.39.36.36.41.18.22.17.24.16.24.15.27.28.57.25.56.19.56.14.56.08.54.03.53-.02.51-.08.49-.06.24-.08.24-.18.46-.11.22-.12.22-.29.41-.32.37-.37.35-.41.32-.46.29-.51.25-.53.22-.27.09-.25.09-.51.12-.51.05-.5.01-.25-.02-.24-.04-.24-.04-.24-.05-.48-.16-.45-.21-.44-.26-.41-.31-.37-.35-.36-.41-.34-.45-.31-.5-.28-.55zM72.74 55.83l-5.945-8.817L73.32 42.6l1.004 1.492-4.735 3.204 1.31 1.956 4.41-2.973 1 1.49-4.4 2.97 1.61 2.39 4.91-3.32 1 1.49-6.71 4.52zm-5.56 4.452L61.494 53.5l-2.406 2.033-1.158-1.378 6.46-5.43 1.157 1.378-2.407 2.02 5.688 6.77-1.647 1.39zm-17.22 2.47l1.47-1.582 4.22 3.938.836.76.515.398.29.142.31.09.16.014.16.015.31-.025.16-.04.17-.05.31-.155.31-.218.31-.3.27-.32.21-.32.07-.16.07-.16.04-.16.01-.14v-.28l-.05-.27-.04-.13-.06-.12-.14-.23-.2-.25-.27-.31-.79-.75-4.3-4.03 1.47-1.57 4.09 3.82.65.6.53.54.4.45.16.19.13.18.21.33.15.35.12.34.06.35.01.36-.02.37-.07.38-.13.38-.18.41-.11.21-.14.2-.32.43-.19.23-.2.22-.25.27-.24.24-.48.4-.44.32-.41.22-.39.14-.19.05-.19.04-.37.05-.37-.01-.35-.04-.33-.08-.3-.1-.29-.14-.44-.28-.49-.38-.57-.48-.62-.56-4.2-3.83zm3.31 12.87l-7.053-5.328-1.905 2.523-1.428-1.08 5.083-6.745 1.43 1.08-1.893 2.51L54.57 73.9l-1.3 1.723zm-4.016 5.74l-8.932-5.804 1.17-1.802 8.933 5.792-1.17 1.815zm-3.68 6.01l-7.736-4.285-1.53 2.755-1.57-.876 4.092-7.374 1.57.862-1.52 2.74 7.736 4.3-1.043 1.878zM36.73 98.08l.632-2.006.488.077.233.03.23-.01.207-.01.193-.04.36-.14.168-.09.16-.11.16-.13.13-.14.13-.16.12-.18.22-.41.17-.45.05-.22.03-.2.03-.19-.01-.19-.01-.18-.04-.17-.13-.29-.07-.13-.08-.11-.1-.1-.1-.09-.25-.14-.17-.06-.17-.02h-.17l-.16.04-.18.06-.17.12-.19.15-.19.2-.17.19-.24.31-.69.89-.51.64-.5.53-.23.21-.23.18-.22.14-.22.12-.29.12-.3.08-.29.07-.29.02-.29-.01-.3-.04-.28-.08-.29-.1-.36-.19-.17-.1-.15-.13-.28-.27-.26-.33-.2-.36-.15-.4-.09-.43-.02-.22v-.23l.02-.49.09-.5.14-.53.21-.55.21-.43.22-.4.23-.36.23-.32.26-.28.27-.24.28-.2.3-.16.31-.13.31-.09.32-.05.33-.02.32.01.34.04.34.07.35.12-.77 2.02-.2-.04-.18-.04h-.36l-.31.04-.27.12-.24.17-.12.11-.1.13-.2.31-.19.38-.14.42-.09.38-.03.35.02.18.04.16.06.19.1.15.13.13.18.1.18.05.17.02.19-.04.09-.03.09-.05.27-.18.32-.32.39-.45.45-.58.45-.59.43-.51.39-.4.18-.18.17-.14.34-.24.18-.11.18-.08.36-.14.4-.09.19-.03h.21l.43.04.22.04.22.05.23.08.23.09.4.21.36.26.17.16.17.15.29.37.23.4.09.2.08.23.1.45.03.25v.24l-.04.53-.04.27-.06.28-.17.58-.23.63-.2.44-.22.41-.23.37-.26.32-.27.3-.29.26-.29.21-.31.18-.32.14-.35.1-.35.08-.37.03H38l-.4-.04-.41-.07-.43-.11zm.09 11.506l-10.23-2.933.58-2.01 8.056-2.238-6.847-1.97.54-1.904 10.23 2.93-.6 2.08-7.92 2.23 6.73 1.92-.56 1.92zm-1.003 4.543l-5.2-1.11-5.198-1.1.43-2.11 5.2 1.1 5.21 1.1-.45 2.1zm-1.543 20.12H23.63v-2.1l7.13-4.38h-7.13v-2h10.645v2.16l-7.004 4.31h7.01v1.99zm-3.913 6.01l-3.75 1.88 4.07 1.01-.31-2.9zm3.8-4.37l.23 2.31-2.3 1.16.44 4.24 2.51.63.23 2.26-5.5-1.51-5.51-1.49-.23-2.27 10.14-5.36zM35.98 150l-5.25.914-5.24.925-.37-2.13 5.237-.93 5.25-.92.374 2.12zm-6.61 10.9l6.846-1.7-.385-1.557-.22-.747-.1-.27-.09-.22-.29-.412-.16-.167-.18-.14-.22-.117-.25-.09-.31-.064-.34-.025h-.4l-.46.04-.51.09-.57.13-.55.16-.49.17-.41.17-.33.18-.27.2-.11.1-.11.11-.1.1-.09.11-.15.23-.11.25-.08.26-.03.14-.01.14-.01.3.02.28.06.39.11.48.13.58.23.94zm-1.223 2.52l-.94-3.796-.14-.605-.09-.55-.053-.48-.015-.39.05-.48.11-.47.16-.44.23-.41.28-.4.33-.36.18-.18.19-.17.44-.3.48-.29.26-.13.29-.12.61-.23.69-.2.31-.08.3-.05.59-.09.54-.03.53.01.29.04.3.04.54.14.26.09.24.1.46.24.16.1.15.13.3.28.14.17.14.17.27.4.19.35.16.42.17.48.15.54.98 3.91-5.18 1.29-5.16 1.28zm13.86 8.045l-10.05 3.462-.683-1.97 5.316-6.474-6.745 2.33-.642-1.878 10.063-3.477.696 2.048-5.212 6.344 6.614-2.277.644 1.892zm1.816 4.26l-9.794 4.156-.84-1.98 9.79-4.15.83 1.98zm1.93 10.54l-.205.102-.206.065-.425.077-.22.01-.218-.02-.22-.04-.22-.07-.22-.08-.21-.11-.36-.25-.16-.16-.14-.17-.25-.37-.09-.22-.08-.21-.08-.43v-.22l.01-.22.04-.22.06-.22.07-.22.11-.21.24-.36.14-.15.17-.14.38-.25.2-.09.22-.08.42-.08h.22l.22.01.22.04.22.07.22.07.19.1.36.25.15.15.15.16.23.38.1.21.06.22.07.42.02.22-.02.21-.04.22-.07.22-.08.22-.1.19-.25.36-.16.15-.16.15-.38.23zM41.21 132.03l.025 2.137.064 2.137.11 2.135.15 2.13.2 2.12.24 2.11.28 2.11.33 2.11.37 2.08.41 2.08.45 2.06.5 2.06.27 1.01.27 1.02.58 2.02.63 1.99.65 1.99.71 1.95.73 1.94.78 1.91.82 1.89.85 1.88.9 1.84.92 1.81.97 1.78 1 1.76 1.05 1.72 1.08 1.7 1.12 1.65.57.81.59.81.58.79.6.8 1.23 1.55 1.26 1.52-3.04 6.32-3.04 6.33-3.03 6.32-3.04 6.33-.85-.81-.87-.89-1.76-1.93-1.73-1.97-.84-.93-.79-.87-6.09 4.67-6.09 4.68-5.96-8.14-5.96-8.13 6.16-4.61 6.17-4.61-.61-.93-.58-.95-.56-.97-.54-.98-1.02-2.01-.98-2.03-.94-2.06-.91-2.07-.91-2.06-.91-2.02-7.28 2.42-7.26 2.42-3.03-9.59-3.02-9.57 7.26-2.42 7.25-2.41-.27-1.08-.25-1.08-.45-2.18-.4-2.19-.33-2.2-.29-2.23-.26-2.23-.23-2.25-.2-2.25-7.58-.17-7.56-.15.13-9.89.13-9.87 7.44.05 7.45.06.1-1.13.13-1.12.27-2.25.31-2.23.36-2.22.4-2.21.45-2.19.49-2.17.54-2.16-7.06-2.51L4 99.66l3.27-9.37 3.28-9.37 7.114 2.47 7.13 2.47.94-1.99.99-1.98 1.06-1.93 1.05-1.934 1.09-1.914 1.13-1.897 1.17-1.87L33.42 70.5l-6.27-4.58-6.27-4.57 5.92-7.8 5.92-7.78 6.26 4.3 6.25 4.31 2.99-3.11 1.52-1.55 1.56-1.53.78-.76.787-.74.796-.74.81-.73.815-.72.82-.69.84-.697.84-.68-4.48-6.15-4.474-6.14 8.17-5.72 8.19-5.7 4.61 5.97 4.6 5.984 3.65-2 1.84-.98 1.865-.954 1.88-.93.95-.45.95-.44 1.92-.85.98-.4.96-.38-2.35-7.16-2.36-7.14 9.66-2.96 9.66-2.93 2.51 6.94 2.51 6.95 1-.197 1-.196 1.03-.166 1.04-.16 2.1-.28 1.06-.13 1.07-.1 4.29-.4 4.21-.32-.19-7.56-.18-7.52 10.01.13L145.5.23v15l2.06.19 2.06.26 1.013.15 1.02.15 2.04.36 2.01.38 2.005.4 3.98.84 2.56-7.07 2.58-7.06 9.49 3.09 9.48 3.09-2.43 7.23-2.42 7.23.973.4.97.41.97.432.47.22.48.23.95.48.95.49 1.88 1.018 1.85 1.04 1.84 1.06 1.82 1.045 1.83 1.03 4.54-6.27 4.55-6.25 8.07 5.85 8.07 5.87-4.44 6.27-4.45 6.27 1.63 1.35.79.7.77.71 1.47 1.44 1.44 1.465 1.4 1.507 1.39 1.52 2.86 3.08 6.19-4.53 6.19-4.52 5.86 8.07 5.86 8.08-6.18 4.45-6.17 4.467.59.93.57.92.54.91.51.92.97 1.83.92 1.84.86 1.87.86 1.89 1.78 3.92 7.27-2.35 7.3-2.37 3.08 9.49 3.09 9.48-7.13 2.32-7.13 2.32.52 2.12.46 2.06.41 2.03.35 2.04.17 1.014.15 1.02.15 1.05.12 1.044.24 2.14.22 2.215 7.41-.02 7.42-.02v19.94h-14.59l-.41 4.38-.23 2.08-.26 2.06-.3 2.04-.17 1.02-.2 1.03-.42 2.09-.25 1.042-.27 1.07 7.3 2.41 7.3 2.41-2.97 9.49-2.97 9.48-7.23-2.33-7.24-2.33-1.79 3.95-.88 1.94-.89 1.93-.92 1.92-.96 1.91-1.04 1.92-.55.96-.58.97 6.19 4.44 6.21 4.46-5.74 8.23-5.72 8.25-6.05-4.53-6.05-4.52-.8.86-.81.88-1.63 1.82-1.66 1.8-.85.85-.85.81-3.19-6.14-3.19-6.13-3.19-6.13-3.19-6.13 1.26-1.66 1.21-1.67 1.17-1.67 1.15-1.67 1.09-1.7 1.05-1.7 1.01-1.73.97-1.72.94-1.74.9-1.75.85-1.76.83-1.78.77-1.79.73-1.81.36-.9.33-.93.33-.91.32-.92.62-1.85.58-1.88.54-1.89.5-1.92.45-1.93.43-1.95.37-1.97.34-1.99.3-2.01.27-2.05.22-2.06.17-2.09.14-2.1.11-2.13.06-2.16.01-2.17-.03-2.37-.09-2.35-.16-2.34-.22-2.32-.27-2.29-.33-2.3-.39-2.27-.44-2.24-.5-2.23-.56-2.22-.6-2.19-.66-2.17-.71-2.14-.76-2.12-.81-2.1-.86-2.06-.91-2.05-.95-2.02-1.01-2-1.03-1.97-1.1-1.93-1.13-1.9-1.2-1.88-1.22-1.85-1.27-1.82-1.31-1.77-1.35-1.75-1.4-1.73-1.43-1.69-1.48-1.65-1.51-1.61-1.54-1.58-1.59-1.53-1.62-1.51-1.64-1.46-1.69-1.43-1.71-1.38-1.75-1.35-1.79-1.3-1.8-1.26-1.84-1.22-1.88-1.18-1.89-1.13-1.91-1.08-1.91-1-1.97-.99-2.01-.94-2.02-.9-2.05-.85-2.07-.8-2.09-.75-2.11-.7-2.13-.64-2.15-.61-2.17-.54-2.19-.47-2.2-.44-2.21-.37-2.23-.32-2.25-.27-2.25-.21-2.28-.14-2.28-.09-2.29-.04-2.33.04-2.33.08-2.3.16-2.31.21-2.29.26-2.28.31-2.28.38-2.25.43-2.23.49-2.23.53-2.2.6-2.19.63-2.18.69-2.15.74-2.12.79-2.11.83-2.09.89-2.08.93-2.03.99-2.02 1.02-1.98 1.1-1.96 1.11-1.93 1.15-1.902 1.21-1.88 1.25L80.1 59l-1.813 1.33-1.79 1.366-1.75 1.415-1.71 1.46-1.69 1.46-1.65 1.53-1.61 1.56-1.57 1.6L65 72.33 63.513 74l-1.454 1.7-1.42 1.738-1.37 1.764-1.34 1.8-1.29 1.84-1.23 1.86-1.2 1.89-1.15 1.91-1.11 1.955-1.06 1.97-1.01 2.007-.95 2.035-.9 2.06-.86 2.08-.8 2.11-.75 2.13-.68 2.15-.65 2.17-.58 2.2-.52 2.22-.48 2.24-.4 2.25-.35 2.28-.28 2.3-.22 2.32-.17 2.33-.09 2.34-.04 2.37zm127.205 147.707h-1.004l-4.77-2.406 1.03-1.36 4.75 3.77zm40.823 5.187v-3.538h-3.5v3.538h3.5zm3.283-3.538h-1.23v10.422h-2.04v-5.3h-3.5v1.363l-.08.35-.05.15-.06.12-.07.09-.1.07-.11.04-.15.02-.12-.01-.15-.07-.18-.1-.19-.15-.47-.42-.28-.28-.3-.32-.56-.63-.4-.51-.23-.39-.06-.14-.01-.13.02-.15.05-.11.08-.1.12-.06.26-.07.26-.06h.78v-3.54h-3.95v10.42h-2.05v-6.55l-.43.16-.22.09-.22.13-.21.13-.19.16-.18.18-.17.21-.17.22-.15.25-.29.6-.21.51-.05.17-.02.1-1.66-.72.37-.87.35-.67-.07-.1-.08-.09-.18-.19-.21-.15-.24-.14-.27-.1-.3-.08-.31-.05-.35-.01-.37.04-.33.1-.16.08-.15.1-.27.24-.22.31-.08.16-.07.18-.05.18-.04.18-.03.19-.01.21.02.35.05.32.09.3.13.3.16.26.19.25.23.23.15.1.13.1.58.38.58.34.59.31.59.28-.95 1.44-.29-.02-.32-.08-.33-.13-.35-.18-.37-.24-.38-.29-.4-.33-.41-.39-.4-.41-.35-.41-.3-.4-.24-.41-.18-.41-.08-.2-.05-.21-.09-.4-.02-.41.03-.36.05-.36.08-.35.13-.32.15-.33.08-.15.11-.14.22-.3.25-.27.28-.25.3-.22.31-.18.33-.16.33-.11.35-.08.37-.06.37-.02.49.04.49.08.23.06.24.08.46.18.43.22.34.22.3.22.23.22.29-.22.21-.14.21-.12.24-.1.14-.07.18-.05.43-.1.65-.15v-2.3h-11.8v10.42h-2.05v-10.5H181l.37.57.14.26.12.26.09.25.05.28.04.3.02.31-.01.44-.05.43-.08.4-.12.4-.157.36-.18.36-.204.35-.26.32-.27.3-.29.26-.32.24-.32.19-.36.17-.38.12-.38.09-.41.05.6.57.63.53 1.71 1.32-1.13 1.4-1.52-1.12-.77-.6-.67-.56-.66-.63-.75-.72-1.08-1.11 1.28-1.26.77.74.12.04.15.04.38.04h.26l.58-.13.25-.07.22-.09.19-.1.18-.11.14-.13.12-.14.19-.29.14-.32.1-.33.06-.35-.25.09-.46.13-.52.11-.41.04-.31-.01-.31-.02-.28-.05-.27-.06-.25-.09-.25-.12-.22-.13-.22-.14-.18-.17-.17-.18-.14-.2-.12-.22-.09-.24-.06-.26-.04-.27-.01-.3.01-.28.06-.28.09-.28.13-.29h-3.4v10.42h-2.04v-10.5h-7.76l-.04 2.38.17-.14.18-.15.44-.31.27-.14.31-.09.35-.06.41-.01.32.02.33.04.29.08.29.11.29.14.25.16.26.2.23.23.22.24.2.26.15.27.13.29.1.3.08.3.03.17.02.15.01.34-.01.36-.04.35-.05.34-.09.32-.12.31-.13.31-.17.28-.18.29-.41.51-.4.49-.41.46-.41.42-1.52-1.11.63-.62.32-.35.31-.38.15-.2.13-.21.1-.22.09-.23.06-.25.05-.24.02-.27.01-.27-.03-.32-.06-.31-.06-.16-.06-.14-.17-.26-.1-.12-.1-.1-.12-.09-.13-.07-.13-.06-.14-.04-.15-.01-.15-.02-.31.03-.29.09-.26.14-.11.11-.12.11-.22.23-.21.25-.36.48v5.91h-2v-2.78l-.25.14-.23.11-.25.11-.24.09-.51.11-.52.04-.38-.01-.35-.05-.34-.08-.3-.1-.31-.13-.28-.16-.27-.19-.26-.22-.23-.25-.21-.27-.17-.29-.14-.31-.11-.32-.08-.34-.05-.37-.02-.38.02-.54.06-.49.1-.43.07-.2.09-.18.09-.17.1-.17.23-.27.28-.22.32-.16.69-.26.68-.19.7-.15.69-.09.46 1.65-.2-.05-.33-.02-.4.03-.39.08-.36.13-.33.2-.14.1-.14.15-.11.16-.09.17-.07.21-.05.21-.03.24-.01.26.02.37.04.17.05.17.14.32.19.28.25.25.28.18.14.05.15.06.35.03.36-.02.31-.06.14-.05.12-.07.13-.07.1-.07.21-.18.18-.18.34-.36v-5.53H153v-1.65h17.88l-.77-.01-5.06-4.92 1.686-.81 4.15 5.74h41.57v1.64zm-32.76 1.35l-.02-.23-.1-.245-.15-.24-.2-.26-.13-.13-.14-.1-.31-.15-.33-.1-.37-.04-.22.03-.2.07-.19.1-.18.16-.15.18-.1.19-.07.21-.02.22.03.27.07.25.05.12.06.09.17.18.21.14.22.09.26.07.28.02.26-.01.24-.05.23-.08.23-.1.2-.14.17-.14.14-.15.11-.16zm-36.63 12.754l-.01.248-.05.232-.07.22-.05.114-.06.102-.14.193-.16.18-.2.16-.23.15-.25.14-.28.11-.29.1-.31.09-.33.06-.35.04-.38.04h-.84l-.44-.04-.84-.11-.4-.08-.38-.11-.39-.12-.36-.14-1.34-.58-1.16-.58.93-1.33.04.05.1.07.34.22.55.28.75.37.43.19.41.15.8.25.74.15.36.04.35.01.39-.01.35-.04.28-.07.22-.09.18-.11.06-.08.05-.09.08-.21.03-.26-.02-.17-.05-.14-.08-.13-.09-.1-.14-.08-.15-.05-.19-.04h-.44l-.21.04-.22.06-.22.08-.33.16-.1.08-.06.05-.88-1.02.51-.25.59-.25.31-.11.3-.06.3-.05.28-.02.62.02.56.1.24.06.23.08.41.22.18.13.14.14.13.16.11.17.09.2.05.22.04.21.01.25zm1.35-14.1h-1.25v10.42h-2.09v-5.532h-2.2l-1.07-1.48h3.27v-3.41h-3.34v2.934l-.01.23-.04.235-.07.258-.09.257-.11.244-.13.206-.14.168-.17.127-.16.104-.19.09-.2.08-.23.08-.22.05-.2.04-.19.03h-.18l.75 1.09.39.56.38.49.4.46.44.49.9.98-1.6 1.24-1.42-1.86-.81-1.09-.8-1.11-.72-1.04-.58-.94-.96-1.68 1.53-1.02.32.62.36.62.1.16.1.13.1.1.12.09.23.12.24.04.3-.02.22-.07.08-.05.05-.06.05-.06.02-.07.08-.55v-2.64h-6.3v10.43h-2.04v-5.31h-3.51v1.37l-.06.35-.05.14-.06.12-.08.09-.1.07-.13.04-.14.02-.13-.01-.16-.08-.17-.1-.2-.15-.48-.43-.27-.28-.31-.32-.55-.63-.39-.52-.24-.38-.05-.14-.02-.13.02-.15.05-.11.08-.11.12-.07.26-.08.27-.06h.77v-3.54H113v2.38l.167-.15.192-.15.43-.31.25-.14.31-.09.36-.06.4-.02.33.02.31.04.3.08.28.11.28.14.26.15.26.19.23.23.22.23.19.26.15.27.14.29.09.29.07.3.02.17.01.16.02.34-.01.36-.04.35-.07.34-.09.32-.12.31-.13.31-.17.28-.18.28-.4.51-.42.49-.41.46-.42.41-1.52-1.1.63-.62.32-.35.31-.38.16-.19.13-.21.1-.22.09-.23.08-.24.04-.25.04-.27v-.27l-.01-.32-.08-.31-.05-.16-.07-.14-.17-.26-.09-.11-.12-.11-.11-.09-.11-.07-.14-.06-.14-.04-.16-.01-.15-.02-.31.02-.27.09-.27.14-.12.1-.11.1-.22.24-.2.24-.36.48v5.91h-2.05v-2.78l-.24.14-.25.12-.25.11-.25.09-.5.11-.51.04-.36-.02-.36-.05-.33-.07-.31-.1-.31-.13-.28-.15-.27-.2-.26-.22-.23-.25-.21-.27-.17-.28-.14-.31-.11-.32-.07-.35-.06-.37-.02-.39.02-.54.06-.49.11-.43.07-.19.08-.18.09-.17.1-.17.23-.27.28-.22.32-.17.7-.25.68-.19.69-.14.69-.09.46 1.65-.2-.06-.34-.02-.4.03-.38.07-.35.13-.33.19-.16.1-.13.15-.12.15-.09.17-.08.2-.05.21-.02.24-.01.26.03.37.04.17.05.17.14.32.21.28.23.25.28.18.14.05.16.06.34.02.36-.02.31-.06.14-.05.15-.07.11-.08.11-.07.21-.18.19-.18.32-.36v-5.55h-6.96v-1.63h23.41l-.38-.7-.39-.75-.15-.38-.12-.37-.06-.36-.02-.34.01-.31.04-.28.05-.27.08-.26.1-.23.13-.2.14-.19.17-.17.19-.15.2-.13.22-.11.23-.09.24-.08.26-.04.55-.05.47.02.4.05.37.12.21.09.2.11v1.16l-.21-.06-.22-.04-.22-.04h-.55l-.3.02-.15.03-.13.05-.27.11-.26.18-.21.22-.09.12-.06.12-.05.13-.04.12-.02.16-.01.14.03.32.05.33.11.34.13.35.63 1.31h15.81v1.63zm-17.14 3.537v-3.538h-3.51v3.53h3.52zm-33.49 5.29h-2.41v-2.304h2.41v2.305zm0-6.55h-2.41v-2.305h2.41v2.304zm-5.12-2.278h-1.25v10.42h-2.05v-10.42h-2.95v6.16l-.07.35-.02.07-.05.07-.13.11-.19.06-.25.01-.14-.01-.15-.07-.2-.11-.22-.14-.54-.41-.65-.58-.63-.61-.45-.49-.27-.39-.07-.14-.01-.12.01-.16.04-.13.08-.11.12-.08.48-.2h1.3v-3.15h-4.68v10.43H73.7v-10.42h-3.02v10.42h-2.1v-2.83l-.28.17-.297.16-.296.13-.297.1-.295.08-.31.05-.296.04-.31.02-.49-.02-.46-.06-.46-.1-.44-.16-.41-.19-.39-.25-.38-.28-.36-.33-.32-.35-.29-.39-.25-.39-.1-.2-.09-.21-.16-.44-.1-.45-.07-.47-.03-.49.13.04.16.04.43.02.41-.03.39-.08.34-.13.17-.08.15-.1.07-.05.08-.05.11-.13.1-.14.09-.17.06-.18.05-.21.02-.21.01-.25-.03-.25-.07-.29-.12-.3-.15-.32-.18-.28-.14-.22-.13-.14-.09-.08H60v-1.64h13.92l-4.72-4.46 1.417-1.08 4.67 5.53h13.4v1.63zm-20.14 0h-3l.12.18.11.22.22.52.16.6.04.31.02.3-.01.29-.02.27-.05.27-.08.24-.09.23-.11.21-.13.2-.15.18-.37.32-.21.14-.21.11-.23.12-.25.1-.27.09-.28.06.07.22.08.19.09.19.11.17.1.15.12.14.26.24.14.1.15.09.32.14.18.05.18.02.4.03.43-.03.42-.11.21-.07.21-.09.39-.22.36-.26.29-.27.22-.28.08-.14.06-.14v-5.17zm144.89 14.89l-.67.87-4.53-3.3 1.34-1.36 3.86 3.77zm-191.89 3.46h230.37l-4.31-6.95-4.3-6.94-4.3-6.95-4.3-6.94H42.31l-5.19 6.93-5.175 6.95-5.186 6.93-5.18 6.95z"/>
    <path d="M218.145 149.418l.398-3.28-.192.192-.22.205-.51.387-.15.077-.15.07-.19.05-.19.04-.22.02h-.23l-.5-.03-.23-.04-.2-.04-.38-.1-.33-.13-.3-.17-.24-.2-.2-.22-.09-.13-.06-.13-.12-.29-.15-.61-.1-.6-.06-.61-.01-.6-.16-.04-.24-.05-.37-.02-.19.02-.18.04-.35.14-.34.22-.17.14-.14.18-.14.22-.11.25-.1.28-.09.32-.06.36-.07.39-.01.17v.16l.01.14.03.13.21.66-1.82-.21-.02-.75.02-.52.05-.51.1-.64.13-.57.17-.5.21-.42.24-.36.13-.16.14-.13.14-.12.16-.1.09-.05.08-.04.17-.06.71-.2.69-.13.7-.05h.67l.32-.97 1.73.22-.22.37-.2.41-.11.23-.07.26-.07.27-.05.28-.02.46v.43l.06.41.05.19.07.2.08.18.1.15.12.14.13.12.16.1.16.07.18.05.21.04.24.02.24-.02.23-.02.21-.06.19-.08.18-.1.17-.15.16-.14.29-.35.26-.34.23-.36.22-.36.37-3.11 1.55.19-1.14 9.25-1.54-.19zM55.52 143.55l-1.04.09.076.746.01.116.015.102.07.206.08.18.05.078.07.077.14.13.17.09.22.04h.23l.26-.04.22-.065.19-.103.15-.117.1-.154.08-.18.04-.206-.01-.23-.04-.297-.09-.232-.11-.14-.06-.05-.09-.02-.33-.04h-.17l-.18.03zm-6.524-14.183l-.05 1.66 9.42.335-.065 1.827-9.42-.33-.16 4.55 9.38-.81.16 1.82-4.18.36.26 2.96 1.29-.12.52.06.25.05.22.06.4.17.18.1.16.13.16.14.13.16.12.19.1.23.08.25.08.28.05.31.04.35v.55l-.02.27-.05.24-.09.24-.09.23-.13.23-.15.2-.16.19-.2.16-.2.15-.23.13-.26.1-.27.09-.29.05-.32.05-.33.01-.31-.02-.28-.05-.24-.07-.22-.1-.19-.13-.08-.08-.08-.09-.13-.19-.22-.42-.18-.43-.15-.42-.13-.43-.07-.9-2.8.25-.17.04-.17.04-.32.14-.06.05-.06.06-.09.18-.03.12-.01.13v.29l.04.23.05.21.08.17.11.13.12.08.14.08.17.02h.2l.21-.02.17-.05.13-.07.1-.08.2-.27.99 1.27-.41.4-.3.17-.33.12-.37.09-.4.07-.49-.01-.23-.04-.22-.06-.2-.09-.2-.1-.18-.15-.18-.17-.17-.18-.14-.22-.13-.22-.1-.26-.16-.55-.05-.31-.04-.34-.02-.34v-.31l.03-.29.05-.26.06-.23.11-.21.11-.18.13-.14.31-.26.31-.22.32-.18.32-.14 3.45-.31-.26-2.96-3.67.32.12 1.33-.38.02-.02.69-1.55-.05.13-3.67-.14-1.7.21-.03.23-6.54 1.55.05zm1.3-10.258l-.463 3.28.41-.39.26-.2.27-.2.153-.08.17-.07.37-.09.452-.03.514.05.425.08.386.1.334.14.297.17.244.19.103.12.09.11.1.13.07.12.11.28.14.6.06.31.05.29.05.59v.59l.17.05.25.05.19.01h.18l.2-.02.18-.04.35-.15.18-.09.18-.11.16-.15.16-.18.14-.21.11-.26.12-.28.09-.33.14-.75.03-.32-.01-.16-.02-.13-.19-.65 1.83.24v.74l-.02.52-.07.5-.05.33-.05.31-.14.57-.18.48-.21.43-.24.36-.27.28-.31.22-.17.08-.17.07-.35.09-.36.09-.69.11-.68.04-.67-.01-.34.95-1.73-.23.23-.37.22-.43.1-.22.09-.25.06-.26.05-.3.04-.45-.01-.44-.01-.21-.04-.2-.11-.4-.06-.18-.1-.17-.1-.13-.13-.13-.15-.1-.16-.08-.18-.05-.2-.05-.26-.02h-.23l-.23.02-.21.05-.2.08-.18.09-.17.13-.15.15-.54.67-.24.35-.22.36-.44 3.1-1.54-.2 1.3-9.24 1.54.22zM53.41 107l-.424 1.62 9.1 2.446-.477 1.776-5.42-1.455-.29.426-.3.514-.16.297-.14.335-.13.34-.1.37-.12.57-.04.51.01.24.02.23.05.21.07.21.09.19.12.17.11.16.15.14.16.12.18.1.19.09.22.06.35.08.33.04h.29l.29-.04.24-.08.23-.12.21-.17.18-.2.32-.45.28-.45.26-.46.23-.47 1.33 1.17-.35.63-.4.6-.45.59-.51.58-.28.25-.32.2-.19.09-.18.07-.19.05-.19.05-.43.04-.47-.02-.5-.06-.54-.13-.36-.11-.34-.14-.33-.17-.28-.19-.27-.23-.24-.25-.22-.28-.21-.31-.16-.34-.11-.36-.09-.36-.05-.4-.02-.4.02-.43.08-.44.1-.47.1-.35.11-.34.31-.7.66-1.31-2.08-.55-1.96 7.26-1.49-.4 1.42-5.33 1.43-5.33 1.49.4zm2.523-5.793l-.618 1.52 8.74 3.54-.683 1.698-8.738-3.527-.593 1.44-1.42-.59.56-1.378-.1-.102-.15-.077-.2-.04-.25-.01-.3.01-.36.06-.83.21-.45.13-.4.16-.36.17-.3.17-.25.18-.22.21-.15.21-.11.22-.08.27-.01.25.02.13.04.11.05.12.08.1.18.21.22.18.25.16.28.14.27.09.23.05.22.03.18-.03.33-.09.31-.12-.64 1.6-.26.08-.24.06-.5.04-.24-.02-.24-.04-.23-.05-.24-.09-.25-.12-.24-.14-.23-.16-.19-.18-.19-.19-.15-.22-.14-.23-.12-.26-.09-.26-.08-.27-.03-.27-.02-.28.02-.28.05-.28.08-.29.11-.3.17-.35.18-.31.2-.28.25-.26.28-.24.3-.2.32-.18.35-.15.38-.13.37-.11.38-.1.4-.09.4-.06.4-.05.42-.04.43-.01 1.46.04.66-1.63 1.44.58zM62.187 89.2l-.81 1.48 8.237 4.57-.888 1.595-2.55-1.403.04.31.016.334v.36l-.025.386-.065.425-.155.476-.22.528-.294.6-.347.58-.362.5-.372.43-.386.35-.4.29-.424.19-.424.13-.44.04h-.436l-.438-.02-.424-.05-.4-.09-.4-.1-.398-.14-.373-.15-.38-.19-.16-.09-.14-.1.13-.11.11-.13.27-.32.24-.35.18-.31.2-.38.15-.37.09-.33.05-.31v-.14l-.02-.15-.04-.14-.08-.11-.09-.13-.13-.12-.31-.2-.21-.1-.22-.06-.22-.02-.23.02-.22.04-.21.08-.2.12-.18.16-1.62 2.92-1.36-.74 2.97-5.35 2.97-5.35 1.35.75zm2.383 5.342l-4.082-2.265-1.646 2.972.18-.12.23-.08.26-.07.282-.03h.31l.27.02.243.06.233.1.27.16.22.18.192.18.154.2.13.2.076.21.052.25.01.24-.01.26-.04.25-.102.51-.09.24-.09.26-.258.5-.27.46-.09.11-.064.05.437.06.425.04h.412l.4-.04.205-.04.19-.09.19-.14.2-.16.2-.23.2-.26.2-.31.2-.36.21-.45.15-.44.07-.45.02-.44-.05-.85-.09-.76zm11.222-15.817l-2.883-2.703-2.89 3.088 2.58 2.42 2.68-.618.5-2.187zm3.938-9.1l-1.236 1.12 6.306 7-1.364 1.223-6.306-7-2.728 2.457-.245.258 6.9 6.435-1.25 1.34-2.857-2.652-1.07 6.408-1.762-.116.888-3.783-3.204.836-2.96-2.76-.785.84-1.133-1.05 3.166-3.4-.27-.31 3.487-3.14.863-.91 4.518-3.92 1.042 1.15zm-2.406.066l-.516.42-.836-.29-.94-.29-.488-.14-.503-.1-.48-.07-.5-.05-.48-.01h-.44l-.38.03-.34.05-.7.16-.38.12-.42.13.85-1.73.27-.05.53-.05.78.02.46.04.52.07.53.12.54.16.54.21.27.12.27.13 1.01.56.89.53zm-1.842 1.48l-.566.47-.9-.01-1.044.05-.566.08-.295.07-.29.08-.6.2-.61.27-1.59.77-.4.26-.54.43-.29-1.76.36-.22.73-.33.48-.18.53-.18.61-.15.64-.14.67-.1.63-.05h.6l.29.03.28.04.53.09.5.1.46.12.43.11zm15.444-2.52l-3.346-4.77-1.996 1.39 1.468 2.1-.63.34-.335.18-.295.21-.362.27-.334.27-.283.27-.245.27-.103.15-.077.13-.05.13-.04.13v.11l.014.12.04.12.064.12.142.17.14.12.142.08.143.04.283-.01.27-.04.477-.6.295-.33.322-.26.99-.69.992.96-.5.23-.492.29-.372.29-.322.3-.258.28-.206.3-.077.15-.052.16-.024.14v.16l.07.32.07.15.1.17.09.13.1.1.11.09.12.06.11.05.14.03h.27l.29-.05.31-.1.31-.15.31-.19.23-.18.22-.2.42-.45.4-.53.36-.62.29-.6.19-.5.05-.21.04-.2v-.17l-.02-.14zm5.187-9.61l-1.468.79 4.427 8.32-1.622.86-4.426-8.32-3.656 1.96-.282.2 5.406 7.73-1.506 1.06-.992-1.43-.166.39-.18.4-.22.42-.244.45-.13.23-.166.24-.374.44-.463.43-.25.21-.27.21-.58.35-.59.27-.63.2-.32.07-.32.05-.32.01-.3-.02-.28-.05-.25-.09-.23-.11-.21-.16-.2-.18-.09-.11-.09-.12-.19-.32-.1-.32-.04-.32.03-.31.17-.55.09-.2.09-.15-.53.12-.56.07h-.14l-.14-.02-.13-.04-.13-.06-.13-.08-.11-.1-.21-.26-.15-.24-.12-.24-.07-.24-.04-.23V70l.05-.23.08-.23.12-.23.28-.434.18-.2.18-.205.4-.39.45-.34.48-.33.16-.11-.69-.99-3.78 2.64-.89-1.26 5.44-3.82-.24-.45 3.72-1.97 1.01-.71.09.11 5.73-3.05.74 1.38zm-2.433-.5l-1.145.57-1.403-.78-.502-.24-.27-.1-.27-.09-.553-.14-.567-.07-.554-.05h-.476l-.206.01-.193.02-.32.08-.52.18-.44.2-.38-1.75.36-.15.37-.11.39-.1.4-.04.44.02.23.03.25.03.55.12.59.17.61.2.59.23.56.27.56.31 1.02.62.93.6zm12.266-6.51l-1.982.92-.798-.25-.838-.23-1.763-.43-.45-.09-.438-.05-.41-.02-.4.02-.386.04-.36.08-.36.11-.33.13-.38.23-.15.12-.14.14-.12.14-.1.16-.07.17-.05.18-.04.18-.01.18.01.39.04.2.06.21.16.4.2.36.21.3.12.13.1.1.23.16.48.2.23.08.23.06 1.76-.82.66 1.41-1.49.7 3.98 8.55-1.66.77-3.98-8.54-1.42.66-.66-1.4 1.15-.53-.23-.09-.24-.11-.51-.28-.13-.1-.13-.1-.24-.27-.23-.35-.21-.4-.13-.3-.07-.29-.05-.29-.01-.3.02-.3.05-.29.09-.31.13-.3.15-.28.17-.27.2-.25.22-.23.23-.21.26-.19.29-.18.29-.15.41-.17.42-.15.44-.11.45-.09.48-.05.48-.02h.49l.51.03.51.05.51.07 1.02.16 1.01.23.99.29 1.62.6zm8.07.26l-1.585.52 2.91 8.98-1.77.58-2.92-8.95-3.37 1.09.62.43.33.27.34.28.17.17.17.2.14.21.16.25.26.54.13.31.12.32.12.43.1.43.12.79.01.38-.01.36-.04.36-.08.34-.1.32-.07.16-.08.14-.19.27-.24.26-.28.22-.32.2-.38.18-.41.16-.29.08-.28.05-.29.04h-.29l-.27-.02-.28-.07-.27-.08-.28-.1-.26-.13-.23-.16-.22-.18-.19-.19-.17-.21-.15-.24-.13-.26-.1-.27-.09-.36-.03-.19-.01-.2v-.79l1.65-.53-.03.73v.21l.02.19.04.19.05.18.12.3.14.26.18.22.21.19.23.13.13.05.13.02h.29l.31-.08.18-.08.17-.09.13-.12.12-.13.09-.14.06-.18.04-.19.01-.2-.01-.45-.08-.51-.11-.53-.16-.57-.25-.68-.27-.58-.31-.45-.15-.2-.08-.07-.09-.08-.32-.28-.32-.23-.63-.37-3.5 1.15-.49-1.48 6.05-1.97 6.05-1.95.48 1.47zm17.038-2.11l-4.8.34-.01-.12-2.535.4.3 1.99.29-.24.42-.29.25-.14.28-.13.29-.09.31-.06.37-.04.36-.01.33.02.33.05.32.09.31.12.31.14.28.18.27.2.24.22.2.25.19.27.15.28.13.3.09.34.07.34.04.38.01.37-.02.35-.05.35-.09.33-.13.31-.16.31-.19.3-.22.27-.23.25-.26.2-.26.19-.3.15-.3.12-.32.1-.33.07-.31.04h-.34l-.25-1.58.11.03.1-.01.1-.01.34-.09.31-.14.27-.19.22-.24.1-.14.08-.17.05-.16.05-.18.02-.19.01-.2-.04-.45-.09-.36-.13-.31-.18-.27-.12-.12-.12-.09-.14-.09-.14-.06-.35-.09-.41-.02-.23.02-.25.02-.28.06-.25.1-.21.13-.17.17-.16.18-.13.19-.24.36.85 5.39-1.8.28-.35-2.17-.96.52-.27.12-.25.09-.47.11-.36.05-.35.01-.35-.03-.32-.05-.32-.08-.31-.11-.3-.14-.3-.16-.27-.2-.23-.22-.22-.26-.18-.27-.17-.3-.13-.32-.1-.34-.06-.36-.04-.35-.01-.33.04-.32.06-.31.11-.28.14-.27.18-.27.22-.25.23-.22.26-.21.27-.18.29-.16.31-.13.32-.11.33-.09.35-.06.71-.05.74 1.52-.39-.04h-.26l-.26.03-.41.09-.36.13-.33.18-.28.22-.11.13-.11.14-.08.15-.06.17-.04.18-.01.19.01.19.02.22.04.18.05.16.08.16.08.14.1.13.11.13.13.1.16.1.16.09.15.07.34.1.33.04.36-.03.3-.06.27-.1.25-.13.22-.17.37-.36.31-.36-.83-5.27-6.1.96-.24-1.53 7.04-1.12 7.04-1.1.08.43 1.25-.08.1 1.55zm5.097-.04l-1.64.03.17 9.42-1.82.04-.16-9.43-1.55.03-.02-1.54 1.5-.02.02-.06.03-.07.01-.17-.05-.2-.07-.24-.06-.13-.07-.14-.18-.3-.23-.33-.28-.37-.31-.36-.3-.31-.28-.26-.27-.21-.27-.17-.27-.11-.25-.06-.25-.01-.27.02-.24.09-.11.08-.09.08-.08.09-.08.12-.11.25-.08.27-.05.29-.01.31.01.28.05.25.07.19.09.17.21.27.24.23-1.72.03-.17-.19-.15-.2-.12-.22-.1-.23-.09-.23-.05-.23-.04-.24-.01-.26V46l.04-.27.05-.27.09-.26.11-.244.14-.23.16-.22.18-.206.2-.193.23-.153.24-.14.24-.118.27-.103.28-.065.3-.038.31-.015h.38l.36.05.35.09.32.116.32.16.31.19.3.22.29.27.52.59.47.63.22.35.21.36.39.75.53 1.35 1.76-.02.03 1.56zm22.99 3.44l-1.63-.34-1.95 9.22-1.79-.37.93-4.37-2.67-.56.32-1.51 2.68.56.71-3.33-4.58-.96.35.44.16.27.16.29.07.15.05.18.04.18.02.2-.01.44-.08.5-.07.32-.05.16-.07.14-.13.29-.17.24-.18.23-.22.21-.23.18-.27.15-.28.13-.27.11-.28.09-.28.05-.28.03h-.28l-.28-.01-.29-.05-.07.21-.04.15-.04.37.04.36.1.38.19.38.13.18.17.17.21.15.24.14.27.13.31.12.35.1.39.09.19.04.2.02.4.01.36-.02.28-.06-.67 1.76-.9-.14-.72-.13-.63-.15-.56-.19-.49-.2-.41-.24-.18-.13-.15-.14-.15-.14-.11-.15-.11-.15-.08-.15-.12-.35-.13-.71-.06-.71v-.68l.07-.67-.93-.41.33-1.58.76.48.46.22.26.07.28.08.42.06h.41l.39-.05.36-.1.17-.08.16-.1.13-.1.12-.14.1-.14.09-.18.13-.39.04-.24.01-.24v-.22l-.04-.21-.05-.19-.08-.19-.1-.17-.11-.16-.29-.31-.29-.27-.28-.27-.29-.23-2.8-.59.32-1.52 6.66 1.42 6.67 1.42-.32 1.52zm1.41-4.33l-.1.25-.14.21-.16.17-.2.16-.23.09-.23.05h-.24l-.24-.05-.24-.1-.21-.14-.17-.18-.15-.23-.1-.24-.04-.24v-.26l.05-.24.11-.24.14-.21.2-.15.22-.13.24-.09.24-.04.26.02.24.05.24.11.2.14.16.17.13.21.09.24.04.23v.2l-.02.13-.04.13zm8.6 8.36l-3.42-1.32.14.25.13.26.12.28.12.32.04.17.03.17.02.2-.02.21-.09.44-.16.48-.13.31-.15.27-.18.26-.19.22-.23.2-.23.17-.27.14-.28.12-.29.09-.3.06-.29.04-.28.01-.28-.02-.3-.04-.27-.06-.28-.09-.18.34-.05.18-.04.18-.02.18v.18l.01.2.04.19.05.21.08.19.1.2.14.2.17.2.22.17.25.18.3.15.68.31.39.12.39.06.35.03.3.01-.61 1.61-.71-.14-.57-.15-.62-.21-.31-.13-.28-.13-.52-.27-.45-.28-.36-.3-.3-.31-.11-.17-.1-.17-.07-.17-.05-.18-.04-.17-.02-.18-.01-.73.01-.35.04-.34.11-.68.16-.64-.85-.55.58-1.52.31.3.36.29.43.29.25.12.27.11.42.14.4.07.38.01.39-.06.17-.05.17-.07.16-.1.14-.1.12-.14.11-.15.1-.16.07-.19.08-.23.07-.23.02-.22v-.21l-.02-.2-.04-.19-.07-.2-.11-.18-.22-.34-.24-.34-.5-.58-2.69-1.03.55-1.46 8.5 3.27-.55 1.45zm-.51 5.11l-2.88-1.11.57-1.44 2.89 1.11-.57 1.44zm17.66 5.3l-1.34-.96-5.54 7.62-1.48-1.08 5.55-7.62-3.68-2.68-4.59 8.24-1.61-.89 1.41-2.55-.4-.01-.41-.04-.9-.1-.47-.09-.47-.15-.49-.19-.5-.26-.54-.33-.47-.33-.4-.36-.17-.18-.17-.18-.27-.37-.2-.38-.12-.4-.05-.2-.02-.2-.01-.43.01-.4.04-.41.06-.38.1-.4.13-.37.15-.39.2-.37.24-.44.16-.28.25.21.3.24.36.26.45.26.45.23.44.17.2.06.22.04.4.05h.19l.18-.03.17-.05.16-.09.16-.1.14-.14.13-.16.11-.19.13-.24.08-.23.05-.21v-.18l-.04-.18-.04-.08-.06-.09-.15-.14-.22-.14-.24-.12-.23-.05-.11.02-.1.01-.07.05-.09.05-.14.15-.14.14-.24.34-1.57-.87.3-.32.32-.31.36-.28.39-.27.22-.1.25-.06.27-.02.29.02.31.06.32.12.35.14.37.19.27.17.26.18.22.19.18.21.09.1.08.11.13.23.11.23.07.26.04.26.03.26v.2l-.03.25-.06.26-.08.26-.23.51-.2.34-.22.3-.23.24-.12.11-.13.09-.12.09-.12.07-.27.11-.28.06-.28.03-.29-.01-.3-.04-.3-.05-.29-.07-.3-.09-.3-.11-.28-.13-.3-.15-.46-.26-.2-.11-.1.25-.1.29-.21.82-.01.12v.13l.02.12.04.12.1.25.08.11.11.13.23.24.31.26.36.24.44.26.5.24.27.1.27.07.58.13.3.04.31.04h.56l.25-.02.22-.03.19-.04.16-.05.14-.08.1-.08 2.17-3.94-1.2-.67.19-.34-.51-.38.91-1.25 3.07 2.23 1.33.75-.09.17 5.34 3.88-.91 1.24zm9.9 8.83l-1.22-1.15-6.43 6.9-1.34-1.26 4.06-4.35-2.94-2.74-.22-.2-.24-.22-.25-.17-.27-.13-.27-.1-.29-.02-.14.02-.13.04-.12.06-.14.08-.13.11-.13.13-.09.1-.06.11-.06.1-.05.1-.08.23-.01.23.02.24.08.22.05.1.07.1.16.18.16.12.17.09.17.05.19.03.19-.01.09-.02.09-.04.18-.1.15-.14.21-.28.07-.17.05-.16 1.34 1.25-.17.39-.1.15-.1.14-.19.2-.2.16-.21.14-.21.11-.45.14-.22.04-.24.01-.23-.01-.24-.04-.23-.08-.25-.09-.23-.13-.24-.15-.48-.39-.25-.26-.23-.26-.19-.25-.17-.27-.13-.26-.08-.27-.06-.26-.04-.27.02-.26.02-.27.05-.26.09-.24.12-.26.15-.25.19-.24.21-.23.31-.32.31-.26.3-.21.3-.15.28-.1.27-.05.27.01.25.07.49.21.48.24.43.27.4.3 3.51 3.29 1.35-1.44-6.21-5.79 1.05-1.14 8.78 8.19-1.06 1.15zm14.97 21.27l-.86-1.41-8.07 4.87-.95-1.58 2.47-1.48-.4-.24-.21-.15-.19-.2-.34-.47-.31-.49-.42.08-.45.03-.49-.02-.51-.06-.26-.06-.27-.13-.27-.17-.26-.22-.27-.28-.27-.32-.27-.37-.28-.44-.3-.54-.24-.53-.09-.26-.07-.25-.09-.48-.02-.23-.01-.22.01-.23.02-.2.11-.41.18-.38.43-.72.47-.66.24-.32.25-.3.27-.28.26-.27-.33-1.02 1.34-.79.17.75.07.22.08.2.18.36.26.4.29.34.16.14.16.14.16.12.17.11.17.08.17.06.19.03h.18l.2-.03.2-.05.22-.09.21-.11.27-.18.22-.2.16-.22.12-.23.1-.25.08-.25.12-.48-1.85-3.06 1.34-.8 4.04 6.72 4.04 6.73-1.32.8zm-6.01-.45l4.21-2.53-3.54-5.89-.02.18-.05.24-.07.26-.11.31-.14.31-.21.27-.24.23-.28.21-.36.2-.33.16-.33.11-.29.05h-.29l-.27-.04-.25-.09-.13-.05-.12-.07-.45-.33-.41-.35-.37-.37-.35-.4-.36.36-.34.4-.32.44-.31.47-.06.13-.05.13-.08.29-.01.29.01.31.07.33.12.36.18.37.22.39.16.26.16.23.31.35.14.14.14.11.14.07.14.04.26.05.26.02h.24l.23-.04.01-.4.05-.38.11-.36.15-.32.19-.31.23-.28.29-.25.34-.23.37-.2.37-.16.35-.1.17-.04.15-.01.32-.01.31.05.3.09.27.14.51.36.25.21.22.2.21.23.19.23.19.26.17.26.1.18-1.1 1.17-.11-.35-.18-.36-.19-.27-.22-.22-.26-.18-.13-.08-.15-.06-.28-.07h-.29l-.14.03-.14.04-.29.13-.14.09-.11.12-.2.23-.06.12-.04.13-.02.15v.14l.03.32.08.31.13.32.17.31.23.31.08.08.08.07.17.14.53.39zm.78 12.35l-.32-.42-.27-.4-.23-.4-.15-.32-.14-.33-.17-.49-.14-.45-.1-.42-.06-.41-.02-.38.02-.36.04-.34.08-.3.12-.3.13-.28.16-.27.2-.26.22-.25.25-.24.27-.23.31-.22.65 1.69-.16.09-.18.13-.41.4-.1.14-.06.18-.02.23.01.27.05.31.09.36.12.4.17.44.08.22.1.19.25.42.17.23.18.22.18.17.09.06.09.04-1.43.91zm1.41-.91l.26.16.27.08h.27l.27-.08.25-.1.18-.14.07-.08.06-.09.06-.18.01-.22-.02-.24-.08-.28-.1-.33-.44-.98-.37-.84-.09-.28-.08-.29-.08-.53-.01-.26.01-.26.04-.24.07-.24.09-.23.11-.2.13-.2.15-.18.16-.16.21-.14.21-.13.24-.1.28-.11.27-.06.25-.03h.23l.21.03.21.07.17.11.15.13.3.3.26.31.12.16.12.16.22.34 1.03 2.69 1.12-.43-2.27-5.9 1.45-.56 3.59 9.36-1.45.56-.77-2-2.43.94-.92-2.33-.18-.48-.19-.5-.11-.31-.13-.25-.13-.2-.13-.16-.15-.1-.17-.05h-.19l-.1.03-.11.04-.21.11-.08.06-.06.07-.05.09-.02.09-.02.09v.12l.03.22.05.22.13.44.18.4.32.67.35.68.21.47.08.23.05.24.05.46-.01.22-.04.23-.07.22-.08.23-.22.42-.14.18-.15.17-.18.15-.2.14-.22.12-.23.1-.33.11-.34.07-.32.03h-.32l-.31-.05-.29-.09-.3-.13-.29-.17-.18-.13-.18-.15-.17-.15-.17-.17 1.41-.91zM219.09 126l-.32-1.64-9.25 1.8-.36-1.84 9.254-1.802-.67-3.486-.244.28-.26.28-.63.593-.196.14-.21.13-.232.13-.243.117-.27.1-.31.09-.31.09-.35.06-.44.078-.43.05-.4.01h-.4l-.38-.02-.36-.06-.34-.08-.34-.112-.31-.144-.27-.18-.26-.23-.11-.13-.11-.14-.18-.295-.09-.17-.08-.18-.13-.4-.11-.43-.04-.3-.02-.3.01-.28.03-.29.06-.28.09-.27.11-.26.13-.26.17-.25.18-.22.19-.2.22-.17.23-.14.25-.13.27-.09.28-.06.37-.05.4.01.77.09.33 1.71-.73-.13-.4-.03-.37.04-.31.08-.14.06-.13.06-.24.14-.22.18-.16.22-.1.24-.02.14-.01.14.04.32.05.19.06.17.1.14.11.13.14.1.15.09.19.06.2.04.45.04.5-.01.54-.05.58-.09.71-.17.61-.21.25-.12.24-.12.2-.15.18-.14.31-.3.28-.28.23-.29.21-.28-.7-3.62 1.52-.3 1.21 6.23 1.21 6.24-1.52.3zm.31 12.764l-.04-1.69-9.42.168-.02-1.84 3.1-.05-.19-.27-.18-.273-.14-.27-.103-.27-.05-.15-.04-.14-.05-.31-.05-.32-.015-.34.015-.35.02-.33.066-.32.09-.32.115-.3.14-.3.167-.28.21-.29.22-.25.23-.22.246-.19.27-.16.13-.06.14-.06.3-.09.32-.06.33-.02 4.04-.08-.02-1.33 1.56-.03.09 5.35.09 5.37-1.55.02zm-4.58-3.44l4.52-.08-.076-4.04-3.785.07-.36.04-.17.04-.17.05-.3.17-.26.22-.22.27-.15.324-.09.36-.03.4.02.36.07.345.11.31.06.14.09.13.35.49.17.22.18.196zm-8.21 2.34l-.27-.02-.26-.05-.24-.09-.22-.1-.19-.16-.18-.17-.14-.203-.14-.23-.116-.25-.09-.26-.09-.27-.066-.29-.04-.28-.04-.3v-.63l.01-.36.055-.37.155-.77.246-.8.153-.41.18-.41.36-.76.18-.32.167-.27.332-.42.157-.15.142-.1 1.235.84-.32.38-.31.41-.32.45-.32.49-.155.26-.13.29-.116.29-.09.31-.14.66-.04.35-.01.36v.32l.04.28.04.13.04.13.1.23.08.11.06.09.16.13.18.09.22.04.18-.03.16-.07.14-.1.12-.15.09-.19.06-.21.04-.23.02-.26-.02-.47-.07-.45-.05-.18-.06-.14-.05-.08-.05-.02 1.44.05.08.45.02.47v.53l-.05.61-.06.28-.06.27-.17.52-.12.23-.12.22-.14.21-.17.18-.18.14-.22.13-.24.09-.26.05-.29.04h-.31zm-3.062-27.61l-.106.24-.14.207-.17.18-.22.15-.216.1-.245.05-.23-.01-.25-.05-.23-.1-.21-.14-.18-.18-.14-.21-.1-.24-.05-.25.02-.25.05-.26.11-.23.14-.21.18-.17.23-.13.25-.09.24-.02h.24l.26.07.23.11.19.13.17.17.13.2.09.23.04.25-.01.24-.02.12-.02.13z"/>
  </g>
</svg>
