<?xml version="1.0" encoding="UTF-8" standalone="no"?>
<!-- Created with Inkscape (http://www.inkscape.org/) -->

<svg
   xmlns:dc="http://purl.org/dc/elements/1.1/"
   xmlns:cc="http://creativecommons.org/ns#"
   xmlns:rdf="http://www.w3.org/1999/02/22-rdf-syntax-ns#"
   xmlns:svg="http://www.w3.org/2000/svg"
   xmlns="http://www.w3.org/2000/svg"
   xmlns:sodipodi="http://sodipodi.sourceforge.net/DTD/sodipodi-0.dtd"
   xmlns:inkscape="http://www.inkscape.org/namespaces/inkscape"
   version="1.0"
   width="800"
   height="220"
   id="svg2"
   sodipodi:docname="Imperial_logo.svg"
   inkscape:version="0.92.3 (2405546, 2018-03-11)">
  <metadata
     id="metadata9">
    <rdf:RDF>
      <cc:Work
         rdf:about="">
        <dc:format>image/svg+xml</dc:format>
        <dc:type
           rdf:resource="http://purl.org/dc/dcmitype/StillImage" />
      </cc:Work>
    </rdf:RDF>
  </metadata>
  <sodipodi:namedview
     pagecolor="#ffffff"
     bordercolor="#666666"
     borderopacity="1"
     objecttolerance="10"
     gridtolerance="10"
     guidetolerance="10"
     inkscape:pageopacity="0"
     inkscape:pageshadow="2"
     inkscape:window-width="1280"
     inkscape:window-height="1385"
     id="namedview7"
     showgrid="false"
     inkscape:zoom="0.7225"
     inkscape:cx="470.95048"
     inkscape:cy="120.16094"
     inkscape:window-x="1280"
     inkscape:window-y="27"
     inkscape:window-maximized="0"
     inkscape:current-layer="layer1" />
  <defs
     id="defs4" />
  <g
     id="layer1">
    <path
       d="M 6.6232731,94.387032 L 19.212866,94.387032 L 19.212866,11.360836 L 6.6232731,11.360836 L 6.6232731,94.387032 z M 117.9103,58.246217 C 117.68863,48.944252 115.68985,42.423355 111.91396,38.683506 C 108.13791,34.943768 103.91425,33.143966 99.242974,33.284093 C 94.97402,33.327115 91.329191,34.326504 88.308477,36.282264 C 85.287642,38.238139 82.782388,40.892623 80.792708,44.245721 L 80.575646,44.245721 C 79.298092,40.845138 77.294793,38.177087 74.565741,36.241561 C 71.836596,34.30615 68.558061,33.320329 64.730124,33.284093 C 60.196662,33.392685 56.511135,34.450861 53.673532,36.458624 C 50.835877,38.466503 48.696914,40.772784 47.256637,43.377474 L 46.931044,43.377474 L 46.279859,34.586465 L 35.426761,34.586465 C 35.539806,37.098562 35.639293,39.698781 35.725221,42.387129 C 35.811134,45.075582 35.856355,48.082791 35.860885,51.408766 L 35.860885,94.387032 L 48.233416,94.387032 L 48.233416,58.137686 C 48.382625,53.400801 49.684996,49.796671 52.140531,47.325285 C 54.596018,44.853994 57.30929,43.610412 60.280354,43.594536 C 63.895755,43.68729 66.541195,45.102713 68.216681,47.840811 C 69.892086,50.579001 70.719634,54.083644 70.699328,58.354748 L 70.699328,94.387032 L 83.071859,94.387032 L 83.071859,57.4865 C 83.196164,53.109126 84.412615,49.708492 86.721215,47.284589 C 89.029698,44.86078 91.684181,43.630763 94.684673,43.594536 C 98.460575,43.662418 101.21907,45.181851 102.96016,48.152837 C 104.7011,51.123915 105.5603,55.139557 105.53777,60.199775 L 105.53777,94.387032 L 117.9103,94.387032 L 117.9103,58.246217 z M 144.86963,43.703067 L 144.21844,34.586465 L 133.14828,34.586465 C 133.26133,37.229702 133.36082,40.137424 133.44674,43.309639 C 133.53266,46.481957 133.57788,50.013733 133.58241,53.904978 L 133.58241,118.58944 L 146.172,118.58944 L 146.172,87.332518 L 146.38906,87.332518 C 147.88813,89.812908 150.01804,91.798118 152.77883,93.288155 C 155.53955,94.778194 158.72765,95.542432 162.34312,95.580872 C 168.90468,95.626092 174.69299,93.066572 179.70807,87.902306 C 184.72305,82.738053 187.36397,74.697724 187.63083,63.781297 C 187.49059,54.391144 185.24762,46.988434 180.90191,41.573144 C 176.5561,36.157959 170.94867,33.394945 164.07961,33.284093 C 159.88983,33.297722 156.19526,34.193102 152.99589,35.970236 C 149.79646,37.747487 147.16006,40.325095 145.08669,43.703067 L 144.86963,43.703067 z M 146.172,59.222996 C 146.28277,54.716737 147.66202,50.976944 150.30975,48.003604 C 152.95742,45.030357 156.20882,43.488315 160.06397,43.377474 C 164.90486,43.533538 168.5723,45.582059 171.06629,49.523043 C 173.56019,53.464116 174.81282,58.36157 174.82418,64.215421 C 174.80604,70.519285 173.51272,75.629279 170.9442,79.545419 C 168.37559,83.461589 164.64032,85.478455 159.73837,85.596023 C 156.46659,85.629946 153.43224,84.42254 150.63534,81.973801 C 147.83838,79.525086 146.3506,75.631541 146.172,70.293155 L 146.172,59.222996 z M 241.60719,83.09981 C 239.68298,83.929629 237.50784,84.603424 235.08177,85.121197 C 232.65561,85.638988 229.80215,85.905794 226.52139,85.921616 C 221.65555,85.989456 217.4952,84.578555 214.04033,81.688908 C 210.58541,78.799286 208.70421,74.023928 208.39672,67.362819 L 246.38256,67.362819 C 246.59956,65.861503 246.7081,64.088833 246.70815,62.044801 C 246.77819,54.388885 244.95577,47.750413 241.2409,42.129366 C 237.52593,36.508423 231.49795,33.560002 223.15693,33.284093 C 214.62818,33.505738 208.02589,36.616956 203.35002,42.617757 C 198.67414,48.618661 196.30455,56.179645 196.24125,65.30073 C 196.30003,74.539449 198.7872,81.865282 203.70275,87.278251 C 208.61829,92.691235 215.60948,95.458773 224.67636,95.580872 C 228.76433,95.553738 232.4182,95.201013 235.63799,94.522695 C 238.8577,93.844378 241.53479,93.003264 243.66928,91.99935 L 241.60719,83.09981 z M 208.50525,58.354748 C 208.78786,54.646647 210.01336,51.101306 212.18174,47.718713 C 214.35007,44.336213 217.71905,42.527365 222.28868,42.292164 C 227.0414,42.5138 230.34254,44.295515 232.19213,47.637314 C 234.04164,50.979208 234.90084,54.551682 234.76974,58.354748 L 208.50525,58.354748 z M 288.92407,33.609686 C 288.39268,33.501214 287.88168,33.419815 287.39107,33.365488 C 286.90038,33.311284 286.36225,33.284152 285.77667,33.284093 C 282.45062,33.320331 279.38914,34.414684 276.59224,36.567155 C 273.79528,38.719742 271.68345,41.713385 270.25674,45.548093 L 269.82262,45.548093 L 269.38849,34.586465 L 258.42686,34.586465 C 258.58739,37.333711 258.70044,40.196212 258.76602,43.173977 C 258.83158,46.151845 258.86324,49.367072 258.86099,52.819668 L 258.86099,94.387032 L 271.45058,94.387032 L 271.45058,62.695987 C 271.49578,57.414183 272.73484,53.217657 275.16777,50.106394 C 277.60064,46.99522 280.95606,45.403434 285.23401,45.331031 C 286.62679,45.33108 287.85681,45.439611 288.92407,45.656624 L 288.92407,33.609686 z M 312.38762,18.089757 C 312.35594,15.930519 311.68667,14.171414 310.3798,12.812436 C 309.07288,11.45362 307.3183,10.752693 305.11605,10.70965 C 302.90924,10.752695 301.13657,11.453623 299.79803,12.812437 C 298.45947,14.171414 297.77211,15.930519 297.73594,18.089757 C 297.76759,20.149657 298.43686,21.86354 299.74376,23.231409 C 301.05064,24.599421 302.80523,25.309394 305.00751,25.361332 C 307.30926,25.309396 309.10906,24.599423 310.40693,23.231411 C 311.70476,21.86354 312.36499,20.149657 312.38762,18.089757 L 312.38762,18.089757 z M 311.30231,34.477934 L 298.71272,34.477934 L 298.71272,94.387032 L 311.30231,94.387032 L 311.30231,34.477934 z M 369.43459,57.595031 C 369.59734,51.02669 368.05078,45.387607 364.79489,40.677765 C 361.53892,35.968031 355.59686,33.503476 346.96868,33.284093 C 342.91457,33.322593 339.22,33.815505 335.88496,34.76283 C 332.54988,35.710274 329.80495,36.881502 327.65017,38.276518 L 330.25491,46.633403 C 332.19037,45.369517 334.4243,44.370128 336.9567,43.635232 C 339.48907,42.900438 342.10285,42.525103 344.79806,42.509226 C 350.57052,42.787388 354.08421,44.45605 355.33913,47.515218 C 356.59398,50.574479 357.09594,53.355583 356.845,55.858536 C 346.478,55.856314 338.34271,57.705861 332.4391,61.407183 C 326.53546,65.10857 323.52825,70.675298 323.41746,78.107385 C 323.45137,82.871452 324.98437,86.936836 328.01646,90.303551 C 331.04853,93.670274 335.3762,95.429379 340.99948,95.580872 C 344.76186,95.533388 348.063,94.760106 350.90293,93.261022 C 353.74279,91.76194 356.01289,89.821951 357.71325,87.441049 L 358.03884,87.441049 L 358.90709,94.387032 L 370.30284,94.387032 C 369.93424,92.404083 369.69456,90.183722 369.58382,87.725942 C 369.47298,85.268176 369.42324,82.749356 369.43459,80.169474 L 369.43459,57.595031 z M 357.17059,74.20027 C 357.07785,77.745632 355.85236,80.639789 353.49411,82.882748 C 351.13579,85.125731 348.20093,86.283394 344.68953,86.355739 C 342.28147,86.371575 340.23295,85.607336 338.54396,84.06302 C 336.85493,82.518725 335.97312,80.099392 335.89852,76.805014 C 336.16757,71.631725 338.47837,68.222045 342.83094,66.575966 C 347.18346,64.929943 351.96334,64.179272 357.17059,64.323952 L 357.17059,74.20027 z M 397.78904,7.3451902 L 385.19944,7.3451902 L 385.19944,94.387032 L 397.78904,94.387032 L 397.78904,7.3451902 z M 490.39717,82.0145 C 488.55886,82.896325 486.32042,83.601775 483.68181,84.130853 C 481.0431,84.659951 478.28913,84.931279 475.41989,84.944837 C 466.75999,84.895104 459.98585,82.145655 455.09746,76.696483 C 450.20903,71.247346 447.72186,63.396946 447.63596,53.145261 C 447.79874,42.344221 450.45775,34.23606 455.61299,28.820756 C 460.76818,23.405583 467.44283,20.696834 475.63695,20.6945 C 478.7323,20.719445 481.49531,21.022427 483.926,21.603446 C 486.35659,22.184611 488.44129,22.894584 490.1801,23.733367 L 492.89338,13.422925 C 491.756,12.765035 489.71653,12.073149 486.77494,11.347266 C 483.83325,10.621549 479.97588,10.228126 475.20283,10.166996 C 463.43623,10.221344 453.75889,13.965658 446.17079,21.39995 C 438.58266,28.834387 434.65746,39.633209 434.39518,53.796447 C 434.56024,67.123175 438.1101,77.39743 445.04479,84.619244 C 451.97944,91.841077 461.30857,95.494949 473.03221,95.580872 C 477.57011,95.544694 481.51792,95.182925 484.87565,94.495563 C 488.23327,93.8082 490.79731,93.012307 492.56779,92.107881 L 490.39717,82.0145 z M 528.75017,33.284093 C 520.64198,33.338421 513.95828,36.078826 508.69907,41.505316 C 503.43983,46.931912 500.71752,54.719001 500.53212,64.866607 C 500.70169,74.598237 503.32,82.132087 508.38704,87.46818 C 513.45407,92.804287 519.95235,95.508515 527.88192,95.580872 C 534.9364,95.662269 541.28545,93.193191 546.92911,88.173632 C 552.57266,83.154085 555.55726,75.095669 555.88291,63.998359 C 555.77658,54.694128 553.30298,47.282374 548.46211,41.763075 C 543.62113,36.243881 537.05049,33.417556 528.75017,33.284093 L 528.75017,33.284093 z M 542.96773,64.323952 C 542.92246,70.455977 541.602,75.58406 539.00634,79.708217 C 536.4106,83.832404 532.811,85.975888 528.20751,86.138678 C 523.55648,85.971369 519.94331,83.836928 517.36798,79.73535 C 514.79261,75.633801 513.48572,70.569027 513.4473,64.541014 C 513.39528,59.121282 514.53033,54.196694 516.85246,49.767234 C 519.17455,45.337864 522.99574,42.990884 528.31604,42.726288 C 533.53228,43.008971 537.29016,45.374039 539.5897,49.821499 C 541.88915,54.269049 543.01516,59.103195 542.96773,64.323952 L 542.96773,64.323952 z M 580.93741,7.3451902 L 568.34782,7.3451902 L 568.34782,94.387032 L 580.93741,94.387032 L 580.93741,7.3451902 z M 609.55436,7.3451902 L 596.96476,7.3451902 L 596.96476,94.387032 L 609.55436,94.387032 L 609.55436,7.3451902 z M 667.2576,83.09981 C 665.33339,83.929629 663.15825,84.603424 660.73217,85.121197 C 658.30601,85.638988 655.45256,85.905794 652.1718,85.921616 C 647.30596,85.989456 643.14561,84.578555 639.69073,81.688908 C 636.23581,78.799286 634.35461,74.023928 634.04712,67.362819 L 672.03296,67.362819 C 672.24997,65.861503 672.3585,64.088833 672.35856,62.044801 C 672.42859,54.388885 670.60618,47.750413 666.89131,42.129366 C 663.17634,36.508423 657.14835,33.560002 648.80733,33.284093 C 640.27859,33.505738 633.67629,36.616956 629.00043,42.617757 C 624.32455,48.618661 621.95496,56.179645 621.89165,65.30073 C 621.95044,74.539449 624.4376,81.865282 629.35316,87.278251 C 634.26869,92.691235 641.25989,95.458773 650.32677,95.580872 C 654.41473,95.553738 658.0686,95.201013 661.2884,94.522695 C 664.5081,93.844378 667.1852,93.003264 669.31969,91.99935 L 667.2576,83.09981 z M 634.15565,58.354748 C 634.43827,54.646647 635.66376,51.101306 637.83214,47.718713 C 640.00048,44.336213 643.36946,42.527365 647.93909,42.292164 C 652.6918,42.5138 655.99295,44.295515 657.84254,47.637314 C 659.69204,50.979208 660.55125,54.551682 660.42015,58.354748 L 634.15565,58.354748 z M 723.25695,34.586465 L 722.7143,42.617757 L 722.49723,42.617757 C 721.27848,40.139686 719.34753,37.987157 716.70439,36.160162 C 714.06117,34.333284 710.5294,33.374595 706.10906,33.284093 C 699.3575,33.331637 693.51492,36.058475 688.5813,41.464614 C 683.64766,46.87086 681.06101,54.671516 680.82134,64.866607 C 680.92987,73.395352 683.12762,80.350371 687.4146,85.731685 C 691.70156,91.113016 697.42656,93.889598 704.58962,94.061439 C 708.46279,94.013958 711.81368,93.186411 714.6423,91.578793 C 717.47085,89.971182 719.65503,87.868396 721.19486,85.27043 L 721.41193,85.27043 L 721.41193,91.022571 C 721.32596,97.749226 719.7613,102.6105 716.71796,105.60642 C 713.67453,108.60231 709.66794,110.072 704.69816,110.01549 C 701.31106,109.97478 698.23602,109.54065 695.47302,108.71312 C 692.70999,107.88556 690.39466,106.90878 688.52704,105.78278 L 685.70523,115.55057 C 688.09969,116.96597 690.96219,118.04224 694.29275,118.77937 C 697.62327,119.51645 701.05556,119.88726 704.58962,119.89181 C 713.86898,119.69348 720.5979,117.64212 724.77639,113.7377 C 728.95478,109.83325 731.55952,105.26557 732.59062,100.03466 C 733.6216,94.803734 734.05572,90.099391 733.89299,85.921616 L 733.89299,51.84289 C 733.89519,47.874771 733.94493,44.52388 734.04222,41.790207 C 734.13939,39.05664 734.27053,36.655395 734.43564,34.586465 L 723.25695,34.586465 z M 721.30339,69.424907 C 721.16769,74.417352 719.81105,78.161667 717.23348,80.657862 C 714.65583,83.154084 711.67123,84.40219 708.27968,84.402182 C 703.58568,84.298185 699.97703,82.416983 697.45371,78.758571 C 694.93035,75.10019 693.65511,70.288655 693.628,64.323952 C 693.70033,57.843783 695.07506,52.733787 697.75217,48.993948 C 700.42925,45.254201 703.97459,43.345867 708.38821,43.268943 C 712.29755,43.375265 715.41329,44.790688 717.73544,47.515218 C 720.0575,50.239841 721.24682,53.635952 721.30339,57.703562 L 721.30339,69.424907 z M 791.68826,83.09981 C 789.76405,83.929629 787.58891,84.603424 785.16284,85.121197 C 782.73668,85.638988 779.88322,85.905794 776.60246,85.921616 C 771.73662,85.989456 767.57627,84.578555 764.1214,81.688908 C 760.66648,78.799286 758.78528,74.023928 758.47779,67.362819 L 796.46363,67.362819 C 796.68063,65.861503 796.78917,64.088833 796.78922,62.044801 C 796.85926,54.388885 795.03684,47.750413 791.32197,42.129366 C 787.607,36.508423 781.57902,33.560002 773.238,33.284093 C 764.70925,33.505738 758.10696,36.616956 753.43109,42.617757 C 748.75521,48.618661 746.38562,56.179645 746.32232,65.30073 C 746.3811,74.539449 748.86827,81.865282 753.78382,87.278251 C 758.69936,92.691235 765.69055,95.458773 774.75743,95.580872 C 778.8454,95.553738 782.49927,95.201013 785.71906,94.522695 C 788.93877,93.844378 791.61586,93.003264 793.75035,91.99935 L 791.68826,83.09981 z M 758.58632,58.354748 C 758.86893,54.646647 760.09443,51.101306 762.26281,47.718713 C 764.43114,44.336213 767.80012,42.527365 772.36975,42.292164 C 777.12247,42.5138 780.42361,44.295515 782.2732,47.637314 C 784.12271,50.979208 784.98191,54.551682 784.85081,58.354748 L 758.58632,58.354748 z"
       id="text3368"
       style="font-size:108.53237152px;font-style:normal;font-variant:normal;font-weight:normal;font-stretch:normal;text-align:start;line-height:100%;writing-mode:lr-tb;text-anchor:start;fill:#003e74;fill-opacity:1;stroke:#003e74;stroke-width:2;stroke-linecap:butt;stroke-linejoin:miter;stroke-opacity:1;font-family:Adobe Heiti Std R;-inkscape-font-specification:Adobe Heiti Std R;stroke-miterlimit:4;stroke-dasharray:none" />
    <path
       d="M 52.453341,208.24609 L 19.410674,208.24609 L 19.410674,133.53606 L 6.4176248,133.53606 L 6.4176248,219.22298 L 52.453341,219.22298 L 52.453341,208.24609 z M 88.484241,156.16189 C 80.116207,156.21796 73.218324,159.04618 67.790569,164.64657 C 62.362789,170.24707 59.553232,178.28371 59.36189,188.75652 C 59.5369,198.80002 62.239115,206.5753 67.468544,212.0824 C 72.697948,217.58951 79.404483,220.3804 87.588169,220.45508 C 94.868717,220.53908 101.42124,217.99088 107.24575,212.81046 C 113.07016,207.63005 116.15041,199.31339 116.4865,187.86045 C 116.37676,178.25804 113.82389,170.60877 108.82788,164.91259 C 103.83176,159.21653 97.050557,156.29963 88.484241,156.16189 L 88.484241,156.16189 z M 103.15743,188.19647 C 103.11071,194.52501 101.74793,199.81743 99.069094,204.07375 C 96.390168,208.33011 92.675206,210.54228 87.924196,210.71029 C 83.124114,210.53762 79.39515,208.33478 76.737292,204.10176 C 74.079391,199.86877 72.730617,194.64168 72.690966,188.42049 C 72.637278,182.82707 73.808704,177.74467 76.205249,173.17326 C 78.601752,168.60194 82.5454,166.17975 88.036205,165.90667 C 93.419599,166.19842 97.297908,168.63928 99.671143,173.22926 C 102.04429,177.81934 103.20638,182.80841 103.15743,188.19647 L 103.15743,188.19647 z M 180.315,181.47593 C 180.06759,172.09055 177.87408,165.49136 173.73447,161.67833 C 169.59475,157.86542 164.99305,156.0266 159.92935,156.16189 C 155.26461,156.27162 151.34896,157.36838 148.18241,159.45215 C 145.01579,161.53604 142.69628,163.9489 141.22385,166.69074 L 140.88782,166.69074 L 140.21576,157.506 L 128.90285,157.506 C 129.01952,160.1056 129.12219,162.80314 129.21088,165.59865 C 129.29954,168.39426 129.34621,171.48384 129.35089,174.8674 L 129.35089,219.22298 L 142.34394,219.22298 L 142.34394,182.03598 C 142.49559,177.09362 143.90037,173.34132 146.55828,170.77906 C 149.21613,168.21691 152.21704,166.92881 155.561,166.91475 C 159.92231,167.04082 162.98856,168.63695 164.75974,171.70314 C 166.53084,174.76943 167.38491,178.54974 167.32195,183.04406 L 167.32195,219.22298 L 180.315,219.22298 L 180.315,181.47593 z M 248.25636,129.39173 L 235.26331,129.39173 L 235.26331,164.45056 L 235.0393,164.45056 C 233.67881,162.04708 231.61131,160.07759 228.83679,158.54208 C 226.0622,157.00668 222.6786,156.21329 218.68598,156.16189 C 211.58505,156.22029 205.56923,159.07185 200.63852,164.71658 C 195.70778,170.36141 193.13624,178.44939 192.9239,188.98054 C 193.07557,198.62267 195.43243,206.24861 199.99447,211.85838 C 204.55649,217.46817 210.41362,220.33373 217.56589,220.45508 C 221.96454,220.3944 225.76818,219.36765 228.97681,217.37483 C 232.18536,215.382 234.61688,212.78713 236.2714,209.5902 L 236.60742,209.5902 L 237.27948,219.22298 L 248.7044,219.22298 C 248.58766,217.0248 248.48499,214.4486 248.39637,211.49435 C 248.30764,208.54013 248.26097,205.62789 248.25636,202.75765 L 248.25636,129.39173 z M 235.26331,193.90893 C 235.2096,198.34965 233.94483,202.09728 231.46901,205.15184 C 228.9931,208.20643 225.62817,209.79789 221.37419,209.92623 C 216.4271,209.79089 212.65613,207.7374 210.06128,203.76573 C 207.46638,199.79409 206.15961,194.71636 206.14096,188.5325 C 206.16195,182.2717 207.49206,177.06795 210.13129,172.92124 C 212.77048,168.77462 216.59278,166.62312 221.59821,166.46672 C 225.35281,166.50411 228.54039,167.91356 231.16098,170.69506 C 233.78148,173.47666 235.14892,177.40631 235.26331,182.48401 L 235.26331,193.90893 z M 289.97184,156.16189 C 281.6038,156.21796 274.70592,159.04618 269.27816,164.64657 C 263.85038,170.24707 261.04083,178.28371 260.84949,188.75652 C 261.02449,198.80002 263.72671,206.5753 268.95614,212.0824 C 274.18554,217.58951 280.89208,220.3804 289.07576,220.45508 C 296.35631,220.53908 302.90883,217.99088 308.73335,212.81046 C 314.55776,207.63005 317.63801,199.31339 317.9741,187.86045 C 317.86436,178.25804 315.31149,170.60877 310.31548,164.91259 C 305.31936,159.21653 298.53815,156.29963 289.97184,156.16189 L 289.97184,156.16189 z M 304.64502,188.19647 C 304.5983,194.52501 303.23553,199.81743 300.55669,204.07375 C 297.87776,208.33011 294.1628,210.54228 289.41179,210.71029 C 284.61171,210.53762 280.88274,208.33478 278.22489,204.10176 C 275.56699,199.86877 274.21821,194.64168 274.17856,188.42049 C 274.12487,182.82707 275.2963,177.74467 277.69284,173.17326 C 280.08935,168.60194 284.03299,166.17975 289.5238,165.90667 C 294.90719,166.19842 298.7855,168.63928 301.15874,173.22926 C 303.53188,177.81934 304.69398,182.80841 304.64502,188.19647 L 304.64502,188.19647 z M 381.80261,181.47593 C 381.5552,172.09055 379.36169,165.49136 375.22208,161.67833 C 371.08236,157.86542 366.48066,156.0266 361.41696,156.16189 C 356.75222,156.27162 352.83657,157.36838 349.67002,159.45215 C 346.5034,161.53604 344.18389,163.9489 342.71145,166.69074 L 342.37543,166.69074 L 341.70337,157.506 L 330.39046,157.506 C 330.50713,160.1056 330.6098,162.80314 330.69849,165.59865 C 330.78715,168.39426 330.83382,171.48384 330.8385,174.8674 L 330.8385,219.22298 L 343.83155,219.22298 L 343.83155,182.03598 C 343.9832,177.09362 345.38798,173.34132 348.04589,170.77906 C 350.70374,168.21691 353.70465,166.92881 357.04861,166.91475 C 361.40992,167.04082 364.47617,168.63695 366.24735,171.70314 C 368.01845,174.76943 368.87252,178.54974 368.80956,183.04406 L 368.80956,219.22298 L 381.80261,219.22298 L 381.80261,181.47593 z"
       transform="scale(1.0320468,0.9689483)"
       id="text3372"
       style="font-size:112.01048279px;font-style:normal;font-variant:normal;font-weight:normal;font-stretch:normal;text-align:start;line-height:100%;writing-mode:lr-tb;text-anchor:start;fill:#003e74;fill-opacity:1;stroke:#003e74;stroke-width:2.00000001;stroke-linecap:butt;stroke-linejoin:miter;stroke-opacity:1;font-family:Adobe Heiti Std R;-inkscape-font-specification:Adobe Heiti Std R;stroke-miterlimit:4;stroke-dasharray:none" />
  </g>
</svg>
