<?xml version="1.0" standalone="no"?>
<!DOCTYPE svg PUBLIC "-//W3C//DTD SVG 20010904//EN" "http://www.w3.org/TR/2001/REC-SVG-20010904/DTD/svg10.dtd">
<!-- Created using Krita: http://krita.org -->
<svg xmlns="http://www.w3.org/2000/svg" 
    xmlns:xlink="http://www.w3.org/1999/xlink"
    xmlns:krita="http://krita.org/namespaces/svg/krita"
    xmlns:sodipodi="http://sodipodi.sourceforge.net/DTD/sodipodi-0.dtd"
    width="114.48pt"
    height="43.2pt"
    viewBox="0 0 114.48 43.2">
<defs/>
<g id="group0" transform="matrix(0.631359619940324 0 0 0.631359596447009 2.609726443769 0.273436258799445)" fill="none">
  <circle id="shape0" transform="translate(0, 1.122)" r="29.899" cx="29.899" cy="29.899" fill="#ff4c00"/>
  <circle id="shape1" transform="translate(12.499, 18.339)" r="3.234" cx="3.234" cy="3.234" fill="#ffffff"/>
  <rect id="shape2" transform="translate(34.184, 26.495)" fill="#ffffff" width="3.517" height="16.878"/>
  <rect id="shape3" transform="translate(11.331, 26.495)" fill="#ffffff" width="3.515" height="16.878"/>
  <rect id="shape4" transform="translate(7.814, 26.495)" fill="#ffffff" width="7.032" height="3.516"/>
  <g id="group1" fill="none">
   <rect id="shape5" transform="translate(16.956, 26.495)" fill="#ffffff" width="3.516" height="16.878"/>
   <rect id="shape6" transform="translate(16.956, 26.495)" fill="#ffffff" width="6.329" height="3.516"/>
  </g>
  <rect id="shape7" transform="translate(44.028, 27.198)" fill="#ffffff" width="3.517" height="16.175"/>
  <path id="shape8" transform="translate(22.582, 26.495)" fill="#ffffff" d="M9.704 5.594C9.704 2.345 8.423 0 3.091 0L2.648 0L2.635 3.516L2.932 3.516C5.059 3.516 5.928 4.033 5.928 5.999C5.93 7.92 5.016 8.437 2.979 8.437L0 8.437L0 11.439L2.48 11.438L5.555 17.067L9.53 17.064L6.151 10.998C8.963 10.105 9.704 7.925 9.704 5.594Z"/>
  <rect id="shape9" transform="translate(39.458, 26.495)" fill="#ffffff" width="12.658" height="3.516"/>
 </g><g id="group2" transform="matrix(0.720000022749755 0 0 0.719999995958072 0 0)" fill="none">
  <path id="shape10" transform="translate(64.436, 36.348)" fill="#ff3100" d="M2.69 2.385L3.164 2.506C3.065 2.895 2.886 3.192 2.628 3.395C2.37 3.6 2.055 3.702 1.682 3.702C1.296 3.702 0.982 3.624 0.741 3.466C0.499 3.31 0.315 3.083 0.189 2.784C0.063 2.487 0 2.167 0 1.825C0 1.452 0.071 1.126 0.214 0.848C0.356 0.571 0.559 0.36 0.821 0.217C1.084 0.072 1.373 0 1.689 0C2.047 0 2.348 0.092 2.592 0.273C2.836 0.454 3.006 0.712 3.102 1.043L2.636 1.152C2.553 0.892 2.432 0.703 2.275 0.584C2.118 0.465 1.919 0.406 1.679 0.406C1.404 0.406 1.174 0.47 0.99 0.603C0.805 0.734 0.675 0.912 0.6 1.134C0.525 1.355 0.488 1.585 0.488 1.822C0.488 2.125 0.532 2.39 0.621 2.619C0.71 2.846 0.848 3.015 1.035 3.127C1.222 3.24 1.425 3.297 1.643 3.297C1.908 3.297 2.133 3.219 2.317 3.067C2.501 2.915 2.626 2.686 2.69 2.385Z"/>
  <path id="shape11" transform="translate(68.179, 36.409)" fill="#ff3100" d="M0 3.58L0 0L0.486 0L2.366 2.811L2.366 0L2.82 0L2.82 3.58L2.334 3.58L0.454 0.768L0.454 3.58Z"/>
  <path id="shape12" transform="translate(71.802, 36.409)" fill="#ff3100" d="M0 3.58L0 0L1.587 0C1.906 0 2.149 0.033 2.315 0.098C2.481 0.163 2.614 0.276 2.713 0.438C2.812 0.6 2.862 0.78 2.862 0.977C2.862 1.231 2.78 1.446 2.615 1.62C2.45 1.794 2.197 1.905 1.853 1.952C1.978 2.013 2.074 2.071 2.139 2.13C2.277 2.257 2.409 2.417 2.532 2.607L3.155 3.582L2.558 3.582L2.084 2.838C1.946 2.623 1.832 2.457 1.742 2.344C1.652 2.231 1.573 2.151 1.501 2.106C1.431 2.059 1.358 2.028 1.285 2.01C1.231 1.998 1.143 1.992 1.021 1.992L0.472 1.992L0.472 3.582L0 3.582ZM0.473 1.58L1.491 1.58C1.707 1.58 1.877 1.559 1.999 1.514C2.121 1.469 2.214 1.397 2.277 1.299C2.34 1.199 2.372 1.092 2.372 0.977C2.372 0.809 2.31 0.668 2.188 0.561C2.065 0.452 1.871 0.397 1.605 0.397L0.472 0.397L0.472 1.58Z"/>
  <path id="shape13" transform="translate(75.244, 36.347)" fill="#ff3100" d="M0 2.492L0.447 2.453C0.468 2.633 0.517 2.779 0.595 2.894C0.672 3.007 0.792 3.101 0.955 3.171C1.118 3.241 1.301 3.278 1.504 3.278C1.685 3.278 1.844 3.251 1.983 3.196C2.121 3.143 2.224 3.069 2.292 2.975C2.36 2.881 2.394 2.78 2.394 2.668C2.394 2.556 2.361 2.459 2.296 2.375C2.231 2.291 2.124 2.221 1.974 2.164C1.878 2.125 1.665 2.068 1.337 1.988C1.008 1.91 0.778 1.836 0.646 1.765C0.475 1.675 0.348 1.564 0.264 1.431C0.18 1.298 0.138 1.15 0.138 0.986C0.138 0.806 0.189 0.636 0.292 0.48C0.395 0.322 0.544 0.203 0.741 0.123C0.938 0.041 1.157 0 1.398 0C1.663 0 1.897 0.043 2.1 0.129C2.302 0.213 2.458 0.34 2.567 0.506C2.676 0.672 2.734 0.86 2.743 1.07L2.289 1.103C2.265 0.876 2.182 0.707 2.041 0.591C1.9 0.474 1.692 0.417 1.417 0.417C1.13 0.417 0.922 0.47 0.791 0.573C0.66 0.678 0.594 0.805 0.594 0.954C0.594 1.083 0.64 1.188 0.733 1.27C0.824 1.354 1.062 1.438 1.447 1.526C1.832 1.612 2.096 1.688 2.239 1.755C2.447 1.851 2.601 1.972 2.7 2.12C2.799 2.266 2.849 2.436 2.849 2.628C2.849 2.82 2.794 2.999 2.685 3.167C2.576 3.335 2.419 3.466 2.215 3.56C2.01 3.654 1.78 3.701 1.525 3.701C1.201 3.701 0.93 3.654 0.711 3.56C0.492 3.464 0.32 3.322 0.195 3.132C0.072 2.945 0.006 2.732 0 2.492Z"/>
  <path id="shape14" transform="translate(79.902, 38.474)" fill="#ff3100" d="M0 0.441L0 0L1.35 0L1.35 0.441Z"/>
  <path id="shape15" transform="translate(83.264, 36.409)" fill="#ff3100" d="M0 3.58L0 0L0.474 0L0.474 3.58Z"/>
  <path id="shape16" transform="translate(84.568, 36.409)" fill="#ff3100" d="M0 3.58L0 0L0.486 0L2.366 2.811L2.366 0L2.82 0L2.82 3.58L2.334 3.58L0.454 0.768L0.454 3.58Z"/>
  <g id="group3" fill="none">
   <g id="group4" fill="none">
    <path id="shape17" transform="translate(64.747, 21.99)" fill="#1a395f" d="M0 4.295L0 0L0.568 0L0.568 4.295Z"/>
    <path id="shape18" transform="translate(66.25, 23.103)" fill="#1a395f" d="M0 3.182L0 0.071L0.475 0.071L0.475 0.513C0.704 0.171 1.034 0 1.465 0C1.653 0 1.825 0.033 1.982 0.102C2.139 0.168 2.257 0.257 2.335 0.367C2.413 0.477 2.468 0.606 2.499 0.757C2.519 0.855 2.528 1.026 2.528 1.27L2.528 3.183L2 3.183L2 1.29C2 1.075 1.979 0.915 1.938 0.808C1.897 0.703 1.824 0.618 1.72 0.554C1.616 0.49 1.493 0.458 1.352 0.458C1.127 0.458 0.934 0.529 0.77 0.672C0.606 0.815 0.525 1.085 0.525 1.484L0.525 3.183L0 3.183Z"/>
    <path id="shape19" transform="translate(69.375, 23.103)" fill="#1a395f" d="M0 2.253L0.521 2.171C0.55 2.38 0.632 2.54 0.766 2.651C0.9 2.762 1.087 2.818 1.327 2.818C1.569 2.818 1.749 2.769 1.866 2.67C1.983 2.572 2.042 2.456 2.042 2.323C2.042 2.204 1.99 2.11 1.887 2.042C1.815 1.995 1.635 1.936 1.348 1.863C0.961 1.765 0.693 1.681 0.544 1.609C0.395 1.539 0.281 1.439 0.204 1.314C0.127 1.187 0.088 1.048 0.088 0.896C0.088 0.757 0.12 0.629 0.183 0.511C0.246 0.393 0.333 0.294 0.442 0.216C0.524 0.155 0.636 0.105 0.777 0.062C0.919 0.021 1.07 0 1.233 0C1.477 0 1.691 0.035 1.876 0.105C2.061 0.175 2.197 0.271 2.285 0.39C2.373 0.511 2.433 0.671 2.467 0.872L1.951 0.942C1.928 0.782 1.86 0.657 1.747 0.567C1.634 0.477 1.476 0.432 1.271 0.432C1.029 0.432 0.856 0.472 0.752 0.552C0.648 0.632 0.597 0.726 0.597 0.833C0.597 0.901 0.618 0.963 0.661 1.018C0.704 1.075 0.771 1.122 0.863 1.159C0.916 1.179 1.071 1.223 1.329 1.294C1.702 1.394 1.962 1.476 2.11 1.538C2.257 1.602 2.373 1.694 2.457 1.815C2.541 1.936 2.583 2.086 2.583 2.266C2.583 2.442 2.532 2.608 2.429 2.762C2.326 2.918 2.179 3.037 1.985 3.123C1.792 3.207 1.573 3.25 1.329 3.25C0.925 3.25 0.617 3.166 0.405 2.998C0.193 2.83 0.059 2.584 0 2.253Z"/>
    <path id="shape20" transform="translate(72.297, 22.087)" fill="#1a395f" d="M1.441 3.726L1.517 4.192C1.369 4.223 1.236 4.239 1.119 4.239C0.928 4.239 0.779 4.209 0.674 4.148C0.569 4.087 0.494 4.008 0.451 3.909C0.408 3.811 0.387 3.603 0.387 3.287L0.387 1.497L0 1.497L0 1.087L0.387 1.087L0.387 0.316L0.911 0L0.911 1.087L1.441 1.087L1.441 1.497L0.911 1.497L0.911 3.316C0.911 3.466 0.92 3.563 0.939 3.606C0.958 3.649 0.988 3.683 1.03 3.709C1.072 3.735 1.132 3.747 1.21 3.747C1.268 3.747 1.345 3.74 1.441 3.726Z"/>
    <path id="shape21" transform="translate(74.256, 21.99)" fill="#1a395f" d="M0 0.607L0 0L0.527 0L0.527 0.606L0 0.606ZM0 4.295L0 1.184L0.527 1.184L0.527 4.295Z"/>
    <path id="shape22" transform="translate(75.297, 22.087)" fill="#1a395f" d="M1.441 3.726L1.517 4.192C1.369 4.223 1.236 4.239 1.119 4.239C0.928 4.239 0.779 4.209 0.674 4.148C0.569 4.087 0.494 4.008 0.451 3.909C0.408 3.811 0.387 3.603 0.387 3.287L0.387 1.497L0 1.497L0 1.087L0.387 1.087L0.387 0.316L0.911 0L0.911 1.087L1.441 1.087L1.441 1.497L0.911 1.497L0.911 3.316C0.911 3.466 0.92 3.563 0.939 3.606C0.958 3.649 0.988 3.683 1.03 3.709C1.072 3.735 1.132 3.747 1.21 3.747C1.268 3.747 1.345 3.74 1.441 3.726Z"/>
    <path id="shape23" transform="translate(77.242, 23.173)" fill="#1a395f" d="M2.05 3.112L2.05 2.655C1.808 3.007 1.479 3.182 1.063 3.182C0.879 3.182 0.708 3.147 0.549 3.077C0.39 3.007 0.272 2.919 0.195 2.811C0.118 2.706 0.064 2.575 0.032 2.42C0.011 2.316 0 2.152 0 1.928L0 0L0.527 0L0.527 1.726C0.527 2.001 0.538 2.187 0.559 2.283C0.592 2.422 0.663 2.53 0.77 2.61C0.877 2.688 1.01 2.728 1.168 2.728C1.326 2.728 1.475 2.688 1.613 2.606C1.752 2.526 1.85 2.416 1.907 2.276C1.964 2.136 1.993 1.933 1.993 1.668L1.993 0.001L2.52 0.001L2.52 3.112Z"/>
    <path id="shape24" transform="translate(80.3, 22.087)" fill="#1a395f" d="M1.442 3.726L1.518 4.192C1.37 4.223 1.237 4.239 1.12 4.239C0.929 4.239 0.78 4.209 0.675 4.148C0.57 4.087 0.495 4.008 0.452 3.909C0.409 3.811 0.388 3.603 0.388 3.287L0.388 1.497L0 1.497L0 1.087L0.387 1.087L0.387 0.316L0.911 0L0.911 1.087L1.441 1.087L1.441 1.497L0.911 1.497L0.911 3.316C0.911 3.466 0.92 3.563 0.939 3.606C0.958 3.649 0.988 3.683 1.03 3.709C1.072 3.735 1.132 3.747 1.21 3.747C1.269 3.747 1.346 3.74 1.442 3.726Z"/>
    <path id="shape25" transform="translate(83.735, 21.99)" fill="#1a395f" d="M2.208 4.295L2.208 3.902C2.011 4.211 1.721 4.365 1.338 4.365C1.09 4.365 0.862 4.297 0.654 4.16C0.446 4.023 0.285 3.833 0.171 3.588C0.057 3.343 0 3.061 0 2.742C0 2.431 0.052 2.15 0.155 1.896C0.259 1.644 0.414 1.45 0.621 1.315C0.828 1.18 1.059 1.113 1.315 1.113C1.503 1.113 1.669 1.152 1.816 1.232C1.962 1.31 2.082 1.414 2.173 1.541L2.173 0L2.697 0L2.697 4.295ZM0.541 2.742C0.541 3.14 0.625 3.438 0.793 3.636C0.961 3.834 1.159 3.932 1.388 3.932C1.618 3.932 1.814 3.838 1.975 3.649C2.136 3.461 2.217 3.173 2.217 2.787C2.217 2.361 2.135 2.049 1.971 1.849C1.807 1.649 1.605 1.55 1.365 1.55C1.131 1.55 0.935 1.646 0.778 1.837C0.621 2.028 0.541 2.33 0.541 2.742Z"/>
    <path id="shape26" transform="translate(87.084, 23.102)" fill="#1a395f" d="M2.307 2.181L2.852 2.248C2.766 2.566 2.607 2.813 2.374 2.989C2.141 3.165 1.845 3.253 1.483 3.253C1.028 3.253 0.667 3.113 0.4 2.833C0.133 2.553 0 2.159 0 1.653C0 1.13 0.135 0.723 0.404 0.434C0.673 0.145 1.023 0 1.453 0C1.869 0 2.209 0.142 2.473 0.425C2.737 0.708 2.869 1.107 2.869 1.62C2.869 1.651 2.868 1.698 2.866 1.761L0.546 1.761C0.566 2.103 0.662 2.365 0.836 2.546C1.01 2.727 1.227 2.818 1.486 2.818C1.679 2.818 1.844 2.767 1.981 2.666C2.118 2.565 2.227 2.404 2.307 2.181ZM0.576 1.329L2.313 1.329C2.29 1.067 2.223 0.871 2.114 0.74C1.946 0.537 1.728 0.435 1.461 0.435C1.219 0.435 1.015 0.516 0.85 0.678C0.685 0.84 0.593 1.057 0.576 1.329Z"/>
    <path id="shape27" transform="translate(92.341, 21.99)" fill="#1a395f" d="M0 4.295L0 0L1.904 0C2.287 0 2.578 0.039 2.777 0.115C2.976 0.193 3.135 0.329 3.255 0.524C3.375 0.719 3.434 0.935 3.434 1.171C3.434 1.476 3.335 1.733 3.138 1.942C2.941 2.151 2.636 2.284 2.224 2.34C2.374 2.412 2.489 2.484 2.567 2.554C2.733 2.706 2.89 2.897 3.039 3.125L3.786 4.294L3.071 4.294L2.503 3.4C2.337 3.142 2.2 2.945 2.093 2.808C1.986 2.671 1.889 2.576 1.804 2.521C1.719 2.466 1.633 2.428 1.545 2.407C1.481 2.393 1.375 2.386 1.229 2.386L0.569 2.386L0.569 4.293L0 4.293ZM0.569 1.896L1.791 1.896C2.051 1.896 2.254 1.87 2.4 1.815C2.546 1.762 2.658 1.676 2.734 1.557C2.81 1.44 2.848 1.311 2.848 1.172C2.848 0.969 2.774 0.802 2.627 0.671C2.48 0.54 2.247 0.475 1.928 0.475L0.569 0.475Z"/>
    <path id="shape28" transform="translate(96.421, 23.102)" fill="#1a395f" d="M2.307 2.181L2.852 2.248C2.766 2.566 2.607 2.813 2.374 2.989C2.141 3.165 1.845 3.253 1.483 3.253C1.028 3.253 0.667 3.113 0.4 2.833C0.133 2.553 0 2.159 0 1.653C0 1.13 0.135 0.723 0.404 0.434C0.673 0.145 1.023 0 1.453 0C1.869 0 2.209 0.142 2.473 0.425C2.737 0.708 2.869 1.107 2.869 1.62C2.869 1.651 2.868 1.698 2.866 1.761L0.546 1.761C0.566 2.103 0.662 2.365 0.836 2.546C1.01 2.727 1.227 2.818 1.486 2.818C1.679 2.818 1.844 2.767 1.981 2.666C2.118 2.565 2.227 2.404 2.307 2.181ZM0.576 1.329L2.313 1.329C2.29 1.067 2.223 0.871 2.114 0.74C1.946 0.537 1.728 0.435 1.461 0.435C1.219 0.435 1.015 0.516 0.85 0.678C0.685 0.84 0.593 1.057 0.576 1.329Z"/>
    <path id="shape29" transform="translate(99.774, 23.105)" fill="#1a395f" d="M2.191 2.041L2.71 2.108C2.653 2.465 2.508 2.745 2.275 2.948C2.042 3.149 1.755 3.251 1.415 3.251C0.989 3.251 0.647 3.112 0.388 2.833C0.129 2.556 0 2.156 0 1.637C0 1.301 0.056 1.007 0.167 0.755C0.278 0.503 0.448 0.314 0.675 0.189C0.903 0.062 1.15 0 1.418 0C1.756 0 2.032 0.086 2.247 0.256C2.462 0.428 2.6 0.67 2.66 0.985L2.147 1.064C2.098 0.855 2.012 0.698 1.888 0.592C1.764 0.486 1.614 0.434 1.438 0.434C1.172 0.434 0.957 0.53 0.791 0.719C0.625 0.91 0.542 1.211 0.542 1.623C0.542 2.041 0.622 2.345 0.782 2.534C0.942 2.723 1.151 2.818 1.409 2.818C1.616 2.818 1.789 2.755 1.928 2.628C2.067 2.501 2.154 2.304 2.191 2.041Z"/>
    <path id="shape30" transform="translate(102.935, 21.99)" fill="#1a395f" d="M0 4.295L0 0L0.527 0L0.527 1.541C0.773 1.256 1.084 1.113 1.459 1.113C1.689 1.113 1.89 1.158 2.06 1.25C2.23 1.34 2.352 1.466 2.425 1.626C2.498 1.786 2.535 2.019 2.535 2.323L2.535 4.295L2.008 4.295L2.008 2.323C2.008 2.059 1.951 1.867 1.837 1.748C1.723 1.627 1.561 1.567 1.352 1.567C1.196 1.567 1.049 1.608 0.911 1.689C0.773 1.77 0.675 1.879 0.617 2.018C0.559 2.157 0.529 2.348 0.529 2.592L0.529 4.294L0 4.294Z"/>
    <path id="shape31" transform="translate(106.095, 23.102)" fill="#1a395f" d="M2.307 2.181L2.852 2.248C2.766 2.566 2.607 2.813 2.374 2.989C2.141 3.165 1.845 3.253 1.483 3.253C1.028 3.253 0.667 3.113 0.4 2.833C0.133 2.553 0 2.159 0 1.653C0 1.13 0.135 0.723 0.404 0.434C0.673 0.145 1.023 0 1.453 0C1.869 0 2.209 0.142 2.473 0.425C2.737 0.708 2.869 1.107 2.869 1.62C2.869 1.651 2.868 1.698 2.866 1.761L0.546 1.761C0.566 2.103 0.662 2.365 0.836 2.546C1.01 2.727 1.227 2.818 1.486 2.818C1.679 2.818 1.844 2.767 1.981 2.666C2.118 2.565 2.227 2.404 2.307 2.181ZM0.575 1.329L2.312 1.329C2.289 1.067 2.222 0.871 2.113 0.74C1.945 0.537 1.727 0.435 1.46 0.435C1.218 0.435 1.014 0.516 0.849 0.678C0.684 0.84 0.593 1.057 0.575 1.329Z"/>
    <path id="shape32" transform="translate(109.603, 23.104)" fill="#1a395f" d="M0 3.181L0 0.07L0.475 0.07L0.475 0.542C0.596 0.321 0.708 0.176 0.81 0.105C0.912 0.034 1.025 0 1.148 0C1.326 0 1.506 0.057 1.69 0.17L1.508 0.659C1.379 0.583 1.25 0.545 1.121 0.545C1.006 0.545 0.902 0.58 0.81 0.649C0.718 0.719 0.653 0.815 0.614 0.938C0.555 1.126 0.526 1.331 0.526 1.553L0.526 3.182L0 3.182Z"/>
    <path id="shape33" transform="translate(111.446, 23.105)" fill="#1a395f" d="M2.191 2.041L2.71 2.108C2.653 2.465 2.508 2.745 2.275 2.948C2.042 3.149 1.755 3.251 1.415 3.251C0.989 3.251 0.647 3.112 0.388 2.833C0.129 2.556 0 2.156 0 1.637C0 1.301 0.056 1.007 0.167 0.755C0.278 0.503 0.448 0.314 0.675 0.189C0.903 0.062 1.15 0 1.418 0C1.756 0 2.032 0.086 2.247 0.256C2.462 0.428 2.6 0.67 2.66 0.985L2.147 1.064C2.098 0.855 2.012 0.698 1.888 0.592C1.764 0.486 1.614 0.434 1.438 0.434C1.172 0.434 0.957 0.53 0.791 0.719C0.625 0.91 0.542 1.211 0.542 1.623C0.542 2.041 0.622 2.345 0.782 2.534C0.942 2.723 1.151 2.818 1.409 2.818C1.616 2.818 1.789 2.755 1.928 2.628C2.067 2.501 2.154 2.304 2.191 2.041Z"/>
    <path id="shape34" transform="translate(114.607, 21.99)" fill="#1a395f" d="M0 4.295L0 0L0.527 0L0.527 1.541C0.773 1.256 1.084 1.113 1.459 1.113C1.689 1.113 1.89 1.158 2.06 1.25C2.23 1.34 2.352 1.466 2.425 1.626C2.498 1.786 2.535 2.019 2.535 2.323L2.535 4.295L2.008 4.295L2.008 2.323C2.008 2.059 1.951 1.867 1.837 1.748C1.723 1.627 1.561 1.567 1.352 1.567C1.196 1.567 1.049 1.608 0.911 1.689C0.773 1.77 0.675 1.879 0.617 2.018C0.559 2.157 0.529 2.348 0.529 2.592L0.529 4.294L0 4.294Z"/>
    <path id="shape35" transform="translate(117.767, 23.102)" fill="#1a395f" d="M2.307 2.181L2.852 2.248C2.766 2.566 2.607 2.813 2.374 2.989C2.141 3.165 1.845 3.253 1.483 3.253C1.028 3.253 0.667 3.113 0.4 2.833C0.133 2.553 0 2.159 0 1.653C0 1.13 0.135 0.723 0.404 0.434C0.673 0.145 1.023 0 1.453 0C1.869 0 2.209 0.142 2.473 0.425C2.737 0.708 2.869 1.107 2.869 1.62C2.869 1.651 2.868 1.698 2.866 1.761L0.546 1.761C0.566 2.103 0.662 2.365 0.836 2.546C1.01 2.727 1.227 2.818 1.486 2.818C1.679 2.818 1.844 2.767 1.981 2.666C2.118 2.565 2.227 2.404 2.307 2.181ZM0.575 1.329L2.312 1.329C2.289 1.067 2.222 0.871 2.113 0.74C1.945 0.537 1.727 0.435 1.46 0.435C1.218 0.435 1.014 0.516 0.849 0.678C0.684 0.84 0.593 1.057 0.575 1.329Z"/>
    <path id="shape36" transform="translate(64.405, 30.302)" fill="#1a395f" d="M2.307 2.181L2.852 2.248C2.766 2.566 2.607 2.813 2.374 2.989C2.141 3.165 1.845 3.253 1.483 3.253C1.028 3.253 0.667 3.113 0.4 2.833C0.133 2.553 0 2.159 0 1.653C0 1.13 0.135 0.723 0.404 0.434C0.673 0.145 1.023 0 1.453 0C1.869 0 2.209 0.142 2.473 0.425C2.737 0.708 2.869 1.107 2.869 1.62C2.869 1.651 2.868 1.698 2.866 1.761L0.546 1.761C0.566 2.103 0.662 2.365 0.836 2.546C1.01 2.727 1.227 2.818 1.486 2.818C1.679 2.818 1.844 2.767 1.981 2.666C2.118 2.565 2.227 2.404 2.307 2.181ZM0.576 1.329L2.313 1.329C2.29 1.067 2.223 0.871 2.114 0.74C1.946 0.537 1.728 0.435 1.461 0.435C1.219 0.435 1.015 0.516 0.85 0.678C0.685 0.84 0.594 1.057 0.576 1.329Z"/>
    <path id="shape37" transform="translate(67.919, 30.303)" fill="#1a395f" d="M0 3.182L0 0.071L0.475 0.071L0.475 0.513C0.704 0.171 1.034 0 1.465 0C1.653 0 1.825 0.033 1.982 0.102C2.139 0.168 2.257 0.257 2.335 0.367C2.413 0.477 2.468 0.606 2.499 0.757C2.519 0.855 2.528 1.026 2.528 1.27L2.528 3.183L2.001 3.183L2.001 1.29C2.001 1.075 1.98 0.915 1.939 0.808C1.898 0.703 1.825 0.618 1.721 0.554C1.617 0.49 1.494 0.458 1.353 0.458C1.128 0.458 0.935 0.529 0.771 0.672C0.607 0.815 0.526 1.085 0.526 1.484L0.526 3.183L0 3.183Z"/>
    <path id="shape38" transform="translate(73.087, 29.19)" fill="#1a395f" d="M0 4.295L0 0L0.568 0L0.568 4.295Z"/>
    <path id="shape39" transform="translate(74.59, 30.303)" fill="#1a395f" d="M0 3.182L0 0.071L0.475 0.071L0.475 0.513C0.704 0.171 1.034 0 1.465 0C1.653 0 1.825 0.033 1.982 0.102C2.139 0.168 2.257 0.257 2.335 0.367C2.413 0.477 2.468 0.606 2.499 0.757C2.519 0.855 2.528 1.026 2.528 1.27L2.528 3.183L2.001 3.183L2.001 1.29C2.001 1.075 1.98 0.915 1.939 0.808C1.898 0.703 1.825 0.618 1.721 0.554C1.617 0.49 1.494 0.458 1.353 0.458C1.128 0.458 0.935 0.529 0.771 0.672C0.607 0.815 0.526 1.085 0.526 1.484L0.526 3.183L0 3.183Z"/>
    <path id="shape40" transform="translate(77.587, 29.117)" fill="#1a395f" d="M0.466 4.368L0.466 1.667L0 1.667L0 1.257L0.466 1.257L0.466 0.926C0.466 0.717 0.485 0.562 0.522 0.46C0.573 0.323 0.662 0.212 0.79 0.128C0.918 0.042 1.097 0 1.328 0C1.476 0 1.64 0.018 1.82 0.053L1.741 0.513C1.632 0.493 1.528 0.484 1.43 0.484C1.27 0.484 1.157 0.518 1.09 0.587C1.023 0.656 0.99 0.783 0.99 0.971L0.99 1.258L1.596 1.258L1.596 1.668L0.99 1.668L0.99 4.369L0.466 4.369Z"/>
    <path id="shape41" transform="translate(79.398, 30.304)" fill="#1a395f" d="M0 1.626C0 1.05 0.16 0.623 0.48 0.346C0.748 0.116 1.074 0 1.459 0C1.887 0 2.236 0.141 2.508 0.42C2.779 0.701 2.915 1.088 2.915 1.582C2.915 1.982 2.855 2.298 2.735 2.527C2.615 2.756 2.44 2.934 2.211 3.061C1.982 3.188 1.731 3.251 1.46 3.251C1.024 3.251 0.672 3.111 0.404 2.832C0.136 2.553 0 2.151 0 1.626ZM0.542 1.626C0.542 2.024 0.629 2.323 0.803 2.522C0.977 2.721 1.196 2.819 1.459 2.819C1.721 2.819 1.938 2.719 2.112 2.52C2.286 2.321 2.373 2.017 2.373 1.609C2.373 1.224 2.286 0.933 2.111 0.735C1.936 0.537 1.719 0.437 1.459 0.437C1.195 0.437 0.977 0.536 0.803 0.733C0.629 0.93 0.542 1.227 0.542 1.626Z"/>
    <path id="shape42" transform="translate(82.925, 30.304)" fill="#1a395f" d="M0 3.181L0 0.07L0.475 0.07L0.475 0.542C0.596 0.321 0.708 0.176 0.81 0.105C0.912 0.034 1.025 0 1.148 0C1.326 0 1.506 0.057 1.69 0.17L1.508 0.659C1.379 0.583 1.25 0.545 1.121 0.545C1.006 0.545 0.902 0.58 0.81 0.649C0.718 0.719 0.653 0.815 0.614 0.938C0.555 1.126 0.526 1.331 0.526 1.553L0.526 3.182L0 3.182Z"/>
    <path id="shape43" transform="translate(84.929, 30.304)" fill="#1a395f" d="M0 3.181L0 0.07L0.472 0.07L0.472 0.507C0.57 0.355 0.7 0.233 0.862 0.139C1.024 0.047 1.209 3.55271e-15 1.416 3.55271e-15C1.646 3.55271e-15 1.835 0.048 1.983 0.144C2.131 0.24 2.234 0.373 2.295 0.545C2.541 0.182 2.861 0 3.256 0C3.565 0 3.802 0.086 3.968 0.256C4.134 0.428 4.217 0.691 4.217 1.046L4.217 3.182L3.693 3.182L3.693 1.222C3.693 1.011 3.676 0.86 3.642 0.766C3.608 0.674 3.546 0.599 3.456 0.542C3.366 0.485 3.261 0.457 3.14 0.457C2.921 0.457 2.74 0.53 2.595 0.676C2.45 0.822 2.378 1.054 2.378 1.374L2.378 3.182L1.851 3.182L1.851 1.161C1.851 0.927 1.808 0.751 1.722 0.634C1.636 0.517 1.495 0.458 1.3 0.458C1.152 0.458 1.014 0.497 0.888 0.575C0.762 0.653 0.671 0.767 0.614 0.918C0.557 1.069 0.529 1.285 0.529 1.568L0.529 3.182L0 3.182Z"/>
    <path id="shape44" transform="translate(89.749, 30.305)" fill="#1a395f" d="M2.209 2.797C2.014 2.963 1.826 3.08 1.645 3.149C1.464 3.218 1.27 3.252 1.063 3.252C0.721 3.252 0.459 3.168 0.275 3.002C0.091 2.834 0 2.621 0 2.361C0 2.209 0.035 2.07 0.104 1.943C0.173 1.818 0.264 1.716 0.376 1.64C0.488 1.564 0.615 1.506 0.755 1.467C0.859 1.44 1.015 1.413 1.224 1.388C1.65 1.337 1.963 1.277 2.164 1.206C2.166 1.134 2.167 1.088 2.167 1.068C2.167 0.853 2.117 0.702 2.018 0.614C1.883 0.495 1.683 0.435 1.417 0.435C1.169 0.435 0.986 0.479 0.868 0.565C0.75 0.653 0.662 0.806 0.606 1.027L0.09 0.957C0.137 0.736 0.214 0.559 0.321 0.423C0.428 0.287 0.584 0.183 0.787 0.109C0.99 0.037 1.225 0 1.493 0C1.759 0 1.974 0.031 2.14 0.094C2.306 0.157 2.428 0.236 2.506 0.33C2.584 0.424 2.639 0.544 2.67 0.688C2.688 0.778 2.696 0.94 2.696 1.174L2.696 1.877C2.696 2.367 2.707 2.678 2.73 2.808C2.753 2.938 2.797 3.062 2.863 3.181L2.312 3.181C2.259 3.071 2.224 2.943 2.209 2.797ZM2.165 1.619C1.974 1.697 1.686 1.764 1.304 1.818C1.087 1.849 0.934 1.884 0.844 1.923C0.754 1.962 0.685 2.02 0.636 2.094C0.587 2.17 0.563 2.253 0.563 2.345C0.563 2.486 0.616 2.603 0.723 2.697C0.83 2.791 0.985 2.838 1.19 2.838C1.393 2.838 1.574 2.794 1.732 2.704C1.89 2.616 2.006 2.494 2.081 2.34C2.138 2.221 2.166 2.045 2.166 1.813L2.166 1.619Z"/>
    <path id="shape45" transform="translate(92.975, 29.288)" fill="#1a395f" d="M1.441 3.726L1.517 4.192C1.369 4.223 1.236 4.239 1.119 4.239C0.928 4.239 0.779 4.209 0.674 4.148C0.569 4.087 0.494 4.008 0.451 3.909C0.408 3.811 0.387 3.603 0.387 3.287L0.387 1.497L0 1.497L0 1.087L0.387 1.087L0.387 0.316L0.911 0L0.911 1.087L1.441 1.087L1.441 1.497L0.911 1.497L0.911 3.316C0.911 3.466 0.92 3.563 0.939 3.606C0.958 3.649 0.988 3.683 1.03 3.709C1.072 3.735 1.132 3.747 1.21 3.747C1.268 3.746 1.345 3.739 1.441 3.726Z"/>
    <path id="shape46" transform="translate(94.934, 29.19)" fill="#1a395f" d="M0 0.607L0 0L0.527 0L0.527 0.606L0 0.606ZM0 4.295L0 1.184L0.527 1.184L0.527 4.295Z"/>
    <path id="shape47" transform="translate(96.08, 30.305)" fill="#1a395f" d="M2.168 4.373L2.168 2.85C2.086 2.965 1.971 3.061 1.824 3.137C1.677 3.213 1.52 3.251 1.354 3.251C0.985 3.251 0.667 3.104 0.4 2.809C0.133 2.514 0 2.11 0 1.596C0 1.284 0.054 1.003 0.163 0.755C0.272 0.507 0.429 0.319 0.635 0.191C0.841 0.064 1.067 0 1.313 0C1.698 0 2.001 0.162 2.221 0.486L2.221 0.07L2.696 0.07L2.696 4.374L2.168 4.374ZM0.542 1.616C0.542 2.016 0.626 2.317 0.794 2.516C0.962 2.717 1.163 2.817 1.398 2.817C1.623 2.817 1.816 2.721 1.978 2.532C2.14 2.341 2.221 2.052 2.221 1.663C2.221 1.249 2.136 0.937 1.965 0.728C1.794 0.519 1.593 0.415 1.363 0.415C1.134 0.415 0.941 0.513 0.781 0.706C0.621 0.901 0.542 1.204 0.542 1.616Z"/>
    <path id="shape48" transform="translate(99.59, 30.373)" fill="#1a395f" d="M2.05 3.112L2.05 2.655C1.808 3.007 1.479 3.182 1.063 3.182C0.879 3.182 0.708 3.147 0.549 3.077C0.39 3.007 0.272 2.919 0.195 2.811C0.118 2.706 0.064 2.575 0.032 2.42C0.011 2.316 0 2.152 0 1.928L0 0L0.527 0L0.527 1.727C0.527 2.002 0.538 2.188 0.559 2.284C0.592 2.423 0.663 2.531 0.77 2.611C0.877 2.689 1.01 2.729 1.168 2.729C1.326 2.729 1.475 2.689 1.613 2.607C1.752 2.527 1.85 2.417 1.907 2.277C1.964 2.137 1.993 1.934 1.993 1.669L1.993 0.002L2.52 0.002L2.52 3.113L2.05 3.113Z"/>
    <path id="shape49" transform="translate(102.761, 30.302)" fill="#1a395f" d="M2.307 2.181L2.852 2.248C2.766 2.566 2.607 2.813 2.374 2.989C2.141 3.165 1.845 3.253 1.483 3.253C1.028 3.253 0.667 3.113 0.4 2.833C0.133 2.553 0 2.159 0 1.653C0 1.13 0.135 0.723 0.404 0.434C0.673 0.145 1.023 0 1.453 0C1.869 0 2.209 0.142 2.473 0.425C2.737 0.708 2.869 1.107 2.869 1.62C2.869 1.651 2.868 1.698 2.866 1.761L0.546 1.761C0.566 2.103 0.662 2.365 0.836 2.546C1.01 2.727 1.227 2.818 1.486 2.818C1.679 2.818 1.844 2.767 1.981 2.666C2.118 2.565 2.227 2.404 2.307 2.181ZM0.575 1.329L2.312 1.329C2.289 1.067 2.222 0.871 2.113 0.74C1.945 0.537 1.727 0.435 1.46 0.435C1.218 0.435 1.014 0.516 0.849 0.678C0.684 0.84 0.593 1.057 0.575 1.329Z"/>
    <path id="shape50" transform="translate(107.752, 29.19)" fill="#1a395f" d="M2.208 4.295L2.208 3.902C2.011 4.211 1.721 4.365 1.338 4.365C1.09 4.365 0.862 4.297 0.654 4.16C0.446 4.023 0.285 3.833 0.171 3.588C0.057 3.343 0 3.061 0 2.742C0 2.431 0.052 2.15 0.155 1.896C0.259 1.644 0.414 1.45 0.621 1.315C0.828 1.18 1.059 1.113 1.315 1.113C1.503 1.113 1.669 1.152 1.816 1.232C1.962 1.31 2.082 1.414 2.173 1.541L2.173 0L2.697 0L2.697 4.295ZM0.541 2.743C0.541 3.141 0.625 3.439 0.793 3.637C0.961 3.835 1.159 3.933 1.388 3.933C1.618 3.933 1.814 3.839 1.975 3.65C2.136 3.462 2.217 3.174 2.217 2.788C2.217 2.362 2.135 2.05 1.971 1.85C1.807 1.65 1.605 1.551 1.365 1.551C1.131 1.551 0.935 1.647 0.778 1.838C0.621 2.029 0.541 2.331 0.541 2.743Z"/>
    <path id="shape51" transform="translate(111.102, 30.302)" fill="#1a395f" d="M2.307 2.181L2.852 2.248C2.766 2.566 2.607 2.813 2.374 2.989C2.141 3.165 1.845 3.253 1.483 3.253C1.028 3.253 0.667 3.113 0.4 2.833C0.133 2.553 0 2.159 0 1.653C0 1.13 0.135 0.723 0.404 0.434C0.673 0.145 1.023 0 1.453 0C1.869 0 2.209 0.142 2.473 0.425C2.737 0.708 2.869 1.107 2.869 1.62C2.869 1.651 2.868 1.698 2.866 1.761L0.546 1.761C0.566 2.103 0.662 2.365 0.836 2.546C1.01 2.727 1.227 2.818 1.486 2.818C1.679 2.818 1.844 2.767 1.981 2.666C2.118 2.565 2.227 2.404 2.307 2.181ZM0.575 1.329L2.312 1.329C2.289 1.067 2.222 0.871 2.113 0.74C1.945 0.537 1.727 0.435 1.46 0.435C1.218 0.435 1.014 0.516 0.849 0.678C0.684 0.84 0.593 1.057 0.575 1.329Z"/>
    <path id="shape52" transform="translate(115.919, 29.19)" fill="#1a395f" d="M1.415 4.295L1.415 0.507L0 0.507L0 0L3.404 0L3.404 0.507L1.983 0.507L1.983 4.295Z"/>
    <path id="shape53" transform="translate(118.978, 30.304)" fill="#1a395f" d="M0 1.626C0 1.05 0.16 0.623 0.48 0.346C0.748 0.116 1.074 0 1.459 0C1.887 0 2.236 0.141 2.508 0.42C2.779 0.701 2.915 1.088 2.915 1.582C2.915 1.982 2.855 2.298 2.735 2.527C2.615 2.756 2.44 2.934 2.211 3.061C1.982 3.188 1.731 3.251 1.46 3.251C1.024 3.251 0.672 3.111 0.404 2.832C0.136 2.553 0 2.151 0 1.626ZM0.542 1.626C0.542 2.024 0.629 2.323 0.803 2.522C0.977 2.721 1.196 2.819 1.459 2.819C1.721 2.819 1.938 2.719 2.112 2.52C2.286 2.321 2.373 2.017 2.373 1.609C2.373 1.224 2.286 0.933 2.111 0.735C1.936 0.537 1.719 0.437 1.459 0.437C1.195 0.437 0.977 0.536 0.803 0.733C0.629 0.93 0.542 1.227 0.542 1.626Z"/>
    <path id="shape54" transform="translate(122.5, 30.373)" fill="#1a395f" d="M2.05 3.112L2.05 2.655C1.808 3.007 1.479 3.182 1.063 3.182C0.879 3.182 0.708 3.147 0.549 3.077C0.39 3.007 0.272 2.919 0.195 2.811C0.118 2.706 0.064 2.575 0.032 2.42C0.011 2.316 0 2.152 0 1.928L0 0L0.527 0L0.527 1.727C0.527 2.002 0.538 2.188 0.559 2.284C0.592 2.423 0.663 2.531 0.77 2.611C0.877 2.689 1.01 2.729 1.168 2.729C1.326 2.729 1.475 2.689 1.613 2.607C1.752 2.527 1.85 2.417 1.907 2.277C1.964 2.137 1.993 1.934 1.993 1.669L1.993 0.002L2.52 0.002L2.52 3.113L2.05 3.113Z"/>
    <path id="shape55" transform="translate(125.836, 29.19)" fill="#1a395f" d="M0 4.295L0 0L0.527 0L0.527 4.295Z"/>
    <path id="shape56" transform="translate(126.985, 30.304)" fill="#1a395f" d="M0 1.626C0 1.05 0.16 0.623 0.48 0.346C0.748 0.116 1.074 0 1.459 0C1.887 0 2.236 0.141 2.508 0.42C2.779 0.701 2.915 1.088 2.915 1.582C2.915 1.982 2.855 2.298 2.735 2.527C2.615 2.756 2.44 2.934 2.211 3.061C1.982 3.188 1.731 3.251 1.46 3.251C1.024 3.251 0.672 3.111 0.404 2.832C0.136 2.553 0 2.151 0 1.626ZM0.542 1.626C0.542 2.024 0.629 2.323 0.803 2.522C0.977 2.721 1.196 2.819 1.459 2.819C1.721 2.819 1.938 2.719 2.112 2.52C2.286 2.321 2.373 2.017 2.373 1.609C2.373 1.224 2.286 0.933 2.111 0.735C1.936 0.537 1.719 0.437 1.459 0.437C1.195 0.437 0.977 0.536 0.803 0.733C0.629 0.93 0.542 1.227 0.542 1.626Z"/>
    <path id="shape57" transform="translate(130.507, 30.373)" fill="#1a395f" d="M2.05 3.112L2.05 2.655C1.808 3.007 1.479 3.182 1.063 3.182C0.879 3.182 0.708 3.147 0.549 3.077C0.39 3.007 0.272 2.919 0.195 2.811C0.118 2.706 0.064 2.575 0.032 2.42C0.011 2.316 0 2.152 0 1.928L0 0L0.527 0L0.527 1.727C0.527 2.002 0.538 2.188 0.559 2.284C0.592 2.423 0.663 2.531 0.77 2.611C0.877 2.689 1.01 2.729 1.168 2.729C1.326 2.729 1.475 2.689 1.613 2.607C1.752 2.527 1.85 2.417 1.907 2.277C1.964 2.137 1.993 1.934 1.993 1.669L1.993 0.002L2.52 0.002L2.52 3.113L2.05 3.113Z"/>
    <path id="shape58" transform="translate(133.644, 30.304)" fill="#1a395f" d="M0 2.253L0.521 2.171C0.55 2.38 0.632 2.54 0.766 2.651C0.9 2.762 1.087 2.818 1.327 2.818C1.569 2.818 1.749 2.769 1.866 2.67C1.983 2.572 2.042 2.456 2.042 2.323C2.042 2.204 1.99 2.11 1.887 2.042C1.815 1.995 1.635 1.936 1.348 1.863C0.961 1.765 0.693 1.681 0.544 1.609C0.395 1.539 0.281 1.439 0.204 1.314C0.127 1.187 0.088 1.048 0.088 0.896C0.088 0.757 0.12 0.629 0.183 0.511C0.246 0.393 0.333 0.294 0.442 0.216C0.524 0.155 0.636 0.105 0.777 0.062C0.919 0.021 1.07 0 1.233 0C1.477 0 1.691 0.035 1.876 0.105C2.061 0.175 2.197 0.271 2.285 0.39C2.373 0.511 2.433 0.671 2.467 0.872L1.951 0.942C1.928 0.782 1.86 0.657 1.747 0.567C1.634 0.477 1.476 0.432 1.271 0.432C1.029 0.432 0.856 0.472 0.752 0.552C0.648 0.632 0.597 0.726 0.597 0.833C0.597 0.901 0.618 0.963 0.661 1.018C0.704 1.075 0.771 1.122 0.863 1.159C0.916 1.179 1.071 1.223 1.329 1.294C1.702 1.394 1.962 1.476 2.11 1.538C2.257 1.602 2.373 1.694 2.457 1.815C2.541 1.936 2.583 2.086 2.583 2.266C2.583 2.442 2.532 2.608 2.429 2.762C2.326 2.918 2.179 3.037 1.985 3.123C1.792 3.207 1.573 3.25 1.329 3.25C0.925 3.25 0.617 3.166 0.405 2.998C0.193 2.83 0.059 2.583 0 2.253Z"/>
    <path id="shape59" transform="translate(136.678, 30.302)" fill="#1a395f" d="M2.307 2.181L2.852 2.248C2.766 2.566 2.607 2.813 2.374 2.989C2.141 3.165 1.845 3.253 1.483 3.253C1.028 3.253 0.667 3.113 0.4 2.833C0.133 2.553 0 2.159 0 1.653C0 1.13 0.135 0.723 0.404 0.434C0.673 0.145 1.023 0 1.453 0C1.869 0 2.209 0.142 2.473 0.425C2.737 0.708 2.869 1.107 2.869 1.62C2.869 1.651 2.868 1.698 2.866 1.761L0.546 1.761C0.566 2.103 0.662 2.365 0.836 2.546C1.01 2.727 1.227 2.818 1.486 2.818C1.679 2.818 1.844 2.767 1.981 2.666C2.118 2.565 2.227 2.404 2.307 2.181ZM0.575 1.329L2.312 1.329C2.289 1.067 2.222 0.871 2.113 0.74C1.945 0.537 1.727 0.435 1.46 0.435C1.218 0.435 1.014 0.516 0.849 0.678C0.684 0.84 0.593 1.057 0.575 1.329Z"/>
   </g>
   <path id="shape60" transform="translate(88.184, 36.409)" fill="#ff3100" d="M0 3.58L0 0L1.35 0C1.588 0 1.769 0.012 1.894 0.035C2.07 0.064 2.217 0.119 2.336 0.201C2.455 0.283 2.55 0.398 2.623 0.547C2.696 0.695 2.732 0.858 2.732 1.035C2.732 1.34 2.635 1.597 2.441 1.808C2.247 2.019 1.898 2.124 1.391 2.124L0.473 2.124L0.473 3.579L0 3.579ZM0.473 1.703L1.398 1.703C1.704 1.703 1.921 1.644 2.05 1.531C2.179 1.418 2.243 1.258 2.243 1.051C2.243 0.901 2.205 0.772 2.129 0.666C2.054 0.559 1.954 0.488 1.83 0.455C1.75 0.434 1.603 0.424 1.388 0.424L0.472 0.424L0.472 1.703Z"/>
  </g>
  <path id="shape61" transform="translate(92.59, 38.474)" fill="#ff3100" d="M0 0.441L0 0L1.35 0L1.35 0.441Z"/>
  <path id="shape62" transform="translate(95.879, 36.409)" fill="#ff3100" d="M2.341 7.10543e-15L2.815 7.10543e-15L2.815 2.068C2.815 2.427 2.774 2.713 2.693 2.925C2.611 3.136 2.464 3.308 2.253 3.441C2.04 3.574 1.762 3.64 1.417 3.64C1.082 3.64 0.808 3.581 0.594 3.466C0.38 3.351 0.229 3.183 0.137 2.964C0.045 2.745 0 2.446 0 2.068L0 0L0.474 0L0.474 2.066C0.474 2.377 0.503 2.605 0.56 2.754C0.618 2.9 0.717 3.014 0.858 3.094C0.999 3.174 1.171 3.213 1.375 3.213C1.723 3.213 1.972 3.135 2.12 2.977C2.268 2.819 2.342 2.516 2.342 2.067L2.342 7.10543e-15Z"/>
  <path id="shape63" transform="translate(99.214, 36.409)" fill="#ff3100" d="M1.179 3.58L1.179 0.424L0 0.424L0 0L2.837 0L2.837 0.424L1.653 0.424L1.653 3.58Z"/>
  <path id="shape64" transform="translate(102.361, 36.396)" fill="#ff3100" d="M0 2.648L0.439 2.589C0.489 2.839 0.575 3.017 0.697 3.128C0.818 3.237 0.966 3.292 1.14 3.292C1.347 3.292 1.521 3.22 1.664 3.077C1.806 2.934 1.877 2.757 1.877 2.546C1.877 2.343 1.811 2.177 1.679 2.046C1.547 1.915 1.38 1.849 1.176 1.849C1.093 1.849 0.989 1.867 0.866 1.898L0.915 1.513C0.944 1.515 0.968 1.517 0.986 1.517C1.173 1.517 1.341 1.468 1.491 1.371C1.641 1.274 1.716 1.123 1.716 0.92C1.716 0.76 1.661 0.625 1.552 0.52C1.443 0.415 1.302 0.362 1.13 0.362C0.959 0.362 0.817 0.415 0.703 0.522C0.589 0.629 0.516 0.792 0.483 1.006L0.044 0.928C0.098 0.633 0.22 0.405 0.41 0.242C0.6 0.079 0.837 0 1.12 0C1.315 0 1.495 0.041 1.66 0.125C1.825 0.209 1.95 0.324 2.037 0.469C2.124 0.614 2.168 0.768 2.168 0.93C2.168 1.084 2.126 1.225 2.043 1.352C1.96 1.479 1.837 1.581 1.674 1.655C1.885 1.704 2.05 1.805 2.167 1.96C2.284 2.115 2.343 2.306 2.343 2.538C2.343 2.85 2.229 3.114 2.001 3.331C1.773 3.55 1.485 3.657 1.137 3.657C0.823 3.657 0.562 3.563 0.355 3.378C0.147 3.189 0.029 2.947 0 2.648Z"/>
  <path id="shape65" transform="translate(106.479, 38.474)" fill="#ff3100" d="M0 0.441L0 0L1.35 0L1.35 0.441Z"/>
  <path id="shape66" transform="translate(109.768, 36.409)" fill="#ff3100" d="M2.341 7.10543e-15L2.815 7.10543e-15L2.815 2.068C2.815 2.427 2.774 2.713 2.693 2.925C2.611 3.136 2.464 3.308 2.253 3.441C2.04 3.574 1.762 3.64 1.417 3.64C1.082 3.64 0.808 3.581 0.594 3.466C0.38 3.351 0.229 3.183 0.137 2.964C0.045 2.745 0 2.446 0 2.068L0 0L0.474 0L0.474 2.066C0.474 2.377 0.503 2.605 0.56 2.754C0.618 2.9 0.717 3.014 0.858 3.094C0.999 3.174 1.171 3.213 1.375 3.213C1.723 3.213 1.972 3.135 2.12 2.977C2.268 2.819 2.342 2.516 2.342 2.067L2.342 7.10543e-15Z"/>
  <path id="shape67" transform="translate(113.103, 36.409)" fill="#ff3100" d="M1.179 3.58L1.179 0.424L0 0.424L0 0L2.837 0L2.837 0.424L1.653 0.424L1.653 3.58Z"/>
  <path id="shape68" transform="translate(116.585, 36.395)" fill="#ff3100" d="M1.318 3.594L0.879 3.594L0.879 0.793C0.773 0.895 0.634 0.994 0.462 1.096C0.291 1.198 0.136 1.272 0 1.323L0 0.899C0.246 0.784 0.46 0.643 0.645 0.479C0.83 0.315 0.959 0.155 1.036 0L1.319 0L1.319 3.594Z"/>
  <path id="shape69" transform="translate(120.369, 38.474)" fill="#ff3100" d="M0 0.441L0 0L1.35 0L1.35 0.441Z"/>
  <path id="shape70" transform="translate(123.658, 36.409)" fill="#ff3100" d="M2.341 7.10543e-15L2.815 7.10543e-15L2.815 2.068C2.815 2.427 2.774 2.713 2.693 2.925C2.611 3.136 2.464 3.308 2.253 3.441C2.04 3.574 1.762 3.64 1.417 3.64C1.082 3.64 0.808 3.581 0.594 3.466C0.38 3.351 0.229 3.183 0.137 2.964C0.045 2.745 0 2.446 0 2.068L0 0L0.474 0L0.474 2.066C0.474 2.377 0.503 2.605 0.56 2.754C0.618 2.9 0.717 3.014 0.858 3.094C0.999 3.174 1.171 3.213 1.375 3.213C1.723 3.213 1.972 3.135 2.12 2.977C2.268 2.819 2.342 2.516 2.342 2.067L2.342 7.10543e-15Z"/>
  <path id="shape71" transform="translate(126.992, 36.409)" fill="#ff3100" d="M1.179 3.58L1.179 0.424L0 0.424L0 0L2.837 0L2.837 0.424L1.653 0.424L1.653 3.58Z"/>
  <path id="shape72" transform="translate(130.0796625, 36.394)" fill="#ff3100" d="M2.36634 3.173L2.36634 3.595L0.0003375 3.595C-0.0026625 3.49 0.0143375 3.388 0.0513375 3.29C0.111337 3.128 0.208337 2.97 0.341337 2.813C0.473337 2.657 0.665337 2.475 0.916337 2.27C1.30534 1.952 1.56834 1.7 1.70534 1.512C1.84234 1.326 1.91034 1.151 1.91034 0.985C1.91034 0.809 1.84834 0.663 1.72334 0.544C1.59834 0.425 1.43634 0.364 1.23634 0.364C1.02534 0.364 0.855337 0.428 0.728337 0.555C0.601337 0.682 0.537337 0.858 0.535337 1.082L0.0833375 1.035C0.114337 0.697 0.230337 0.441 0.432337 0.264C0.634337 0.088 0.905337 0 1.24534 0C1.58834 0 1.86034 0.096 2.06034 0.285C2.26034 0.476 2.36034 0.711 2.36034 0.994C2.36034 1.137 2.33134 1.277 2.27234 1.416C2.21334 1.555 2.11634 1.699 1.98034 1.854C1.84434 2.006 1.61834 2.215 1.30234 2.483C1.03834 2.704 0.869337 2.854 0.794337 2.934C0.719337 3.012 0.657337 3.092 0.608337 3.172L2.36634 3.172Z"/>
  <path id="shape73" transform="translate(132.853686088948, 36.409)" fill="#ff3100" d="M0.000313911 2.565L0.427314 2.506C0.438314 2.779 0.489314 2.967 0.581314 3.067C0.672314 3.169 0.798314 3.219 0.959314 3.219C1.07831 3.219 1.18031 3.192 1.26731 3.137C1.35431 3.082 1.41331 3.008 1.44531 2.914C1.47731 2.82 1.49431 2.672 1.49431 2.467L1.49431 0L1.96831 0L1.96831 2.439C1.96831 2.738 1.93231 2.97 1.85931 3.134C1.78731 3.298 1.67231 3.425 1.51531 3.511C1.35831 3.597 1.17331 3.64 0.962314 3.64C0.648314 3.64 0.407314 3.55 0.241314 3.369C0.0743139 3.19 -0.00568609 2.92 0.000313911 2.565Z"/>
 </g><g id="group5" transform="matrix(0.720000022749755 0 0 0.719999995958072 0 0)" fill="none"/><g id="group6" transform="matrix(0.720000022749755 0 0 0.719999995958072 0 0)" fill="none"/><g id="group7" transform="matrix(0.720000022749755 0 0 0.719999995958072 0 0)" fill="none"/><g id="group8" transform="matrix(0.720000022749755 0 0 0.719999995958072 0 0)" fill="none"/><g id="group9" transform="matrix(0.720000022749755 0 0 0.719999995958072 0 0)" fill="none"/>
</svg>
