<?xml version="1.0" encoding="UTF-8" standalone="no"?>
<!-- Created with Inkscape (http://www.inkscape.org/) -->

<svg
   xmlns:dc="http://purl.org/dc/elements/1.1/"
   xmlns:cc="http://creativecommons.org/ns#"
   xmlns:rdf="http://www.w3.org/1999/02/22-rdf-syntax-ns#"
   xmlns:svg="http://www.w3.org/2000/svg"
   xmlns="http://www.w3.org/2000/svg"
   version="1.1"
   width="455.12366"
   height="361.99847"
   id="svg2"
   xml:space="preserve">
   <defs
     id="defs6"><clipPath
       id="clipPath18"><path
         d="m 0,5185.72 7334.04,0 L 7334.04,0 0,0 0,5185.72 z"
         id="path20" /></clipPath></defs><g
     transform="matrix(1.25,0,0,-1.25,-193.84579,553.36027)"
     id="g10"><g
       transform="scale(0.114792,0.114792)"
       id="g12"><g
         id="g14"><g
           clip-path="url(#clipPath18)"
           id="g16"><path
             d="m 1677.1816,2609.4566 c 0,-88.1886 -71.4798,-159.6081 -159.6684,-159.6081 -88.1887,0 -159.6082,71.4195 -159.6082,159.6081 0,88.2489 71.4195,159.6684 159.6082,159.6684 88.1886,0 159.6684,-71.4195 159.6684,-159.6684"
             id="path22"
             style="fill:#ff9300;fill-opacity:1;fill-rule:nonzero;stroke:none" /><path
             d="m 2506.9508,3023.0745 -442.6321,0 c -25.3346,54.6504 -80.5279,92.6523 -144.7692,92.6523 -88.1283,0 -159.6081,-71.4195 -159.6081,-159.5478 0,-88.1886 71.4798,-159.7891 159.6081,-159.7891 66.4129,0 123.2348,40.5957 147.3027,98.2622 l 311.6762,0"
             id="path24"
             style="fill:#fe010a;fill-opacity:1;fill-rule:nonzero;stroke:none" /><path
             d="m 4433.5884,2836.2618 c -47.7739,47.8342 -121.6665,88.3696 -184.7618,119.1933 -58.9934,28.6523 -123.1745,63.6382 -360.6564,120.7014 -122.8126,29.4968 -284.4716,60.3206 -449.1467,73.0482 -308.1172,23.8869 -614.9677,4.1621 -614.9677,4.1621 0,0 271.4423,67.6193 586.4361,67.6193 276.7506,0 391.8422,-20.147 596.0272,-47.2913 l -673.539,675.7106 -1254.3654,-1254.3654 288.5734,-288.4528 539.1449,0.181 0,-63.9398 c 24.0679,-2.4731 540.7132,-53.263 1021.0455,65.6891 490.1043,121.4252 588.3665,220.5318 588.3665,367.4123 0,42.4054 -18.7597,96.9351 -82.1566,160.332 m -1524.541,58.2696 -530.5794,0 128.4224,128.5431 402.157,0 0,-128.5431 z m -2.7144,-652.0046 0,-64.2413 -410.7225,-0.181 837.3696,-837.4299 c 0,0 929.2377,933.4602 929.7806,933.7618 -256.0003,-82.2169 -555.8537,-115.7551 -776.6268,-119.9775 -312.5207,-5.9114 -561.7651,81.6136 -579.8009,88.0679"
             id="path26"
             style="fill:#ff9300;fill-opacity:1;fill-rule:nonzero;stroke:#ffffff;stroke-width:0;stroke-miterlimit:4;stroke-dasharray:none" /><path
             d="m 2495.7915,2178.0442 -128.4224,128.4224 -303.9552,0 c -24.6107,56.46 -80.8295,95.97 -146.3376,95.97 -88.1886,0 -159.6684,-71.5402 -159.6684,-159.6082 0,-88.2489 71.4798,-159.7287 159.6684,-159.7287 65.0859,0 121.003,39.0274 145.8551,94.9445"
             id="path28"
             style="fill:#fe010a;fill-opacity:1;fill-rule:nonzero;stroke:none" /><path
             d="m 2906.5139,2960.7634 c 0,0 277.2935,83.4232 536.3098,83.4232 316.1399,0 527.9253,-36.2526 733.558,-130.051 179.4535,-81.855 265.4706,-146.5789 265.4706,-239.1709 0,-128.8446 -179.5742,-184.1586 -179.5742,-184.1586 0,0 25.9378,140.0643 -136.9276,256.9655 -142.4168,102.2433 -294.9674,163.2876 -550.7867,202.4357 -213.9569,32.8143 -668.0499,10.5561 -668.0499,10.5561"
             id="path30"
             style="fill:#fe010a;fill-opacity:1;fill-rule:nonzero;stroke:none" /><path
             d="m 4419.0512,2359.6693 c -31.9096,-21.2328 -47.4723,-30.4015 -72.1434,-44.1546 -24.8521,-13.8134 -50.9708,-26.4204 -85.7758,-42.1038 -36.0717,-22.8614 -72.8672,-43.0085 -110.6882,-61.1046 -11.9434,-5.9115 -24.4298,-11.7625 -37.1574,-17.0104 -55.7965,-24.1886 -113.8852,-44.215 -175.0502,-61.6476 -35.0462,-10.918 -70.7559,-20.4487 -104.1132,-26.9633 -145.6138,-34.2017 -322.2323,-57.0029 -530.7603,-69.9718 -237.5423,-14.8388 -479.2466,1.5683 -479.2466,1.5683 0,0 188.3207,-92.4713 512.9054,-92.4713 195.9814,0 284.2907,6.1527 314.3303,10.2545 38.6655,5.2478 184.0379,15.2007 291.9514,44.0339 23.163,6.1527 46.3261,13.9944 69.3082,22.6806 107.3706,41.0782 207.8646,104.2942 251.8986,132.8258 59.1141,38.3638 158.2207,110.8691 206.4168,239.955 -22.3789,-15.9246 -35.1669,-24.852 -51.8756,-35.8907"
             id="path32"
             style="fill:#fe010a;fill-opacity:1;fill-rule:nonzero;stroke:none" /></g></g></g></g></svg>