<?xml version="1.0" encoding="utf-8"?>
<!-- Generator: Adobe Illustrator 21.0.0, SVG Export Plug-In . SVG Version: 6.00 Build 0)  -->
<svg version="1.0" id="Layer_1" xmlns="http://www.w3.org/2000/svg" xmlns:xlink="http://www.w3.org/1999/xlink" x="0px" y="0px"
	 viewBox="0 0 260.9 120.1" width="466.085439559" height="214.552937106" enable-background="new 0 0 260.9 120.1" xml:space="preserve">
<title>logo Kaust</title>
<path fill="#706259" d="M69.9,49.2c1.1-0.5,2.3-0.5,3.4-0.1l1-1.3c-2.4,0-3.2-1.2-2.7-2s1.5-0.2,2.3,0.3l1-1.2
	c-1-0.9-2.6-0.8-3.6,0.2c-0.1,0.1-0.2,0.2-0.2,0.3c-0.6,0.7-0.5,1.7,0.1,2.3c-0.7,0.2-1.3,0.5-1.8,1L69.9,49.2z"/>
<path fill="#706259" d="M110.7,44v13.7c1.2,0,1.9-1,1.9-2.7V44H110.7z"/>
<path fill="#706259" d="M99.3,63.1v13.6c1.2,0,1.9-1,1.9-2.7v-11H99.3z"/>
<path fill="#706259" d="M80.8,54.6c0.4,1,1.3,1.6,2.3,1.5H88v-1.5c0.4,1,1.3,1.6,2.3,1.5h1.1c0.6,0.1,1.2-0.1,1.7-0.5
	c0.5-0.5,0.8-1.2,1-1.8c-0.2,1.6,2.8,2.2,4.5,2.3c1.6,0.2,1.7-0.9,1.7-1.5c0.4,1,1.3,1.6,2.3,1.5h4.8V44h-1.9v10.6h-3.1
	c-1.1,0.1-2-0.7-2.1-1.8c0-0.1,0-0.3,0-0.4c0-2.5-0.5-4.7-2.8-4.7c-3.6,0-4.1,4-5.3,6c-0.3,0.6-0.9,1-1.5,0.9h-0.6
	c-1.1,0.1-2-0.7-2.1-1.7c0-0.1,0-0.3,0-0.4V44h-1.9v10.6h-3.2c-1.1,0.1-2-0.7-2.1-1.8c0-0.1,0-0.3,0-0.4V44h-1.9v10.6h-9.7
	c-2.8,0-2.4-2.3-1-3.9l-0.5-0.5c-2.1,1.8-3.3,4.2-1.6,5.5c0.5,0.4,1.2,0.5,1.8,0.4h12.9V54.6z M98.3,51.2v3.2
	c-1.4-0.1-2.8-0.7-3.9-1.7c0.2-0.7,0.4-1.2,0.6-1.9c0.4-1.3,1-2.5,2.1-2.2C98,48.8,98.3,49.9,98.3,51.2"/>
<path fill="#706259" d="M22.8,44v13.7c1.2,0,1.9-1,1.9-2.7V44H22.8z"/>
<path fill="#706259" d="M137.9,73.6h-1.2c-2.9,0-2.5-2.8-0.9-4c1.4-1.1,2.2,0.7,2.2,3L137.9,73.6z M152.6,70.1l0.9-1.4
	c2.7,0.3,2.2,2.4,1,3.8C154.3,71.5,153.6,70.6,152.6,70.1 M167.7,63.1v10.5h-3.2c-1.1,0.1-2-0.7-2.1-1.8c0-0.1,0-0.3,0-0.4v-8.4
	h-1.9v10.5h-5.2c1.2-1.1,2.7-3.8,1.5-5.2s-3-1.2-4.3-1.3l-2,3c1.5,0.6,2.7,1.9,3.1,3.6h-6.5c-1.1,0.1-2-0.7-2.1-1.8
	c0-0.1,0-0.3,0-0.4v-8.4h-1.9v10.5H140v-0.8c0-3.2-2.1-5.8-4.9-3.7c-2,1.5-3.2,4.3-1.5,5.6c0.5,0.4,1.2,0.5,1.8,0.4h2.3
	c-0.4,2.5-1,4.9-4.5,6.5l0.2,0.6c2.9-0.9,5.7-2.1,6.4-7.1h5.3v-1.5c0.4,1,1.3,1.6,2.3,1.5h4.8c0.7,0.1,1.4-0.1,1.9-0.5
	c0.5,0.4,1.2,0.6,1.9,0.5h6.4v-1.8c0,0.5,0.3,1.1,0.7,1.4c0.5,0.4,1.2,0.5,1.8,0.4h4.7V63.1L167.7,63.1z"/>
<path fill="#706259" d="M109,73.6h-1.2c-2.9,0-2.5-2.8-0.9-4c1.4-1.1,2.2,0.7,2.2,3L109,73.6z M111.1,72.8c0-3.2-2.1-5.8-4.9-3.7
	c-2,1.5-3.2,4.2-1.5,5.6c0.5,0.4,1.2,0.5,1.8,0.4h2.3c-0.4,2.5-1,4.9-4.5,6.5l0.2,0.6c2.9-0.9,5.7-2.2,6.4-7.1
	C111,74.4,111.1,73.6,111.1,72.8"/>
<path fill="#706259" d="M12.4,56.1v-1.5c0.4,1,1.3,1.6,2.3,1.5h4.9V44h-1.9v10.6h-3.2c-1.1,0.1-2-0.7-2.1-1.8c0-0.1,0-0.3,0-0.4V44
	h-1.9v10.6H7.2v-0.8c0-3.2-2.1-5.8-4.9-3.7c-2,1.5-3.2,4.3-1.5,5.5C1.4,56,2,56.2,2.6,56.1H12.4z M5.1,54.6H3.9
	c-2.9,0-2.5-2.8-0.9-4c1.4-1.1,2.2,0.7,2.2,3L5.1,54.6z"/>
<path fill="#706259" d="M147.7,54.4c-1.5-0.1-2.8-0.6-3.9-1.7c0.2-0.7,0.4-1.2,0.6-1.9c0.4-1.3,1-2.5,2.1-2.2
	c0.8,0.2,1.2,1.3,1.2,2.6V54.4z M133.4,51l0.9-1.4c2.7,0.2,2.2,2.4,1,3.8C135.1,52.4,134.4,51.5,133.4,51 M125.9,54.5h-1.2
	c-2.9,0-2.5-2.8-0.9-4c1.4-1.1,2.2,0.7,2.2,3L125.9,54.5z M146.9,47.7c-3.6,0-4.1,4-5.3,6c-0.3,0.6-0.9,1-1.5,0.9h-3.9
	c1.2-1.1,2.7-3.8,1.5-5.2s-3-1.2-4.3-1.3l-2,3c1.5,0.6,2.7,1.9,3.1,3.5H128v-0.8c0-3.2-2.1-5.8-4.9-3.7c-2,1.5-3.2,4.3-1.5,5.6
	c0.5,0.3,1.2,0.5,1.8,0.4h9.6c0.7,0.1,1.4-0.1,1.9-0.5c0.5,0.4,1.2,0.6,1.9,0.5h3.9c0.6,0.1,1.2-0.1,1.7-0.5c0.5-0.5,0.8-1.2,1-1.8
	c-0.2,1.6,2.8,2.2,4.5,2.3c1.6,0.2,1.6-0.9,1.6-1.5v-2.2C149.6,50,149.1,47.7,146.9,47.7"/>
<path fill="#706259" d="M54.2,54.6c-2.4,0-3.3-1.7-3.3-3.5c-0.1-2,1.9-2.7,5-1.8l0.2-0.6c-1.1-0.5-2.2-0.8-3.4-0.9
	c-2.7,0-4,1.3-4,3.5c-0.1,1.3,0.5,2.5,1.5,3.2H46c-1.1,0.1-2-0.8-2-1.8c0-0.1,0-0.2,0-0.3v-1.9h-2v4.1h-4.3c-1.1,0.1-2-0.7-2.1-1.8
	c0-0.1,0-0.3,0-0.4v-4.5h-2v6.7h-3.5c-1,0-0.9-0.6-0.5-1.1l-0.5-0.3c-1.2,1.3-1,3,1.2,3h5.2v-1.6c0.4,1,1.3,1.6,2.3,1.5h6v-1.5
	c0.4,1,1.3,1.6,2.3,1.5h10.2v-1.5H54.2z"/>
<path fill="#706259" d="M166,51.4c-1.1-1.9-2.4-3.3-4.9-3.3l-0.1,0.7c3.9,0.7,2,3.1,5.3,5.8h-10.6V44h-1.9v9.4
	c0,1.7,0.8,2.7,1.9,2.7H170v-1.5C168.2,54.2,166.8,53.1,166,51.4"/>
<path fill="#706259" d="M58.2,73.6v-0.8c0-3.2-2-5.8-4.9-3.7c-2,1.5-3.2,4.2-1.5,5.6c0.5,0.4,1.2,0.5,1.8,0.4h10.1v-1.5
	c0.4,1,1.3,1.6,2.3,1.5h5v-1.5c0.4,1,1.3,1.6,2.3,1.5h6.3c1.5,0,1.7-0.9,1.7-1.5c0.3,1,1.3,1.6,2.3,1.5h5.1v-1.5
	c0.3,1,1.3,1.6,2.3,1.5h4.8V63.1h-1.9v10.5h-3.1c-1.1,0.1-2-0.7-2.1-1.8c0-0.1,0-0.3,0-0.4v-1.9h-2v4.1h-3.4c-1.1,0-2.1-0.9-2.1-2.1
	c-0.2-1.5-0.9-3.8-3-3.8c-1.2,0-3,0.8-2.6,2.8c0.4,1.3,1.3,2.4,2.6,3.1h-5.2c-1.1,0.1-2-0.7-2.1-1.8c0-0.1,0-0.3,0-0.4v-1.9h-1.9
	v4.1h-3.3c-1.1,0.1-2-0.7-2.1-1.8c0-0.1,0-0.3,0-0.4v-1.9h-1.9v4.1L58.2,73.6z M77.3,69.6c2-1.2,2.6,2.8,2.6,4
	C77.3,72.2,76.2,70.3,77.3,69.6 M56.1,73.6h-1.2c-2.8,0-2.5-2.8-0.9-4c1.4-1.1,2.2,0.7,2.2,3L56.1,73.6z"/>
<rect x="41.6" y="57.9" fill="#706259" width="1.9" height="1.8"/>
<rect x="125.1" y="45.3" fill="#706259" width="1.9" height="1.7"/>
<rect x="122.2" y="45.3" fill="#706259" width="1.9" height="1.7"/>
<rect x="55.4" y="64.4" fill="#706259" width="1.9" height="1.7"/>
<rect x="69.1" y="66.1" fill="#706259" width="1.9" height="1.8"/>
<rect x="52.5" y="64.4" fill="#706259" width="1.9" height="1.7"/>
<rect x="78.6" y="64.4" fill="#706259" width="1.9" height="1.7"/>
<rect x="75.7" y="64.4" fill="#706259" width="1.9" height="1.7"/>
<rect x="88.2" y="66.1" fill="#706259" width="1.9" height="1.8"/>
<rect x="85.3" y="66.1" fill="#706259" width="1.9" height="1.8"/>
<rect x="63.3" y="77" fill="#706259" width="1.9" height="1.7"/>
<rect x="60.4" y="77" fill="#706259" width="1.9" height="1.7"/>
<rect x="163" y="57.9" fill="#706259" width="1.9" height="1.8"/>
<path fill="#706259" d="M127.8,73.4v-3.2c0-1.3-0.4-2.4-1.2-2.7c-1.1-0.3-1.7,0.9-2.1,2.2c-0.2,0.6-0.5,1.6-0.7,2.3
	C125.1,72.4,126.5,72.8,127.8,73.4 M127,66.7c2.2,0,2.8,2.3,2.8,4.7v2.2c0,0.7-0.2,2.1-1.6,1.5c-1.7-0.7-4.2-2-5.2-1.3
	c-0.7,0.5-0.6,1.2-0.6,2.8v3.7c0,1.7-0.8,2.7-1.9,2.7v-7.5c-0.1-1.2,0.4-2.4,1.4-3.1l0.1-0.1C122.9,70.2,123.7,66.7,127,66.7"/>
<polygon fill="#706259" points="0.2,88.7 1.9,88.7 1.9,93.3 1.9,93.3 5.3,88.7 6.9,88.7 3.3,93.4 7.3,99 5.4,99 1.9,94 1.9,94 
	1.9,99 0.2,99 "/>
<path fill="#706259" d="M8.6,99h1.5v-7.1H8.6V99z M8.5,90.2h1.6v-1.5H8.5V90.2z"/>
<path fill="#706259" d="M12.5,91.9H14v1.7l0,0c0.4-1.1,1.4-1.8,2.5-1.8c1,0,1.8,0.9,1.8,1.9c0,0.1,0,0.1,0,0.2V99h-1.5v-4.4
	c0-0.9-0.1-1.7-0.9-1.7c-1.5,0-1.9,2.3-1.9,3.2V99h-1.5V91.9z"/>
<path fill="#706259" d="M26.2,98.8c0,2-0.6,3.6-3.5,3.6c-0.7,0-1.3-0.1-2-0.3v-1.5c0.7,0.5,1.5,0.8,2.3,0.9c1.6,0,1.8-1.1,1.8-2.7
	V98l0,0c-0.4,0.7-1.1,1.1-1.8,1c-1.9,0-2.7-1.5-2.7-3.6s0.6-3.6,2.7-3.6c0.8,0,1.6,0.5,1.8,1.3l0,0v-1.2h1.5L26.2,98.8z M23.2,98.1
	c1.3,0,1.4-1.5,1.4-2.7s-0.2-2.8-1.4-2.8s-1.4,1.5-1.4,2.7S22,98.1,23.2,98.1"/>
<path fill="#706259" d="M35.2,88.7h1.7L40.3,99h-1.7l-0.9-3.1h-3.6L33.2,99h-1.5L35.2,88.7z M34.5,95h2.9L36,90.2l0,0L34.5,95z"/>
<path fill="#706259" d="M43,92.9L43,92.9c0.4-0.7,1.2-1.2,2-1.1c1.9,0,2.7,1.6,2.7,3.7c0,2.6-1.3,3.7-3.2,3.7c-2.8,0-3-1.9-3-3.7
	v-6.8H43V92.9z M44.5,98.6c1.2,0,1.5-1.6,1.5-3.1c0-1.2-0.3-2.9-1.5-2.9s-1.5,1.5-1.5,2.9C43.1,97.3,43.3,98.5,44.5,98.6"/>
<path fill="#706259" d="M53.5,97.8L53.5,97.8c-0.3,0.8-1,1.3-1.8,1.3c-2,0-2.7-1.7-2.7-3.7s0.8-3.7,2.7-3.7c0.8,0,1.5,0.4,1.8,1.1
	l0,0v-4.2h1.5V99h-1.5V97.8z M52.1,98.2c1.2,0,1.4-1.6,1.4-2.8s-0.1-2.9-1.4-2.9s-1.4,1.6-1.4,2.9S50.9,98.2,52.1,98.2"/>
<path fill="#706259" d="M61.7,97.3L61.7,97.3c-0.4,1.1-1.4,1.8-2.5,1.9c-1,0-1.8-0.9-1.8-1.9c0-0.1,0-0.1,0-0.2v-5.2h1.5v4.4
	c0,0.9,0.1,1.7,0.9,1.7c1.5,0,1.9-2.3,1.9-3.2v-2.9h1.5V99h-1.5V97.3z"/>
<rect x="65.6" y="88.7" fill="#706259" width="1.5" height="10.3"/>
<rect x="69.5" y="88.7" fill="#706259" width="1.5" height="10.3"/>
<path fill="#706259" d="M77,98L77,98c-0.4,0.7-1.2,1.2-2,1.2c-1,0.1-1.9-0.6-2-1.7c0,0,0-0.1,0-0.1c0-2.2,3-2.3,4-2.3v-0.6
	c0-0.8,0-2.1-1-2.1s-1.1,0.7-1.1,1.6h-1.6c0.1-1.1,0.5-2.2,2.7-2.2s2.5,1.3,2.5,2.7V99H77V98z M77,95.7c-0.6,0-2.3,0.2-2.3,1.5
	c0,0.6,0.4,1.1,0.9,1.1c0.9-0.1,1.5-0.8,1.5-1.7V95.7z"/>
<path fill="#706259" d="M80.7,88.7h1.5v4.9l0,0c0.4-1.1,1.4-1.8,2.5-1.8c1,0,1.8,0.9,1.8,1.9c0,0.1,0,0.1,0,0.2V99H85v-4.4
	c0-0.9-0.1-1.7-0.9-1.7c-1.5,0-1.9,2.3-1.9,3.2V99h-1.5L80.7,88.7z"/>
<path fill="#706259" d="M100.1,95.3c0,1.9-0.3,3.8-3.5,3.8s-3.5-1.9-3.5-3.8v-6.6h1.6v6.6c0,1.6,0.1,2.9,1.8,2.9s1.8-1.3,1.8-2.9
	v-6.6h1.6V95.3z"/>
<path fill="#706259" d="M102.4,91.9h1.5v1.7l0,0c0.4-1.1,1.4-1.8,2.5-1.8c1,0,1.8,0.9,1.8,1.9c0,0.1,0,0.1,0,0.2V99h-1.5v-4.4
	c0-0.9-0.1-1.7-0.9-1.7c-1.5,0-1.9,2.3-1.9,3.2V99h-1.5L102.4,91.9z"/>
<path fill="#706259" d="M110.6,99h1.5v-7.1h-1.5V99z M110.5,90.2h1.6v-1.5h-1.6V90.2z"/>
<polygon fill="#706259" points="113.4,91.9 115,91.9 116.8,97 116.9,97 118.6,91.9 119.9,91.9 117.4,99 116.1,99 "/>
<path fill="#706259" d="M126.3,98.8c-0.7,0.3-1.4,0.4-2.1,0.4c-2,0-3.5-1.2-3.5-4c0-2,0.8-3.4,3-3.4s2.7,1.5,2.7,2.9h-4.2
	c0,1.4,0.6,3.7,2.8,3.7c0.5,0,0.9-0.1,1.4-0.3L126.3,98.8z M125,94c0-0.6-0.2-1.6-1.3-1.6s-1.4,1.2-1.4,1.6H125z"/>
<path fill="#706259" d="M128.2,91.9h1.5v1.8l0,0c0.5-0.9,1-1.9,2.3-2v1.6c-1.4,0.1-2.3,0.5-2.3,2.4V99h-1.5L128.2,91.9z"/>
<path fill="#706259" d="M137.1,93.3c-0.5-0.4-1.1-0.7-1.8-0.7c-0.5,0-1,0.2-1,0.8c0,1.3,3.2,1.4,3.2,3.7c0,1.5-1.2,2.2-2.7,2.2
	c-0.6,0-1.3-0.1-1.9-0.3v-1.4c0.6,0.4,1.3,0.7,2,0.8c0.9,0,1.2-0.4,1.2-0.9c0-1.2-3.2-1.5-3.2-3.5c0-1.1,0.7-2,2.5-2
	c0.6,0,1.1,0.1,1.7,0.3L137.1,93.3z"/>
<path fill="#706259" d="M139.2,99h1.5v-7.1h-1.5V99z M139.2,90.2h1.6v-1.5h-1.6V90.2z"/>
<path fill="#706259" d="M146.9,99.1c-0.3,0.1-0.7,0.1-1,0.1c-1.4,0-2.2-0.4-2.2-1.8v-4.7h-1.1v-0.8h1.1v-1.7l1.5-0.9v2.6h2v0.8h-2
	v4.1c0,1,0.1,1.6,1.1,1.6c0.2,0,0.5,0,0.7-0.1L146.9,99.1z"/>
<polygon fill="#706259" points="150.1,99.1 147.4,91.9 149,91.9 150.8,97 150.9,97 152.5,91.9 154,91.9 150.3,102.2 149.1,102.2 "/>
<path fill="#706259" d="M157.5,95.5c0-2.4,1-3.7,3.1-3.7s3.1,1.3,3.1,3.7s-1.1,3.7-3.1,3.7S157.5,97.9,157.5,95.5 M160.6,98.5
	c1.4,0,1.5-1.8,1.5-3.1s-0.2-3.1-1.5-3.1s-1.5,1.8-1.5,3.1S159.3,98.5,160.6,98.5"/>
<path fill="#706259" d="M166.1,92.7h-1.2v-0.8h1.2v-0.7c0-1.3,0.3-2.7,2.7-2.7c0.5,0,1,0.1,1.5,0.2v1c-0.4-0.2-0.9-0.3-1.3-0.3
	c-1.2,0-1.4,0.9-1.4,1.6v0.8h2v0.8h-2V99h-1.5L166.1,92.7z"/>
<path fill="#706259" d="M28.3,107.9c-0.8-0.4-1.7-0.7-2.5-0.7c-0.9,0-1.5,0.5-1.5,1.3c0,2.2,4.9,2.1,4.9,5.3c0,2.2-1.7,3-3.7,3
	c-0.9,0-1.8-0.1-2.6-0.4v-1.6c0.9,0.5,1.9,0.8,2.9,0.9c1.1,0,1.9-0.4,1.9-1.5c0-2.4-4.9-2.2-4.9-5.4c0-1.7,1.2-2.6,3.4-2.6
	c0.8,0,1.6,0.1,2.4,0.3L28.3,107.9z"/>
<path fill="#706259" d="M35.5,116.5c-0.6,0.2-1.3,0.3-1.9,0.3c-2.2,0-3.6-1.3-3.6-4c0-2.1,1-3.4,3-3.4s2.5,1,2.5,2.5h-1.6
	c0-0.8-0.1-1.8-1-1.8s-1.3,1-1.3,2.3c0,1.7,0.7,3.7,2.5,3.7c0.4,0,0.9-0.1,1.3-0.3L35.5,116.5z"/>
<path fill="#706259" d="M37.2,116.7h1.5v-7.1h-1.5V116.7z M37.1,107.9h1.6v-1.5h-1.6V107.9z"/>
<path fill="#706259" d="M46.2,116.5c-0.7,0.3-1.4,0.4-2.1,0.4c-2,0-3.5-1.2-3.5-4c0-2,0.8-3.4,3-3.4s2.7,1.5,2.7,2.9H42
	c0,1.4,0.6,3.7,2.8,3.7c0.5,0,0.9-0.1,1.4-0.3L46.2,116.5z M44.8,111.7c0-0.6-0.2-1.6-1.3-1.6s-1.4,1.2-1.4,1.6H44.8z"/>
<path fill="#706259" d="M48,109.6h1.5v1.7l0,0c0.4-1.1,1.4-1.8,2.5-1.8c1,0,1.8,0.9,1.8,1.9c0,0.1,0,0.1,0,0.2v5.2h-1.5v-4.4
	c0-0.9-0.1-1.7-0.9-1.7c-1.5,0-1.9,2.3-1.9,3.2v2.9H48V109.6z"/>
<path fill="#706259" d="M61.1,116.5c-0.6,0.2-1.2,0.3-1.9,0.3c-2.2,0-3.6-1.3-3.6-4c0-2.1,1-3.4,3-3.4s2.5,1,2.5,2.5h-1.6
	c0-0.8-0.1-1.8-1-1.8s-1.3,1-1.3,2.3c0,1.7,0.7,3.7,2.6,3.7c0.4,0,0.9-0.1,1.3-0.3L61.1,116.5z"/>
<path fill="#706259" d="M67.7,116.5c-0.7,0.3-1.4,0.4-2.1,0.4c-2,0-3.5-1.2-3.5-4c0-2,0.8-3.4,3-3.4c2.2,0,2.7,1.5,2.7,2.9h-4.2
	c0,1.4,0.6,3.7,2.8,3.7c0.5,0,0.9-0.1,1.3-0.3L67.7,116.5z M66.4,111.7c0-0.6-0.2-1.6-1.3-1.6s-1.4,1.2-1.4,1.6H66.4z"/>
<path fill="#706259" d="M77.4,115.7L77.4,115.7c-0.4,0.7-1.2,1.1-2,1.1c-1,0.1-1.9-0.7-1.9-1.7c0,0,0,0,0-0.1c0-2.2,3-2.3,4-2.3
	v-0.6c0-0.8,0-2.1-1-2.1s-1.1,0.7-1.2,1.6h-1.6c0.1-1.1,0.5-2.2,2.7-2.2s2.5,1.3,2.5,2.7v4.6h-1.5V115.7z M77.4,113.4
	c-0.6,0-2.3,0.2-2.3,1.5c0,0.7,0.4,1.1,0.9,1.1c0.9-0.1,1.5-0.8,1.4-1.7L77.4,113.4z"/>
<path fill="#706259" d="M81.2,109.6h1.5v1.7l0,0c0.4-1.1,1.4-1.8,2.5-1.8c1,0,1.8,0.9,1.8,1.9c0,0.1,0,0.1,0,0.2v5.2h-1.5v-4.4
	c0-0.9-0.1-1.7-0.9-1.7c-1.5,0-1.9,2.3-1.9,3.2v2.9h-1.5L81.2,109.6z"/>
<path fill="#706259" d="M93.4,115.6L93.4,115.6c-0.3,0.8-1,1.3-1.8,1.3c-2,0-2.7-1.7-2.7-3.7s0.8-3.7,2.7-3.7c0.8,0,1.5,0.4,1.8,1.2
	l0,0v-4.2h1.5v10.3h-1.5V115.6z M91.9,115.9c1.2,0,1.4-1.6,1.4-2.8s-0.1-2.8-1.4-2.8s-1.4,1.6-1.4,2.8S90.7,115.9,91.9,115.9"/>
<polygon fill="#706259" points="102.8,107.4 100.3,107.4 100.3,106.4 106.9,106.4 106.9,107.4 104.4,107.4 104.4,116.7 102.8,116.7 
	"/>
<path fill="#706259" d="M112.7,116.5c-0.7,0.3-1.4,0.4-2.1,0.4c-2,0-3.5-1.2-3.5-4c0-2,0.8-3.4,3-3.4s2.7,1.5,2.7,2.9h-4.2
	c0,1.4,0.6,3.7,2.8,3.7c0.5,0,0.9-0.1,1.4-0.3L112.7,116.5z M111.3,111.7c0-0.6-0.2-1.6-1.3-1.6s-1.4,1.2-1.4,1.6H111.3z"/>
<path fill="#706259" d="M119.5,116.5c-0.6,0.2-1.2,0.3-1.9,0.3c-2.2,0-3.6-1.3-3.6-4c0-2.1,1-3.4,3-3.4s2.6,1,2.6,2.5H118
	c0-0.8-0.1-1.8-1-1.8s-1.3,1-1.3,2.3c0,1.7,0.7,3.7,2.6,3.7c0.4,0,0.9-0.1,1.3-0.3L119.5,116.5z"/>
<path fill="#706259" d="M121,106.4h1.5v4.9l0,0c0.4-1.1,1.4-1.8,2.5-1.8c1,0,1.8,0.9,1.8,1.9c0,0.1,0,0.1,0,0.2v5.2h-1.5v-4.4
	c0-0.9-0.1-1.7-0.9-1.7c-1.5,0-1.9,2.3-1.9,3.2v2.9H121V106.4z"/>
<path fill="#706259" d="M129.2,109.6h1.5v1.7l0,0c0.4-1.1,1.4-1.8,2.5-1.8c1,0,1.8,0.9,1.8,1.9c0,0.1,0,0.1,0,0.2v5.2h-1.5v-4.4
	c0-0.9-0.1-1.7-0.9-1.7c-1.5,0-1.9,2.3-1.9,3.2v2.9h-1.5L129.2,109.6z"/>
<path fill="#706259" d="M136.8,113.2c0-2.4,1-3.7,3.1-3.7s3.1,1.3,3.1,3.7s-1.1,3.7-3.1,3.7S136.8,115.6,136.8,113.2 M139.9,116.3
	c1.4,0,1.5-1.8,1.5-3.1s-0.2-3.1-1.5-3.1s-1.5,1.8-1.5,3.1S138.6,116.3,139.9,116.3"/>
<rect x="144.9" y="106.4" fill="#706259" width="1.5" height="10.3"/>
<path fill="#706259" d="M148.4,113.2c0-2.4,1-3.7,3.1-3.7s3.1,1.3,3.1,3.7s-1.1,3.7-3.1,3.7S148.4,115.6,148.4,113.2 M151.5,116.3
	c1.3,0,1.5-1.8,1.5-3.1s-0.2-3.1-1.5-3.1s-1.5,1.8-1.5,3.1S150.1,116.3,151.5,116.3"/>
<path fill="#706259" d="M162,116.5c0,2-0.6,3.6-3.5,3.6c-0.7,0-1.3-0.1-2-0.3v-1.5c0.7,0.5,1.5,0.8,2.3,0.9c1.6,0,1.8-1.1,1.8-2.7
	v-0.8l0,0c-0.4,0.7-1.1,1.1-1.9,1c-1.9,0-2.7-1.5-2.7-3.6s0.6-3.6,2.7-3.6c0.8,0,1.6,0.5,1.9,1.3l0,0v-1.2h1.5V116.5z M159,115.9
	c1.3,0,1.4-1.5,1.4-2.7s-0.2-2.8-1.4-2.8s-1.4,1.5-1.4,2.7S157.8,115.9,159,115.9"/>
<polygon fill="#706259" points="165.9,116.8 163.2,109.6 164.8,109.6 166.6,114.7 166.7,114.7 168.3,109.6 169.8,109.6 166.1,119.9 
	164.9,119.9 "/>
<path fill="#F09021" d="M229.8,52.8c1.4-2.1,2.1-4.7,2-7.3c0-1.6-0.2-3.2-0.7-4.8c-1.6,1.4-2.5,3.4-2.5,5.5
	C228.7,48.5,229.1,50.7,229.8,52.8"/>
<path fill="#F09021" d="M247,35.7c0.5,2.6,0.7,5.2,0.7,7.8c0,9.7-1.9,16.6-4.8,21.6c0.5,0.1,1,0.1,1.5,0.1
	c13.6,0,16.5-12.6,16.5-18.1C260.9,38.2,251.9,35.9,247,35.7"/>
<path fill="#F09021" d="M233.3,45.6c0.1,3.2-0.9,6.3-2.9,8.8c0.5,1.3,1.2,2.5,1.9,3.7c2.7-3.1,4-7.5,4-13.2c0-2.3-0.4-4.6-1.1-6.7
	c-1,0.5-1.9,1-2.8,1.7C233,41.6,233.3,43.6,233.3,45.6"/>
<path fill="#F09021" d="M238,44.9c0,7-1.9,11.6-4.7,14.6c0.7,0.9,1.6,1.7,2.5,2.5c3-3.8,5-9.4,5-17.8c0-2.6-0.3-5.1-1-7.6
	c-1,0.3-2,0.6-2.9,0.9C237.6,39.8,238.1,42.3,238,44.9"/>
<path fill="#F09021" d="M242.9,44.2c0,9-2.2,15-5.4,19.1c0.9,0.6,1.9,1,2.9,1.3c2.9-4.7,4.8-11.5,4.8-21.1c0-2.6-0.3-5.2-0.8-7.8
	c-0.8,0.1-1.7,0.2-2.7,0.4C242.5,38.7,242.9,41.4,242.9,44.2"/>
<path fill="#EFB61D" d="M215.7,23.8c7.5,0,13.7,2.9,17.7,7.6c0.8-1.1,1.5-2.3,2.1-3.5c-3.6-4.5-9.1-7.5-16.6-7.5
	c-6.1,0.2-12.1,1.3-17.9,3.4c0.1,0.8,0.4,1.6,0.8,2.3C206.3,24.6,211,23.8,215.7,23.8"/>
<path fill="#EFB61D" d="M237.5,18c-0.5-6.8-4.1-18-16.6-18c-9.7,0-15.5,9.1-18.2,16.1c6.3-2,12.8-3.1,19.3-3.2
	C227.6,12.7,233.1,14.5,237.5,18"/>
<path fill="#EFB61D" d="M204.9,30c2.5-0.6,5.1-0.8,7.7-0.8c4.2,0,12.3,0.8,17,5.9c1-0.7,1.9-1.4,2.7-2.3c-3.6-4.5-9.5-7.3-16.6-7.3
	c-4.4,0-8.8,0.7-13.1,2.1C203.3,28.5,204.1,29.3,204.9,30"/>
<path fill="#EFB61D" d="M228.3,35.8c-4.4-4.5-11.8-5.2-15.6-5.2c-2.1,0-4.2,0.2-6.2,0.5c4.8,3.5,11.7,6,16.2,6
	C224.5,37.2,226.5,36.8,228.3,35.8"/>
<path fill="#EFB61D" d="M218.9,18.3c7.8,0,13.6,3,17.5,7.5c0.5-1.5,0.9-3,1.1-4.6c-3.4-3.5-8.4-5.9-15.5-5.9
	c-6.9,0.2-13.8,1.5-20.3,3.7c-0.2,0.8-0.4,1.7-0.6,2.5C206.8,19.5,212.8,18.4,218.9,18.3"/>
<path fill="#CCCD2B" d="M186.2,37.2c0-5.7,3.6-9.8,8.6-12.8c-0.7-0.5-1.5-0.9-2.3-1.1c-4.7,3-7.9,7.1-7.9,12.3
	c0,4.7,1.7,10.7,4.8,16.5c0.5,0,1-0.1,1.5-0.3C187.9,46.7,186.2,41.3,186.2,37.2"/>
<path fill="#CCCD2B" d="M190.2,38.8c0-4.9,3.2-8.4,7.5-10.8c-0.3-0.7-0.8-1.4-1.3-2c-4.7,2.6-8.1,6.2-8.1,11.3
	c0,3.9,1.6,8.9,4.4,13.8c0.5-0.4,0.9-0.7,1.3-1.2C191.6,45.9,190.3,41.9,190.2,38.8"/>
<path fill="#CCCD2B" d="M189.2,22.6c-0.6-0.1-1.2-0.1-1.8-0.1c-5.7,0-17.9,4.7-17.9,13.4c0,9.3,10.3,15,17,16.1
	c-2.9-5.9-4.5-11.8-4.5-16.4C182.1,30.2,184.9,25.9,189.2,22.6"/>
<path fill="#CCCD2B" d="M194.1,40.3c0-3.2,1.7-6,4.7-7.9c0-1-0.2-2-0.5-2.9c-3.8,2.1-6.4,5.1-6.4,9.2c0.2,3.4,1.3,6.7,3.1,9.7
	c0.4-0.6,0.7-1.3,1-1.9C194.9,44.6,194.2,42.5,194.1,40.3"/>
<path fill="#CCCD2B" d="M195.6,40.3c0.1,1.6,0.5,3.1,1.2,4.5c1.2-3.4,1.9-7,2.1-10.6C196.8,35.6,195.6,37.9,195.6,40.3"/>
<path fill="#07A6AA" d="M217.3,59c-6.2-0.1-12.1-2.5-16.5-6.7c-0.8,0.3-1.5,0.6-2.2,1c4.7,5.5,11.6,10,19.9,10
	c3.5,0.1,6.9-0.6,10-2.1c-0.5-1.4-1.2-2.7-2.1-3.8C223.4,58.5,220.4,59.1,217.3,59"/>
<path fill="#07A6AA" d="M190.7,58.8c-2.9,2.9-4.7,6.1-4.7,9.4c0,12.6,19.6,19.7,27.2,19.7c9,0,13.2-5.7,15-11.7
	c-2.5,0.6-5.1,0.9-7.7,0.9C207.9,77,197.5,68.7,190.7,58.8"/>
<path fill="#07A6AA" d="M210.1,50.3c-2.7,0-5.3,0.5-7.8,1.4c4.1,3.7,9.5,5.8,15,5.8c2.7,0.1,5.4-0.4,7.9-1.3
	C220.4,51.3,212.9,50.3,210.1,50.3"/>
<path fill="#07A6AA" d="M218.4,65c-8.9,0-16.4-5-21.4-10.9c-0.6,0.3-1.1,0.6-1.7,1c5.5,7.5,14,13.8,24.1,13.8
	c3.4,0.1,6.8-0.6,9.9-1.9c0-1.4-0.2-2.8-0.5-4.1C225.5,64.3,222,65.1,218.4,65"/>
<path fill="#07A6AA" d="M219.4,71c-10.8,0-19.9-6.8-25.8-14.8c-0.4,0.3-0.8,0.7-1.2,1c6.4,9.4,16.2,17.3,28.1,17.3
	c2.8,0,5.6-0.4,8.3-1.2c0.3-1.4,0.4-2.8,0.5-4.2C226.2,70.4,222.8,71,219.4,71"/>
</svg>
