<svg xmlns="http://www.w3.org/2000/svg" x="0px" y="0px" width="249.37px" height="250px">
<path fill="#A10A04" d="M124.68,249.5C56.21,249.5,0.5,193.65,0.5,125C0.5,56.35,56.21,0.5,124.68,0.5
	c68.48,0,124.19,55.85,124.19,124.5C248.87,193.65,193.16,249.5,124.68,249.5z M124.68,1.38C56.69,1.38,1.38,56.84,1.38,125
	c0,68.16,55.31,123.62,123.3,123.62c67.99,0,123.3-55.45,123.3-123.62C247.99,56.84,192.67,1.38,124.68,1.38z M124.53,246.32
	c-66.81,0-121.16-54.5-121.16-121.48C3.37,57.86,57.72,3.37,124.53,3.37s121.16,54.49,121.16,121.47
	C245.68,191.82,191.33,246.32,124.53,246.32z M124.53,4.25C58.2,4.25,4.25,58.35,4.25,124.84c0,66.5,53.96,120.6,120.28,120.6
	s120.28-54.1,120.28-120.6C244.8,58.35,190.85,4.25,124.53,4.25z M124.53,243.23c-65.1,0-118.07-53.11-118.07-118.38
	S59.42,6.46,124.53,6.46S242.6,59.56,242.6,124.84S189.63,243.23,124.53,243.23z M124.53,7.34C59.91,7.34,7.34,60.05,7.34,124.84
	c0,64.79,52.57,117.5,117.19,117.5c64.62,0,117.19-52.71,117.19-117.5C241.71,60.05,189.14,7.34,124.53,7.34z M124.53,240.14
	c-63.4,0-114.98-51.72-114.98-115.29C9.55,61.27,61.13,9.55,124.53,9.55S239.5,61.27,239.5,124.84
	C239.5,188.42,187.92,240.14,124.53,240.14z M124.53,10.43c-62.91,0-114.1,51.33-114.1,114.41c0,63.09,51.18,114.41,114.1,114.41
	s114.1-51.33,114.1-114.41C238.62,61.75,187.44,10.43,124.53,10.43z M124.53,237.04c-61.69,0-111.89-50.33-111.89-112.2
	c0-61.87,50.19-112.2,111.89-112.2s111.89,50.33,111.89,112.2C236.41,186.71,186.22,237.04,124.53,237.04z M124.53,13.52
	c-61.21,0-111,49.94-111,111.32c0,61.38,49.8,111.32,111,111.32s111-49.94,111-111.32C235.53,63.46,185.73,13.52,124.53,13.52z
	 M123.82,37.2c-48.48,0-87.79,39.3-87.79,87.79s39.3,87.79,87.79,87.79s87.79-39.3,87.79-87.79S172.3,37.2,123.82,37.2z
	 M123.82,211.31c-47.67,0-86.32-38.65-86.32-86.32s38.65-86.32,86.32-86.32s86.32,38.65,86.32,86.32S171.49,211.31,123.82,211.31z
	 M33.65,175.88l8.69-5.01l1.51,2.61l-1.13,0.65l-0.84-1.45l-2.23,1.29l0.81,1.4l-1.14,0.66l-0.8-1.4l-4.19,2.41L33.65,175.88z
	 M38.25,180.65c-1.09,0.73-0.89,1.71-0.43,2.39c0.47,0.7,1.3,1.25,2.39,0.53l5.86-3.92c1.09-0.73,0.89-1.71,0.43-2.4
	c-0.46-0.69-1.29-1.24-2.38-0.51L38.25,180.65z M44.75,177.92c0.42-0.28,0.59-0.23,0.75,0c0.15,0.22,0.13,0.4-0.29,0.68l-5.64,3.78
	c-0.42,0.28-0.59,0.23-0.74,0.01c-0.16-0.23-0.14-0.41,0.28-0.69L44.75,177.92z M50.43,183.04l-6.65,5.15
	c-0.4,0.31-0.58,0.27-0.74,0.06c-0.17-0.22-0.17-0.4,0.23-0.71l6.65-5.15l-0.82-1.06l-6.75,5.23c-1.04,0.8-0.77,1.77-0.27,2.42
	c0.51,0.66,1.38,1.16,2.42,0.36l6.75-5.23L50.43,183.04z M52.98,186.19l-7.49,6.67l0.73,0.82l5.43-4.84
	c0.31-0.29,0.62-0.6,0.94-0.89l0.03,0.04c-0.81,0.87-1.6,1.68-2.38,2.66l-3.32,3.81l1.33,1.49l7.49-6.67L55,188.46l-3.81,3.39
	c-0.73,0.65-1.43,1.34-2.16,1.98l-0.4,0.36l-0.03-0.04c1.33-1.34,2.63-2.79,3.82-4.25l1.9-2.21L52.98,186.19z M50.91,198.72
	l1.37,1.33c0.75,0.72,1.75,0.49,2.41-0.19l4.14-4.27c1.23-1.26,1.18-2.02,0.22-2.94l-1.17-1.13L50.91,198.72z M58.03,193.31
	l0.23,0.22c0.25,0.24,0.3,0.42-0.16,0.89l-4.28,4.41c-0.45,0.46-0.64,0.42-0.88,0.18l-0.23-0.22L58.03,193.31z M58.55,205.65l0.85-1
	l-1.28-1.08l2.28-2.69l1.21,1.03l0.85-1l-1.21-1.03l1.67-1.97l1.26,1.07l0.85-1l-2.28-1.94l-6.49,7.65L58.55,205.65z M61.31,207.85
	l1.54,1.14c0.84,0.62,1.8,0.26,2.37-0.51l3.54-4.78c1.05-1.42,0.9-2.16-0.17-2.95l-1.3-0.97L61.31,207.85z M67.65,201.55l0.26,0.19
	c0.27,0.2,0.35,0.38-0.04,0.9l-3.66,4.94c-0.39,0.52-0.58,0.5-0.85,0.3l-0.25-0.19L67.65,201.55z M71.51,214.76l1.64,0.94
	c0.98,0.56,1.86,0.01,2.46-1.03l0.79-1.38c0.56-0.98,0.31-1.41-0.34-1.99l0.01-0.03c0.77,0.21,1.3,0.21,1.74-0.54l0.79-1.38
	c0.53-0.93,0.47-1.81-0.47-2.34l-1.65-0.95L71.51,214.76z M75,211.37l0.23,0.13c0.33,0.19,0.4,0.42,0.09,0.96l-0.95,1.65
	c-0.31,0.54-0.55,0.6-0.88,0.41l-0.23-0.13L75,211.37z M77.1,207.72l0.26,0.15c0.3,0.17,0.33,0.39,0.05,0.89l-0.76,1.32
	c-0.29,0.5-0.49,0.58-0.79,0.41l-0.26-0.15L77.1,207.72z M82,209.1l-1.49,6.26l-1.63,3.38l1.21,0.58l1.66-3.44l3.95-5l-1.13-0.54
	l-1.41,1.82c-0.41,0.52-0.74,1.1-1.12,1.79l-0.02-0.01c0.36-1,0.43-1.12,0.68-2.08l0.55-2.16L82,209.1z M89.72,221.74
	c-0.43,1.24,0.33,1.9,1.11,2.17c0.79,0.27,1.79,0.21,2.22-1.03l2.29-6.67c0.43-1.24-0.33-1.9-1.12-2.17
	c-0.78-0.27-1.78-0.21-2.2,1.03L89.72,221.74z M93.24,215.63c0.17-0.48,0.33-0.54,0.6-0.45c0.25,0.09,0.35,0.24,0.18,0.72l-2.2,6.43
	c-0.17,0.48-0.33,0.54-0.59,0.45c-0.26-0.09-0.36-0.24-0.19-0.72L93.24,215.63z M98.46,222.07l-1.3-0.35l-0.59,2.23
	c-0.34,1.27,0.46,1.87,1.26,2.08c0.81,0.22,1.8,0.09,2.14-1.18l0.46-1.72c0.26-0.98-1.28-3.64-1.09-4.33l0.32-1.2
	c0.13-0.49,0.29-0.56,0.56-0.49c0.26,0.07,0.36,0.21,0.23,0.7l-0.51,1.92l1.3,0.35l0.54-2.04c0.34-1.27-0.46-1.87-1.27-2.09
	c-0.8-0.21-1.79-0.08-2.13,1.18l-0.37,1.39c-0.42,1.58,1.32,3.47,0.96,4.83l-0.27,1.02c-0.13,0.49-0.29,0.56-0.55,0.5
	c-0.27-0.07-0.38-0.22-0.24-0.71L98.46,222.07z M107.92,221.56l0.41-2.13c0.25-1.29-0.59-1.84-1.41-1.99
	c-0.81-0.16-1.79,0.04-2.04,1.33l-1.33,6.92c-0.25,1.29,0.59,1.84,1.4,1.99c0.82,0.16,1.8-0.04,2.05-1.33l0.43-2.25l-1.32-0.25
	l-0.41,2.13c-0.1,0.5-0.25,0.58-0.52,0.53c-0.27-0.05-0.39-0.19-0.29-0.69l1.28-6.67c0.1-0.5,0.25-0.58,0.53-0.53
	c0.26,0.05,0.38,0.19,0.28,0.68l-0.39,2.01L107.92,221.56z M110.18,228.36l1.21,0.14l0.61-2.66l0.95,0.11l-0.07,2.73l1.35,0.16
	l0.18-10.08l-2-0.24L110.18,228.36z M112.28,224.55l0.83-4.1l0.09,0.01l-0.22,4.17L112.28,224.55z M119.04,229.2l0.23-4.64
	c0.62,0,0.81,0.25,0.78,0.86c-0.06,1.17-0.2,2.67-0.03,3.83l1.34,0.07c-0.15-1.39,0-2.79-0.01-4.13c0-0.92-0.63-1.17-1.22-1.29
	l0-0.03c1.15-0.08,1.37-0.69,1.41-1.44l0.07-1.42c0.07-1.29-0.57-1.75-1.65-1.8l-1.77-0.09l-0.51,10.02L119.04,229.2z
	 M119.49,220.38l0.32,0.02c0.3,0.02,0.5,0.14,0.48,0.52l-0.09,1.81c-0.02,0.37-0.13,0.64-0.6,0.62l-0.25-0.01L119.49,220.38z
	 M132.2,229.1l0.07-4.19c0.03-1.1-0.03-2.22,0-3.32l0.06,0c0.1,1.29,0.32,2.56,0.45,3.85l0.5,3.58l1.45-0.11l0.15-10.07l-1.09,0.08
	l-0.02,4.27c-0.02,0.88,0.04,1.96,0.08,2.95l-0.06,0c-0.12-1.08-0.2-2-0.38-3.22l-0.57-3.93l-1.45,0.11l-0.06,3.31
	c0.03,1.3,0.04,2.6,0.14,3.9l-0.06,0c-0.12-1.19-0.27-2.37-0.43-3.53l-0.55-3.62l-1.35,0.1l1.57,9.94L132.2,229.1z M142.53,227.87
	l-0.2-1.29l-1.65,0.26l-0.54-3.48l1.57-0.24l-0.2-1.3l-1.57,0.24l-0.39-2.55l1.63-0.25l-0.2-1.29l-2.96,0.46l1.54,9.91
	L142.53,227.87z M147.16,226.95l-1.01-4.54c0.6-0.16,0.85,0.03,0.98,0.62c0.25,1.14,0.52,2.63,0.99,3.7l1.31-0.29
	c-0.51-1.3-0.74-2.69-1.11-3.98c-0.25-0.88-0.92-0.96-1.52-0.92l-0.01-0.03c1.08-0.39,1.13-1.03,0.97-1.76l-0.31-1.39
	c-0.28-1.27-1.02-1.53-2.07-1.3l-1.73,0.38l2.18,9.79L147.16,226.95z M145.24,218.33l0.31-0.07c0.3-0.07,0.52,0,0.6,0.37l0.4,1.77
	c0.08,0.36,0.04,0.65-0.42,0.76l-0.25,0.05L145.24,218.33z M154.83,224.97l-0.86-4.1c-0.21-1.08-0.51-2.16-0.73-3.24l0.06-0.02
	c0.38,1.24,0.87,2.43,1.29,3.66l1.27,3.38l1.4-0.43l-2.07-9.86l-1.04,0.32l0.92,4.17c0.17,0.86,0.48,1.9,0.73,2.86l-0.06,0.02
	c-0.35-1.03-0.64-1.91-1.08-3.06l-1.42-3.71l-1.39,0.43l0.67,3.24c0.32,1.26,0.61,2.52,0.99,3.78l-0.06,0.02
	c-0.37-1.14-0.78-2.25-1.2-3.35l-1.33-3.41l-1.3,0.4l3.72,9.36L154.83,224.97z M161.03,222.91l1.13-0.45l-0.72-2.64l0.89-0.35
	l1.23,2.44l1.26-0.5l-4.63-8.96l-1.88,0.74L161.03,222.91z M161.08,218.56l-1.22-4l0.08-0.03l1.79,3.78L161.08,218.56z
	 M162.93,211.32l0.55,1.19l1.07-0.5l3.68,7.91l1.22-0.57l-3.69-7.91l1.06-0.49l-0.55-1.19L162.93,211.32z M174.91,216.56l-2.36-4.27
	l0.65-0.36l2.36,4.27l1.18-0.65l-4.86-8.78l-1.18,0.65l1.86,3.37l-0.66,0.36l-1.86-3.37l-1.18,0.65l4.86,8.78L174.91,216.56z
	 M185.7,209.75l-5.81-8.18l-1.1,0.78l5.81,8.18L185.7,209.75z M182.45,199.68l6.31,7.8l0.86-0.69l-4.57-5.65
	c-0.27-0.32-0.57-0.64-0.84-0.98l0.04-0.03c0.83,0.85,1.6,1.68,2.55,2.51l3.65,3.5l1.55-1.25l-6.31-7.8l-0.86,0.69l3.21,3.97
	c0.61,0.76,1.27,1.49,1.87,2.26l0.34,0.42l-0.04,0.03c-1.28-1.4-2.66-2.76-4.06-4.02l-2.11-2.01L182.45,199.68z M193.18,193.35
	l0.69-0.71l5.51,5.34l0.94-0.96l-7.2-6.98l-0.77,0.79c0.67,0.63,0.51,1.18,0.09,1.8L193.18,193.35z M199.77,190.25
	c1.05,0.88,1.63,0.54,1.97,0.13c0.24-0.28,0.34-0.71,0.28-1.08l1.57,1.32c0.27,0.23,0.45,0.45,0.22,0.73
	c-0.24,0.28-0.48,0.13-0.75-0.1l-0.95-0.8l-0.87,1.03l0.77,0.64c1,0.84,1.88,0.98,2.7,0c0.81-0.96,0.55-1.86-0.4-2.66l-4.88-4.1
	c-0.93-0.78-1.8-0.75-2.54,0.13c-0.97,1.16-0.43,1.96,0.37,2.63L199.77,190.25z M198.03,187.03c-0.23-0.19-0.49-0.43-0.25-0.71
	c0.28-0.34,0.62-0.06,0.93,0.2l2.19,1.84c0.23,0.19,0.4,0.44,0.2,0.68c-0.23,0.27-0.46,0.18-0.73-0.05L198.03,187.03z
	 M206.69,186.71c1.07,0.78,2,0.56,2.57-0.22c0.7-0.96,0.58-1.83-0.5-2.62l-5.09-3.71c-1.25-0.91-2.01-0.66-2.67,0.24
	c-0.66,0.9-0.65,1.69,0.6,2.6L206.69,186.71z M202.24,181.81c-0.32-0.23-0.41-0.52-0.29-0.68c0.16-0.22,0.45-0.22,0.77,0.01
	l5.24,3.82c0.23,0.17,0.59,0.46,0.37,0.76c-0.24,0.33-0.6,0.1-0.9-0.12L202.24,181.81z M209.23,179.86l1.21,0.76
	c1.22,0.76,2.18,1.01,2.95-0.23c0.55-0.88,0.57-1.71-0.79-2.56l-1.43-0.9c-0.54-0.34-0.94-0.52-1.78,0.14l-0.05-0.03
	c0.29-0.88-0.15-1.35-0.68-1.68l-1.37-0.86c-0.94-0.59-1.89-0.68-2.57,0.41c-0.62,0.99-0.53,1.8,0.78,2.61l1.39,0.87l0.71-1.14
	l-1.29-0.81c-0.32-0.23-0.85-0.45-0.57-0.9c0.23-0.38,0.74,0.06,1.36,0.42l0.76,0.48c0.51,0.32,0.82,0.66,0.4,1.22l1.01,0.64
	l0.11-0.17c0.21-0.33,0.51-0.41,1.01-0.1l1.54,0.97c0.6,0.37,0.55,0.58,0.41,0.8c-0.08,0.13-0.27,0.27-1.1-0.26l-1.3-0.82
	L209.23,179.86z M37.25,159.59l-8.9,3.01l8.04-5.56l-0.85-2.5l-9.77,0.46l8.9-3.01l-0.82-2.41l-11.31,3.83l1.32,3.89l8.5-0.31
	l-6.93,4.94l1.31,3.88l11.31-3.83L37.25,159.59z M32.84,144.14l-11.67,2.51l0.58,2.68l11.67-2.51L32.84,144.14z M31.1,131.83
	l-2,0.24l0.81,6.76L20.15,140l0.32,2.72l11.76-1.4L31.1,131.83z M31.02,125.96l-8.85-2.93l9-2.47l0.08-2.91l-11.85-3.61l-0.07,2.76
	l8.28,2.3l-8.4,2.16l-0.09,3.26l8.13,2.7l-8.25,1.83l-0.07,2.8l12.02-2.92L31.02,125.96z M21.13,105.13l-0.53,2.85l10.77,7.38
	l0.53-2.86l-2.46-1.6l0.99-5.33l2.88-0.67l0.54-2.93L21.13,105.13z M27.62,109.71l-4.02-2.61l4.7-1.03L27.62,109.71z M29.07,98.73
	c1.26,0.43,2.25,0.68,2.95,0.73c0.48,0.03,0.98-0.06,1.5-0.3c0.53-0.23,1.02-0.62,1.49-1.17c0.47-0.55,0.91-1.43,1.33-2.66
	c0.35-1.01,0.52-1.88,0.51-2.59c-0.01-0.71-0.14-1.32-0.4-1.83c-0.26-0.51-0.64-0.93-1.15-1.26c-0.51-0.33-1.44-0.73-2.8-1.2
	l-5.93-2.04l-0.89,2.59l6.25,2.15c0.89,0.31,1.52,0.57,1.88,0.77c0.36,0.21,0.61,0.54,0.74,1.01c0.14,0.46,0.08,1.06-0.18,1.8
	c-0.25,0.72-0.59,1.25-1.01,1.57c-0.42,0.32-0.89,0.46-1.39,0.41c-0.31-0.04-0.95-0.22-1.92-0.55l-6.11-2.11l-0.89,2.59L29.07,98.73
	z M40.3,85.14l-3.2-1.67l-0.75-2.89l6.69-0.72l1.64-3.15l-8.95,1.42l-1.77-6.68l-1.7,3.27l2.15,7.36l-4.7-2.45l-1.26,2.43
	l10.59,5.51L40.3,85.14z M51.59,67.11l-1.64-1.17l-4.41,6.17l-2.64-1.89l3.96-5.54l-1.64-1.17l-3.96,5.54l-2.15-1.54l4.26-5.95
	l-1.64-1.18l-5.86,8.18l9.71,6.95L51.59,67.11z M60.22,57.77l-1.46-1.38l-5.2,5.51l-2.36-2.23l4.68-4.95l-1.46-1.38l-4.68,4.95
	l-1.93-1.82l5.03-5.32l-1.47-1.39l-6.91,7.32l8.68,8.2L60.22,57.77z M63.09,50.08c0.93,0.98,1.97,1.48,3.12,1.51
	c1.15,0.03,2.43-0.46,3.82-1.46c0.96-0.69,1.67-1.38,2.14-2.08c0.47-0.7,0.71-1.41,0.71-2.15c0-0.74-0.2-1.38-0.6-1.94
	c-0.44-0.61-0.96-1.02-1.55-1.23c-0.59-0.21-1.23-0.24-1.93-0.11c-0.69,0.13-1.66,0.48-2.9,1.03c-1.24,0.55-2.08,0.83-2.51,0.82
	c-0.34,0-0.59-0.12-0.75-0.35c-0.18-0.25-0.21-0.54-0.08-0.86c0.2-0.5,0.62-0.98,1.26-1.44c0.63-0.45,1.17-0.68,1.64-0.69
	c0.47-0.01,0.93,0.2,1.39,0.63l2.16-1.69c-0.68-0.86-1.56-1.31-2.64-1.34c-1.08-0.03-2.31,0.45-3.7,1.45
	c-0.85,0.61-1.49,1.24-1.92,1.9c-0.44,0.66-0.66,1.31-0.67,1.97c-0.01,0.66,0.17,1.23,0.52,1.73c0.55,0.77,1.36,1.17,2.42,1.22
	c0.75,0.03,1.82-0.25,3.2-0.85c1.07-0.46,1.77-0.75,2.08-0.86c0.47-0.16,0.83-0.21,1.1-0.16c0.27,0.05,0.49,0.19,0.65,0.42
	c0.26,0.36,0.3,0.8,0.13,1.33c-0.17,0.53-0.61,1.05-1.33,1.57c-0.68,0.49-1.32,0.72-1.93,0.71c-0.61-0.01-1.22-0.29-1.81-0.84
	L63.09,50.08 M81.81,37.69c0.21,0.88,0.17,1.62-0.1,2.23c-0.27,0.6-0.73,1.08-1.38,1.42c-0.87,0.46-1.73,0.55-2.58,0.27
	c-0.84-0.28-1.62-1.09-2.32-2.42c-0.66-1.26-0.87-2.32-0.61-3.17c0.26-0.85,0.83-1.52,1.72-1.98c0.64-0.34,1.28-0.47,1.89-0.39
	c0.62,0.08,1.14,0.36,1.57,0.83l2.13-1.77c-0.72-0.7-1.47-1.13-2.25-1.3c-1.32-0.28-2.71-0.03-4.18,0.74
	c-1.68,0.89-2.78,2.09-3.3,3.6c-0.52,1.52-0.32,3.15,0.61,4.91c0.88,1.66,2.08,2.7,3.61,3.12c1.53,0.42,3.09,0.21,4.69-0.63
	c1.29-0.68,2.2-1.52,2.75-2.52c0.54-1,0.69-2.17,0.44-3.52L81.81,37.69 M90.85,38.56l-1.74-4.92l5.06-1.79l1.74,4.92l2.58-0.91
	L94.53,24.6l-2.58,0.91l1.56,4.43l-5.06,1.79l-1.56-4.43l-2.58,0.91l3.97,11.26L90.85,38.56z M99.44,29.43
	c0.36,1.87,1.22,3.22,2.59,4.06c1.37,0.84,3.05,1.08,5.03,0.7c1.96-0.37,3.42-1.2,4.39-2.49c0.97-1.29,1.27-2.88,0.91-4.78
	c-0.36-1.91-1.23-3.29-2.62-4.14c-1.38-0.85-3.06-1.09-5.02-0.71c-1.08,0.21-2.01,0.54-2.79,1.01c-0.58,0.35-1.09,0.81-1.52,1.38
	c-0.43,0.58-0.75,1.19-0.94,1.84C99.23,27.19,99.21,28.23,99.44,29.43 M102.2,28.82c-0.26-1.35-0.11-2.42,0.44-3.22
	c0.55-0.8,1.38-1.3,2.49-1.51c1.11-0.21,2.06-0.05,2.86,0.49c0.8,0.53,1.32,1.47,1.58,2.82c0.26,1.36,0.11,2.45-0.45,3.26
	c-0.56,0.81-1.38,1.32-2.45,1.52c-1.07,0.2-2.02,0.03-2.85-0.53C102.99,31.09,102.45,30.15,102.2,28.82 M114.72,26.72
	c0.06,1.9,0.7,3.37,1.93,4.42c1.23,1.04,2.85,1.53,4.86,1.47c1.99-0.06,3.57-0.66,4.72-1.79c1.16-1.13,1.7-2.65,1.64-4.58
	c-0.06-1.94-0.71-3.44-1.95-4.49c-1.23-1.05-2.85-1.55-4.85-1.48c-1.1,0.04-2.07,0.22-2.91,0.57c-0.63,0.25-1.2,0.63-1.72,1.13
	c-0.52,0.5-0.92,1.06-1.21,1.68C114.85,24.48,114.68,25.51,114.72,26.72 M117.54,26.55c-0.04-1.37,0.27-2.41,0.94-3.11
	c0.67-0.7,1.57-1.07,2.7-1.11c1.13-0.04,2.04,0.27,2.75,0.92c0.7,0.65,1.08,1.66,1.12,3.03c0.04,1.38-0.27,2.43-0.95,3.15
	c-0.68,0.72-1.56,1.09-2.66,1.13c-1.09,0.03-2-0.28-2.73-0.96C117.97,28.92,117.58,27.9,117.54,26.55 M139.67,33.44l0.21-2
	l-6.77-0.72l1.04-9.78l-2.72-0.29l-1.25,11.78L139.67,33.44z M147.75,28.98c-0.56,1.82-0.44,3.42,0.38,4.8s2.19,2.38,4.11,2.98
	c1.9,0.59,3.58,0.54,5.05-0.14c1.46-0.69,2.48-1.95,3.05-3.79c0.58-1.86,0.45-3.48-0.37-4.88c-0.82-1.4-2.19-2.39-4.1-2.99
	c-1.05-0.33-2.03-0.47-2.93-0.42c-0.68,0.03-1.34,0.2-1.99,0.51c-0.65,0.3-1.22,0.7-1.69,1.19
	C148.62,26.9,148.11,27.81,147.75,28.98 M150.47,29.74c0.41-1.31,1.04-2.19,1.9-2.64c0.86-0.45,1.83-0.5,2.91-0.17
	c1.08,0.34,1.84,0.93,2.3,1.77c0.45,0.85,0.47,1.92,0.07,3.23c-0.41,1.32-1.05,2.21-1.93,2.66c-0.87,0.45-1.83,0.52-2.88,0.19
	c-1.04-0.32-1.8-0.92-2.27-1.8C150.11,32.11,150.07,31.03,150.47,29.74 M162.9,40.57l2.17-4.59l5.12,2.42l0.86-1.83l-5.12-2.42
	l1.21-2.56l5.93,2.8l0.86-1.83l-8.41-3.98l-5.1,10.8L162.9,40.57z M183.7,53.3l1.18-1.63l-6.13-4.45l1.91-2.63l5.51,4l1.18-1.63
	l-5.51-4l1.55-2.14l5.92,4.3l1.19-1.63l-8.14-5.91l-7.02,9.66L183.7,53.3z M187.26,56.51l5.4-5.61l-1.47,9.4l1.98,1.91l8.29-8.6
	l-1.83-1.77l-5.53,5.74l1.54-9.6l-1.92-1.85l-8.29,8.6L187.26,56.51z M204.57,69.46l-1.21,0.92c-0.48-0.16-0.97-0.41-1.47-0.75
	c-0.51-0.34-0.93-0.74-1.28-1.2c-0.7-0.92-0.99-1.89-0.85-2.88c0.13-1,0.76-1.93,1.89-2.78c1.05-0.79,2.05-1.11,3.01-0.95
	c0.96,0.16,1.8,0.71,2.52,1.67c0.48,0.63,0.74,1.26,0.79,1.88c0.05,0.63-0.1,1.19-0.45,1.7l2,1.9c0.71-0.88,1.03-1.89,0.95-3.02
	c-0.08-1.13-0.63-2.37-1.64-3.71c-0.78-1.03-1.6-1.77-2.44-2.23c-1.1-0.6-2.22-0.84-3.34-0.73c-1.13,0.11-2.19,0.54-3.18,1.3
	c-0.91,0.69-1.6,1.55-2.05,2.56c-0.45,1.01-0.57,2.1-0.35,3.25c0.22,1.16,0.76,2.3,1.62,3.43c0.67,0.89,1.49,1.66,2.45,2.3
	c0.95,0.64,1.8,1.04,2.54,1.21l3.79-2.88l-3.57-4.7l-1.6,1.22L204.57,69.46z M205.3,78.81l10.23-6.17l-1.42-2.35l-10.22,6.17
	L205.3,78.81z M207.82,83.34l7.04-3.33l-4.71,8.27l1.17,2.49l10.8-5.1l-1.09-2.3l-7.21,3.41l4.84-8.43l-1.14-2.41l-10.8,5.1
	L207.82,83.34z M215.37,103.24l1.92-0.6l-2.24-7.24l3.1-0.96l2.02,6.51l1.92-0.6l-2.02-6.51l2.53-0.78l2.17,6.99l1.93-0.6
	l-2.98-9.61l-11.41,3.54L215.37,103.24z M217.56,115.6l1.98-0.33l-1.25-7.48l3.21-0.54l1.12,6.72l1.99-0.33l-1.12-6.72l2.61-0.44
	l1.21,7.22l1.99-0.33l-1.66-9.92l-11.78,1.97L217.56,115.6z M217.85,120.55l4.98-0.13l0.01,0.55c0.02,0.63-0.02,1.09-0.1,1.38
	c-0.08,0.29-0.24,0.57-0.48,0.84c-0.23,0.27-0.81,0.76-1.72,1.49l-2.54,2.05l0.09,3.28l2.28-1.72c0.91-0.68,1.54-1.22,1.9-1.61
	c0.35-0.4,0.67-0.89,0.96-1.49c0.18,1.19,0.58,2.07,1.17,2.65c0.6,0.58,1.35,0.86,2.24,0.84c0.71-0.02,1.33-0.23,1.86-0.64
	c0.54-0.41,0.9-0.95,1.1-1.61c0.2-0.66,0.28-1.72,0.24-3.17l-0.15-5.77l-11.94,0.32L217.85,120.55z M227.76,120.28l0.06,2.14
	c0.03,1.11,0.03,1.78,0.01,2c-0.05,0.45-0.2,0.79-0.44,1.04c-0.24,0.25-0.56,0.38-0.96,0.39c-0.36,0.01-0.66-0.07-0.9-0.25
	c-0.24-0.18-0.42-0.43-0.53-0.76c-0.11-0.32-0.18-1.14-0.21-2.46l-0.05-2.03L227.76,120.28z M217.58,134.31l11.91,0.89l0.2-2.73
	l-11.91-0.89L217.58,134.31z M216.98,139.63l7.66,1.38l-8.63,4l-0.49,2.71l11.75,2.12l0.45-2.51l-7.85-1.41l8.83-4.05l0.47-2.62
	l-11.75-2.12L216.98,139.63z M215.97,160.78l-1.43-0.49c-0.13-0.48-0.2-1.03-0.2-1.64c0-0.61,0.09-1.19,0.28-1.73
	c0.38-1.1,1.02-1.87,1.92-2.32c0.9-0.45,2.02-0.44,3.37,0.02c1.24,0.43,2.07,1.08,2.47,1.97c0.4,0.88,0.41,1.89,0.02,3.03
	c-0.26,0.75-0.63,1.31-1.12,1.7c-0.49,0.39-1.05,0.58-1.66,0.57l-0.46,2.72c1.13,0.1,2.14-0.2,3.03-0.89
	c0.9-0.69,1.62-1.84,2.16-3.43c0.42-1.23,0.58-2.31,0.49-3.27c-0.12-1.25-0.54-2.31-1.26-3.18c-0.72-0.87-1.67-1.51-2.85-1.91
	c-1.09-0.37-2.17-0.46-3.27-0.28c-1.09,0.19-2.06,0.69-2.9,1.52c-0.84,0.83-1.48,1.91-1.94,3.26c-0.36,1.06-0.54,2.16-0.54,3.31
	c0,1.15,0.14,2.08,0.41,2.78l4.5,1.54l1.91-5.59l-1.9-0.65L215.97,160.78z M121.84,118.11c0.13-0.03,0.14,0.06,0.15,0.15
	c1.27,1.93,2.07,4.34,3.56,6.23c0.42,0.53,1.34,0.97,1.04,1.78c-1.2,0.39-2.71-0.41-4.45-0.3c-1.55,0.1-3.24,0.69-4.74,0.89
	c-0.27-0.46,0.7-1.08,1.19-1.63C120.14,123.44,121.09,120.86,121.84,118.11 M124.81,125.08c-1.26-1.11-1.58-3.17-2.82-4.3
	c-0.46,1.71-1.05,3.3-2.07,4.45C122.31,125,123.23,124.96,124.81,125.08 M54.99,132.34c0.19,0.21,0.7,0.09,0.89,0.3
	c-0.79,4.35-1.03,8.21-1.04,13.34c-0.19-0.2-0.64-0.15-1.04-0.15C53.99,142.08,53.98,136.97,54.99,132.34 M192.7,145.83
	c0.26-4.57-0.14-10.09-1.04-13.34c-0.01-0.09-0.02-0.18-0.15-0.15c-0.03,0.17-0.23,0.16-0.45,0.15c0.18,3.31,0.64,6.47,0.74,9.64
	C191.84,143.21,191.16,145.75,192.7,145.83 M44.77,100.63c0.73,0.36,1.22,2.23,1.93,3.11c-0.64-4.95,0.84-10.78,2.96-14.53
	c0.3,0.64,0.62,1.25,0.74,2.07c1.13-5.34,2.74-10.21,4.15-15.27c0.62,1.3,1.14,2.71,1.48,4.3c1.97-3.91,3.51-8.25,5.04-12.6h1.19
	c0.03,1.18,0.46,2.38,0.59,3.85c3.19-4.82,6.07-9.94,9.49-14.53c0.36,1.97,0.26,3.17,0.3,5.78c2.8-3.88,6.86-7.27,10.67-9.64
	c-0.79,2.62-1.64,5.18-2.52,7.71c3.15-2.08,6.79-4.97,10.67-6.82c0.42-3.38,3.5-4.11,5.63-5.78c0.55,0.11-0.06,0.45,0.3,0.74
	c1.21-1.11,2.84-1.8,4.15-2.82c0.49,0.4,0.14,0.57,0.15,1.33c1.32-0.9,2.82-1.62,4.15-2.52c0.23,0.58,0.04,0.72,0,1.33
	c1.47-0.41,2.18-1.57,3.71-1.93c-0.36,0.58,0.19,0.83-0.15,1.33c1.36-0.66,2.37-1.68,3.85-2.22c0.28,2.4-0.64,3.61-1.63,4.74
	c1.87-0.04,4.77-0.83,6.67-0.74v1.04c-1.69-0.06-3.15,0.47-5.19,0.59c1.18,0.5,1.81,1.55,2.52,2.52c-0.52,0.55-2.75,0.19-4.15,0.3
	c-0.4,0.36,0.51,0.67,0.45,1.19c-1.54,0.08-3.54,0.3-4.74,0c-0.43,0.07,0.61,0.64,0.15,0.74c-0.62,0.26-2.56,0.11-3.85,0.15
	c-0.38,0.27,0.75,0.81,0.3,1.19c-0.63-0.22-3.56-0.11-4.74-0.15c-0.08,0.53,0.77,0.9,0.44,1.19c-2.21-0.1-6.17,0.66-7.41-1.33
	c-3.75,1.74-6.79,4.18-10.08,6.37c4.17-0.69,8.27-1.82,12.3-3.11c1.06,0.94-0.37,1.73-0.89,2.22c-3.46,3.33-7.08,5.95-12.3,7.71
	c-1.93,0.65-3.97,1.04-5.34,2.22c3.93-1.21,6.94-1.87,11.12-2.52c0.26,0.09-0.01,0.7,0.3,0.74c-3.84,3.23-8.47,5.67-13.04,8.15
	c0.46,0.18,2.74,0.27,3.11,0.15c-3.63,3.38-7.52,7.8-13.49,9.34c-0.76,0.62-1.19,1.58-1.78,2.37c1.95-1.26,5.19-2.52,8.3-3.11
	c0.28,0.85-0.69,1.67-1.19,2.37c-1.62,2.3-3.8,4.71-6.23,6.23c0.21,5.81-0.92,10.97-4.45,14.38c-0.07,4.74,0.33,8.24-1.19,11.41
	c0.74,1.72,1.24,8.1,1.48,11.41c0.34,4.51-0.17,9.67-1.48,14.23c0.66-1.27,1.28-2.58,1.78-4c2.72,4.84,4.33,10.79,5.48,17.19
	c3.26,2.82,7.65,5.78,8.74,11.26c0.33-0.31,0.46-0.82,0.59-1.33c2.03,2.02,4.29,3.81,5.78,6.37c0.42-0.54,0.14-1.35,0.3-2.67
	c2.85,3.33,5.46,6.89,7.41,11.12c6.82,0.62,12.8,3.28,16.9,7.12c0.06-0.98,0.39-1.68,0.59-2.52c4.43,2.57,10.75,2.45,14.38,5.93
	c1.08-1.07,2.79-0.71,4.15,0c1.18-0.57,3.08-1.03,4.15-0.15c3.83-3.21,9.89-3.27,14.38-5.78c0.35,0.69,0.46,1.62,0.74,2.37
	c3.77-3.58,10.87-6.4,16.9-7.26c2.2-3.83,4.31-7.75,7.41-10.67c-0.24,0.77,0.09,1.23,0,2.67c1.71-2.48,3.92-4.48,6.08-6.52
	c0.05,0.54,0.36,0.82,0.44,1.33c0.8-4.68,5.17-7.83,8.3-11.12c0.22-0.17,0.37-0.17,0.59,0c0.6-5.78,2.91-12.14,5.19-17.19
	c0.87,1.1,1.38,2.57,1.93,4c-0.08-2.79-1.4-6.33-1.63-9.78c-0.27-4.01,0.5-8.26,1.04-12.3c0.13-0.99,0.36-4.04,0.74-3.41
	c-1.18-3-1.3-6.01-1.33-9.04c-0.01-0.74,0.32-1.62,0.15-2.37c-0.46-1.96-3.06-3.57-3.71-5.63c-0.95-3.06-0.21-5.5-0.74-8.89
	c-3.04-2.44-5.94-5.03-7.71-8.75c3.5,0.55,6.43,1.67,8.75,3.41c-0.52-0.86-1.12-1.64-1.63-2.52c-6.25-1.45-9.54-5.88-13.93-9.19
	c1.36-0.39,2.09-0.1,3.41-0.3c-4.62-2.5-9.12-5.11-13.19-8.15c0.02-0.28,0.1-0.49,0.3-0.59c1.26-0.22,2.71,0.15,4.15,0.44
	c2.28,0.46,4.56,1.08,6.82,1.78c-0.38-0.92-1.55-0.9-2.37-1.19c-2.68-0.93-5.79-1.77-8.3-3.26c-3.29-1.95-5.97-4.42-8.15-6.82
	c-0.11-0.46,0.41-0.28,0.3-0.74c4.25,1.17,7.8,1.97,12.3,3.26c-2.44-2.45-6.39-4.68-9.78-6.67c-1.49,1.85-4.81,1.31-7.71,1.33
	c0.06-0.49,0.43-0.65,0.59-1.04c-0.95-0.23-4.19-0.14-4.89,0c-0.26-0.27,0.46-0.81,0.59-1.19c-1.4,0.09-3.63-0.14-4.15,0
	c-0.34-0.12,0.25-0.52,0.3-0.74c-0.87-0.14-3.12,0.17-4.59-0.15c-0.59-0.05,0.37-0.84,0.45-1.19c-1.44-0.02-3.52,0.08-4.3-0.15
	c0.63-1,1.01-2.25,2.37-2.52c-1.05-0.45-3.92-0.55-5.04-0.89c-0.19-0.37,0.33-0.72,0-0.74c2.36-0.15,4.36,0.51,6.52,0.74
	c-0.56-0.96-2.15-3.2-1.48-4.59c0.85-0.14,2.63,1.32,3.7,1.93V44.3c1.1,0.78,2.39,1.37,3.41,2.22c0.34-0.21,0.06-1.03,0.15-1.48
	c1.29,0.89,2.84,1.51,4,2.52c0.34-0.16,0.06-0.93,0.15-1.33c1.4,0.97,3.13,1.62,4.3,2.82c0.2-0.05,0.12-0.37,0.15-0.59
	c2.41,1.22,5.46,2.52,5.78,5.34c3.51,2.37,7.33,4.43,10.52,7.11c-0.39-2.38-1.57-5.25-2.37-7.71c3.83,2.29,7.89,5.65,10.67,9.49
	c0.06-1.92,0.29-3.6,0.3-5.63c3.46,4.59,6.47,9.63,9.49,14.67c0.58-1.85,0.74-4.26,1.04-5.63c1.98,4.64,3.64,9.6,5.78,14.08
	c0.41-1.14,0.98-2.82,1.48-4.3c1.27,5.13,3.44,10.06,4,15.41c0.47-0.51,0.61-1.37,0.89-2.07c2.08,3.26,3.93,9.57,2.97,14.38
	c0.89-0.74,1.27-1.99,1.78-3.11c0.49,7.28,2.27,16.28-0.74,22.98c1.54-1.08,3.97-3.34,5.63-4.3c-1.3,5-2.72,8.96-3.85,14.08
	c0.24,0.27,0.55-0.62,0.74-0.89c1.66,8.15-0.21,16.49-5.34,20.45c0.82-0.07,1.38-0.4,2.07-0.59c0.25,0.57-0.61,0.96-1.04,1.48
	c-1.27,1.55-2.63,3.57-3.85,5.19c1.53-0.55,3.34-0.81,4.89-1.33c0.2,0.7-1.07,1.61-1.78,2.37c-2.17,2.32-4.78,4.92-6.67,7.56
	c0.37,0.22,0.6-0.01,1.19,0c-3.15,3.03-7.37,4.99-9.49,9.04h4.59c0.31,0.27-0.59,1.08-1.04,1.48c-3.52,3.2-7.75,6.58-13.34,7.86
	c0.83,0.48,2.56,0.46,3.71,0.74c-4.47,2.64-8.18,6.05-14.67,6.67c1.56,0.76,3.43,1.21,5.04,1.93c-3.72,1.82-8.03,3.04-13.34,3.26
	c1.38,1.04,2.91,1.93,4.3,2.97c-4.92-0.61-12.45,0.37-16.75-2.52c0.05,0.92,0.09,3.04-0.59,3.71c-0.79-0.1-1.3-0.48-2.08-0.59
	c-1.28,2.13-2.62,4.2-3.85,6.37c-2.41-2.19-4.56-4.63-6.97-6.82c-0.13-0.26-0.47-0.43-0.15-0.74c-0.5,0.29-0.8,0.78-1.33,1.04
	c-3.05-0.82-7.07,0.97-8.45-1.04c-1.7,2.6-4.92,4.96-7.12,7.56c-1.54-1.92-2.71-4.2-4-6.37c-0.92,0.02-1.35,0.53-2.22,0.59
	c-0.6-0.91-0.41-2.64-0.45-3.71c-3.95,2.7-10.75,1.97-15.12,2.37c-0.02-0.28-0.1-0.5-0.3-0.59c0.61-1.02,1.81-1.45,2.82-2.08
	c-4.8-0.48-9.23-1.53-13.34-3.26c1.5-0.82,3.31-1.33,5.04-1.93c-5.42-0.72-10.13-4.02-14.53-6.67c1.05-0.65,2.49-0.58,3.71-0.74
	c-6.4-1.65-10.61-5.5-14.82-9.34c1.34-0.35,3.31-0.05,4.89-0.15c-1.71-3.82-6.36-5.99-9.34-9.04c0.28,0.17,0.73,0.01,1.19,0.3
	c-1.88-3.3-5.18-5.98-7.71-8.89c-0.25-0.29-0.75-0.86-0.59-1.18c1.35,0.39,3.23,0.58,4.74,1.33c-1.48-2.42-3.22-4.59-5.04-6.67
	c0.41-0.21,1.38,0.29,1.93,0.45c-3.01-2.82-5.68-7.84-5.63-13.79c0.02-2.33,0.29-4.59,0.45-6.67c0.37,0.32,0.52,0.86,0.89,1.19
	c-1.04-4.59-2.61-9.81-4-14.53c1.99,1.47,3.9,3.02,5.78,4.6C42.58,116.93,44.82,106.93,44.77,100.63 M108.8,48.45
	c1.6-0.27,3.67-2.12,3.11-3.11C110.9,46.3,108.88,47.05,108.8,48.45 M138.15,48.45c-0.69-1.54-2.13-2.32-3.56-3.11
	C134.98,47.17,136.25,48.13,138.15,48.45 M104.95,49.34c1.76-0.46,2.95-1.49,3.56-3.11C107.01,46.85,105.26,48.02,104.95,49.34
	 M142,49.19c-0.96-0.99-2.5-2.9-3.7-2.67C138.97,47.88,140.36,49.3,142,49.19 M101.39,49.93c1.74-0.29,3.33-1.52,3.26-3.11
	C103.58,47.87,101.79,48.21,101.39,49.93 M145.41,49.93c-0.64-1.49-2.01-2.24-3.41-2.97C142.16,48.35,143.54,49.77,145.41,49.93
	 M97.24,51.27c1.63-0.45,3.4-1.54,3.26-3.26C99.42,49,97.41,49.85,97.24,51.27 M149.71,51.12c-0.85-1.32-2.1-2.25-3.56-2.96
	C146.23,49.57,148.07,51.27,149.71,51.12 M109.1,50.38c1.02,0.57,3.12,0.83,4.6,0.44C112.61,49.84,110.51,49.54,109.1,50.38
	 M132.96,50.97c1.74-0.04,3.82,0.27,4.59-0.74C136.03,49.54,134.1,49.83,132.96,50.97 M92.94,53.19c1.58-0.31,3.48-1.84,3.11-3.11
	C95.08,51.09,92.99,51.76,92.94,53.19 M154.01,53.19c-0.65-1.38-2.2-2.65-3.56-2.82C151.15,51.8,152.07,53.01,154.01,53.19
	 M105.54,51.71c0.97,0.69,3.35,0.5,4.45,0.59C109.11,51.05,106.82,50.7,105.54,51.71 M136.67,52.3c1.56-0.23,3.43,0.44,4.45-0.89
	C139.45,50.86,137.61,51.06,136.67,52.3 M101.09,52.45c1.1,0.62,2.84,0.8,4.59,0.45C104.32,52.02,102.41,51.55,101.09,52.45
	 M141.11,53.04c1.73,0.01,3.64,0.18,4.45-0.74C144.12,51.62,141.96,51.94,141.11,53.04 M97.53,53.34c1.07,1.5,3.02,0.46,4.45,0.89
	C100.97,52.9,98.82,53.03,97.53,53.34 M144.82,54.23c1.08-0.48,3.21,0.69,4.3-0.89C147.47,52.85,145.65,53.12,144.82,54.23
	 M93.24,54.82c1.71,0.71,3.28,0.69,4.45,0.3C96.4,54.4,94.54,53.68,93.24,54.82 M149.12,55.27c1.44-0.01,3.06,0.49,4.45-0.59
	C152.14,53.78,150.17,54.27,149.12,55.27 M72.19,67.87c1.21-0.33,2.01-1.67,2.82-2.82c0.72-1.03,1.28-3.16,2.67-2.22
	c-2.1,3.24-4.35,6.32-6.67,9.34c6.56-2.19,8.44-9.84,10.23-16.3C77.79,58.91,72.35,62.18,72.19,67.87 M175.8,72.02
	c-2.52-2.76-4.55-6.02-6.67-9.19c0.26-0.13,0.43-0.36,0.74-0.45c1.88,1.58,2.26,4.66,4.89,5.48c0.02-2.37-0.89-3.54-1.93-4.89
	c-2.12-2.78-4.78-5.76-7.56-6.97C167.64,62.38,169.23,70.34,175.8,72.02 M169.28,68.16c-2.25-2.93-7.09-3.28-10.08-5.48
	c0.15-0.2,0.24-0.45,0.44-0.59c2.73,0.83,5.27,2.64,7.86,3.11c-0.37-0.57-0.65-1.23-0.74-2.07c-4.28-0.99-8.81-2.32-12.45-3.11
	C158.06,63.87,163.34,66.98,169.28,68.16 M64.48,71.28c1.36-1.8,4.05-2.28,6.37-3.11c0.57-2.24,1.07-5.35,0.59-8.15
	C69.14,63.68,66.32,67.63,64.48,71.28 M80.04,63.12c-0.24,0.75-0.48,1.5-0.74,2.22c2.85-0.9,5.08-2.43,8-3.26
	c-0.12,0.42,0.21,0.38,0.15,0.74c-3,2.14-7.85,2.43-9.93,5.48c6.03-1.68,11.14-4.27,14.82-8.3C87.99,61.05,84.43,62.04,80.04,63.12
	 M182.02,70.98c0.16,0.06,0.36,0.18,0.15,0c-2.24-3.69-4.36-7.5-6.97-10.82c-0.25,3.27,0.01,4.44,0.74,8
	C178.13,68.94,180.57,69.46,182.02,70.98 M63.3,75.13c1.52-0.86,2.14-2.61,3.7-3.41c1.26,0.91-0.64,1.72-1.63,2.82
	c-1.42,1.57-2.42,2.24-1.63,4.15c2.65-3.18,6.45-6,8-9.78C68.14,70.19,64.1,71.05,63.3,75.13 M183.21,78.69
	c0.02-0.72-0.08-1.56,0.15-2.07c-0.5-0.34-1.2-1.12-2.08-2.07c-0.96-1.05-2.83-2.29-1.33-2.82c1.38,0.95,2.09,2.55,3.56,3.41
	c-0.9-4.04-4.85-5.04-8.6-6.23C176.95,72.89,180.26,75.61,183.21,78.69 M64.93,79.13c1.48-2.46,4.28-1.77,6.82-2.37
	c0.94-0.22,2.23-1.08,3.26-1.63c3.34-1.77,6.76-3.71,9.34-5.78C76.91,70.51,68.15,73.3,64.93,79.13 M174.91,76.76
	c3.04,0.01,5.24,0.51,6.82,2.22c0.31,0.17,0.31,0.16,0.15-0.15c-3.88-5.61-11.9-8.48-19.56-9.34
	C166.28,72.14,170.54,74.51,174.91,76.76 M59.14,76.02c-0.59,1.45-2.42,4.32-2.52,5.78c-0.13,1.84,1.64,3.81,0.3,5.78
	c0.74-0.35,1.26-0.91,1.93-1.33c0.56-3.09,0.36-6.07,1.48-8.75c1.04,0.04,0.48,1.34,0.44,1.78c-0.17,2.17-0.7,3.98-0.89,6.22
	c0.77-0.26,1.47-0.61,2.07-1.04c-0.07-3.56,1.13-10.19-0.59-14.53C60.62,71.94,60.01,73.9,59.14,76.02 M184.84,84.62
	c0.7,0.24,1.18,0.7,1.93,0.89c-0.16-2.8-0.89-5.85-0.89-8c0.45,0.11,0.44-0.26,0.89-0.15c0.17,2.55,0.94,6.02,1.04,8.89
	c0.71,0.37,1.21,0.96,1.93,1.33c-1.11-2.11,0.63-3.7,0.44-5.93c-0.06-0.73-0.85-2-1.33-3.11c-1.08-2.51-2.75-6.3-3.56-8.45
	C183.99,73.88,184.68,80.33,184.84,84.62 M68.78,77.95c-1.21,0.26-2.11,1.14-3.11,1.93c-1.68,1.31-3.06,2-2.82,4.15
	c2.25-0.91,3.58-2.75,5.78-3.71c0.1,0.34,0.49,0.4,0.59,0.74c-1.44,1.23-4.04,2.08-4.45,3.85c4.18-1.45,6.88-4.39,9.93-6.97
	C72.94,77.91,70.81,77.51,68.78,77.95 M183.8,82.24c-1.32-1.12-2.99-3.44-5.04-4.15c-2.17-0.75-4.95-0.06-6.52-0.15
	c2.56,2.38,5.83,6.13,10.08,6.82c-1.2-1.66-3.35-2.39-4.74-3.85c0.38-0.01,0.21-0.58,0.59-0.59c2.08,0.93,3.73,3.09,5.78,3.56
	C183.77,83.61,183.83,83,183.8,82.24 M51.14,93.07c0.75,0.98,1.11,2.35,1.78,3.41c0.49-1.64,0.91-3.28,1.48-5.04
	c0.52-1.59,1.52-3.18,1.78-4.74c0.4-2.42-0.72-4.88-1.48-7.26c-0.09,0.01-0.18,0.02-0.15,0.15C53.36,83.52,51.81,89.4,51.14,93.07
	 M190.47,86.4c0.21,1.6,1.22,3.35,1.78,5.04c0.58,1.74,0.98,3.5,1.78,5.04c-0.08-1.38,1.35-2.12,1.48-3.41
	c0.07-0.72-0.35-2.44-0.59-3.71c-0.58-3.08-2.26-7.65-2.96-9.93C191.44,81.89,190.17,84.08,190.47,86.4 M58.26,87.88
	c-2.17,1.78-2.93,4.04-3.85,7.12c-0.42,1.39-1.14,2.91-0.89,4.45c2.7-4.81,6.72-9.46,9.34-14.23C61.38,86.1,59.61,86.77,58.26,87.88
	 M191.36,96.33c-0.77,1.11-1.14-0.08-1.78-0.89c-1.05-1.34-2.63-3.34-3.11-4.45c-2.5-1.33-5.38-3.78-8.15-3.85
	c3.4,5.15,9.08,7.2,12.45,12.45c0.93-0.09,1.38,1.18,2.08,1.78c0-1.13,0.31-1.96,0.59-2.82c-1.26-2.55-1.19-5.65-2.52-8
	c-1.52-2.69-4.52-4.01-7.12-5.19C186.35,88.99,188.77,92.74,191.36,96.33 M60.33,90.99c-1.1,1.91-2.49,3.54-3.71,5.34
	c0.22,0.58,0.08,1.22,0,1.93c2.27-1.55,3.93-4.02,6.08-5.63c0.13-0.1,0.59-0.04,0.74-0.15c2.06-1.37,3.79-3.54,4.74-5.48
	C64.97,87.72,62.89,89.6,60.33,90.99 M47.58,105.66c0.77,0.91,1.05,2.31,1.78,3.26c0.13-4.13-0.2-8.52,0-11.86
	c1.15-0.17,0.8,0.91,0.89,1.78c0.2,1.89,0.02,5.41,0.3,8c0.1-2.14,2.24-4.13,2.37-5.93c0.08-1.09-0.75-3.53-1.33-5.04
	c-0.58-1.49-1.75-3.01-2.07-3.85C47.23,95.25,48.01,101.31,47.58,105.66 M197.44,108.93c0.53-1.25,1.17-2.39,1.78-3.56
	c-0.47-3.65,0.55-10.46-2.22-13.34c-0.15,1.51-1.51,2.8-2.07,4.45c-0.45,1.31-1.14,3.37-1.04,4.6c0.17,2.09,1.89,3.6,2.52,5.48
	c-0.23-3.09-0.02-5.82,0.3-9.49c0.13,0.43,0.48-0.09,0.74,0C197.79,100.75,196.9,105.57,197.44,108.93 M56.63,100.33
	c-0.4,1.23-0.14,2.77-0.45,4.15c-0.29,1.29-0.97,2.29-1.19,3.71c2.18-1.18,2.64-4.08,4.15-5.93c0.05,0.4,0.62,0.27,0.74,0.59
	c-1.57,2.63-2.48,5.92-5.78,6.82c-0.39,1.49-0.97,2.79-1.48,4.15c0.6-0.14,0.79-0.69,1.33-0.89c1.7-4.03,6.67-6.8,7.41-11.71
	c0.28-1.85,0.16-3.78,0.44-5.63c-0.03-0.11,0-0.29-0.15-0.3C60.09,96.9,57.3,98.26,56.63,100.33 M190.47,100.33
	c0.04-0.46-0.43,0.38-0.45-0.15c-0.75-1.57-2.43-2.82-3.7-3.85c-0.37-0.3-0.88-1.2-1.33-0.74c0.57,2.29-0.06,5.56,0.89,7.71
	c0.71,1.59,2.18,3.15,3.26,4.6c1.15,1.55,2.33,3.03,3.41,4.45c0.07-0.82-0.16-1.94,0.15-2.52c-3.17-1.13-4.4-4.2-5.78-7.12
	c0.47,0.07,0.33-0.45,0.89-0.3c1.53,2.07,1.91,5.3,4.74,6.08C192.02,105.6,191.03,103.18,190.47,100.33 M50.4,111.45
	c0.57,0.67,0.4,2.07,1.19,2.52c1.54-5.02,4.99-11.09,3.85-15.71C53.47,102.36,51.45,106.41,50.4,111.45 M193.44,113.37
	c0.57,0.32,1.21,1.35,1.78,1.19c-0.26-1.37-0.11-5.06-0.15-7.56c-0.84-1.83-1.69-3.65-3.11-4.89
	C193,105.58,194.07,109.3,193.44,113.37 M45.06,117.82c0.56,3.54,2.21,7.25,3.85,9.19c-0.8-3.13-1.67-6.78-2.37-9.49
	c-0.17-0.64-1.21-2.33,0.15-2.52c1.26,2.31,1.71,7.89,3.41,11.41c-0.13-3.7,1.12-6.76,0.59-10.97c-0.43-3.43-4.11-9.4-5.19-11.26
	C45.79,108.1,44.33,113.21,45.06,117.82 M196.25,114.26c-1.13,3.86,0.57,8.48,0.59,12.15c1.16-3.83,1.98-8.24,3.11-11.56
	c0.31,0.09,0.42,0.37,0.89,0.3c-1.1,3.8-1.88,7.9-3.11,11.56c0.4,0.17,1.14-0.7,1.33-1.04c1.19-2.01,2.41-6.16,2.67-9.04
	c0.41-4.7-0.68-9.25-0.59-12.3c-0.01-0.09-0.02-0.18-0.15-0.15C199.77,107.05,197.3,110.68,196.25,114.26 M196.1,111.45
	c0.68-0.41,0.7-1.47,1.18-2.08c-0.41,0.17-0.77,0.17-1.18,0C196.29,110.31,196.2,110.83,196.1,111.45 M51.14,130.56
	c0.59-2.97,2.22-4.89,3.56-7.11c1.17-3.33,3.54-7.28,2.52-12.45c-0.62,1.13-1.58,1.76-2.67,2.67c-0.71,0.59-2.56,1.74-2.82,2.52
	c-0.3,0.92-0.09,2.58-0.15,3.71c-0.12,2.21-0.22,4.13-0.44,6.23c-0.1,0.94-0.04,2.15-0.74,2.96c0-0.08-0.12-0.17-0.15,0
	C50.67,129.46,50.47,130.45,51.14,130.56 M193.44,118.71c0.75,2.51,1.34,5.18,2.22,7.56c-0.17-3.29-0.72-6.41-0.74-10.38
	c-1.96-1.49-3.74-3.17-5.63-4.74c0.06,4.53,0.27,8.52,2.44,11.97c-0.01,0.23,0,0,0.08,0.33c1.46,1.5,2.45,3.48,3.41,5.48
	c-0.87-3.43-1.83-6.76-2.82-10.08C192.68,119.14,192.99,118.7,193.44,118.71 M45.36,135.6c2.13,2.86,3.84,6.14,6.52,8.45
	c0.07,0.26,0.16-0.06,0.3-0.15c0.04-0.61-0.31-0.08-0.59-0.15c-1.91-3.77-2.9-8.46-5.04-12.01c0.31-0.09,0.48-0.31,0.74-0.45
	c2.34,3.09,3,7.87,5.04,11.26c0.31-9.39-3.92-15.64-9.34-19.86c-0.28-0.22-0.59-0.86-1.04-0.59
	C43.23,126.37,44.74,131.18,45.36,135.6 M195.36,143.61c2.37-2.33,4.03-5.36,6.08-8c-0.17-0.5-0.29-0.23-0.15-0.89
	c1.12-4.51,2.39-8.76,3.41-12.9c-6.09,4.19-10.57,11.32-10.23,20.6c2.05-3.39,2.66-8.2,5.19-11.12c0.04,0.31,0.4,0.3,0.59,0.45
	C198.29,135.27,196.78,140.04,195.36,143.61 M51.59,132.49c1.77,4.07,2.12,8.5,1.33,12.45c0.23,0.53,0.81,1.1,1.33,1.63
	c0.46,0.46,1.16,1.32,1.48,1.04c2.27-8.24,2.75-16.46,0.89-25.05C54.64,125.56,52.41,128.33,51.59,132.49 M191.06,147.61
	c0.85-0.38,1.96-1.79,2.82-2.67c-0.8-3.43-0.4-6.35,0.15-8.89c0.27-1.27,1.02-2.65,1.04-3.71c0.03-1.58-1.04-3.67-1.93-5.19
	c-0.96-1.65-2.25-3.34-3.11-4.45C188.6,129.46,188.68,139.79,191.06,147.61 M195.51,129.82c-0.03,0.43,0.04,0.75,0.3,0.89
	c0.05-0.44,0.24-0.75,0.45-1.04C195.9,129.61,195.93,129.95,195.51,129.82 M49.96,152.8c2,1.62,5.38,1.98,7.11,3.71
	c-0.2-0.99-0.21-2.16-0.59-2.97c-0.18,0.22-0.13,0.66-0.59,0.59c-4.21-2.66-7.92-6.61-10.08-10.82c0.2-0.15,0.55-0.14,0.59-0.44
	c2.25,2.84,4.33,6.1,7.11,8.3c0.91,0.72,1.98,1.57,3.11,1.78c-0.43-1-0.29-2.23-0.45-3.11c-4.54-4.41-8.92-8.96-12.3-14.53
	C43.09,143.68,45.58,149.26,49.96,152.8 M190.47,149.98c0.22,0.93-0.07,1.92-0.3,3.11c4.67-2.15,7.15-6.48,10.23-10.23
	c0.13,0.26,0.33,0.46,0.59,0.59c-2.72,4.29-5.79,8.24-10.37,10.67c-0.17-0.22-0.18-0.61-0.45-0.74c-0.05,1.09-0.29,1.98-0.44,2.97
	c1.78-1.59,5.08-2.02,6.82-3.41c4.51-3.59,7.44-9.91,6.22-17.64C199.51,141.03,194.99,145.51,190.47,149.98 M60.03,155.61
	c-0.67-2.51-0.87-4.73-1.48-7.41c0.47,0.07,0.52-0.27,1.04-0.15c0.45,2.97,0.98,5.24,1.48,8c0.13,0.48-0.49,0.2-0.45,0.59
	c1.19,0.89,1.99,2.16,2.96,3.26c-0.86-5.18-2.05-11.51-4.59-15.86c-1.77,2.99-1.82,6.61-1.33,9.93c0.21,1.42,0.38,2.83,1.04,3.71
	c-0.11-0.9-0.44-2.71-0.3-3.41C59.01,154.57,59.55,155.7,60.03,155.61 M183.21,159.91c0.9-1.22,1.95-2.3,2.96-3.41
	c-0.11-0.24-0.73,0.03-0.59-0.45c0.72-2.4,1.06-5.94,1.63-8c0.43-0.03,0.75,0.04,0.89,0.3c-0.44,2.65-0.9,4.91-1.33,7.26
	c0.46,0.2,1.18-1.39,1.63-1.19c0.07,0.94-0.55,2.14-0.15,3.26c1.4-4.69,2.04-9.96-0.74-13.49
	C185.47,148.74,183.79,154.41,183.21,159.91 M53.07,159.76c2.41,1.1,4.18,3.63,6.37,4.45c-0.08-0.08-0.3-1.22-0.15-1.48
	c-1.54-0.78-2.72-1.92-4-2.97c0.34-0.1,0.4-0.49,0.74-0.59c1.14,0.44,2,1.95,3.11,1.93c-0.3-0.72-0.13-1.33-0.3-1.93
	c-2.7-2.05-5.83-4.45-9.64-4.89C50.68,155.93,52.04,157.68,53.07,159.76 M187.8,159.32c0.04,1.06-0.13,1.07-0.15,1.93
	c0.98-0.2,1.91-1.74,3.26-2.07c0.82,0.84-0.22,1.37-1.33,2.22c-1.26,0.96-2.62,1.13-2.07,2.97c2.05-1.5,3.85-3.27,6.08-4.6
	c1.13-2.07,2.65-3.78,4-5.63C193.41,154.95,190.5,157.03,187.8,159.32 M62.41,168.81c0.77,0.22,1.91,0.85,2.52,0.74
	c-2.02-2.08-3.68-4.52-4-8.3c0.36-0.13,0.39-0.09,1.04-0.15c0.25,3.9,2.22,6.08,4.15,8.3c-0.1,0.34-0.49,0.4-0.59,0.74
	c0.55,0.04,1.28,1.32,1.48,0.74c-0.94-6.13-3.62-10.51-7.41-13.79C60.11,161.15,60.04,166.09,62.41,168.81 M179.95,171.03
	c0.4-0.29,0.68-0.71,1.19-0.89c0.03-0.53-0.7-0.29-0.59-0.89c2.43-1.82,3.62-4.88,4.6-8.15c0.26,0.08,0.62,0.08,0.74,0.3
	c-0.54,3.61-2.1,6.2-4.15,8.3c0.96-0.28,1.69-0.78,2.82-0.89c2.08-3.31,2.24-7.12,2.37-11.56
	C183.34,160.52,180.29,165.45,179.95,171.03 M187.8,165.4c-0.28,0.28-0.37,0.02-0.74,0c-0.07,1.37-0.87,2-1.19,3.11
	c1.7-0.59,3.38-0.22,4.6-1.04c0.63-0.42,0.91-1.35,1.48-2.07c1.67-2.11,3.73-3.9,5.34-5.78c0.03-0.19,0.23-0.3-0.15-0.3
	C193.17,160.49,190.88,163.34,187.8,165.4 M53.22,163.62c1.14,1.32,2.26,3.64,3.7,4.3c1.17,0.53,2.83,0.19,4.15,0.59
	c-0.6-0.83-1.15-1.72-1.33-2.97c-3.63-1.17-5.6-5.26-10.08-6.08C50.44,160.8,51.81,162,53.22,163.62 M68.93,171.47
	c0.65,0.49,1.19,1.87,1.78,1.93c-0.24-0.88-0.39-2.54-0.59-4.15c0.65-0.05,0.68-0.02,1.04-0.15c0.27,2.23,0.4,3.41,0.74,5.19
	c-0.81,0.07-0.44,0.57,0,0.89c1.92-6.55-2.45-10.89-6.08-14.08C66.83,164.58,68.31,167.6,68.93,171.47 M176.09,173.25
	c0.36,0.42,1.01-1.33,1.63-1.63c0.63-3.82,2.34-7.35,3.11-10.52c-2.22,2.61-6,5.24-6.37,9.49c-0.16,1.85,0.36,3,0.45,4.6
	c0.3-0.37,0.66-0.68,0-0.89c0.54-1.78,0.17-3.65,1.04-5.19c0.29,0.25,0.19-0.01,0.59,0C176.82,170.56,176.18,172.39,176.09,173.25
	 M64.48,176.51c1.54,0.09,3.05,1,4,1.19c-0.82-1.69-1.97-2.51-3.71-4c-1.2-1.03-3.94-2.43-2.22-3.11c2.44,2.1,5.32,4.56,8.6,5.34
	c-3.57-3.34-7.73-6.89-14.08-6.97C59.96,171.05,62.79,173.22,64.48,176.51 M175.8,175.92c2.16-0.67,4.67-2.24,6.37-3.71
	c0.92-0.79,2.32-2.34,2.67-0.89c-1.86,2.24-5.43,3.56-6.22,6.37c1.06-0.57,2.18-1.08,3.71-1.19c1.26-2.72,3.65-4.82,5.78-6.52
	c0.35-0.28,1.33-0.43,1.04-1.04C183.46,169.2,179.12,172.44,175.8,175.92 M166.9,176.96c0.48,1.4-0.22,4.63-0.3,5.93
	c2.87-1.75,3.05-6.11,5.04-9.04c0.22,0.17,0.61,0.18,0.74,0.45c-0.54,1.83-1.77,3.76-2.07,5.34c0.77-0.91,1.72-1.64,2.82-2.22
	c0.2-2.15,0.67-5.06-0.59-6.97C170.5,172.46,168.54,174.55,166.9,176.96 M76.49,179.33c-0.66-1.71-1.91-3.61-2.07-5.34
	c0.26,0.01,0.46-0.03,0.59-0.15c1.27,2.19,2.31,4.61,3.11,7.26c0.65,0.36,1.63,1.89,2.07,1.48c-0.37-1.13-0.71-4.12-0.44-5.63
	c-1.58-2.43-3.34-4.67-5.63-6.37c-1.28,2.21-0.6,4.2-0.59,6.82C74.67,177.79,75.68,179.1,76.49,179.33 M82.42,185.85
	c0.58,0.07,1.53,0.54,1.93,0.3c-0.87-1.8-2.02-4.1-2.37-5.93c0.37,0.02,0.46-0.23,0.74-0.3c0.86,2.25,1.94,4.29,2.67,6.67
	c1.25,0.32,2.35,0.57,3.26,0.89c-2.66-4.06-4.66-8.78-7.86-12.3c-0.09,0.01-0.18,0.02-0.15,0.15
	C80.5,178.16,80.8,183.18,82.42,185.85 M158.16,187.48c1.13-0.15,1.9-0.67,3.11-0.74c1.03-2.18,1.65-4.77,2.96-6.67
	c1.09,0.6-0.04,2.12-0.44,3.11c-0.5,1.22-1.1,2.41-1.19,3.26c0.33-0.46,1.28-0.31,1.78-0.59c1.28-3,2.07-6.4,1.48-10.67
	C162.81,178.8,160.77,183.42,158.16,187.48 M166.01,184.37c-0.08,0.51-0.4,0.79-0.45,1.33c1.97-0.41,4.12-2.69,5.78-4
	c0.95-0.74,2.21-1.88,2.52-0.59c-1.81,1.55-3.77,2.95-5.63,4.45c1.26,0.04,2.01,0.05,3.26,0.3c2.93-2.36,5.34-6.02,6.37-9.78
	C172.85,177.77,170.14,181.78,166.01,184.37 M70.85,180.96c0.93,1.79,3.11,4.37,4.45,4.74c0.9,0.25,2.17-0.5,2.96-0.15
	c-1.65-1.66-3.69-2.93-5.48-4.45c0.43-0.07,0.35-0.64,0.74-0.74c1.16,0.98,2.44,1.83,3.7,2.82c1.16,0.91,2.24,2.35,3.85,2.37
	c0.1-0.59-0.39-0.6-0.3-1.19c-4.14-2.43-6.93-7-12.01-8C69.68,177.49,70.01,179.34,70.85,180.96 M70.56,182.15
	c-0.63-0.76-0.98-1.79-1.34-2.82c-2.45-1.13-4.1-2.16-8-1.78c2.34,2.89,6.56,5.98,10.97,6.82c-1.8-0.96-3.63-1.91-5.04-3.26
	c0.26-0.13,0.25-0.55,0.59-0.59C68.63,181.02,69.77,182.04,70.56,182.15 M174.76,184.52c3.97-1.11,7.37-3.56,9.93-5.93
	c0.28-0.26,1.05-0.58,0.74-1.04c-5.17-0.42-7.77,1.1-9.19,4.6c1.17-0.41,1.78-1.39,3.11-1.63c-0.04,0.43,0.34,0.46,0.3,0.89
	C178.01,182.34,175.85,183.53,174.76,184.52 M103.02,194c-2.96-1.98-5.93-3.95-8.89-5.93c0.27-0.22,0.37-0.62,0.74-0.74
	c2.98,2.06,6.06,4.01,9.04,6.08c0.12,0.35-0.73,0.69,0,0.74c0.34-0.35,0.05-1.33,0.15-1.93c-3.38-4.08-8.57-6.35-14.82-7.56
	C91.56,189.89,96.41,194.03,103.02,194 M145.11,189.85c-1.09,0.82-2.58,1.8-2.37,3.41c3.32-1.77,6.02-4.16,9.34-5.93
	c0.13,0.26,0.36,0.43,0.45,0.74c-2.89,2.1-6.06,3.92-8.89,6.08c6.13-0.13,10.16-3.41,12.89-7.56c0.39-0.59,1.01-1.3,0.89-1.93
	C152.9,185.46,148.57,187.25,145.11,189.85 M85.23,187.78c-1.9-0.48-3.77-1.26-5.48-1.33c-2.74-0.12-5.52,0.37-7.56,0.89
	c3.97,2.29,8.81,5.5,14.53,5.34c2.05-0.06,4.07-1.03,6.23-0.89C91.83,188.84,88.82,188.69,85.23,187.78 M167.94,186.45
	c-3.97-0.08-7.78,1.95-12.01,2.67c-0.36,0.94-2.21,1.92-1.93,2.52c7.41,2.2,15.69-0.36,20.6-4.59
	C172.39,187.01,170.2,186.49,167.94,186.45 M105.98,201.27c2.44-1.07,5.78-1.48,9.49-1.48c1.01,0,2.86,0.54,2.96-0.89
	c-2.77,0.27-5.72-0.14-7.86-1.04c0.18-1.09,1.59-0.43,2.37-0.3c0.89,0.15,1.89,0.4,2.67,0.45c1.1,0.07,2.58,0.35,2.82-0.74
	c-3.33-1.39-8.12-0.84-9.93-3.56c0.46-0.76,1.5,0.01,2.07,0.3c2.2,1.1,5.26,1.57,8,2.08c-0.11-0.56,0.18-0.71,0.15-1.19
	c-3.58-3.33-8.89-3.12-13.34-5.49C104.45,193.4,105.87,198.32,105.98,201.27 M130.29,193.41c-0.9,0.51-2.81,1.09-2.07,2.52
	c2.21-0.61,4.54-0.47,6.67-1.19c1.11-0.37,2.44-2.03,3.41-0.89c-1.54,1.64-4.49,2.23-7.26,2.67c-0.9,0.14-2.6-0.07-2.67,1.19
	c2.2,0.78,5.2-0.49,7.71-0.44c-0.05,0.34,0.02,0.57,0.15,0.74c-2.16,0.61-4.74,0.98-6.37,1.04c-0.46,0.02-1.72-0.57-1.48,0.59
	c4.58,0.12,9.14,0.25,12.45,1.63c0.08-3.64,1.67-7.98,0.45-11.71C137.96,191.16,133.35,191.67,130.29,193.41 M93.38,192.67
	c-3.47,0.62-8.48,0.93-11.71,2.67c5.67,2.24,14.78,3.04,20.6,0.3c-2.36,0.12-5.2,0.16-8.15,0.3c-1.04,0.05-3.76,1.01-3.85-0.89
	c2.82,0.01,7.37-0.06,9.78-0.45C97.38,194.89,95.34,192.32,93.38,192.67 M152.53,192.52c-1.41,1.06-3.43,1.51-5.19,2.22
	c3.51,0.01,5.71,0.28,9.19,0.3c-0.23,0.25,0.02,0.82-0.15,1.04c-4.31,0.02-8.11-0.55-12.01-0.3c5.99,2.45,15.34,2.06,20.6-0.59
	C160.89,193.68,157.16,193.01,152.53,192.52 M143.04,194.3c0.25-0.25-0.09-0.67-0.3-0.89C142.75,193.81,142.66,194.28,143.04,194.3
	 M126.44,194.45c-1.1-0.59-2.15,0.65-3.26,0.59c-1.08-0.06-1.31-0.92-2.37-0.74c-2.16,0.36-1.22,4.37-1.33,6.23
	c1.58,0.27,5.39,0.21,7.71,0C127.23,198.55,127.98,195.27,126.44,194.45 M93.68,198.45c-0.23,0.96-2.06,1.1-1.93,1.93
	c2.08-0.47,4.91-0.26,7.86-0.59c2.17-0.24,6.24-1.63,4.45-3.85C101.2,197.55,97.65,198.3,93.68,198.45 M155.04,200.08
	c-0.77-0.48-1.81-1.09-2.07-1.63c-3.75,0.01-7.24-1.13-10.52-2.37C140.99,200.86,153.04,199.69,155.04,200.08 M108.5,201.56
	c0.84,1.92,1.94,3.59,3.11,5.19c1.25-1.47,3.1-3.1,4.45-4.45c0.45-0.45,1.18-1.01,1.04-1.48h-2.67c-0.77,0.76-1.72,3.59-2.67,1.93
	c0.32-0.77,1-1.18,1.33-1.93C111.25,200.79,110.12,201.12,108.5,201.56 M135.33,206.75c0.91-1.81,2.12-3.32,2.97-5.19
	c-1.35-0.13-3.06-1.09-4.74-0.59c0.58,0.56,1.12,1.15,1.48,1.93c-0.31,0.09-0.48,0.31-0.74,0.45c-0.84-0.69-1.38-1.68-2.07-2.52
	c-0.89,0.1-2.17-0.19-2.82,0.15C131.47,202.81,133.27,204.91,135.33,206.75 M166.9,90.69c0.04,0.46,0.15,0.84,0.3,1.19
	c0.35-0.25,1.94-0.07,2.37-0.15c0.27,0.18,0.12,0.77,0.3,1.04c0.69-0.39,2.09,0.09,2.22-0.15c0.53,0.44,0.25,2.37,0.3,2.82
	c2.77,1.35,5.68,4.88,0.3,5.48c0.36,6.45,0.58,13.91,0.89,19.71c-5.54,1.42-11.27,2.89-16.01,4c-1.14,1.21-4.11,2.36-6.22,1.19
	c-5.68,0.75-11.45,1.43-16.9,2.07c-3.12-9.23-6.2-18.5-9.34-27.72c0.74-0.3,1.55-0.52,2.37-0.74c0.17-0.71-0.45-1.11-0.15-1.48
	c0.84-0.19,1.73-0.35,2.07-1.04c5.97-0.74,13.62-3.14,19.42-0.59C152.36,92.07,160.98,91.15,166.9,90.69 M149.71,97.07
	c0.62,1.81,0.76,4.19,1.33,6.37c2.34-0.81,3.72-5.76,6.67-2.82c2.36-1.42,3.61-6.1,7.56-3.71c0.34-0.45,1.15-0.44,1.33-1.04
	c-0.14-1.4-0.36-2.54-0.45-4.15C159.97,92.39,153.27,92.94,149.71,97.07 M167.2,92.92c0.25,0.99,0.15,1.62,0.3,2.52
	c0.51-0.13,0.92-0.37,1.48-0.44c0-1.09-0.13-1.34-0.15-2.22C168.32,93.01,167.76,92.72,167.2,92.92 M170.02,94.99
	c0.5,0.04,1.2-0.12,1.48,0.15c-0.23-0.73,0.16-0.98-0.3-1.48c-0.31,0.08-0.89,0.2-1.33,0C170.04,94.31,169.83,94.42,170.02,94.99
	 M164.24,99.73c2.41-1.29,5.49-1.92,8-3.11c-2.37-2.38-4.65,0.9-6.67,1.19c-0.91,0.13-1.98-0.78-2.97-0.59
	c-1.91,0.36-3,5.02-5.34,4.45c-0.66-0.16-0.65-1.06-1.33-1.04c-1.13,0.3-1.73,1.13-2.08,2.22c-2.49,1.31-3.85,3.76-6.52,4.89
	c-0.84,2.55-3.96,4.3-3.41,7.26c1.16-0.77,0.31-1.77,1.04-2.97c0.47-0.03,1.09,0.1,0.74,0.45c0.52,0.02,0.47-0.52,0.74-0.74
	c-0.21-0.33-0.36,0.19-0.45-0.15c0.28-0.51,0.2-1.24,0.59-1.93c0.38,0.02,0.71,0.09,0.89,0.3c-0.04,0.09-0.37,0.57,0,0.59
	c0.61-0.77,0.62-2.15,1.18-2.96c0.67,0.4,1.02-0.08,1.33-0.44c1.8,0.75,2.24-2.27,3.26-3.26c0.12,0.33,0.7,0.19,0.74,0.59
	c-0.15,0.12-0.57,0.7-0.3,0.74c1.18-0.5,1.14-2.22,2.07-2.97c0.22,0.17,0.61,0.18,0.74,0.45c-0.14,0.3-0.3,0.59-0.45,0.89
	c0.56-0.43,1.57-0.49,2.52-1.33c0.79-0.7,1.05-2.04,1.63-2.07c0.34-0.02,1.07,0.86,0.3,1.19c0.76-0.28,1.29-0.78,2.22-0.89
	c0.3-0.74,0.41-1.67,0.89-2.22c0.23,0.22,0.69,0.2,0.89,0.45C164.36,98.89,164.03,99.66,164.24,99.73 M130.59,97.81
	c2.33,8.49,4.73,16.91,7.26,25.2c5.12-1.2,10.23-2.36,15.42-1.04c-0.55-3.29-1.11-6.34-1.78-9.78c-1.03,0.32-1.49,0.79-1.04,1.93
	c-1.73,0.35-2.17,1.92-1.48,3.26c-2.08-0.55-3.24-0.13-5.34-0.15c-1.19,1.13-1.82,2.82-3.11,3.85c-0.04-0.3-0.4-0.3-0.59-0.44
	c0.71-1.46,1.74-2.61,2.67-3.85c-0.35-4.75,2.37-6.42,3.71-9.49c1.52-0.75,2.73-1.81,3.85-2.97c-0.59-1.89-0.67-4.64-1.48-6.97
	C142.83,94.84,136.08,96.94,130.59,97.81 M172.68,97.81c-2.51,0.7-4.96,1.46-7.11,2.52c0.66-0.09,1.5-0.49,1.93,0v0.74
	c-2.19,0.61-4.43,0.01-5.93,1.04c1.13,0.11,1.37-0.38,2.07,0.15c-0.15,0.36-0.05,0.32-0.15,0.89c-1.36,0.09-4.57-0.33-5.78,0.89
	c0.59-0.1,1.06-0.32,1.78-0.3c-0.09,0.48,0.1,0.69,0.15,1.04c-2.47,0.53-5.44,0.52-6.22,2.08c0.81-0.29,1.58-0.38,2.52-0.3
	c-0.14,0.34-0.01,0.48-0.15,1.04c-1.35,0.14-4.02-0.02-4.74,0.89c0.48,0.1,1.4,0.15,2.67,0.15c-0.09,0.31,0.18,0.97-0.15,1.04
	c-1.16-0.08-2.6,0.13-3.26-0.44c-0.56,0.33-0.91,0.86-1.33,1.33c0.73-0.13,0.91-0.1,2.08-0.15v0.74c1.3-0.43,2.85-0.61,4-1.19
	c0.08-1.06,1.06-2.23,2.67-2.22c2.39-1.73,4.63-4.8,8.15-4.45c1.67-2.78,6.05-2.85,9.04-4.3c-0.41-1.02-1.87-1.78-2.52-2.07
	C172.6,97.1,172.67,97.43,172.68,97.81 M128.66,98.7c2.14,8.43,4.9,17.53,7.56,25.94c3.98-0.67,7.69-1.27,11.56-1.33
	c1.34-0.02,3.09,0.43,3.85-0.59c-5.11-1.02-9.82,0.8-14.67,1.33c-2.57-8.75-4.65-17.16-7.56-25.64
	C129.03,98.38,128.94,98.63,128.66,98.7 M127.92,100.48c-0.26-0.2-1.16,0.22-1.48,0.44c3.05,8.56,5.7,17.52,8.89,25.94
	c4.66-0.79,9.39-1.18,13.64-1.78c0.46-0.07,1.54,0.14,1.63-0.59c-5.22-0.62-10.62,0.83-15.41,1.18
	C133.11,117.57,130.35,109.02,127.92,100.48 M170.61,101.37c0.27,5.72,1.07,11.8,1.33,17.49c-4.88,1.54-10.98,1.87-14.67,4.6
	c4.99-0.7,10.08-2.57,15.27-3.56c-0.37-6.95-0.28-13.07-1.04-18.68C171.05,101.11,171.06,101.47,170.61,101.37 M169.42,101.81
	c-0.37,0.12-0.58,0.41-1.04,0.45c0.5,5.06,1.27,10.66,1.78,15.56c-5.59,0.87-10.5,1.63-14.38,4.3c1.17,0.37,2.28-0.49,3.41-0.89
	c3.82-1.34,7.78-2.27,11.71-3.11C170.49,112.67,170.25,107.26,169.42,101.81 M163.35,104.63c-2.66,0.93-4.04,4.46-6.97,4.6
	c-0.29,0.35-0.29,0.99-0.45,1.48c-1.06,0.43-2.08,0.88-3.41,1.04c0.57,3.34,1.18,6.62,1.78,9.93c3.81-2.74,9.71-3.93,14.82-4.89
	c-0.69-4.44-0.94-9.35-1.78-13.49C166.35,104.73,164.75,104.13,163.35,104.63 M147.64,112.04c0.66,0.08,1.71-0.23,1.93,0.3
	c0.19-0.41,0.59-0.59,0.89-0.89c-0.85-0.05-1.61,0.54-2.22-0.3C148.04,111.46,147.82,111.73,147.64,112.04 M146,114.41
	c1.03-0.18,2.89,0.05,3.26-1.19C147.82,112.49,145.44,113.62,146,114.41 M144.37,116.19c1.37-0.08,1.53-0.12,3.11-0.15v-0.74
	C146.45,115.67,144.79,114.95,144.37,116.19 M151.64,124.64c1.26,1.29,4.34,0.82,4.74-0.89
	C155.43,122.36,151.75,122.92,151.64,124.64 M108.21,84.47c-0.24,0.71-1.36,0.66-2.07,0.89c-2.16,0.7-4.32,2.12-6.08,3.26
	c1.07,0.42,2.07-0.97,3.26-1.19c2.77-0.51,4.88,2.04,5.93,3.7c-1.6-0.14-2.78-0.85-4.3-0.44c-1.71,0.46-2.03,3.09-3.85,3.26
	c0.26,0.7,0.1,2.77,0.15,4.15c-1.52-0.22-2.25,0.68-2.96,1.93c3.43,3.73,7.74,6.59,11.27,10.23c-0.09,3.68,0.18,8.46-0.15,11.41
	c-3.81-0.25-11.19-0.23-14.53,0c-0.5,2.63-0.71,6.93-1.33,9.93c4.15,1.66-2.18,5.61-1.93,1.63c0.05-0.84,0.5-1.01,1.19-1.48
	c-0.62-3.54-1.34-6.49-1.93-9.93c-1.99,0.14-4.98-1.18-6.52-2.82c-0.07-0.96,0.13-1.65,0.3-2.37c-1.27-0.69-0.63-2.45-0.89-4
	c-0.1-0.61-0.68-1.17-0.74-1.78c-0.07-0.63,0.41-1.26,0.45-2.07c0.05-1-0.48-1.72-0.3-2.37c0.42-1.5,2.43-2.03,4.15-2.37
	c-0.24-1.24-0.41-2.55-0.74-3.71c-1.29-0.14-1.62-1.24-2.22-2.07c-0.68-0.01-1.45,0.07-1.93-0.15c-0.08-1.57,0.13-3.55,0-4.3
	c0.55-0.01,0.42-0.17,0.89,0c-0.84-2.94-0.47-5.93,1.33-7.71c2.41-1.56,5.91-0.28,9.19-0.59c0.99-0.09,1.59-0.67,2.52-0.44
	c-0.18,1.06-1.21,1.26-1.63,2.07C97.92,84.79,104.88,83.21,108.21,84.47 M91.01,89.65c-0.84,0.15-1.5,0.39-1.93-0.59
	c0.58-0.94,2.16-0.59,3.26-1.04c0.82-0.33,2.35-1.58,2.08-1.93c-2.98,0.51-5.94-0.91-9.19,0.44c-1.73,1.4-2.31,4.85-1.19,7.12
	c5.11,0.05,10.81,0.43,15.27,0.15c3.35-0.22,3.89-5.07,8.15-3.56c-0.64-0.9-1.27-1.78-2.22-2.07c-2.14-0.67-4.05,2.13-5.93,0.59
	c1.37-2.09,4.2-2.71,6.37-4C99.04,83.72,95.62,88.82,91.01,89.65 M83.6,94.7c-0.14,0.52-0.15,1.36-0.15,2.37
	c5.08,0.35,12.24,0.04,16.6,0.15c-0.12-0.93,0.2-1.8,0-2.37C95.75,94.73,88.63,95.05,83.6,94.7 M87.16,99.74
	c0.31,1.32,0.51,2.75,0.89,4c1.5-0.38,2.77-0.98,4.45-1.19c1.33-1.54,3.04-2.69,5.48-3.11c-0.08-0.5,1.12-1.04,0.45-1.19
	c-2.19-0.03-11.15-0.01-13.34,0C85.55,99.16,86.35,99.51,87.16,99.74 M108.5,110.7c-2.25-2.08-5.62-5.09-8.3-7.41
	c-0.82-0.71-2.23-2.24-2.96-2.37c-2.82-0.52-4.02,3.3-6.23,4.3c0.84,1.47-0.97,2.35-2.07,2.82c-0.57,0.12-0.18-0.71-0.74-0.59
	c-0.37,0.59-0.26,0.88,0,1.63c3.01,0.29,4.96-1.48,7.41-2.52c0.46,6.2,5.84,9.95,12.9,10.53V110.7z M86.86,105.22
	c0.4,0.39,1.09,0.49,1.63,0.74c0.52-0.64,2.44-1.39,2.08-1.93C89.4,104.49,87.92,104.64,86.86,105.22 M87.75,106.41
	c-0.05-0.32-1.38-0.13-1.48-1.04c-1.27,0.18-2.52,1.11-1.93,2.67c0.9,0.11,1.78-0.43,2.52,0C86.48,107.03,87.83,106.87,87.75,106.41
	 M93.24,109.07c1.19,0.34,1.76,1.31,2.08,2.52c-0.13,0.46-0.4,0.78-0.59,1.19c0.58,0.12,0.97,0.41,1.33,0.74
	c0.34,1.29-0.04,2.35-1.19,3.11c0.46,0.37,0.9,0.77,1.33,1.19c-0.9,3.06-4.05,1.17-6.37,0.74c-0.7-0.13-1.44,0.63-1.63-0.44
	c1.13-1.06,2.19-0.79,3.56-0.45c-0.11,0.28-0.44,0.1-0.15,0.45c1.41,0.33,2.07,0.59,3.26,0.15c-1.67-2.98-6.2-2.8-9.19-1.63
	c-0.11,0.73-0.42,1.26-0.3,2.22c1.75,0.58,3.03,2.12,5.48,1.93c4.62-0.36,11.64-0.46,17.49-0.15c0.13-0.68-0.03-1.39,0-2.52
	c-7.15-0.76-11.93-3.88-13.79-9.93C94.26,108.61,93.47,108.57,93.24,109.07 M86.86,109.07c-0.88-0.32-1.68-0.02-2.37,0
	c-0.53,0.62-0.54,1.89-0.15,2.67c2.08-0.1,4.52-0.64,6.67-0.3c1.16,0.18,2.37,1.2,3.26,0.3C93.42,107.63,88.15,111.96,86.86,109.07
	 M84.64,112.78c-0.22,1.26-0.14,2.2,0.74,2.96c1.77-0.12,2.53-1.19,4.59-1.18c2.48,0,5.17,2.73,5.19-0.45
	C92.05,112.26,88.64,112.13,84.64,112.78 M91.46,121.82c0.57,1.93,1.01,5.43,1.78,8c0.17-2.38,0.76-5.08,0.89-8.3
	C93.49,121.76,92.08,121.25,91.46,121.82 M120.95,63.42c18.58-1.06,34.59,6.77,44.91,16.45c10.66,10,18.37,24.39,19.57,42.39
	c0.59,8.85-1.32,17.98-4.3,25.35c-3.03,7.51-7.27,13.95-12.15,19.27c-9.87,10.75-24.38,18.89-41.8,19.71
	c-18.62,0.88-34.52-6.2-45.36-16.31c-10.8-10.07-18.62-24.53-19.56-42.09c-1.05-19.52,6.4-34.74,16.3-45.36
	c7.15-7.66,17.27-14.64,29.5-17.64C112.11,64.21,116.59,63.67,120.95,63.42 M126.44,96.33c-0.88,1.3-2.12,2.75-2.52,4
	c-0.71,2.24-0.49,6.17-0.3,9.34c0.2,3.33,0.47,6.47,1.33,9.04c1.65,4.9,5.61,7.37,9.49,9.78c1.52,0.95,3.06,1.87,4.59,2.82
	c5.63,3.45,10.27,8.07,18.82,7.12c5.09-0.56,8.87-3.53,12.01-6.67c2.32-2.32,5.02-5.35,6.37-8.3c1.86-4.06,3.2-10.2,3.56-15.56
	c0.11-1.66,0.35-3.38,0.15-4.74c-0.26-1.73-1.76-4.34-2.82-6.37c-7.25-13.89-19.75-24.72-35.57-29.5
	c-19.73-5.96-42.52-0.97-55.43,10.52c-0.09,0.01-0.18,0.02-0.15,0.15c2.56-0.88,6.97-1.55,10.67-2.22c5.51-1,11.56-1.07,17.34,0.3
	c7.57,1.79,14.72,5.46,20.31,8.74C131.86,88.77,129.01,92.49,126.44,96.33 M103.46,75.87c-3.49,0.02-7.56,1.04-11.41,1.78
	c-5.98,1.15-10.64,2.92-12.89,6.97c10.45-8.1,30.17-5.84,37.65,3.41c4.22,5.21,4.68,12.72,4.6,21.49
	c-0.06,5.64-1.07,11.33-3.56,14.97c-2.67,3.91-8.06,7.38-12.45,9.78c-1.58,0.87-3.59,2.03-5.19,2.37c-1.52,0.32-3.35,0.07-4.89,0.15
	c-5.23,0.25-8.76,0.63-13.19,0.74c0.72,9.64,2.71,19.82,6.97,28.16c4.26,8.35,11.63,13.83,20.6,16.75
	c-7.77-4.17-14.01-11.47-16.16-20.9c-1.54-6.78-0.6-13.82,3.85-18.97c1.38-1.6,3.38-3.02,5.19-4.6c4.73-4.13,12.1-9.8,18.97-10.38
	c7.52-0.63,14.71,4.17,19.71,7.71c1.72,1.22,4.03,2.53,5.19,4.15c0.76,1.06,1.28,2.64,1.93,3.85c2.09,3.95,3.87,7.58,5.93,11.41
	c9.96-6.3,20.44-14.76,24.61-27.27c0.47-1.41,0.7-3.2,1.18-4.89c1.48-5.17,2.27-10.4,0.74-15.56c-0.7,7.07-1.89,14.93-6.22,20.75
	c-4.03,5.41-9.35,11.02-16.9,11.71c-8.65,0.8-13.87-3.9-19.27-7.26c-4.49-2.8-9.53-5.17-12.45-9.34c-3.9-5.57-3.93-14.7-3.11-22.98
	c3.33-4.96,6.71-9.89,10.08-14.82C124.75,80.76,114.95,75.79,103.46,75.87 M95.16,135.75c1.64-0.07,3.54,0.18,5.04-0.15
	c1.59-0.36,3.7-1.73,5.34-2.67c5.02-2.88,10.67-6.49,12.9-11.56c1.76-4,2.07-9.18,2.07-14.08c0-4.88,0.02-9.75-1.63-13.93
	c-3.4-8.6-14.2-13.16-24.75-12.75c-2.6,0.1-6.14,0.53-8.45,1.48c-3.13,1.3-5.57,3.46-8.89,4.89c-12.33,14.14-17.2,38.73-9.64,58.84
	c7.07,18.79,21.61,32.12,41.36,37.35c-7.27-2.74-13.5-6.63-17.79-12.9c-6.03-8.81-9.28-22.67-9.49-33.79
	C86.66,136.46,90.13,135.97,95.16,135.75 M145.41,139.75c-3.27-2.63-6.28-4.83-9.93-6.97c-3.53-2.06-7.78-4.3-12.45-4.3
	c-7.37,0-14.61,5.92-19.27,9.93c-3.83,3.3-8.04,6.65-9.49,11.71c-2.15,7.52,1.66,17.52,5.04,22.08c3.03,4.09,6.91,6.96,11.26,9.64
	c1.66,1.02,3.69,2.56,5.19,2.96c2.15,0.58,5.24,0.45,8,0.45c19.08,0,34.2-8.49,43.88-18.97c11.38-12.33,19.74-31.5,15.12-53.51
	c0.12-0.51-0.22-0.85-0.15-0.15c0.02,1.44,0.24,3.11-0.15,5.19c-0.99,5.29-2.88,11.5-5.04,15.86c-2.39,4.81-6.39,9.12-10.23,12.75
	c-4.11,3.89-8.81,7.29-13.34,9.78C151.15,150.62,148.07,145.39,145.41,139.75 M125.1,151.91c2.16-1.5,3.81-3.5,5.78-5.19
	c-0.9-1.61,0.87-3.32,2.67-2.67c1.23-1.14,3.02-3.4,5.04-2.97c2.56,0.56,0.11,4.58-1.78,5.04c1.14,1.63,0.54,4.42-2.22,3.85
	c-1.43,1.73-2.52,3.8-3.71,5.78c4.82,0.47,11.11,1.01,16.3,1.78c0.01,0.4-0.25,0.3,0,0.59c-3.23,1.32-7.46,1.63-10.97,2.67
	c0.33,0.95,2.02,1.77,2.22,2.97c-0.83,0.06-0.35,2.84-0.3,3.85h-4.74c0.74,2.18,3.93,6,1.19,8c-1.16,0.84-3.18,0.63-4.74,0.3
	c-1.11-2.84-2.5-5.41-3.56-8.3h-2.67c-1.55,2.07-3.24,4.87-4.74,7.26c-0.41,0.65-0.82,2.24-1.93,1.48c1.21-3.04,2.79-5.71,4.15-8.6
	c-3.07,0.24-7.27-0.83-10.23-0.15c-1.56,0.36-2.07,2.3-3.26,1.78c-0.67-0.82,0.59-1.08,0.89-1.78c-0.26-0.09-0.87,0.18-0.89-0.15
	c0.26-1.86-0.37-3.27,0-4.45c0.4-1.28,1.93-1.49,2.52-2.67c-3.02-0.65-6.26-1.09-9.19-1.63c-0.79-0.15-2.06,0.09-2.37-0.89
	c0.17-0.03,0.08-0.15,0-0.15c5.06-1.12,11.18-1.24,17.19-2.08c0.1,0.54-0.72,1.13-1.19,1.63c-1.48,1.61-3.34,3.62-4.74,5.34
	c0.57,0.29,2.49-0.29,3.85,0.15c2.5-2.19,4.95-4.43,7.26-6.82c-1.37-3.53-2.98-6.81-4.45-10.23c-1.78,0.4-2.27,2.08-4.74,1.78
	c-0.88-1.64-1.7-3.34-2.52-5.04c0.89-1.14,2.68-1.37,4.45-1.63c1.14-0.45,1.68-1.54,2.96-2.08c0.79-0.33,1.83-0.18,2.82-0.44
	c1.89-0.51,4.08-1.74,5.19,0.15c1.13,1.91-0.24,5.07-2.67,4.59c-1.32,1.15,0.39,3.45,1.19,5.04
	C123.91,149.52,124.88,150.72,125.1,151.91 M123.92,139.16c-0.8-1.64-2.67-0.35-4,0c-0.98,0.26-2.09,0.18-2.96,0.59
	c-1.44,0.68-2.01,1.87-2.82,2.08c-0.94-0.14-2.49,0.25-3.56,0.74c0.56,1.42,1.03,2.93,2.07,3.85c1.25,0.01,1.93-1.38,3.11-1.78
	c1.61-0.54,3.48-0.21,4.89-1.19c0.13-0.51,0.26-1.03,0.59-1.33C122.61,142.4,124.91,141.2,123.92,139.16 M134.74,144.5
	c0.65,0.14,0.86,0.72,1.48,0.89c1.04-0.77,2.54-1.77,2.37-3.26C136.76,142.37,135.51,143.2,134.74,144.5 M120.06,144.65
	c-0.57,0.47-1.37,0.7-2.37,0.74c1.06,3.49,2.83,6.26,4,9.63c0.95-0.21,1.91-1.63,2.82-2.37
	C122.9,150.11,121.93,146.93,120.06,144.65 M131.63,145.98c-0.23,1.75,3.63,4.26,4.74,2.37
	C136.99,145.95,131.93,143.62,131.63,145.98 M131.18,147.76c0.03,0-1.61,1.49-1.93,1.78c-4.57,4.15-9.51,9.34-13.64,12.89
	c-0.31,0.5,0.64-0.13,0.45,0c4.24-2.74,8.18-6.79,12.45-9.19c0.05,0.35,0.46,0.33,0.59,0.59c-1.06,2.15-2.21,4.69-3.26,6.82
	c-0.33,0.66-1.16,1.37-0.74,2.07c2.99-4.17,5.63-8.7,8.3-13.19C132.58,149.88,132.09,147.72,131.18,147.76 M123.18,158.43
	c0.64,0.64,0.69,1.88,1.34,2.52c0.52-1.66,1.66-2.68,1.93-4.59C125.23,156.35,124.17,157.73,123.18,158.43 M130.89,162.73
	c1.22-0.3,4.62-0.12,5.19,0c-1.75-2.25-3.65-4.35-5.78-6.22C128.27,158.4,129.47,160.9,130.89,162.73 M103.17,157.99
	c2.52,0.64,5.49,0.84,8,1.48c0.59-0.89,1.98-1.78,2.07-2.67C110.42,157.29,106.26,157.48,103.17,157.99 M135.04,159.91
	c3.07-0.66,5.82-1.09,8.45-1.93c-4.14-0.36-7.05-0.69-11.12-1.19C133.1,157.99,134.22,158.8,135.04,159.91 M122.14,159.02
	c-1.27,1.35-3.66,2.36-4.45,3.71c1.08-0.42,5.31,0.17,5.93-0.3C123.65,161.36,122.9,159.8,122.14,159.02 M126.73,162.73
	c0.37-0.3,2.29,0.14,2.82-0.3c-0.66-0.62-0.71-1.86-1.48-2.37C127.88,161.11,126.61,161.86,126.73,162.73 M108.65,166.58h28.31
	c0-0.66,0.25-2.44-0.15-2.96c-8.45,0.34-18.82,0.05-28.01,0.15C108.48,163.85,108.73,165.77,108.65,166.58 M130.89,175.18
	c6.47,0.53,2.65-4.79,1.33-7.56c-1.58,0.1-3.56-0.2-4.89,0.15C128.64,170.11,129.41,173,130.89,175.18 M89.48,191.33l-9.15-2.2
	l0.23-0.96l9.15,2.2L89.48,191.33z M166.39,189.44l-0.22-0.97l-9.41,2.16l0.22,0.97L166.39,189.44z M55.27,117.03l-0.85-0.24
	l-2.51,9.06l0.85,0.24L55.27,117.03z"/>
</svg>
