<?xml version="1.0" encoding="UTF-8" standalone="no"?>
<!-- Created with Inkscape (http://www.inkscape.org/) -->

<svg
   xmlns:dc="http://purl.org/dc/elements/1.1/"
   xmlns:cc="http://creativecommons.org/ns#"
   xmlns:rdf="http://www.w3.org/1999/02/22-rdf-syntax-ns#"
   xmlns:svg="http://www.w3.org/2000/svg"
   xmlns="http://www.w3.org/2000/svg"
   xmlns:sodipodi="http://sodipodi.sourceforge.net/DTD/sodipodi-0.dtd"
   xmlns:inkscape="http://www.inkscape.org/namespaces/inkscape"
   width="112.88905mm"
   height="112.88889mm"
   viewBox="0 0 400.00058 400.00001"
   id="svg4888"
   version="1.1"
   inkscape:version="0.91 r13725"
   sodipodi:docname="NUU.svg">
  <defs
     id="defs4890">
    <clipPath
       id="clipPath5450"
       clipPathUnits="userSpaceOnUse">
      <path
         inkscape:connector-curvature="0"
         id="path5452"
         d="m 0,841.89 595.276,0 L 595.276,0 0,0 0,841.89 Z" />
    </clipPath>
  </defs>
  <sodipodi:namedview
     id="base"
     pagecolor="#ffffff"
     bordercolor="#666666"
     borderopacity="1.0"
     inkscape:pageopacity="0.0"
     inkscape:pageshadow="2"
     inkscape:zoom="1"
     inkscape:cx="216.66845"
     inkscape:cy="163.82405"
     inkscape:document-units="px"
     inkscape:current-layer="layer1"
     showgrid="false"
     inkscape:window-width="1920"
     inkscape:window-height="1017"
     inkscape:window-x="-8"
     inkscape:window-y="-8"
     inkscape:window-maximized="1"
     fit-margin-top="0"
     fit-margin-left="0"
     fit-margin-right="0"
     fit-margin-bottom="0" />
  <metadata
     id="metadata4893">
    <rdf:RDF>
      <cc:Work
         rdf:about="">
        <dc:format>image/svg+xml</dc:format>
        <dc:type
           rdf:resource="http://purl.org/dc/dcmitype/StillImage" />
        <dc:title></dc:title>
      </cc:Work>
    </rdf:RDF>
  </metadata>
  <g
     inkscape:label="Layer 1"
     inkscape:groupmode="layer"
     id="layer1"
     transform="translate(-144.80023,-150.34045)">
    <g
       id="g6696"
       transform="matrix(2.6033528,0,0,2.6033528,101.06331,-629.86457)">
      <path
         inkscape:connector-curvature="0"
         id="path14"
         style="fill:#ffffff;fill-opacity:1;fill-rule:nonzero;stroke:none"
         d="m 40.072221,377.41464 c 0,-30.13137 24.42625,-54.55725 54.558125,-54.55725 30.131754,0 54.558124,24.42588 54.558124,54.55725 0,30.13187 -24.42637,54.55813 -54.558124,54.55813 -30.131875,0 -54.558125,-24.42626 -54.558125,-54.55813" />
      <path
         inkscape:connector-curvature="0"
         id="path16"
         style="fill:none;stroke:#ffffff;stroke-width:0.68175;stroke-linecap:butt;stroke-linejoin:miter;stroke-miterlimit:3.86370993;stroke-dasharray:none;stroke-opacity:1"
         d="m 40.072221,377.41464 c 0,-30.13137 24.42625,-54.55725 54.558125,-54.55725 30.131754,0 54.558124,24.42588 54.558124,54.55725 0,30.13187 -24.42637,54.55813 -54.558124,54.55813 -30.131875,0 -54.558125,-24.42626 -54.558125,-54.55813 z" />
      <path
         inkscape:connector-curvature="0"
         id="path18"
         style="fill:#9bd649;fill-opacity:1;fill-rule:nonzero;stroke:none"
         d="m 73.141096,388.71051 -0.108875,-36.51025 c 0,-3.706 0.409625,-7.21087 1.227,-10.51612 0.798875,-3.27825 2.065375,-6.15575 3.80125,-8.6355 1.716375,-2.45125 3.523,-4.17625 5.4175,-5.1725 2.63425,-1.39625 5.797375,-2.09375 9.48825,-2.09375 2.13575,0 4.47025,0.2125 7.003875,0.64 2.514254,0.4275 4.619624,1.2675 6.315504,2.5225 1.69675,1.2825 3.25337,3.09125 4.66937,5.42875 1.3975,2.33687 2.355,4.74412 2.87363,7.22512 0.83787,3.98875 1.25675,7.52238 1.25675,10.6015 l 0.0523,36.07763 -13.581,-6.63325 0,-30.34225 c 0,-3.4195 -0.65825,-6.09963 -1.975629,-8.03663 -1.336375,-1.91025 -3.181625,-2.86437 -5.537125,-2.86437 -2.334375,0 -4.160125,0.9405 -5.4775,2.82187 -1.336375,1.90863 -2.004375,4.602 -2.005375,8.07913 l 0,30.34375 -13.419875,7.06437" />
      <path
         inkscape:connector-curvature="0"
         id="path20"
         style="fill:#289a43;fill-opacity:1;fill-rule:nonzero;stroke:none"
         d="m 115.10685,388.27789 -32.411629,19.21488 c -3.209,1.853 -6.449625,3.25049 -9.720625,4.19524 -3.238375,0.94738 -6.363875,1.28913 -9.379,1.02551 -2.980875,-0.26076 -5.377875,-0.96251 -7.188375,-2.1055 -2.525875,-1.58301 -4.7115,-3.97363 -6.558125,-7.16951 -1.067875,-1.84962 -2.049875,-3.978 -2.946375,-6.38612 -0.887125,-2.39112 -1.212375,-4.63488 -0.973625,-6.7305 0.26225,-2.11088 1.050375,-4.36325 2.36725,-6.75838 1.324625,-2.37837 2.930125,-4.41162 4.81975,-6.10049 3.03575,-2.72025 5.88575,-4.85013 8.55275,-6.38976 l 32.316,-18.66887 0,15.9575 -26.329125,14.8765 c -2.9615,1.70987 -4.953125,3.62012 -5.97225,5.7295 -0.98625,2.11275 -0.889625,4.1875 0.288125,6.2275 1.1675,2.0215 2.8945,3.13287 5.182125,3.3325 2.32175,0.20313 4.987875,-0.56487 7.9995,-2.30275 l 26.408249,-14.9365 13.54538,6.98925" />
      <path
         inkscape:connector-curvature="0"
         id="path22"
         style="fill:#1b6e44;fill-opacity:1;fill-rule:nonzero;stroke:none"
         d="m 93.954096,352.43514 31.951624,18.80175 c 3.2095,1.853 6.0405,3.9605 8.49363,6.32075 2.44,2.33113 4.29887,4.86675 5.57812,7.60987 1.26463,2.71201 1.85475,5.13825 1.7705,7.27788 -0.10787,2.979 -1.08537,6.06737 -2.93012,9.26412 -1.06738,1.84963 -2.42,3.76475 -4.05713,5.74513 -1.6275,1.96388 -3.40775,3.36725 -5.34187,4.2085 -1.959,0.82812 -4.30363,1.2715 -7.03663,1.32912 -2.72212,0.042 -5.28562,-0.3325 -7.69287,-1.1235 -3.874,-1.26912 -7.1435,-2.67287 -9.81,-4.21237 l -31.738254,-18.94588 13.359875,-7.2675 25.920379,14.94576 c 2.96137,1.71 5.61125,2.47949 7.94775,2.30762 2.32275,-0.20263 4.07125,-1.32375 5.249,-3.36325 1.167,-2.022 1.26562,-4.07325 0.29487,-6.15438 -0.98475,-2.11225 -2.98287,-4.03712 -5.99412,-5.77637 l -25.996004,-14.979 0.03125,-15.98825" />
      <path
         inkscape:connector-curvature="0"
         id="path24"
         style="fill:#9bd649;fill-opacity:1;fill-rule:nonzero;stroke:none"
         d="m 115.11072,363.09577 0,17.83299 -13.54875,-6.72012 0,-17.83313 13.54875,6.72026" />
      <path
         inkscape:connector-curvature="0"
         id="path26"
         style="fill:#10100f;fill-opacity:1;fill-rule:nonzero;stroke:none"
         d="m 16.800229,376.51614 c 0,-42.425 34.372617,-76.82375 76.806117,-76.82375 39.476624,0 71.998374,29.77375 76.333374,68.09037 -2.6125,-3.13625 -6.60375,-4.70987 -10.49125,-4.70987 -4.43,0 -8.26625,2.42575 -10.77125,6.4995 -4.31375,-26.05375 -26.40975,-46.78625 -54.233874,-46.78625 -30.569875,0 -53.466875,23.733 -54.712,54.45812 -0.59375,14.65525 -22.931117,13.93838 -22.931117,-0.72812" />
      <path
         inkscape:connector-curvature="0"
         id="path28"
         style="fill:#303c9b;fill-opacity:1;fill-rule:nonzero;stroke:none"
         d="m 170.44847,376.51614 c 0,42.43313 -34.41625,76.82427 -76.842124,76.82427 -39.493625,0 -72.026338,-29.80027 -76.33932,-68.14114 2.612307,3.16999 6.625982,4.75975 10.533207,4.75975 4.412613,0 9.930613,-2.36476 12.442863,-6.40625 3.1885,27.34474 25.894,47.63624 53.65425,48.62212 28.813504,1.023 55.103624,-25.09663 55.291124,-55.61225 0.09,-14.6665 21.26,-14.713 21.26,-0.0465" />
      <path
         inkscape:connector-curvature="0"
         id="path30"
         style="fill:#ffffff;fill-opacity:1;fill-rule:evenodd;stroke:none"
         d="m 38.345596,345.06889 -3.1035,-1.792 c -0.101,-0.058 -0.19575,-0.0195 -0.284625,0.11575 l -2.27925,3.94825 c -0.06988,0.12112 -0.05325,0.21825 0.05025,0.29 l 3.1035,1.792 c 0.11675,0.0674 0.212375,0.0358 0.288125,-0.0951 l 2.27925,-3.94774 c 0.081,-0.14013 0.063,-0.24375 -0.05375,-0.31113 z m -3.017,0.34862 c 0.0215,-0.037 0.05463,-0.0492 0.09863,-0.0361 l 1.015125,0.586 c 0.03125,0.018 0.03712,0.0528 0.018,0.1035 l -0.711375,1.23188 c -0.02925,0.0332 -0.05962,0.0406 -0.09037,0.0225 l -1.015125,-0.58587 c -0.03663,-0.009 -0.04537,-0.0386 -0.02638,-0.0899 l 0.7115,-1.232 z m 10.074625,-4.30075 -9.753875,-5.63137 c -0.21775,-0.1255 -0.411125,-0.0507 -0.5805,0.22462 l -6.627988,11.4805 c -0.151375,0.26126 -0.1167,0.46188 0.103513,0.60113 l 9.75385,5.63125 c 0.2335,0.13438 0.42775,0.0665 0.5845,-0.204 l 6.628,-11.48 c 0.161625,-0.28025 0.1255,-0.48738 -0.1075,-0.62213 z m -10.659125,-0.96437 -0.371625,0.64362 c -0.1245,-0.0718 -0.252875,-0.14549 -0.38525,-0.22225 l 0.24275,-0.41987 c 0.09125,0.003 0.262625,0.002 0.514125,-10e-4 z m 0.471625,-1.7065 0.32325,-0.56013 c 0.07038,-0.121 0.151875,-0.15474 0.245125,-0.101 l 5.296875,3.05813 -1.014625,1.05662 c 0.40475,0.23388 0.63625,0.39838 0.694875,0.49463 0.02587,0.0274 0.02875,0.0664 0.0098,0.11763 -0.01613,0.0279 -0.215875,0.0684 -0.598625,0.12062 -0.452625,-1.11963 -1.238375,-2.28275 -2.357,-3.48875 l -1.203625,1.30275 c 0.671375,0.72363 1.183125,1.355 1.535625,1.8945 -0.8495,-0.21675 -1.660125,-0.51025 -2.431625,-0.88138 l 1.439,-2.49162 -1.295375,-0.74762 -0.13725,0.23787 c -0.162125,-0.006 -0.331,-0.0103 -0.506375,-0.0122 z m 5.6265,5.936 c -0.04,-0.10988 -0.07613,-0.21775 -0.108375,-0.32375 1.006875,-0.12788 1.660125,-0.44138 1.9585,-0.94088 0.1025,-0.17724 0.166,-0.37737 0.190375,-0.59962 0.02,-0.25 -0.1215,-0.543 -0.42475,-0.87988 l 0.88675,0.51175 c 0.09562,0.0679 0.11125,0.15725 0.04637,0.2695 l -2.11775,3.668 c -0.118625,-0.56637 -0.262625,-1.13425 -0.431125,-1.70512 z m -1.55125,0.50437 -0.48825,-0.15087 c -0.42975,1.28275 -1.188,2.99125 -2.2755,5.1265 l 1.5,0.47362 c 0.0054,-0.009 0.561125,-1.1875 1.668,-3.53562 0.01325,0.15725 0.03275,0.3115 0.05913,0.46337 l 1.171375,-0.57425 -2.513625,4.354 c -0.0645,0.11238 -0.1475,0.13875 -0.248625,0.0806 l -7.5605,-4.36475 c -0.09325,-0.0543 -0.107375,-0.13675 -0.043,-0.249 l 2.578625,-4.46588 c 0.1245,0.0718 0.253,0.14601 0.38475,0.22213 l -2.457,4.25587 1.294875,0.74763 2.51425,-4.354 c 1.503875,0.68212 2.880875,1.07275 4.130375,1.17137 0.107875,0.26176 0.203125,0.52826 0.285125,0.79925" />
      <path
         inkscape:connector-curvature="0"
         id="path32"
         style="fill:#ffffff;fill-opacity:1;fill-rule:evenodd;stroke:none"
         d="m 51.448721,320.97114 -4.838875,3.51625 0.973625,1.34 11.26075,-8.18125 -0.974125,-1.34 -4.76075,3.45875 -0.7285,-1.0025 -1.66075,1.20625 0.728625,1.0025 z m -2.425375,4.6925 c 1.952125,1.2575 3.735375,2.6475 5.349625,4.1725 l 1.47125,-1.385 c -1.36475,-1.2725 -3.173375,-2.69 -5.425875,-4.25 l -1.395,1.4625 z m 9.63575,1.49125 -6.878875,4.99875 1.005375,1.38375 11.783625,-8.56125 -1.005375,-1.38375 -3.191375,2.31875 c -0.52825,-1.625 -1.380875,-3.825 -2.557625,-6.60125 l -1.8335,0.8325 c 0.24025,0.45875 0.6915,1.50125 1.3545,3.12875 0.558625,1.3925 1,2.6875 1.32325,3.88375" />
      <path
         inkscape:connector-curvature="0"
         id="path34"
         style="fill:#ffffff;fill-opacity:1;fill-rule:evenodd;stroke:none"
         d="m 84.849096,315.02614 -0.521,-2.45125 -1.755375,0.37375 1.168,5.495 1.75525,-0.37375 -0.358375,-1.68625 2.213375,-0.47 c 0.295,-0.0637 0.4165,-0.2175 0.36425,-0.46375 l -0.69425,-3.2675 -1.629,0.34625 0.437125,2.055 c 0.02975,0.14125 -0.044,0.235 -0.22125,0.28125 l -0.75875,0.16125 z m -11.120125,3.12125 c -0.30475,0.175 -0.589375,0.33625 -0.8555,0.485 l 1.0835,1.1325 c 0.59325,-0.31875 1.369125,-0.79125 2.326625,-1.41625 l 0.353,1.66 1.692,-0.36 -1.958,-9.21 c 0.686,0.22 1.388125,0.54375 2.106875,0.97 -0.21675,0.43125 -0.42725,0.81625 -0.630875,1.15375 l -0.847125,0.29 c 0.2925,0.4425 0.512125,0.855 0.659625,1.23625 l 3.36575,-1.115 c 0.02875,0.0863 0.081,0.17625 0.15675,0.27 l -1.07575,0.22875 0.521,2.45125 -0.49025,0.10375 c -0.263125,0.0562 -0.42575,-0.0337 -0.48625,-0.2675 l -0.378375,-1.77875 -1.6285,0.345 0.602125,2.83375 c 0.09175,0.43 0.396375,0.595 0.915,0.49375 l 1.233375,-0.2625 c -0.5635,0.46 -1.077125,0.8175 -1.541,1.07125 -0.120625,0.0537 -0.2315,0.105 -0.331,0.15375 l 1.168375,1.1425 c 1.541,-0.8875 2.45025,-1.82 2.7275,-2.7975 0.003,-0.0362 0.01563,-0.0813 0.03813,-0.13125 0.063,-0.32625 0.06737,-0.61625 0.01325,-0.87125 l -0.59375,-2.7925 0.86375,-0.44625 c -0.022,-0.05 -0.04687,-0.09 -0.07575,-0.12125 l 3.0415,-1.0875 c 0.104,0.18 0.2115,0.37375 0.321375,0.57875 l 1.442375,-0.6775 c -0.483875,-0.98125 -0.994625,-1.77625 -1.53225,-2.3875 l -1.055625,0.555 c 0.5605,-1.1475 0.878375,-2.01 0.9545,-2.58625 l -1.639125,-0.0925 c -0.09087,0.6625 -0.294,1.3675 -0.608875,2.1125 -0.124,-0.065 -0.23775,-0.1325 -0.340375,-0.2025 0.455125,-1.125 0.759375,-2.025 0.913125,-2.70125 l -1.570375,-0.3125 c -0.199625,0.8225 -0.42225,1.59 -0.667375,2.30375 -0.267125,-0.1175 -0.42825,-0.175 -0.483,-0.1725 l -0.411625,0.70625 c 0.03475,-0.19875 0.05813,-0.37375 0.07037,-0.52375 l -1.650875,0.006 c -0.04937,0.59875 -0.183625,1.2375 -0.402375,1.9175 -0.161625,-0.085 -0.3105,-0.16375 -0.44675,-0.235 0.47075,-1.10125 0.795875,-1.9825 0.974625,-2.645 l -1.57325,-0.3275 c -0.216875,0.845 -0.461875,1.63625 -0.734875,2.37375 -0.21775,-0.0913 -0.355,-0.14 -0.411625,-0.14625 l -0.546875,1.08 -0.185125,-0.87 0.601125,-0.1275 -0.311,-1.4625 -5.13875,1.0925 0.310625,1.4625 0.442875,-0.0937 1.703125,8.01125 z m 1.557625,-0.9925 -0.358875,-1.68625 0.711875,-0.15125 0.296875,1.39625 c -0.204625,0.12625 -0.421375,0.27375 -0.649875,0.44125 z m -0.6695,-3.14875 -0.294375,-1.38375 0.711875,-0.15125 0.294,1.38375 -0.7115,0.15125 z m -0.605,-2.8475 -0.294375,-1.3825 0.711375,-0.15125 0.2945,1.38375 -0.7115,0.15 z m 10.9195,-0.87375 -0.536625,0.19625 c 0.09663,-0.1675 0.19675,-0.34375 0.30025,-0.53125 0.06637,0.105 0.145,0.21625 0.236375,0.335 z m -3.035125,1.11375 c -0.275875,-0.36375 -0.537625,-0.69 -0.786125,-0.97625 l -0.871125,0.4875 c 0.08537,-0.22 0.182125,-0.4375 0.2905,-0.65375 0.132875,-0.35875 0.246125,-0.68125 0.339875,-0.9675 0.681125,0.25 1.36125,0.60125 2.042,1.05375 -0.206125,0.3275 -0.401375,0.6275 -0.5865,0.89625 l -0.428625,0.16 z m -1.692,0.35875 -0.44775,0.15 c 0.07088,-0.13375 0.145125,-0.2775 0.22225,-0.4325 0.0605,0.08 0.13575,0.17375 0.2255,0.2825" />
      <path
         inkscape:connector-curvature="0"
         id="path36"
         style="fill:#ffffff;fill-opacity:1;fill-rule:evenodd;stroke:none"
         d="m 102.77722,310.17739 -0.224,1.05375 9.1235,1.94 0.23825,-1.12 c 0.606,0.41375 1.26463,0.8375 1.97663,1.27375 l 1.3125,-1.2775 c -2.44538,-1.245 -4.49375,-2.7275 -6.14463,-4.44625 0.0957,-0.0888 0.1915,-0.175 0.28563,-0.25625 l -1.71675,-0.70875 c -1.34175,1.12875 -3.99125,1.90625 -7.949254,2.33125 l 0.698254,1.69125 c 0.83837,-0.16125 1.63825,-0.32125 2.39987,-0.48125 z m 1.18413,-0.28625 c 1.61725,-0.45375 2.88337,-0.915 3.79787,-1.38125 0.9185,0.96625 1.99263,1.92375 3.22313,2.875 l -7.021,-1.49375 z m 7.79,10.23625 1.12012,-5.27 c 0.0581,-0.2725 -0.0815,-0.44375 -0.41887,-0.51625 l -11.00538,-2.33875 c -0.32662,-0.07 -0.519,0.0312 -0.57662,0.30375 l -1.120629,5.27 c -0.05763,0.2725 0.07563,0.44875 0.400379,0.52625 l 11.00537,2.34 c 0.32663,0.07 0.52538,-0.035 0.59563,-0.315 z m -1.29238,-4.57125 c 0.13713,0.03 0.19863,0.1025 0.185,0.21875 l -0.55462,2.60875 c -0.0245,0.115 -0.11138,0.16 -0.26025,0.1375 l -7.68513,-1.63375 c -0.13675,-0.0288 -0.19237,-0.105 -0.166,-0.22875 l 0.55425,-2.60875 c 0.0244,-0.11375 0.10488,-0.15625 0.24213,-0.1275 l 7.68462,1.63375" />
      <path
         inkscape:connector-curvature="0"
         id="path38"
         style="fill:#ffffff;fill-opacity:1;fill-rule:nonzero;stroke:none"
         d="m 131.29147,324.67114 c -0.40725,1.935 0.082,4.46125 1.46825,7.5775 0.0869,0.17375 0.18213,0.38125 0.28613,0.62375 l 2.04387,0.02 c -1.78612,-3.2625 -2.38562,-6.0125 -1.79875,-8.25125 0.19138,-0.5375 0.374,-0.9825 0.54875,-1.3325 l 4.60363,3.345 0.97412,-1.34 -4.7735,-3.46875 c 0.04,-0.0375 0.0733,-0.0738 0.10013,-0.11125 l 1.30662,-1.7975 -1.66112,-1.2075 -1.30663,1.79875 c -0.021,0.0288 -0.0547,0.0662 -0.10012,0.11 l -4.77338,-3.4675 -0.97412,1.34 4.65575,3.3825 c -2.30625,2.22125 -5.459,2.78375 -9.458,1.6875 l 0.31975,1.8975 c 2.228,0.45375 4.18025,0.5175 5.8555,0.19125 0.92237,-0.20625 1.81687,-0.53875 2.68312,-0.9975" />
      <path
         inkscape:connector-curvature="0"
         id="path40"
         style="fill:#ffffff;fill-opacity:1;fill-rule:evenodd;stroke:none"
         d="m 153.66722,347.28627 -1.53625,-2.66026 1.00625,0.25938 c 0.0137,-0.20762 0.0212,-0.42925 0.02,-0.66513 0.19875,0.10988 0.40875,0.23151 0.63,0.36425 l 0.34,-1.05512 0.84375,0.22262 c 0.0113,-0.268 0.0188,-0.559 0.025,-0.873 0.25,0.0917 0.51625,0.19338 0.7975,0.30463 l 0.20125,-1.40425 c -0.3525,-0.10738 -0.69125,-0.23538 -1.015,-0.38425 -0.002,-0.59625 -0.0162,-1.024 -0.0412,-1.28325 l -1.335,-0.23725 c 0.0175,0.13862 0.0312,0.38612 0.04,0.74212 -0.3475,-0.25975 -0.71,-0.55512 -1.08625,-0.88475 l -0.52,1.30863 c 0.0288,0.0326 0.0675,0.0727 0.115,0.11962 l -0.3975,-0.0689 c 0.006,0.083 0.0163,0.22662 0.0312,0.43013 -0.245,-0.24463 -0.48875,-0.51413 -0.7325,-0.80951 l -0.61125,0.98776 -1.3425,-2.32426 0.2225,-0.12787 0.9375,1.6245 1.015,-0.58638 -0.9375,-1.624 0.1975,-0.11437 0.93875,1.62412 1.01375,-0.586 -0.9375,-1.62399 c 0.0787,-0.0449 0.12625,-0.0605 0.145,-0.0464 0.3375,0.63862 0.88625,1.32963 1.6475,2.07275 l 0.6775,-1.30562 c -0.83875,-0.89701 -1.45,-1.73888 -1.83125,-2.52638 -0.17625,-0.32187 -0.36125,-0.42675 -0.555,-0.3145 l -3.43,1.9805 -0.3325,-0.57425 c -0.1125,-0.19575 -0.25125,-0.24713 -0.41375,-0.15238 l -2.3575,1.36038 0.93,1.61037 1.225,-0.7075 c 0.0937,-0.0537 0.16625,-0.0274 0.2175,0.08 l 5.48,9.49225 c 0.0812,0.14013 0.0525,0.24363 -0.085,0.3105 0,0 -0.46,0.0664 -1.37875,0.19876 l 0.48125,1.77587 c 1.14875,-0.166 2.08125,-0.39938 2.79875,-0.70162 l -0.21625,-1.66751 3.34875,-1.93312 c 0.18625,-0.10738 0.2125,-0.27825 0.0775,-0.51175 l -1.7375,-3.01025 -1.015,0.5865 0.9375,1.624 c 0.07,0.12112 0.0588,0.2085 -0.035,0.26275 l -0.0112,0.007 -1.05125,-1.82025 -1.015,0.58587 1.05125,1.82038 -0.19875,0.11475 -1.05,-1.82038 -1.01625,0.586 1.05125,1.82025 -0.22125,0.128 z m -2.74,-4.74663 c 0.5175,0.44825 0.82125,0.71387 0.9125,0.79888 0.0112,0.25437 0.006,0.50624 -0.015,0.75537 l -0.8975,-1.55425 z m 2.17125,-0.65625 c 0.21375,0.10062 0.4075,0.21925 0.58,0.3565 0.001,0.23525 -0.004,0.47987 -0.0125,0.73437 -0.17375,-0.12312 -0.35375,-0.23737 -0.53875,-0.34187 0.005,-0.27738 -0.004,-0.52688 -0.0288,-0.749 z m -6.6825,3.97025 c -0.40875,0.42325 -0.7525,0.62738 -1.03,0.61375 -0.1825,-0.0816 -0.3725,-0.40138 -0.57,-0.9595 -0.1125,-0.32075 -0.21375,-0.82813 -0.30375,-1.523 l -1.51,0.53575 c 0.22125,1.104 0.51875,1.9775 0.89125,2.6215 0.38375,0.649 0.8425,1.07475 1.375,1.27787 0.63125,0.23238 1.35625,-0.0302 2.17375,-0.78812 l 2.75625,4.774 1.295,-0.74762 -2.72375,-4.71825 2.035,1.96137 0.79875,-2.01063 -3.5725,-6.188 -1.2025,0.69376 2.22375,3.85012 -0.76625,-0.73388 -0.009,-0.0141 -0.61375,-1.064 c -0.1,0.33112 -0.21875,0.65475 -0.3575,0.97125 l -3.03125,-5.25 -1.29375,0.748 3.435,5.94975" />
      <path
         inkscape:connector-curvature="0"
         id="path42"
         style="fill:#ffffff;fill-opacity:1;fill-rule:nonzero;stroke:none"
         d="m 32.917471,395.63439 0.90325,1.9365 -2.534125,4.25875 3.712875,-1.73087 0.912125,1.95499 -6.71195,3.12888 -0.911625,-1.955 2.5127,-4.232 -3.68555,1.71825 -0.909663,-1.95063 6.711963,-3.12887" />
      <path
         inkscape:connector-curvature="0"
         id="path44"
         style="fill:#ffffff;fill-opacity:1;fill-rule:evenodd;stroke:none"
         d="m 33.319721,409.67739 -1.34275,-2.23438 -1.232875,0.32225 -1.205125,-2.00537 7.78175,-1.42725 1.285625,2.13912 -4.9135,6.19975 -1.233375,-2.05275 0.86025,-0.94137 z m 1.1255,-1.23588 1.859875,-2.07225 -2.700625,0.67376 0.84075,1.39849" />
      <path
         inkscape:connector-curvature="0"
         id="path46"
         style="fill:#ffffff;fill-opacity:1;fill-rule:nonzero;stroke:none"
         d="m 39.414971,407.91951 4.089875,5.62838 -1.479,1.07475 -1.372625,-1.88813 -4.51125,3.27726 -1.345625,-1.85151 4.51175,-3.27737 -1.372125,-1.88863 1.479,-1.07475" />
      <path
         inkscape:connector-curvature="0"
         id="path48"
         style="fill:#ffffff;fill-opacity:1;fill-rule:nonzero;stroke:none"
         d="m 43.913471,414.01076 1.474125,1.75738 -5.672375,4.75975 -1.4745,-1.75675 5.67275,-4.76038" />
      <path
         inkscape:connector-curvature="0"
         id="path50"
         style="fill:#ffffff;fill-opacity:1;fill-rule:evenodd;stroke:none"
         d="m 43.196721,419.05139 c 0.869625,-0.83987 1.78075,-1.2515 2.732875,-1.23488 0.952625,0.0171 1.84625,0.458 2.681625,1.32276 0.8565,0.88675 1.277875,1.80075 1.26425,2.74124 -0.01175,0.93788 -0.446375,1.82126 -1.30375,2.64938 -0.622625,0.601 -1.235375,0.98925 -1.838375,1.164 -0.598625,0.17537 -1.201125,0.17187 -1.807625,-0.0102 -0.602,-0.18213 -1.1885,-0.56875 -1.75925,-1.15962 -0.580625,-0.60113 -0.965875,-1.19138 -1.15575,-1.77101 -0.1875,-0.57712 -0.192375,-1.18849 -0.01475,-1.83299 0.17775,-0.64501 0.578125,-1.26763 1.20075,-1.86863 z m 1.5825,1.65325 c -0.537625,0.51913 -0.828125,0.99175 -0.871125,1.417 -0.041,0.42825 0.105,0.814 0.4375,1.15825 0.341375,0.3535 0.72075,0.51662 1.13825,0.48825 0.417,-0.0283 0.92375,-0.3305 1.52,-0.90575 0.501,-0.48438 0.7685,-0.9395 0.80225,-1.36525 0.03863,-0.42575 -0.109875,-0.8115 -0.444375,-1.15825 -0.32075,-0.332 -0.69575,-0.48475 -1.1245,-0.45887 -0.429625,0.0259 -0.9155,0.30074 -1.458,0.82462" />
      <path
         inkscape:connector-curvature="0"
         id="path52"
         style="fill:#ffffff;fill-opacity:1;fill-rule:nonzero;stroke:none"
         d="m 51.517971,422.17289 1.660625,1.34525 -0.410125,4.9385 2.578125,-3.18363 1.67625,1.35788 -4.659625,5.75487 -1.67625,-1.35787 0.40275,-4.90525 -2.5585,3.16012 -1.672875,-1.35499 4.659625,-5.75488" />
      <path
         inkscape:connector-curvature="0"
         id="path54"
         style="fill:#ffffff;fill-opacity:1;fill-rule:evenodd;stroke:none"
         d="m 58.019471,434.64164 -2.2105,-1.38175 -0.952125,0.84662 -1.983875,-1.23975 6.284625,-4.80462 2.11625,1.32275 -1.5625,7.75537 -2.03075,-1.26912 0.338875,-1.2295 z m 0.441375,-1.61225 0.716375,-2.69138 -2.100125,1.82663 1.38375,0.86475" />
      <path
         inkscape:connector-curvature="0"
         id="path56"
         style="fill:#ffffff;fill-opacity:1;fill-rule:nonzero;stroke:none"
         d="m 63.629346,430.81601 2.057125,1.00338 -2.44625,5.01713 3.210375,1.56587 -0.79875,1.63925 -5.267625,-2.56988 3.245125,-6.65575" />
      <path
         inkscape:connector-curvature="0"
         id="path58"
         style="fill:#ffffff;fill-opacity:1;fill-rule:nonzero;stroke:none"
         d="m 76.526346,435.90827 2.19525,0.62937 -1.21625,4.24412 c -0.120625,0.421 -0.30125,0.80038 -0.5415,1.13775 -0.236375,0.33551 -0.535625,0.603 -0.898,0.80376 -0.358375,0.19874 -0.7075,0.3105 -1.047375,0.33537 -0.472625,0.0361 -1.00875,-0.0318 -1.607875,-0.20363 -0.34625,-0.0991 -0.71825,-0.23187 -1.11525,-0.39837 -0.394,-0.166 -0.7085,-0.35938 -0.942875,-0.58063 -0.233375,-0.22462 -0.42675,-0.50237 -0.5805,-0.834 -0.151,-0.33049 -0.228125,-0.64837 -0.231,-0.9545 -0.0064,-0.49225 0.041,-0.91312 0.141125,-1.26274 l 1.21625,-4.24413 2.194875,0.62987 -1.245125,4.34575 c -0.111875,0.38863 -0.09225,0.72363 0.05863,1.00488 0.15475,0.27925 0.42275,0.47362 0.805125,0.5835 0.378875,0.10837 0.705625,0.0864 0.9805,-0.066 0.27925,-0.15425 0.475125,-0.42913 0.588375,-0.82412 l 1.245625,-4.34625" />
      <path
         inkscape:connector-curvature="0"
         id="path60"
         style="fill:#ffffff;fill-opacity:1;fill-rule:nonzero;stroke:none"
         d="m 79.240721,436.61189 2.116125,0.29787 2.191875,4.44525 0.569375,-4.05712 2.13625,0.30088 -1.02925,7.3335 -2.13625,-0.30038 -2.18125,-4.4135 -0.565375,4.02725 -2.131375,-0.29975 1.029875,-7.334" />
      <path
         inkscape:connector-curvature="0"
         id="path62"
         style="fill:#ffffff;fill-opacity:1;fill-rule:nonzero;stroke:none"
         d="m 87.235346,437.71739 2.2905,0.12062 -0.38625,7.3955 -2.2905,-0.12012 0.38625,-7.396" />
      <path
         inkscape:connector-curvature="0"
         id="path64"
         style="fill:#ffffff;fill-opacity:1;fill-rule:nonzero;stroke:none"
         d="m 90.266596,437.94301 6.9565,8.8e-4 0,1.82912 -2.334,-5e-4 0.001,5.57713 -2.288625,-3.8e-4 -5e-4,-5.57725 -2.334,0 -3.75e-4,-1.829" />
      <path
         inkscape:connector-curvature="0"
         id="path66"
         style="fill:#ffffff;fill-opacity:1;fill-rule:nonzero;stroke:none"
         d="m 97.475471,437.82427 6.099129,-0.64013 0.16562,1.57275 -3.818374,0.40087 0.123504,1.1705 3.542,-0.37212 0.15825,1.5025 -3.542,0.372 0.15275,1.45162 3.92875,-0.41249 0.17575,1.66837 -6.209879,0.65188 -0.7755,-7.36575" />
      <path
         inkscape:connector-curvature="0"
         id="path68"
         style="fill:#ffffff;fill-opacity:1;fill-rule:evenodd;stroke:none"
         d="m 104.3066,437.09239 3.33687,-0.6485 c 0.65825,-0.12738 1.20613,-0.1415 1.64413,-0.0415 0.44137,0.10013 0.82662,0.291 1.15625,0.57325 0.3295,0.28275 0.59662,0.63387 0.80175,1.05375 0.2055,0.41988 0.35637,0.87787 0.45262,1.3735 0.15138,0.77738 0.17913,1.398 0.0844,1.86237 -0.0923,0.46038 -0.267,0.86663 -0.52438,1.21875 -0.25825,0.34863 -0.55812,0.60588 -0.89987,0.7715 -0.46675,0.2285 -0.90038,0.38075 -1.30025,0.45888 l -3.3375,0.648 -1.414,-7.27 z m 2.56637,1.21 0.773,3.97212 0.55025,-0.10649 c 0.46975,-0.0913 0.7935,-0.20751 0.97163,-0.34863 0.17775,-0.144 0.29787,-0.35638 0.36037,-0.63575 0.0615,-0.28313 0.0356,-0.71575 -0.0776,-1.29738 -0.14988,-0.7705 -0.37788,-1.27337 -0.6845,-1.50874 -0.30663,-0.23538 -0.751,-0.29688 -1.33263,-0.18413 l -0.5605,0.109" />
      <path
         inkscape:connector-curvature="0"
         id="path70"
         style="fill:#ffffff;fill-opacity:1;fill-rule:nonzero;stroke:none"
         d="m 118.58935,433.07326 2.11662,-0.85487 1.65475,4.09375 c 0.16413,0.40625 0.25538,0.81637 0.274,1.22987 0.02,0.40976 -0.0508,0.80525 -0.21237,1.18663 -0.16025,0.37688 -0.36625,0.68013 -0.61875,0.90912 -0.3505,0.31988 -0.81438,0.59575 -1.392,0.82913 -0.334,0.13525 -0.709,0.25925 -1.1245,0.3725 -0.41213,0.11188 -0.77938,0.15338 -1.10013,0.12312 -0.32225,-0.0337 -0.646,-0.13337 -0.97125,-0.29987 -0.32175,-0.16787 -0.57812,-0.371 -0.7695,-0.61025 -0.30762,-0.38387 -0.52975,-0.74475 -0.666,-1.08213 l -1.65475,-4.09375 2.11713,-0.85537 1.69437,4.19238 c 0.15138,0.37449 0.373,0.62687 0.665,0.75574 0.294,0.125 0.625,0.11288 0.99313,-0.0361 0.36575,-0.14737 0.60937,-0.36612 0.7325,-0.65525 0.1245,-0.29388 0.10987,-0.63088 -0.044,-1.01213 l -1.69425,-4.1925" />
      <path
         inkscape:connector-curvature="0"
         id="path72"
         style="fill:#ffffff;fill-opacity:1;fill-rule:nonzero;stroke:none"
         d="m 121.29385,431.98252 1.86875,-1.03563 4.42575,2.23137 -1.98738,-3.583 1.88675,-1.04587 3.59175,6.4775 -1.88662,1.046 -4.3975,-2.213 1.97212,3.55712 -1.88225,1.043 -3.59137,-6.4775" />
      <path
         inkscape:connector-curvature="0"
         id="path74"
         style="fill:#ffffff;fill-opacity:1;fill-rule:nonzero;stroke:none"
         d="m 128.19622,428.03526 1.87888,-1.3155 4.24862,6.06738 -1.8785,1.315 -4.249,-6.06688" />
      <path
         inkscape:connector-curvature="0"
         id="path76"
         style="fill:#ffffff;fill-opacity:1;fill-rule:nonzero;stroke:none"
         d="m 130.35347,426.67002 1.834,-1.53913 4.70363,3.01175 -2.169,-5.13812 1.77975,-1.49376 2.65675,7.44 -1.89988,1.59426 -6.90525,-3.875" />
      <path
         inkscape:connector-curvature="0"
         id="path78"
         style="fill:#ffffff;fill-opacity:1;fill-rule:nonzero;stroke:none"
         d="m 136.42722,421.43227 4.25975,-4.41075 1.13775,1.09825 -2.66712,2.76162 0.84725,0.81788 2.47362,-2.56151 1.0875,1.04938 -2.47475,2.5615 1.051,1.01412 2.74375,-2.84125 1.20625,1.1655 -4.33625,4.49075 -5.32875,-5.14549" />
      <path
         inkscape:connector-curvature="0"
         id="path80"
         style="fill:#ffffff;fill-opacity:1;fill-rule:evenodd;stroke:none"
         d="m 146.89722,421.10114 -5.83725,-4.56 2.34725,-3.00487 c 0.43625,-0.55763 0.81625,-0.94588 1.1425,-1.16613 0.325,-0.21963 0.68875,-0.31825 1.09,-0.29537 0.39875,0.021 0.7825,0.17624 1.155,0.46637 0.32375,0.25287 0.55,0.541 0.6775,0.86325 0.12625,0.32075 0.1675,0.65862 0.125,1.01413 -0.0275,0.22662 -0.115,0.49762 -0.26375,0.81299 0.24,-0.15862 0.43375,-0.25925 0.5825,-0.30124 0.1,-0.0292 0.27625,-0.0449 0.53,-0.0474 0.25625,-0.005 0.44375,0.004 0.56125,0.0284 l 2.37375,0.45012 -1.5925,2.03812 -2.53625,-0.43025 c -0.32625,-0.0585 -0.56125,-0.0669 -0.705,-0.0249 -0.19125,0.0596 -0.35125,0.17137 -0.48,0.336 l -0.125,0.15913 2.37,1.85062 -1.415,1.811 z m -2.0575,-4.52338 0.59375,-0.76024 c 0.065,-0.0821 0.1625,-0.26225 0.29375,-0.53963 0.07,-0.13813 0.0838,-0.28275 0.0438,-0.434 -0.0375,-0.15338 -0.12125,-0.27987 -0.2475,-0.3795 -0.18875,-0.14737 -0.38,-0.20062 -0.57375,-0.16013 -0.195,0.0405 -0.42,0.22563 -0.6775,0.55475 l -0.61875,0.79201 1.18625,0.92674" />
      <path
         inkscape:connector-curvature="0"
         id="path82"
         style="fill:#ffffff;fill-opacity:1;fill-rule:nonzero;stroke:none"
         d="m 149.39472,413.70026 1.03875,-1.91887 c 0.32375,0.14737 0.60375,0.20888 0.8375,0.184 0.37875,-0.041 0.685,-0.247 0.91625,-0.61813 0.1725,-0.27687 0.2425,-0.52974 0.20625,-0.75874 -0.0362,-0.23351 -0.14,-0.40388 -0.3125,-0.51126 -0.1625,-0.10162 -0.3525,-0.12112 -0.57125,-0.0586 -0.2175,0.0625 -0.545,0.31837 -0.985,0.76612 -0.7225,0.73188 -1.35625,1.17963 -1.9,1.34425 -0.545,0.1675 -1.06375,0.0976 -1.555,-0.2095 -0.3225,-0.20162 -0.56875,-0.48437 -0.73875,-0.84862 -0.17,-0.36912 -0.22,-0.791 -0.15,-1.26713 0.07,-0.4805 0.31,-1.04787 0.71875,-1.70162 0.5,-0.80275 1.0325,-1.31988 1.595,-1.55225 0.56125,-0.23725 1.1925,-0.19237 1.89375,0.13475 l -1.03625,1.896 c -0.3125,-0.12788 -0.5825,-0.15375 -0.80875,-0.0771 -0.22625,0.0743 -0.42375,0.248 -0.595,0.52251 -0.14125,0.22549 -0.19875,0.42575 -0.1725,0.60049 0.0225,0.17338 0.1025,0.30275 0.24,0.38825 0.1,0.0625 0.21875,0.0718 0.3575,0.0272 0.14125,-0.0395 0.3525,-0.20837 0.63875,-0.50624 0.7125,-0.73388 1.2775,-1.22513 1.69375,-1.47276 0.41625,-0.25237 0.815,-0.375 1.195,-0.36712 0.3825,0.004 0.745,0.11375 1.0875,0.32813 0.4025,0.25149 0.705,0.59524 0.905,1.03024 0.20125,0.43513 0.265,0.90825 0.1925,1.4185 -0.075,0.50875 -0.30375,1.06738 -0.68375,1.67525 -0.6675,1.06838 -1.335,1.67975 -2.0025,1.8335 -0.66875,0.15425 -1.33625,0.0605 -2.005,-0.28125" />
      <path
         inkscape:connector-curvature="0"
         id="path84"
         style="fill:#ffffff;fill-opacity:1;fill-rule:nonzero;stroke:none"
         d="m 148.98722,404.78814 1.04125,-2.043 6.6,3.36288 -1.04125,2.04337 -6.6,-3.36325" />
      <path
         inkscape:connector-curvature="0"
         id="path86"
         style="fill:#ffffff;fill-opacity:1;fill-rule:nonzero;stroke:none"
         d="m 150.44722,402.15001 2.8275,-6.35449 1.67125,0.74362 -0.95,2.13237 5.09625,2.269 -0.93125,2.09038 -5.095,-2.26912 -0.94875,2.13187 -1.67,-0.74363" />
      <path
         inkscape:connector-curvature="0"
         id="path88"
         style="fill:#ffffff;fill-opacity:1;fill-rule:nonzero;stroke:none"
         d="m 153.14222,396.25989 0.785,-2.4165 2.84,-0.6495 -1.91625,-2.19475 0.78,-2.40238 3.205,4.06938 2.95,0.9585 -0.70875,2.18112 -2.95,-0.959 -4.985,1.41313" />
      <path
         inkscape:connector-curvature="0"
         id="path90"
         style="fill:#ffffff;fill-opacity:1;fill-rule:nonzero;stroke:none"
         d="m 30.616596,378.51714 -3.459925,1.99762 -3.459963,-1.99762 0,-3.99513 3.459963,-1.99799 3.459925,1.99799 0,3.99513" />
      <path
         inkscape:connector-curvature="0"
         id="path92"
         style="fill:none;stroke:#ffffff;stroke-width:0.57462502;stroke-linecap:butt;stroke-linejoin:miter;stroke-miterlimit:3.86370993;stroke-dasharray:none;stroke-opacity:1"
         d="m 22.063896,379.46001 0,-5.88087 5.092775,-2.93987 5.0928,2.93987 0,5.88087 -5.0928,2.94 -5.092775,-2.94 z" />
      <path
         inkscape:connector-curvature="0"
         id="path94"
         style="fill:#ffffff;fill-opacity:1;fill-rule:nonzero;stroke:none"
         d="m 163.04347,378.51714 -3.46,1.99762 -3.46,-1.99762 0,-3.99513 3.46,-1.99799 3.46,1.99799 0,3.99513" />
      <path
         inkscape:connector-curvature="0"
         id="path96"
         style="fill:none;stroke:#ffffff;stroke-width:0.57462502;stroke-linecap:butt;stroke-linejoin:miter;stroke-miterlimit:3.86370993;stroke-dasharray:none;stroke-opacity:1"
         d="m 154.49097,379.46001 0,-5.88087 5.0925,-2.93987 5.0925,2.93987 0,5.88087 -5.0925,2.94 -5.0925,-2.94 z" />
    </g>
  </g>
</svg>
