<svg id="Layer_1" data-name="Layer 1" xmlns="http://www.w3.org/2000/svg" width="300" height="300" viewBox="0 0 180 180"><defs><style>.cls-1{fill:#db192b;}</style></defs><title>NU_Seal_CMYK_R</title><path class="cls-1" d="M147.84,56.09a90,90,0,1,0,90,90A90,90,0,0,0,147.84,56.09Zm62,152a87.67,87.67,0,1,1,25.67-62A87.12,87.12,0,0,1,209.83,208.07Z" transform="translate(-57.84 -56.09)"/><path class="cls-1" d="M147.84,61.55a84.54,84.54,0,1,0,84.54,84.54A84.54,84.54,0,0,0,147.84,61.55ZM207,205.2a83.58,83.58,0,1,1,24.49-59.11A83.06,83.06,0,0,1,207,205.2Z" transform="translate(-57.84 -56.09)"/><path class="cls-1" d="M147.84,81.55a64.54,64.54,0,1,0,64.54,64.54A64.61,64.61,0,0,0,147.84,81.55Zm0,128.13a63.6,63.6,0,1,1,63.6-63.59A63.59,63.59,0,0,1,147.84,209.68Z" transform="translate(-57.84 -56.09)"/><path class="cls-1" d="M147.84,85.62a60.47,60.47,0,1,0,60.47,60.47A60.53,60.53,0,0,0,147.84,85.62Zm7.63,13.21a8.75,8.75,0,0,1,1.14,3.8,4.4,4.4,0,0,1-.05.65,1.6,1.6,0,0,1-.05.21,2.09,2.09,0,0,1-.08.36,2.36,2.36,0,0,1-.49.88h0a2.51,2.51,0,0,1-1.93.74,3,3,0,0,1-1.68-.44,3,3,0,0,0,.15-.36,2.11,2.11,0,0,0,.1-.3l0-.14a1.4,1.4,0,0,0,.06-.28,2,2,0,0,0,0-.26l0-.22c0-.18,0-.36,0-.55a7.16,7.16,0,0,0-1.2-3.33,16.41,16.41,0,0,1,2.81-5.73A9.16,9.16,0,0,0,155.47,98.83Zm1.55,1.39a7.93,7.93,0,0,0,.47-2.27,6.38,6.38,0,0,1,1.95,4.38c0,.24,0,.46,0,.68l0,.18a3.44,3.44,0,0,1-.09.5l-.06.22a3,3,0,0,1-.12.32,1.63,1.63,0,0,1-.11.23l-.09.16a2.5,2.5,0,0,1-.31.4l-.07.07a2.31,2.31,0,0,1-1.66.62,2,2,0,0,1-.37,0,3.45,3.45,0,0,0,.59-.92,3.82,3.82,0,0,0,.26-.72l.06-.26c0-.1,0-.2.05-.3a5.58,5.58,0,0,0,0-.73A7,7,0,0,0,157,100.22Zm23.3,79.05a7.5,7.5,0,0,0,5.24-2.05,5.07,5.07,0,0,0,1.52-3,3.46,3.46,0,0,1,.66.39.1.1,0,0,0,.07,0s.05,0,.05-.05c.43-1.3.12-2.55-1-4.06s-3.29-2.42-5.88-2.46h-.18c-3,0-4.56,1.33-5.31,2.45a4.88,4.88,0,0,0-.58,4.41.1.1,0,0,0,.06.05.09.09,0,0,0,.07,0,4.07,4.07,0,0,1,.92-.81c1.67,1.43,4.28,1.64,6.29,1.34a3,3,0,0,0,2.15-1.12,1.59,1.59,0,0,0,.16-1.34c-.3-1-2.06-1.4-3.2-1.21s-2,.59-3.52,2.16a.16.16,0,0,1-.15.05.1.1,0,0,1-.05-.09c-.07-1,0-2.13,0-2.71a4.7,4.7,0,0,1,3.61-1.63h0a5.08,5.08,0,0,1,2.94.71,7,7,0,0,1,1.24,2.24,2.93,2.93,0,0,1-.39,3.22,6.33,6.33,0,0,1-5,2.09,8.44,8.44,0,0,1-5.49-1.67h0c-1-1.13-1.07-2.22-.5-6.44a77.13,77.13,0,0,0,.13-16,105.81,105.81,0,0,0-1.91-12.15c-.25-1.14-.45-2-.48-2.31a4.77,4.77,0,0,1,1.46-3.38,5.83,5.83,0,0,1,4.25-1.51c2.94,0,4.69,1,5.21,2.82.06.24.1,1.34.14,2.61a132.37,132.37,0,0,0,1.16,14.81c1.36,9.78,3,13.37,4,15.76a10,10,0,0,1,1.15,3.89,5,5,0,0,1-1.39,3.89c-1.89,2-5.63,3.06-10.27,3-1.14,0-2.21-.07-3.25-.13.1-.56.19-1.13.27-1.72,0-.15,0-.39-.07-.49s-.37,0-.52,0a31,31,0,0,0-4,1.82c-2.39-.27-4.57-.61-6.71-.95a83.78,83.78,0,0,0-14.17-1.35,123.27,123.27,0,0,0-20.91,1.92,15.2,15.2,0,0,0-6.42-2.81,6.25,6.25,0,0,0,1.08-2.64,24.11,24.11,0,0,0-.23-5.63,70,70,0,0,1,.21-15.33c.69-6.23,1.37-10.13,1.79-12,.08-.37.17-.67.25-.92,3-.35,5.89-.78,8.65-1.19a89.1,89.1,0,0,1,12.68-1.36,113.2,113.2,0,0,1,17.11,1.43c2.83.4,5.3.75,7.75.89.07.32.15.69.28,1.12a73.26,73.26,0,0,1,1.82,12,78.58,78.58,0,0,1-.3,15.77c-.73,5.26-.46,6,.89,7.46,1.6,1.73,4.18,2.14,6,2.19Zm12.79-54.71c3.66,3.06,5.67,7,5.62,10.86a10.71,10.71,0,0,1-2,6.12c-.49.42-.95.85-1.39,1.31.63-3.59.78-9.07,0-11.82a.15.15,0,0,0-.18-.11.15.15,0,0,0-.12.18c.4,2.2.53,6.18-1,12.71a22.32,22.32,0,0,0-2.11-5,20.52,20.52,0,0,1,.56-8.1A21.1,21.1,0,0,0,193.11,124.56Zm4.41,31.19a.17.17,0,0,0-.21,0c-2.56,1.74-5.75,5.56-7.69,8.54a14.35,14.35,0,0,0,1.52-6.49c0-.14,0-.27,0-.41A8.43,8.43,0,0,1,192.2,156a24.68,24.68,0,0,1,4.15-2.79,35.44,35.44,0,0,0,5.85-4c-.42,3.05-1.71,9.28-5.43,13l-.41.12a38,38,0,0,0-5.57,1.9,50.73,50.73,0,0,1,6.72-8.31A.15.15,0,0,0,197.52,155.75Zm1.61-5.26c-1,.69-2.17,1.36-3.23,2l-.59.36-.67.27a48.19,48.19,0,0,1,4.44-8.58.17.17,0,0,0,0-.21.15.15,0,0,0-.21,0,26.42,26.42,0,0,0-4.88,8.19.36.36,0,0,0,0-.1,13.55,13.55,0,0,0,.56-6.92c1-2.08,2.88-3.45,5-5a30.73,30.73,0,0,0,3-2.92C202.92,142.71,202.73,147.26,199.13,150.49Zm-7.5,4.88,0,0-.34.38c.09-3.57-.32-9.53-1.58-12.91a.16.16,0,0,0-.19-.1.15.15,0,0,0-.11.18,57,57,0,0,1,.88,10.07,17.07,17.07,0,0,0-3.17-5.14,35.74,35.74,0,0,1,.35-8.87c.22-1.63.42-3.2.48-4.71C191.1,138.11,197.07,147.32,191.63,155.37Zm-1.36,2.41a14,14,0,0,1-2.84,8.39c-.22-.67-.45-1.43-.67-2.3.31-3.64.34-7.57-.15-9.33a.14.14,0,0,0-.17-.11.16.16,0,0,0-.14.15,61.69,61.69,0,0,1-.16,6.69c-.4-1.85-.79-4.06-1.17-6.76-.16-1.18-.3-2.32-.43-3.41a14.91,14.91,0,0,0,.61-4A14.64,14.64,0,0,1,190.27,157.78Zm-19.39,25.56a.15.15,0,0,0-.21,0,104.88,104.88,0,0,0-6.95,7.91,20.28,20.28,0,0,0,1.55-5.88,21.12,21.12,0,0,1,8.61-5.73c-.82,5.47-2.93,9.67-6.39,12.73a15.56,15.56,0,0,0-3.6.14c1.14-1.53,2.37-3.06,3.58-4.56s2.48-3.08,3.44-4.41A.15.15,0,0,0,170.88,183.34Zm-11.11,5.93a.16.16,0,0,0-.2.08,24.77,24.77,0,0,1-5.83,8.17c-.46-7.74,3.76-10.35,8.23-13.33.87-.58,1.77-1.18,2.63-1.82-.13,5.55-1.75,13.47-10,15.89,2.59-3.3,4.18-5.39,5.27-8.8A.15.15,0,0,0,159.77,189.27Zm-5.85-9.79c2.38.17,4.55.45,6.68.77l.44,3.54c-2.58,1.64-5.14,3.37-6.71,6.17ZM174.13,182c1.09.07,2.22.12,3.42.14h.18a55.19,55.19,0,0,1-4.56,3.3A26.57,26.57,0,0,0,174.13,182Zm4.77.13a21.76,21.76,0,0,0,4.42-.56,17.8,17.8,0,0,1-1.5,1.87,24.76,24.76,0,0,0-6.51,1.72A32.57,32.57,0,0,0,178.9,182.09Zm-32.73-2.73c.43,0,.87,0,1.31,0l.19,14.25a.16.16,0,0,0,.15.16.16.16,0,0,0,.16-.16l.18-14.26h1.31l-.32,10.08a.14.14,0,0,0,.15.16h0a.16.16,0,0,0,.16-.15l.6-10.09c.42,0,.85,0,1.26,0l-1.06,16.91h-4.83l-1.05-16.84,1.2,0,.57,10.37a.15.15,0,0,0,.15.14h0a.15.15,0,0,0,.15-.16ZM146,197h3.65c1.33,0,1.56.14,1.76.26s.41.37.41.85-.09.66-.41.85-.43.26-1.64.26H145.9c-1.21,0-1.46-.15-1.64-.26s-.41-.37-.41-.85.09-.66.41-.85S144.69,197,146,197Zm-10.26-8.12c.88,1.34,3.35,5.63,5,9.05l-.11-.05a14.23,14.23,0,0,0-4.76-3.32c-3.89-4.06-4.15-9.29-4.13-12.2.94.87,2,1.66,3,2.43,3.92,3,7.95,5.65,7.17,13.11-.27-.55-.62-1.15-1.12-2l-1-1.63c-.95-1.66-2.73-4.76-3.9-5.6a.15.15,0,0,0-.2,0A.15.15,0,0,0,135.76,188.89Zm-11.36.29a17.41,17.41,0,0,0,6.22,4.19c-1-.07-2-.1-2.89-.12s-2-.05-3-.15a15,15,0,0,1-6.56-6.33c5-.63,9.5-.24,13.79,2.73a15.16,15.16,0,0,0,2,4,30,30,0,0,1-9.37-4.6.15.15,0,0,0-.2,0A.15.15,0,0,0,124.4,189.18ZM102.46,168.8a17.57,17.57,0,0,1,3.33,3.36,8,8,0,0,0-.28,2.67,8.61,8.61,0,0,0,.2,1.44l-.8,0a11,11,0,0,1-3.79-3.58c-.61-.88-1.16-1.85-1.73-2.88a31.08,31.08,0,0,0-3.11-4.8c.66.11,1.37.21,2.11.3,3.1.41,6.61.88,8.91,2.91-.21.55-.42,1.05-.6,1.5-.25.6-.46,1.12-.64,1.62a12.31,12.31,0,0,0-3.43-2.78.16.16,0,0,0-.17.27Zm6.33-13.61a.16.16,0,0,0-.19.1A27.47,27.47,0,0,0,107,166.74c-4.93-7.82-.19-15.12,3.64-19.21a38.73,38.73,0,0,0,.8,4.12c-.16,1.12-.34,2.3-.58,3.52a76.19,76.19,0,0,1-3,11.51,34.16,34.16,0,0,1,1-11.3A.16.16,0,0,0,108.79,155.19ZM109,148a23.84,23.84,0,0,0-3.28,4.79l-.07.06c.64-3.7,1.22-9.23.81-11.39a.16.16,0,0,0-.18-.12.15.15,0,0,0-.13.17c.2,1.9-.4,6.54-1.34,10.79-.14-.19-.28-.37-.4-.55a12,12,0,0,0-1.74-3.51,8.55,8.55,0,0,1,.51-4.9c.37-1.11.74-1.6,1.22-3.18.57-1.84,1.25-4.4,1.67-6.5.08.18.16.37.25.56C108.2,138.33,110.52,143.34,109,148Zm-6.66-4.88a11.49,11.49,0,0,0-.72,3.52,34.59,34.59,0,0,1-2.71-11.92.16.16,0,0,0-.31,0,24.42,24.42,0,0,0,1.66,11,16.07,16.07,0,0,0-2-1.34c-4.44-6.5-1.19-15.29.68-19.08.4,1.39,1,3.62,1.53,5.08,1.27,3.29,2.62,6.75,2.59,10.89C102.83,141.93,102.6,142.39,102.36,143.11Zm1.8,14.32c-1.74-3.3-5.07-8.35-7.63-10.46a.15.15,0,0,0-.21,0,.17.17,0,0,0,0,.21,63,63,0,0,1,6.74,10.29,23.77,23.77,0,0,0-5.14-4.06c-.79-.51-1.58-1-2.3-1.51-1.71-2.36-2.31-5-2.33-8.7C101.15,145.63,104.61,150.16,104.16,157.43Zm-6.72-3.27c2.36,1.51,4.92,3.16,6.56,6.14a13.38,13.38,0,0,0,.91,4.27l0,0a50.43,50.43,0,0,0-7.22-7.15.17.17,0,0,0-.21,0,.15.15,0,0,0,0,.21c.5.62,1.32,1.51,2.27,2.53,1.54,1.68,3.41,3.72,4.75,5.47a22.11,22.11,0,0,0-3.74-.89,12.43,12.43,0,0,1-4.16-3.09,15.23,15.23,0,0,1-3.4-10.95A22.34,22.34,0,0,0,97.44,154.16ZM107.57,170a66.81,66.81,0,0,0,4.18-14.69,74,74,0,0,0,1.22-15.1,14.57,14.57,0,0,1,.15-3.15c.95-2.54,3.9-3.41,6.2-2.95,4,.82,5,3.77,5.08,4.92a9.09,9.09,0,0,1-.42,2.74c-.44,1.91-1.17,5.8-1.93,12a69.62,69.62,0,0,0-.41,15.39,23.74,23.74,0,0,1,.18,5.33,5,5,0,0,1-1.37,2.69c-1.1-.16-2.23-.25-3.36-.31a.48.48,0,0,0-.45.2c-.09.17,0,.39.16.6a8.85,8.85,0,0,1,.49.75,9.61,9.61,0,0,1-1.23.09H116a7,7,0,0,1-5.34-2.46,2.9,2.9,0,0,1-.39-3.15,5.92,5.92,0,0,1,1.28-2.12,4.66,4.66,0,0,1,3-.81,5.48,5.48,0,0,1,4.11,1.51c-.05.83-.12,1.54-.24,2.42a.1.1,0,0,1,0,.09.17.17,0,0,1-.15-.06,7.57,7.57,0,0,0-4.31-1.6h-.06a3.32,3.32,0,0,0-2.3.78,1.31,1.31,0,0,0-.36,1c0,.92.62,2,3,2h.14c2.29,0,4.32-.67,5.19-1.59a8.07,8.07,0,0,1,1.11.73.06.06,0,0,0,.07,0,.07.07,0,0,0,0,0,4.79,4.79,0,0,0-.69-4.23c-.75-1.06-2.28-2.31-5.3-2.31h-.2a8.21,8.21,0,0,0-5.82,2.41c-1.84,2-1.24,5.61-.15,6.62a.08.08,0,0,0,.07,0,.08.08,0,0,0,0-.05,3.29,3.29,0,0,1,.47-.75c1.32,1.82,3.55,2.82,6.41,2.82h.22a10.6,10.6,0,0,0,2.1-.25l.46.91c.23.46.48,1,.75,1.45a25.21,25.21,0,0,1-3.41.39c-4.39.09-9-2.23-9.24-7.53A9.53,9.53,0,0,1,107.57,170Zm10.36,7.82c4.78.3,9.8,1.38,13.09,6.94a20.66,20.66,0,0,0,.56,3.46c-.36-.22-.71-.42-1.07-.61-4.1-5-6.38-6.5-8.45-7.11a.15.15,0,0,0-.19.09.15.15,0,0,0,.06.19,22.08,22.08,0,0,1,6.55,6,18.09,18.09,0,0,0-5.85-1.06,27,27,0,0,1-3.5-5.63C118.71,179.25,118.33,178.5,117.93,177.86Zm16.72,5.94.44-3.58c2.11-.26,4.33-.49,6.68-.65l-.41,10.36c-1.51-2.54-3.87-4.18-6.08-5.7C135.06,184.09,134.86,183.94,134.65,183.8ZM143,126.47a.67.67,0,0,1,.69-.77c.42,0,.66.23.67.74l.33,11.16-1.13.06Zm4,.19c0-.79.3-1,.83-1s.81.37.77,1.06l-.13,10.89-1.34,0Zm3.93,11,.34-11.24c0-.51.26-.8.69-.8s.67.41.65.83l-.57,11.27Zm1.74.1.66-11.67c0-1-.23-1.58-1.34-1.58s-1.41.48-1.43,1.56l-.27,11.56-1.2,0,.2-11.58a1.68,1.68,0,0,0-.39-1.2,1.5,1.5,0,0,0-1.1-.34,1.59,1.59,0,0,0-1.14.37,1.54,1.54,0,0,0-.36,1.17l.2,11.53h-.28l-.91,0-.26-11.49c0-1.08-.4-1.52-1.36-1.52a1.57,1.57,0,0,0-1.08.37,1.55,1.55,0,0,0-.33,1.17L143,137.7l-1.2.11L140.84,123h14l-.93,14.84C153.52,137.83,153.12,137.81,152.71,137.78Zm2-15.87a28.12,28.12,0,0,1-2.95.08H144a28.12,28.12,0,0,1-2.95-.08c-.8-.12-1-.26-1.18-.55a3.62,3.62,0,0,1-.31-1.09h16.67a3.16,3.16,0,0,1-.29,1C155.7,121.65,155.49,121.79,154.69,121.91Zm-15.37-2.63a.76.76,0,0,1-.82-.86v-.18a.88.88,0,0,1,.82-.9h17.14c.48,0,.73.3.73.9v.18a.83.83,0,0,1-.81.86Zm-1.11-6.85a4.34,4.34,0,0,1,1.46-.06l.14.59c.13.85,0,1.28-.59,1.55l-.29.12Zm17.53-1.11a.39.39,0,0,0-.38.32l-.24,1.21a2.05,2.05,0,0,0,1,2.38l.85.34c.09,0,.16.07.13.3l-.24.66-18.13,0-.24-.68c0-.23,0-.26.13-.3l.87-.35a2,2,0,0,0,1-2.41l-.26-1.11a.4.4,0,0,0-.37-.3l-2.34-.08c-.73,0-.82-.17-.88-.38l-.19-.78h22.64l-.19.76c-.06.24-.1.38-.75.4Zm1.74,1.1-.72,2.21-.27-.11c-.55-.27-.7-.67-.6-1.55l.14-.68A4.64,4.64,0,0,1,157.48,112.42Zm.81-3.37H137.4c-3.2,0-3.33-.07-3.66-.26s-.35-.32-.35-.89a.94.94,0,0,1,.38-.86c.34-.21,1.19-.29,5.33-.29h17.49c4.14,0,5,.08,5.32.29a.92.92,0,0,1,.39.86c0,.57-.13.77-.35.89S161.49,109.05,158.29,109.05Zm-19.43-7.73a5.48,5.48,0,0,0-.24,1.56,4.1,4.1,0,0,0,0,.62,1.08,1.08,0,0,0,0,.19,4.85,4.85,0,0,0,.22.75,3.56,3.56,0,0,0,.58,1,1.78,1.78,0,0,1-1.1.33,2.07,2.07,0,0,1-.92-.2h0a2.42,2.42,0,0,1-.45-.31l0,0-.16-.18-.05-.06a1.76,1.76,0,0,1-.14-.23l0,0a1.66,1.66,0,0,1-.15-.33l0-.08a2.81,2.81,0,0,1-.08-.31.89.89,0,0,1,0-.14l-.06-.34s0-.1,0-.15a4.63,4.63,0,0,1,0-.54,8.69,8.69,0,0,1,2.06-5.24A6.71,6.71,0,0,0,138.86,101.32Zm2-8.45a7.86,7.86,0,0,1,3,3.12c-.17.5-.36,1-.54,1.44a12.09,12.09,0,0,0-1,3.81,8.32,8.32,0,0,0,0,.86v.14a6.54,6.54,0,0,0,.11.79v0a4.36,4.36,0,0,0,.58,1.44,4,4,0,0,0,.43.56l0,0a3.58,3.58,0,0,1-1.32.23,2.46,2.46,0,0,1-2.44-2.25,2.92,2.92,0,0,1,0-.51,5.11,5.11,0,0,1,.71-2.55l0-.09C141.89,96.86,142,94.6,140.87,92.87Zm10.82,10a5.74,5.74,0,0,1,0,.6l0,.2-.06.32-.06.22a2.44,2.44,0,0,1-.1.24,1,1,0,0,1-.08.18h0a2.16,2.16,0,0,1-2.13,1,2.08,2.08,0,0,1-2-1.1,2.72,2.72,0,0,1-.16-.38l0-.09a3.44,3.44,0,0,1-.11-.38,2,2,0,0,0,0-.24c0-.11,0-.21,0-.33s0-.43,0-.68a13.78,13.78,0,0,1,.81-3.81,18.77,18.77,0,0,0,.6-2.3c.22.33.49.69.8,1.1C150.12,99,151.69,101.06,151.69,102.89Zm-.8-4.3c-.41-.57-.85-1.14-1.32-1.74-.59-.76-1.21-1.54-1.81-2.4a.16.16,0,0,0-.18-.06.14.14,0,0,0-.1.16,10.32,10.32,0,0,1-.86,4.25,11.27,11.27,0,0,0-.87,3.76c0,.23,0,.46,0,.67l0,.25c0,.12,0,.24.07.36a4,4,0,0,0,.21.72,3.56,3.56,0,0,0,.31.65,3.3,3.3,0,0,1-1.54-.67h0a3.42,3.42,0,0,1-1.18-2v0a3.54,3.54,0,0,1-.08-.45h0a3,3,0,0,1,0-.42.31.31,0,0,1,0-.1c0-.14,0-.28,0-.42a10,10,0,0,1,.79-3.32,13.39,13.39,0,0,0,1-4.67,6.76,6.76,0,0,0-1.92-4.79,12.91,12.91,0,0,1,8,8.9C151.22,97.66,151,98.12,150.89,98.59Zm-52.34,16.7,32.69-10.76a.15.15,0,0,0,.11-.18.16.16,0,0,0-.18-.12l-28.72,5.56a58.06,58.06,0,0,1,5.74-6.2l24.06-3.07a.16.16,0,0,0,.14-.16.15.15,0,0,0-.15-.15L113.62,99.1a58.45,58.45,0,0,1,6.64-4.19l13.61,1.82h0a.16.16,0,0,0,.15-.12.16.16,0,0,0-.09-.18l-9-3.79a55,55,0,0,1,6.38-2.3l5.22,3.28.08,0a.16.16,0,0,0,.13-.25L134,89.63a57.29,57.29,0,0,1,8.25-1.4,6.4,6.4,0,0,1,2.16,4.44,10,10,0,0,1-.24,2.25,8.46,8.46,0,0,0-5.08-3.57.16.16,0,0,0-.16.09.15.15,0,0,0,0,.18,4.94,4.94,0,0,1,1.78,4.61,10.59,10.59,0,0,1-1.13,3.33l-.22.45a4.76,4.76,0,0,1,.06-4.23.16.16,0,0,0,0-.18.17.17,0,0,0-.19,0c-2.33,1.41-4,5.28-4,7.86a3.08,3.08,0,0,0,.88,2.54c-2,.05-2.43.16-2.79.39a1.71,1.71,0,0,0-.75,1.52,1.65,1.65,0,0,0,.75,1.57c.41.23.65.32,2.31.35l.31,1.31a1.32,1.32,0,0,0,1.31,1l.93,2.85a1,1,0,0,0-.43,1.11s0,0,0,.06l.35,1h0a1.79,1.79,0,0,0-.43,1.15v.18a1.51,1.51,0,0,0,1,1.54,3.49,3.49,0,0,0,.38,1.76,1.67,1.67,0,0,0,.93.79l1,15.38q-1.63.18-3.36.42l.74-9.93a.17.17,0,0,0-.13-.17.16.16,0,0,0-.18.12l-2.74,10.31-1.86.28-3.55.53,6.06-17.7a.16.16,0,0,0-.28-.13l-10.37,17.75c0-.06,0-.11,0-.18a6.38,6.38,0,0,0-3.37-4.87l12.2-18.15a.16.16,0,0,0,0-.21.15.15,0,0,0-.21,0l-16.39,17.35a5.9,5.9,0,0,0-5.29,3.64,7,7,0,0,0-.2,2.17l-2.14,2.25a33.91,33.91,0,0,0-2-5.49l23.67-23.07a.15.15,0,0,0,0-.21.15.15,0,0,0-.21,0L102.42,133c-.38-1.1-.79-2.17-1.19-3.21-.32-.82-.63-1.63-.91-2.42L130.19,109a.16.16,0,0,0-.14-.28L94.23,123.6A56.88,56.88,0,0,1,98.55,115.29ZM91.19,133l5.16-3.17a21.65,21.65,0,0,0-1.15,8.29l-5.33,3.77A59.16,59.16,0,0,1,91.19,133Zm.4,27.73a55.88,55.88,0,0,1-1.44-7.61l2.37-2.31a16.72,16.72,0,0,0,1.12,7.75Zm9.59,20a58.19,58.19,0,0,1-5-8l2.1-3.14.35.62a30.94,30.94,0,0,0,1.79,3A13.77,13.77,0,0,0,103,176a13.15,13.15,0,0,1-1.39-.28.59.59,0,0,0-.52.08.57.57,0,0,0,0,.51,11.37,11.37,0,0,0,1.27,2.34Zm.79-4.11a29.76,29.76,0,0,0,4,.48,8.51,8.51,0,0,0,5.43,5.49l-.59.06-2.35.22A15.46,15.46,0,0,1,102,176.63Zm5.86,7c.9-.07,1.8-.16,2.68-.25s2-.21,3-.27a14.25,14.25,0,0,0,1.9.14h.28a19.31,19.31,0,0,0,2-.16,18.88,18.88,0,0,1,2.26.3,21.32,21.32,0,0,0,1.59,2.32c-1,0-1.93.09-2.88.2a31,31,0,0,0-4.31-.46.15.15,0,0,0-.16.13.15.15,0,0,0,.12.17l.17,0,2.7.61a.37.37,0,0,0,0,.18,17.55,17.55,0,0,0,2.48,3.64C115.55,190,111.42,188.27,107.83,183.64Zm12,13.39a58.61,58.61,0,0,1-7.87-5.21l.9-2.63a15.32,15.32,0,0,0,7.64,1.91c.24.23.48.45.73.66Zm11.1,4.19c-3.76-.84-6.87-3.53-9-7.81a18.79,18.79,0,0,0,5.81.71c3.9.09,8.31.19,12.43,4.46l0,.06a25.72,25.72,0,0,1-11.59-1.72.15.15,0,0,0-.19.06.15.15,0,0,0,0,.2c2.52,2.19,6.72,2.72,10.24,2.72l1,0A12.39,12.39,0,0,1,130.94,201.22Zm13.18,1.55c-.59.2-2.63.9-3.66,1.18-1.22.32-1.79.16-2-.29s0-.9.89-1.25l5-2a3.6,3.6,0,0,0-.36,1.55A5.06,5.06,0,0,0,144.12,202.77Zm3.72,2.11a2.83,2.83,0,0,1-3-3.15,3.3,3.3,0,0,1,.45-1.65,24.77,24.77,0,0,1,5.1,0,3.22,3.22,0,0,1,.46,1.66A2.81,2.81,0,0,1,147.84,204.88Zm9.35-1.22c-.17.45-.74.61-2,.29-1-.28-3.07-1-3.66-1.18a5.06,5.06,0,0,0,.06-.79,3.6,3.6,0,0,0-.36-1.55l5,2C157.22,202.76,157.38,203.13,157.19,203.66Zm-.53-4a26.71,26.71,0,0,1,11.7-3,.15.15,0,0,0,.15-.15.15.15,0,0,0-.13-.16,23.77,23.77,0,0,0-10.32,1.36,13.22,13.22,0,0,0,4.22-3.89c2.87-1,5.79-.6,8.63-.16,1.3.19,3,.25,4.27.3C171.52,198.11,164.57,203.59,156.66,199.63Zm21.77-4.11-.74-2.45a17.93,17.93,0,0,0,8-4.82l.55,1.44A57.33,57.33,0,0,1,178.43,195.52Zm-7.51-2.74c-.71-.1-1.44-.21-2.18-.29a46.91,46.91,0,0,1,13.48-5.57.16.16,0,0,0,.12-.18.18.18,0,0,0-.18-.13,34.66,34.66,0,0,0-11.61,3.76,19,19,0,0,0,1.52-2.45c3.94-2.91,9.49-4.4,16.05-4.09C184,190.27,178.13,193.36,170.92,192.78Zm16-9.63a34.85,34.85,0,0,0-3.86.12,20.43,20.43,0,0,0,1.27-1.71c3.73-1.47,6.5-3.3,8.23-5.45a.15.15,0,0,0,0-.21.17.17,0,0,0-.22,0,19.77,19.77,0,0,1-3.38,2.39,5.93,5.93,0,0,0,1.19-4.05.22.22,0,0,1,0-.08c.81-.15,1.64-.27,2.46-.39,1.26-.18,2.69-.57,3.92-.88C195,177.36,192.05,182,187,183.15Zm8.77-4.11-.64-1a25.61,25.61,0,0,0,2.42-5.43.44.44,0,0,0-.11-.44A.43.43,0,0,0,197,172a21.6,21.6,0,0,1-2.75.61,17.21,17.21,0,0,0,4.12-3.47l1.73,2.51A58.31,58.31,0,0,1,195.72,179ZM191,173.11l-1,.17a10.55,10.55,0,0,0-.74-2.41,28,28,0,0,0,6.46-4.76.16.16,0,0,0,0-.22.15.15,0,0,0-.21,0,23.05,23.05,0,0,1-6.62,4.12c-.32-.71-.68-1.53-1.08-2.6a10.23,10.23,0,0,1,3-2.2,32.91,32.91,0,0,1,5.69-2.1c1.54-.44,3.4-1,4.91-1.6A16.81,16.81,0,0,1,191,173.11Zm13.28-13.24-3.09-3.2a31.25,31.25,0,0,0,1.8-7l2.63,2.48A59.71,59.71,0,0,1,204.32,159.87Zm1.41-19-2.58-1.74c-.05-.68-.12-1.38-.2-2.12,0-.16,0-.42-.21-.47a.35.35,0,0,0-.39.13c-.35.41-.73.79-1.11,1.17l-1.72-1.15a10.39,10.39,0,0,0,.08-1.26,12.65,12.65,0,0,0-2.14-7.14l6.87,4A57.19,57.19,0,0,1,205.73,140.87ZM164.5,105.41l33.15,10.69a59.1,59.1,0,0,1,3.79,7.44l-35.81-14.33a.16.16,0,0,0-.2.08.16.16,0,0,0,.07.2l26.86,15.8a20,20,0,0,1-.66,5.23c0,.26-.11.52-.16.79l-26.74-18a.16.16,0,0,0-.21,0,.16.16,0,0,0,0,.21l22.49,21.15c-.07,1.35-.25,2.77-.44,4.25-.1.76-.2,1.55-.29,2.34l-2.66-2.75a12.41,12.41,0,0,0-.07-1.37c-.34-1.81-2-3.12-4.61-3.49l-16.94-17.54a.15.15,0,0,0-.21,0,.17.17,0,0,0,0,.21l12.4,18a5.86,5.86,0,0,0-1.55,1.07,5.59,5.59,0,0,0-1.68,3.33l-10.65-17.39a.16.16,0,0,0-.2-.05.16.16,0,0,0-.08.19l6.92,18c-1.12-.14-2.29-.31-3.53-.48l-2.25-.32-3.42-11.29a.17.17,0,0,0-.18-.11.16.16,0,0,0-.12.17l1,10.88c-1.22-.15-2.49-.28-3.83-.4l1-15.42a1.79,1.79,0,0,0,1-.84,3.41,3.41,0,0,0,.35-1.73,1.64,1.64,0,0,0,1-1.52v-.18a1.79,1.79,0,0,0-.4-1.22l.33-.92s0,0,0-.06a1,1,0,0,0-.43-1.1l.93-2.85a1.27,1.27,0,0,0,1.34-1l.32-1.3c1.62,0,1.87-.12,2.27-.35a1.65,1.65,0,0,0,.75-1.57,1.71,1.71,0,0,0-.75-1.52c-.37-.23-.77-.35-2.9-.39.66-.57.95-1.55.95-3a8.66,8.66,0,0,0-3.27-6.51.15.15,0,0,0-.17,0,.14.14,0,0,0-.08.15,5.65,5.65,0,0,1-.38,2.4c-.06-.15-.13-.29-.2-.43-.83-1.77-1.7-3.6-1-6.37a.17.17,0,0,0-.07-.17.15.15,0,0,0-.19,0,14.6,14.6,0,0,0-2.88,3.66,13.55,13.55,0,0,0-7.78-7.61c1.14-.06,2.3-.1,3.45-.1,1.7,0,3.38.08,5,.22L152,91a.15.15,0,0,0,.08.18l.07,0a.14.14,0,0,0,.12-.06l2.31-2.78c1.4.17,2.78.38,4.15.64l-2.1,3a.17.17,0,0,0,0,.2.15.15,0,0,0,.11,0,.16.16,0,0,0,.09,0l3.82-2.8c1.43.32,2.83.69,4.22,1.12l-4.67,4a.16.16,0,0,0,.1.28l.06,0,7.47-3.23c1.83.67,3.61,1.44,5.35,2.28l-11,4.41a.14.14,0,0,0-.09.19.15.15,0,0,0,.15.11h0l14.49-2.83h0a58.26,58.26,0,0,1,6.59,4.42l-19.14,1.24a.15.15,0,0,0-.14.16.15.15,0,0,0,.14.15L187,103.17a56.69,56.69,0,0,1,6.22,6.65l-28.68-4.71a.16.16,0,0,0-.08.3Z" transform="translate(-57.84 -56.09)"/><path class="cls-1" d="M141.12,149.33l1.88-.1a.35.35,0,0,1,.41.39v.46a.37.37,0,0,1-.4.43l-2.88.16a.35.35,0,0,1-.41-.4v-5a.38.38,0,0,1,.4-.43l.56,0c.26,0,.39.12.39.39C141.09,146.88,141.1,147.7,141.12,149.33Z" transform="translate(-57.84 -56.09)"/><path class="cls-1" d="M147.14,150.47h-.53a.49.49,0,0,1-.55-.39c-.76-2-1.13-3-1.84-5a.27.27,0,0,1,.26-.39h.65a.46.46,0,0,1,.52.39c.49,1.43.75,2.15,1.27,3.58.51-1.44.75-2.16,1.24-3.6a.47.47,0,0,1,.52-.4h.57a.28.28,0,0,1,.26.39c-.71,2-1.07,3-1.82,5.07A.49.49,0,0,1,147.14,150.47Z" transform="translate(-57.84 -56.09)"/><path class="cls-1" d="M151.73,150.49l-.75,0a.22.22,0,0,1-.17-.35c.69-1,1-1.56,1.7-2.59-.59-1-.88-1.5-1.45-2.5a.22.22,0,0,1,.19-.34l.78,0a.58.58,0,0,1,.59.38l.83,1.49c.34-.56.51-.84.84-1.4a.53.53,0,0,1,.6-.33l.72,0a.23.23,0,0,1,.19.35c-.59.94-.89,1.41-1.5,2.35l1.68,2.76a.21.21,0,0,1-.18.33l-.81,0a.59.59,0,0,1-.62-.38l-1-1.74-1,1.64A.56.56,0,0,1,151.73,150.49Z" transform="translate(-57.84 -56.09)"/><path class="cls-1" d="M130.39,162l-.56.08a.47.47,0,0,1-.59-.31c-.87-1.9-1.3-2.85-2.11-4.75a.3.3,0,0,1,.26-.42l.68-.09a.43.43,0,0,1,.56.31c.57,1.35.86,2,1.46,3.38.48-1.5.72-2.25,1.18-3.74a.55.55,0,0,1,.54-.46l.6-.09a.25.25,0,0,1,.28.35c-.68,2.11-1,3.17-1.74,5.28A.58.58,0,0,1,130.39,162Z" transform="translate(-57.84 -56.09)"/><path class="cls-1" d="M135.3,161.44c-.28,0-.43-.11-.43-.38,0-2,0-3-.05-4.95a.4.4,0,0,1,.41-.44l3.26-.28a.35.35,0,0,1,.42.38v.41a.39.39,0,0,1-.4.45l-2.27.19c0,.4,0,.6,0,1l1.57-.14a.35.35,0,0,1,.43.38v.37a.38.38,0,0,1-.4.44l-1.59.13c0,.45,0,.67,0,1.12l2.32-.19a.35.35,0,0,1,.43.38c0,.16,0,.24,0,.41a.4.4,0,0,1-.4.45Z" transform="translate(-57.84 -56.09)"/><path class="cls-1" d="M142.31,161h-.61a.36.36,0,0,1-.42-.4c0-2,0-3,0-5a.38.38,0,0,1,.41-.43l1.89-.06a1.77,1.77,0,0,1,2,1.74,1.6,1.6,0,0,1-.94,1.53c.46.84.69,1.25,1.16,2.09a.24.24,0,0,1-.22.37l-.73,0a.53.53,0,0,1-.61-.35c-.38-.71-.57-1.07-.93-1.78l-.65,0c0,.71,0,1.06,0,1.77A.39.39,0,0,1,142.31,161Zm1.27-4.67-.87,0v1.31l.88,0a.63.63,0,0,0,.62-.66A.6.6,0,0,0,143.58,156.31Z" transform="translate(-57.84 -56.09)"/><path class="cls-1" d="M148.34,160.87a.37.37,0,0,1-.41-.42c0-2,0-3,0-5,0-.28.14-.42.41-.41H149c.27,0,.4.14.41.42,0,2,0,3,0,5a.36.36,0,0,1-.42.41Z" transform="translate(-57.84 -56.09)"/><path class="cls-1" d="M153.37,161a.38.38,0,0,1-.41-.43l0-4.09-1.29-.06a.38.38,0,0,1-.4-.44c0-.18,0-.27,0-.45a.37.37,0,0,1,.42-.4l4,.19a.38.38,0,0,1,.41.43v.46c0,.27-.13.4-.4.39l-1.3-.06c0,1.64,0,2.46,0,4.09a.36.36,0,0,1-.43.4Z" transform="translate(-57.84 -56.09)"/><path class="cls-1" d="M157.71,161.23l-.61-.06a.28.28,0,0,1-.26-.41c.88-1.94,1.31-2.91,2.13-4.86a.46.46,0,0,1,.56-.33l.58.05a.55.55,0,0,1,.55.44c.75,2.09,1.13,3.13,1.91,5.22.08.22,0,.39-.27.36l-.7-.06a.53.53,0,0,1-.56-.44c-.11-.3-.16-.45-.26-.75l-2.2-.2-.29.7A.47.47,0,0,1,157.71,161.23Zm2.68-2-.65-1.92c-.28.72-.43,1.08-.72,1.8Z" transform="translate(-57.84 -56.09)"/><path class="cls-1" d="M133.31,172l-.58.06a.49.49,0,0,1-.61-.33c-.89-1.93-1.32-2.89-2.15-4.82a.29.29,0,0,1,.26-.41l.71-.08c.32,0,.46,0,.57.33.59,1.38.88,2.06,1.49,3.43.5-1.48.75-2.22,1.24-3.71a.54.54,0,0,1,.55-.44l.61-.06a.25.25,0,0,1,.29.35c-.7,2.1-1.07,3.15-1.81,5.24A.55.55,0,0,1,133.31,172Z" transform="translate(-57.84 -56.09)"/><path class="cls-1" d="M138.39,171.6c-.29,0-.44-.11-.44-.39,0-2-.06-3-.09-5a.4.4,0,0,1,.42-.44l.61,0a.36.36,0,0,1,.43.39c.05,2,.07,3,.13,5a.4.4,0,0,1-.43.44Z" transform="translate(-57.84 -56.09)"/><path class="cls-1" d="M143,171.38h-.62c-.29,0-.44-.13-.44-.4,0-2,0-3,0-5a.38.38,0,0,1,.42-.42l2,0a1.84,1.84,0,0,1,2.11,1.75,1.59,1.59,0,0,1-1,1.53c.47.84.71,1.26,1.19,2.1a.25.25,0,0,1-.22.37h-.77A.56.56,0,0,1,145,171c-.38-.72-.58-1.08-1-1.79h-.66V171C143.43,171.23,143.28,171.37,143,171.38Zm1.31-4.66-.9,0c0,.52,0,.79,0,1.31l.9,0a.62.62,0,0,0,.64-.66A.61.61,0,0,0,144.3,166.72Z" transform="translate(-57.84 -56.09)"/><path class="cls-1" d="M150,171.33c-.29,0-.43-.15-.43-.42,0-1.64,0-2.46,0-4.1l-1.34,0a.36.36,0,0,1-.41-.42c0-.18,0-.27,0-.45a.37.37,0,0,1,.42-.41l4.11.07a.39.39,0,0,1,.43.43v.45a.37.37,0,0,1-.42.41l-1.34,0c0,1.64,0,2.46,0,4.1,0,.27-.14.41-.43.41Z" transform="translate(-57.84 -56.09)"/><path class="cls-1" d="M157.3,171.66l-.57,0a.57.57,0,0,1-.59-.42c-.76-2.07-1.14-3.11-1.87-5.18a.26.26,0,0,1,.28-.37l.7,0a.53.53,0,0,1,.56.42c.51,1.47.77,2.2,1.29,3.67.58-1.4.87-2.1,1.42-3.49a.47.47,0,0,1,.57-.36l.62,0a.3.3,0,0,1,.27.41c-.81,2-1.22,3-2.08,4.92A.51.51,0,0,1,157.3,171.66Z" transform="translate(-57.84 -56.09)"/><path class="cls-1" d="M166.13,161.09c.36,0,.61-.11.62-.36s-.11-.35-.34-.53l-1.11-.79a1.83,1.83,0,0,1-.86-1.6,1.66,1.66,0,0,1,2-1.52,2.6,2.6,0,0,1,1.46.65.38.38,0,0,1,0,.56l-.26.29c-.17.2-.36.19-.58,0a1.32,1.32,0,0,0-.68-.31c-.33,0-.53.13-.54.36s.09.35.34.53l1.11.8a1.86,1.86,0,0,1,.88,1.58,1.68,1.68,0,0,1-2.06,1.53,2.92,2.92,0,0,1-1.82-.86.38.38,0,0,1,0-.6l.3-.29a.36.36,0,0,1,.57,0A1.75,1.75,0,0,0,166.13,161.09Z" transform="translate(-57.84 -56.09)"/><path class="cls-1" d="M163.18,171c.35,0,.6-.12.62-.38s-.11-.35-.34-.52l-1.09-.78a1.82,1.82,0,0,1-.85-1.59,1.7,1.7,0,0,1,2-1.54,2.45,2.45,0,0,1,1.44.63.37.37,0,0,1,0,.56l-.25.29c-.18.21-.36.2-.58,0a1.27,1.27,0,0,0-.66-.31c-.33,0-.53.14-.54.38s.08.34.33.52l1.09.79a1.82,1.82,0,0,1,.86,1.57,1.69,1.69,0,0,1-2,1.55,2.77,2.77,0,0,1-1.79-.83.39.39,0,0,1,0-.61l.29-.29c.19-.19.37-.17.58,0A1.72,1.72,0,0,0,163.18,171Z" transform="translate(-57.84 -56.09)"/><path class="cls-1" d="M71.82,154.47a.4.4,0,0,1-.45.45H70.7a.4.4,0,0,1-.45-.45v-4.34l-.65.16c-.28.07-.44,0-.44-.35v-.49a.51.51,0,0,1,.43-.59l.55-.17a2.09,2.09,0,0,1,.79-.15h.44a.4.4,0,0,1,.45.46Z" transform="translate(-57.84 -56.09)"/><path class="cls-1" d="M76.41,155.06c-1.6,0-2.5-.89-2.5-1.9a1.69,1.69,0,0,1,1-1.52,1.58,1.58,0,0,1-.9-1.43c0-1,.89-1.81,2.39-1.81s2.38.85,2.38,1.81a1.59,1.59,0,0,1-.89,1.43,1.69,1.69,0,0,1,1,1.52C78.91,154.17,78,155.06,76.41,155.06Zm0-2.77c-.63,0-1,.36-1,.75s.35.76,1,.76,1-.35,1-.76S77,152.29,76.41,152.29Zm-.87-1.94c0,.36.3.7.87.7s.87-.34.87-.7-.3-.69-.87-.69S75.54,150,75.54,150.35Z" transform="translate(-57.84 -56.09)"/><path class="cls-1" d="M217.3,154.93l-.25-.47a.4.4,0,0,1,.2-.6,3.83,3.83,0,0,0,1.81-1.46,1.83,1.83,0,0,1-1.08.35,2,2,0,0,1-2.09-2.09,2.31,2.31,0,0,1,2.57-2.26,2.35,2.35,0,0,1,2.46,2.48,4.51,4.51,0,0,1-3,4.28A.43.43,0,0,1,217.3,154.93Zm.12-4.27a.89.89,0,0,0,1,.91.91.91,0,0,0,1-.93,1,1,0,0,0-1.93,0Z" transform="translate(-57.84 -56.09)"/><path class="cls-1" d="M224.9,155.06c-1.6,0-2.5-.89-2.5-1.9a1.67,1.67,0,0,1,1-1.52,1.58,1.58,0,0,1-.9-1.43c0-1,.88-1.81,2.39-1.81s2.38.85,2.38,1.81a1.58,1.58,0,0,1-.9,1.43,1.67,1.67,0,0,1,1,1.52C227.39,154.17,226.49,155.06,224.9,155.06Zm0-2.77c-.63,0-1,.36-1,.75s.35.76,1,.76,1-.35,1-.76S225.53,152.29,224.9,152.29Zm-.87-1.94c0,.36.29.7.87.7s.86-.34.86-.7-.3-.69-.86-.69S224,150,224,150.35Z" transform="translate(-57.84 -56.09)"/><path class="cls-1" d="M146.68,111.25l-4.06.08a.39.39,0,0,0-.28.13.38.38,0,0,0-.1.29,13.19,13.19,0,0,0,.27,2,2.1,2.1,0,0,0,2.22,1.59,1.93,1.93,0,0,0,2.12-1.69c.12-.76.22-1.91.23-1.95a.38.38,0,0,0-.11-.3A.39.39,0,0,0,146.68,111.25Zm-.6,2.26a1.18,1.18,0,0,1-1.35,1,1.31,1.31,0,0,1-1.46-1,7.88,7.88,0,0,1-.18-1,4.47,4.47,0,0,1,3.13-.13C146.19,112.73,146.14,113.17,146.08,113.51Z" transform="translate(-57.84 -56.09)"/><path class="cls-1" d="M153.06,111.27H149a.48.48,0,0,0-.29.13.41.41,0,0,0-.1.3l0,.32a16.6,16.6,0,0,0,.19,1.65,1.92,1.92,0,0,0,2.1,1.67h.05a2.15,2.15,0,0,0,2.24-1.63,12.28,12.28,0,0,0,.27-2,.38.38,0,0,0-.1-.29A.41.41,0,0,0,153.06,111.27Zm-.65,2.23a1.37,1.37,0,0,1-1.48,1,1.17,1.17,0,0,1-1.36-1c-.09-.59-.11-.74-.15-1.15a4.47,4.47,0,0,1,3.17.07A8,8,0,0,1,152.41,113.5Z" transform="translate(-57.84 -56.09)"/><path class="cls-1" d="M103.79,199l.35-.42c-.84-.71-1.76-1.49-2.59-2.28l-.37.4c.37.66.32,1.45-1,2.83L97.75,202c-1.56,1.65-3.63,2-5.37.22-1.59-1.59-1.32-3.47.42-5.15l3-2.92c1.22-1.17,1.49-1.13,2.19-.64l.4-.37c-1-1.07-2.11-2.31-3.06-3.44l-.43.37c.43.74.41,1-.83,2.17l-3.21,3c-2,1.82-2.65,4.8.09,7.54s5.71,2.09,7.56.11l2.49-2.67C102.34,198.83,103.08,198.64,103.79,199Z" transform="translate(-57.84 -56.09)"/><path class="cls-1" d="M115.88,207.07l.26-.48c-1-.55-2-1.1-3-1.7l-.28.47c.51.57.62,1.33-.36,3l-2.13,3.57-2-9.38c-.17-.78-.29-.95-.5-1.1-.51-.36-1.6-1.18-2.36-1.78l-.33.42c.32.32.37.7.53,1.92a1.35,1.35,0,0,1-.2,1.1l-3.26,4.66c-1.11,1.58-1.75,1.79-2.52,1.54l-.33.44c.93.71,1.89,1.42,2.86,2.08l.32-.45c-.48-.6-.53-1.21.63-2.9l2.87-4.21,2.49,11.56.66.35,4.3-7.27C114.45,207.23,115.13,206.92,115.88,207.07Z" transform="translate(-57.84 -56.09)"/><path class="cls-1" d="M118.48,208.35c.73.52.79.76.11,2.31L116,216.57c-.69,1.54-.88,1.68-1.76,1.51l-.21.5c1.43.67,2.87,1.29,4.36,1.88l.21-.5c-.73-.52-.76-.76-.11-2.31l2.51-6c.65-1.55.88-1.68,1.75-1.5l.21-.51c-1.43-.56-2.83-1.17-4.22-1.82Z" transform="translate(-57.84 -56.09)"/><path class="cls-1" d="M133.4,213.4c.86.43,1.1,1,.33,1.94l-4.5,5.4-1.36-7c-.16-.87.12-1.44.91-1.45l.15-.52c-1.44-.42-3-.94-4.64-1.53l-.2.52c.56.45.68.93,1,2.45l2.26,10.57.72.19,6.79-8.1c1-1.18,1.65-1.64,2.32-1.73l.08-.54c-1.23-.19-2.47-.43-3.74-.69Z" transform="translate(-57.84 -56.09)"/><path class="cls-1" d="M147.17,224.41c-.67.41-1.86.59-3.91.47-1.52-.09-1.61-.13-1.72-.26a.81.81,0,0,1-.14-.64c.07-1.12.2-2.74.34-4.22a10.3,10.3,0,0,1,3.13.43,1.25,1.25,0,0,1,.77,1l.58,0,.09-3.4-.57,0a1.17,1.17,0,0,1-.83.92,8.17,8.17,0,0,1-3.08,0c.11-1.21.21-2.22.27-2.56a1.37,1.37,0,0,1,.24-.72c.15-.13.33-.17,1.67-.09,2.38.14,3.06.37,4.42,1.47l.4-.29-.79-2.16c-1.3,0-2.83,0-4.39-.12-1.85-.11-3.58-.28-5-.47l-.08.55c.83.26,1,.5.84,2.18l-.61,6.41c-.15,1.68-.36,1.88-1.23,2l-.05.54c1.45.19,3.84.41,5.4.5s4.45.18,5.6.15l.76-3-.51-.2A6.37,6.37,0,0,1,147.17,224.41Z" transform="translate(-57.84 -56.09)"/><path class="cls-1" d="M164.23,223.55c-1.22.19-2.34-1.52-4.23-3.52,2-.71,3-2,2.76-3.65-.27-2.06-2-3.25-5.54-2.68-2.05.33-4.33.48-5.67.56l0,.56c.87.09,1.07.3,1.24,2l.62,6.43c.17,1.68,0,1.89-.84,2.16l.06.54c1.08-.06,3.13-.24,4.77-.42l-.06-.55c-.85-.09-1.05-.27-1.24-1.94l-.24-2.08c.4-.07.8-.13,1.22-.18,2.86,3.1,4.11,4.5,6.43,4.14a2.39,2.39,0,0,0,2-1.49l-.47-.31A1.2,1.2,0,0,1,164.23,223.55Zm-6.43-4a16.19,16.19,0,0,1-2,.22l-.54-4.7c.48-.08,1-.17,1.56-.24,2.1-.28,3.12.52,3.37,2S159.6,219.29,157.8,219.58Z" transform="translate(-57.84 -56.09)"/><path class="cls-1" d="M171.6,215c-2.5.29-3.9.52-4.37-.9-.24-.74.21-1.78,1.78-2.3,1.87-.61,3.33,0,4.93.95l.41-.34-1.71-2.52-.3,0a1,1,0,0,1-.43.29c-.88.29-1.48,0-3.18.55-2.28.75-3.85,2.69-3.14,4.85.84,2.58,3.38,2.34,5.69,2.06s3.79-.53,4.24.86c.28.83-.26,2-1.88,2.48a6.44,6.44,0,0,1-6.26-1.08l-.41.34,1.67,2.92.31,0a1.32,1.32,0,0,1,.65-.44c1.14-.38,2,.09,4.31-.68,2.07-.67,4.06-2.56,3.26-5S173.88,214.74,171.6,215Z" transform="translate(-57.84 -56.09)"/><path class="cls-1" d="M183.22,214.88l-2.92-5.78c-.76-1.5-.71-1.75,0-2.31l-.25-.48c-1.35.72-2.73,1.4-4.12,2l.23.5c.86-.22,1.09-.11,1.83,1.41l2.8,5.83c.74,1.52.71,1.76,0,2.31l.24.49q2.16-1,4.26-2.1l-.24-.49C184.18,216.51,184,216.38,183.22,214.88Z" transform="translate(-57.84 -56.09)"/><path class="cls-1" d="M192.8,209l-4.06-5.77c-.49-.72-.46-.92.1-1.3.91-.63,2.23-.78,4-.36l.29-.47-2.53-1.86c-1.19.95-2.41,1.89-4.12,3.07s-3,2-4.31,2.74l.83,3,.54-.1c.26-1.85.86-3,1.77-3.65.56-.38.75-.35,1.25.37l3.95,5.84c.94,1.4.95,1.64.34,2.29l.31.45c1.33-.86,2.63-1.75,3.91-2.7l-.31-.45C194,210.5,193.77,210.41,192.8,209Z" transform="translate(-57.84 -56.09)"/><path class="cls-1" d="M203.82,199.45l-1.95-1.88-.57-4.95c-.21-1.78-.24-2.59,0-3.21l-.44-.34c-.78,1-1.72,2-2.58,3l.4.37c.76-.55,1.37-.19,1.51,1l.46,3.79-4-.58c-1-.16-1.4-.57-.91-1.18l-.38-.4c-1.1,1.07-2.49,2.35-3.77,3.41l.34.43a5.24,5.24,0,0,1,2.19,0l6.09.81,1.68,1.7c1.19,1.19,1.25,1.42.77,2.18l.39.38c1.14-1.09,2.25-2.21,3.33-3.38l-.39-.38C205.27,200.68,205,200.62,203.82,199.45Z" transform="translate(-57.84 -56.09)"/><path class="cls-1" d="M77.33,112.11a1.49,1.49,0,0,1,1.13.11l5,2.63c1.69.88,2,1.55,1.91,2.31l.5.23c.5-1,1-2.09,1.56-3.1L87,114c-.54.53-1.29.68-3-.22l-4.57-2.43,11.38-2.77.41-.61-7.15-4.47c-1.62-1-1.87-1.66-1.66-2.44l-.45-.31c-.66,1-1.32,2-1.94,3l.46.3c.59-.51,1.19-.6,2.94.48l3.79,2.33-9.52,2.23c-.78.19-.91.36-1,.58-.28.52-1.12,2.23-1.49,3.07l.5.23C75.87,112.62,76.2,112.42,77.33,112.11Z" transform="translate(-57.84 -56.09)"/><path class="cls-1" d="M88.4,101.37a6.37,6.37,0,1,0-.34-8.86A6.14,6.14,0,0,0,88.4,101.37Zm.42-8.18c1.43-1.59,3.89-1.48,6.4.77s2.73,4.49,1.27,6.12-3.89,1.48-6.4-.77S87.34,94.83,88.82,93.19Z" transform="translate(-57.84 -56.09)"/><path class="cls-1" d="M98.1,86.89l4,5c1,1.33,1,1.62.48,2.28l.38.43c1-.88,2.24-1.88,3.54-2.88l-.32-.44c-.77.39-1,.36-2.06-1l-1.26-1.65c.29-.26.6-.5.91-.76,4.07,1.34,5.83,2,7.79.69a2.62,2.62,0,0,0,1.16-2.27l-.57-.08a1.14,1.14,0,0,1-.5.76c-1.1.78-3-.29-5.65-1.16,1.4-1.52,1.66-3.09.69-4.4-1.16-1.55-3.18-2.1-6.55.4-1.37,1-3.52,2.77-4.51,3.62l.33.43C96.79,85.54,97.06,85.57,98.1,86.89Zm2.54-4c1.71-1.26,3-1.07,4,.19s.69,2.37-.75,3.5c-.56.45-1.14.84-1.65,1.2L99.32,84C99.7,83.65,100.17,83.25,100.64,82.89Z" transform="translate(-57.84 -56.09)"/><path class="cls-1" d="M108.93,79.87c.41-1.83,1.09-3,2.06-3.54.65-.38.85-.33,1.25.45,1.13,2.16,3,6,3.36,6.81.44,1,.31,1.43-.34,1.91l.25.49c1.35-.72,3-1.54,4.4-2.17l-.22-.5c-.78.23-1.19.08-1.73-.89-.44-.79-2.32-4.6-3.34-6.82-.37-.79-.29-1,.41-1.26a5.1,5.1,0,0,1,4,.53l.37-.39-2-2.34c-1.63.68-3.26,1.41-4.88,2.21s-3.2,1.64-4.74,2.52l.61,3Z" transform="translate(-57.84 -56.09)"/><path class="cls-1" d="M122.29,73.13l1.95,6.16c.5,1.61.38,1.89-.37,2.31l.19.53c1.39-.5,3-1,4.37-1.45l-.16-.52c-.85.08-1.11,0-1.58-1.66l-.89-3A42.5,42.5,0,0,1,131.25,74l.74,3.07c.41,1.63.25,1.87-.53,2.23l.12.53c1.45-.36,3.06-.68,4.51-.94l-.1-.55c-.86,0-1.1-.18-1.48-1.82l-1.4-6.31c-.38-1.64-.25-1.87.53-2.23l-.11-.53c-1.43.25-3.18.63-4.67,1L129,69c.86,0,1.08.15,1.47,1.79l.51,2.08c-1.81.54-3.67,1-5.51,1.48l-.6-2c-.48-1.62-.37-1.86.37-2.29l-.15-.52c-1.47.43-3.17,1-4.54,1.48l.17.52C121.56,71.38,121.79,71.52,122.29,73.13Z" transform="translate(-57.84 -56.09)"/><path class="cls-1" d="M139,69.33l.58,6.42c.14,1.68,0,1.92-.85,2.17l.08.56c1.4-.18,3.13-.34,5-.45,1.62-.09,3.13-.16,4.83-.1l1-3-.49-.19a7.12,7.12,0,0,1-1.78,1.54,6.75,6.75,0,0,1-3.23.65c-1.35.08-1.52,0-1.67-.09a1.45,1.45,0,0,1-.24-.73c-.08-.48-.24-2.25-.39-4.11A9,9,0,0,1,145,72a1.16,1.16,0,0,1,.82.93l.58,0-.08-3.41-.58,0a1.25,1.25,0,0,1-.78,1,10.29,10.29,0,0,1-3.16.41c-.09-1-.16-1.93-.2-2.68a.84.84,0,0,1,.13-.63c.12-.13.21-.17,1.4-.24,2.64-.14,3.77,0,5.34,1.22l.41-.33-1-2.09c-1.46,0-3.05,0-4.69.14s-4,.3-5.41.48l.05.54C138.68,67.46,138.89,67.65,139,69.33Z" transform="translate(-57.84 -56.09)"/><path class="cls-1" d="M154.09,77.66c-.9-.33-1.2-.89-.55-1.88l.92-1.42,2.26.27c.79.11,1.61.24,2.43.38l.55,1.73c.28.84.06,1.44-.73,1.54l-.09.54c1.48.25,3.11.58,4.79,1l.13-.54c-.61-.38-.8-.85-1.29-2.32l-3.1-9.15c-.2-.63-.31-.77-.68-.82-1-.14-2-.26-3-.36l-.06.53a1.72,1.72,0,0,1,.93.49c.41.43.45.61.23.94l-4.5,6.86c-.83,1.28-1.44,1.82-2.1,2V78c1.24,0,2.51.13,3.8.25Zm3.38-7.92,1.3,4.1-1.86-.22-1.79-.28Z" transform="translate(-57.84 -56.09)"/><path class="cls-1" d="M166.4,80.07c1.13.37,1.53,1.21,3.66,1.92s4.79.35,5.6-2.11-1.31-3.84-3.32-5c-2.16-1.24-3.39-1.86-2.93-3.25.25-.74,1.24-1.3,2.84-.77,1.89.62,2.73,1.94,3.45,3.71l.54,0,.11-3-.26-.15a1.17,1.17,0,0,1-.52,0c-.89-.3-1.21-.9-2.92-1.47-2.31-.76-4.74-.13-5.45,2-.83,2.5,1.26,3.82,3.27,5,2.18,1.23,3.45,1.85,3,3.29-.28.83-1.37,1.41-3,.87a6.28,6.28,0,0,1-4.18-4.47l-.53,0-.39,3.34.26.17A1.31,1.31,0,0,1,166.4,80.07Z" transform="translate(-57.84 -56.09)"/><path class="cls-1" d="M182,86.53c-.64-.5-.75-.92-.29-1.92.39-.83,2.38-4.58,3.58-6.7.42-.77.63-.82,1.26-.41a5.06,5.06,0,0,1,1.94,3.59l.53.07.71-3q-2.26-1.38-4.66-2.66c-1.6-.85-3.2-1.63-4.81-2.36l-2.11,2.27.35.4c1.73-.75,3-.85,4.07-.4.7.29.77.49.37,1.27-1.09,2.18-3.08,5.94-3.54,6.72-.58,1-1,1.08-1.76.83l-.24.49c1.37.68,3,1.54,4.33,2.3Z" transform="translate(-57.84 -56.09)"/><path class="cls-1" d="M188,87.87c-1,1.36-1.28,1.44-2.07,1.08l-.31.47c1.18.78,2.58,1.8,4,3,1.28,1,2.47,1.95,3.7,3.11l2.76-1.57-.25-.47a7.11,7.11,0,0,1-2.35,0,6.86,6.86,0,0,1-2.86-1.64c-1.06-.83-1.16-1-1.19-1.17a1.38,1.38,0,0,1,.3-.7c.26-.41,1.31-1.85,2.42-3.35a9,9,0,0,1,2.35,2.07,1.18,1.18,0,0,1,0,1.23l.44.37,2.19-2.62-.45-.36a1.27,1.27,0,0,1-1.25.25,10.67,10.67,0,0,1-2.65-1.78c.58-.8,1.16-1.56,1.62-2.15.21-.27.37-.37.52-.38s.27,0,1.2.74c2.08,1.63,2.81,2.52,3.21,4.44h.53l.59-2.25c-1.08-1-2.32-2-3.61-3s-3.17-2.38-4.38-3.21l-.32.44c.58.66.61.94-.39,2.3Z" transform="translate(-57.84 -56.09)"/><path class="cls-1" d="M196,97.15l-.39.41c1,1,2,2.09,3.14,3.31l.41-.36c-.45-.73-.44-1,.83-2.12L201.53,97c.27.26.54.56.82.85-1.11,4.09-1.69,5.87-.18,7.69a2.49,2.49,0,0,0,2.32.94l0-.56a1.21,1.21,0,0,1-.8-.45c-.83-1,.1-2.91.82-5.57,1.64,1.29,3.23,1.44,4.47.37,1.47-1.27,1.86-3.33-.89-6.5-1.12-1.29-3-3.3-4-4.23l-.4.37c.45.75.44,1-.81,2.17l-4.72,4.4C197,97.64,196.7,97.66,196,97.15Zm9.95-4.07c.37.36.81.79,1.19,1.24,1.4,1.6,1.3,3,.12,4s-2.31.87-3.54-.48c-.5-.53-.93-1.08-1.33-1.56Z" transform="translate(-57.84 -56.09)"/><path class="cls-1" d="M204.69,107.65l-.45.31c.64,1,1.27,1.94,1.86,2.93l.47-.28c-.18-.74.08-1.46,1.72-2.44l4.43-2.66-3.49,11.18.32.67,7.51-3.82c1.72-.87,2.39-.76,2.95-.17l.5-.23c-.49-1.07-1-2.14-1.54-3.18l-.49.24c.13.76-.11,1.32-1.93,2.26l-4,2.06,3-9.32c.24-.76.16-1,0-1.18-.3-.51-1.34-2.12-1.86-2.86l-.45.3c.17.37.17.76-.15,1.89a1.42,1.42,0,0,1-.68.91l-4.83,2.94C206,108.2,205.28,108.14,204.69,107.65Z" transform="translate(-57.84 -56.09)"/></svg>