<?xml version="1.0" encoding="utf-8"?>
<!-- Generator: Adobe Illustrator 21.0.0, SVG Export Plug-In . SVG Version: 6.00 Build 0)  -->
<svg version="1.1" id="Capa_1" xmlns="http://www.w3.org/2000/svg" xmlns:xlink="http://www.w3.org/1999/xlink" x="0px" y="0px"
	 viewBox="0 0 75.3 101" style="enable-background:new 0 0 75.3 101;" xml:space="preserve">
<style type="text/css">
	.Arqueado:_x0020_verde{fill:url(#SVGID_1_);stroke:#FFFFFF;stroke-width:0.25;stroke-miterlimit:1;}
	.st0{fill:#3D7DDA;}
	.st1{fill:#FFD900;enable-background:new    ;}
	.st2{fill:#FFFFFF;}
	.st3{fill:#D5DCF6;}
</style>
<linearGradient id="SVGID_1_" gradientUnits="userSpaceOnUse" x1="-315.1353" y1="657.6411" x2="-314.4282" y2="656.934">
	<stop  offset="0" style="stop-color:#1EAB4B"/>
	<stop  offset="0.9831" style="stop-color:#19361A"/>
</linearGradient>
<path class="st0" d="M67.8,42.5c1-0.2,1.9-1.2,1.9-2.4c0-0.7-0.3-1.8-1.7-2.7c-0.2-0.1-0.4-0.2-0.6-0.3c1-0.4,1.6-1.1,1.6-2.1
	c0-0.7-0.5-1.2-1.2-1.2c-0.3,0-0.6,0.1-0.9,0.4c-0.2,0.2-0.3,0.5-0.3,0.7c-0.1,0.1-0.5,0.2-1.5,0.2c-0.4,0-0.8-0.1-1.2-0.2
	c0.2-0.1,0.9-0.7,1.2-0.9c0.3-0.2,1-0.4,1.3-1c0.8-1.4,1.1-2.1,1.4-3.4c0.2-0.6,0.2-1.2,0.2-1.8c0-0.5-0.1-0.9-0.1-1.2l-0.1-0.5
	c0-0.4-0.1-1.6-1.1-1.9c0,0-1.7-2.6-1.8-2.7c-0.1-0.1-0.1-0.1-0.2,0c-0.1,0.1-0.7,0.9-0.7,0.9c-0.2,0-0.5,0-0.7,0.2
	c-0.1-0.1-0.1-0.1-0.2-0.2c-0.1,0-0.1-0.1-0.2-0.1l-0.3-2l-0.2,0c0,0-1,0.2-1.1,0.2c0,0-0.3-0.1-0.6-0.2c-0.1,0-0.2-0.2-0.3-0.3
	c0-0.1,0-0.2,0-0.3c0-1-0.5-1.7-1.3-2.1c-0.6-0.3-1.6-0.5-2.7,0.5c-0.1,0-0.2,0-0.4-0.1c-0.3-0.1-0.4-0.3-0.5-0.3l-0.7-1.2l-1.6,1
	c-1-0.8-1.4-1.1-2-0.8c-0.2,0.1-0.4,0.2-0.6,0.5c0.1-0.1,0.1-0.3,0.1-0.4c0-0.6-0.5-1.2-1.1-1.2c-0.1,0-0.2-0.1-0.2-0.1
	c-0.1-0.3-0.5-1.3-0.6-1.3c0-0.1-0.2-0.1-0.3,0c-0.1,0.1-1.9,1.5-1.9,1.5c-0.2-1.2-1.1-2-2.1-2.2v-1.8h-0.9v0c0-2.5-1.7-4.3-4-4.3
	c-0.1,0-0.2,0-0.4,0V5.5H41V2.7h-1.8V0.9h-2.9v1.8h-1.8v2.8h1.8v1.7c-0.2,0-0.4-0.1-0.6-0.1c-2.4,0-4,1.8-4,4.3h-1.1v1.8
	c-1.1,0.3-1.9,1.3-2,2.6l-0.8-0.7c0,0-1.6-1.3-1.6-1.3l-0.2-0.1l-3.3,3.9c-0.4-0.3-0.9-0.4-1.5-0.4c-1.1,0-2.2,0.4-2.4,0.4
	c-1.1-1.1-2.2-0.8-2.8-0.6c-0.6,0.3-1.4,0.9-1.4,2.1c0,0.1,0,0.2,0,0.3c-0.1,0.1-0.2,0.2-0.4,0.3c0,0-0.2,0.1-0.2,0.1
	c-1.2,0.9-1.8,1.7-1.9,2.5H7.1l0,4.8h3.6C10.4,27.4,9,28.5,9,30.7c0,2.6,2.1,3.9,2.4,4c-0.4,0.1-0.8,0.2-1.2,0.2
	c-1,0-1.4-0.1-1.5-0.2c-0.1-0.6-0.6-1.1-1.2-1.1c-0.7,0-1.2,0.6-1.2,1.2c0,1.5,1.2,2,1.6,2.1c-0.2,0.1-2.3,1-2.3,3
	c0,1.3,0.9,2.2,1.9,2.4c-4.2,6-6.6,13.3-6.6,21.1c0.1,20.2,16.7,36.6,36.9,36.5c20.2-0.1,36.6-16.7,36.5-36.9
	C74.3,55.5,71.9,48.4,67.8,42.5z M9.8,39.6c0-0.1-0.1-0.1-0.1-0.2c-0.2-0.2-0.4-0.3-0.6-0.3c-0.1,0,0.1-0.1,0.3-0.2
	c0.2-0.1,1.4-0.5,1.4-0.5C10.2,39,10.3,39,9.8,39.6z M14.1,26c-0.1,0-1,0-2.1,0.6c0-0.5,0-1.3,0-1.3c0.3,0,1,0,2,0
	c0.1,0.1,0.4,0.5,0.6,0.8C14.4,26.1,14.3,26,14.1,26z M26.5,26.3C26.5,26.3,26.5,26.3,26.5,26.3c-0.6,0-1.1,0-1.5,0
	c0-0.3-0.1-0.4-0.1-0.8c0.6,0,1,0,1.1,0C26,25.7,26.2,26.1,26.5,26.3z M25.1,19.2c0,0,0.6,0.5,1,0.8c-1.1,0.5-1.9,1.2-2,1.6
	l-0.2-0.9C24.4,20,24.8,19.5,25.1,19.2z M16.5,31C16.5,31,16.5,31,16.5,31c0-0.4-0.2-0.8-0.3-1c0.1-0.1,0.4-0.4,0.7-0.9
	c0.3,0.3,0.4,0.4,0.5,0.6C17.2,30.2,16.9,30.6,16.5,31z M17.8,32.5c0.6-0.7,1-1.3,1.4-1.7c0.3-0.4,0.9-1.1,1-1.2
	c0.3-0.1,0.7,0.3,0.7,0.4c0.3,0.3,0.7,0.4,1.1,0.3C20.6,30.8,19.2,31.6,17.8,32.5z M22.2,30.1c0.3-0.2,0.5-0.5,0.5-0.9
	c0,0,0-0.2,0-0.3c0-0.2,0-0.5,0.2-0.6c0.2,0,1.1,0,1.6,0c0.6,0,1.4,0,2.2,0C25.2,28.8,23.7,29.4,22.2,30.1z M29.3,19.8
	c-0.4-0.1-0.7-0.2-1.1-0.2c-0.5,0-1,0.1-1.4,0.2l2.1-2.6c0,0,0.4,1,1.2,1.5C29.8,19.2,29.5,19.5,29.3,19.8z M35.5,17.9
	c0.7,0.5,1.5,0.8,2.2,0.8c0.7,0,1.5-0.3,2.2-0.8c0.2,0.3,0.3,0.5,0.4,0.8c-0.9,0.3-1.9,0.8-2.6,1.5C37,19.5,36,19,35.1,18.7
	C35.2,18.4,35.3,18.1,35.5,17.9z M31.3,15.2c0.2,0,0.3,0.4,0.3,0.5c0,0.2-0.1,0.7-0.4,1.3c-0.3-0.3-0.4-0.6-0.4-0.8
	C30.9,15.7,31.1,15.2,31.3,15.2z M31.1,20.8c0.3-0.3,0.6-0.7,0.9-1.1c0.3,0.1,0.5,0.2,0.8,0.3c-0.1,0.5-0.1,1.1-0.1,1.6
	c0,0.2,0,0.4,0,0.6c-0.2,0.1-0.3,0.1-0.5,0.1C31.7,21.3,31.1,20.8,31.1,20.8z M32.1,25.7c0.2-0.4,0.3-0.9,0.3-1.4
	c0.2-0.1,0.6-0.2,0.8-0.2c0.2,0.4,0.4,0.7,0.7,1C33.5,25.3,32.9,25.5,32.1,25.7z M33.2,18C33.1,18,33.1,18,33,18
	c0.4-0.7,0.6-1.4,0.6-2c0.1,0.2,0.3,0.4,0.4,0.5C33.7,17,33.4,17.5,33.2,18z M34.8,21.6c-0.1,0-0.1,0-0.2,0.1c0,0,0,0,0-0.1
	c0-0.3,0-0.6,0.1-0.9c0.6,0.2,1.2,0.4,1.2,0.4S35.2,21,34.8,21.6z M35.7,24.1c-0.2-0.2-0.3-0.4-0.5-0.6c1.3-0.3,1.4-1.2,1.4-1.2
	S36.8,23.2,35.7,24.1z M37.7,25.6c-0.1-0.1-0.2-0.1-0.4-0.2c0.1-0.1,0.3-0.3,0.4-0.4c0.1,0.1,0.2,0.3,0.4,0.4
	C37.9,25.4,37.8,25.5,37.7,25.6z M39.6,24.1c-1-0.9-1-1.8-1-1.8s0.1,0.9,1.4,1.2C39.9,23.7,39.8,23.9,39.6,24.1z M40.8,21.7
	c-0.1,0-0.2-0.1-0.2-0.1c-0.4-0.6-1-0.5-1-0.5s0.6-0.2,1.2-0.4C40.7,21,40.8,21.3,40.8,21.7C40.8,21.6,40.8,21.6,40.8,21.7z
	 M41.7,16c0.1,0.6,0.3,1.2,0.6,2c-0.1,0-0.2,0.1-0.2,0.1c-0.2-0.5-0.5-1-0.8-1.5C41.5,16.3,41.6,16.2,41.7,16z M41.4,25.1
	c0.3-0.3,0.5-0.7,0.7-1c0.3,0.1,0.6,0.2,0.8,0.2c0,0.5,0.1,1,0.3,1.4C42.4,25.5,41.8,25.3,41.4,25.1z M43.2,22.3
	c-0.2-0.1-0.3-0.1-0.5-0.1c0-0.2,0-0.4,0-0.6c0-0.5-0.1-1.1-0.1-1.6c0.3-0.1,0.5-0.2,0.8-0.3c0.3,0.4,0.6,0.8,0.9,1.1
	C44.2,20.8,43.6,21.3,43.2,22.3z M44.1,17c-0.3-0.6-0.4-1-0.4-1.3c0-0.1,0.1-0.5,0.3-0.5c0.2,0,0.5,0.5,0.5,1
	C44.4,16.4,44.4,16.7,44.1,17z M49.4,22.4c0.7-0.5,1.1-1,1.4-1.3l0.1,0l0.2,0l0,0.1c0,0.1,0,0.3,0.1,0.4l0,0l0,0
	c-0.6,0.5-1.3,1.1-1.5,2.2l-0.1,0.2l-0.1-0.2l0-0.1c0-0.1,0-0.4,0-0.4c0,0,0-0.1,0-0.1C49.5,22.9,49.4,22.7,49.4,22.4L49.4,22.4
	L49.4,22.4z M45.6,25.7c-0.6-0.6-0.7-1.4-0.7-1.7c0,0,0,0,0,0c0-0.2,0-0.5,0.1-0.7c0.2,0.1,0.4,0.2,0.6,0.2c0.1,0.1,0.2,0.2,0.2,0.2
	c-0.1,0.3-0.5,0.7-0.5,0.7L45.2,25C45.2,25,45.5,25.4,45.6,25.7z M46,19.8c-0.2-0.3-0.5-0.6-0.8-1.1c1.1-0.8,1.3-1.7,1.3-1.7
	s0.4,0.4,1,0.5c0.2,0.4,0.4,0.7,0.7,1c0,0,0,0,0,0c-0.1,0.2-0.7,0.7-1.1,1C46.6,19.6,46.2,19.7,46,19.8z M47.5,26.1
	c0-0.3-0.1-0.6-0.1-0.9c0,0,0-0.1,0-0.3c0.2-0.2,0.4-0.5,0.4-0.5l0,0.3c0,0.1,0.2,0.3,0.2,0.3s0.1,0,0.2,0c0,0,0.1,0.1,0.2,0.1
	l0.7,0.6c0,0,0.4,0.1,0.6,0.1c0,0,0,0,0,0c0.1,0.1,0.2,0.3,0.2,0.4c-0.7,0-1.5,0-2.4,0C47.7,26.3,47.6,26.2,47.5,26.1z M48.6,28.3
	c0.8,0,1.6,0,2.2,0c0.5,0,1.1,0,1.4,0c0.1,0.1,0.3,0.2,0.4,0.3c0,0.1,0,0.4,0,0.7c0,0.3,0.2,0.7,0.5,0.9
	C51.6,29.4,50.1,28.8,48.6,28.3z M53.2,30.1c0.4,0.1,0.8-0.1,1.1-0.3c0.2-0.2,0.3-0.3,0.4-0.3c0.1,0,0.3,0.1,0.4,0.1
	c0.2,0.3,0.6,0.7,0.9,1.1c0.4,0.5,0.8,1.1,1.4,1.7C56.1,31.6,54.7,30.8,53.2,30.1z M59.4,31.7c-0.5-0.6-0.9-1.1-1.3-1.6
	c0.2,0,0.4,0,0.6,0c0.1,0.1,0.1,0.1,0.1,0.2c0,0.2,0,0.6,0.3,0.8l0.6,0.2C59.7,31.4,59.6,31.6,59.4,31.7z M65.6,39.6
	c-0.5-0.6-0.7-0.8-1.2-1.4l1.6,0.7c0.3,0.1,0.4,0.2,0.4,0.2C65.8,39.2,65.6,39.5,65.6,39.6z"/>
<path class="st1" d="M37.9,99.2c-19.8,0.1-35.9-15.9-36-35.6c0-7.9,2.5-15.2,6.8-21.2c0.3-0.1,0.5-0.2,0.7-0.4
	c0.3-0.3,0.6-0.7,0.7-1.4c6.5-7.9,16.4-13,27.4-13c11.2-0.1,21.2,5,27.8,13c0.2,1.3,1.1,1.7,1.4,1.8c4.2,5.8,6.8,13,6.8,20.8
	C73.6,82.9,57.6,99.1,37.9,99.2z"/>
<path class="st1" d="M23.5,19.9C23.5,19.9,23.6,20,23.5,19.9l1.7-1.9l0.6,0.5l-0.2,0.3l0.7,0.6l1-1.1l-0.7-0.6L26.3,18l-0.6-0.5
	l0.7-0.9l0.6,0.5l-0.2,0.3l0.7,0.6l1-1.2l-0.7-0.6l-0.2,0.3L26.9,16l0.2-0.3l-1-0.8L23,18.7C23,19.3,23.1,19.6,23.5,19.9z"/>
<path class="st1" d="M9.4,25.5H9.1v-0.8h1.1v0.8H9.8v0.9l1.5,0v-0.9h-0.4v-0.8h2.7c0-0.5-0.1-0.8-0.8-1.3H7.9v1.3h0.4l0,0.8H7.9v0.9
	h1.5L9.4,25.5z"/>
<path class="st1" d="M26.5,24.9c0,0.7,0.6,1.5,1.5,1.5c0.9,0,1.3-0.8,1.4-1c0.2-0.1,1-0.4,1-1.4c0-1-0.8-1.3-1-1.4
	c-0.1-0.2-0.4-1-1.4-1c-0.8,0-1.5,0.7-1.5,1.5c0,0,0,0.1,0,0.1l-2.4,0l0,0.1c-0.2,0.5-0.1,0.9,0.3,1.3c0,0,0.1,0.1,0.1,0.1l0,0h1.9
	C26.5,24.8,26.5,24.8,26.5,24.9z M27.5,23.4c0-0.3,0.1-0.5,0.4-0.5c0.5,0,0.4,0.5,0.5,0.6c0.2,0.2,0.6,0.1,0.6,0.6
	c0,0.4-0.5,0.4-0.6,0.6c-0.2,0.2-0.1,0.6-0.5,0.6c-0.3,0-0.4-0.2-0.4-0.5V23.4z"/>
<path class="st1" d="M16.3,27.7c-0.3-0.3-0.7-0.4-0.7-0.4L14.2,29c0,0-0.1-0.1-0.1-0.1c-0.3-0.2-0.6-0.3-0.9-0.3c0,0-0.1,0-0.1,0
	c-0.4,0-0.7,0.2-1,0.5c-0.3,0.3-0.4,0.7-0.3,1.1c0,0.2,0.2,0.5,0.2,0.6c0,0.1-0.1,0.3-0.1,0.5c0,0.8,0.7,1.4,1.5,1.4
	c0.3,0,0.6-0.2,0.7-0.2c0.1,0,0.4,0.1,0.6,0.1c0.7,0,1.3-0.6,1.3-1.6c0-0.4-0.2-0.7-0.5-1c0,0-0.1-0.1-0.1-0.1l1.3-1.5
	C16.6,28.4,16.5,27.9,16.3,27.7z M14.7,31.4c-0.3,0.4-0.6,0-0.8,0c-0.2,0-0.5,0.4-0.8,0.1c-0.3-0.3,0-0.6,0-0.8
	c0-0.2-0.4-0.5-0.2-0.8c0.2-0.2,0.5-0.2,0.7,0l1,0.8C14.8,30.9,14.9,31.2,14.7,31.4z"/>
<path class="st1" d="M21.3,18.1c-1.1,0-2,0.4-2.5,0.4c-0.2,0-0.3,0-0.4-0.2c-0.4-0.4-0.9-0.9-1.9-0.5c-0.9,0.4-0.9,1.2-0.8,1.7
	c0.1,0.4-0.5,0.7-0.8,1l-0.2,0.1c-1.3,0.9-1.8,1.8-1.5,2.4c1.4,2.3,5.2,6.7,5.2,6.7c0,0,1.3-1.3,2.8-2c1.7-0.8,3.3-0.9,3.3-0.9
	c0,0-0.9-5.7-1.8-8.2C22.4,18.3,21.9,18.1,21.3,18.1z M14.4,22.6c0.1-0.1,0.3-0.4,1-0.9l0.1-0.1c0.4-0.3,1.4-0.9,1.4-2
	c0-0.1,0-0.2,0-0.3c0-0.1,0-0.2,0-0.2c0-0.1,0-0.1,0.1-0.2c0,0,0.1,0,0.1,0c0,0,0.1,0,0.2,0.2c0.3,0.4,0.8,0.6,1.4,0.6
	c0.5,0,0.9-0.1,1.2-0.2l0.2,0c0.5-0.1,0.8-0.2,1.1-0.2c0.1,0,0.2,0,0.2,0c0,0.1,0.1,0.4,0.2,0.9c-0.8,0.2-1.7,0.4-2.5,0.7
	c-0.2-0.2-0.5-0.4-0.9-0.4c-0.2,0-0.3,0-0.5,0.1c-0.4,0.2-0.7,0.6-0.7,1.1c0,0,0,0.1,0,0.1c-0.8,0.4-1.6,0.9-2.3,1.5
	C14.7,23,14.5,22.8,14.4,22.6z M15.9,24.7c0.9-0.7,1.9-1.3,2.9-1.8c1-0.5,2.2-0.8,3.3-1c0,0,0.2,1,0.2,1.1c-0.7,0.1-1.3,0.3-1.9,0.5
	c-0.2-0.2-0.5-0.4-0.9-0.4c-0.2,0-0.3,0-0.5,0.1c-0.4,0.2-0.7,0.6-0.7,1.1c0,0.1,0,0.1,0,0.1c-0.6,0.4-1.2,0.8-1.8,1.2L15.9,24.7z
	 M22.9,25.6c-0.4,0.1-0.9,0.2-1.3,0.4c-0.2-0.3-0.6-0.4-0.9-0.4c-0.2,0-0.3,0-0.5,0.1c-0.3,0.1-0.5,0.4-0.6,0.7
	c0,0.1-0.1,0.3-0.1,0.4c0,0.1,0,0.1,0,0.2c-0.4,0.2-0.8,0.5-1.2,0.8l-0.7-0.9c0.7-0.6,1.5-1.1,2.4-1.5c0.9-0.4,1.8-0.7,2.7-0.9
	L22.9,25.6z"/>
<path class="st1" d="M67.6,38c-0.3-0.2-0.6-0.3-0.9-0.4c0,0,0,0-1.4-0.6c0,0-0.4-0.2-0.6-0.3l0.4,0c1,0,3.2,0,3.2-1.7
	c0-0.3-0.2-0.5-0.5-0.5c-0.1,0-0.3,0.1-0.3,0.1c-0.1,0.1-0.1,0.2-0.1,0.3c0,0.4-0.3,0.8-2.2,0.8c-1.2,0-2.4-0.5-3.2-1
	c0.8-0.1,1.5-0.4,2.2-0.9c0.8-0.7,1.3-1.6,1.4-2.6c0-0.1,0-0.2,0-0.4c0-0.9-0.3-1.8-0.8-2.3c-0.2-0.2-0.3-0.3-0.5-0.3
	c-0.1,0-0.2,0-0.3,0.1c-0.1,0.1-0.1,0.2-0.1,0.3c0,0.2,0.1,0.3,0.2,0.5c0.3,0.3,0.6,0.9,0.6,1.7c0,0.1,0,0.2,0,0.3
	c-0.1,0.8-0.4,1.4-1.1,2c-0.2,0.2-1,0.7-2,0.7c-0.1,0-0.1,0-0.2,0c0,0-0.1,0-0.1,0l-0.2,0c0,0,0.1,0.6-0.1,0.8c-0.2,0.2-0.8,0-0.8,0
	L60,34.5l0.4,0.3c0.9,0.8,1.8,1.5,2.8,2.1l0,0h0c0.2,0.1,1.7,0.9,1.7,0.9l1.5,0.6c0.3,0.1,0.5,0.2,0.8,0.4c0.6,0.4,0.9,0.8,0.9,1.2
	c0,0.5-0.4,0.8-0.6,0.8c-0.2,0-0.5-0.1-0.5-0.6c0-0.3-0.2-0.5-0.5-0.5c-0.3,0-0.5,0.2-0.5,0.5c0,0.9,0.6,1.6,1.5,1.6
	c0.9,0,1.6-0.9,1.6-1.8C69,39.2,68.6,38.5,67.6,38z"/>
<path class="st1" d="M20.5,28.9c0.5,0.1,1,0.6,1,0.6c0.1,0.1,0.3,0.1,0.4,0.1c0.1-0.1,0.2-0.2,0.2-0.3c0,0-0.1-0.7,0.2-1.1
	C21.7,28.2,21,28.5,20.5,28.9z"/>
<path class="st1" d="M17.9,30.1c-0.2,0.3-1.2,1.5-2,2.3l-0.1,0.1c-0.6,0.8-1.4,1.1-2.1,1.1c-0.9,0-1.7-0.6-1.9-0.7
	c-0.6-0.5-1-1.2-1.1-2c-0.1-0.9,0.3-1.6,0.6-2c1.2-1.4,2.8-1.4,2.8-1.4c0.3,0,0.5-0.2,0.5-0.5c0-0.3-0.2-0.5-0.5-0.5
	c-0.1,0-2.1,0-3.6,1.8C10,29,9.7,30.1,9.8,31c0.1,1,0.6,1.9,1.4,2.6c0.7,0.5,1.4,0.9,2.2,0.9c-0.8,0.5-1.9,1-3.2,1
	c-0.4,0-1.7,0-2.1-0.4C8,35.2,8,35,8,34.9c0-0.3-0.2-0.5-0.5-0.5c-0.3,0-0.5,0.3-0.5,0.5c0,1.2,1,1.7,3.2,1.7l0.3,0L10,36.9
	l-1.4,0.6C8.3,37.7,8,37.7,7.7,38c-0.9,0.6-1.4,1.3-1.4,2.1c0,1,0.8,1.8,1.5,1.8c0.8,0,1.6-0.5,1.6-1.6c0-0.3-0.2-0.5-0.5-0.5
	c-0.1,0-0.3,0.1-0.3,0.1c-0.1,0.1-0.1,0.2-0.1,0.3c0,0.2-0.1,0.6-0.5,0.6c-0.2,0-0.5-0.3-0.6-0.7c0-0.5,0.3-0.9,0.9-1.3
	c0.3-0.2,0.4-0.2,0.8-0.4l1.4-0.6l0,0c0.1,0,0.5-0.2,1.8-0.9c1.1-0.7,2.1-1.5,3-2.4c0,0,0,0,0.2-0.2c1.5-1.4,2.4-2.6,3.2-3.6
	C18.9,30.3,18.1,29.8,17.9,30.1z"/>
<path class="st1" d="M50.6,26.8c-0.6,0-2.6,0-2.6,0V27l0,0l0,0c0,0.1,0,0.2,0,0.3c0,0.1,0,0.2-0.1,0.3l-0.1,0.2l2.9-0.1
	C51.3,27.8,51.2,26.8,50.6,26.8z"/>
<path class="st1" d="M59.3,32.3L59,32c-0.7-0.8-1.3-1.6-1.8-2.2c-0.2-0.2-1.2,0-0.8,0.6c0.4,0.6,1,1.3,1.7,2.1l0.1,0.1l0.1-0.1
	c0.1,0,0.3-0.2,0.6-0.2H59.3z"/>
<path class="st1" d="M46.3,27.2c0,0-0.2-0.2-0.3-0.3l-0.1-0.4l-0.1,0c-1.4-0.7-1.4-2.3-1.4-2.5c0-0.5,0.1-0.9,0.3-1.4l0-0.1l0-0.1
	c0,0,0-0.1,0-0.1c0-0.4,0.3-0.8,0.7-0.8h0.1c0,0,0.1-0.5,0.8-1l0.6-0.5c0,0-0.9,0.3-1,0.3c-0.2-0.2-0.8-0.9-1.4-1.8
	c1-0.6,1.5-1.4,1.5-2.4c0-1.3-0.9-2.4-2-2.4c-1,0-1.8,1-1.8,2c0,1,0.6,2.1,0.8,2.5c-0.3,0.1-0.8,0.3-1.2,0.5c-0.1-0.3-0.4-1.2-1-2
	l-0.1-0.2l-0.1,0.1c-0.2,0.2-0.3,0.3-0.5,0.5L40,17.2l0.1,0.1c0.3,0.6,0.7,1.2,0.8,1.7c-1.3,0.5-2.5,0.9-3.2,1.9
	c-0.7-1-2-1.5-3.2-1.9c0.1-0.3,0.3-0.9,0.8-1.7l0.1-0.1l-0.1-0.1c-0.2-0.1-0.3-0.3-0.5-0.5l-0.1-0.1l-0.1,0.2
	c-0.6,0.8-0.9,1.6-1,2.1c-0.4-0.1-0.8-0.3-1.2-0.5c0.2-0.4,0.8-1.5,0.8-2.5c0-0.9-0.8-2-1.8-2c-1.1,0-2,1.1-2,2.4
	c0,1.4,1.1,2.2,1.5,2.4c-0.2,0.3-0.8,1.1-1.4,1.8c-0.2-0.1-0.7-0.3-1.3-0.3c-2.3,0-3.6,1.5-3.7,1.6c-0.1,0.1-0.1,0.2-0.1,0.4
	c0,0.1,0.1,0.2,0.2,0.3c0.1,0.1,0.2,0.1,0.3,0.1c0.1,0,0.3-0.1,0.4-0.2c0,0,1-1.2,2.9-1.2c0.5,0,1.3,0.2,1.9,0.8
	c0.5,0.5,0.8,1.3,0.8,2.1c0,1.4-0.8,2.8-3,2.8l-0.2,0c-0.8,0-2.4,0-2.7,0c-0.3,0-0.3,0.9,0,0.9c0.7,0,1.6,0,2.4,0
	c4.7,0,7.7-1.5,8.3-1.8c0.4,0.3,1.6,1.1,2.1,1.1c0.4,0,1.6-0.9,2.1-1.1c0.4,0.3,2.4,1.4,6.5,1.7l0.4,0l-0.2-0.2L46.3,27.2z M44,14.7
	c0.5,0,1,0.7,1,1.5c0,0.9-0.7,1.4-1,1.6c-0.2-0.3-0.7-1.3-0.7-2.1C43.2,15.4,43.5,14.7,44,14.7z M43.6,19.1c0.5,0.8,1.1,1.5,1.4,1.8
	c-0.3,0.2-1.1,0.9-1.4,2.1c0,0-0.9-0.2-1.4-0.4c0-0.2,0.1-0.5,0.1-1c0-1-0.1-1.7-0.2-2C42.3,19.5,43,19.3,43.6,19.1z M30.4,16.2
	c0-0.8,0.5-1.5,1-1.5c0.5,0,0.8,0.6,0.8,1c0,0.8-0.5,1.7-0.7,2.1C31.1,17.6,30.4,17.1,30.4,16.2z M30.4,20.9c0.3-0.3,0.9-1,1.4-1.8
	c0.6,0.3,1.2,0.5,1.5,0.6c-0.1,0.3-0.2,1-0.2,2c0,0.4,0.1,0.8,0.1,1c-0.5,0.1-1.1,0.3-1.4,0.4C31.5,21.8,30.7,21.1,30.4,20.9z
	 M31.1,26.5c0.3-0.4,0.8-1.3,0.8-2.5c0.9-0.2,1.3-0.4,1.6-0.4c0.4,0.9,1,1.5,1.3,1.8C34.3,25.6,33,26.1,31.1,26.5z M35.7,24.8
	c-0.5-0.5-1-1-1.2-1.5l1-0.3c0.6-0.2,0.9-0.7,0.8-1.2c-0.1-0.2-0.3-0.4-0.5-0.4c0,0-0.1,0-0.1,0c-0.2,0.1-0.4,0.3-0.4,0.5
	c0,0,0,0,0,0.1c0,0-0.1,0-0.2,0.1l-1,0.3c-0.1-0.2-0.1-0.5-0.1-0.7c0-0.6,0.1-1.1,0.2-1.6c1.5,0.5,2.9,1.1,2.9,2.4
	C37.1,23.3,36.6,24.1,35.7,24.8z M37.7,26.1c-0.5-0.2-0.9-0.6-1.2-0.7c0.3-0.2,0.8-0.7,1.2-1.4c0.4,0.7,0.9,1.2,1.2,1.4
	C38.6,25.6,38.1,25.9,37.7,26.1z M39.6,24.8c-0.9-0.7-1.4-1.5-1.4-2.4c0-1.3,1.4-1.9,2.9-2.4c0.1,0.5,0.2,1.1,0.2,1.6
	c0,0.2,0,0.5-0.1,0.7l-1-0.3c-0.1,0-0.1,0-0.1-0.1c0,0,0,0,0-0.1c0-0.2-0.2-0.4-0.4-0.5c0,0-0.1,0-0.1,0c-0.2,0-0.4,0.1-0.5,0.4
	c-0.1,0.5,0.2,1,0.8,1.2l1,0.3C40.6,23.8,40.2,24.3,39.6,24.8z M40.5,25.3c0.3-0.3,0.9-0.9,1.3-1.8c0.2,0.1,0.7,0.2,1.6,0.4
	c0,1.2,0.5,2.1,0.8,2.5C42.3,26.1,41,25.6,40.5,25.3z"/>
<path class="st1" d="M60.2,22.6L60.2,22.6c-0.4-0.1-0.7-0.3-0.8-0.3c-0.4-0.2-1.5-0.9-1.5-2c0-0.1,0-0.2,0-0.2c0-0.1,0-0.1,0-0.2
	c0,0-0.1,0-0.1,0.1c-0.3,0.4-0.8,0.6-1.3,0.6c-0.4,0-0.8-0.1-1.1-0.2c-0.2-0.1-0.6-0.2-0.9-0.5l0,0c0,0,0.2,1.2-0.3,1.9
	c-0.7,1-1.5,1.3-1.9,2c-0.4,0.7,0.1,1.4,0.5,1.7c0,0,0.6,0.5,0.7,0.5c0.5,0.3,0.9,0.7,1.2,1l0,0c0.5,0,1.1,0.2,1.6,0.3l0.8,0.2
	c0.1,0,0.3,0,0.4,0c0.4,0,0.9-0.1,1.3-0.8c0.3-0.5-0.2-1.8,0.4-3C59.5,22.9,60.2,22.6,60.2,22.6z M56.7,24.4L56.5,26l-0.8-1.4
	l-1.6,0.3l1.1-1.1l-0.7-1.3l0,0l1.4,0.7l1.1-1.1l-0.2,1.5l1.4,0.7L56.7,24.4z"/>
<path class="st1" d="M60.4,34l0.2-0.1c-0.1-0.3-0.3-0.7-0.4-0.8l0.7-1.2c0,0,0.2,0,0.2,0.1c0.1,0.2,0.2,0.4,0.2,0.4l0.4-0.9
	l-0.2,1.3c0,0,0.4,0.3,0.4,0.3c0,0,0,0,0,0l0.5-0.1c0,0,0,0,0,0c0,0,0.3-1.4,0.3-1.5c0-0.1,0-0.6,0-0.8c0.1,0,0.1,0,0.2,0
	c0.3,0,0.8-0.6,1.1-0.7c-0.1,0.2-0.2,0.7-0.2,0.8c0,0.2-0.1,0.5-0.1,0.6c-0.1,0.3-0.2,0.6-0.3,0.9c0,0,0,0.1,0,0.1
	c0.5-0.4,0.8-1,0.8-1.5l0-0.2c0-0.6-0.2-1.1-0.4-1.4c-0.2-0.2-0.3-0.5-0.3-0.8c0-0.2,0.1-0.5,0.2-0.6c0.2-0.2,0.4-0.3,0.7-0.3
	c0.2,0,0.6,0.1,0.9,0.5c0.6,0.7,0.9,1.6,0.9,2.7l0,0.4c0,0.3-0.1,0.5-0.1,0.8c0.5-0.9,0.8-1.6,1-2.6c0.4-1.7,0.1-2.3,0-3.2
	c0-0.5-0.1-1.2-0.8-1.2c-0.7,0-0.6,1.9-1.8,1.9c-0.1,0-0.3-0.1-0.4-0.2L64,26c0.2,0,0.6-0.2,0.6-0.8c0-0.1,0-0.2-0.1-0.2
	c0.5-0.4,0.5-0.7,0.5-1.1l0.6-0.2l-0.3-0.2l0.1-0.3l-0.3,0l0-0.3l-0.3,0l-0.1-0.4l-0.4,0.5c-0.2-0.1-0.3,0-0.5,0
	c-0.1,0-0.4,0-0.5,0.2l-0.1,0.2c0.4-0.1,0.5,0.1,0.5,0.3c0,0.2,0.2,0.4,0.2,0.5L64,24.5c-0.1-0.1-0.5-0.2-0.7-0.2
	c-0.3,0-0.5,0.2-0.7,0.4c-0.1,0-0.3,0-0.4,0.1L61.9,25c-0.1-0.1-0.2-0.2-0.2-0.4c0-0.2,0.7-0.5,0.8-1c-0.4,0.2-0.8,0.5-1,0.6
	c-0.4,0.3-0.5,0.5-0.5,1.8c0,1.4-0.2,1.8-0.2,1.8s0.1,1,0,1.1c-0.1,0.2-0.9,0.8-1,0.9L59.3,29c0-0.1,0-0.1,0-0.2c0,0,0.1,0,0.1-0.1
	c0.3-0.3,0.6-0.6,0.7-0.9c0.3-0.6,0.3-1.2,0.3-1.8c0-1.8,0.1-1.8,1.8-2.7l-0.3-2.2l-0.4,0.1c-0.3,0-0.7-0.1-1.1-0.3
	c-0.3-0.1-0.9-0.6-0.9-1c0.1-0.8-0.1-1.4-0.8-1.7c-0.7-0.3-1.3-0.2-1.8,0.5c-0.1,0.1-0.3,0.1-0.5,0.1c-1.4,0-1.9-1.2-1.9-1.2
	l-1.4,0.9c-0.1-0.1-0.3-0.4-0.7-0.7c-0.2-0.1-0.5-0.6-0.8-0.5c-0.1,0.1-0.5,0.5-0.6,0.6c-0.1,0.1-0.3,0.4-0.4,0.5
	c-0.1-0.2-0.6-0.7-1-1c-0.2-0.1-0.4-0.3-0.4-0.3c0-0.1,0.8-0.2,0.7-0.6c-0.1-0.2-0.5-0.2-0.6-0.3c-0.2-0.1-0.3-0.2-0.6-0.3l-0.3-0.7
	l-0.1,0.5l-0.3-0.3l0,0.5l-0.4-0.2l0.1,0.4L47.1,16l0.4,0.4l-0.7,0.1c0.1,0.3,0.8,0.5,1.1,0.5c0,0,0,0.1,0,0.2
	c0.1,0.4,0.5,0.7,0.8,1l0.1,0.5c-0.1,0.1-0.4,0.7-1,1.1c-0.2,0.2-0.4,0.3-0.5,0.4c-0.3,0.3-0.5,0.5-0.5,0.6c-0.1,0-0.5,0.4-0.7,0.7
	c-0.1,0.2-0.2,0.5-0.2,0.8c-0.1,0-0.3,0.1-0.4,0c0,0,0-0.1,0-0.1c0-0.2-0.2-0.2-0.2,0c0,0.1,0,0.2,0,0.3c0.1,0.3,0.4,0.3,0.7,0.3
	c0.1,0.2,0.2,0.3,0.3,0.4c0.1,0.1,0.2,0.2,0.3,0.3c0.1,0.3-0.3,1-0.5,1.2l0,0.2c0,0,0.1,0.3,0.2,0.5c0.1,0.4,0.2,0.8,0.2,1.2
	l0.3,0.3l0.1,0.3l0.1,0.1c0.1,0.1,0.3,0.2,0.5,0.1c0.1,0,0.1-0.2,0.1-0.2c0-0.1-0.4-0.5-0.5-0.6c-0.1-0.1-0.2-0.3-0.2-0.3
	c0-0.5-0.1-0.9-0.2-1.4c0.1-0.1,0.5-0.4,0.7-0.8c0.2-0.3,0.5-0.7,0.6-0.8c0.1,0,0.2,0.1,0.3,0.3c0.1,0.2,0,0.5,0,0.5l0.2,0.2
	c0.5,0.1,1,0.8,1,0.8l0.6,0.1l0.2,0.2l0.1,0c0.2,0.5,0.5,1,1,1.4l0.1,0l1,0.7c0.3,0.2,0.5,0.4,0.7,0.5c0.2,0.4,0.1,0.9,0.1,1
	c0,0.1,0.1,0.3,0.2,0.4c0.1,0.1,0.3,0,0.4-0.1c0.1-0.1,0.6-0.5,0.9-0.6c0.3,0,0.5,0.1,0.8,0.2l1.1,0.3l0,0c0.5,0.1,1,0.1,1.5,0
	c0,0,0,0,0,0l0.1,0.1c0.3,0.1,0.5,0,0.9-0.1l0.4,0.7c0,0.1,0,0.6,0.1,0.6c0.2,0,0.9-0.3,1-0.3c0.1,0,0,0.1,0,0.3
	c0,0.4-0.2,0.4-0.2,1L59.7,33c-0.3,0-0.5-0.2-0.8-0.2c-0.1,0-0.3,0.1-0.3,0.1l0,0.1c0,0,0.2,0,0.3,0c0.1,0,0.1,0.1,0.2,0.1
	c-0.3,0-0.6,0.3-0.6,0.3l0,0.1c0.1,0,0.4-0.2,0.6-0.2c0.1,0,0.2,0,0.3,0c-0.1,0.2-0.2,0.4-0.2,0.4l0.1,0.1c0-0.1,0.3-0.4,0.5-0.4
	C60.1,33.6,60.3,33.9,60.4,34z M51.4,18.6c0.1-0.3,0.3-0.5,0.4-0.5c0.3,0,0.8,0.7,0.9,0.8c0,0,0.2,0.8,0.2,1.5
	c0,0.4-0.4,0.8-0.5,0.9c0,0,0-1.3-0.1-1.6c-0.1-0.2-0.9-0.2-1.3-0.2l0-0.1C50.9,19.3,51.3,18.9,51.4,18.6z M50.2,24.4
	c0,0.1,0,0.3,0,0.4c0,0,0,0,0,0c-0.1,0-0.6-0.2-0.9-0.4c-0.1-0.1-0.4-0.6-0.4-0.9c0-0.4,0.1-0.8-0.2-1.3c0.1-0.1,0.9-0.7,1.8-1.7
	l0.9-0.2c0.2,0,0.2,0,0.2,0.2l0.2,1.1c0,0.1-0.1,0.3-0.1,0.3S50.2,22.8,50.2,24.4z M58.6,27.7c-0.4,0.3-0.8,0.5-1.3,0.5
	c-0.2,0-0.3,0-0.5-0.1L56,28c-0.4-0.1-1-0.3-1.4-0.3l-0.3,0l-0.1-0.1c-0.3-0.4-0.7-0.7-1.2-1c0,0-0.7-0.5-0.7-0.5
	c-0.5-0.4-0.8-1-0.8-1.6c0-0.3,0.1-0.6,0.2-0.8c0.2-0.4,0.5-0.7,0.9-1c0.3-0.3,0.7-0.5,1-0.9c0-0.1,0.1-0.1,0.1-0.2l0.1-0.2
	c0.1-0.2,0.1-0.4,0.1-0.7c0-0.3,0-0.5-0.1-0.8l0-0.2l0.2-0.1c0.1-0.1,0.3-0.2,0.3-0.2l0.2-0.1l0.2,0.2c0.3,0.3,0.8,0.5,0.9,0.5
	c0.3,0.1,0.6,0.2,0.9,0.2c0.4,0,0.7-0.1,0.9-0.4c0.1-0.2,0.3-0.3,0.5-0.3c0.1,0,0.2,0,0.3,0.1c0.1,0.1,0.4,0.2,0.4,0.5
	c0,0.1,0,0.1,0,0.3c0,0.1,0,0.1,0,0.2c0,0.8,0.9,1.3,1.2,1.4c0.1,0,0.5,0.2,0.9,0.3l0.2,0l0.1,0.8L60.6,23c-0.4,0.2-0.9,0.5-1.1,1
	l-0.1,0.2l0,0c0,0.1,0,0.1,0,0.2c-0.1,0.4-0.1,0.7-0.1,1l0,0.6c0,0.4,0,0.7-0.2,1.1C59,27.3,58.8,27.5,58.6,27.7z"/>
<rect x="31.3" y="12.1" class="st1" width="12.5" height="1"/>
<path class="st1" d="M33.8,11.4c0-1.1,0.6-2.3,2.1-2.3c0.9,0,1.4,0.5,1.7,1c0.3-0.5,0.9-1,1.7-1c1.4,0,2.1,1.2,2.1,2.3h1.2
	c0,0,0,0,0,0c0-2-1.3-3.4-3.1-3.4c-0.5,0-0.9,0.1-1.2,0.2V4.6h1.8V3.5h-1.8V1.7h-1.2v1.8h-1.8v1.1h1.8v3.6C36.8,8.1,36.3,8,35.8,8
	c-1.9,0-3.1,1.4-3.1,3.4c0,0,0,0,0,0H33.8z"/>
<path class="st1" d="M33.3,13.7c1,2.1,2.9,4,4.4,4c1.4,0,3.4-1.9,4.4-4h-1.3c-0.8,1.5-2.1,2.9-3.1,2.9c-1,0-2.3-1.3-3.1-2.9H33.3z"
	/>
<polygon class="st0" points="11.3,30.9 11.3,31 11.3,30.9 "/>
<polygon class="st0" points="11.3,30.9 11.3,31 11.3,30.9 "/>
<path class="st0" d="M10.6,63.4c0,15,12.2,27.1,27.1,27.1c15,0,27.1-12.2,27.1-27.1c0-15-12.2-27.1-27.1-27.1
	C22.8,36.3,10.6,48.4,10.6,63.4z"/>
<path class="st2" d="M39.7,74c0,1.1,0.9,2,2,2c1.1,0,2-0.9,2-2H39.7z"/>
<path class="st2" d="M46.6,74.4c-0.4-0.1-0.8-0.2-1-0.4c-0.3,0.5-2.9,4.6-3.2,5.1c0.2,0.1,0.5,0.3,0.9,0.4c0.6,0.2,1.2,0.1,1.9,0.1
	c0.6,0,1.1-0.1,1.5,0c0.5,0.2,0.8,0.5,1,1.1c0,0,0.3-0.2,0.5-0.3l-0.4-5.9C47.4,74.5,47,74.5,46.6,74.4z"/>
<path class="st2" d="M57.7,69C57.7,69,57.7,69,57.7,69c0.5,0,0.8-0.4,0.8-0.8c0-0.4-0.4-0.8-0.8-0.8c-0.5,0-0.8,0.4-0.8,0.8
	c0,0,0,0,0,0.1c-1.5,0.1-4.5,0.2-6.5-1.3c0.2-0.2,0.3-0.5,0.3-0.8c0-0.6-0.5-1.2-1.2-1.2c-0.6,0-1.2,0.5-1.2,1.2
	c0,0.3,0.1,0.6,0.3,0.8c-2,1.5-5,1.4-6.5,1.3c0,0,0,0,0-0.1c0-0.4-0.4-0.8-0.8-0.8c-0.4,0-0.8,0.4-0.8,0.8c0,0.4,0.4,0.8,0.8,0.8
	c0,0,0,0,0,0h6.8l1.1,14.8c0,0.2,0.1,0.3,0.3,0.3c0.2,0,0.3-0.1,0.3-0.3L50.9,69H57.7z"/>
<path class="st2" d="M52.6,75.5c-0.3-0.2-0.6-0.4-1.1-0.5c-0.1,0-0.2,0-0.3,0l-0.5,6.2c0.6,0.3,1.1,0.8,1.5,0.9
	C52.6,82.1,53,82,53,82s2.1-4.8,2.4-5.6c-0.3,0-0.9-0.1-1.3-0.2C53.5,76.1,53,75.8,52.6,75.5z"/>
<path class="st2" d="M57.3,76c1.1,0,2-0.9,2-2h-4C55.3,75.1,56.2,76,57.3,76z"/>
<path class="st2" d="M49.7,46.6c1.2,0,2.2-1,2.2-2.2c0-1.2-1-2.2-2.2-2.2c-1.2,0-2.1,1-2.1,2.2C47.6,45.7,48.5,46.6,49.7,46.6z
	 M49.7,43.7c0.4,0,0.8,0.3,0.8,0.8c0,0.4-0.3,0.8-0.8,0.8c-0.4,0-0.8-0.3-0.8-0.8C48.9,44,49.3,43.7,49.7,43.7z"/>
<polygon class="st2" points="44.1,60.4 45.6,60.4 45.6,56.7 44.1,59.3 "/>
<path class="st2" d="M47.4,53.5L46.5,55v5.4H48v-5.5c0-0.3,0.2-0.5,0.5-0.5c0.3,0,0.5,0.2,0.5,0.5v5.5h1.5v-5.5
	c0-0.3,0.2-0.5,0.5-0.5c0.3,0,0.5,0.2,0.5,0.5v5.5h1.5V55l-0.9-1.5H47.4z"/>
<path class="st2" d="M48.5,47.2c-0.4-0.2-0.7-0.4-1-0.7c-1.8,4.6-5.9,15.1-5.9,15.1c0,0,0.2,0.1,0.2,0.1l7.5-13.1L48.5,47.2z"/>
<path class="st2" d="M43.6,53.2c0-0.9-0.4-1.4-1.2-1.4c-0.4,0-0.7,0.2-0.7,0.7c0,0.4,0.3,0.5,0.5,0.5c0.2,0,0.4,0.2,0.4,0.4
	c0,0.2-0.2,0.4-0.4,0.4c-0.8,0-1.4-0.6-1.4-1.4c0-0.9,0.7-1.5,1.6-1.5c0.9,0,1.6,0.5,1.9,1.2l0.9-2.2h-2.4C41,50,40,51,40,52.6
	c0,1.2,1,2.1,2.1,2.1C43,54.7,43.6,54.1,43.6,53.2z"/>
<polygon class="st2" points="51.5,52.6 50,50 49.4,50 47.9,52.6 "/>
<polygon class="st2" points="53.9,60.4 55.4,60.4 55.4,59.3 53.9,56.7 "/>
<path class="st2" d="M59.4,52.6c0-1.6-1.1-2.6-2.8-2.6h-2.4l0.9,2.2c0.3-0.8,1-1.2,1.9-1.2c0.9,0,1.6,0.7,1.6,1.5
	c0,0.8-0.6,1.4-1.4,1.4c-0.2,0-0.4-0.2-0.4-0.4c0-0.2,0.2-0.4,0.4-0.4c0.2,0,0.5-0.1,0.5-0.5c0-0.4-0.4-0.7-0.7-0.7
	c-0.7,0-1.2,0.5-1.2,1.4c0,0.9,0.6,1.5,1.5,1.5C58.5,54.7,59.4,53.8,59.4,52.6z"/>
<path class="st2" d="M49.7,47.5c-0.1,0-0.1,0-0.2,0l8.1,14.2l0.2-0.1c0,0-4.1-10.4-5.9-15.1C51.4,47.1,50.6,47.5,49.7,47.5z"/>
<path class="st2" d="M18.7,52.1c0,1.2,0.9,1.9,1.7,2.5c0.5,0.4,1.2,0.7,1.5,1.2l1.7-0.5c0,0,0.7-0.5,1-0.7c0.8-0.6,1.7-1.3,1.7-2.5
	v-0.9h-7.8V52.1z"/>
<path class="st2" d="M21.3,57.5l2.6-0.7c0.2-0.1,0.4-0.3,0.3-0.5c-0.1-0.2-0.3-0.4-0.5-0.3l-2.6,0.7c-0.2,0.1-0.4,0.3-0.3,0.5
	C20.9,57.5,21.1,57.6,21.3,57.5z"/>
<path class="st2" d="M23.8,57.8l-2.6,0.7c-0.2,0.1-0.4,0.3-0.3,0.5c0.1,0.2,0.3,0.4,0.5,0.3l2.6-0.7c0.2-0.1,0.4-0.3,0.3-0.5
	C24.3,57.8,24,57.7,23.8,57.8z"/>
<polygon class="st2" points="31.5,40.2 29.1,40.2 29.1,45.1 24.8,45.1 24.8,47.5 29.1,47.5 29.1,61.5 31.5,61.5 31.5,47.5 
	35.8,47.5 35.8,45.1 31.5,45.1 "/>
<path class="st2" d="M21.5,48.9c-0.6-0.1-1.1-0.2-1.8-0.2c-1.4,0-3.1,1.2-3.1,3.4c0,2.5,2,3.7,3.7,4.3c0.1-0.2,0.3-0.3,0.6-0.4
	l0.1,0c-0.3-0.2-0.9-0.5-1.8-1.2c-0.8-0.6-1.6-1.3-1.6-2.7c0-1.6,1.2-2.4,2.2-2.4c0.6,0,1.2,0.1,1.6,0.2c0.4,0.1,1,0.6,1.6,0.6
	c1.1,0,1.5-0.5,1.5-0.5l0.1-0.4c0,0-0.8-0.8-1.6-0.8C22.3,48.8,21.6,48.9,21.5,48.9z M23.4,49.5c0,0.1-0.1,0.2-0.2,0.2
	c-0.1,0-0.2-0.1-0.2-0.2c0-0.1,0.1-0.2,0.2-0.2C23.3,49.3,23.4,49.4,23.4,49.5z"/>
<path class="st2" d="M23.1,59.6l-1.2,0.3c-0.5,0.5-1.6,1-1.6,1.5v0.1h4.6v-0.1C24.8,60.8,23.1,60.1,23.1,59.6z"/>
<path class="st0" d="M15.9,82.9c-0.1-0.1-0.3-0.4-0.6-0.7c-0.1-0.1-0.1-0.1-0.2,0c0,0,0,0.1,0,0.1c0.3,0.4,0.3,0.4-0.4,1l-2.2,1.9
	c-0.1,0.1-0.1,0.1-0.2-0.1c-0.4-0.4-0.3-0.9,0.2-1.4c0.4-0.4,1-0.3,1.2,0c0.1,0.1,0.2,0.1,0.2,0.1c0.1-0.1,0-0.2-0.1-0.2
	c-0.6-0.7-1.4-0.7-2-0.2c-0.6,0.5-0.4,1.2,0.1,1.8c0.2,0.2,0.4,0.5,0.6,0.6c0.1,0.1,0.3,0.4,0.5,0.6c0.1,0.1,0.1,0.1,0.2,0.1
	c0,0,0-0.1,0-0.2c-0.2-0.3-0.3-0.4,0.1-0.7l2.2-1.8c0.6-0.5,0.7-0.5,0.9-0.2c0,0.1,0.1,0.1,0.1,0c0,0,0-0.1,0-0.2
	C16.2,83.3,16,83,15.9,82.9z"/>
<path class="st0" d="M12.7,78.4c-0.8-1.3-2.2-1.6-3.3-0.9c-1.2,0.7-1.4,1.9-0.7,3.2c0.9,1.5,2.4,1.4,3.2,0.9
	C12.8,81.1,13.5,79.8,12.7,78.4z M9.1,80.7c-0.5-0.8-0.2-1.9,0.9-2.5c1.4-0.9,2.1-0.1,2.3,0.2c0.6,1,0.1,2-0.9,2.6
	C10.1,81.7,9.4,81.2,9.1,80.7z"/>
<path class="st0" d="M10.7,75.4c0,0.1,0.1,0.1,0.1,0.1c0.1,0,0.1-0.1,0-0.2c-0.1-0.3-0.2-0.5-0.2-0.6c0-0.1-0.1-0.3-0.2-0.7
	c0-0.1-0.1-0.1-0.1-0.1c0,0,0,0.1,0,0.1c0.1,0.3,0.1,0.5-0.5,0.7l-2.2,0.8l1.9-4c0-0.1,0.1-0.2,0.1-0.2c0-0.1-0.1-0.1-0.2,0
	l-3.5,1.2c-0.3,0.1-0.5,0.1-0.6-0.2c0-0.1-0.1-0.1-0.1-0.1c-0.1,0-0.1,0.1,0,0.2c0.1,0.3,0.2,0.5,0.2,0.5c0,0.1,0.1,0.4,0.2,0.7
	c0,0.1,0.1,0.2,0.1,0.1c0.1,0,0.1-0.1,0-0.1C5.6,73.2,5.6,73.1,6,73l2.4-0.9l-2,3.9c0,0.1-0.1,0.2-0.1,0.3c0,0.1,0.1,0.1,0.2,0
	l3.4-1.1C10.6,75,10.6,75.1,10.7,75.4z"/>
<path class="st0" d="M5.5,70.9c0.1,0,0.1,0,0.1-0.1c0-0.1-0.1-0.1-0.1-0.1c-0.2,0-0.4-0.1-0.5-0.6l-0.2-0.8l2.9-0.5
	c0.9-0.2,1-0.1,1,0.2c0,0.1,0,0.1,0.1,0.1C9,69.1,9,69.1,9,69c0-0.2-0.1-0.6-0.1-0.7c0-0.2-0.1-0.5-0.1-0.9c0-0.1-0.1-0.1-0.1-0.1
	c-0.1,0-0.1,0.1-0.1,0.1c0.1,0.5,0,0.5-0.9,0.7l-2.8,0.5l-0.1-0.7c-0.1-0.5,0-0.7,0.3-0.7c0.1,0,0.1-0.1,0.1-0.1
	c0,0-0.1-0.1-0.1-0.1c-0.1,0-0.6,0.1-0.7,0.1c-0.1,0-0.1,0-0.1,0.1c0,0,0.1,0.2,0.2,0.5l0.4,2.6c0,0.3,0,0.5,0,0.5
	c0,0.1,0,0.1,0.1,0.1C4.9,70.8,5.4,70.9,5.5,70.9z"/>
<path class="st0" d="M4.3,65.7c0-0.3,0.1-0.4,0.3-0.4c0.2,0,0.4,0,1.2-0.1l1,0c0.6,0,1,0,1.3,0c0.3,0,0.3,0.1,0.3,0.3
	c0,0.1,0,0.1,0.1,0.1c0.1,0,0.1-0.1,0.1-0.2c0-0.2,0-0.6-0.1-0.7c0-0.2,0-0.5,0-0.9c0-0.1,0-0.1-0.1-0.1c-0.1,0-0.1,0.1-0.1,0.1
	c0,0.3,0,0.5-0.3,0.5c-0.2,0-0.7,0.1-1.3,0.1l-1,0c-0.9,0-1,0.1-1.2,0c-0.3,0-0.3-0.1-0.3-0.4c0-0.1,0-0.1-0.1-0.1
	c0,0-0.1,0.1-0.1,0.2c0,0.2,0,0.6,0,0.7c0,0.2,0,0.5,0,0.8c0,0.1,0,0.2,0.1,0.2C4.2,65.9,4.3,65.8,4.3,65.7z"/>
<path class="st0" d="M4.1,62.3c0,0,0.1,0,0.1-0.1c0-0.4,0.1-0.5,0.7-0.4l2.6,0.2c0.8,0.1,0.8,0.1,0.8,0.4c0,0.1,0,0.1,0.1,0.1
	c0.1,0,0.1,0,0.1-0.1c0-0.2,0-0.6,0-0.7c0-0.2,0.1-0.5,0.1-0.9c0-0.1,0-0.2-0.1-0.2c-0.1,0-0.1,0-0.1,0.1c0,0.4,0,0.5-0.9,0.5
	l-0.9-0.1c0,0,0,0,0,0c0-0.1,0.1-0.7,0.1-0.8c0-0.2,0.2-0.3,0.4-0.3c0.1,0,0.1,0,0.1-0.1c0-0.1-0.1-0.1-0.1-0.1
	c-0.4,0-0.7-0.1-0.8-0.1c0,0-0.1,0-0.1,0.1c0,0.1,0.2,0.1,0.1,0.4l-0.1,1c0,0,0,0,0,0l-1.7-0.1c0,0,0,0,0,0L4.6,60
	c0-0.2,0.1-0.3,0.2-0.3c0.1,0,0.1,0,0.2,0c0.1,0,0.1,0,0.1-0.1c0-0.1,0-0.1-0.1-0.1c-0.1,0-0.4-0.1-0.5-0.1c-0.1,0-0.1,0-0.2-0.1
	c0,0,0,0,0,0c0,0-0.1,0-0.1,0.1c0,0,0,0,0,0.1l0,0c0,0.1,0,0.2,0,0.3c0,0.1-0.1,1.3-0.1,1.5c0,0.2-0.1,0.5-0.1,0.8
	C4,62.2,4,62.3,4.1,62.3z"/>
<path class="st0" d="M4.6,57.8c0.1-0.3,0.2-0.3,0.4-0.3c0.2,0,0.3,0.1,1.2,0.2l1,0.2c0.6,0.1,1,0.2,1.2,0.3c0.2,0.1,0.3,0.2,0.2,0.4
	c0,0.1,0,0.1,0,0.1c0.1,0,0.1,0,0.1-0.1C8.9,58.4,9,58,9,57.9c0-0.2,0.1-0.5,0.2-0.9c0-0.1,0-0.2-0.1-0.2c-0.1,0-0.1,0-0.1,0.1
	c-0.1,0.3-0.1,0.5-0.4,0.4c-0.2,0-0.7-0.1-1.3-0.2l-1-0.2c-0.9-0.2-1-0.2-1.2-0.2c-0.2-0.1-0.3-0.2-0.2-0.4c0-0.1,0-0.1-0.1-0.1
	c0,0-0.1,0-0.1,0.1c0,0.2-0.1,0.6-0.1,0.7c0,0.2-0.1,0.5-0.2,0.7c0,0.1,0,0.2,0,0.2C4.6,57.9,4.6,57.9,4.6,57.8z"/>
<path class="st0" d="M7.2,55c1.6,0.6,2.7-0.4,3.2-1.8c0.1-0.4,0.2-0.8,0.2-1.1c0-0.1,0-0.2-0.1-0.2c-0.2-0.1-0.6-0.4-0.7-0.4
	c-0.1,0-0.1,0-0.1,0c0,0.1,0,0.1,0.1,0.1c0.4,0.3,0.5,0.6,0.2,1.4c-0.3,1-1.2,1.5-2.5,1c-1-0.4-1.6-1.1-1.2-2.1
	c0.2-0.6,0.7-1.2,1.3-1c0.1,0,0.2,0,0.2,0c0-0.1,0-0.1-0.1-0.1c-0.1-0.1-0.4-0.2-0.6-0.2c-0.2-0.1-0.2-0.1-0.3-0.1
	c-0.1,0-0.1,0-0.1,0.1c-0.1,0.3-0.4,0.7-0.6,1.3C5.5,53.1,5.9,54.5,7.2,55z"/>
<path class="st0" d="M7.5,48.8c0.2-0.3,0.3-0.3,0.5-0.2c0.2,0.1,0.3,0.2,1.1,0.6l0.9,0.5c0.5,0.3,0.9,0.5,1.1,0.6
	c0.2,0.1,0.2,0.2,0.1,0.4c0,0.1,0,0.1,0,0.1c0,0,0.1,0,0.2-0.1c0.1-0.2,0.3-0.6,0.3-0.7c0.1-0.1,0.3-0.5,0.4-0.8c0-0.1,0-0.2,0-0.2
	c0,0-0.1,0-0.1,0.1c-0.1,0.3-0.3,0.4-0.5,0.3c-0.2-0.1-0.6-0.3-1.1-0.6l-0.9-0.5c-0.8-0.4-0.9-0.5-1.1-0.6c-0.2-0.1-0.2-0.2-0.1-0.5
	c0,0,0-0.1,0-0.2c0,0-0.1,0-0.1,0.1C8,47.6,7.8,47.9,7.7,48c-0.1,0.2-0.3,0.5-0.4,0.7c-0.1,0.1-0.1,0.2,0,0.2
	C7.4,48.9,7.5,48.9,7.5,48.8z"/>
<path class="st0" d="M12.2,47.7c0.2,0.4,0.3,0.5,0,0.8c0,0,0,0.1,0,0.1c0.1,0,0.1,0,0.2-0.1c0.2-0.2,0.3-0.5,0.4-0.6
	c0.1-0.1,0.3-0.3,0.4-0.5c0-0.1,0.1-0.1,0-0.2c-0.1,0-0.1,0-0.2,0.1c-0.1,0.2-0.2,0.2-0.3,0.1c-0.1,0-0.1-0.1-0.2-0.3l-0.3-0.5
	c0,0,0,0,0-0.1l0.8-1.2c0,0,0,0,0.1,0l1,0.3c0.1,0-0.1,0.3-0.1,0.3c0,0,0,0.1,0,0.1c0,0,0.1,0,0.2-0.1c0.1-0.1,0.3-0.4,0.4-0.5
	c0.1-0.1,0.3-0.3,0.3-0.4c0.1-0.2,0.1-0.3,0.1-0.3c-0.1,0-0.1,0-0.1,0C14.7,45,14.3,45,14,44.9c-0.9-0.2-3.4-0.8-3.8-0.8
	c-0.2,0-0.2,0-0.3,0c0,0.1,0,0.1,0.1,0.3L12.2,47.7z M10.9,44.9L10.9,44.9l1.7,0.5l-0.7,1L10.9,44.9C10.9,44.9,10.9,44.9,10.9,44.9
	L10.9,44.9z"/>
<path class="st0" d="M19.1,38.1l-1-1.2c-0.4-0.4-0.4-0.5-0.1-0.8c0.1-0.1,0.1-0.1,0-0.2c0,0-0.1,0-0.2,0c-0.2,0.1-0.3,0.3-0.5,0.4
	c-0.1,0.1-0.3,0.2-0.5,0.4c-0.1,0.1-0.1,0.1-0.1,0.2c0,0,0.1,0,0.2,0c0.3-0.3,0.4-0.2,0.8,0.2l1,1.2c0.7,0.9,0.9,1.5,0.2,2
	c-0.8,0.6-1.4,0.2-1.9-0.5l-1.1-1.3c-0.4-0.4-0.4-0.5-0.1-0.8c0.1-0.1,0.1-0.1,0-0.1c0,0-0.1,0-0.2,0c-0.2,0.1-0.4,0.3-0.5,0.5
	c-0.2,0.2-0.4,0.3-0.7,0.5c-0.1,0.1-0.1,0.1-0.1,0.2c0,0,0.1,0,0.1,0c0.3-0.3,0.4-0.2,0.8,0.2l1.1,1.3c0.9,1,1.7,1.1,2.7,0.3
	C20.1,40.1,19.9,39.1,19.1,38.1z"/>
<path class="st0" d="M21.6,38c0.3,0.5,0.2,0.6-0.1,0.7c-0.1,0-0.1,0.1-0.1,0.1c0,0.1,0.1,0.1,0.2,0c0.3-0.1,0.5-0.3,0.5-0.3
	c0.1-0.1,0.3-0.2,0.7-0.3c0.1,0,0.1-0.1,0.1-0.2c0,0-0.1,0-0.1,0c-0.3,0.2-0.5,0.2-0.8-0.3l-1.2-2.1l4.2,1.2c0.1,0,0.2,0,0.3,0
	c0.1,0,0.1-0.1,0-0.2l-1.7-3.3c-0.2-0.3-0.2-0.5,0.1-0.6c0.1,0,0.1-0.1,0.1-0.1c0-0.1-0.1,0-0.2,0c-0.3,0.1-0.4,0.3-0.5,0.3
	c-0.1,0.1-0.4,0.2-0.6,0.3c-0.1,0.1-0.1,0.1-0.1,0.2c0,0.1,0.1,0,0.1,0c0.3-0.2,0.5-0.2,0.7,0.2l1.3,2.2l-4.2-1.3
	c-0.1,0-0.3-0.1-0.3,0c-0.1,0,0,0.1,0,0.2L21.6,38z"/>
<path class="st0" d="M25.5,32.2c0.3-0.1,0.4,0,0.5,0.2c0.1,0.2,0.1,0.3,0.4,1.2l0.3,1c0.2,0.5,0.3,1,0.4,1.2c0.1,0.3,0,0.3-0.2,0.4
	c-0.1,0-0.1,0.1-0.1,0.1c0,0.1,0.1,0.1,0.2,0c0.2-0.1,0.6-0.2,0.7-0.3c0.1-0.1,0.5-0.2,0.9-0.3c0.1,0,0.1-0.1,0.1-0.1
	c0-0.1-0.1-0.1-0.1,0c-0.3,0.1-0.5,0.1-0.6-0.1c-0.1-0.2-0.3-0.7-0.5-1.2l-0.3-1c-0.3-0.8-0.4-1-0.4-1.2c-0.1-0.2,0-0.3,0.2-0.4
	c0.1,0,0.1-0.1,0.1-0.1c0,0-0.1,0-0.2,0c-0.2,0.1-0.5,0.2-0.7,0.3c-0.2,0.1-0.5,0.2-0.7,0.2c-0.1,0-0.2,0.1-0.1,0.1
	C25.4,32.2,25.4,32.2,25.5,32.2z"/>
<path class="st0" d="M32.9,30.1c0.1,0,0.1,0,0.1-0.1c0-0.1-0.1-0.1-0.2-0.1c-0.2,0-0.3,0.1-0.5,0.1c-0.2,0-0.3,0-0.6,0.1
	c-0.1,0-0.2,0.1-0.2,0.1c0,0,0.1,0.1,0.1,0c0.2,0,0.3,0,0.3,0c0,0,0,0.1,0,0.2l-0.5,3l-1.5-2.3c-0.1-0.2-0.2-0.3-0.2-0.4
	c0-0.1,0.1-0.2,0.2-0.2c0.1,0,0.1,0,0.1-0.1c0-0.1-0.1-0.1-0.2,0c-0.3,0.1-0.6,0.1-0.7,0.2c-0.2,0-0.5,0.1-0.8,0.2
	c-0.1,0-0.2,0.1-0.2,0.1c0,0.1,0.1,0.1,0.1,0.1c0.4-0.1,0.6,0.1,0.7,0.3l2.3,3.3c0.1,0.1,0.2,0.2,0.2,0.2c0.1,0,0.1-0.1,0.2-0.3
	l0.8-3.8C32.5,30.3,32.6,30.2,32.9,30.1z"/>
<path class="st0" d="M37.2,33.2c-0.1,0-0.1,0-0.1,0.1c0,0.2-0.1,0.3-0.2,0.4c-0.1,0.1-0.6,0.1-0.7,0.1c-0.4,0-0.5,0-0.5-0.4
	c0-0.2,0-0.7-0.1-1.3c0,0,0,0,0,0c0,0,0.7,0,0.8,0c0.3,0,0.3,0.2,0.4,0.4c0,0,0,0.1,0.1,0.1c0.1,0,0.1-0.1,0.1-0.1
	c0-0.3,0-0.7,0-0.8c0-0.1,0-0.1-0.1-0.1c0,0-0.1,0.1-0.1,0.1c0,0-0.2,0.1-0.5,0.1c-0.2,0-0.5,0-0.6,0c0,0,0,0,0,0l-0.1-1.6
	c0,0,0,0,0,0c1.1-0.1,1.2,0,1.3,0.3c0,0,0,0.1,0.1,0.1c0.1,0,0.1,0,0.1-0.1c0-0.5,0-0.6,0-0.8c0,0,0-0.1-0.1-0.1
	c0,0-0.1,0.1-0.3,0.1c-0.1,0-1.3,0.1-1.5,0.1c-0.2,0-0.5,0-0.9,0c-0.1,0-0.2,0-0.2,0.1c0,0.1,0,0.1,0.1,0.1c0.3,0,0.5,0,0.5,0.3
	c0,0.2,0,0.3,0.1,1.2l0.1,1c0,0.3,0,0.6,0,0.8c0,0.7,0,0.7-0.3,0.7c-0.1,0-0.1,0-0.1,0.1c0,0.1,0,0.1,0.1,0.1c0.2,0,0.6-0.1,0.7-0.1
	c0.6,0,1.2,0,1.8-0.1c0.1,0,0.2-0.1,0.2-0.2c0-0.1,0-0.5,0-0.7C37.3,33.2,37.3,33.2,37.2,33.2z"/>
<path class="st0" d="M38.6,34.1c0.2,0,0.6,0,0.7,0c0.1,0,0.5,0.1,0.9,0.1c0.1,0,0.1,0,0.1-0.1c0-0.1,0-0.1-0.1-0.1
	c-0.5,0-0.5-0.2-0.5-0.8l0.1-0.9c0,0,0,0,0,0l0.5,0.1c0,0,0.1,0,0.1,0.1c0.2,0.3,0.3,0.6,0.5,0.8c0.4,0.7,0.7,1,1.4,1.1l0.6,0.1
	c0.1,0,0.1,0,0.1-0.1c0-0.1,0-0.1-0.1-0.1c-0.5,0-0.8-0.4-1.9-2.1c0.6-0.4,0.8-0.8,0.9-1.2c0.1-0.8-0.7-1.1-1.4-1.2
	c-0.2,0-0.6,0-0.8-0.1c-0.1,0-0.5-0.1-0.8-0.1c-0.1,0-0.2,0-0.2,0.1c0,0.1,0,0.1,0.1,0.1c0.5,0,0.5,0.1,0.4,0.7l-0.3,2.8
	C39,33.9,38.9,34,38.6,34c-0.1,0-0.1,0-0.1,0.1C38.5,34.1,38.5,34.1,38.6,34.1z M40.1,30.2c0,0,0-0.1,0.3,0c0.5,0,0.8,0.5,0.8,1.1
	c0,0.5-0.3,0.9-0.8,0.9c-0.3,0-0.5-0.1-0.5-0.2L40.1,30.2z"/>
<path class="st0" d="M46.2,34.1c0.3-1.3-1.3-1.9-1.1-2.8c0.1-0.3,0.4-0.5,0.8-0.4c0.4,0.1,0.7,0.5,0.6,0.8c0,0.1,0,0.1,0.1,0.2
	c0.1,0,0.1,0,0.1-0.2c0.1-0.4,0.2-0.6,0.2-0.7c0,0,0-0.1-0.1-0.1c-0.1-0.1-0.4-0.2-0.8-0.3c-0.8-0.2-1.5,0.1-1.6,0.8
	c-0.3,1.3,1.3,1.8,1.1,2.8c-0.1,0.3-0.4,0.6-0.9,0.4c-0.6-0.1-0.7-0.6-0.6-1c0-0.1,0-0.1-0.1-0.1c-0.1,0-0.1,0-0.1,0.1l-0.2,0.8
	c0,0.2,0.3,0.4,0.9,0.5C45.2,35.2,46,34.9,46.2,34.1z"/>
<path class="st0" d="M48.9,36.2c0-0.1,0-0.1-0.1-0.1c-0.3-0.1-0.4-0.2-0.4-0.4c0.1-0.2,0.2-0.7,0.4-1.2l0.4-1c0.3-0.8,0.4-1,0.4-1.1
	c0.1-0.2,0.2-0.3,0.5-0.2c0.1,0,0.1,0,0.1,0c0,0,0-0.1-0.1-0.1c-0.2-0.1-0.5-0.2-0.7-0.2c-0.2-0.1-0.5-0.2-0.7-0.3
	c-0.1,0-0.2,0-0.2,0c0,0.1,0,0.1,0.1,0.1c0.3,0.1,0.3,0.2,0.2,0.4c-0.1,0.2-0.1,0.3-0.4,1.2l-0.4,1c-0.2,0.5-0.4,1-0.5,1.2
	c-0.1,0.2-0.2,0.2-0.4,0.2c-0.1,0-0.1,0-0.1,0c0,0.1,0,0.1,0.1,0.1c0.2,0.1,0.6,0.2,0.7,0.2c0.1,0.1,0.5,0.2,0.8,0.3
	C48.8,36.3,48.8,36.3,48.9,36.2z"/>
<path class="st0" d="M50,36.6c0,0,0,0.1,0.1,0.1c0.2,0.1,0.5,0.3,0.7,0.3c0.3,0.1,0.7,0.5,1.1,0.7c1.3,0.7,2.7,0.6,3.4-0.7
	c0.8-1.4,0-2.5-1.5-3.3c-0.3-0.2-0.6-0.3-0.8-0.4c-0.1-0.1-0.5-0.3-0.7-0.4c-0.1-0.1-0.2-0.1-0.2,0c0,0,0,0.1,0.1,0.1
	c0.3,0.2,0.4,0.3,0.2,0.5c-0.1,0.2-0.2,0.3-0.6,1.1l-0.5,0.9c-0.7,1.3-0.8,1.3-1,1.2C50.1,36.6,50,36.6,50,36.6z M51.6,36.3l1.3-2.4
	c0.1-0.2,0.1-0.2,0.5,0c1.1,0.6,1.6,1.7,1,2.8c-0.6,1.1-1.4,1.3-2.5,0.7C51.2,37.1,51.3,37,51.6,36.3z"/>
<path class="st0" d="M58.1,41.3c0.3-0.9,1.1-3.3,1.2-3.7c0-0.2,0-0.2,0-0.3c0,0-0.1,0-0.3,0.1l-3.5,1.9c-0.4,0.2-0.6,0.2-0.8,0
	c0,0-0.1-0.1-0.1,0c0,0,0,0.1,0.1,0.2c0.2,0.2,0.5,0.4,0.5,0.4c0.1,0.1,0.3,0.3,0.5,0.4c0.1,0,0.1,0.1,0.2,0c0,0,0-0.1-0.1-0.2
	c-0.1-0.1-0.1-0.2-0.1-0.3c0,0,0.2-0.1,0.3-0.2l0.6-0.3c0,0,0,0,0.1,0l1.1,0.9c0,0,0,0,0,0.1l-0.3,1c0,0.1-0.3-0.1-0.3-0.1
	c0,0-0.1,0-0.1,0c0,0,0,0.1,0.1,0.2c0.1,0.1,0.4,0.3,0.5,0.4c0.1,0.1,0.3,0.3,0.4,0.4c0.2,0.2,0.3,0.2,0.3,0.1c0-0.1,0-0.1,0-0.1
	C57.9,42,58,41.6,58.1,41.3z M57.7,39.9l-1-0.8l1.5-0.9c0,0,0,0,0,0l0,0l0,0L57.7,39.9z"/>
<path class="st0" d="M60.1,44.6c0.9,1.1,2.3,1.5,3.5,0.5c1.2-1,0.9-2.3-0.2-3.7c-0.2-0.3-0.5-0.5-0.6-0.7c-0.1-0.1-0.3-0.4-0.5-0.7
	C62.1,40,62.1,40,62,40c0,0,0,0.1,0,0.2c0.2,0.2,0.2,0.4,0,0.6c-0.1,0.1-0.3,0.2-0.9,0.8l-0.8,0.7c-1.1,0.9-1.2,1-1.4,0.8
	c-0.1-0.1-0.1-0.1-0.2-0.1c0,0,0,0.1,0,0.2c0.1,0.2,0.4,0.5,0.5,0.6C59.5,43.8,59.8,44.2,60.1,44.6z M60.5,43.1l2.1-1.7
	c0.1-0.1,0.2-0.1,0.5,0.2c0.8,1,0.8,2.2-0.1,3c-1,0.8-1.8,0.7-2.6-0.2C59.8,43.8,59.9,43.6,60.5,43.1z"/>
<path class="st0" d="M65.2,53.1c0.1,0.1,0.1,0.1,0.2,0.1c0.2,0,0.7-0.2,0.8-0.2c0.1,0,0.1-0.1,0.1-0.1c0-0.1-0.1-0.1-0.2,0
	c-0.5,0.1-0.8-0.1-1.1-0.9c-0.4-0.9-0.1-1.9,1.1-2.5c1-0.4,1.9-0.3,2.3,0.7c0.3,0.6,0.3,1.4-0.2,1.6c-0.1,0-0.1,0.1-0.1,0.1
	c0,0.1,0.1,0.1,0.2,0c0.1,0,0.4-0.2,0.6-0.2c0.2-0.1,0.3-0.1,0.3-0.1c0,0,0.1-0.1,0-0.1c-0.1-0.3-0.1-0.8-0.4-1.4
	c-0.6-1.3-1.8-2-3.1-1.5c-1.5,0.7-1.7,2.2-1.1,3.5C64.8,52.5,65,52.9,65.2,53.1z"/>
<path class="st0" d="M65.7,53.9C65.7,53.9,65.6,53.8,65.7,53.9c-0.2-0.1-0.2,0-0.1,0.1c0.1,0.3,0.2,0.6,0.2,0.7
	c0,0.2,0.1,0.4,0.1,0.6c0,0.1,0,0.1,0.1,0.1c0.1,0,0.1-0.1,0-0.2c0-0.2,0-0.2,0.1-0.3c0.1,0,0.2,0,0.4,0l0.6,0.1c0,0,0,0,0,0
	l0.3,1.4c0,0,0,0,0,0.1l-0.9,0.6c0,0-0.2-0.3-0.2-0.3c0,0,0-0.1-0.1-0.1c-0.1,0-0.1,0.1,0,0.2c0,0.1,0.1,0.5,0.2,0.6
	c0,0.2,0.1,0.4,0.1,0.6c0.1,0.2,0.1,0.3,0.2,0.3c0.1,0,0.1-0.1,0-0.1c-0.1-0.3,0.2-0.5,0.5-0.7c0.8-0.6,2.8-2.1,3.1-2.3
	c0.1-0.1,0.2-0.2,0.2-0.2c0-0.1-0.1-0.1-0.3-0.1l-3.9-0.5C65.9,54.4,65.8,54.3,65.7,53.9z M69.2,55.2C69.3,55.2,69.3,55.2,69.2,55.2
	L69.2,55.2L69.2,55.2l-1.5,1l-0.3-1.2L69.2,55.2z"/>
<path class="st0" d="M70.4,58.4c-0.1,0-0.1,0-0.1,0.1c0,0.1,0,0.1,0.1,0.1c0.2,0,0.4,0.1,0.4,0.6l0.1,0.8L68,60.3
	c-0.9,0.1-1,0-1-0.3c0-0.1,0-0.1-0.1-0.1c-0.1,0-0.1,0-0.1,0.1c0,0.2,0.1,0.6,0.1,0.7c0,0.2,0,0.5,0.1,0.9c0,0.1,0,0.1,0.1,0.1
	c0.1,0,0.1-0.1,0.1-0.1c0-0.5,0-0.5,1-0.6l2.9-0.3l0,0.7c0,0.5-0.1,0.7-0.3,0.7c-0.1,0-0.1,0.1-0.1,0.1c0,0,0,0.1,0.1,0.1
	c0.1,0,0.6,0,0.7,0c0.1,0,0.2,0,0.1-0.1c0,0-0.1-0.2-0.1-0.6l-0.2-2.6c0-0.3,0.1-0.5,0.1-0.5c0-0.1,0-0.1-0.1-0.1
	C71,58.5,70.5,58.4,70.4,58.4z"/>
<path class="st0" d="M72.1,67c0,0-0.5-0.9-0.7-1.2c0-1.5-1.2-2.2-2.1-2.3c-1-0.1-2.4,0.5-2.5,2.2c-0.1,1.5,0.9,2.5,2.2,2.7
	c1.3,0.1,2.2-0.7,2.4-2.1c0.1,0.5,0.3,1.1,0.3,1.1c0,0.1,0.1,0.1,0.2,0.1c0.1-0.1,0.2-0.1,0.2-0.1C72.1,67.2,72.2,67.1,72.1,67z
	 M71.1,66c-0.1,0.9-0.9,1.6-2.2,1.5c-1.7-0.1-1.8-1.1-1.7-1.5c0.1-1.1,1.1-1.7,2.3-1.6C70.8,64.5,71.1,65.3,71.1,66z"/>
<path class="st0" d="M70.6,70.4c-0.1,0.4-0.2,0.4-0.9,0.2L67.5,70c-0.9-0.2-1-0.3-0.9-0.6c0-0.1,0-0.1,0-0.1c-0.1,0-0.1,0-0.1,0.1
	c-0.1,0.2-0.1,0.6-0.2,0.7c-0.1,0.5-0.2,0.8-0.5,1.7c-0.1,0.3-0.1,0.4,0.1,0.4c0.2,0.1,0.7,0.3,0.7,0.3c0.1,0,0.1,0,0.1,0
	c0-0.1,0-0.1-0.1-0.1c-0.4-0.2-0.5-0.3-0.3-0.9c0.2-0.7,0.3-0.8,1-0.6l2.2,0.6c0.7,0.2,0.7,0.2,0.6,0.6c0,0.1,0,0.1,0.1,0.1
	c0,0,0.1,0,0.1-0.1c0.1-0.2,0.1-0.6,0.2-0.8c0-0.2,0.2-0.5,0.2-0.8c0-0.1,0-0.2,0-0.2C70.6,70.3,70.6,70.3,70.6,70.4z"/>
<path class="st0" d="M69.2,75c-0.1,0.3-0.2,0.3-0.4,0.2c-0.2-0.1-0.3-0.1-1.2-0.4l-1-0.4c-0.5-0.2-1-0.4-1.2-0.5
	c-0.2-0.1-0.2-0.2-0.1-0.4c0-0.1,0-0.1,0-0.1c-0.1,0-0.1,0-0.1,0.1c-0.1,0.2-0.2,0.6-0.3,0.7c-0.1,0.1-0.2,0.5-0.4,0.8
	c0,0.1,0,0.2,0,0.2c0.1,0,0.1,0,0.1-0.1c0.1-0.3,0.2-0.4,0.4-0.4c0.2,0.1,0.7,0.2,1.2,0.4l1,0.4c0.8,0.3,1,0.4,1.1,0.5
	c0.2,0.1,0.3,0.2,0.2,0.5c0,0.1,0,0.1,0,0.2c0,0,0.1,0,0.1-0.1c0.1-0.2,0.2-0.5,0.3-0.7c0.1-0.2,0.2-0.5,0.3-0.7c0-0.1,0-0.2,0-0.2
	C69.3,74.9,69.2,75,69.2,75z"/>
<path class="st0" d="M66.2,77.3c-1.4-0.8-2.7-0.1-3.5,1.2c-0.2,0.3-0.4,0.7-0.4,1c0,0.1,0,0.2,0.1,0.2c0.1,0.2,0.5,0.5,0.6,0.5
	c0.1,0,0.1,0,0.1,0c0-0.1,0-0.1-0.1-0.2c-0.4-0.4-0.4-0.7,0-1.4c0.5-0.9,1.5-1.2,2.7-0.6c0.9,0.6,1.3,1.4,0.8,2.3
	c-0.3,0.6-0.9,1.1-1.5,0.8c-0.1-0.1-0.2-0.1-0.2,0c0,0.1,0,0.1,0.1,0.2c0.1,0.1,0.4,0.2,0.5,0.3c0.2,0.1,0.2,0.2,0.3,0.2
	c0,0,0.1,0,0.1-0.1c0.2-0.3,0.5-0.6,0.9-1.2C67.5,79.4,67.4,78,66.2,77.3z"/>
<path class="st0" d="M61.9,81.2c-0.2-0.4-0.2-0.6,0-0.8c0,0,0.1-0.1,0-0.1c0,0-0.1,0-0.2,0.1c-0.2,0.2-0.4,0.5-0.4,0.5
	c-0.1,0.1-0.3,0.3-0.4,0.5c0,0.1-0.1,0.1,0,0.2c0,0,0.1,0,0.2-0.1c0.1-0.1,0.2-0.1,0.3-0.1c0,0,0.1,0.2,0.2,0.3l0.3,0.6
	c0,0,0,0,0,0.1l-0.9,1.1c0,0,0,0-0.1,0l-1-0.3c-0.1,0,0.1-0.3,0.1-0.3c0,0,0-0.1,0-0.1c0,0-0.1,0-0.2,0.1c-0.1,0.1-0.3,0.4-0.4,0.5
	c-0.1,0.1-0.3,0.3-0.4,0.4c-0.2,0.2-0.2,0.3-0.1,0.3c0.1,0,0.1,0,0.1,0c0.2-0.2,0.5-0.1,0.9,0c0.9,0.3,3.3,1.1,3.7,1.2
	c0.2,0,0.2,0,0.3,0c0,0,0-0.1-0.1-0.3L61.9,81.2z M61.3,83.4l0.8-0.9l0.9,1.5c0,0,0,0,0,0l0,0L61.3,83.4z"/>
<path class="st0" d="M22.1,88.3c-0.3-0.2-0.6-0.4-0.8-0.5c-0.1-0.1-0.4-0.3-0.7-0.5c-0.1-0.1-0.2-0.1-0.2,0c0,0,0,0.1,0.1,0.1
	c0.3,0.2,0.3,0.3,0.2,0.5c-0.1,0.2-0.2,0.3-0.6,1.1L19.6,90c-0.8,1.3-0.8,1.3-1.1,1.2c-0.1-0.1-0.2-0.1-0.2,0c0,0,0,0.1,0.1,0.2
	c0.2,0.1,0.5,0.3,0.6,0.4c0.2,0.1,0.7,0.5,1,0.7c1.3,0.8,2.7,0.7,3.5-0.6C24.4,90.3,23.6,89.2,22.1,88.3z M22.7,91.4
	c-0.7,1.1-1.5,1.3-2.5,0.6c-0.6-0.4-0.6-0.5-0.2-1.2l1.4-2.3c0.1-0.2,0.1-0.2,0.5,0C23,89.2,23.4,90.3,22.7,91.4z"/>
<path class="st0" d="M28.4,91.3c-0.1,0-1.2-0.4-1.4-0.5c-0.2-0.1-0.5-0.2-0.8-0.3c-0.1,0-0.2,0-0.2,0c0,0.1,0,0.1,0.1,0.1
	c0.3,0.1,0.4,0.2,0.3,0.5c-0.1,0.2-0.1,0.3-0.4,1.2l-0.4,1c-0.1,0.3-0.2,0.6-0.3,0.8c-0.2,0.6-0.3,0.7-0.6,0.5c-0.1,0-0.1,0-0.1,0
	c0,0.1,0,0.1,0.1,0.1c0.2,0.1,0.6,0.2,0.7,0.2c0.6,0.2,1.1,0.4,1.7,0.6c0.1,0,0.2,0,0.3-0.1c0.1-0.1,0.2-0.5,0.3-0.6
	c0-0.1,0-0.1,0-0.2c-0.1,0-0.1,0-0.1,0.1c-0.1,0.2-0.2,0.3-0.4,0.3c-0.2,0-0.6-0.1-0.7-0.2c-0.4-0.1-0.4-0.2-0.3-0.6
	c0.1-0.2,0.2-0.6,0.5-1.3c0,0,0,0,0,0c0,0,0.6,0.3,0.7,0.3c0.3,0.1,0.2,0.3,0.2,0.5c0,0,0,0.1,0,0.1c0.1,0,0.1,0,0.1-0.1
	c0.1-0.3,0.3-0.7,0.3-0.7c0-0.1,0-0.1,0-0.1c0,0-0.1,0-0.2,0c-0.1,0-0.2,0-0.5-0.1c-0.2-0.1-0.5-0.2-0.6-0.2c0,0,0,0,0-0.1l0.5-1.5
	c0,0,0,0,0,0c1.1,0.4,1.1,0.4,1,0.8c0,0,0,0.1,0,0.1c0.1,0,0.1,0,0.1-0.1c0.2-0.4,0.3-0.6,0.3-0.7c0,0,0-0.1,0-0.1
	C28.7,91.3,28.6,91.4,28.4,91.3z"/>
<path class="st0" d="M36.7,92.9c-0.3-0.1-0.7-0.2-1.4-0.3c-1.4-0.1-2.7,0.5-2.8,1.9c-0.2,1.7,1.1,2.5,2.5,2.7c0.4,0,0.8,0.1,1.1,0
	c0.1,0,0.1-0.1,0.2-0.2c0.1-0.2,0.2-0.7,0.2-0.8c0-0.1,0-0.1-0.1-0.1c-0.1,0-0.1,0-0.1,0.1c-0.2,0.5-0.5,0.6-1.3,0.6
	c-1-0.1-1.7-0.9-1.6-2.2c0.1-1.1,0.7-1.8,1.8-1.7c0.7,0.1,1.4,0.4,1.3,1c0,0.1,0,0.2,0.1,0.2c0.1,0,0.1,0,0.1-0.1
	c0-0.1,0.1-0.4,0.1-0.6c0-0.2,0.1-0.3,0.1-0.3C36.8,93,36.8,92.9,36.7,92.9z"/>
<path class="st0" d="M43.9,96.6c-0.3,0-0.5,0-0.5-0.2c-0.1-0.3-0.1-0.7-0.2-1.2l-0.1-1c-0.1-0.9-0.1-1-0.1-1.2
	c0-0.3,0.1-0.3,0.3-0.4c0.1,0,0.1,0,0.1-0.1c0-0.1-0.1-0.1-0.2-0.1c-0.2,0-0.6,0.1-0.7,0.1c-0.2,0-0.5,0-0.8,0.1
	c-0.1,0-0.2,0-0.1,0.1c0,0.1,0.1,0.1,0.1,0.1c0.3,0,0.4,0,0.5,0.3c0,0.2,0.1,0.3,0.1,1.2l0,0.3c0,0,0,0,0,0l-2.2,0.2c0,0,0,0,0,0
	l0-0.2c-0.1-0.9-0.1-1-0.1-1.2c0-0.3,0.1-0.3,0.3-0.4c0.1,0,0.1,0,0.1-0.1c0-0.1-0.1-0.1-0.2-0.1c-0.2,0-0.6,0.1-0.7,0.1
	c-0.2,0-0.5,0-0.8,0.1c-0.1,0-0.2,0-0.1,0.1c0,0.1,0.1,0.1,0.1,0.1c0.3,0,0.4,0,0.5,0.3c0,0.2,0,0.3,0.1,1.2l0.1,1
	c0.1,0.5,0.1,1,0.1,1.2c0,0.3,0,0.3-0.3,0.4c-0.1,0-0.1,0-0.1,0.1c0,0.1,0.1,0.1,0.2,0.1c0.2,0,0.6-0.1,0.7-0.1c0.2,0,0.5,0,0.9-0.1
	c0.1,0,0.1,0,0.1-0.1c0-0.1-0.1-0.1-0.1-0.1c-0.3,0-0.5,0-0.5-0.2c-0.1-0.2-0.1-0.7-0.2-1.2l0-0.3c0,0,0,0,0,0l2.2-0.2c0,0,0,0,0,0
	l0,0.4c0.1,0.5,0.1,1,0.1,1.2c0,0.3,0,0.3-0.3,0.4c-0.1,0-0.1,0-0.1,0.1c0,0,0.1,0.1,0.2,0.1c0.2,0,0.6-0.1,0.7-0.1
	c0.2,0,0.5,0,0.9-0.1c0.1,0,0.1-0.1,0.1-0.1C44,96.6,43.9,96.6,43.9,96.6z"/>
<path class="st0" d="M48.1,95.4c-0.3,0.1-0.5,0.1-0.6-0.1c-0.1-0.2-0.2-0.7-0.4-1.2l-0.3-1c-0.3-0.8-0.3-1-0.3-1.2
	c-0.1-0.3,0-0.3,0.3-0.4c0.1,0,0.1-0.1,0.1-0.1c0,0-0.1-0.1-0.2,0c-0.2,0.1-0.5,0.2-0.7,0.2c-0.2,0-0.5,0.1-0.7,0.2
	c-0.1,0-0.2,0.1-0.1,0.1c0,0.1,0.1,0.1,0.1,0c0.3-0.1,0.4,0,0.5,0.2c0.1,0.2,0.1,0.3,0.4,1.2l0.3,1c0.2,0.5,0.3,1,0.3,1.2
	c0.1,0.3,0,0.3-0.3,0.4c-0.1,0-0.1,0.1-0.1,0.1c0,0.1,0.1,0.1,0.2,0c0.2-0.1,0.6-0.2,0.7-0.2c0.1,0,0.5-0.1,0.9-0.2
	c0.1,0,0.1-0.1,0.1-0.1C48.3,95.4,48.2,95.4,48.1,95.4z"/>
<path class="st0" d="M53,92.6c0-0.1-0.1-0.1-0.1-0.1c-0.1,0,0,0.1,0,0.1c0.1,0.4,0.1,0.6-0.5,0.9c-0.7,0.3-0.8,0.3-1.1-0.5l-1-2.1
	c-0.3-0.7-0.3-0.7,0.1-0.9c0.1,0,0.1-0.1,0.1-0.1c0,0-0.1-0.1-0.2,0c-0.2,0.1-0.6,0.3-0.7,0.3c-0.1,0.1-0.5,0.2-0.7,0.3
	c-0.1,0-0.1,0.1-0.1,0.1c0,0,0.1,0.1,0.2,0c0.4-0.2,0.4-0.1,0.7,0.5l1,2.1c0.4,0.9,0.4,1,0.1,1.1c-0.1,0-0.1,0.1-0.1,0.1
	c0,0,0.1,0.1,0.2,0c0.2-0.1,0.5-0.3,0.7-0.3c0.4-0.2,0.8-0.3,1.6-0.7c0.3-0.1,0.3-0.2,0.3-0.3C53.2,93.2,53,92.7,53,92.6z"/>
<path class="st0" d="M57.3,90.1c0-0.1-0.1-0.1-0.1-0.1c-0.1,0,0,0.1,0,0.1c0.1,0.2,0.1,0.3,0,0.5c-0.1,0.1-0.5,0.4-0.6,0.5
	c-0.4,0.2-0.4,0.3-0.6-0.1c-0.1-0.1-0.4-0.6-0.7-1.1c0,0,0,0,0,0c0,0,0.6-0.4,0.7-0.4c0.2-0.2,0.4,0,0.5,0.2c0,0,0.1,0.1,0.1,0
	c0.1,0,0-0.1,0-0.2c-0.2-0.3-0.3-0.6-0.4-0.7c0,0-0.1,0-0.1,0c0,0,0,0.1-0.1,0.2c0,0.1-0.1,0.2-0.4,0.4c-0.2,0.1-0.5,0.3-0.5,0.3
	c0,0,0,0-0.1,0l-0.9-1.3c0,0,0,0,0,0c0.9-0.6,1-0.6,1.2-0.3c0,0,0.1,0.1,0.1,0c0.1,0,0.1-0.1,0-0.1c-0.3-0.4-0.3-0.6-0.4-0.7
	c0,0-0.1-0.1-0.1,0c0,0-0.1,0.1-0.3,0.2c-0.1,0.1-1.1,0.7-1.2,0.8c-0.1,0.1-0.5,0.3-0.7,0.5c-0.1,0.1-0.1,0.1-0.1,0.2
	c0,0,0.1,0,0.2,0c0.3-0.2,0.4-0.2,0.6,0c0.1,0.2,0.2,0.3,0.7,1l0.6,0.9c0.2,0.3,0.3,0.5,0.5,0.7c0.4,0.5,0.4,0.6,0.1,0.8
	c-0.1,0-0.1,0.1-0.1,0.1c0,0,0.1,0,0.2,0c0.2-0.1,0.5-0.4,0.6-0.4c0.5-0.3,1-0.6,1.5-1c0.1-0.1,0.1-0.1,0.1-0.3
	C57.5,90.5,57.4,90.2,57.3,90.1z"/>
<path class="st2" d="M21.1,71.1c-0.6,0.4-0.9,1.2-0.9,1.2s0.8,0.2,1.5-0.2c0.6-0.4,0.9-1.2,0.9-1.2S21.8,70.7,21.1,71.1z"/>
<path class="st2" d="M30,77c0.4-0.2,0.7-0.3,1-0.4l0.1-2.1h-1.4l0.1,2.6C29.8,77.1,29.9,77.1,30,77z"/>
<path class="st2" d="M18.5,72.1c0.6,0.4,1.5,0.2,1.5,0.2s-0.2-0.8-0.9-1.2c-0.6-0.4-1.5-0.2-1.5-0.2S17.9,71.8,18.5,72.1z"/>
<path class="st2" d="M29.1,70.7c0,0,0,0.5,0,0.6c-0.1,0-0.5,0-0.6,0c0-0.2,0-0.6,0-0.6c0-0.3-0.2-0.5-0.5-0.5h-2.7v0.1
	c0,0.2,0,0.4,0.1,0.7h1.8v0.3h-1.7c0.2,0.5,0.7,0.9,1.4,0.9c0,0,0.5,0,0.7,0c0,0.1,0,0.5,0,0.6c-0.2,0-0.7,0-0.7,0l-0.3,0l-0.5,0v1
	h8.5v-1h-0.3c0,0-0.3,0-0.3,0s-0.5,0-0.7,0c0-0.1,0-0.5,0-0.6c0.2,0,0.7,0,0.7,0c0.7,0,1.2-0.4,1.4-0.9h-1.7V71h1.8
	c0.1-0.2,0.1-0.5,0.1-0.7v-0.1h-2.7c-0.3,0-0.5,0.2-0.5,0.5c0,0,0,0.5,0,0.6c-0.1,0-0.5,0-0.6,0c0-0.2,0-0.6,0-0.6
	c0-0.4,0.2-0.8,0.6-0.9l0.2-0.1l-0.1-0.1c-0.6-0.5-1.4-0.7-2.2-0.7c-0.7,0-1.5,0.2-2.1,0.7l-0.2,0.1l0.2,0.1
	C28.8,69.8,29.1,70.3,29.1,70.7z"/>
<path class="st2" d="M21.7,70.5c0.6-0.5,0.6-1.3,0.6-1.3s-0.8-0.1-1.4,0.4c-0.6,0.5-0.6,1.3-0.6,1.3S21.1,70.9,21.7,70.5z"/>
<path class="st2" d="M14.9,69.9c0,2.1,1.3,3.6,3.5,4c0.9,0.2,1.2,0.4,1.3,0.8h0.9c0-0.1,0-0.2,0-0.3c0-0.3-0.2-0.9-1.3-1.1
	c-1.7-0.4-2.6-1.7-2.6-3.2c0-1.8,1.5-3.3,3.7-3.3c0.9,0,1.7,0.2,2.3,0.6l0.2-0.2c-0.9-0.8-2.1-1.3-3.5-1.3
	C16.7,65.8,14.9,67.6,14.9,69.9z"/>
<path class="st2" d="M19.5,68c-0.4-0.5-1.2-0.6-1.2-0.6s-0.1,0.8,0.4,1.3c0.4,0.5,1.2,0.6,1.2,0.6S20,68.5,19.5,68z"/>
<path class="st2" d="M22,67.4c0,0-0.8,0.1-1.2,0.6c-0.4,0.5-0.4,1.3-0.4,1.3s0.8-0.1,1.2-0.6C22,68.2,22,67.4,22,67.4z"/>
<path class="st2" d="M17.9,69.1c0,0,0.1,0.8,0.6,1.3c0.6,0.5,1.4,0.4,1.4,0.4s-0.1-0.8-0.6-1.3C18.8,69.1,17.9,69.1,17.9,69.1z"/>
<path class="st2" d="M19.5,75.5l-0.4,3.9c0,0.5,0.5,0.9,1.1,0.9c0.6,0,1.1-0.4,1.1-0.9l-0.4-3.9H19.5z"/>
<path class="st2" d="M34.7,74.4c-0.8,0-1.8,0.4-2.7,2.2c-0.1,0.2-0.3,0.4-0.6,0.6c0,0,0,0,0,0c-0.3,0.2-0.7,0.4-1.2,0.6
	c-0.4,0.2-0.9,0.4-1.4,0.6c-0.5,0.3-0.9,0.8-0.9,1.5c0,0.6,0.3,1,0.8,1.3c0.3-0.2,0.5-0.4,0.8-0.5c-0.4-0.2-0.7-0.5-0.7-0.8
	c0-0.4,0.4-0.7,0.9-1v0c0.3-0.1,0.6-0.3,0.9-0.4c0.4-0.2,0.9-0.4,1.3-0.6c0.4-0.2,0.7-0.5,0.9-0.9c0.3-0.5,0.6-1,0.8-1.2
	c0.3-0.3,0.7,0,1.3,0c0.7,0,1.2-0.4,1.2-0.5c0,0,0-0.2,0-0.2C36,74.9,35.4,74.4,34.7,74.4z M35,75.3c-0.1,0-0.2-0.1-0.2-0.2
	c0-0.1,0.1-0.2,0.2-0.2s0.2,0.1,0.2,0.2C35.2,75.2,35.1,75.3,35,75.3z"/>
<circle class="st2" cx="30.3" cy="79.7" r="0.4"/>
<path class="st2" d="M31.2,79c0.4,0.2,0.6,0.5,0.6,0.8c0,0.4-0.4,0.6-0.9,0.9c-0.1,0.1-0.3,0.2-0.4,0.2c-0.4,0.2-0.9,0.5-1.3,0.8
	c0,0,0,0,0,0c-0.4,0.3-0.6,0.7-0.6,1.2c0,0.6,0.3,0.9,0.6,1.1c0.2-0.2,0.4-0.4,0.7-0.6c-0.2-0.1-0.4-0.3-0.4-0.6
	c0-0.2,0.1-0.3,0.3-0.5c0,0,0,0,0,0c0,0,0,0,0,0c0,0,0,0,0.1-0.1c0.4-0.3,0.7-0.4,1.1-0.6c0.1-0.1,0.2-0.1,0.4-0.2c0,0,0,0,0,0
	c0.7-0.4,1.4-0.9,1.4-1.7c0-0.5-0.2-0.9-0.6-1.2C31.8,78.7,31.5,78.9,31.2,79z"/>
<path class="st2" d="M28.5,77.7c0.3-0.2,0.6-0.3,0.9-0.5c-0.4-0.2-0.7-0.4-0.8-0.7c-0.9-1.8-1.9-2.2-2.7-2.2c-0.7,0-1.3,0.5-1.5,0.7
	c0,0,0,0.2,0,0.2c0,0.1,0.5,0.5,1.2,0.5c0.7,0,1-0.3,1.3,0c0.2,0.2,0.5,0.7,0.8,1.2C28,77.3,28.2,77.5,28.5,77.7z M25.6,75.3
	c-0.1,0-0.2-0.1-0.2-0.2c0-0.1,0.1-0.2,0.2-0.2c0.1,0,0.2,0.1,0.2,0.2C25.8,75.2,25.7,75.3,25.6,75.3z"/>
<path class="st2" d="M31.2,82.3c-0.1,0-0.1,0.1-0.2,0.1c0.2,0.1,0.3,0.3,0.3,0.4c0,0.2-0.1,0.3-0.2,0.4c0,0,0,0,0,0c0,0,0,0,0,0
	c0,0,0,0,0,0c0,0,0,0,0,0c0,0-0.1,0-0.1,0.1c-0.8,0.5-1.2,0.8-1.5,1.3c-0.1,0.2-0.2,0.4-0.2,0.6c0,0.4,0.3,0.8,0.8,0.9l0,0.5
	c0,0.2,0.1,0.3,0.3,0.3c0.2,0,0.3-0.1,0.3-0.3l0-0.5c0.5-0.1,0.8-0.5,0.8-0.9c0-0.1,0-0.2-0.1-0.3c-0.2,0.1-0.3,0.2-0.5,0.3
	c-0.1,0.1-0.4,0.1-0.5,0c-0.1-0.1-0.1-0.4,0-0.5c0.2-0.2,0.4-0.3,0.7-0.4c0.5-0.3,1-0.7,1-1.5c0-0.3-0.1-0.6-0.3-0.8
	C31.6,82.1,31.4,82.2,31.2,82.3z"/>
<path class="st2" d="M12.2,67.8c-0.1,0.1,0,0.2,0.1,0.3l1.8,1.1l0.1-0.5l-1.7-1C12.4,67.6,12.3,67.7,12.2,67.8z"/>
<path class="st2" d="M15,67l0.3-0.3l-1.2-1c-0.1-0.1-0.2-0.1-0.3,0c-0.1,0.1-0.1,0.2,0,0.3L15,67z"/>
<path class="st2" d="M16.5,65.6l0.4-0.2l-1-1.2c-0.1-0.1-0.2-0.1-0.3,0c-0.1,0.1-0.1,0.2,0,0.3L16.5,65.6z"/>
<path class="st2" d="M24.7,64.5c0.1-0.1,0.1-0.2,0-0.3c-0.1-0.1-0.2-0.1-0.3,0L22.9,66l0.4,0.3L24.7,64.5z"/>
<path class="st2" d="M26.5,65.7c-0.1-0.1-0.2-0.1-0.3,0l-3.1,2.6l0,0.6l3.4-2.8C26.5,65.9,26.5,65.8,26.5,65.7z"/>
<path class="st2" d="M28.1,67.8c-0.1-0.1-0.2-0.1-0.3-0.1l-4.4,2.6l0,0.5l4.6-2.7C28.1,68,28.1,67.9,28.1,67.8z"/>
<path class="st3" d="M11.5,62.9h25.8V37.2C23.2,37.4,11.8,48.8,11.5,62.9z M21.7,48c0,0,0.7-0.1,1.3-0.1c0.2,0,0.7,0.1,1,0.3v-3.9
	h4.3v-4.9h4.1c0,0,0,3.8,0,4.9c1.1,0,4.3,0,4.3,0v4.1c0,0-3.1,0-4.3,0c0,1.4,0,13.8,0,13.8h-4.1V48.4h-3.8c0.3,0.2,0.9,0.7,1,0.9
	c0.2-0.1,0.5-0.1,0.6-0.1c0.4,0,0.7,0.3,0.9,0.3c0.2,0,0.3,0,0.3,0.1c0,0.1-0.1,0.2-0.4,0.2c-0.3,0-0.6-0.2-0.8-0.2
	c-0.2,0-0.5,0.1-0.7,0.2l-0.1,0.6h2v1.8c0,1.7-1.2,2.5-2.1,3.2c-0.1,0.1-0.3,0.2-0.5,0.3c0.1,0.1,0.2,0.3,0.2,0.4
	c0.1,0.3,0,0.6-0.1,0.8c-0.1,0.1-0.2,0.2-0.3,0.3c0.2,0.1,0.5,0.5,0.5,0.9c0,0.9-1.1,1.1-1.1,1.1c0,0,0,0.1,0,0.1
	c0.1,0.1,0.2,0.2,0.3,0.2c0.5,0.4,1.5,0.9,1.5,1.9v0.6h-6.3v-0.6c0-0.8,0.8-1.4,1.3-1.7c-0.2-0.1-0.4-0.4-0.4-0.6
	c-0.1-0.3,0-0.6,0.1-0.8c0.1-0.1,0.2-0.2,0.3-0.3c-0.2-0.1-0.5-0.5-0.5-0.7c-2-0.7-4.4-2.1-4.4-5.2c0-2.7,2.1-4.3,4-4.3
	C20.6,47.8,21.7,48,21.7,48z"/>
<path class="st3" d="M55.2,73.2l1.5-3.4l-5.1,0l-0.3,4.4c0.2,0,0.3,0,0.4,0.1c0.5,0.1,0.9,0.4,1.3,0.7c0.4,0.3,0.7,0.5,1.3,0.6
	c0.3,0.1,0.5,0.1,0.7,0.1c-0.3-0.5-0.5-1-0.5-1.6v-0.8H55.2z"/>
<polygon class="st3" points="40.3,73.2 43.1,73.2 41.7,70.1 "/>
<path class="st3" d="M42.3,69.8l1.5,3.4h0.7V74c0,0.2,0,0.3,0,0.5l0.7-1.1l0.2-0.3l0.3,0.2c0,0,0.4,0.3,1.1,0.4
	c0.3,0.1,0.6,0.1,0.9,0.1l-0.3-4L42.3,69.8z"/>
<polygon class="st3" points="55.9,73.2 58.7,73.2 57.3,70.1 "/>
<path class="st3" d="M38.2,63.8v25.9C52.3,89.4,63.8,77.9,64,63.8H38.2z M57.3,76.8c-0.4,0-0.7-0.1-1-0.2l0,0.4l-2.6,6.4l-3-1
	l-0.1,1.4c0,0,0,0,0,0v0c0,0.6-0.5,1.1-1.1,1.1c-0.6,0-1.1-0.5-1.1-1.1l0,0.1l-0.1-2.1c-0.2,0.1-0.6,0.1-0.8,0.1
	c-0.3-0.1-0.8-0.4-0.8-0.7l-5.3-1.1l0.2-1.2l0,0l0,0l0,0h0l1.6-2.5c-0.4,0.3-1,0.5-1.5,0.5c-1.6,0-2.8-1.3-2.8-2.8v-0.8h0.7l1.5-3.4
	c-0.8-0.1-1.4-0.8-1.4-1.6c0-0.9,0.7-1.6,1.6-1.6c0.6,0,1.2,0.4,1.4,0.9c2,0.1,3.7-0.2,4.8-0.8c0-0.2-0.1-0.3-0.1-0.5
	c0-1.1,0.9-2,2-2c1.1,0,2,0.9,2,2c0,0.2,0,0.3-0.1,0.5c1.2,0.6,2.8,0.9,4.9,0.8c0.3-0.5,0.8-0.9,1.4-0.9c0.9,0,1.6,0.7,1.6,1.6
	c0,0.8-0.6,1.5-1.4,1.6l1.5,3.4h0.7V74C60.1,75.6,58.9,76.8,57.3,76.8z"/>
</svg>
