<?xml version="1.0" encoding="UTF-8" standalone="no"?>
<svg xmlns:rdf="http://www.w3.org/1999/02/22-rdf-syntax-ns#" xmlns="http://www.w3.org/2000/svg" enable-background="new 0 0 435.332 435.332" xml:space="preserve" height="250" viewBox="0 0 250 250.00056" width="250" version="1.1" y="0px" x="0px" xmlns:cc="http://creativecommons.org/ns#" xmlns:dc="http://purl.org/dc/elements/1.1/"><g style="" transform="matrix(.56968 0 0 .56968 1.3538 1.0975)"><path fill="#6a7f10" d="m217.66 435.33c120.16 0 217.67-97.514 217.67-217.66 0-120.16-97.51-217.67-217.67-217.67-120.15 0-217.66 97.515-217.66 217.67 0 120.15 97.513 217.66 217.66 217.66"/><path fill="#fff" d="m217.66 373.52c85.768 0 155.42-70.088 155.42-155.85 0-86.198-69.649-155.85-155.42-155.85-86.192 0-155.85 69.653-155.85 155.85 0 85.758 69.653 155.85 155.85 155.85"/><path fill="#6a7f10" d="m217.66 367.42c82.714 0 149.76-67.041 149.76-149.75 0-82.713-67.045-150.19-149.76-150.19-83.147 0-150.19 67.477-150.19 150.19 0 82.711 67.046 149.75 150.19 149.75"/><g><path d="m164.34 340.41c-0.32-0.32-0.631-0.641-0.943-0.963-38.96-1.22-70.185-33.19-70.185-72.44 0-0.416 0.004-0.834 0.01-1.252-13.099-13.99-19.657-31.82-19.657-49.63 0-18.562 7.119-37.135 21.329-51.345 0.175-0.177 0.351-0.355 0.526-0.53 1.001-39.153 33.069-70.603 72.458-70.603 0.702 0 1.404 0.01 2.102 0.031 14.04-13.191 32.07-19.788 50.08-19.788 18.554 0 37.128 7.004 51.36 21.02 0.47 0.474 0.927 0.951 1.375 1.436 38.545 1.66 69.311 33.449 69.311 72.42 0 0.698-0.01 1.396-0.029 2.09 12.82 13.726 19.242 31.366 19.242 48.991 0 18.562-7.115 37.134-21.336 51.132-0.32 0.325-0.646 0.647-0.969 0.966-1.227 38.946-33.193 70.167-72.445 70.167-0.564 0-1.13-0.007-1.693-0.019-13.793 12.896-31.607 19.339-49.405 19.339-18.556 0-37.126-7.005-51.135-21.018z"/><path fill="#fff" d="m160.23 233.54c-16.572 0-39.696 1.338-39.737 1.338l-1.716 0.099 0.79-1.522c8.205-15.201 42.787-16.07 66.022-16.211 22.771 0.008 82.25 2.243 97.512 2.243 14.637 0.055 39.621-1.901 40.645-2.578 0.572-0.291 1.074-0.468 1.619-0.476 1.662 0.052 1.99 1.716 1.998 2.692-0.055 7.43-7.365 22.463-46.455 22.479-21.598-0.009-72.665-8.064-120.68-8.064zm120.68 6.1c38.736-0.078 44.465-14.514 44.494-20.516 0-0.34-0.051-0.609-0.086-0.726-0.105 0.017-0.342 0.079-0.674 0.251-2.465 1.118-26.455 2.736-41.541 2.799-15.357-0.009-74.813-2.244-97.512-2.244-22.218-0.127-54.942 1.541-63.372 13.621 5.792-0.312 24.15-1.238 38.013-1.246 48.18 0.008 99.424 8.073 120.68 8.061zm-159.6-5.288-0.872-0.448 0.872 0.448zm98.769-118.5c12.842-12.029 30.062-19.437 49.006-19.576-13.65-13.179-31.34-19.768-49.03-19.768-16.589 0-33.173 5.792-46.409 17.372 18.191 1.433 34.493 9.586 46.429 21.977zm-121.92 45.81c13.54-12.156 30.614-18.234 47.726-18.234 0.507 0 1.014 0.006 1.525 0.017 0.661-17.023 7.316-33.869 19.966-47.174-36.837 0.326-66.859 29.066-69.217 65.391zm99.025 3.113c0.017 0.017 0.033 0.035 0.054 0.052 0.98-18.352 8.791-34.891 20.935-47.124-12.04-12.49-28.68-20.52-47.2-21.359-0.141 0.135-0.283 0.274-0.424 0.411-13.028 13.031-19.866 29.811-20.527 46.796 17.108 0.983 33.996 8.06 47.161 21.227zm43.177 1.352c13.652-12.513 31.063-18.77 48.475-18.761 0.324 0 0.648 0.002 0.969 0.006 0.009-0.37 0.009-0.738 0.009-1.107 0-16.977-6.069-33.956-18.2-47.348-0.66-0.021-1.326-0.031-1.99-0.033-18.471 0.035-35.254 7.208-47.738 18.913 11.483 12.825 18.471 29.765 18.475 48.33zm99.121 2.078c-0.354-36.438-28.475-66.178-64.232-69.086 11.445 13.579 17.181 30.363 17.181 47.146 0 0.397-0.005 0.792-0.009 1.188 17.128 0.839 34.027 7.765 47.06 20.752zm-121.72 37.411c2.717-13.568 9.359-26.497 19.938-36.913v-0.002c0.032-0.85 0.049-1.703 0.049-2.561-0.028-17.86-6.742-34.146-17.769-46.49-12.202 12.334-19.846 29.187-20.215 47.836 9.975 11.034 15.978 24.351 17.997 38.13zm-8.255 3.647c-7.811-11.564-12.372-25.5-12.372-40.498v-0.276c-0.582-0.629-1.184-1.252-1.794-1.865-12.68-12.677-28.911-19.491-45.362-20.458v0.1c0 17.403 6.468 34.79 19.447 48.355 15.017 0.76 28.835 6.096 40.081 14.642zm16.331 0.405c11.606-7.904 25.629-12.525 40.729-12.525v1.313 0.158-0.158-1.313c0.528 0 1.056 0.006 1.583 0.017 0.475-0.449 0.947-0.908 1.412-1.373 12.572-12.769 19.289-29.156 20.158-45.807-0.295-0.004-0.586-0.006-0.881-0.006-17.594 0-35.164 6.616-48.566 19.852-0.746 14.911-6.005 28.638-14.435 39.842zm-9.983 3.644c-0.603-14.883-5.949-29.611-16.044-41.779 0.648 15.857 6.56 30.352 16.044 41.779zm3.407 0.11c10.058-10.924 16.686-25.058 18.172-40.695-10.756 11.543-16.81 25.934-18.172 40.695zm-121.26-47.27c0.033 18.34 7.106 35.016 18.664 47.477 12.908-11.855 30.12-19.092 49.022-19.092 0.025 0 0.05 0.002 0.075 0.002-12.276-13.77-18.417-31.019-18.417-48.262v-0.206c-0.49-0.01-0.98-0.015-1.471-0.015-17.307 0-34.536 6.436-47.869 19.325-0.002 0.256-0.004 0.516-0.004 0.771zm115.42 49.903c-10.984-10.296-25.292-17.085-41.15-18.591 11.737 10.985 26.257 17.179 41.15 18.591zm7.998 0.301c15.612-0.307 31.129-5.833 43.797-16.57-16.694 0.343-31.944 6.517-43.797 16.57zm96.843 2.499c12.369-12.021 20.307-28.574 21.139-46.991-0.424-0.44-0.855-0.876-1.293-1.307-12.63-12.82-29.09-19.64-45.79-20.48-0.885 17.145-7.756 34.039-20.618 47.261 18.188 1.278 34.529 9.275 46.557 21.52zm-148.31 17.135c16.63-0.518 31.798-6.83 43.542-16.984-15.62 0.437-31.104 6.093-43.542 16.984zm-3.893 0.009c10.876-10.329 24.274-16.585 38.196-18.76-13.016-2.902-25.404-9.437-35.566-19.601l0.407-0.405-0.407 0.405c-0.146-0.146-0.295-0.293-0.436-0.442-0.856-0.031-1.708-0.048-2.567-0.05-18.197 0.033-34.756 6.996-47.182 18.39 12.238 12.239 28.989 19.96 47.555 20.463zm97.5 2.374c-11.853-11.475-26.857-17.855-42.226-19.15 11.176 10.699 25.892 17.723 42.226 19.15zm6.048 0.267c17.974-0.033 34.346-6.826 46.717-17.975-12.11-12.31-28.74-20.15-47.21-20.85-10.94 10.045-24.17 16.144-37.884 18.283 12.998 2.904 25.343 9.441 35.361 19.609 0.295 0.295 0.586 0.59 0.873 0.889 0.712 0.026 1.417 0.037 2.131 0.037zm-193.45-22.5c0.008 16.37 5.733 32.725 17.208 45.907 1.234-18.188 9.179-34.539 21.379-46.591-11.62-12.515-18.878-29.143-19.339-47.45-12.828 13.528-19.238 30.831-19.248 48.134zm120.75 47.879c11.263-12.008 17.515-26.942 18.753-42.198-10.544 11.218-17.428 25.916-18.753 42.198zm38.604 0.826c-0.53-16.36-6.66-31.3-16.53-42.95 0.448 15.362 5.948 30.595 16.535 42.942zm103.5 3.4c13.115-13.388 19.672-30.878 19.672-48.386 0-16.188-5.605-32.361-16.83-45.302-1.424 18.086-9.5 34.308-21.777 46.222 11.478 12.568 18.591 29.191 18.935 47.466zm-242.27-2.59c12.783 12.788 29.414 19.517 46.305 20.19 0.76-17.137 7.603-34.063 20.49-47.346-18.3-1.08-34.781-8.957-46.953-21.143-12.3 12.16-20.115 28.86-20.736 47.39 0.295 0.305 0.592 0.609 0.893 0.91zm49.122 20.247c17.333 0 34.706-6.361 48.266-19.096 0.586-15.248 5.883-29.289 14.479-40.709-11.616 7.908-25.642 12.529-40.743 12.529-0.253 0-0.507-0.002-0.76-0.004-0.316 0.305-0.623 0.616-0.935 0.928-12.916 12.92-19.746 29.519-20.506 46.351 0.066-0.001 0.133 0.001 0.199 0.001zm93.678-16.749c12.622 12.827 29.077 19.653 45.795 20.485v-0.575c0-17.205-6.34-34.401-19.011-47.896-15.192-0.677-29.172-6.035-40.531-14.664 7.811 11.565 12.372 25.504 12.372 40.508 0 0.25 0 0.498-0.004 0.746 0.452 0.47 0.913 0.937 1.379 1.396zm49.276 20.571c17.156 0 34.295-6.303 47.598-18.909 0.01-0.394 0.014-0.783 0.014-1.179-0.033-18.137-6.951-34.644-18.275-47.055-12.783 11.535-29.688 18.584-48.238 18.66 12.02 13.689 18.031 30.764 18.031 47.821 0 0.221 0 0.437-0.004 0.655 0.289 0.005 0.583 0.007 0.874 0.007zm-92.14-20.09c0.033 18.08 6.913 34.547 18.184 46.945 12.359-12.267 20.167-29.121 20.661-47.806-10.24-10.98-16.38-24.45-18.42-38.4-2.717 13.584-9.364 26.559-19.929 37.125l-0.44-0.438v0.009l0.432 0.438c-0.154 0.149-0.308 0.301-0.461 0.449-0.018 0.56-0.026 1.119-0.026 1.681zm-35.82 67.077c-11.923-13.664-17.885-30.666-17.885-47.648 0-0.203 0-0.407 0.004-0.609-17.12-0.668-34.008-7.349-47.157-20.039 0.78 36.313 29.173 65.792 65.038 68.296zm4.828 0.171c18.238-0.032 34.826-7.026 47.261-18.471-11.574-12.709-18.687-29.549-18.874-48.039-13.776 12.09-31.021 18.143-48.212 18.133h-0.27v0.556c0 17.161 6.306 34.323 18.932 47.81 0.386 0.008 0.772 0.011 1.163 0.011zm98.182 2.562c0.299-0.286 0.595-0.577 0.885-0.87 12.916-12.912 19.746-29.505 20.512-46.33-17.203-0.844-34.166-7.814-47.229-20.893-1.088 18.408-9.049 34.972-21.354 47.156 12.089 12.332 28.716 20.207 47.186 20.937zm3.635 0.048c36.514-0.555 66.213-29.006 68.746-64.994-13.498 11.887-30.473 17.834-47.436 17.834-0.314 0-0.631-0.002-0.947-0.007-0.767 17.061-7.554 33.917-20.363 47.167zm-52.051 19.329c16.359 0 32.708-5.636 45.712-16.901-18.14-1.334-34.416-9.345-46.397-21.58-12.592 11.595-29.301 18.789-47.676 19.139 13.38 12.892 30.862 19.342 48.361 19.342z"/><path fill="#6a7f10" d="m174.13 103.61c-8.708 7.397-16.11 23.069-16.979 35.262 11.753-0.438 26.555 6.5298 35.695 14.801 1.309-12.189 8.2715-27.426 16.979-34.828-8.708-8.703-24.379-15.234-35.695-15.234zm90.988 2.5215c-11.13-0.0632-25.824 5.3944-34.393 13.15 8.271 7.836 14.36 23.07 14.799 35.697 9.577-7.837 24.814-13.493 36.562-12.627 0-12.187-6.963-28.293-14.793-36.133-0.7075-0.0542-1.4338-0.0837-2.1758-0.0879zm-122.77 47.107c-12.193 0-28.304 6.5282-36.135 14.367-0.868 11.316 4.7896 27.86 13.061 37.002 7.831-8.273 23.074-14.365 35.695-14.803-7.831-9.576-13.497-25.25-12.621-36.566zm154.11 3.918c0 11.753-6.5298 26.553-14.799 35.695 12.19 1.307 26.987 8.2715 34.82 16.979 8.279-8.707 15.242-24.376 15.242-35.701-7.84-8.704-23.075-16.101-35.264-16.973zm19.592 73.57c-8.269 8.273-23.511 14.367-35.699 14.801 7.832 9.576 13.498 24.813 12.621 36.568 11.758 0 27.869-6.9687 36.137-14.803 0.439-11.316-5.2266-27.428-13.059-36.566zm-126.25 49.625c-9.576 7.837-25.247 13.5-36.572 12.627 0 11.755 6.5342 27.858 14.365 36.129 11.325 0.44 27.864-5.2206 37.008-13.059-8.275-8.268-14.365-23.505-14.801-35.697zm52.242 1.3106c-1.309 12.19-7.836 26.989-16.543 34.826 8.27 8.271 24.371 15.234 35.697 15.234 8.266-7.835 16.101-23.071 16.537-35.26-11.316 0-26.551-6.5308-35.691-14.801z"/><path d="m122.89 290.05c-6.751 4.838-24.655 15.078-38.192 15.111-13.539-0.02-16.816-11.27-16.835-20.93 0-0.679 0.019-1.358 0.054-2.026 0.017-0.379 0.025-0.75 0.025-1.111 0.036-5.674-2.74-8.705-2.775-14 0-0.627 0.043-1.286 0.141-1.975 1.356-9.016 8.045-15.677 14.267-19.242 8.234-4.76 24.316-11.164 33.746-12.256 0.229-1.951 0.316-3.834 0.316-5.65 0.008-7.991-1.84-14.767-1.849-21.121 0-1.876 0.158-3.718 0.615-5.551 5.571-19.843 37.22-24.301 72.749-24.363 8.961 0 18.176 0.299 27.315 0.739 44.042 2.104 57.361 1.375 66.912 1.709-1.736-3.683-2.484-7.684-2.484-11.375 0-3.762 0.761-7.191 2.1-9.622 0.988-1.983 2.547-3.014 4.041-3.014 1.688 0 3.07 1.418 3.07 3.515 0 0.529-0.07 1.092-0.221 1.666-0.07 0.354-0.1 0.723-0.1 1.093 0 4.107 3.992 9.023 12.971 9.04 8.221 0.046 34.137-10.097 47.203-10.125 3.004 0.019 5.43 0.511 6.9 2.046 2.018 2.131 2.828 4.607 2.828 7.135-0.047 7.825-7.373 16.47-9.234 21.915-2.605 6.655-5.238 23.107-13.715 25.56 0.299 0.996 0.416 2.09 0.416 3.253-0.018 7.295-4.828 17.561-5.865 22.178-1.256 5.698 0 18.029-8.492 25.809 2.717 0.85 5.238 1.146 7.328 1.146 1.172 0 2.201-0.099 3.059-0.237 2.02-0.281 4.773-1.005 8.025-1.013 1.508 0 3.137 0.157 4.873 0.599 5.139 1.418 8.229 6.405 10.854 10.758 3.021 4.847 6.24 6.556 8.775 7.498 2.418 0.972 4.689 0.899 4.895 3.207 0 0.248-0.037 0.451-0.078 0.696-1.334 4.716-16.111 11.279-32.455 11.429-38.117-0.017-69.486-14.855-110.3-14.846-42.076-0.027-58.906 19.139-84.14 19.208-10.371-0.026-16.166-8.998-16.739-16.856z"/><path fill="#fff" d="m124.15 288.79c0.013 7.594 5.484 16.793 15.484 16.811 24.453 0.07 41.631-19.182 84.14-19.208 41.148 0.017 72.555 14.856 110.3 14.846 15.902 0.142 30.779-7.26 31.176-10.36 0.033-0.211 0.053-0.369 0.053-0.459 0.199-0.74-1.209-1.021-4.037-1.981-2.705-0.995-6.273-2.935-9.443-8.036-2.602-4.379-5.625-8.997-10.062-10.186-1.615-0.404-3.129-0.547-4.549-0.547-3.066-0.01-5.699 0.688-7.83 0.996-0.92 0.142-2.012 0.246-3.254 0.246-2.492 0-5.57-0.396-8.846-1.586l-1.084-0.396 0.896-0.721c8.836-7.139 7.611-19.494 8.924-25.838 1.131-4.873 5.846-15.084 5.824-21.896 0-1.329-0.174-2.511-0.553-3.479l-0.307-0.758 0.811-0.125c7.498-0.952 10.889-17.781 13.436-24.892 2.072-5.806 9.197-14.396 9.146-21.474 0-2.264-0.68-4.344-2.467-6.246-0.998-1.076-3.082-1.631-5.949-1.623-12.635-0.025-38.4 10.081-47.203 10.125-9.442-0.017-14.267-5.357-14.282-10.353 0-0.457 0.046-0.899 0.133-1.375 0.133-0.528 0.194-0.987 0.194-1.383-0.036-1.577-0.81-2.186-1.766-2.21-0.867-0.01-2.044 0.625-2.887 2.316-1.209 2.185-1.949 5.438-1.949 9.015 0 3.832 0.848 8.035 2.821 11.763l0.544 1.014-1.143-0.054c-9.535-0.44-22.242 0.44-68.017-1.753-9.127-0.44-18.321-0.74-27.253-0.74-35.521-0.054-66.617 4.881-71.485 23.385-0.416 1.691-0.573 3.419-0.573 5.225-0.008 6.099 1.84 12.926 1.849 21.121 0 2.027-0.117 4.131-0.395 6.326l-0.07 0.521-0.511 0.044c-8.953 0.846-25.562 7.393-33.74 12.143-5.982 3.429-12.37 9.859-13.62 18.302-0.098 0.625-0.133 1.226-0.133 1.788-0.044 4.725 2.748 7.854 2.775 14.001 0 0.38-0.008 0.776-0.027 1.174-0.036 0.651-0.044 1.304-0.044 1.965 0.071 9.543 2.971 19.604 15.525 19.621 13.623 0.036 32.849-11.276 38.399-15.576l1.047-0.813v1.32h0.001z"/><path d="m266.41 240.7c-0.242 0.055-0.49 0.041-0.72-0.037-13.668-0.77-27.369-5.193-39.006-13.566 1.467 2.557 2.771 5.285 3.868 8.242 0.25 0.677-0.104 1.425-0.772 1.681-0.677 0.247-1.434-0.097-1.683-0.774-2.135-5.771-5.118-10.654-8.566-15.135-0.453-0.57-0.336-1.39 0.237-1.83 0.569-0.439 1.388-0.334 1.828 0.239 0.042 0.052 0.083 0.106 0.125 0.16 0.058 0.038 0.112 0.081 0.166 0.129 11.646 10.762 26.348 16.657 41.211 18.049-6.077-6.386-18.457-13.581-27.157-16.298-0.689-0.21-1.068-0.941-0.855-1.635 0.211-0.688 0.951-1.065 1.637-0.854 10.107 3.245 24.134 11.479 30.031 19.04 1.094 0.049 2.187 0.07 3.273 0.07 17.301 0 34.166-6.053 45.986-17.439 0.52-0.5 1.346-0.484 1.85 0.034 0.498 0.521 0.48 1.349-0.039 1.849-12.389 11.924-29.891 18.162-47.797 18.162-1.204-0.003-2.413-0.031-3.617-0.087zm-48.886-6.059c-0.249-1.418-0.465-2.805-0.644-4.164-0.25 1.207-0.503 2.438-0.723 3.716-0.121 0.704-0.797 1.188-1.512 1.065-0.702-0.133-1.188-0.801-1.063-1.514 0.765-4.418 1.82-7.998 1.812-11.58 0-0.293-0.008-0.59-0.021-0.885-3.336 3.896-6.547 7.764-8.961 12.799-0.312 0.651-1.093 0.924-1.745 0.617-0.652-0.318-0.931-1.104-0.615-1.752 1.33-2.759 2.871-5.175 4.512-7.4-4.865 3.318-10.818 6.492-14.993 8.677-0.64 0.325-1.425 0.079-1.757-0.563-0.337-0.642-0.087-1.425 0.552-1.759 6.09-3.151 16.165-8.668 20.249-12.942 0.428-0.445 1.092-0.516 1.604-0.221 0.465-0.27 1.072-0.234 1.5 0.139 0.108 0.09 0.191 0.193 0.262 0.306 0.154-0.087 0.328-0.146 0.515-0.164 0.2-0.019 0.395 0.008 0.573 0.073 0.133-0.047 0.279-0.073 0.428-0.073 0.723 0 1.303 0.582 1.303 1.302 0 4.463 0.429 8.932 1.302 13.876 0.116 0.716-0.354 1.392-1.063 1.515-0.076 0.013-0.149 0.02-0.225 0.02-0.629-0.003-1.182-0.449-1.29-1.088zm-44.805-2.094c-0.478-0.545-0.424-1.373 0.128-1.848 5.459-4.697 15.513-10.629 22.854-12.556h0.008c0.694-0.185 1.409 0.237 1.591 0.933 0.179 0.694-0.245 1.408-0.939 1.594-6.672 1.705-16.755 7.611-21.807 12.011-0.245 0.214-0.552 0.319-0.852 0.319-0.368 0-0.73-0.153-0.983-0.453z"/><path fill="#6a7f10" d="m281.99 160.37c-0.21638-0.0549-0.54277 0.27108-0.75977 0.70508-0.869 1.745-1.3101 5.2288-0.86914 7.8418-0.001 4.351 1.7325 8.7034 3.4785 11.314 4.789 0 20.023 0.87305 28.295 0.87305 12.193 0 26.994-2.1783 32.652-7.4023 5.654-5.658 4.3538-8.7047 2.1738-9.1367-10.014-1.745-32.65 10.441-47.889 10.441-3.918 0-8.2664-0.86992-11.314-3.0449-2.608-1.306-4.3541-3.4832-4.7871-5.6582-0.436-0.873-0.87696-3.4825-0.87696-4.3555 0.2205-1.0875 0.11286-1.5232-0.10351-1.5781zm42.973 57.572c-0.28575-0.00008-0.63821 0.0556-1.0742 0.16406-1.304 0.433-11.316 1.7403-22.197 2.6133 0 0 10.444 0.43257 13.926 4.3516 3.48 4.355-1.7382 9.1416-1.7402 9.1426 10.01-4.353 12.188-10.883 12.188-14.801 0-0.98025-0.24432-1.4705-1.1016-1.4707zm-139.51 1.4688c-21.765 0-57.03 0.43219-64.861 14.367 0 0 23.508-1.7383 40.047-1.7383 1.745-6.098 13.497-10.884 24.814-12.629zm-24.404 50.725c-4.9419-0.0187-9.8777 0.0461-14.775 0.20898 0 0 3.0499 6.5313 3.0469 11.322 0 10.014-18.721 7.4037-18.721 14.803 0 2.176 3.4865 5.2227 9.1445 5.2227 16.539 0 39.616-19.152 83.146-19.152 43.54 0 80.97 15.234 109.27 15.234 14.364 0 23.942-4.3576 25.688-5.2266 1.733-0.867 3.9177-2.6089 1.3047-3.0449-0.867 0-4.7888-0.87161-7.8398-5.2246-3.045-4.359-5.6584-10.014-10.443-11.754-4.353-1.307-9.144 0.86719-13.498 0.86719-4.356 0.437-9.1447-0.43383-13.93-2.1738-3.486 1.74-15.238 6.9648-36.566 6.9648-19.729 0-68.057-7.8658-115.83-8.0469zm-17.82 0.21094c-10.012 0-31.35 3.0498-43.537 7.8398-11.753 4.786-22.635 12.186-22.635 17.41 0 4.788 3.9182 5.2226 9.5762 5.2226 6.097 0 23.941-7.4004 30.908-12.189 8.271-5.658 20.46-10.443 27.863-10.443 1.304 0-0.43878-7.8398-2.1758-7.8398z"/><path d="m160.37 232.74c-16.556 0-39.642 1.77-39.679 1.778l-1.188 0.089 0.557-1.049c7.947-14.786 42.467-14.9 65.632-14.998 22.725 0 82.108 2.219 97.36 2.219 14.734 0.008 39.301-3.116 40.875-3.521 0.465-0.123 0.863-0.193 1.242-0.193 1.229 0 1.758 1.126 1.758 2.156-0.043 7.147-7.092 21.493-46.057 21.512-21.513-0.011-72.533-7.993-120.5-7.993zm120.5 6.69c38.752-0.054 44.748-14.04 44.756-20.209-0.125-0.976 0.025-0.765-0.457-0.854-0.195 0-0.502 0.043-0.918 0.149-1.898 0.476-26.244 3.563-41.199 3.575-15.313 0-74.676-2.219-97.359-2.219-22.517-0.086-55.802 0.639-63.883 13.254 4.981-0.361 24.195-1.689 38.562-1.689 48.069 0 99.214 7.993 120.5 7.993zm-159.66-5.263-0.569-0.299 0.569 0.299z"/><path fill="#fff" d="m204.6 16.107c-0.432 0.434-0.86328 0.43359-0.86328 0.43359-0.436 0-1.3102 0.43359-1.7422 0.43359-0.876 0.438-2.6113 0.43764-3.4883 1.3066-0.868 1.311-3.0452 10.015-5.6582 16.984-2.613 7.832-6.9629 18.279-6.9629 18.279 0.868 0 1.3028-0.43359 2.1758-0.43359 0.868 0 1.7413 0.434 2.6133 0 0.868-0.438 1.7453-4.3533 2.6133-7.4043 0.868-2.611 1.7363-6.5273 1.7363-6.5273 2.181-0.434 3.4801-0.86959 5.6621-1.3086h7.3945c0 0.438 2.1827 3.9227 3.0547 6.0977 1.309 3.049 2.1769 4.3559 3.0449 6.9629 0.872 0.434 1.3028 0.43359 2.1758 0.43359 0.873-0.434 0.87438-0.43359 2.6094-0.43359 1.31-0.435 2.6157-0.0015 3.0547-0.43555h1.3047c-1.746-2.611-6.5367-10.01-10.014-16.977-3.917-6.531-5.6579-10.447-8.7109-17.412zm30.098 0.36523c-0.26582-0.0078-0.43624 0.01216-0.49024 0.06641-0.436 0.436-0.43604 0.87159-0.87304 1.3086 0 0.872-0.4361 0.87274-0.8711 1.3027 0 0.438-0.43945 0.43805-0.43945 0.87305h4.7891c2.613 0 3.9272 0.000046 6.5352 0.87305h-0.43555c0 5.658-0.43568 8.7042-1.3047 14.367-0.867 6.963-1.7404 10.882-3.4844 17.41 1.744 0 2.6165-0.0005 4.3535 0.4375 1.305 0 2.6065 0.43514 4.3535 0.86914 0-6.963 0.43764-10.887 1.3066-17.85 0.872-5.22 1.7388-8.7071 3.0488-14.369 2.177 0.44 3.9227 0.44064 6.0957 1.3066 1.745 0.438 3.0501 0.87264 4.7891 1.3066 0-0.434-0.43555-0.43319-0.43555-0.86719 0-0.438-0.43945-0.87464-0.43945-1.3066 0-0.872 0.00045-1.3051-0.43555-1.7441-0.432-0.868-8.2706-1.3063-13.059-1.7363-4.5727-0.763-11.143-2.1932-13.004-2.248zm-65.152 5.25c-1.5038-0.01648-7.9324 2.7642-12.824 4.3945-4.79 1.311-12.625 3.0519-13.066 3.9199 0 0.438 0.44141 0.86919 0.44141 1.7422-0.44 0.434-0.44141 0.86873-0.44141 1.3027v0.87305c1.305-0.873 1.746-1.3078 3.918-2.1758 2.181-0.873 3.9226-1.3038 6.0996-2.1758 2.172 5.224 3.4756 8.7036 5.2246 13.932 2.173 6.531 3.0406 10.443 4.3496 17.41 1.305-0.87 2.6148-1.3043 3.9238-1.7383 1.305-0.438 2.6086-0.87264 4.3496-1.3066-2.613-6.097-4.3507-10.014-6.0957-16.545-1.741-5.225-2.6161-8.7077-3.9121-13.928 2.172-0.873 3.4809-1.3102 6.0859-1.7422 1.745-0.438 3.0481-0.43905 4.7891-0.87305-0.432 0-0.43119-0.43405-0.86719-0.87305 0-0.434-0.43604-0.43319-0.87304-0.86719-0.436-0.435-0.43714-0.86864-0.86914-1.3066-0.0546-0.02713-0.13218-0.04187-0.23242-0.04297zm31.143 1.3496 6.0938 11.752h-6.0938c-1.745 0.438-2.6125 0.43905-4.3535 0.87305l4.3535-12.625zm74.879 1.3086c-1.305 6.531-2.617 10.444-4.791 16.979-2.176 6.524-3.9169 10.009-6.9629 16.102 3.046 0.876 5.2186 1.7432 8.2676 2.6152 4.354 1.739 10.014 4.786 11.316 3.918 0.877-0.438 0.87669-0.87264 1.3047-1.3066 0-0.438 0.44115-0.43805 0.86915-0.87305 0.439-0.434 0.43895-0.87269 0.87695-1.3047-2.609 0-4.7914 0.000812-7.4004-0.86719-2.612-0.438-3.9217-0.87359-6.0977-2.1836 0.873-2.607 1.3128-4.3478 2.1758-6.9648 0.441-2.611 1.3107-3.9173 2.1797-6.5293 1.743 0.438 2.6075 0.43755 4.3535 1.3105 2.182 0.869 3.9133 1.3014 6.5293 2.6074-0.433-0.434-0.43164-0.86828-0.43164-1.7383 0-0.437 0.433-1.7397 0-2.1777-0.44-0.434-3.055-0.87419-4.791-1.7422-1.739-0.434-3.0544-0.86528-4.3574-1.7383 0.43799-1.741 0.87614-3.0476 1.7441-5.2246 0.873-2.179 1.3067-3.0476 2.1797-5.2246 1.743 0.434 3.0402 0.87464 4.7832 1.3066 1.745 1.307 3.0475 1.7409 5.2305 3.0469v-1.7402c0-0.869 0.42899-1.3077 0-2.1777 0-0.873-5.6664-1.7399-9.1484-3.0469-3.045-0.872-4.7891-1.7379-7.8301-3.0449zm-146.58 13.281c-1.1612-0.06211-3.6088 0.42788-7.5312 2.3906-5.222 3.041-8.2687 9.5768-5.2227 14.801 2.609 4.786 7.395 4.3516 12.625 4.3516 5.226 0 8.7089-0.000031 10.881 3.918 1.741 3.483-1.3055 6.5319-3.4785 7.8379-3.053 1.738-7.8423 3.0442-11.32 0.86719 0 0.87 0.0005 1.3082 0.4375 1.7422 0 0.873 0.8676 0.87459 1.3086 1.3086 0.428 0.872 0.42814 0.87028 0.86914 1.7383 1.741 0 6.5304-0.86788 10.443-3.0469 5.226-3.049 9.5798-9.5759 6.0938-15.672-3.041-5.225-8.7072-5.2246-14.365-5.2246-3.918 0-7.8308 0.87267-10.008-2.6113-1.309-3.045 0.86847-6.0963 3.4805-7.4023 3.045-1.738 6.0955-2.1722 9.1445-0.86523 0-0.434-0.001-0.87359-0.44141-1.3086 0-0.872-0.87268-0.87164-1.3047-1.3066-0.436-0.434-0.4351-1.3066-0.8711-1.3066-0.108-0.1095-0.35317-0.19024-0.74023-0.21094zm198.82 10.223c-0.434 0-6.5266 9.5757-10.016 14.805-5.221 6.965-9.5756 16.54-0.43164 23.07 8.703 6.963 15.676 1.7393 23.07-6.0957 3.92-3.914 11.76-12.625 11.76-13.059-0.877-0.436-1.3087-0.86959-2.1797-1.3086-0.438-0.434-1.3046-1.3028-2.1816-2.1758-0.43 0.873-6.0903 9.1432-10.445 14.367-4.788 5.225-11.75 10.883-17.408 6.5312-5.223-3.917-0.87707-11.756 3.0449-17.414 3.918-5.661 11.32-13.06 11.76-13.498-1.314-0.869-2.1841-1.3038-3.9141-2.1758-1.314-1.302-1.7496-1.7409-3.0586-3.0469zm-245.53 27.152c-4.6795 0.16338-9.36 2.2331-13.061 6.3711-2.613 3.045-3.9187 4.3519-6.0977 6.9629-2.175 2.613-3.4782 3.9172-5.6582 6.5312 5.224 3.917 8.7081 6.5299 13.494 10.881 5.224 4.79 8.276 7.8356 12.627 13.061 2.177-2.611 3.4832-3.9168 5.6582-6.0918 2.613-3.046 5.6593-5.6613 7.4023-7.4023 7.403-8.269 5.6584-18.717-1.3066-25.248-3.7005-3.4845-8.3791-5.2278-13.059-5.0645zm280.79 2.0156s0.00036 1.3038-0.43164 2.1758c-0.438 0.869-0.43804 1.3057-0.87304 2.1777-3.918 3.479-6.0902 5.659-10.449 8.709-5.221 4.348-8.7031 6.9624-14.369 10.443 0.877 0.873 1.7435 1.7437 2.1855 2.1777 0.432 0.438 0.87278 1.3047 1.3008 2.1777 4.357-3.922 6.5348-6.0952 10.885-9.5742 3.48-2.618 6.9729-5.6647 8.7129-6.9707-0.441 1.307-3.051 9.5778-4.791 15.674-2.182 7.837-3.9218 12.626-3.0508 14.365 0.438 1.741 1.3067 2.1749 2.1797 3.0469 0.432 0.432 1.7344 2.1777 1.7344 2.1777 4.791-4.352 7.846-7.4023 13.502-11.322h-0.4375c5.2257-4.3509 8.7061-6.961 14.363-11.316-0.867-0.434-1.7398-1.3012-2.1738-1.7402-0.439-0.434-0.87323-1.3078-1.7402-2.1758-3.484 3.047-5.2275 5.2245-9.1465 8.2715-3.914 3.483-6.5209 5.223-10.881 8.707 0-0.873 2.1764-9.1413 4.3574-15.238 2.174-6.963 5.2186-13.494 4.3496-15.672-0.438-1.307-1.3048-2.1768-2.1758-3.0488-0.869-0.869-1.3071-1.3078-1.7461-2.1758-0.428-0.432-1.3047-0.86914-1.3047-0.86914zm-284.64 3.545c4.1371-0.17787 8.423 1.8971 11.686 5.1621 5.663 4.791 8.271 11.755 3.918 17.85-2.175 3.047-5.6573 6.0932-7.4023 6.5312-4.352-3.049-6.963-5.2245-10.877-9.1465-4.356-3.913-6.5307-6.0918-10.014-10.01 0.438-1.307 3.9172-5.6593 5.6582-7.4043 2.121-1.959 4.549-2.8757 7.0312-2.9824zm-31.41 29.112c0 0.868-0.43805 1.7398-0.87305 2.1738-0.432 0.873-0.87028 1.7413-1.7383 2.6133 4.352 1.743 6.9635 3.0496 11.314 5.2246 4.79 2.611 7.8415 4.3519 12.189 6.9629-0.868 0.438-9.1379 1.3061-15.672 1.7441-7.401 0.434-14.366 0.43323-16.541 1.7402-0.866 0.873-1.3052 2.1785-1.7402 3.4805-0.438 0.873-0.87109 1.7437-0.87109 2.1777-0.434 0.436-0.87305 1.3105-0.87305 1.3105h2.1797 2.6113c4.79 2.175 7.4014 3.4808 12.191 6.0918 6.092 3.045 9.5769 5.2226 14.797 9.1406 0.438-0.873 0.87569-1.7398 1.3047-2.1758 0.438-0.872 0.87564-1.7413 1.3066-2.6133-4.786-2.173-7.8311-3.4798-12.621-6.0938-3.917-2.177-7.8372-4.3522-9.5762-5.6602 1.307 0 9.5759-0.87265 15.672-1.3066 8.704-0.87299 13.491-1.3074 14.801-2.6094 1.305-1.305 1.7419-2.1758 2.1719-3.0488 0-0.872 1.3066-2.6133 1.3066-2.6133-6.096-3.044-10.009-4.789-15.672-7.834-6.088-3.483-9.576-5.2251-15.668-8.7051zm344.35 5.2226c-5.223 3.919-8.7067 6.0972-14.803 9.5762-5.658 3.485-9.5758 5.2249-15.676 7.8359 0.877 1.307 1.7457 2.1794 2.1777 3.4844 0.871 1.741 1.3086 2.6125 2.1816 4.3555 5.658-4.356 8.7048-6.5335 14.801-10.02 5.659-3.041 9.5768-4.7851 15.674-7.8301-0.867-1.307-1.3106-2.1794-2.1836-3.4844-0.867-1.306-1.3049-2.612-2.1719-3.918zm10.88 18.72c-0.438 0.873-8.2706 8.7076-13.934 13.932-5.225 4.786-13.932 12.189-14.799 12.623 0.432 0.871 1.3093 2.1768 1.7363 3.0488 0.436 0.873 0.436 1.7414 0.875 2.6074 1.301 0.873 11.316 0.43805 19.146 0.87305 7.402 0 18.287 1.3106 19.156 1.3106 0 0 0.00031-0.43896-0.42969-0.87696 0 0-0.43945-0.86764-0.43945-1.3066-0.436-0.866-0.43609-1.7329-0.87109-2.1719-1.307-0.868-8.7086-0.4336-13.932-0.4336-5.221 0-14.803-0.87304-17.414-0.87304 2.183-1.741 8.2755-7.3979 13.064-11.754 4.354-3.047 10.449-7.4021 10.449-8.7051 0-0.87-0.87274-2.6159-1.3027-3.9219-0.439-0.869-0.43945-1.7418-0.43945-2.1758-0.436-0.871-0.43619-1.7378-0.86719-2.1758zm-341.3 25.25c-3.05 0.872-11.321 3.0446-19.156 4.3516-7.397 1.311-11.749 2.1773-19.15 2.6113v0.87304 1.7402c0 1.305-0.873 2.6104 0 3.4824 0.868 1.741 8.2682 6.5328 14.365 10.885 6.527 4.79 14.805 12.625 14.805 12.625 0.43-0.873 0.42969-1.3057 0.42969-2.1777 0.438-0.868 0.86914-1.7413 0.86914-2.6133-0.43-0.873-3.4809-3.0442-6.0879-4.7852-2.183-1.305-5.6621-3.918-5.6621-3.918 0-2.179-0.000906-3.4831 0.87109-5.6621 0.435-2.611 0.87369-4.3519 2.1797-6.9629 0 0 4.3479-0.43404 6.9629-0.87304 2.613-0.434 4.3513-0.43514 7.4023-0.86914 0.428-0.438 0.42773-0.87214 0.42773-1.7441 0.438-0.869 0.43945-0.86933 0.43945-2.6113 0.437-1.306 0.86569-2.1789 1.3047-3.0469v-1.3047zm-20.028 10.88c-0.877 2.175-1.3061 3.4832-1.7441 5.6582-0.43 1.743-0.42919 2.6105-0.86719 4.3555l-10.449-7.8398 13.061-2.1738zm376.13 12.191c-6.967 1.736-10.885 2.6085-17.412 3.4805-6.967 0.868-10.887 1.3047-17.848 1.3047 0.867 3.047 1.3032 4.7914 1.7402 8.2754 0.432 4.348-0.00031 11.311 1.3047 11.748 0.867 0.434 1.3051 0.43554 1.7441 0.43554 0.428 0 0.87064 0.4375 1.3066 0.4375 0.432 0.434 0.86538 0.4336 1.7344 0.4336-1.305-2.611-2.172-3.9169-3.041-6.9629-0.439-2.613-0.4375-3.9192-0.4375-6.5312 2.611-0.434 4.3524-0.87264 7.4004-1.3066 2.172-0.438 3.9184-0.43805 6.5274-0.87305 0.436 1.745 0.875 2.6175 0.875 4.3535 0.43 2.611 0.42968 4.3558 0.42968 6.9668 0.439-0.435 0.87514-0.43504 1.7441-0.87304 0.439-0.434 1.3092-0.43319 1.7402-0.86719 0.432-0.871-0.43405-3.4836-0.87305-5.2266-0.428-1.736-0.42773-3.0481-0.42773-4.7871 2.172-0.435 3.4792-0.4336 5.6582-0.4336 2.172-0.438 3.4792-0.43904 5.6582-0.87304 0.436 1.738 0.43629 3.046 0.86329 4.791 0 2.607 0.00026 3.9138-0.42774 6.0918 0.867-0.434 1.2973-0.43514 1.7363-0.86914 0.873 0 1.3047 0.0005 2.1777-0.4375 0.44-0.43-1.3013-6.0883-1.7363-9.5723-0.438-3.483-0.43751-5.2231-0.4375-8.7051zm-370.03 17.85c0.869 2.613 1.7383 4.789 1.7383 7.832 0 2.177-0.0016 3.9212-0.43164 6.5332-5.661-0.002-8.7062 0.43204-14.365-0.002-6.969 0-10.882-0.43718-17.855-1.7422 0.438 1.743 0.4375 3.0445 0.4375 4.3555 0 1.742-0.4375 3.0441-0.4375 4.7871 6.535-0.873 10.888-0.87354 17.418-0.43554 6.963 0 10.887 0.43559 17.85 1.3086v-8.2715c0.438-4.356 1.307-11.319 0-12.625-0.438 0-0.87264 0.0005-1.3066-0.4375-0.438-0.435-0.86959-0.43514-1.3086-0.86914-0.43-0.434-0.86928-0.4336-1.7383-0.4336zm338.25 15.666v4.3555c-0.432 1.308-0.43228 2.613-0.86328 4.791 6.963-0.873 10.877-0.873 17.848 0 5.658 0.434 8.6994 0.86528 14.357 1.7383 0.439 1.308 0.439 3.0466 0 5.2266-0.43 2.611-3.0412 4.3516-5.6582 4.3516-6.963-0.434-6.5234-5.6588-6.5234-6.9648-0.439-0.438-0.86659-0.43715-1.3086-0.86915-0.867 0-1.3031-0.43554-1.7441-0.43554 0 0.866-0.42814 1.3057-0.86914 2.1777-0.867 2.18-4.789 3.0466-7.834 4.3516-3.918 1.74-8.2676 3.0464-9.1406 3.4844-0.871 0.868-0.4375 1.7393-0.4375 2.6113v2.6055c0 0.873-0.001 1.7452-0.4375 2.6172v2.1758c3.48-2.613 5.227-3.9197 8.707-6.0937 3.486-1.744 6.0976-2.1775 9.1426-4.3535 1.311-1.307 1.7437-2.6129 2.1777-3.9199h0.43555c0 1.74 1.7423 8.275 7.4023 8.709 5.658 0.436 8.7046-3.9183 9.1406-7.4023 0.438-3.917 0-4.7869 0-7.8359 0-3.483 0.43814-5.2241 0.86914-8.7031-6.963 0.435-10.885 0.435-17.848 0-6.969-0.435-10.885-1.3062-17.416-2.6172zm-364.81 19.15c-0.434 0-0.86764-0.00045-1.3066 0.43555-0.436 0-0.43719 0.43809-0.86719 0.87109-0.438 0.438-1.3061 0.4381-1.7441 0.8711-0.438 0.438 1.7453 7.8385 2.6113 13.062 0.438 5.224 1.3061 13.06 1.7441 13.492 0.434 0.438 1.3032-0.0005 1.7422 0.4375 0.438 0 0.86673 0.43555 1.3027 0.43555h1.3066c-0.868-1.744-1.3062-2.1805-1.7422-4.3535-0.8148-2.0454-0.87991-3.7562-1.2461-6.1094 5.6214-1.7234 8.6703-2.1657 14.307-3.0273 6.965-1.312 10.883-1.7461 17.85-1.7461-0.434-1.739-0.87109-3.0465-0.87109-4.3535-0.437-1.307-0.4375-2.6126-0.4375-4.3516-6.965 1.738-10.879 2.6105-17.41 3.4785-5.658 1.311-9.1408 1.3111-14.799 1.7441-0.438-2.179-0.43805-3.4837-0.87305-6.0957 0-1.741-0.000407-3.049 0.43359-4.791zm361.76 18.73c-1.309 1.305-3.9136 5.6582-5.2226 9.5762-1.746 5.658 0.002 13.493 6.9688 15.238 5.654 1.305 9.5761-2.1802 13.496-6.5312 3.041-2.609 5.2187-6.099 9.1367-4.791 3.045 0.873 3.4863 4.3574 2.6133 7.4004-0.873 3.482-2.6148 6.0948-6.0918 6.9668 0.432 0.436 0.86743 0.87109 1.7324 0.87109h1.7422c0.441 0 0.86919 0.43555 1.7422 0.43555 0.439-0.435 2.18-2.1799 3.916-7.8379 1.311-5.655-0.86739-12.625-6.5254-14.365-5.227-1.305-8.2675 2.6127-12.188 6.0977-3.482 3.916-6.0956 6.0971-10.018 4.7891-3.914-0.873-4.3545-5.2289-3.4805-7.8359 0.867-3.051 3.4803-7.401 7.4023-8.709-0.438-0.437-0.87314-0.87109-1.7441-0.87109-0.434-0.434-0.87333 0-1.7363 0-0.44-0.001-0.86714-0.0006-1.7441-0.4336zm-325.19 10.44c-1.741 3.483-3.0477 5.6626-5.2207 9.1426-2.184 3.053-4.3587 4.7909-6.0957 7.8379-0.437 1.742-0.4375 3.044-0.4375 4.791-0.868-1.746-5.2298-6.5345-10.883-4.3555-5.225 2.177-6.095 6.9662-4.791 10.449 1.307 3.916 1.7445 4.3528 3.4805 6.9648 1.309 3.046 1.7448 4.7895 3.0508 8.2695 6.097-3.479 9.5795-5.224 16.105-7.834 6.097-2.176 10.014-3.4826 16.543-5.2246-0.432-1.74-1.3083-3.0455-1.7383-4.3535-0.438-0.871-0.86864-2.179-1.3066-3.916-6.097 3.479-9.5813 5.2241-16.111 7.8301-5.22 1.744-8.2687 3.0495-13.928 4.3555-0.872-0.868-1.7368-2.612-2.1758-4.791-0.438-2.173 0.87042-5.2248 3.4824-6.0918 6.527-2.61 8.271 2.1739 8.709 3.0469 0.43 0.438 0.86638 0.4375 1.7344 0.4375 0.438-0.438 1.3061-0.4375 1.7441-0.4375-0.438-0.873-0.4375-1.3067-0.4375-2.1797 0-2.609 3.0546-5.219 5.2266-7.834 2.613-2.608 6.0973-6.0958 6.5273-6.9668 0.438-0.873 0.000313-1.7384-0.42969-2.6094-0.438-0.868-0.87669-0.86824-1.3047-1.7402-0.438-1.307-0.43795-1.7458-0.87695-3.0508-0.43-0.868-0.42919-1.3022-0.86719-1.7402zm314.74 18.72c-0.869 1.738-1.3072 2.6071-1.7422 3.9141-0.436 1.742-1.3046 2.6155-2.1816 4.3555 6.535 1.738 10.453 3.4807 16.549 6.0957 6.525 2.61 10.012 4.7914 15.67 8.2734 0.877-1.74 1.3051-3.0465 1.7441-4.3535 0.438-1.312 1.3047-2.18 2.1777-3.918-6.531-1.74-10.447-3.4836-16.543-6.0976-6.535-2.612-10.018-4.7885-15.674-8.2695zm-12.193 23.072c-0.869 1.743-1.2968 2.6139-2.1738 3.9219-0.867 1.304-1.7403 2.6061-2.6133 3.9141 6.1 3.049 9.5761 4.79 15.244 8.707 4.785 3.048 7.395 5.2269 11.748 8.7109-0.869 1.738-1.7395 3.0442-3.4785 4.7852-1.309 1.743-1.7444 2.61-3.4844 3.918h1.3086c0.434 0.435 0.86878 0 1.3008 0 0.877 0.435 1.3051 0.87255 1.7441 0.43555 0.869 0 4.3524-6.9664 7.3984-11.316 2.613-4.352 7.4023-10.448 7.4023-10.883 0-0.873-0.875-0.87359-0.875-1.3086-0.43-0.437-0.43014-0.86969-0.86914-1.3047 0-0.438-0.43628-0.87109-0.86328-0.87109-0.439 1.74-0.4395 2.1766-1.3125 4.3516-1.306 2.179-2.1744 3.4836-3.4824 5.2246-5.227-2.613-8.268-4.3534-12.625-7.4004-5.658-3.922-9.1411-6.0948-14.369-10.885zm-289.83 1.082c-3.9746-0.0756-7.9865 1.2336-11.416 3.709-8.271 6.098-11.316 16.541-4.7852 25.684 6.528 9.145 17.411 9.5794 25.684 3.4824 8.271-5.663 10.878-16.103 4.3516-25.248-3.6748-5.1429-8.7238-7.5297-13.834-7.627zm3.8086 5.6074c2.8576 0.0101 5.512 1.0926 7.416 3.7578 4.786 6.533-0.43866 13.498-6.0977 17.416-6.096 4.351-13.927 6.9686-18.717 0.4336-4.352-6.092 0.43739-13.062 6.5254-17.412 3.1877-2.4491 7.199-4.2083 10.873-4.1953zm264.26 21.607c-0.877 1.307-2.1818 2.1798-3.0508 3.0508-0.432 0.867-1.7399 1.7389-3.0449 3.0469 2.613 2.178 4.3549 3.4782 6.9629 5.6562 1.742 1.743 3.047 3.0506 4.791 5.2266 0.867 3.922 1.7397 6.5273 2.1777 10.447 0.871 4.791 1.3052 9.5764 1.7402 12.191 0 0 0.43609-0.43946 0.87109-0.43946 0.438-0.435 0.43815-0.87164 0.86915-1.3066 0.867-0.435 1.3091-0.43564 1.7441-1.3066 0.432-1.301-0.87714-5.6566-1.7441-9.1406-0.869-3.921-0.87065-6.5265-1.3066-9.1445 3.049 0.438 5.6595 1.3057 9.1465 2.1777 3.045 0.873 6.9655 2.1742 8.2695 1.7402 0.867-0.434 1.7404-1.3008 2.6074-2.1738 0.438-0.872 0.87314-1.3071 1.7441-1.7441 0.438-0.436 0.86864-0.87364 1.3066-1.3066-3.051-0.435-7.8384-0.86728-12.191-1.7383-3.918-0.873-6.5288-1.7409-10.883-3.0469-1.74-1.743-2.6115-3.0511-4.3535-4.7891-2.176-3.045-3.4742-4.7874-5.6562-7.4004zm-228.55 10.014c-3.913 6.096-6.5237 9.1441-10.887 14.369-3.913 3.916-6.0854 6.0937-10.441 10.012-1.307-0.434-2.617-1.3059-3.916-3.0469-1.743-2.179-1.743-5.2248 0-6.9648 5.22-5.66 10.444-1.3095 11.316-0.4375v-1.7441c0.434-0.435 0.434-0.86824 0-1.7402-0.438-0.86701-9.1434-7.831-16.107 0v-0.43555c-3.479 4.356-2.1814 9.1429 0.43359 11.756 3.051 2.612 4.3578 3.4836 6.9668 5.2246 2.173 2.18 5.2231 4.7856 5.6621 5.2246 1.304-1.74 6.5249-8.707 10.881-13.498 4.352-5.219 7.397-8.271 12.623-12.623-1.304-0.872-2.6144-2.1759-3.4824-3.0449-0.872-0.873-2.1718-1.7398-3.0488-3.0508zm160.27 34.725c-1.4105 0.0335-3.1658 0.31977-5.2891 0.97266-10.014 2.61-13.06 14.801-10.447 24.814 3.05 10.016 10.447 13.496 18.281 11.318 6.963-2.178 12.195-7.8399 10.01-15.672-2.172-6.535-6.9645-9.5744-15.23-7.4004-3.05 0.867-4.7903 2.6107-6.5293 6.0957-0.873-1.307-2.6129-14.365 4.7891-16.545 4.791-0.866 6.9642 0.43688 9.5762 3.0469 0.431-0.435 0.43164-0.86724 0.43164-1.7402-0.432-0.867-0.86718-1.3072-0.86718-1.7402-0.436-0.871-0.002-1.3052-0.4375-1.7422-0.54313-0.8175-1.9363-1.464-4.2871-1.4082zm-94.967 1.4102c-1.745 0.87299-2.6122 1.3072-4.7852 1.7402-2.618 0.438-5.6678 0.87305-7.8398 0.87305 0.436 0 0.4375 0.86478 0.4375 1.3008 0.428 0.871 0.42773 1.3071 0.42773 1.7441 2.186-0.438 1.7437-0.4375 3.0527-0.4375 1.304-0.436 3.4809-0.86914 3.9219-0.86914-0.877 2.617-1.7434 6.5314-3.4844 12.193-2.181 6.525-3.4917 10.443-6.0957 16.539 1.741 0.436 2.6056 0.43605 4.3516 0.87305 1.745 0.434 2.6125 0.86528 4.3535 1.7383 0.877-6.965 1.745-10.883 3.918-17.418 1.743-6.525 2.6156-10.444 5.2246-16.537-0.436-0.435-0.87523-0.43519-1.7402-0.86719-0.432 0-0.86919-0.43804-1.7422-0.87304zm20.471 4.6641c-6.0094 0.19493-11.436 3.767-12.199 11.006-0.436 6.527 3.0445 11.752 11.312 12.625 3.486 0.436 5.6604-0.87447 8.2774-3.4805 0.436 1.732-1.7412 13.494-10.449 13.061-3.917 0-6.536-2.6167-7.832-6.0957-0.436 0.432-0.875 0.86924-0.875 1.7402-0.432 0.436 0 1.3068 0 2.1758v1.7422c0 1.307 3.0495 3.0469 8.2715 3.9199 10.453 0.865 17.846-9.1448 19.154-19.594 0.873-10.445-4.7886-16.106-13.061-16.979-0.87037-0.10912-1.7411-0.14894-2.5996-0.12109zm39.82 0.45312c-0.65164 0.00025-1.3031 0.10988-1.9551 0.54688-1.309 0.867-4.7894 7.8317-8.2754 13.055-2.176 4.354-6.0904 9.5817-6.5254 10.889v2.6094 1.7422c3.049-0.436 5.2226-0.43614 8.2676-0.86914 3.049 0 5.2265-0.43945 8.2715-0.43945v2.6133c0 2.174-0.0006 3.4792-0.4336 5.6562 1.301-0.436 2.6085-0.43555 4.3535-0.43555 1.306-0.432 2.6127-0.43164 4.3477-0.43164-0.429-1.746-0.86524-3.0546-0.86524-5.2266-0.439-0.873-0.43945-1.7383-0.43945-2.6113 0 0 0.87714-0.43945 1.7441-0.43945 0.869 0 1.3052 0.43845 1.7402-0.43555 0.438-0.438 0.4375-1.3053 0.4375-1.7383 0.439-0.438 0.44014-0.87064 0.86914-1.3066v-1.3066s-1.7419 0.43414-3.0469 0.86914h-2.6133c-0.43679-4.3527-0.43555-6.9642-0.43555-11.314-0.432-4.353-0.43359-6.9674-0.43359-11.318h-3.0508c-0.6545 0-1.3054-0.10767-1.957-0.10742zm-38.449 2.6895c0.2586-0.009 0.5245 0 0.79687 0.0273 4.79 0.436 6.5262 5.2252 5.6582 9.5762-0.868 3.918-2.6123 7.4018-7.4023 6.9648-4.79-0.43402-5.6582-4.3535-5.6582-8.2715 0.40875-4.08 2.7264-8.1633 6.6055-8.2969zm36.922 3.0723c0.439 3.921 0.439 6.098 0.875 9.582v7.8359c-1.738 0.435-3.0441 0.43555-4.7871 0.43555h-6.0957c1.305-3.045 2.6095-5.2275 4.3555-8.2715 2.177-3.92 3.4783-6.096 5.6523-9.582zm35.201 5.0977c3.6441 0.13062 5.4536 3.1772 6.5938 6.2266 1.306 3.914 0.87749 9.1393-3.4785 10.445-4.793 0.871-8.2726-3.0468-9.1426-6.9668-0.438-3.918-0.001-8.2702 4.3496-9.5742 0.59887-0.10888 1.1572-0.14952 1.6777-0.13086z"/><path d="m197.21 190.67c-6.095 0.002-10.012 4.7916-10.012 10.016 0 5.658 3.4767 10.449 10.012 10.883 4.354 0 6.5259-1.7418 6.9629-2.1758 0.436-0.873 0.43555-1.7453 0.43555-2.6113-1.741 2.172-4.7894 3.4793-7.3984 2.6113-4.358-0.873-5.6621-4.3564-5.6621-8.2734 0-4.354 1.3041-8.2701 5.6621-8.7031 2.609-0.436 5.6574 0.43192 7.3984 3.0449 0 0 0.432-0.43555 0-0.43555v-0.87109-1.3066-0.43164s-1.7404-1.7461-7.3984-1.7461zm114.92 0.002-0.43359 0.43359h-0.87305c-0.438 0.438-1.7398 0.43905-2.1758 0.87305-0.441 0.873-1.3113 5.6592-2.6133 9.5762-1.742 4.356-3.9141 10.447-3.9141 10.447 0.432 0 0.86864-0.4336 1.3066-0.4336 0.436 0 0.86669 0.434 1.3047 0 0.436-0.434 0.87169-2.614 1.3047-3.918 0.436-1.741 1.3047-3.916 1.3047-3.916 0.867-0.435 1.7438-0.43505 3.0488-0.87305h3.918c0 0.438 1.3072 2.1764 1.7402 3.4824 0.873 1.745 1.3112 2.612 1.7402 3.918h1.3086 1.3066c0.874-0.433 1.3031-0.43359 1.7441-0.43359h0.86718c-0.867-1.304-3.9182-5.6636-5.6582-9.1426-2.174-3.922-3.4796-6.0967-5.2266-10.014zm-143.22 0.002c-6.093 0.433-9.5762 5.2219-9.5762 10.881 0 5.663 3.9182 10.014 10.449 10.014 6.099-0.438 10.012-5.2229 9.5801-10.881 0-5.656-3.9221-10.014-10.453-10.014zm43.967 0.43555c-0.432 0.434-0.43164 0.87305-0.43164 0.87305 0 0.43399-0.43555 0.43518-0.43555 0.86718v0.4336c0.869 0 1.3038-0.4336 2.1758-0.4336h3.918v8.2695c0 3.917 0.00081 6.0966-0.86719 10.016h2.6133 2.6074c-0.43799-3.919-0.4375-6.0986-0.4375-10.016 0-3.047-0.00049-4.7885 0.4375-8.2695 1.303 0 2.1815-0.0004 3.4785 0.4336 1.309 0 1.7442-0.0005 2.6172 0.4375v-0.4375c0-0.434-0.4336-0.43324-0.4336-0.86524 0-0.434 0.002-0.43405-0.43945-0.87304 0-0.434-4.3503-0.00001-7.4023 0-3.041 0-7.4004-0.43555-7.4004-0.43555zm23.51 0.43555c0.436 3.918 0.43555 6.0928 0.43555 10.01 0 3.917-0.00019 6.0967-0.86719 10.014h2.6113 2.6094c-0.43701-3.917-0.87751-6.0967-0.4375-10.014 0-3.047 0.0005-4.789 0.4375-7.832 0.86699-0.437 1.7399-0.4375 3.0449-0.4375 1.31 0.437 2.6113 1.7429 2.6113 3.0449-0.437 4.356-3.05 3.9219-3.918 3.9219 0 0.434 0.00036 0.43318-0.43164 0.86718v0.87305c0.432 0 0.87278 0.002 1.3008 0.43555 0.878 0.434 1.7453 2.6105 2.6133 4.3555 0.876 2.172 1.7437 4.7852 2.1797 4.7852 0.438 0.434 0.86878 0.43555 1.3008 0.43555h1.3105 1.7461 1.3027c-1.744-1.741-2.611-3.0481-3.916-4.7871-0.872-1.745-1.3052-3.4821-2.6172-4.7891-0.867-0.872-1.3029-0.87264-2.1719-1.3066 0.868 0 4.3496-1.308 4.3496-4.791 0.44-3.045-2.1756-4.3512-4.3496-4.7852-2.173 0-2.1725-0.00041-4.3535 0.43359-1.745 0-2.609 0.00041-4.791-0.43359zm43.535 0.86718c-0.873 0-1.7417-0.0005-2.1797 0.4375h-1.7344-0.87696c0.441 0 0.87696 0.43405 0.87696 0.87305 0.433 0.434 0.43118 0.86764 0.86718 1.3066v7.3984c0 3.917 0.0005 6.0968-0.4375 10.01h1.3047 1.7461c-0.44-3.041-0.43946-4.787-0.43946-7.832v-6.5352c0.44 0.873 3.0495 4.7909 5.2285 7.8359 2.609 3.49 3.9138 6.0972 5.2188 6.5312h1.7441 1.7402c0.002-3.913-0.43359-6.0918-0.43359-10.01 0-3.918-0.001-6.0976 0.43555-10.016-0.437 0.438-1.3093 0.4375-1.7383 0.4375h-1.3066c0 2.611 0.42774 3.9142 0.42774 6.5312 0 3.045 0.00026 5.2235-0.42774 8.2695 0-0.434-3.0501-4.3514-4.7891-7.3984-2.179-3.488-3.9166-6.9668-5.2266-7.8398zm-111.01 0.004c4.354 0 6.0952 4.3511 6.5352 8.7031 0 3.924-1.3092 8.709-5.6582 8.709-4.362 0-6.0992-4.354-6.5352-8.709 0-3.914 1.3042-8.2691 5.6582-8.7031zm93.164 0c0.437 3.917 0.8685 6.0952 0.4375 9.5742 0 3.918-0.00018 6.0976-0.86719 10.016h2.6035 2.6133c-0.429-3.484-0.42969-5.6632-0.42969-9.5762 0-3.918 0.42814-6.0967 0.86915-10.014h-2.6133-2.6133zm-120.96 1.0547c-0.72779 0.007-1.4764 0.0886-2.2383 0.25195-2.177 0.868-3.0477 0.86673-5.2207 1.3027-1.745 0.437-2.6175 0.8696-4.3535 1.3086 0.868 3.485 1.7344 5.6566 2.6074 9.1406 0.44 3.919 0.87269 6.0958 1.3047 10.01 1.745 0 2.6144-0.43324 4.3594-0.86524 2.173-0.435 4.7902-0.43504 5.6582-0.87304 6.527-1.307 9.1431-6.5319 7.8301-11.756-0.7595-4.9508-4.8527-8.5678-9.9473-8.5195zm168.85 1.1191 3.4844 6.5312h-3.4844c-0.869 0.434-1.3048 0.43359-2.1738 0.43359l2.1738-6.9648zm-169.1 1.1777c3.4263 0.14525 5.5226 3.2858 6.2891 7.0938 0.868 3.917-0.44137 8.2706-4.3594 9.1426-1.741 0.873-4.3487 0.87305-5.2207 0.87305-0.873-3.047-1.3096-4.7869-2.1816-7.8379-0.432-3.045-0.86683-4.7869-1.2988-7.8359 0.868-0.439 3.9117-1.3066 5.2207-1.3066 0.54375-0.10825 1.0613-0.14966 1.5508-0.12891zm-1.5508 45.842c-2.177 0-3.0481 0.43359-4.7891 0.43359-1.737 0-3.0461 0.00055-4.7871 0.43555 0.864 3.485 0.86369 5.658 1.3047 9.582v10.008c1.745 0 2.6146-0.43359 4.3516-0.43359 2.181 0 3.0534 0.433 4.3574 0 3.045 0 7.4029-1.7404 6.9629-7.4023-0.436-4.352-6.5344-4.3516-7.3984-4.3516 0.864 0 4.3496-1.307 4.3496-4.791-0.434-2.18-2.1796-3.4805-4.3516-3.4805zm14.361 0c0.44 3.917 0.43945 6.0917 0.43945 10.012 0 3.918-0.439 6.0937-0.875 10.014 0.876-0.438 1.7452-0.4375 2.6172-0.4375s1.3024-0.0005 2.6074 0.4375c-0.436-3.92-0.86719-6.0957-0.86719-10.014 0.432-3.92 0.43119-6.0947 0.86719-10.012-0.868 0-1.7349 0.43359-2.1719 0.43359-0.873 0-1.7452-0.43359-2.6172-0.43359zm30.482 0.86914c-3.49 0-6.9707 2.1776-6.9707 5.2226 0 3.053 2.6122 4.3576 4.7852 6.0996 2.613 1.307 4.359 2.6111 3.918 4.7891 0 2.176-2.174 3.0469-3.918 3.0469-1.737-0.438-4.3502-1.3049-5.6582-3.0469 0 0 0.00027 0.43604-0.42773 0.87304 0 0.435 0.42773 0.86719 0.42773 0.86719v1.3027c0.872 0.434 3.4852 1.3066 5.6582 1.3066 3.485 0.434 7.4028-1.3072 7.8438-5.6582 0-3.05-2.6135-4.7913-5.2305-6.5293-2.173-0.871-4.35-1.7435-3.918-4.3535 0-1.741 1.745-2.1758 3.918-2.1758 1.745 0 3.4845 0.43478 4.3535 2.1758 0 0 0.0005-0.43814 0.4375-0.86914 0-0.435-0.4375-0.43505-0.4375-0.87305v-0.87109c0-0.436-1.3032-1.3066-4.7812-1.3066zm124.93 0.86328c-0.436 0-4.3539 1.7423-6.9629 2.6133-3.049 0.873-6.9723 2.1777-7.4043 2.1777v1.3047 0.4375 0.86914c0.869-0.436 0.86883-0.86959 2.1738-1.3086 1.314-0.429 2.1843-0.85883 3.4883-1.2988 1.305 3.045 1.7428 4.7874 3.0488 7.3984 1.305 3.92 1.7384 6.0996 2.6074 10.016 0.877-0.438 1.3049-0.87268 2.1719-1.3047 0.877 0 1.7462-0.4375 2.6172-0.4375-1.74-3.481-2.6171-5.6557-3.9121-9.1367-0.877-3.053-1.7456-4.7929-2.1816-7.8379 1.305-0.873 1.7438-0.8735 3.0488-1.3125 1.305 0 1.7359-0.43555 3.0449-0.43555-0.432 0-0.43164-0.43359-0.43164-0.43359-0.439 0-0.43895-0.4375-0.87696-0.4375 0-0.434 0.00036-0.87305-0.43164-0.87305zm-171.52 0.006c1.304 0 2.1774 0.87073 2.6094 2.1777 0 3.052-3.0491 4.356-3.9141 3.918v0.87305c-0.44 0.436-0.44141 0.86719-0.44141 0.86719 0.873-0.435 6.5349-0.43413 6.9629 3.0469 0.44 2.616-0.86287 4.3516-2.1719 5.2246-1.304 0.869-3.9176 0.86955-5.2266 0.43555-0.432-3.045-0.43119-4.789-0.86719-7.834v-8.2715c0.868-0.438 1.7448-0.4375 3.0488-0.4375zm59.201 0c0.44 3.922 0.44 6.0966 0 10.016-0.432 3.916-0.43169 6.0957-1.3047 10.014 1.745 0 3.0441-0.435 4.7891 0 2.613 0 6.0952 0.87354 6.5352 0.43554 0.428-0.435 0.42773-0.43614 0.42773-0.86914 0-0.438 0.43946-0.43804 0.43946-0.87304 0 0 0.42773-0.43414 0.42773-0.86915-1.737 0.43701-2.6086 0.86915-4.3496 0.86915-1.309 0-2.1765 0.0004-3.4805-0.4336v-3.9219c0-1.741 0.0005-2.6071 0.4375-3.9141h2.6133c1.304 0 2.1714 0.43555 3.4844 0.43555v-0.87305c0-0.435 0.00055-0.87264-0.43945-1.3066h-3.0449-2.6133c0-1.305-0.00036-2.1735 0.43164-3.4785v-3.0508h3.0488c1.304 0.436 1.7409 0.43609 3.0449 0.87109v-0.87109c-0.428-0.434 0.00027-0.87064-0.42773-1.3066 0-0.435-3.0545-0.003-5.2305-0.43555-1.741 0-3.0481 0.0005-4.7891-0.4375zm18.723 1.3066c0 3.918 0.001 6.0976-0.43554 10.016 0 3.918-0.43269 6.0917-1.3047 10.014h2.6055 2.1856c0-3.489-0.00027-6.0971 0.42773-9.5801 0-3.485 0.43895-5.2225 0.87695-8.2695h3.0449c1.309 0.435 2.6137 1.7385 2.1777 3.4785 0 3.918-3.0501 3.4824-3.9141 3.4824 0 0 0.001 0.43604-0.4375 0.87304v0.86914c0.439 0 0.87109-0.0005 0.87109 0.4375 1.306 0.432 2.1723 2.6086 2.6113 4.3516 0.868 2.174 1.7318 4.7926 2.1738 5.2266 0 0.434 0.43764 0.43359 1.3066 0.43359 0.439 0 0.87059-0.43359 1.3086-0.43359 0.436 0 0.87114 0.43359 1.7441 0.43359h0.86914c-1.305-1.738-2.1778-3.046-3.0488-4.791-1.309-2.173-1.3092-3.4798-2.6172-5.2188-0.869-0.874-1.3007-0.87265-2.1777-1.3066 0.877 0 4.359-0.87443 4.791-4.3574 0.437-3.047-1.7411-4.7852-3.9141-4.7852-2.18-0.434-2.6174-0.4336-4.3574-0.4336-1.736 0-3.0461-0.001-4.7871-0.43945zm-101.04 0.33594c-0.28016 0.0122-0.55857 0.0467-0.83007 0.10156-2.177 0-2.6174 0.43419-4.3574 0.86719-1.736 0.436-2.6036 0.87164-4.3496 1.3066 1.307 3.485 1.7453 5.6556 2.6133 9.1406 0.868 3.92 1.3053 6.0955 1.7363 10.02 0.87301-0.44 1.7397-0.44004 2.1797-0.87304 0.873 0 1.3005-0.002 2.6055-0.43555-1.305-3.486-2.1729-5.6565-3.0449-9.1445-0.868-3.047-0.86869-5.2215-1.3047-8.2715 0.436-0.43399 1.7452-0.86718 2.6172-0.86718 1.732 0 3.0425 0.86642 3.4785 2.6074 0.86899 3.923-2.1724 4.3555-2.6094 4.3555 0 0.436-0.44141 0.43604-0.44141 0.87305v0.86718h1.3066c1.309 0.434 2.6129 2.1778 3.9219 3.9238 1.309 1.734 3.0527 3.9116 3.0527 4.3516 0.428 0 1.2953 0.0005 1.7363-0.4375 0.436 0 0.86869-0.43554 1.3047-0.43554h1.3047c0.873-0.438 0.87259-0.4375 1.3086-0.4375-1.741-1.307-3.0482-2.1721-4.7852-3.9141-1.309-1.307-2.1809-2.614-3.9219-3.916-0.437-0.438-1.3097-0.43945-2.1777-0.43945v-0.43555c0.86899 0 3.9168-2.1816 3.0488-5.2266-0.38237-2.6652-2.4314-3.6656-4.3926-3.5801zm123.67 1.4043c0 0.87 2.612 6.5273 3.916 10.445 0.873 3.919 3.0527 10.014 3.0527 10.447h1.7441 1.7383c0.434-0.435 2.6102-5.6562 4.7832-9.5762 1.745-3.482 4.7891-9.1411 4.7891-9.5801h-0.43164c0 0.439-0.44114 0.439-0.86914 0h-1.3047c-0.439 0.439-2.1857 4.3557-3.0527 6.9707-1.306 2.61-3.914 7.396-4.791 8.707-0.426-1.31-1.7285-5.6537-2.6055-9.1387-0.872-3.053-1.7427-6.9723-2.1797-7.4043-0.432-0.435-1.7333-0.43555-2.6113-0.43555h-1.3066s-0.87109 0.001-0.87109-0.43555zm47.021 2.1758c0 0.434-0.44114 0.43554-0.86914 0.43554-0.439 0.436-1.7441 0.43605-1.7441 0.87305-0.869 0.435-2.1743 5.2246-3.4863 9.1426-1.305 4.352-3.918 10.447-3.918 10.447h1.3066c0.44 0 0.8666-0.00054 1.3086-0.43554 0.437 0 0.87464-2.18 1.3066-3.918 0.439-1.307 1.3105-3.4818 1.3106-3.9238 1.305 0 1.732-0.43359 3.041-0.43359h4.3555c0 0.434 0.8725 2.1794 1.3125 3.4844 0.867 1.738 1.2944 2.61 1.7344 3.918h1.3066 1.3027 1.7402v0.004c0.439 0 0.438-0.00055 0.875-0.43555-0.876-1.306-3.484-5.2276-5.666-9.1426-1.736-3.916-3.0412-6.0976-4.7852-10.016h-0.43164zm-20.9 0.002v10.012c-0.43 3.918-0.43064 6.0976-1.3066 10.016h2.6094 2.1816v-9.5801c0.436-3.916 0.87368-6.0937 1.3047-10.012h-2.1738c-0.87201 0-1.7402-0.002-2.6152-0.43555zm-169.34 1.7422c-0.434 0.436-0.86914 0.43518-0.86914 0.86718-0.435 0-1.3083 0.43555-1.7383 0.43555 0.43 0.438 3.0446 5.229 4.3516 8.709 1.734 3.922 2.6115 8.7063-0.4375 10.447-3.484 1.743-6.5265-2.6112-8.2695-5.6562-1.741-3.484-3.916-9.1426-3.916-9.1426-0.875 0.434-1.3056 0.87164-2.1816 1.3066-0.868 0.432-1.3078 0.43114-2.1758 0.86914 0 0 3.4821 5.2245 4.7871 8.2715 2.618 4.353 6.0959 9.1427 11.754 6.0957 5.662-2.611 4.7903-7.3996 2.6113-13.061-1.305-3.049-3.478-9.1426-3.916-9.1426zm188.5 2.1758 3.4785 6.5312h-3.4785c-0.872 0-1.3136 0.4375-2.1816 0.4375l2.1816-6.9688z"/></g></g></svg>
