<?xml version="1.0" encoding="UTF-8" standalone="no"?>
<svg xmlns="http://www.w3.org/2000/svg" viewBox="0 0 237.13282 75.810547" version="1.1"><g transform="matrix(1.25 0 0 -1.25 -258.32 534.63)"><g transform="translate(.74522 .74522)"><path d="m0 0v3.4062h1.3164c3.9463 0 5.0293 1.6246 5.0293 5.8809v28.867c0 4.2573-1.083 5.8828-5.0293 5.8828h-1.3164v3.4043c3.5594-0.15309 7.0422-0.15234 10.602-0.15234 3.5594 0 7.1212-0.000743 10.682 0.15234v-3.4043h-1.2383c-4.0245 0-5.1094-1.5486-5.1094-5.8828v-11.299h6.3477c11.53 0 17.104-4.0235 17.104-13.389-0.002-9.2861-6.039-13.466-18.5-13.466h-19.889zm14.936 4.4883h4.7207c6.8095 0 10.371 3.0957 10.371 8.8242 0 6.3468-3.4047 9.3633-10.447 9.3633h-4.6445v-18.187zm26.266 5v2.7246h0.99023c2.7242 0 3.4062 1.4852 3.4062 4.7051v17.398c0 9.2258 5.1384 13.992 14.982 13.992 10.465 0 14.674-4.5813 14.674-14.861v-16.529c0-3.2831 0.74357-4.7051 3.4043-4.7051h1.1152v-2.7246c-2.416 0.062125-4.8928 0.12305-7.3691 0.12305-2.5368 0-5.0753-0.060922-7.7363-0.12305v2.7246h0.99023c3.591 0 4.2715 1.2385 4.2715 4.8926v16.715c0 6.9348-2.2285 10.154-8.7305 10.154-6.6238 0-8.791-3.2202-8.791-10.279v-16.777c0-3.5289 0.62045-4.7051 4.0254-4.7051h1.0508v-2.7246c-2.6621 0.062125-5.3243 0.12305-8.0488 0.12305-2.7246 0-5.4494-0.060922-8.2344-0.12305zm42.039 0v2.7246h0.99219c3.1571 0 4.084 1.2988 4.084 4.7051v23.096c0 3.4657-0.86511 4.7051-4.084 4.7051h-0.99219v2.7227c2.8488-0.12262 5.6357-0.12305 8.4824-0.12305 2.8488 0 5.6961 0.000422 8.5449 0.12305v-2.7227h-1.0508c-3.1588 0-4.0254-1.2394-4.0254-4.7051v-9.7852h3.4668c5.1391 0 6.3141 1.4866 7.7383 5.5723 0.68038 2.0449 1.0529 6.1939 3.0957 11.641h10.217v-2.7227h-0.61914c-3.1568 0-4.2113-1.8588-5.2617-6.1309-1.4884-5.9448-1.8599-9.3497-6.627-10.154 4.4571-1.1764 6.9356-4.4572 6.9356-8.8535 0-7.182-4.8303-10.092-14.984-10.092h-15.912zm38.635 0v2.7246h0.99023c3.1585 0 4.084 1.2988 4.084 4.7051v23.096c0 3.4036-0.92551 4.7051-4.084 4.7051h-0.99023v2.7227h18.139c14.056 0 20.93-6.3146 20.93-19.441 0-12.567-7.1812-18.512-21.918-18.512h-17.15zm40.566 0v2.7246h0.99414c2.7242 0 3.4043 1.4852 3.4043 4.7051v17.398c0 9.2258 5.1379 13.992 14.984 13.992 10.463 0 14.672-4.5813 14.672-14.861v-16.529c0-3.2831 0.74339-4.7051 3.4082-4.7051h1.1133v-2.7246c-2.4163 0.062125-4.8915 0.12305-7.3672 0.12305-2.5402 0-5.0777-0.060922-7.7422-0.12305v2.7246h0.99414c3.5889 0 4.2715 1.2385 4.2715 4.8926v16.715c0 6.9348-2.2316 10.154-8.7305 10.154-6.6269 0-8.793-3.2202-8.793-10.279v-16.777c0-3.5289 0.61991-4.7051 4.0234-4.7051h1.0527v-2.7246c-2.6614 0.062125-5.3246 0.12305-8.0488 0.12305-2.7263 0-5.4506-0.060922-8.2363-0.12305zm41.98 0.18555v2.5391h1.0527c3.2216 0 4.0234 1.2988 4.0234 4.7051v23.096c0 3.4036-0.74244 4.7051-4.0234 4.7051h-1.3008v2.7227h30.896v-11.328h-3.0976c-0.0597 6.8095-1.053 7.5527-6.8711 7.5527h-8.7285v-14.119h3.0332c4.5202 0 5.6304 0.43569 5.6953 5.0781h2.7852v-13.498h-2.8496c0 4.7667-1.0493 5.0781-5.7539 5.0781h-2.9102v-12.816h8.9746c4.9531 0 6.3164 0.37167 6.3164 5.2012v0.99023h3.1562v-9.9062h-30.398zm-70.596 3.4043h4.3301c10.465 0 15.418 4.583 15.418 14.861 0 10.836-4.8297 15.85-15.104 15.85h-4.6445v-30.711zm-38.635 0.0625h3.9609c5.8206 0 8.4219 2.1066 8.4219 7.1211 0 4.8285-3.034 6.6855-9.2871 6.6855h-3.0957v-13.807z" transform="matrix(.8 0 0 -.8 206.66 426.1)"/><path d="m0.30664 52.521v2.2285h234.83v-2.2285h-234.83zm158.18 8.323c-3.1794 0-4.918 1.3996-4.918 3.625 0 1.6161 0.97112 2.5231 2.9336 3.373l2.3633 1.0137c0.9924 0.42464 1.416 0.86741 1.416 1.7383 0 1.2135-0.82615 1.8828-2.3438 1.8828-1.8825 0-2.8516-0.8113-2.8516-2.4082 0-0.08033 0.0215-0.18178 0.0215-0.28516h-1.4805v3.498c1.52 0.34565 3.0172 0.5293 4.4531 0.5293 3.2755 0 5.0332-1.357 5.0332-3.7012 0-1.4988-0.87123-2.5692-2.6309-3.2773l-2.5664-1.0293c-1.0714-0.42634-1.5566-0.91198-1.5566-1.7832 0-1.0713 0.90862-1.8184 2.3672-1.8184 1.6773 0 2.4473 0.68718 2.4473 2.2227 0 0.12084-0.00044 0.26574-0.0234 0.4082h1.5586v-3.4199c-1.5145-0.36491-2.9306-0.56836-4.2226-0.56836zm-156.82 0.28516v1.0723h0.24219c0.80875 0 0.99023 0.52473 0.99023 1.5762v5.7266c0 2.8688 1.6386 4.3066 4.9766 4.3066 3.5594 0 4.9512-1.4984 4.9512-4.8145v-5.2188c0-1.0717 0.28615-1.5762 1.0156-1.5762h0.30078v-1.0723c-0.80978 0.02087-1.6179 0.03906-2.4668 0.03906-0.829 0-1.6568-0.01806-2.5273-0.03906v1.0723h0.24219c1.0308 0 1.2949 0.46361 1.2949 1.5762v5.4023c0 1.9618-0.77048 2.8906-2.6094 2.8906-1.9024 0-2.5273-0.90966-2.5273-2.8516v-5.4414c0-1.1723 0.20362-1.5762 1.3145-1.5762h0.24219v-1.0723c-0.87088 0.02087-1.7791 0.03906-2.6895 0.03906-0.88944 0-1.8218-0.01806-2.75-0.03906zm26.635 0v1.0723h0.24219c1.0312 0 1.3145 0.46361 1.3145 1.5762v7.0801c0 1.1115-0.28324 1.5957-1.3145 1.5957h-0.24219v1.0723c0.8884-0.0395 1.7597-0.03906 2.6289-0.03906 0.86988 0 1.7388-0.000437 2.6094 0.03906v-1.0723h-0.24414c-1.056 0-1.3-0.484-1.3-1.596l-0.04102-7.4414 4.7539 10.109h3.4395v-9.748c0-1.1126 0.26007-1.5762 1.293-1.5762h0.24219v-1.0723c-0.88906 0.02087-1.759 0.03906-2.6484 0.03906-0.87087 0-1.7184-0.01806-2.5879-0.03906v1.0723h0.24219c1.0521 0 1.293 0.46361 1.293 1.5762l0.06055 7.5039-4.752-10.152h-4.9941zm27.766 0v1.0723h0.24219c1.0329 0 1.2949 0.46361 1.2949 1.5762v7.0801c0 1.1115-0.26201 1.5957-1.2949 1.5957h-0.24219v1.0723c0.97079-0.0395 1.942-0.03906 2.9121-0.03906 0.94985 0 1.9225-0.000437 2.8926 0.03906v-1.0723h-0.26172c-1.0319 0-1.2949-0.48418-1.2949-1.5957v-7.0801c0-1.1126 0.26305-1.5762 1.2949-1.5762h0.26172v-1.0723c-0.9701 0.02087-1.9427 0.03906-2.8926 0.03906-0.97009 0-1.9413-0.01806-2.9121-0.03906zm19.719 0v1.0723c0.68756 0.06144 0.97099 0.48488 1.293 1.375l3.7637 10.152h2.9297l3.6406-10.234c0.26362-0.76791 0.56755-1.1512 1.2949-1.293v-1.0723c-0.72738 0.02087-1.515 0.03906-2.3457 0.03906-0.84928 0-1.7402-0.01806-2.7109-0.03906v1.0723c0.99136 0 1.459 0.20066 1.459 0.72656 0 0.14175-0.02128 0.32413-0.08203 0.52734l-2.614 7.865-2.73-7.904c-0.079-0.224-0.122-0.406-0.122-0.549 0-0.56535 0.42551-0.62414 1.457-0.66602v-1.0723c-1.1129 0.02087-2.125 0.03906-2.9941 0.03906-0.86916 0-1.617-0.01806-2.2441-0.03906zm51.613 0v1.0723h0.24414c1.0295 0 1.291 0.46361 1.291 1.5762v7.0801c0 1.1115-0.26155 1.5957-1.291 1.5957h-0.24414v1.0723c0.97181-0.0395 1.9441-0.03906 2.9121-0.03906 0.95225 0 1.9227-0.000437 2.8945 0.03906v-1.0723h-0.26367c-1.0312 0-1.293-0.48418-1.293-1.5957v-2.8125h0.96875c1.1102 0 1.7397 0.3243 2.0215 1.1348 0.38516 1.0717 0.44776 2.6273 1.1934 4.3457h3.7227v-1.0723h-0.10157c-0.56537 0-0.99137-0.16118-1.2969-0.52539-0.3625-0.42294-0.50406-1.3336-0.82813-2.5879-0.34289-1.2729-0.62557-1.8604-1.7793-2.0234 1.4146-0.34225 2.1856-1.3331 2.1856-2.8477 0-2.4493-1.6611-3.3398-5.1992-3.3398h-5.1367zm50.316 0v1.0723h0.2461c1.0295 0 1.293 0.46361 1.293 1.5762v7.0801c0 1.1115-0.26351 1.5957-1.293 1.5957h-0.2461v1.0723c0.97352-0.0395 1.944-0.03906 2.9141-0.03906 0.95053 0 1.9208-0.000437 2.8926 0.03906v-1.0723h-0.26367c-1.0332 0-1.2949-0.48418-1.2949-1.5957v-7.0801c0-1.1126 0.26167-1.5762 1.2949-1.5762h0.26367v-1.0723c-0.97181 0.02087-1.942 0.03906-2.8926 0.03906-0.97009 0-1.9406-0.01806-2.9141-0.03906zm20.084 0v3.7422h1.2734c-0.021-0.20322-0.0195-0.36439-0.0195-0.52539 0-1.3559 0.46349-1.7188 1.8184-1.7188h1.0918v8.2305c0 1.1115-0.26007 1.5957-1.293 1.5957h-0.42578v1.0723c1.0329-0.0395 2.0646-0.03906 3.0938-0.03906 1.012 0 2.045-0.000437 3.0762 0.03906v-1.0723h-0.42578c-1.0332 0-1.2949-0.48418-1.2949-1.5957v-8.2305h0.89062c1.4953 0 1.9414 0.32141 1.9414 1.918v0.32617h1.334v-3.7422c-2.164 0-3.459 0.03906-3.8809 0.03906h-3.418c-0.40473 0-1.6598-0.03906-3.7617-0.03906zm24.816 0v1.0723c0.82662 0.04189 1.2335 0.50395 1.7168 1.334l2.8301 4.916v2.5469c0 1.0706-0.22102 1.4551-1.373 1.4551h-0.2832v1.0723c0.99102-0.0395 1.9791-0.03906 2.9492-0.03906 0.99275 0 1.9635-0.000437 2.9141 0.03906v-1.0723h-0.2832c-1.173 0-1.375-0.38443-1.375-1.4551v-2.5098l3.0156-4.9355c0.54272-0.8884 0.92646-1.3516 1.5742-1.3516h0.082v-1.0723c-0.78952 0.02087-1.596 0.03906-2.4082 0.03906-0.82626 0-1.6572-0.01806-2.5273-0.03906v1.0723c0.6862 0 0.99218 0.18296 0.99218 0.64844 0 0.20046-0.0828 0.48577-0.22461 0.76758l-1.5762 3.0957-1.5781-3.1973c-0.14352-0.28185-0.24219-0.5253-0.24219-0.72852 0-0.40335 0.28536-0.58594 0.92969-0.58594h0.10351v-1.0723c-0.91036 0.02087-1.8212 0.03906-2.6914 0.03906-0.86849 0-1.7183-0.01806-2.5449-0.03906zm-119.99 0.03906v1.0332h0.24218c1.0315 0 1.2949 0.46361 1.2949 1.5762v7.0801c0 1.0696-0.20296 1.5957-1.2949 1.5957h-0.24218v1.0723h10.152v-3.8809h-1.1348c-0.0391 2.163-0.48364 2.4258-2.5058 2.4258h-2.2656v-4.2871h0.78906c1.2533 0 1.5584 0.24221 1.6191 1.5762h1.0918v-4.4883h-1.0918c-0.0216 1.3752-0.36552 1.6172-1.7012 1.6172h-0.70703v-3.8613h2.4863c1.4966 0 2.1641 0.24075 2.1641 1.4141v0.54883h1.1524v-3.4219h-10.049zm29.025 1.459h1.0312c1.6982 0 2.4648 0.56439 2.4648 2.1016 0 1.4768-0.80873 2.002-2.5684 2.002h-0.92773v-4.1035z" transform="matrix(.8 0 0 -.8 206.66 426.1)" fill="#c28e0e"/></g></g></svg>
