<?xml version="1.0" encoding="utf-8"?>
<!DOCTYPE svg PUBLIC "-//W3C//DTD SVG 1.1//EN" "http://www.w3.org/Graphics/SVG/1.1/DTD/svg11.dtd">
<svg version="1.1" id="Layer_1" xmlns="http://www.w3.org/2000/svg" xmlns:xlink="http://www.w3.org/1999/xlink" x="0px" y="0px" width="300px" height="300px" viewBox="0 0 300 300" enable-background="new 0 0 300 300" xml:space="preserve">
<circle fill="none" stroke="#3F1A0A" stroke-width="0.923" stroke-miterlimit="3.864" cx="150" cy="149.999" r="131.873"/>
<circle fill="none" stroke="#3F1A0A" stroke-width="0.346" stroke-miterlimit="3.864" cx="150" cy="149.999" r="128.395"/>
<path fill="#FFFFFF" d="M46.857,149.999C46.857,93.034,93.034,46.857,150,46.857c56.966,0,103.143,46.177,103.143,103.142
	c0,56.967-46.177,103.144-103.143,103.144C93.034,253.143,46.857,206.966,46.857,149.999"/>
<path fill="none" stroke="#3F1A0A" stroke-width="0.346" stroke-miterlimit="3.864" d="M46.857,149.999
	C46.857,93.034,93.034,46.857,150,46.857c56.966,0,103.143,46.177,103.143,103.142c0,56.967-46.177,103.144-103.143,103.144
	C93.034,253.143,46.857,206.966,46.857,149.999z"/>
<g>
	<defs>
		<path id="SVGID_1_" d="M49.883,149.999C49.883,94.706,94.706,49.883,150,49.883c55.293,0,100.116,44.823,100.116,100.116
			c0,55.294-44.823,100.118-100.116,100.118C94.706,250.117,49.883,205.293,49.883,149.999"/>
	</defs>
	<clipPath id="SVGID_2_">
		<use xlink:href="#SVGID_1_"  overflow="visible"/>
	</clipPath>
	
		<path clip-path="url(#SVGID_2_)" fill="none" stroke="#3F1A0A" stroke-width="0.346" stroke-linejoin="round" stroke-miterlimit="3.864" d="
		M46.438,250.5h207.745 M46.438,249.232h207.745 M46.438,247.965h207.745 M46.438,246.695h207.745 M46.438,245.426h207.745
		 M46.438,244.158h207.745 M46.438,242.889h207.745 M46.438,241.622h207.745 M46.438,240.353h207.745 M46.438,239.083h207.745
		 M46.438,237.816h207.745 M46.438,236.545h207.745 M46.438,235.277h207.745 M46.438,234.01h207.745 M46.438,232.741h207.745
		 M46.438,231.474h207.745 M46.438,230.204h207.745 M46.438,228.933h207.745 M46.438,227.667h207.745 M46.438,226.398h207.745
		 M46.438,225.129h207.745 M46.438,223.862h207.745 M46.438,222.592h207.745 M46.438,221.325h207.745 M46.438,220.054h207.745
		 M46.438,218.788h207.745 M46.438,217.519h207.745 M46.438,216.25h207.745 M46.438,214.981h207.745 M46.438,213.712h207.745
		 M46.438,212.442h207.745 M46.438,211.175h207.745 M46.438,209.907h207.745 M46.438,208.638h207.745 M46.438,207.37h207.745
		 M46.438,206.101h207.745 M46.438,204.833h207.745 M46.438,203.563h207.745 M46.438,202.294h207.745 M46.438,201.026h207.745
		 M46.438,199.759h207.745 M46.438,198.491h207.745 M46.438,197.221h207.745 M46.438,195.952h207.745 M46.438,194.684h207.745
		 M46.438,193.414h207.745 M46.438,192.147h207.745 M46.438,190.878h207.745 M46.438,189.61h207.745 M46.438,188.342h207.745
		 M46.438,187.073h207.745 M46.438,185.805h207.745 M46.438,184.535h207.745 M46.438,183.266h207.745 M46.438,182h207.745
		 M46.438,180.731h207.745 M46.438,179.46h207.745 M46.438,178.193h207.745 M46.438,176.922h207.745 M46.438,175.656h207.745
		 M46.438,174.387h207.745 M46.438,173.119h207.745 M46.438,171.852h207.745 M46.438,170.582h207.745 M46.438,169.314h207.745
		 M46.438,168.043h207.745 M46.438,166.775h207.745 M46.438,165.506h207.745 M46.438,164.24h207.745 M46.438,162.969h207.745
		 M46.438,161.703h207.745 M46.438,160.432h207.745 M46.438,159.165h207.745 M46.438,157.896h207.745 M46.438,156.627h207.745
		 M46.438,155.359h207.745 M46.438,154.09h207.745 M46.438,152.823h207.745 M46.438,151.553h207.745 M46.438,150.284h207.745
		 M46.438,149.016h207.745 M46.438,147.747h207.745 M46.438,146.478h207.745 M46.438,145.21h207.745 M46.438,143.941h207.745
		 M46.438,142.674h207.745 M46.438,141.404h207.745 M46.438,140.136h207.745 M46.438,138.868h207.745 M46.438,137.598h207.745
		 M46.438,136.331h207.745 M46.438,135.062h207.745 M46.438,133.792h207.745 M46.438,132.525h207.745 M46.438,131.256h207.745
		 M46.438,129.987h207.745 M46.438,128.719h207.745 M46.438,127.45h207.745 M46.438,126.183h207.745 M46.438,124.913h207.745
		 M46.438,123.644h207.745 M46.438,122.376h207.745 M46.438,121.107h207.745 M46.438,119.839h207.745 M46.438,118.571h207.745
		 M46.438,117.301h207.745 M46.438,116.033h207.745 M46.438,114.765h207.745 M46.438,113.495h207.745 M46.438,112.228h207.745
		 M46.438,110.958h207.745 M46.438,109.691h207.745 M46.438,108.422h207.745 M46.438,107.152h207.745 M46.438,105.886h207.745
		 M46.438,104.616h207.745 M46.438,103.348h207.745 M46.438,102.08h207.745 M46.438,100.81h207.745 M46.438,99.542h207.745
		 M46.438,98.273h207.745 M46.438,97.004h207.745 M46.438,95.736h207.745 M46.438,94.467h207.745 M46.438,93.2h207.745
		 M46.438,91.93h207.745 M46.438,90.662h207.745 M46.438,89.394h207.745 M46.438,88.124h207.745 M46.438,86.857h207.745
		 M46.438,85.587h207.745 M46.438,84.319h207.745 M46.438,83.051h207.745 M46.438,81.782h207.745 M46.438,80.515h207.745
		 M46.438,79.245h207.745 M46.438,77.976h207.745 M46.438,76.708h207.745 M46.438,75.439h207.745 M46.438,74.17h207.745
		 M46.438,72.902h207.745 M46.438,71.633h207.745 M46.438,70.366h207.745 M46.438,69.097h207.745 M46.438,67.827h207.745
		 M46.438,66.56h207.745 M46.438,65.291h207.745 M46.438,64.022h207.745 M46.438,62.754h207.745 M46.438,61.484h207.745
		 M46.438,60.217h207.745 M46.438,58.948h207.745 M46.438,57.678h207.745 M46.438,56.412h207.745 M46.438,55.142h207.745
		 M46.438,53.874h207.745 M46.438,52.605h207.745 M46.438,51.336h207.745 M46.438,50.068h207.745"/>
</g>
<circle fill="none" stroke="#3F1A0A" stroke-width="0.346" stroke-miterlimit="3.864" cx="150" cy="149.999" r="100.117"/>
<path fill="#3F1A0A" d="M228.034,237.487l-0.13,0.071c-0.162-0.227-0.682-1.61-0.481-2.637c0.199-1.035,0.641-1.762,1.064-2.256
	c2.232-2.571,2.375-3.917,1.834-6.494c-0.063-0.297-0.154-0.584-0.197-0.754c0.288,0.118,0.544,0.381,0.772,0.591
	c0.633-0.367,1.024-1.198,1.024-1.198c0.016,0.642-0.39,2.313,0.362,2.463c0.863,0.171,0.901-1.203,0.87-2.082
	c-0.043-1.257-0.872-1.646-0.895-3.018c0.303,0.472,1.064,0.837,1.568,0.875c0.716,0.059,2.209-1.232,2.395-1.321
	c-0.478,0.813-1.248,3.849,0.05,4.164c1.188,0.292,1.522-2.729,1.561-3.862c0.009-0.337-0.033-0.532-0.111-0.855
	c0,0,0.187,0.1,0.313,0.11c0.502,0.038,1.411-0.872,1.157-1.336c0.301,0.215,0.278,2.16,0.686,2.641
	c0.118,0.136,0.363,0.349,0.671,0.288c0.843-0.168,0.908-1.299,1.756-2.091c-0.07,0.324,0.579,1.686,1.064,1.941
	c0.321,0.172,0.673,0.069,1.08-0.029c0,0-2.237,1.404-2.265,2.079c-0.032,0.874,1.494,0.814,2.538,0.991
	c-0.656,0.168-1.687,0.601-1.599,1.065c0.038,0.188,0.134,0.822,0.297,0.919c-1.146,0.021-4.625-0.7-4.989,0.512
	c-0.383,1.291,3.334,1.649,4.382,1.633c-0.639,0.143-2.646,0.64-2.907,1.201c-0.259,0.562,0.043,2.036,0.043,2.036
	s-0.406-0.479-0.844-0.598c0,0-4.194-2.637-5.051-1.183c-0.285,0.487,0.447,1.286,1.102,1.762c0.46,0.343,1.112,0.439,1.372,0.525
	c-0.604,0.101-0.905,0.016-1.139,0.431c-0.166,0.297-0.175,0.564-0.027,0.874c-1.042-1.048-1.739-1.49-3.092-2.192
	c-0.868-0.448-1.83-1.005-2.365-0.813c-0.314,0.113-0.854,0.495-1.225,0.96C227.653,234.18,227.27,235.622,228.034,237.487"/>
<path fill="#3F1A0A" d="M71.747,237.487l0.13,0.071c0.161-0.227,0.681-1.61,0.48-2.637c-0.199-1.035-0.64-1.762-1.064-2.256
	c-2.231-2.571-2.374-3.917-1.833-6.494c0.062-0.297,0.155-0.584,0.198-0.754c-0.289,0.118-0.544,0.381-0.773,0.591
	c-0.633-0.367-1.024-1.198-1.024-1.198c-0.016,0.642,0.39,2.313-0.362,2.463c-0.864,0.171-0.901-1.203-0.871-2.082
	c0.043-1.257,0.872-1.646,0.895-3.018c-0.302,0.472-1.064,0.837-1.567,0.875c-0.716,0.059-2.209-1.232-2.395-1.321
	c0.478,0.813,1.248,3.849-0.05,4.164c-1.188,0.292-1.522-2.729-1.561-3.862c-0.008-0.337,0.033-0.532,0.112-0.855
	c0,0-0.187,0.1-0.314,0.11c-0.501,0.038-1.411-0.872-1.157-1.336c-0.301,0.215-0.278,2.16-0.685,2.641
	c-0.119,0.136-0.364,0.349-0.671,0.288c-0.843-0.168-0.908-1.299-1.754-2.091c0.068,0.324-0.581,1.686-1.066,1.941
	c-0.321,0.172-0.673,0.069-1.08-0.029c0,0,2.237,1.404,2.263,2.079c0.034,0.874-1.492,0.814-2.536,0.991
	c0.656,0.168,1.686,0.601,1.598,1.065c-0.038,0.188-0.134,0.822-0.297,0.919c1.145,0.021,4.625-0.7,4.989,0.512
	c0.383,1.291-3.334,1.649-4.381,1.633c0.638,0.143,2.646,0.64,2.906,1.201c0.259,0.562-0.043,2.036-0.043,2.036
	s0.407-0.479,0.843-0.598c0,0,4.196-2.637,5.054-1.183c0.283,0.487-0.45,1.286-1.104,1.762c-0.46,0.343-1.113,0.439-1.37,0.525
	c0.603,0.101,0.903,0.016,1.136,0.431c0.167,0.297,0.175,0.564,0.028,0.874c1.042-1.048,1.739-1.49,3.092-2.192
	c0.869-0.448,1.83-1.005,2.366-0.813c0.314,0.113,0.853,0.495,1.224,0.96C72.127,234.18,72.51,235.622,71.747,237.487"/>
<path fill="#3F1A0A" d="M248.842,82.998l-2.438,5.128l-3.08,1.925c-0.854,0.535-1.35,0.531-2.362-0.767
	c-0.057-0.054-0.259-0.017-0.37,0.053c-0.129,0.081-0.251,0.246-0.21,0.311c0.665,1.063,1.219,1.772,1.844,2.772
	c0.625,0.999,0.938,1.679,1.602,2.743c0.042,0.064,0.242,0.03,0.371-0.051c0.115-0.071,0.233-0.237,0.211-0.311
	c-0.732-1.494-0.427-1.796,0.428-2.331l3.096-1.934l6.051,0.278c1.254,0.069,1.896,0.272,2.711,1.289
	c0.05,0.081,0.271,0.077,0.4-0.003c0.113-0.07,0.25-0.246,0.209-0.312c-0.451-0.724-0.716-0.965-1.188-1.722
	c-0.555-0.889-0.745-1.374-1.331-2.309c-0.05-0.081-0.259-0.019-0.372,0.053c-0.127,0.079-0.278,0.196-0.239,0.262
	c0.462,0.99,0.392,1.416,0.052,1.626c-0.209,0.131-0.479,0.165-0.848,0.149l-4.822-0.147l2.03-4.321
	c0.186-0.384,0.321-0.67,0.595-0.843c0.274-0.17,0.623-0.007,1.23,0.712c0.041,0.065,0.24,0.028,0.369-0.053
	c0.115-0.069,0.261-0.229,0.211-0.309c-0.408-0.654-0.852-1.293-1.257-1.894L248.842,82.998z M47.758,82.998
	c-0.074,0.11-0.148,0.218-0.22,0.331c-0.684,1.052-0.946,1.631-1.59,2.621c-0.64,0.988-1.217,1.702-1.902,2.755
	c-0.05,0.079,0.095,0.241,0.205,0.315c0.128,0.082,0.319,0.137,0.371,0.057c1.041-1.251,1.535-1.246,2.381-0.697l7.241,4.702
	c0.845,0.548,1.051,0.999,0.314,2.449c-0.036,0.089,0.093,0.241,0.205,0.313c0.128,0.083,0.317,0.139,0.371,0.06
	c0.683-1.053,1.08-1.838,1.722-2.827c0.643-0.989,1.167-1.625,1.853-2.675c0.04-0.065-0.077-0.233-0.206-0.315
	c-0.111-0.072-0.313-0.112-0.369-0.059c-1.043,1.294-1.49,1.21-2.334,0.661l-3.142-2.041c0.631-0.972,0.999-1.189,2.213-1.102
	l5.444,0.381c0.3-0.462,0.738-1.312,1.039-1.773c0.227-0.351,0.959-1.305,1.312-1.847c0.051-0.079-0.065-0.247-0.184-0.346
	c-0.112-0.072-0.292-0.144-0.351-0.092c-0.903,1.115-1.524,1.232-2.379,1.222l-5.334-0.062c0.199-0.747,0.259-1.428,0.167-2.03
	l-3.832-0.002c0.306,0.117,0.628,0.285,0.961,0.503c1.66,1.078,2,2.228,0.934,3.871c-0.218,0.335-0.431,0.627-0.644,0.851
	l-3.59-2.329c-0.764-0.498-1.052-0.821-0.297-1.985c0.285-0.439,0.603-0.74,0.953-0.913L47.758,82.998z"/>
<path fill="#3F1A0A" d="M68.297,68.313c-2.828-2.544-6.982-2.678-10.036,0.715c-3.054,3.392-2.487,7.51,0.338,10.054
	c2.841,2.557,6.882,2.589,9.937-0.804C71.59,74.887,71.137,70.87,68.297,68.313 M66.273,70.561c2.628,2.366,3.645,5.047,1.698,7.209
	c-1.947,2.162-4.719,1.433-7.348-0.936c-2.615-2.354-3.729-5.123-1.784-7.285C60.789,67.388,63.659,68.207,66.273,70.561
	 M227.15,73.05c0.091-0.097,0.18-0.276,0.123-0.354c-1.079-1.241-0.975-1.716-0.288-2.453l5.889-6.314
	c0.688-0.738,1.153-0.876,2.479,0.1c0.07,0.064,0.242-0.035,0.346-0.146c0.091-0.097,0.192-0.29,0.123-0.354
	c-0.918-0.856-1.624-1.384-2.485-2.189c-0.862-0.803-1.451-1.481-2.383-2.352c-0.057-0.05-0.254,0.049-0.346,0.148
	c-0.103,0.111-0.178,0.302-0.121,0.354c1.081,1.267,0.975,1.742,0.288,2.48l-5.889,6.313c-0.688,0.738-1.153,0.875-2.479-0.129
	c-0.069-0.037-0.256,0.05-0.347,0.147c-0.104,0.111-0.179,0.303-0.122,0.354c0.932,0.869,1.651,1.41,2.512,2.213
	c0.863,0.805,1.438,1.472,2.356,2.326C226.876,73.261,227.046,73.161,227.15,73.05 M244.614,79.207
	c0.9-1.028,1.866-2.038,2.737-2.892c-0.593-0.469-2.038-2.015-4.262-4.665c-2.238-2.666-3.421-4.255-3.794-4.935
	c-1.108,0.631-2.356,1.333-3.581,1.886c-0.109,0.045-0.053,0.292,0.083,0.454c0.073,0.086,0.188,0.165,0.271,0.145
	c1.566-0.619,3.82-0.151,4.688,0.882l0.281,0.335c0.392,0.466,0.395,0.737-0.043,1.104l-7.137,5.99
	c-0.774,0.648-1.251,0.727-2.448-0.431c-0.062-0.046-0.257,0.017-0.36,0.104c-0.115,0.098-0.211,0.277-0.163,0.337
	c0.807,0.961,1.466,1.6,2.225,2.501c0.745,0.89,1.248,1.635,2.054,2.597c0.048,0.058,0.244-0.005,0.36-0.104
	c0.102-0.086,0.197-0.265,0.165-0.335c-0.934-1.379-0.772-1.837,0.002-2.484l7.136-5.989c0.409-0.343,0.704-0.318,1.094,0.149
	l0.38,0.451c0.966,1.15,0.764,3.01-0.215,4.45c-0.031,0.05,0.024,0.203,0.098,0.292C244.341,79.236,244.541,79.294,244.614,79.207
	 M251.735,82.998c-0.257-0.381-0.499-0.742-0.709-1.078c-0.544-0.872-1.008-1.793-1.491-2.566c-0.04-0.065-0.258-0.02-0.371,0.052
	c-0.129,0.08-0.251,0.247-0.209,0.31c0.616,1.274,0.506,1.993,0,3.05l-0.112,0.232H251.735z M49.068,82.998
	c0.498-0.246,1.06-0.234,1.683,0.002l3.832-0.002c-0.132-0.879-0.589-1.598-1.393-2.12c-1.565-1.018-3.574-0.54-5.432,2.122
	L49.068,82.998z M225.141,57.032c-0.088,0.328-0.213,0.681-0.379,1.054c-0.054,0.103,0.075,0.249,0.197,0.34
	c0.106,0.079,0.319,0.144,0.35,0.074c0.283-0.498,0.586-0.981,0.898-1.464L225.141,57.032z M218.384,57.032
	c0.611,2.271,2.408,4.614,1.219,6.193c-0.766,1.017-1.825,1.314-3.085,0.366c-1.352-1.02-1.701-2.831-0.774-5.039
	c0.038-0.114-0.06-0.235-0.168-0.317c-0.12-0.091-0.333-0.156-0.38-0.094c-0.489,0.775-1.42,2.072-2.007,2.917
	c1.091,0.987,1.46,2.075,2.84,3.116c2.202,1.662,4.669,1.518,6.249-0.578c1.483-1.969-0.138-4.483-0.871-6.57L218.384,57.032z
	 M207.526,57.032l-0.033,0.941c0.473,0.283,1.336,0.693,1.81,0.976c0.359,0.216,1.336,0.914,1.891,1.248
	c0.082,0.049,0.245-0.076,0.34-0.197c0.068-0.112,0.134-0.296,0.077-0.352c-1.146-0.865-1.282-1.482-1.303-2.336l-0.007-0.281
	H207.526z M90.77,57.032c-0.125,0.486-0.414,0.866-0.968,1.233c-0.058,0.053-0.083,0.283-0.017,0.401
	c0.057,0.143,0.199,0.281,0.282,0.233c0.781-0.432,1.119-0.727,1.851-1.133c0.647-0.359,0.992-0.497,1.485-0.737L90.77,57.032z
	 M70.843,57.032c-0.029,0.024-0.06,0.05-0.094,0.077c-0.059,0.047,0.027,0.246,0.113,0.349c0.096,0.118,0.304,0.193,0.364,0.146
	c0.783-0.511,1.294-0.364,2.685,0.295l4.519,2.166l0.568,3.873l-8.129-3.964c-0.325-0.156-0.591-0.306-0.723-0.468
	c-0.325-0.399-0.098-0.875,0.383-1.34c0.06-0.047-0.045-0.207-0.141-0.325c-0.084-0.104-0.274-0.218-0.333-0.171
	c-0.977,0.789-1.256,1.139-2.171,1.881c-0.901,0.729-1.362,0.979-2.351,1.781c-0.06,0.047,0.028,0.246,0.11,0.349
	c0.098,0.119,0.306,0.196,0.378,0.136c1.045-0.675,1.694-0.539,2.955,0.079l10.585,5.277c0.077,0.036,0.274-0.024,0.422-0.145
	c0.192-0.156,0.244-0.272,0.228-0.381l-0.777-6.098l5.212,2.508c0.093,0.023,0.257-0.014,0.42-0.146
	c0.149-0.119,0.261-0.283,0.23-0.381l-1.323-5.5h-0.938l0.668,2.656l-4.603-2.146l-0.065-0.51h-0.932l0.007,0.04l-0.087-0.04H70.843
	z"/>
<path fill="#3F1A0A" d="M94.373,50.469l-2.946,1.632l-0.68-4.797L94.373,50.469z M211.617,49.224
	c-1.019,1.697-2.156,2.078-3.835,1.07c-0.344-0.206-0.643-0.411-0.874-0.614l2.204-3.669c0.469-0.783,0.783-1.082,1.973-0.367
	C212.487,46.488,212.539,47.693,211.617,49.224 M221.407,57.032c-0.358-1.025-0.506-1.943,0.024-2.646
	c0.699-0.926,1.842-1.087,2.892-0.297c0.896,0.675,1.16,1.646,0.818,2.941l1.066,0.002c0.266-0.404,0.539-0.807,0.813-1.219
	c-0.999-0.946-1.09-1.488-2.215-2.336c-2.263-1.705-4.728-1.277-6.01,0.424c-0.727,0.963-0.708,2.039-0.412,3.135L221.407,57.032z
	 M83.973,57.032l-1.444-5.986c-0.307-1.317-0.352-2.187,0.326-2.86c0.104-0.084,0.024-0.335-0.062-0.439
	c-0.096-0.118-0.25-0.188-0.295-0.151c-0.694,0.562-0.886,0.838-1.477,1.318c-0.503,0.406-0.874,0.583-1.581,1.159
	c-0.074,0.059-0.002,0.271,0.082,0.373c0.095,0.119,0.244,0.242,0.304,0.195c0.63-0.461,1.114-0.438,1.425-0.052
	c0.18,0.222,0.307,0.559,0.4,0.947l1.384,5.498H83.973z M79.036,57.032L78.6,53.688c-0.141-1.109-0.117-1.837,0.503-2.463
	c0.103-0.083,0.007-0.324-0.077-0.426c-0.094-0.119-0.235-0.202-0.28-0.165c-0.651,0.525-0.931,0.875-1.432,1.281
	c-0.489,0.396-0.961,0.658-1.657,1.22c-0.06,0.047-0.002,0.269,0.082,0.373c0.095,0.12,0.246,0.243,0.302,0.196
	c0.646-0.473,1.094-0.495,1.382-0.139c0.181,0.222,0.263,0.594,0.342,1.118l0.338,2.35H79.036z M78.023,57.032l-2.248-1.031
	c-0.35-0.158-0.63-0.323-0.796-0.53c-0.252-0.31-0.153-0.731,0.429-1.253c0.057-0.048-0.046-0.208-0.143-0.325
	c-0.083-0.104-0.275-0.218-0.333-0.171c-0.975,0.792-1.183,1.08-2.1,1.822c-0.886,0.716-1.094,0.773-1.99,1.489H78.023z
	 M206.867,44.047c-0.047,0.202-0.149,0.408-0.29,0.641l-4.445,7.402c-0.52,0.863-0.963,1.084-2.438,0.399
	c-0.091-0.034-0.238,0.1-0.308,0.213c-0.077,0.132-0.125,0.324-0.044,0.374c1.074,0.646,1.874,1.016,2.884,1.622
	c1.011,0.608,1.663,1.111,2.738,1.756c0.065,0.039,0.229-0.084,0.309-0.214c0.069-0.114,0.1-0.317,0.045-0.373
	c-1.33-0.999-1.262-1.446-0.741-2.308l1.928-3.212c0.995,0.597,1.224,0.956,1.18,2.172l-0.158,4.512h2.774l-0.115-5.051
	c1.851,0.425,3.271,0.014,4.106-1.372c0.997-1.663,0.367-3.75-2.647-5.563c-0.733-0.439-1.239-0.692-1.806-1H206.867z
	 M194.548,44.047c0.95,0.435,1.305,1.192,0.907,2.616c-0.013,0.077,0.135,0.218,0.259,0.27c0.141,0.056,0.347,0.057,0.374-0.013
	c0.357-0.882,0.489-1.463,0.822-2.293c0.086-0.208,0.169-0.396,0.251-0.579H194.548z M189.66,44.047l-0.836,2.07
	c-0.378,0.935-0.781,1.223-2.361,0.767c-0.078-0.01-0.22,0.138-0.271,0.261c-0.057,0.142-0.057,0.346,0.014,0.376
	c1.126,0.413,4.108,1.557,5.271,2.026c1.164,0.47,3.965,1.664,5.08,2.154c0.634-1.015,1.473-2.275,2.192-3.194
	c0.086-0.11-0.095-0.325-0.324-0.418c-0.104-0.042-0.201-0.061-0.239-0.014c-1.167,1.416-3.17,2.061-4.812,1.399l-1.409-0.571
	c-0.459-0.186-0.953-0.589-0.603-1.454l1.373-3.402H189.66z M176.696,44.047l0.112,0.875c0.016,0.084,0.161,0.202,0.363,0.257
	c0.22,0.058,0.383,0.042,0.443-0.039l0.901-1.094H176.696z M110.438,44.047l5.518,2.684c0.124,0.055,0.268,0.06,0.482-0.021
	c0.23-0.09,0.319-0.227,0.287-0.315l-0.852-2.349H110.438z M103.645,44.047l1.451,4.267c0.325,0.955,0.173,1.46-1.292,2.206
	c-0.083,0.052-0.091,0.239-0.036,0.381c0.062,0.16,0.192,0.292,0.263,0.266c0.819-0.313,1.423-0.648,2.293-0.983
	c0.834-0.319,1.561-0.497,2.465-0.843c0.07-0.028,0.074-0.232,0.021-0.375c-0.055-0.143-0.17-0.281-0.266-0.265
	c-1.588,0.428-2.11,0.179-2.453-0.768l-1.427-3.885H103.645z M89.605,44.047l1.204,11.485c0.06,0.609,0.069,1.091-0.04,1.5h2.632
	c0.206-0.102,0.436-0.222,0.723-0.38c0.067-0.037,0.042-0.24-0.033-0.375c-0.063-0.116-0.19-0.263-0.266-0.245
	c-1.076,0.533-1.49,0.371-1.741-0.077c-0.127-0.233-0.184-0.572-0.242-0.911l-0.311-2.13l3.459-1.918l1.804,1.567
	c0.246,0.21,0.441,0.406,0.551,0.606c0.232,0.415,0.078,0.805-0.975,1.454c-0.059,0.054,0.001,0.237,0.065,0.355
	c0.076,0.133,0.233,0.262,0.3,0.225c1.097-0.608,1.899-1.162,2.931-1.734c0.932-0.517,1.693-0.829,2.792-1.438
	c0.065-0.037,0.04-0.241-0.033-0.373c-0.065-0.118-0.257-0.229-0.333-0.208c-1.305,0.549-2.024,0.273-2.97-0.529L91,44.047H89.605z"
	/>
<path fill="#3F1A0A" d="M209.838,44.047c-0.269-0.144-0.548-0.3-0.869-0.495c-1.011-0.607-1.744-1.159-2.818-1.806
	c-0.084-0.049-0.24,0.102-0.31,0.216c-0.077,0.13-0.125,0.322-0.044,0.371c0.94,0.728,1.199,1.188,1.069,1.719L209.838,44.047z
	 M91,44.047l-0.68-0.573c-0.052-0.058-0.256-0.032-0.439,0.068c-0.165,0.094-0.295,0.252-0.292,0.336l0.017,0.169H91z
	 M192.231,37.556c-0.029,0.165-0.091,0.349-0.173,0.555l-2.398,5.937h3.076l0.258-0.634l1.409,0.569
	c0.05,0.02,0.1,0.041,0.146,0.062l2.613,0.003c0.249-0.545,0.5-1.016,0.764-1.677c0.038-0.089-0.116-0.213-0.259-0.271
	c-0.124-0.05-0.321-0.067-0.374,0.014c-0.735,1.365-1.538,1.573-2.598,1.145l-1.409-0.57l1.524-3.772
	c0.348-0.865,0.99-0.83,1.45-0.646l1.411,0.57c1.515,0.614,2.213,2.085,1.914,3.79c-0.003,0.06,0.074,0.172,0.197,0.221
	c0.247,0.101,0.466,0.065,0.498-0.064c0.237-1.094,0.634-2.432,0.98-3.44c-1.032-0.379-3.386-1.276-4.692-1.795L192.231,37.556z
	 M175.875,37.556l0.82,6.492h1.82l5.353-6.492H182.6l-3.493,4.44l-0.531-4.44H175.875z M163.937,37.556l-0.34,2.422
	c-0.139,0.998-0.442,1.378-2.104,1.316c-0.079,0.009-0.182,0.187-0.199,0.318c-0.021,0.152,0.029,0.35,0.104,0.36
	c1.262,0.178,2.159,0.208,3.326,0.373c1.17,0.164,2.022,0.38,3.266,0.555c0.093,0.014,0.177-0.167,0.197-0.318
	c0.02-0.132-0.012-0.327-0.103-0.361c-1.597-0.396-1.782-0.845-1.644-1.844l0.398-2.821H163.937z M152.399,37.556l3.734,4.138
	c0.093,0.096,0.225,0.156,0.453,0.16c0.247,0.005,0.381-0.087,0.383-0.183l0.151-4.115h-0.86l-0.004,0.202l-0.18-0.202H152.399z
	 M145.554,37.556l-0.086,1.537c-0.057,1.007-0.386,1.419-2.022,1.562c-0.098,0.018-0.177,0.187-0.178,0.34
	c-0.004,0.17,0.07,0.342,0.146,0.344c0.876,0.017,1.561-0.069,2.493-0.051c0.893,0.014,1.632,0.123,2.604,0.141
	c0.076,0,0.155-0.189,0.158-0.342c0.002-0.151-0.053-0.324-0.146-0.344c-1.633-0.199-2.026-0.624-1.988-1.632l0.048-1.555H145.554z
	 M128.085,37.556l0.093,0.664c0.468,3.333,2.71,5.073,6.629,4.523c3.094-0.435,4.341-2.617,4.213-5.186l-0.942-0.001
	c0.128,2.384-0.899,3.778-2.968,4.069c-2.316,0.326-3.65-0.562-4.079-3.615l-0.065-0.455H128.085z M102.649,37.556
	c-0.491,0.211-0.774,0.383-1.279,0.577c-0.515,0.198-1.224,0.367-1.829,0.599c-0.087,0.035-0.067,0.25-0.019,0.375
	c0.055,0.143,0.177,0.298,0.247,0.273c1.672-0.419,2.261-0.055,2.64,1.042l1.234,3.626h1.018l-1.255-3.417l7.03,3.417h5.435
	l-2.352-6.492h-1.026l2.104,5.48l-11.126-5.48H102.649z"/>
<path fill="#3F1A0A" d="M196.569,37.556c-0.142-0.06-0.272-0.111-0.388-0.156c-1.162-0.471-3.928-1.65-5.024-2.135
	c-0.07-0.028-0.22,0.137-0.27,0.26c-0.057,0.142-0.059,0.347,0.014,0.374c1.126,0.615,1.43,1.048,1.33,1.651L196.569,37.556z
	 M183.869,37.556l1.272-1.542c0.872-1.048,1.366-1.506,2.591-1.296c0.111,0.03,0.241-0.17,0.295-0.293
	c0.041-0.148,0.011-0.332-0.043-0.348c-0.863-0.231-1.33-0.257-2.156-0.478c-0.992-0.266-1.373-0.466-2.345-0.728
	c-0.093-0.025-0.22,0.158-0.235,0.292c-0.041,0.147-0.054,0.341,0.021,0.36c1.174,0.393,1.375,0.82,1.255,1.341
	c-0.061,0.22-0.271,0.575-0.429,0.79l-1.494,1.902H183.869z M178.576,37.556l-0.447-3.736c-0.026-0.264-0.05-0.624,0.01-0.845
	c0.141-0.454,0.522-0.627,1.714-0.368c0.092,0.024,0.159-0.153,0.197-0.301c0.036-0.128,0.036-0.346-0.038-0.366
	c-1.214-0.324-2.118-0.469-3.26-0.773c-1.084-0.29-1.739-0.564-2.949-0.889c-0.074-0.02-0.203,0.162-0.235,0.292
	c-0.041,0.146,0.021,0.359,0.094,0.379c1.333,0.535,1.496,0.951,1.688,2.44l0.527,4.167H178.576z M166.838,37.556l0.806-5.728
	c0.139-0.998,0.442-1.378,2.087-1.339c0.095,0.014,0.179-0.167,0.199-0.317c0.018-0.132-0.008-0.348-0.103-0.361
	c-1.243-0.175-2.122-0.202-3.289-0.367c-1.169-0.163-2.042-0.381-3.302-0.559c-0.075-0.01-0.18,0.186-0.199,0.316
	c-0.021,0.151,0.027,0.35,0.104,0.361c1.61,0.419,1.799,0.868,1.658,1.866l-0.862,6.127H166.838z M157.121,37.556l0.25-6.891
	c0.036-1.008,0.387-1.402,2.045-1.563c0.075-0.018,0.154-0.187,0.158-0.339c0.003-0.171-0.052-0.362-0.146-0.364
	c-0.875-0.015-1.64,0.086-2.569,0.07c-0.895-0.016-1.537-0.143-2.527-0.159c-0.075-0.002-0.154,0.206-0.158,0.359
	c-0.003,0.151,0.052,0.324,0.146,0.344c1.611,0.218,2.08,0.626,2.063,1.633l-0.122,6.909H157.121z M146.583,37.556l0.201-6.22
	l5.615,6.22h3.678l-8.362-9.361c-0.856-0.016-1.2,0.074-1.885,0.062c-0.554-0.008-1.272-0.116-1.918-0.128
	c-0.095-0.002-0.156,0.208-0.158,0.34c-0.003,0.152,0.05,0.342,0.126,0.344c1.708,0.24,2.116,0.798,2.06,1.958l-0.385,6.787H146.583
	z M139.02,37.556c-0.012-0.229-0.034-0.463-0.066-0.696l-0.831-5.914c-0.146-1.035,0.084-1.452,1.696-1.871
	c0.074-0.01,0.123-0.209,0.102-0.36c-0.02-0.131-0.122-0.329-0.197-0.317c-0.941,0.133-1.456,0.3-2.361,0.428
	c-0.902,0.127-1.538,0.12-2.403,0.241c-0.075,0.01-0.122,0.228-0.104,0.36c0.022,0.151,0.124,0.329,0.199,0.317
	c1.646-0.04,2.005,0.333,2.146,1.332l0.806,5.726c0.037,0.262,0.062,0.513,0.073,0.756L139.02,37.556z M130.965,37.556l-0.771-5.496
	c-0.141-0.999,0.044-1.447,1.657-1.865c0.075-0.011,0.125-0.209,0.104-0.36c-0.021-0.132-0.124-0.329-0.199-0.318
	c-1.243,0.174-2.115,0.394-3.282,0.558c-1.169,0.165-2.067,0.195-3.31,0.369c-0.074,0.011-0.122,0.229-0.101,0.36
	c0.021,0.152,0.122,0.329,0.197,0.318c1.666-0.042,1.967,0.337,2.108,1.335l0.716,5.099H130.965z M113.521,37.556l-0.547-1.514
	c-0.343-0.948-0.168-1.443,1.308-2.215c0.065-0.043,0.074-0.23,0.021-0.373c-0.062-0.161-0.184-0.318-0.271-0.283
	c-0.817,0.313-1.487,0.693-2.357,1.027c-0.834,0.32-1.478,0.444-2.401,0.8c-0.071,0.027-0.067,0.25-0.012,0.393
	c0.055,0.142,0.168,0.28,0.263,0.265c1.58-0.403,2.167-0.201,2.527,0.74l0.445,1.161H113.521z M103.474,37.556l-0.379-0.187
	c-0.17,0.064-0.316,0.125-0.445,0.183L103.474,37.556z"/>
<path fill="#3F1A0A" d="M187.309,264.724c-0.014,0.007-0.029,0.014-0.043,0.021c-0.065,0.038-0.059,0.19-0.025,0.289
	c0.037,0.107,0.127,0.233,0.195,0.209c0.387-0.134,0.872-0.335,1.35-0.521L187.309,264.724z M164.423,264.724l0.601,3.789
	c0.122,0.764-0.029,1.112-1.25,1.44c-0.057,0.022-0.091,0.177-0.075,0.278c0.018,0.114,0.098,0.25,0.156,0.24
	c0.646-0.131,2.115-0.378,2.791-0.486c0.665-0.104,2.028-0.276,2.679-0.379c3.513-0.557,4.963-2.593,4.975-4.89L172,264.724
	c0.185,2.301-0.782,4.045-2.827,4.301l-0.974,0.122c-0.391,0.048-0.856,0.003-0.968-0.702l-0.591-3.721H164.423z M150.502,264.724
	l0.164,4.687c0.026,0.774-0.166,1.103-1.418,1.277c-0.058,0.018-0.111,0.165-0.107,0.268c0.005,0.117,0.068,0.262,0.127,0.258
	c0.918-0.06,3.37-0.19,4.333-0.223c0.963-0.035,3.3-0.072,4.235-0.076c0.13-0.909,0.322-2.057,0.54-2.927
	c0.028-0.104-0.166-0.199-0.354-0.192c-0.09,0.002-0.162,0.019-0.176,0.063c-0.376,1.359-1.579,2.438-2.938,2.486l-1.168,0.041
	c-0.379,0.014-0.852-0.117-0.875-0.833l-0.117-3.342l1.166-0.042c0.877-0.03,1.404,0.375,1.575,1.552
	c0.016,0.059,0.165,0.113,0.269,0.11c0.115-0.007,0.259-0.068,0.257-0.127c-0.025-0.729-0.113-1.18-0.139-1.868
	c-0.014-0.412,0-0.754,0.009-1.119l-0.679,0.007c-0.221,0.601-0.662,0.824-1.313,0.849l-1.168,0.041l-0.029-0.89H150.502z
	 M134.301,264.724l-0.323,3.671c-0.066,0.771-0.298,1.072-1.56,1.095c-0.06,0.007-0.13,0.147-0.139,0.251
	c-0.01,0.116,0.036,0.268,0.093,0.271c0.657,0.029,2.145,0.144,2.827,0.204c0.67,0.059,2.033,0.222,2.688,0.278
	c4.031,0.354,5.936-1.798,6.17-4.488c0.036-0.439,0.027-0.868-0.029-1.282h-2.261c0.018,0.345,0.009,0.706-0.023,1.078
	c-0.23,2.62-1.644,4.357-3.861,4.091l-0.976-0.115c-0.391-0.048-0.83-0.202-0.769-0.916l0.362-4.138H134.301z M122.406,264.724
	l2.172,3.904c0.053,0.089,0.141,0.157,0.311,0.199c0.186,0.046,0.3,0,0.319-0.072l1.087-4.031h-0.699l-0.246,0.982l-0.539-0.982
	H122.406z M117.081,264.724l-0.034,0.115c-0.217,0.745-0.534,0.997-1.784,0.82c-0.075-0.003-0.163,0.108-0.192,0.224
	c-0.031,0.127-0.007,0.27,0.05,0.283c0.652,0.161,1.179,0.218,1.873,0.392c0.667,0.164,1.204,0.374,1.926,0.556
	c0.055,0.014,0.148-0.113,0.175-0.227c0.029-0.115,0.017-0.254-0.05-0.285c-1.187-0.431-1.406-0.816-1.205-1.565l0.084-0.313
	H117.081z"/>
<path fill="#3F1A0A" d="M166.641,264.724l-0.532-3.364c-0.111-0.708,0.317-0.894,0.706-0.969l0.961-0.182
	c2.239-0.43,3.732,1.242,4.153,3.91c0.034,0.205,0.057,0.402,0.071,0.6l2.299,0.005c0.002-0.322-0.025-0.642-0.075-0.967
	c-0.444-2.813-2.72-4.76-6.487-4.164c-0.649,0.104-1.997,0.362-2.661,0.465c-0.679,0.108-2.153,0.328-2.807,0.401
	c-0.057,0.009-0.09,0.179-0.072,0.278c0.017,0.117,0.098,0.251,0.156,0.24c1.264-0.052,1.514,0.233,1.636,0.999l0.435,2.747H166.641
	z M155.884,264.724c0.005-0.245,0.009-0.498-0.002-0.786c-0.002-0.072-0.149-0.111-0.266-0.108c-0.104,0.004-0.248,0.054-0.26,0.127
	c-0.022,0.306-0.073,0.562-0.151,0.768H155.884z M152.696,264.724l-0.079-2.235c-0.025-0.716,0.438-0.893,0.815-0.906l1.17-0.039
	c1.255-0.045,2.204,0.771,2.525,2.06c0.019,0.043,0.106,0.098,0.209,0.095c0.204-0.007,0.347-0.1,0.33-0.203
	c-0.178-0.841-0.316-1.901-0.389-2.719c-0.932,0.062-3.208,0.186-4.173,0.22c-0.964,0.034-3.271,0.068-4.192,0.072
	c-0.059,0.003-0.11,0.164-0.106,0.268c0.003,0.116,0.068,0.261,0.125,0.258c1.262,0.103,1.477,0.417,1.504,1.191l0.067,1.939
	H152.696z M136.5,264.724l0.263-3.008c0.062-0.714,0.523-0.79,0.918-0.769l0.978,0.055c1.96,0.108,3.006,1.595,3.108,3.724
	l2.261-0.002c-0.309-2.259-2.048-4.046-5.256-4.328c-0.656-0.057-2.028-0.132-2.697-0.19c-0.684-0.062-2.168-0.204-2.82-0.292
	c-0.057-0.007-0.129,0.151-0.14,0.253c-0.01,0.115,0.036,0.266,0.095,0.27c1.239,0.256,1.414,0.596,1.346,1.366l-0.254,2.922H136.5z
	 M126.294,264.724l1.116-4.134c0.199-0.748,0.53-0.982,1.797-0.817c0.062,0,0.149-0.113,0.179-0.227
	c0.031-0.127,0.024-0.281-0.046-0.299c-0.652-0.161-1.241-0.216-1.935-0.392c-0.667-0.164-1.128-0.37-1.864-0.556
	c-0.057-0.014-0.151,0.13-0.179,0.242c-0.031,0.114-0.021,0.252,0.048,0.283c1.169,0.442,1.449,0.829,1.264,1.579l-1.078,4.319
	H126.294z M199.671,258.232c-0.247,1.198-0.865,2.376-1.819,3.697c-0.04,0.052,0.041,0.189,0.123,0.265
	c0.09,0.088,0.232,0.151,0.273,0.1c1.104-1.159,2.072-2.579,2.659-4.059L199.671,258.232z M186.321,258.232l1.704,4.952
	c0.304,0.885,0.16,1.114-0.716,1.538l1.477,0.002c0.24-0.098,0.478-0.188,0.698-0.265c0.649-0.223,1.558-0.456,2.138-0.659
	c0.055-0.017,0.062-0.175,0.025-0.284c-0.034-0.097-0.137-0.217-0.197-0.212c-1.004,0.224-1.318,0.162-1.627-0.736l-1.494-4.336
	H186.321z M118.922,258.232c-0.008,0.141-0.039,0.291-0.087,0.46l-1.754,6.032h0.843l1.447-5.463l3.035,5.463h2.405l-3.566-6.492
	H118.922z M102.166,258.232c-0.368,1.938,0.585,3.545,2.983,4.513c2.424,0.98,4.186-0.263,5.018-2.319l0.886-2.193h-0.773
	l-0.723,1.79c-0.826,2.045-2.137,2.759-3.778,2.097c-1.643-0.667-2.198-1.748-1.358-3.887H102.166z"/>
<path fill="#3F1A0A" d="M85.044,243.422c0.386-0.803,0.958-1.709,1.399-2.439c-0.752-0.528-2.575-1.849-3.358-2.438
	c-0.769-0.58-2.598-2.014-3.315-2.591c-0.059-0.043-0.189,0.059-0.251,0.142c-0.07,0.092-0.124,0.236-0.065,0.279
	c0.903,0.863,0.874,1.243,0.407,1.862l-3.99,5.297c-0.465,0.616-0.822,0.75-1.894,0.108c-0.068-0.031-0.19,0.058-0.252,0.141
	c-0.068,0.093-0.124,0.236-0.065,0.279c0.769,0.58,1.351,0.928,2.074,1.472c0.725,0.546,1.274,1.051,2.044,1.631
	c0.046,0.036,0.181-0.045,0.251-0.138c0.062-0.082,0.103-0.233,0.065-0.281c-0.934-0.869-0.939-1.277-0.474-1.894l1.863-2.474
	l0.956,0.721c0.7,0.527,0.855,1.173,0.259,2.206c-0.036,0.048,0.044,0.181,0.139,0.252c0.093,0.069,0.245,0.112,0.281,0.065
	c0.439-0.584,0.641-0.999,1.054-1.545c0.414-0.55,0.774-0.883,1.214-1.466c0.043-0.059-0.046-0.181-0.141-0.251
	c-0.094-0.07-0.237-0.123-0.28-0.065c-0.827,0.856-1.475,0.865-2.175,0.337l-0.957-0.72l1.907-2.532
	c0.431-0.573,0.901-0.419,1.217-0.182l0.874,0.661c1.051,0.791,1.294,2.089,0.738,3.316c-0.028,0.032,0.031,0.151,0.101,0.204
	C84.802,243.478,84.995,243.512,85.044,243.422 M97.35,253.517c1.416-2.555,0.796-5.686-2.27-7.386
	c-3.066-1.699-6.048-0.566-7.466,1.992c-1.423,2.564-0.747,5.597,2.319,7.296S95.927,256.085,97.35,253.517 M95.317,252.393
	c-1.317,2.377-3.147,3.598-5.101,2.515c-1.956-1.081-1.888-3.282-0.57-5.66c1.31-2.364,3.189-3.676,5.143-2.591
	C96.746,247.739,96.627,250.029,95.317,252.393 M213.279,250.252c-0.018-0.059-0.179-0.097-0.276-0.09
	c-0.117,0.004-0.26,0.104-0.255,0.17c0.004,0.713-0.027,1.345-0.553,1.66l-2.793,1.679c1.096-3.538,1.78-5.774,0.795-7.414
	c-0.805-1.339-2.517-1.691-3.995-0.804c-1.375,0.829-1.651,2.408-1.423,3.841c0.012,0.075,0.154,0.144,0.28,0.154
	c0.125,0.01,0.322-0.059,0.315-0.158c-0.025-1.004,0.211-1.83,1.037-2.326c0.901-0.541,1.833-0.266,2.451,0.761
	c0.97,1.613,0.261,4.718-0.732,8.278c0.048,0.141,0.245,0.211,0.312,0.152c0.251-0.235,1.621-1.076,2.647-1.692
	c1.14-0.684,2.437-1.447,2.763-1.558C213.633,252.203,213.372,250.86,213.279,250.252 M222.564,243.458
	c-0.884-1.217-2.367-1.567-3.88-0.469c0.701-1.194,0.91-2.447,0.206-3.416c-0.728-1.006-2.046-1.201-3.275-0.309
	c-1.099,0.796-1.255,2.05-1.226,3.108c0.002,0.054,0.139,0.115,0.254,0.124c0.102,0.017,0.258-0.043,0.278-0.113
	c0.074-0.668,0.288-1.293,0.809-1.671c0.709-0.515,1.358-0.317,1.855,0.368c0.643,0.886,0.559,2.211-0.331,3.67
	c-0.041,0.068,0.082,0.213,0.19,0.261c0.115,0.061,0.299,0.09,0.34,0.024c0.133-0.242,0.364-0.519,0.743-0.793
	c0.922-0.67,1.929-0.354,2.718,0.731c0.928,1.277,0.999,2.669-0.193,3.536c-0.557,0.405-1.319-0.197-1.886,0.215
	c-0.472,0.342-0.528,0.762-0.245,1.151c0.352,0.486,1.133,0.443,2.067-0.236C222.939,248.224,223.895,245.291,222.564,243.458
	 M200.908,258.232c0.677-1.707,0.843-3.497,0.118-5.051c-1.153-2.476-3.145-3.257-5.105-2.342c-2.039,0.951-2.606,3.052-1.883,4.601
	c0.772,1.655,2.216,2.303,3.78,1.574c0.621-0.29,1.033-0.789,1.138-1.257c0.022-0.058-0.1-0.18-0.188-0.235
	c-0.105-0.048-0.255-0.058-0.294-0.006c-0.109,0.147-0.271,0.318-0.51,0.429c-0.756,0.352-1.481-0.032-2.224-1.622
	c-0.635-1.361-0.632-2.46,0.4-2.942c1.02-0.476,1.896,0.293,2.745,2.121c0.843,1.802,1.083,3.283,0.786,4.73H200.908z
	 M188.329,258.232l-0.447-1.3c-0.248-0.718-0.543-1.807-0.697-2.385c-0.024-0.068-0.113-0.147-0.21-0.113
	c-0.111,0.036-0.15,0.098-0.252,0.209c-0.616,0.677-1.699,1.343-2.471,1.932c-0.055,0.019-0.048,0.174-0.017,0.27
	c0.034,0.097,0.123,0.22,0.175,0.188c0.134-0.061,0.27-0.108,0.367-0.143c0.855-0.296,1.142,0.179,1.377,0.854l0.167,0.488H188.329z
	 M121.245,258.232l-0.637-1.159c-0.637-0.16-0.91-0.152-1.421-0.28c-0.41-0.103-0.931-0.307-1.413-0.427
	c-0.07-0.018-0.153,0.127-0.177,0.227c-0.029,0.113-0.022,0.266,0.036,0.279c0.996,0.381,1.324,0.772,1.289,1.356L121.245,258.232z
	 M111.053,258.232l0.833-2.061c0.3-0.745,0.613-0.933,1.845-0.591c0.055,0.021,0.163-0.094,0.208-0.202
	c0.038-0.093,0.043-0.265-0.01-0.288c-0.678-0.271-1.083-0.357-1.734-0.62c-0.651-0.263-1.07-0.512-1.693-0.763
	c-0.055-0.021-0.17,0.105-0.206,0.201c-0.044,0.106-0.046,0.265,0.008,0.285c1.111,0.607,1.207,0.992,0.917,1.71l-0.941,2.328
	H111.053z M104.421,258.232c0.012-0.029,0.022-0.056,0.032-0.083l1.73-4.279c0.291-0.72,0.585-0.946,1.82-0.604
	c0.052,0.021,0.162-0.091,0.205-0.201c0.039-0.095,0.044-0.265-0.009-0.286c-0.895-0.362-1.557-0.552-2.396-0.89
	c-0.841-0.342-1.449-0.664-2.343-1.026c-0.055-0.022-0.17,0.104-0.206,0.2c-0.045,0.108-0.046,0.265,0.008,0.289
	c1.123,0.609,1.18,0.979,0.89,1.697l-1.676,4.143c-0.143,0.357-0.247,0.706-0.311,1.044L104.421,258.232z"/>
<path fill="#3F1A0A" d="M111.245,108.912c0-21.496,17.427-38.921,38.92-38.921c21.497,0,38.924,17.425,38.924,38.921
	c0,21.497-17.427,38.921-38.924,38.921C128.672,147.833,111.245,130.409,111.245,108.912"/>
<g>
	<defs>
		<path id="SVGID_3_" d="M111.245,108.912c0-21.496,17.427-38.921,38.92-38.921c21.497,0,38.924,17.425,38.924,38.921
			c0,21.497-17.427,38.921-38.924,38.921C128.672,147.833,111.245,130.409,111.245,108.912"/>
	</defs>
	<clipPath id="SVGID_4_">
		<use xlink:href="#SVGID_3_"  overflow="visible"/>
	</clipPath>
	<path clip-path="url(#SVGID_4_)" fill="none" stroke="#FFFFFF" stroke-width="0.346" stroke-miterlimit="3.864" d="
		M102.406,109.013h95.128 M119.049,65.081c0-8,13.975-14.487,31.214-14.487c17.24,0,31.214,6.487,31.214,14.487
		c0,8.001-13.974,14.488-31.214,14.488C133.024,79.569,119.049,73.082,119.049,65.081z M87.906,65.081
		c0-16.579,27.917-30.018,62.357-30.018c34.44,0,62.356,13.439,62.356,30.018c0,16.58-27.916,30.019-62.356,30.019
		C115.824,95.1,87.906,81.661,87.906,65.081z M149.971,63.229v90.147 M135.304,108.912c0-25.118,6.653-45.478,14.861-45.478
		c8.21,0,14.863,20.36,14.863,45.478s-6.653,45.478-14.863,45.478C141.958,154.39,135.304,134.03,135.304,108.912z M120.219,108.689
		c0-24.994,13.408-45.255,29.947-45.255c16.541,0,29.949,20.261,29.949,45.255s-13.408,45.255-29.949,45.255
		C133.626,153.944,120.219,133.683,120.219,108.689z"/>
</g>
<path fill="#3F1A0A" d="M90.189,105.41l1.775,72.605h50.063c0,0,2.15-3.027,7.894-3.027V125.81L90.189,105.41z"/>
<path fill="none" stroke="#3F1A0A" stroke-width="0.34" stroke-linejoin="round" stroke-miterlimit="3.864" d="M90.189,105.41
	l1.775,72.605h50.063c0,0,2.15-3.027,7.894-3.027V125.81L90.189,105.41z"/>
<path fill="#FFFFFF" d="M149.841,125.81c0,0-37.561-12.58-56.251-22.106c0,0,2.156,52.478,1.617,70.809
	c0,0,5.033,3.057,16.895,0.718c11.859-2.335,24.62-4.673,37.918-1.257L149.841,125.81z"/>
<path fill="none" stroke="#3F1A0A" stroke-width="0.346" stroke-linejoin="round" stroke-miterlimit="3.864" d="M149.841,125.81
	c0,0-37.561-12.58-56.251-22.106c0,0,2.156,52.478,1.617,70.809c0,0,5.033,3.057,16.895,0.718
	c11.859-2.335,24.62-4.673,37.918-1.257L149.841,125.81z"/>
<path fill="#FFFFFF" d="M150.02,124.73c0,0-29.293-7.547-52.298-25.519c0,0-1.795,51.579,0.541,69.55c0,0,1.796,2.878,12.4,2.695
	c10.604-0.179,17.792-5.391,39.357,2.517V124.73z"/>
<path fill="none" stroke="#3F1A0A" stroke-width="0.346" stroke-linejoin="round" stroke-miterlimit="3.864" d="M150.02,124.73
	c0,0-29.293-7.547-52.298-25.519c0,0-1.795,51.579,0.541,69.55c0,0,1.796,2.878,12.4,2.695c10.604-0.179,17.792-5.391,39.357,2.517
	V124.73z"/>
<path fill="#FFFFFF" d="M110.663,104.244c0,0-3.775-1.797-5.392-8.447c0,0-9.703,36.124-4.314,67.395c0,0,5.034,3.774,16.357,3.953
	c11.32,0.179,22.643,1.796,32.527,6.112v-50.323C149.841,122.934,119.468,113.588,110.663,104.244"/>
<path fill="none" stroke="#3F1A0A" stroke-width="0.346" stroke-linejoin="round" stroke-miterlimit="3.864" d="M110.663,104.244
	c0,0-3.775-1.797-5.392-8.447c0,0-9.703,36.124-4.314,67.395c0,0,5.034,3.774,16.357,3.953c11.32,0.179,22.643,1.796,32.527,6.112
	v-50.323C149.841,122.934,119.468,113.588,110.663,104.244z"/>
<path fill="#FFFFFF" d="M150.111,171.996c0,0-10.872-6.65-28.843-9.346c-9.832-1.473-15.816-5.749-15.816-5.749
	s-2.366-2.419-2.366-19.628c0.592-31.006,16.205-45.969,16.205-45.969c3.562-2.844,4.39,6.47,4.39,6.47
	c-3.839,2.827-6.97,5.933-9.521,9.15c1.492,1.052,6.949,4.365,20.587,7.923c16.532,4.313,15.365,9.164,15.365,9.164V171.996z"/>
<path fill="none" stroke="#3F1A0A" stroke-width="0.346" stroke-linejoin="round" stroke-miterlimit="3.864" d="M150.111,171.996
	c0,0-10.872-6.65-28.843-9.346c-9.832-1.473-15.816-5.749-15.816-5.749s-2.366-2.419-2.366-19.628
	c0.592-31.006,16.205-45.969,16.205-45.969c3.562-2.844,4.39,6.47,4.39,6.47c-3.839,2.827-6.97,5.933-9.521,9.15
	c1.492,1.052,6.949,4.365,20.587,7.923c16.532,4.313,15.365,9.164,15.365,9.164V171.996z"/>
<path fill="#FFFFFF" d="M103.144,141.744c0,0-2.649-26.897,20.536-43.97c0,0-0.828-9.313-4.39-6.47
	C119.29,91.304,102.067,107.417,103.144,141.744"/>
<path fill="none" stroke="#3F1A0A" stroke-width="0.346" stroke-linejoin="round" stroke-miterlimit="3.864" d="M103.144,141.744
	c0,0-2.649-26.897,20.536-43.97c0,0-0.828-9.313-4.39-6.47C119.29,91.304,102.067,107.417,103.144,141.744z"/>
<path fill="#3F1A0A" d="M209.811,105.41l-1.775,72.605h-50.063c0,0-2.152-3.027-7.894-3.027V125.81L209.811,105.41z"/>
<path fill="none" stroke="#3F1A0A" stroke-width="0.34" stroke-linejoin="round" stroke-miterlimit="3.864" d="M209.811,105.41
	l-1.775,72.605h-50.063c0,0-2.152-3.027-7.894-3.027V125.81L209.811,105.41z"/>
<path fill="#FFFFFF" d="M150.159,125.81c0,0,37.561-12.58,56.251-22.106c0,0-2.156,52.478-1.617,70.809
	c0,0-5.031,3.057-16.895,0.718c-11.861-2.335-24.62-4.673-37.918-1.257L150.159,125.81z"/>
<path fill="none" stroke="#3F1A0A" stroke-width="0.346" stroke-linejoin="round" stroke-miterlimit="3.864" d="M150.159,125.81
	c0,0,37.561-12.58,56.251-22.106c0,0-2.156,52.478-1.617,70.809c0,0-5.031,3.057-16.895,0.718
	c-11.861-2.335-24.62-4.673-37.918-1.257L150.159,125.81z"/>
<path fill="#FFFFFF" d="M149.98,124.73c0,0,29.293-7.547,52.298-25.519c0,0,1.795,51.579-0.541,69.55c0,0-1.796,2.878-12.4,2.695
	c-10.603-0.179-17.792-5.391-39.356,2.517V124.73z"/>
<path fill="none" stroke="#3F1A0A" stroke-width="0.346" stroke-linejoin="round" stroke-miterlimit="3.864" d="M149.98,124.73
	c0,0,29.293-7.547,52.298-25.519c0,0,1.795,51.579-0.541,69.55c0,0-1.796,2.878-12.4,2.695c-10.603-0.179-17.792-5.391-39.356,2.517
	V124.73z"/>
<path fill="#FFFFFF" d="M189.336,104.244c0,0,3.775-1.797,5.393-8.447c0,0,9.703,36.124,4.314,67.395c0,0-5.034,3.774-16.355,3.953
	c-11.322,0.179-22.645,1.796-32.529,6.112v-50.323C150.159,122.934,180.532,113.588,189.336,104.244"/>
<path fill="none" stroke="#3F1A0A" stroke-width="0.346" stroke-linejoin="round" stroke-miterlimit="3.864" d="M189.336,104.244
	c0,0,3.775-1.797,5.393-8.447c0,0,9.703,36.124,4.314,67.395c0,0-5.034,3.774-16.355,3.953c-11.322,0.179-22.645,1.796-32.529,6.112
	v-50.323C150.159,122.934,180.532,113.588,189.336,104.244z"/>
<path fill="#FFFFFF" d="M149.891,171.996c0,0,10.87-6.65,28.843-9.346c9.832-1.473,15.814-5.749,15.814-5.749
	s2.368-2.419,2.368-19.628c-0.595-31.006-16.206-45.969-16.206-45.969c-3.563-2.844-4.39,6.47-4.39,6.47
	c3.838,2.827,6.968,5.933,9.521,9.15c-1.492,1.052-6.949,4.365-20.587,7.923c-16.532,4.313-15.363,9.164-15.363,9.164V171.996z"/>
<path fill="none" stroke="#3F1A0A" stroke-width="0.346" stroke-linejoin="round" stroke-miterlimit="3.864" d="M149.891,171.996
	c0,0,10.87-6.65,28.843-9.346c9.832-1.473,15.814-5.749,15.814-5.749s2.368-2.419,2.368-19.628
	c-0.595-31.006-16.206-45.969-16.206-45.969c-3.563-2.844-4.39,6.47-4.39,6.47c3.838,2.827,6.968,5.933,9.521,9.15
	c-1.492,1.052-6.949,4.365-20.587,7.923c-16.532,4.313-15.363,9.164-15.363,9.164V171.996z"/>
<path fill="#FFFFFF" d="M196.856,141.744c0,0,2.649-26.897-20.535-43.97c0,0,0.827-9.313,4.39-6.47
	C180.71,91.304,197.932,107.417,196.856,141.744"/>
<path fill="none" stroke="#3F1A0A" stroke-width="0.346" stroke-linejoin="round" stroke-miterlimit="3.864" d="M196.856,141.744
	c0,0,2.649-26.897-20.535-43.97c0,0,0.827-9.313,4.39-6.47C180.71,91.304,197.932,107.417,196.856,141.744z"/>
<polygon fill="#3F1A0A" points="113.654,227.003 103.5,228.996 106.667,222.176 "/>
<polygon fill="none" stroke="#3F1A0A" stroke-width="0.346" stroke-linejoin="round" stroke-miterlimit="3.864" points="
	113.654,227.003 103.5,228.996 106.667,222.176 "/>
<polygon fill="#3F1A0A" points="122.892,230.201 128.84,237.555 130.502,230.983 "/>
<polygon fill="none" stroke="#3F1A0A" stroke-width="0.346" stroke-linejoin="round" stroke-miterlimit="3.864" points="
	122.892,230.201 128.84,237.555 130.502,230.983 "/>
<path fill="#FFFFFF" d="M128.84,237.555c0,0-15.727-3.266-25.341-8.56l10.154-1.992l4.453-14.18c0,0,6.431,2.63,10.148,3.092
	l-5.363,14.285L128.84,237.555z"/>
<path fill="none" stroke="#3F1A0A" stroke-width="0.346" stroke-linejoin="round" stroke-miterlimit="3.864" d="M128.84,237.555
	c0,0-15.727-3.266-25.341-8.56l10.154-1.992l4.453-14.18c0,0,6.431,2.63,10.148,3.092l-5.363,14.285L128.84,237.555z"/>
<polygon fill="#3F1A0A" points="185.986,227.132 196.145,228.772 192.825,221.83 "/>
<polygon fill="none" stroke="#3F1A0A" stroke-width="0.346" stroke-linejoin="round" stroke-miterlimit="3.864" points="
	185.986,227.132 196.145,228.772 192.825,221.83 "/>
<polygon fill="#3F1A0A" points="176.59,230.353 170.804,237.332 168.999,230.731 "/>
<polygon fill="none" stroke="#3F1A0A" stroke-width="0.346" stroke-linejoin="round" stroke-miterlimit="3.864" points="
	176.59,230.353 170.804,237.332 168.999,230.731 "/>
<path fill="#FFFFFF" d="M170.804,237.332c0,0,15.728-3.265,25.341-8.56l-10.159-1.64l-4.802-14.949c0,0-6.077,3.051-9.794,3.509
	l5.2,14.661L170.804,237.332z"/>
<path fill="none" stroke="#3F1A0A" stroke-width="0.346" stroke-linejoin="round" stroke-miterlimit="3.864" d="M170.804,237.332
	c0,0,15.728-3.265,25.341-8.56l-10.159-1.64l-4.802-14.949c0,0-6.077,3.051-9.794,3.509l5.2,14.661L170.804,237.332z"/>
<path fill="#FFFFFF" d="M150.007,212.799c7.18,0,14.122-1.01,20.697-2.889l5.889,20.449c-8.444,2.419-17.363,3.714-26.586,3.714
	c-9.412,0-18.511-1.35-27.112-3.866l6.038-20.405C135.622,211.752,142.691,212.799,150.007,212.799"/>
<path fill="none" stroke="#3F1A0A" stroke-width="0.346" stroke-linejoin="round" stroke-miterlimit="3.864" d="M150.007,212.799
	c7.18,0,14.122-1.01,20.697-2.889l5.889,20.449c-8.444,2.419-17.363,3.714-26.586,3.714c-9.412,0-18.511-1.35-27.112-3.866
	l6.038-20.405C135.622,211.752,142.691,212.799,150.007,212.799z"/>
<path fill="#FFFFFF" d="M58.282,167.316c-0.206-0.652-0.341-1.178-0.408-1.563c-0.544-3.144-0.168-6.009,1.895-6.097
	c2.062-0.089,3.871,1.157,4.282,3.479c0.24,1.37-0.431,2.204-1.02,2.653l15.494-4.981c6.828,21.133,22.768,38.17,43.188,46.479
	l-8.043,19.703c-26.203-10.674-46.651-32.543-55.403-59.666L58.282,167.316z"/>
<g>
	<defs>
		<path id="SVGID_5_" d="M58.282,167.316c-0.206-0.652-0.341-1.178-0.408-1.563c-0.544-3.144-0.168-6.009,1.895-6.097
			c2.062-0.089,3.871,1.157,4.282,3.479c0.24,1.37-0.431,2.204-1.02,2.653l15.494-4.981c6.828,21.133,22.768,38.17,43.188,46.479
			l-8.043,19.703c-26.203-10.674-46.651-32.543-55.403-59.666L58.282,167.316z"/>
	</defs>
	<clipPath id="SVGID_6_">
		<use xlink:href="#SVGID_5_"  overflow="visible"/>
	</clipPath>
	
		<rect x="49.918" y="155.707" transform="matrix(-0.9848 0.1736 -0.1736 -0.9848 168.7629 302.4785)" clip-path="url(#SVGID_6_)" fill="#3F1A0A" width="42.463" height="5.829"/>
</g>
<path fill="none" stroke="#3F1A0A" stroke-width="0.346" stroke-linejoin="round" stroke-miterlimit="3.864" d="M58.282,167.316
	c-0.206-0.652-0.341-1.178-0.408-1.563c-0.544-3.144-0.168-6.009,1.895-6.097c2.062-0.089,3.871,1.157,4.282,3.479
	c0.24,1.37-0.431,2.204-1.02,2.653l15.494-4.981c6.828,21.133,22.768,38.17,43.188,46.479l-8.043,19.703
	c-26.203-10.674-46.651-32.543-55.403-59.666L58.282,167.316z"/>
<path fill="#FFFFFF" d="M237.337,166.159c0,0-2.206-0.781-1.796-3.102c0.408-2.319,2.218-3.563,4.279-3.477
	c2.063,0.087,2.562,3.447,2.138,6.609c-0.082,0.614-0.355,1.638-0.822,2.974c-9.114,26.395-29.374,47.591-55.15,57.971l-7.95-19.739
	c20.084-8.084,35.867-24.594,42.975-45.153L237.337,166.159z"/>
<g>
	<defs>
		<path id="SVGID_7_" d="M237.337,166.159c0,0-2.206-0.781-1.796-3.102c0.408-2.319,2.218-3.563,4.279-3.477
			c2.063,0.087,2.562,3.447,2.138,6.609c-0.082,0.614-0.355,1.638-0.822,2.974c-9.114,26.395-29.374,47.591-55.15,57.971
			l-7.95-19.739c20.084-8.084,35.867-24.594,42.975-45.153L237.337,166.159z"/>
	</defs>
	<clipPath id="SVGID_8_">
		<use xlink:href="#SVGID_7_"  overflow="visible"/>
	</clipPath>
	
		<rect x="204.4" y="155.707" transform="matrix(0.9848 0.1736 -0.1736 0.9848 30.9714 -36.7699)" clip-path="url(#SVGID_8_)" fill="#3F1A0A" width="42.463" height="5.83"/>
</g>
<path fill="none" stroke="#3F1A0A" stroke-width="0.346" stroke-linejoin="round" stroke-miterlimit="3.864" d="M237.337,166.159
	c0,0-2.206-0.781-1.796-3.102c0.408-2.319,2.218-3.563,4.279-3.477c2.063,0.087,2.562,3.447,2.138,6.609
	c-0.082,0.614-0.355,1.638-0.822,2.974c-9.114,26.395-29.374,47.591-55.15,57.971l-7.95-19.739
	c20.084-8.084,35.867-24.594,42.975-45.153L237.337,166.159z"/>
<path fill="#FFFFFF" d="M62.191,166.26l24.985-4.405c0,0,1.724-1.303,1.322-3.576c-0.4-2.272-2.33-3.626-3.147-3.567l-25.909,4.96
	c0,0,3.684-0.455,4.5,2.981C64.617,165.49,62.191,166.26,62.191,166.26"/>
<path fill="none" stroke="#3F1A0A" stroke-width="0.346" stroke-linejoin="round" stroke-miterlimit="3.864" d="M62.191,166.26
	l24.985-4.405c0,0,1.724-1.303,1.322-3.576c-0.4-2.272-2.33-3.626-3.147-3.567l-25.909,4.96c0,0,3.684-0.455,4.5,2.981
	C64.617,165.49,62.191,166.26,62.191,166.26z"/>
<path fill="#FFFFFF" d="M237.397,166.185l-24.983-4.405c0,0-1.724-1.304-1.322-3.576c0.4-2.273,2.331-3.626,3.146-3.569
	l25.698,4.944c0,0-3.477-0.266-4.29,2.999C234.942,165.407,237.397,166.185,237.397,166.185"/>
<path fill="none" stroke="#3F1A0A" stroke-width="0.346" stroke-linejoin="round" stroke-miterlimit="3.864" d="M237.397,166.185
	l-24.983-4.405c0,0-1.724-1.304-1.322-3.576c0.4-2.273,2.331-3.626,3.146-3.569l25.698,4.944c0,0-3.477-0.266-4.29,2.999
	C234.942,165.407,237.397,166.185,237.397,166.185z"/>
<path d="M71.396,176.355c0.069-0.013,0.079-0.149,0.029-0.263c-0.022-0.052-0.05-0.093-0.081-0.09
	c-0.91,0.104-1.856-0.358-2.215-1.165l-0.309-0.695c-0.101-0.227-0.137-0.543,0.289-0.731l1.986-0.883l0.309,0.692
	c0.231,0.521,0.117,0.937-0.553,1.328c-0.031,0.022-0.028,0.126,0,0.188c0.031,0.068,0.104,0.141,0.139,0.123
	c0.435-0.191,0.685-0.356,1.092-0.537c0.409-0.18,0.714-0.266,1.147-0.458c0.043-0.021,0.031-0.118,0-0.188
	c-0.026-0.06-0.091-0.136-0.139-0.125c-0.736,0.233-1.099,0.031-1.329-0.489l-0.309-0.695l1.856-0.826
	c0.426-0.19,0.646,0.047,0.745,0.273l0.309,0.691c0.333,0.747,0.072,1.518-0.627,2.027c-0.021,0.02-0.034,0.088-0.007,0.148
	c0.053,0.12,0.146,0.185,0.201,0.149c0.465-0.312,1.071-0.654,1.547-0.896c-0.265-0.548-0.895-1.889-1.149-2.462
	c-0.255-0.571-0.839-1.955-1.066-2.51c-0.016-0.036-0.125-0.025-0.187,0c-0.069,0.032-0.141,0.104-0.125,0.139
	c0.246,0.786,0.11,0.992-0.352,1.197l-3.94,1.752c-0.458,0.206-0.704,0.169-1.114-0.542c-0.024-0.031-0.125-0.027-0.185,0
	c-0.07,0.031-0.141,0.104-0.127,0.141c0.262,0.537,0.937,1.984,1.191,2.558c0.255,0.57,0.848,1.972,1.076,2.534
	C70.081,176.596,70.819,176.435,71.396,176.355"/>
<path d="M77.015,180.576c-0.865,0.481-1.453,0.361-1.928-0.494c-0.096-0.175-0.175-0.338-0.225-0.484l1.871-1.036
	c0.398-0.22,0.608-0.273,0.944,0.333C78.074,179.61,77.794,180.143,77.015,180.576 M74.286,185.218
	c0.058-0.034,0.132-0.097,0.122-0.134c-0.278-0.659-0.186-0.962,0.019-1.336l1.281-2.338c0.693,0.646,1.411,0.824,2.118,0.435
	c0.847-0.473,1.095-1.532,0.244-3.068c-0.304-0.549-0.498-0.8-0.784-1.315c-0.285-0.515-0.464-0.937-0.768-1.486
	c-0.024-0.039-0.129-0.014-0.187,0.02c-0.067,0.035-0.136,0.107-0.112,0.148c0.308,0.752,0.189,0.969-0.252,1.213l-3.77,2.091
	c-0.441,0.243-0.688,0.229-1.154-0.437c-0.031-0.034-0.129-0.014-0.187,0.018c-0.065,0.037-0.136,0.107-0.113,0.15
	c0.304,0.548,0.558,0.907,0.843,1.422s0.441,0.895,0.747,1.442c0.019,0.034,0.119,0.022,0.186-0.016
	c0.059-0.032,0.124-0.111,0.113-0.149c-0.326-0.764-0.186-0.94,0.256-1.185l1.638-0.906c0.278,0.505,0.29,0.718-0.034,1.232
	l-1.445,2.313c0.134,0.242,0.407,0.634,0.541,0.874c0.1,0.182,0.35,0.729,0.506,1.011C74.114,185.259,74.215,185.246,74.286,185.218
	"/>
<path d="M84.759,189.067c0.055-0.041,0.117-0.134,0.096-0.164c-0.28-0.383-0.476-0.57-0.744-0.938
	c-0.268-0.371-0.414-0.652-0.671-1.006c-0.022-0.031-0.127,0-0.182,0.039c-0.062,0.043-0.117,0.131-0.093,0.163
	c0.402,0.716,0.323,0.961-0.086,1.257l-2.336,1.696c-1.159,0.845-2.13,0.786-2.805-0.145c-0.685-0.944-0.607-1.741,0.637-2.647
	l2.429-1.762c0.407-0.298,0.649-0.32,1.212,0.292c0.021,0.031,0.12,0.007,0.182-0.037c0.055-0.042,0.117-0.133,0.093-0.165
	c-0.368-0.505-0.67-0.84-1.013-1.315c-0.347-0.477-0.572-0.865-0.939-1.373c-0.024-0.031-0.13,0-0.184,0.041
	c-0.062,0.043-0.115,0.131-0.095,0.161c0.411,0.725,0.313,0.948-0.094,1.243l-2.352,1.708c-1.359,0.987-1.6,2.385-0.439,3.985
	c0.999,1.373,2.398,1.296,3.566,0.446l2.414-1.752c0.422-0.309,0.659-0.305,1.222,0.31C84.6,189.134,84.697,189.11,84.759,189.067"
	/>
<path d="M87.283,196.704c-1.27,1.145-2.712,1.346-3.649,0.234l-0.414-0.487c-0.163-0.197-0.304-0.465,0.043-0.777l3.464-3.119
	c0.347-0.314,0.599-0.145,0.779,0.039l0.44,0.462C88.972,194.125,88.589,195.529,87.283,196.704 M88.294,197.828
	c1.375-1.239,1.633-3.171-0.027-5.011c-0.287-0.319-0.905-0.965-1.197-1.288c-0.298-0.333-0.94-1.058-1.212-1.389
	c-0.026-0.029-0.127,0.014-0.177,0.059c-0.059,0.05-0.103,0.143-0.077,0.17c0.476,0.669,0.409,0.909,0.034,1.246l-3.195,2.881
	c-0.375,0.335-0.62,0.378-1.229-0.174c-0.035-0.022-0.129,0.013-0.179,0.059c-0.057,0.05-0.102,0.143-0.077,0.17
	c0.302,0.306,0.956,1.019,1.256,1.35c0.292,0.326,0.867,1.01,1.152,1.327C85.128,199.182,86.988,199.003,88.294,197.828"/>
<path d="M90.368,204.056c0.045-0.05,0.089-0.14,0.062-0.177c-0.541-0.62-0.488-0.856-0.144-1.226l2.94-3.154
	c0.344-0.367,0.577-0.436,1.238,0.05c0.035,0.033,0.121-0.017,0.172-0.072c0.046-0.048,0.096-0.144,0.062-0.177
	c-0.458-0.427-0.811-0.691-1.241-1.093c-0.431-0.402-0.725-0.74-1.19-1.175c-0.029-0.025-0.127,0.024-0.173,0.074
	c-0.05,0.055-0.087,0.15-0.06,0.177c0.539,0.632,0.487,0.868,0.144,1.239l-2.942,3.152c-0.342,0.367-0.573,0.436-1.236-0.065
	c-0.036-0.018-0.127,0.025-0.173,0.075c-0.053,0.055-0.089,0.151-0.062,0.175c0.467,0.435,0.826,0.704,1.255,1.106
	c0.431,0.401,0.717,0.734,1.178,1.162C90.23,204.161,90.316,204.109,90.368,204.056"/>
<path d="M100.224,206.329c0.343-0.59,0.721-1.178,1.068-1.679c-0.336-0.173-1.191-0.793-2.536-1.88
	c-1.349-1.095-2.083-1.761-2.328-2.06c-0.484,0.415-1.03,0.879-1.578,1.267c-0.051,0.032,0.002,0.147,0.084,0.213
	c0.044,0.038,0.108,0.065,0.146,0.047c0.709-0.454,1.859-0.438,2.383-0.015l0.17,0.138c0.235,0.19,0.264,0.323,0.084,0.544
	l-2.929,3.619c-0.316,0.39-0.544,0.474-1.241,0.021c-0.034-0.017-0.124,0.034-0.167,0.086c-0.048,0.059-0.077,0.156-0.048,0.182
	c0.488,0.394,0.871,0.643,1.331,1.014c0.45,0.363,0.766,0.683,1.253,1.078c0.029,0.023,0.118-0.026,0.167-0.086
	c0.041-0.052,0.072-0.149,0.05-0.183c-0.589-0.583-0.555-0.825-0.239-1.215l2.931-3.619c0.168-0.206,0.314-0.22,0.551-0.029
	l0.229,0.184c0.583,0.474,0.661,1.404,0.319,2.204c-0.01,0.028,0.031,0.097,0.074,0.135
	C100.095,206.369,100.196,206.378,100.224,206.329"/>
<path d="M102.195,212.983c0.036-0.057,0.063-0.15,0.031-0.187c-0.641-0.516-0.63-0.758-0.355-1.18l2.349-3.617
	c0.274-0.423,0.493-0.528,1.229-0.165c0.04,0.026,0.113-0.037,0.156-0.103c0.036-0.056,0.069-0.158,0.029-0.186
	c-0.525-0.34-0.917-0.539-1.411-0.858c-0.495-0.323-0.845-0.604-1.377-0.951c-0.031-0.021-0.12,0.048-0.158,0.103
	c-0.041,0.063-0.06,0.165-0.027,0.185c0.641,0.53,0.63,0.773,0.357,1.194l-2.349,3.617c-0.275,0.423-0.493,0.53-1.231,0.151
	c-0.04-0.014-0.122,0.046-0.158,0.103c-0.042,0.063-0.062,0.163-0.029,0.186c0.532,0.345,0.934,0.548,1.428,0.869
	c0.493,0.32,0.833,0.597,1.36,0.94C102.078,213.109,102.153,213.046,102.195,212.983"/>
<path d="M110.838,214.417c-0.855,1.545-2.048,2.342-3.318,1.638c-1.271-0.705-1.228-2.136-0.369-3.681
	c0.852-1.538,2.072-2.392,3.346-1.686C111.767,211.392,111.69,212.882,110.838,214.417 M112.159,215.148
	c0.922-1.66,0.519-3.696-1.475-4.802c-1.993-1.104-3.933-0.367-4.855,1.293c-0.925,1.672-0.488,3.641,1.509,4.748
	C109.331,217.49,111.235,216.819,112.159,215.148"/>
<path d="M139.885,224.525c0.255-1.816-2.786-2.493-2.601-3.818c0.081-0.573,0.543-0.923,1.191-0.831
	c0.695,0.1,1.069,0.639,1.159,1.642c0.003,0.057,0.095,0.089,0.17,0.1c0.066,0.009,0.173-0.014,0.17-0.054
	c0.007-0.524,0.052-1.049,0.098-1.588c-0.666-0.17-0.836-0.386-1.531-0.483c-1.404-0.198-2.376,0.587-2.525,1.641
	c-0.256,1.834,2.815,2.428,2.611,3.877c-0.088,0.632-0.479,1.018-1.259,0.906c-0.837-0.117-1.428-0.824-1.561-2.012
	c-0.01-0.059-0.082-0.088-0.149-0.097c-0.073-0.01-0.182,0.012-0.187,0.048c-0.027,0.457-0.118,1.25-0.172,1.762
	c0.714,0.168,1.142,0.553,1.997,0.673C138.66,226.482,139.702,225.823,139.885,224.525"/>
<path d="M147.12,222.379c-0.07,1.004-0.513,1.631-1.471,1.562c-0.314-0.021-0.564-0.086-0.546-0.381l0.152-2.177
	c0.033-0.446,0.133-0.659,0.795-0.613C146.696,220.817,147.201,221.232,147.12,222.379 M148.621,222.561
	c0.086-1.223-0.618-2.054-2.465-2.182c-0.625-0.045-0.914-0.016-1.501-0.059c-0.587-0.04-1.067-0.122-1.692-0.165
	c-0.04-0.005-0.083,0.098-0.088,0.165c-0.005,0.075,0.026,0.173,0.063,0.177c0.809,0.151,0.927,0.34,0.898,0.784l-0.308,4.389
	c-0.036,0.501-0.184,0.701-1.005,0.729c-0.037,0.007-0.082,0.1-0.085,0.164c-0.006,0.076,0.023,0.172,0.063,0.176
	c0.625,0.044,1.072,0.029,1.66,0.068c0.587,0.041,1.02,0.12,1.646,0.163c0.047,0.004,0.083-0.088,0.088-0.166
	c0.005-0.065-0.017-0.162-0.063-0.176c-0.811-0.141-0.917-0.358-0.883-0.861l0.106-1.535c0.273,0.059,0.507,0.104,0.888,0.129
	C147.458,224.47,148.54,223.725,148.621,222.561"/>
<path d="M157.13,224.954c0.019-0.068-0.108-0.13-0.231-0.123c-0.057,0-0.104,0.012-0.111,0.039
	c-0.246,0.885-1.029,1.587-1.911,1.617l-0.761,0.026c-0.245,0.01-0.553-0.076-0.57-0.541l-0.075-2.175l0.759-0.026
	c0.568-0.019,0.912,0.246,1.025,1.012c0.01,0.037,0.106,0.071,0.173,0.07c0.076-0.004,0.169-0.043,0.167-0.083
	c-0.016-0.476-0.074-0.767-0.09-1.213c-0.016-0.447,0.021-0.761,0.006-1.236c-0.002-0.049-0.099-0.072-0.174-0.069
	c-0.066,0-0.159,0.033-0.168,0.083c-0.059,0.771-0.383,1.03-0.951,1.049l-0.761,0.025l-0.072-2.032
	c-0.016-0.464,0.285-0.58,0.53-0.587l0.761-0.026c0.817-0.029,1.434,0.502,1.644,1.341c0.01,0.027,0.068,0.063,0.135,0.061
	c0.135-0.006,0.228-0.063,0.215-0.133c-0.115-0.546-0.206-1.235-0.25-1.768c-0.609,0.041-2.088,0.122-2.715,0.143
	c-0.626,0.021-2.127,0.046-2.728,0.048c-0.036,0.002-0.072,0.108-0.068,0.173c0.001,0.076,0.044,0.169,0.082,0.169
	c0.819,0.065,0.96,0.271,0.977,0.774l0.151,4.309c0.018,0.503-0.11,0.716-0.922,0.831c-0.038,0.012-0.072,0.108-0.07,0.173
	c0.002,0.076,0.045,0.17,0.084,0.169c0.596-0.042,2.188-0.124,2.815-0.146c0.628-0.022,2.146-0.046,2.755-0.05
	C156.865,226.266,156.99,225.519,157.13,224.954"/>
<path d="M164.26,223.941c-0.256-1.816-3.365-1.629-3.552-2.954c-0.081-0.572,0.268-1.035,0.916-1.126
	c0.695-0.099,1.204,0.319,1.566,1.256c0.017,0.057,0.114,0.063,0.19,0.05c0.065-0.01,0.163-0.06,0.149-0.098
	c-0.14-0.506-0.24-1.021-0.344-1.554c-0.687,0.021-0.911-0.139-1.608-0.041c-1.4,0.196-2.12,1.219-1.973,2.273
	c0.26,1.833,3.375,1.559,3.578,3.007c0.089,0.629-0.179,1.109-0.96,1.218c-0.838,0.118-1.6-0.398-2.054-1.506
	c-0.027-0.053-0.104-0.06-0.171-0.052c-0.076,0.011-0.174,0.063-0.169,0.1c0.104,0.447,0.232,1.234,0.323,1.739
	c0.733-0.036,1.248,0.218,2.103,0.098C163.622,226.159,164.442,225.239,164.26,223.941"/>
<path d="M204.87,208.145c-0.043-0.062-0.123-0.107-0.159-0.098c-0.747,0.409-0.948,0.306-1.259-0.091l-2.646-3.411
	c-0.313-0.398-0.308-0.656,0.292-1.191c0.031-0.022,0-0.115-0.045-0.177c-0.037-0.057-0.129-0.118-0.159-0.098
	c-0.342,0.24-0.603,0.48-0.931,0.71c-0.273,0.189-0.625,0.378-0.976,0.625l1.206,5l-4.294-2.837
	c-0.295,0.206-0.697,0.546-0.962,0.731c-0.227,0.158-0.642,0.392-0.915,0.58c-0.028,0.021-0.01,0.136,0.028,0.191
	c0.044,0.062,0.121,0.121,0.152,0.101c0.709-0.379,0.999-0.327,1.25,0.112l2.115,3.781c0.25,0.439,0.223,0.702-0.405,1.261
	c-0.034,0.034-0.024,0.13,0.019,0.192c0.045,0.063,0.122,0.125,0.153,0.103c0.365-0.256,0.619-0.491,1-0.759
	c0.366-0.256,0.688-0.422,1.085-0.7c0.038-0.027,0.016-0.127-0.028-0.19c-0.036-0.054-0.106-0.122-0.145-0.108
	c-0.718,0.399-0.972,0.335-1.236-0.108l-2.136-3.547l4.811,3.161c0.029,0.023,0.115,0.012,0.215-0.059
	c0.086-0.059,0.143-0.146,0.129-0.183l-1.404-5.813l2.644,3.461c0.304,0.4,0.314,0.649-0.29,1.174
	c-0.034,0.036-0.002,0.131,0.036,0.186c0.044,0.063,0.129,0.117,0.166,0.093c0.516-0.36,0.838-0.646,1.32-0.983
	s0.899-0.571,1.413-0.931C204.946,208.301,204.915,208.208,204.87,208.145"/>
<path d="M208.228,196.851c-0.045-0.05-0.143-0.104-0.17-0.079c-0.354,0.319-0.519,0.532-0.858,0.838
	c-0.339,0.304-0.603,0.48-0.929,0.772c-0.027,0.024,0.014,0.127,0.058,0.177c0.052,0.057,0.143,0.102,0.17,0.077
	c0.674-0.478,0.926-0.424,1.263-0.048l1.933,2.146c0.958,1.064,1.003,2.036,0.147,2.806c-0.868,0.779-1.669,0.786-2.698-0.357
	l-2.007-2.231c-0.339-0.374-0.387-0.611,0.164-1.236c0.028-0.024-0.007-0.12-0.058-0.175c-0.043-0.052-0.143-0.104-0.17-0.077
	c-0.466,0.419-0.768,0.753-1.205,1.146c-0.438,0.396-0.802,0.657-1.268,1.076c-0.027,0.026,0.014,0.131,0.059,0.179
	c0.052,0.057,0.145,0.104,0.172,0.077c0.678-0.482,0.909-0.41,1.244-0.036l1.947,2.16c1.124,1.25,2.537,1.342,4.007,0.021
	c1.264-1.137,1.04-2.521,0.072-3.592l-1.995-2.218c-0.351-0.388-0.371-0.625,0.18-1.248
	C208.315,197.002,208.28,196.906,208.228,196.851"/>
<path d="M214.94,189.615c-0.063-0.059-0.154-0.102-0.186-0.065c-0.293,0.324-0.504,0.646-0.815,0.991
	c-0.298,0.331-0.558,0.533-0.887,0.901c-0.026,0.027,0.025,0.125,0.082,0.177c0.059,0.051,0.139,0.085,0.179,0.058
	c0.611-0.535,0.918-0.58,1.293-0.243l2.639,2.378l-6.404,0.087c-0.286,0.316-0.365,0.476-0.596,0.729
	c-0.184,0.204-0.46,0.441-0.676,0.682c-0.031,0.034,0.027,0.127,0.075,0.172c0.057,0.052,0.146,0.093,0.174,0.065
	c0.646-0.566,0.992-0.536,1.411-0.136l2.983,2.903c0.362,0.354,0.408,0.61-0.074,1.275c-0.025,0.043,0.013,0.129,0.07,0.177
	c0.063,0.059,0.151,0.086,0.177,0.059c0.292-0.323,0.486-0.609,0.797-0.957c0.299-0.331,0.582-0.574,0.906-0.936
	c0.026-0.027-0.021-0.118-0.077-0.17c-0.057-0.05-0.139-0.086-0.177-0.059c-0.611,0.552-0.899,0.561-1.267,0.215l-2.849-2.642
	l6.969-0.129c0.066-0.004,0.132-0.034,0.208-0.118c0.082-0.092,0.093-0.174,0.057-0.206l-4.018-3.759
	c-0.369-0.343-0.401-0.604,0.081-1.28C215.035,189.75,214.996,189.665,214.94,189.615"/>
<path d="M222,185.112c1.399,0.982,1.919,2.345,1.047,3.506l-0.381,0.512c-0.154,0.204-0.385,0.401-0.766,0.135l-3.821-2.676
	c-0.381-0.267-0.274-0.551-0.134-0.768l0.349-0.53C219.103,184.049,220.559,184.106,222,185.112 M222.867,183.875
	c-1.518-1.063-3.456-0.875-4.879,1.154c-0.244,0.35-0.733,1.097-0.984,1.455c-0.257,0.366-0.818,1.154-1.081,1.494
	c-0.021,0.03,0.043,0.122,0.096,0.157c0.063,0.045,0.163,0.069,0.186,0.038c0.546-0.614,0.793-0.604,1.205-0.314l3.524,2.468
	c0.414,0.288,0.509,0.519,0.11,1.235c-0.014,0.036,0.041,0.122,0.096,0.162c0.063,0.041,0.162,0.064,0.184,0.034
	c0.23-0.36,0.776-1.161,1.034-1.526c0.25-0.359,0.786-1.073,1.031-1.422C224.896,186.657,224.303,184.883,222.867,183.875"/>
<path d="M228.629,179.944c-0.057-0.03-0.154-0.053-0.186-0.017c-0.469,0.673-0.714,0.68-1.153,0.436l-3.771-2.091
	c-0.439-0.243-0.563-0.453-0.251-1.212c0.024-0.043-0.045-0.113-0.111-0.151c-0.059-0.032-0.163-0.058-0.188-0.017
	c-0.304,0.549-0.474,0.954-0.759,1.47c-0.285,0.515-0.544,0.882-0.853,1.438c-0.018,0.034,0.055,0.116,0.113,0.149
	c0.066,0.036,0.168,0.05,0.185,0.017c0.486-0.676,0.727-0.683,1.168-0.439l3.771,2.09c0.441,0.245,0.563,0.455,0.237,1.219
	c-0.009,0.038,0.055,0.116,0.113,0.151c0.064,0.034,0.168,0.048,0.187,0.014c0.308-0.557,0.484-0.969,0.768-1.485
	c0.285-0.515,0.539-0.874,0.843-1.422C228.767,180.051,228.697,179.982,228.629,179.944"/>
<path fill="#FFFFFF" d="M133.788,82.407l0.862,0.361c-1.612,6.942,3.699,11.461,5.522,12.554c3.863,2.313,5.06,3.48,6.317,6
	c-0.139-2.52,0-3.78-2.633-5.756c-5.454-4.092-6.936-7.222-8.366-11.815c-1.313-4.213,0.063-9.15,5.892-13.208
	c0,0-1.119,5.939,1.578,10.374c1.976,3.251,3.174,4.528,6.082,9.357c2.206,3.662,2.615,5.671,1.907,8.92
	c2.294-2.482,3.721-5.085-0.488-11.348c-1.281-1.905-2.809-3.952-4.165-6.281c-1.367-2.349-2.57-4.996-3.178-8.086
	c-1.343-6.827,5.984-15.682,14.56-15.773l1.599-0.017l-1.315,0.814c-7.861,4.87-7.984,12.826-3.932,18.21
	c3.975,5.279,6.041,9.91,6.409,14.605c0.36,4.634-1.566,7.007-5.549,10.422c3.799-1.342,6.752-4.184,7.83-6.567
	c2.628-5.812-0.396-12.039-5.294-17.332c-4.572-4.94-4.561-9.059-2.697-12.936l0.712-1.487l0.222,1.605
	c0.575,4.182,3.848,8.498,8.67,12.297c9.676,7.623,10.924,20.659-3.264,27.036l-20.915,0.04
	C129.216,100.956,125.899,91.331,133.788,82.407"/>
<path fill="none" stroke="#3F1A0A" stroke-width="0.346" stroke-linejoin="round" stroke-miterlimit="3.864" d="M133.788,82.407
	l0.862,0.361c-1.612,6.942,3.699,11.461,5.522,12.554c3.863,2.313,5.06,3.48,6.317,6c-0.139-2.52,0-3.78-2.633-5.756
	c-5.454-4.092-6.936-7.222-8.366-11.815c-1.313-4.213,0.063-9.15,5.892-13.208c0,0-1.119,5.939,1.578,10.374
	c1.976,3.251,3.174,4.528,6.082,9.357c2.206,3.662,2.615,5.671,1.907,8.92c2.294-2.482,3.721-5.085-0.488-11.348
	c-1.281-1.905-2.809-3.952-4.165-6.281c-1.367-2.349-2.57-4.996-3.178-8.086c-1.343-6.827,5.984-15.682,14.56-15.773l1.599-0.017
	l-1.315,0.814c-7.861,4.87-7.984,12.826-3.932,18.21c3.975,5.279,6.041,9.91,6.409,14.605c0.36,4.634-1.566,7.007-5.549,10.422
	c3.799-1.342,6.752-4.184,7.83-6.567c2.628-5.812-0.396-12.039-5.294-17.332c-4.572-4.94-4.561-9.059-2.697-12.936l0.712-1.487
	l0.222,1.605c0.575,4.182,3.848,8.498,8.67,12.297c9.676,7.623,10.924,20.659-3.264,27.036l-20.915,0.04
	C129.216,100.956,125.899,91.331,133.788,82.407z"/>
<path fill="#FFFFFF" d="M158.876,119.921c-0.268,0.735-0.947,2.409-2.591,2.845v46.686c0,0-0.118,0.958-0.818,0.934h-2.141v8.883
	c1.718,0.685,2.851,1.689,2.851,3.033c0,1.705-1.826,3.15-4.352,3.655c0.641,0.271,1.046,0.677,1.046,1.124
	c0,0.488-0.476,0.921-1.209,1.19v2.997c0.908,0.292,1.511,0.8,1.511,1.37c0,0.521-0.494,1.212-1.267,1.507
	c0.942,0.371,1.771,0.985,1.62,3.135c-0.252,3.623-3.536,6.809-3.536,6.809s-3.44-2.393-3.798-6.539
	c-0.187-2.134,0.722-2.906,1.705-3.368c-0.819-0.297-1.353-1.004-1.353-1.543c0-0.57,0.603-1.078,1.509-1.37v-2.997
	c-0.733-0.27-1.207-0.702-1.207-1.19c0-0.447,0.403-0.853,1.046-1.124c-2.527-0.505-4.353-1.95-4.353-3.655
	c0-1.344,1.133-2.349,2.852-3.033v-8.883h-2.295c-0.702-0.055-0.665-0.902-0.665-0.902v-46.717c-1.645-0.436-2.322-2.11-2.59-2.845
	c-8.339-2.694-14.193-8.56-14.193-15.929c0-0.167,0.067-0.331,0.074-0.498h46.321c0.011,0.22,0.022,0.278,0.022,0.498
	C173.067,111.361,167.214,117.227,158.876,119.921"/>
<g>
	<defs>
		<path id="SVGID_9_" d="M158.876,119.921c-0.268,0.735-0.947,2.409-2.591,2.845v46.686c0,0-0.118,0.958-0.818,0.934h-2.141v8.883
			c1.718,0.685,2.851,1.689,2.851,3.033c0,1.705-1.826,3.15-4.352,3.655c0.641,0.271,1.046,0.677,1.046,1.124
			c0,0.488-0.476,0.921-1.209,1.19v2.997c0.908,0.292,1.511,0.8,1.511,1.37c0,0.521-0.494,1.212-1.267,1.507
			c0.942,0.371,1.771,0.985,1.62,3.135c-0.252,3.623-3.536,6.809-3.536,6.809s-3.44-2.393-3.798-6.539
			c-0.187-2.134,0.722-2.906,1.705-3.368c-0.819-0.297-1.353-1.004-1.353-1.543c0-0.57,0.603-1.078,1.509-1.37v-2.997
			c-0.733-0.27-1.207-0.702-1.207-1.19c0-0.447,0.403-0.853,1.046-1.124c-2.527-0.505-4.353-1.95-4.353-3.655
			c0-1.344,1.133-2.349,2.852-3.033v-8.883h-2.295c-0.702-0.055-0.665-0.902-0.665-0.902v-46.717
			c-1.645-0.436-2.322-2.11-2.59-2.845c-8.339-2.694-14.193-8.56-14.193-15.929c0-0.167,0.067-0.331,0.074-0.498h46.321
			c0.011,0.22,0.022,0.278,0.022,0.498C173.067,111.361,167.214,117.227,158.876,119.921"/>
	</defs>
	<clipPath id="SVGID_10_">
		<use xlink:href="#SVGID_9_"  overflow="visible"/>
	</clipPath>
	
		<path clip-path="url(#SVGID_10_)" fill="none" stroke="#3F1A0A" stroke-width="0.346" stroke-linejoin="round" stroke-miterlimit="1" d="
		M123.23,203.11h38.036 M123.23,201.624h38.036 M123.23,200.137h38.036 M123.23,198.648h38.036 M123.23,197.164h38.036
		 M123.23,195.676h38.036 M123.23,192.702h38.036 M123.23,189.726h38.036 M123.23,186.753h38.036 M123.23,185.266h38.036
		 M123.23,183.778h38.036 M123.23,182.292h38.036 M123.23,180.806h38.036 M123.23,177.831h38.036 M123.23,176.342h38.036
		 M123.23,174.856h38.036 M123.23,173.37h38.036 M123.23,171.882h38.036 M123.23,168.908h38.036 M123.23,167.422h38.036
		 M123.23,165.936h38.036 M123.23,164.448h38.036 M123.23,162.96h38.036 M123.23,161.472h38.036 M123.23,159.986h38.036
		 M123.23,158.499h38.036 M123.23,157.012h38.036 M123.23,155.525h38.036 M123.23,154.037h38.036 M123.23,152.552h38.036
		 M123.23,151.064h38.036 M123.23,149.577h38.036 M123.23,148.09h38.036 M123.23,146.603h38.036 M123.23,145.116h38.036
		 M123.23,143.628h38.036 M123.23,142.141h38.036 M123.23,140.654h38.036 M123.23,139.167h38.036 M123.23,137.682h38.036
		 M123.23,136.194h38.036 M123.23,134.707h38.036 M123.23,133.22h38.036 M123.23,131.732h38.036 M123.23,130.246h38.036
		 M123.23,128.758h38.036 M123.23,127.27h38.036 M123.23,125.784h38.036 M123.23,124.296h38.036 M123.23,121.323h38.036
		 M123.23,118.349h38.036 M123.23,116.862h38.036 M123.23,115.374h38.036 M123.23,113.887h38.036 M123.23,112.4h38.036
		 M123.23,110.913h38.036 M123.23,109.425h38.036 M123.23,107.94h38.036 M123.23,106.453h38.036 M123.23,104.965h38.036
		 M123.23,103.479h38.036"/>
	<path clip-path="url(#SVGID_10_)" fill="#FFFFFF" d="M160.875,120.381c-0.245,0.735-0.867,1.577-2.378,2.013v46.433
		c0,0-0.107,0.956-0.75,0.933h-1.967v9.328c1.577,0.688,2.619,1.87,2.619,3.214c0,1.705-1.677,3.15-3.996,3.655
		c0.587,0.271,0.959,0.677,0.959,1.124c0,0.488-0.436,0.921-1.108,1.19v2.997c0.832,0.292,1.387,0.8,1.387,1.37
		c0,0.521-0.455,0.985-1.164,1.28c0.865,0.367,1.626,1.212,1.487,3.361c-0.23,3.623-5.243,6.809-5.243,6.809
		s-1.054-1.469-1.984-5.521c-0.56-2.435,0.439-4.151,1.341-4.615c-0.75-0.295-1.089-0.211-1.089-0.75
		c0-0.569,0.256-1.643,1.089-1.935l0.053-2.997c-0.673-0.27-1.107-0.702-1.107-1.19c0-0.447,0.466-0.853,1.055-1.124
		c-2.321-0.505-3.637-1.95-3.637-3.655c0-1.344,0.584-2.525,2.163-3.214v-9.328h-1.296c-0.646-0.052-0.609-0.901-0.609-0.901
		v-46.464c-1.511-0.437-1.746-1.278-1.991-2.013c-7.461-4.962-7.513-9.057-8.108-16.389c-0.012-0.166-0.139-0.331-0.132-0.498
		h37.416c0.009,0.22,0.02,0.278,0.02,0.498C173.902,111.361,168.53,117.688,160.875,120.381"/>
</g>
<path fill="none" stroke="#3F1A0A" stroke-width="0.346" stroke-linejoin="round" stroke-miterlimit="1" d="M158.876,119.921
	c-0.268,0.735-0.947,2.409-2.591,2.845v46.686c0,0-0.118,0.958-0.818,0.934h-2.141v8.883c1.718,0.685,2.851,1.689,2.851,3.033
	c0,1.705-1.826,3.15-4.352,3.655c0.641,0.271,1.046,0.677,1.046,1.124c0,0.488-0.476,0.921-1.209,1.19v2.997
	c0.908,0.292,1.511,0.8,1.511,1.37c0,0.521-0.494,1.212-1.267,1.507c0.942,0.371,1.771,0.985,1.62,3.135
	c-0.252,3.623-3.536,6.809-3.536,6.809s-3.44-2.393-3.798-6.539c-0.187-2.134,0.722-2.906,1.705-3.368
	c-0.819-0.297-1.353-1.004-1.353-1.543c0-0.57,0.603-1.078,1.509-1.37v-2.997c-0.733-0.27-1.207-0.702-1.207-1.19
	c0-0.447,0.403-0.853,1.046-1.124c-2.527-0.505-4.353-1.95-4.353-3.655c0-1.344,1.133-2.349,2.852-3.033v-8.883h-2.295
	c-0.702-0.055-0.665-0.902-0.665-0.902v-46.717c-1.645-0.436-2.322-2.11-2.59-2.845c-8.339-2.694-14.193-8.56-14.193-15.929
	c0-0.167,0.067-0.331,0.074-0.498h46.321c0.011,0.22,0.022,0.278,0.022,0.498C173.067,111.361,167.214,117.227,158.876,119.921z"/>
<path fill="none" stroke="#3F1A0A" stroke-width="0.346" stroke-miterlimit="3.864" d="M147.898,194.179h4.009 M148,191.213h3.606
	 M147.937,188.238h3.916 M147.595,186.015h4.509 M146.392,179.314h7.087 M146.392,170.396h7.015"/>
<path fill="none" stroke="#3F1A0A" stroke-width="0.346" stroke-linejoin="round" stroke-miterlimit="1" d="M154.532,122.751v47.507
	 M151.788,122.766v47.547 M147.991,122.665v47.648 M145.125,122.875v47.469 M143.242,122.8h13.22 M140.562,119.837h18.611"/>
<g>
	<path fill="none" d="M150,11.896c-74.332,0-134.945,58.719-137.985,132.302l0,0c-0.081,1.929-0.119,3.86-0.119,5.803
		c0,26.42,7.418,51.107,20.287,72.091c24.28,39.599,67.962,66.011,117.816,66.011c49.852,0,93.532-26.41,117.813-66.008h0.001
		c12.869-20.983,20.289-45.674,20.289-72.094c0-1.944-0.038-3.878-0.118-5.809C284.942,70.615,224.331,11.896,150,11.896z"/>
	<path fill="#3F1A0A" d="M1.335,144.197C0.52,145.878,0,147.758,0,150.001c0,9.6,9.531,12.525,11.035,22.008
		c1.5,9.485-6.659,15.211-3.693,24.344c2.969,9.133,12.936,8.968,17.295,17.522c1.426,2.801,1.744,5.537,1.724,8.22
		c-0.042,5.53-1.511,10.845,2.287,16.071c5.643,7.77,15.073,4.532,21.864,11.321c6.788,6.792,3.552,16.222,11.32,21.863
		c7.769,5.646,15.736-0.347,24.292,4.014c8.555,4.357,8.392,14.324,17.523,17.291c9.133,2.968,14.858-5.191,24.342-3.691
		C137.474,290.468,140.399,300,150,300c9.601,0,12.525-9.531,22.009-11.035c9.485-1.5,15.211,6.659,24.344,3.691
		c9.133-2.967,8.969-12.934,17.522-17.291c8.557-4.36,16.524,1.633,24.292-4.014c7.769-5.642,4.532-15.071,11.32-21.863
		c6.792-6.789,16.222-3.552,21.864-11.321c3.798-5.227,2.327-10.541,2.287-16.065l-4.369-0.004l4.369-0.002
		c-0.021-2.683,0.297-5.419,1.726-8.22c4.357-8.555,14.324-8.39,17.293-17.522c2.966-9.133-5.193-14.858-3.693-24.344
		c1.504-9.483,11.036-12.408,11.036-22.008c0-2.243-0.521-4.123-1.338-5.807c-2.678-5.52-8.546-8.935-9.698-16.204
		c-1.5-9.484,6.659-15.21,3.693-24.343c-2.969-9.132-12.936-8.967-17.293-17.523c-4.36-8.556,1.633-16.523-4.013-24.291
		c-5.643-7.769-15.072-4.532-21.864-11.321c-6.788-6.792-3.552-16.221-11.32-21.864c-7.768-5.645-15.735,0.348-24.292-4.011
		c-8.554-4.358-8.39-14.325-17.522-17.293c-9.133-2.967-14.858,5.193-24.344,3.692C162.526,9.531,159.601,0,150,0
		c-9.602,0-12.526,9.531-22.012,11.035c-9.483,1.501-15.209-6.659-24.342-3.692c-9.131,2.968-8.968,12.935-17.523,17.293
		c-8.556,4.359-16.523-1.634-24.292,4.011c-7.768,5.644-4.532,15.073-11.32,21.864c-6.792,6.789-16.221,3.552-21.864,11.321
		c-5.645,7.768,0.348,15.735-4.01,24.291c-4.359,8.556-14.326,8.391-17.295,17.523c-2.966,9.133,5.193,14.858,3.693,24.343
		c-1.152,7.27-7.02,10.685-9.7,16.203 M267.814,222.095L267.814,222.095c-24.281,39.598-67.962,66.008-117.813,66.008
		c-49.854,0-93.537-26.412-117.816-66.011c-12.869-20.984-20.287-45.671-20.287-72.091c0-1.943,0.038-3.874,0.119-5.803l0,0
		C15.056,70.615,75.669,11.896,150,11.896c74.33,0,134.941,58.719,137.984,132.296c0.08,1.93,0.118,3.864,0.118,5.809
		C288.103,176.421,280.683,201.112,267.814,222.095z"/>
</g>
</svg>