<?xml version="1.0" encoding="utf-8"?>
<!-- Generator: Adobe Illustrator 22.1.0, SVG Export Plug-In . SVG Version: 6.00 Build 0)  -->
<svg version="1.1" id="Layer_1" xmlns="http://www.w3.org/2000/svg" xmlns:xlink="http://www.w3.org/1999/xlink" x="0px" y="0px"
	 width="300.48px" height="300.5px" viewBox="0 0 300.48 300.5" style="enable-background:new 0 0 300.48 300.5;"
	 xml:space="preserve">
<style type="text/css">
	.st0{fill:#CC0033;}
	.st1{fill:#FFFFFF;}
</style>
<path class="st0" d="M299.84,154.23c-0.01,0.07-0.05,0.09-0.07,0.1c-0.01,0-0.02,0.01-0.03,0.01c-0.07,0-0.14-0.09-0.3-0.29
	c-0.19-0.23-0.47-0.59-0.81-0.85c-0.95-0.73-1.79-1.24-2.58-1.58l-0.01,0c-2.92-1.64-4.36-3.14-3.67-6.35c0-0.07,0.05-0.09,0.07-0.1
	c0.08-0.03,0.15,0.05,0.33,0.28c0.19,0.24,0.47,0.59,0.82,0.86c0.57,0.43,1.47,1.05,2.55,1.5
	C299.01,149.42,300.54,150.99,299.84,154.23z M296.14,141.42c-1.16-0.43-2.14-1.06-2.62-1.39c-0.36-0.25-0.65-0.6-0.85-0.82
	c-0.19-0.22-0.26-0.29-0.34-0.27c-0.02,0.01-0.07,0.03-0.07,0.1c-0.55,3.25,0.96,4.68,3.94,6.18l0.01,0
	c0.81,0.31,1.68,0.79,2.65,1.47c0.35,0.25,0.65,0.59,0.84,0.82c0.17,0.19,0.24,0.27,0.31,0.27c0.01,0,0.02,0,0.03-0.01
	c0.02-0.01,0.07-0.03,0.07-0.1C300.68,144.41,299.08,142.91,296.14,141.42z M295.6,135.05c-1.1-0.35-2.06-0.88-2.68-1.27
	c-0.36-0.23-0.67-0.56-0.87-0.78c-0.21-0.22-0.29-0.29-0.37-0.26c-0.02,0.01-0.07,0.03-0.07,0.1c-0.41,3.26,1.16,4.63,4.2,6l0.01,0
	c0.81,0.27,1.7,0.71,2.72,1.35c0.36,0.23,0.67,0.56,0.88,0.78c0.17,0.18,0.25,0.26,0.32,0.26c0.01,0,0.03,0,0.04-0.01
	c0.02-0.01,0.07-0.03,0.07-0.1C300.26,137.83,298.61,136.4,295.6,135.05z M294.79,128.71c-1.2-0.32-2.22-0.86-2.73-1.16
	c-0.38-0.22-0.71-0.54-0.92-0.75c-0.21-0.21-0.29-0.27-0.36-0.23c-0.02,0.01-0.07,0.04-0.06,0.11c-0.27,3.28,1.36,4.57,4.46,5.81
	l0.01,0c0.84,0.23,1.75,0.63,2.77,1.23c0.37,0.22,0.69,0.53,0.9,0.73c0.18,0.18,0.26,0.25,0.34,0.25c0.01,0,0.03,0,0.04-0.01
	c0.02-0.01,0.07-0.04,0.06-0.11C299.56,131.28,297.85,129.93,294.79,128.71z M293.69,122.41c-1.23-0.28-2.26-0.77-2.77-1.03
	c-0.38-0.2-0.72-0.5-0.94-0.69c-0.23-0.2-0.31-0.27-0.39-0.23c-0.02,0.01-0.06,0.04-0.06,0.11c-0.12,3.29,1.56,4.51,4.71,5.6l0.01,0
	c1.1,0.25,2.14,0.75,2.82,1.11c0.38,0.2,0.72,0.5,0.94,0.7c0.18,0.16,0.26,0.23,0.33,0.23c0.02,0,0.03,0,0.05-0.01
	c0.02-0.01,0.06-0.04,0.06-0.11C298.58,124.77,296.81,123.5,293.69,122.41z M289.51,115.25c-0.39-0.19-0.74-0.47-0.97-0.66
	c-0.23-0.19-0.31-0.25-0.39-0.21c-0.02,0.01-0.06,0.05-0.05,0.11c0.02,3.29,1.75,4.44,4.94,5.4l0.01,0
	c0.86,0.16,1.83,0.49,2.87,0.99c0.39,0.18,0.74,0.47,0.97,0.66c0.18,0.15,0.27,0.22,0.34,0.22c0.02,0,0.03-0.01,0.05-0.01
	c0.02-0.01,0.06-0.04,0.05-0.11c-0.02-3.32-1.85-4.52-5.01-5.47C291.1,115.94,290.04,115.49,289.51,115.25z M287.84,109.19
	c-0.4-0.17-0.77-0.44-1.01-0.62c-0.24-0.18-0.32-0.24-0.39-0.19c-0.02,0.01-0.06,0.05-0.05,0.11c0.16,3.29,1.95,4.36,5.18,5.18
	l0.01,0c0.87,0.12,1.85,0.41,2.9,0.86c0.4,0.17,0.76,0.43,0.99,0.61c0.19,0.14,0.29,0.21,0.36,0.21c0.02,0,0.04-0.01,0.06-0.02
	c0.02-0.01,0.06-0.05,0.05-0.11c-0.16-3.31-2.04-4.43-5.25-5.25C289.55,109.83,288.51,109.47,287.84,109.19z M285.91,103.22
	c-0.42-0.15-0.79-0.41-1.04-0.57c-0.24-0.16-0.32-0.22-0.39-0.16c-0.02,0.01-0.06,0.05-0.04,0.11c0.3,3.28,2.13,4.27,5.39,4.94
	l0.01,0c0.87,0.08,1.86,0.33,2.94,0.73c0.41,0.15,0.78,0.4,1.03,0.57c0.18,0.13,0.28,0.19,0.34,0.19c0.02,0,0.04-0.01,0.06-0.02
	c0.02-0.01,0.06-0.05,0.04-0.11c-0.3-3.31-2.23-4.34-5.46-5.01C287.63,103.78,286.58,103.46,285.91,103.22z M283.71,97.33
	c-0.41-0.13-0.79-0.37-1.04-0.52c-0.26-0.16-0.35-0.22-0.42-0.16c-0.02,0.01-0.06,0.05-0.04,0.12c0.45,3.27,2.32,4.18,5.61,4.7h0.01
	c0.88,0.05,1.88,0.25,2.97,0.6c0.42,0.13,0.8,0.37,1.05,0.52c0.19,0.12,0.28,0.17,0.35,0.17c0.02,0,0.04-0.01,0.06-0.02
	c0.02-0.01,0.06-0.05,0.04-0.12c-0.45-3.29-2.42-4.24-5.68-4.77C285.45,97.81,284.39,97.54,283.71,97.33z M281.26,91.54
	c-0.43-0.11-0.82-0.33-1.08-0.48c-0.25-0.14-0.34-0.19-0.41-0.13c-0.02,0.01-0.05,0.05-0.03,0.12c0.59,3.24,2.5,4.07,5.81,4.46
	l0.01,0c0.86,0.01,1.84,0.16,2.99,0.47c0.42,0.11,0.81,0.33,1.07,0.48c0.19,0.11,0.29,0.16,0.36,0.16c0.03,0,0.05-0.01,0.07-0.02
	c0.02-0.02,0.05-0.06,0.03-0.12c-0.59-3.27-2.6-4.13-5.88-4.51C282.94,91.95,281.82,91.69,281.26,91.54z M278.57,85.87
	c-0.42-0.1-0.83-0.3-1.09-0.43c-0.27-0.13-0.35-0.18-0.42-0.12c-0.02,0.01-0.05,0.06-0.03,0.12c0.73,3.22,2.67,3.96,6,4.2l0.01,0
	l0.01,0c0.84-0.04,1.83,0.08,3.01,0.34c0.42,0.09,0.82,0.29,1.09,0.42c0.19,0.1,0.29,0.15,0.36,0.15c0.03,0,0.05-0.01,0.07-0.03
	c0.02-0.01,0.05-0.05,0.03-0.12c-0.74-3.23-2.78-4.01-6.07-4.25C280.26,86.21,279.13,86,278.57,85.87z M275.63,80.32
	c-0.43-0.08-0.84-0.26-1.11-0.38c-0.27-0.12-0.37-0.16-0.43-0.1c-0.02,0.02-0.05,0.06-0.02,0.12c0.87,3.18,2.84,3.83,6.18,3.93
	l0.01,0c0.86-0.07,1.85-0.01,3.02,0.2c0.43,0.08,0.84,0.26,1.11,0.38c0.18,0.08,0.29,0.13,0.35,0.13c0.03,0,0.06-0.01,0.08-0.03
	c0.02-0.02,0.05-0.06,0.02-0.12c-0.88-3.2-2.95-3.88-6.25-3.98C277.35,80.58,276.2,80.42,275.63,80.32z M275.41,74.94
	c-1.23,0.15-2.38,0.04-2.96-0.03c-0.43-0.06-0.85-0.22-1.13-0.33s-0.37-0.15-0.43-0.08c-0.01,0.02-0.05,0.06-0.02,0.12
	c0.97,3.02,2.87,3.66,5.99,3.66c0.11,0,0.23,0,0.35,0l0.01,0c0.86-0.11,1.85-0.08,3.03,0.08c0.43,0.06,0.84,0.22,1.12,0.33
	c0.18,0.07,0.29,0.11,0.36,0.11c0.04,0,0.06-0.01,0.08-0.03c0.02-0.02,0.05-0.06,0.02-0.12c-0.98-3.05-2.97-3.71-6.07-3.71
	C275.64,74.94,275.53,74.94,275.41,74.94z M272,69.54c-1.25,0.21-2.39,0.15-2.97,0.1c-0.43-0.04-0.85-0.18-1.13-0.28
	c-0.28-0.1-0.38-0.13-0.44-0.06c-0.01,0.02-0.04,0.06-0.01,0.13c1.15,3.09,3.17,3.57,6.5,3.37h0.01c0.87-0.14,1.89-0.16,3.03-0.06
	c0.44,0.04,0.87,0.19,1.15,0.29c0.17,0.06,0.27,0.09,0.34,0.09c0.04,0,0.06-0.01,0.09-0.04c0.01-0.02,0.04-0.06,0.01-0.12
	C277.42,69.85,275.29,69.35,272,69.54z M268.35,64.29c-1.14,0.25-2.24,0.27-2.95,0.24c-0.44-0.02-0.87-0.15-1.16-0.24
	c-0.28-0.09-0.38-0.11-0.43-0.04c-0.01,0.02-0.04,0.06-0.01,0.12c1.27,3.03,3.31,3.42,6.64,3.09l0.01,0
	c0.85-0.19,1.87-0.25,3.01-0.19c0.44,0.02,0.87,0.15,1.16,0.23c0.17,0.05,0.27,0.08,0.34,0.08c0.04,0,0.07-0.01,0.1-0.04
	c0.01-0.02,0.04-0.06,0-0.12C273.77,64.37,271.63,63.96,268.35,64.29z M264.48,59.21c-1.21,0.31-2.36,0.36-2.93,0.36
	c-0.43,0-0.86-0.11-1.15-0.18c-0.3-0.07-0.4-0.1-0.46-0.02c-0.01,0.02-0.04,0.06,0,0.12c1.07,2.26,2.52,2.98,4.6,2.98
	c0.66,0,1.37-0.07,2.16-0.19l0.01,0c0.83-0.22,1.81-0.32,3-0.32c0.44,0.01,0.88,0.11,1.17,0.19c0.28,0.07,0.38,0.1,0.43,0.02
	c0.01-0.02,0.04-0.07,0-0.12C269.9,59.05,267.74,58.73,264.48,59.21z M260.4,54.31c-1.11,0.34-2.21,0.45-2.93,0.48
	c-0.03,0-0.07,0-0.11,0c-0.39,0-0.79-0.08-1.05-0.14c-0.29-0.06-0.39-0.08-0.44,0c-0.01,0.02-0.04,0.07,0,0.12
	c1.1,2.09,2.48,2.79,4.38,2.79c0.75,0,1.58-0.11,2.51-0.29l0.01,0c0.84-0.26,1.84-0.41,2.99-0.45c0.05,0,0.09,0,0.13,0
	c0.39,0,0.77,0.08,1.03,0.13c0.29,0.06,0.39,0.08,0.44,0c0.01-0.02,0.03-0.07-0.01-0.12C265.8,53.9,263.63,53.68,260.4,54.31z
	 M258.58,52.45c0.8-0.29,1.77-0.48,2.97-0.58c0.44-0.04,0.89,0.03,1.19,0.08c0.28,0.05,0.38,0.06,0.43-0.02
	c0.01-0.02,0.03-0.07-0.01-0.12c-1.67-2.87-3.86-2.99-7.06-2.23c-1.1,0.39-2.18,0.55-2.89,0.62c-0.43,0.04-0.87-0.03-1.17-0.08
	c-0.3-0.05-0.4-0.06-0.44,0.02c-0.01,0.02-0.03,0.07,0.01,0.12c1.12,1.92,2.43,2.6,4.17,2.6C256.59,52.85,257.52,52.7,258.58,52.45
	L258.58,52.45z M254.21,47.81c1-0.42,2.1-0.6,2.94-0.71c0.42-0.05,0.87,0,1.17,0.03c0.3,0.04,0.4,0.05,0.45-0.04
	c0.01-0.02,0.03-0.07-0.01-0.12c-1.8-2.79-3.98-2.81-7.15-1.92c-1.18,0.48-2.3,0.67-2.87,0.74c-0.43,0.05-0.87,0-1.17-0.03
	c-0.29-0.03-0.39-0.05-0.44,0.04c-0.01,0.02-0.03,0.07,0.02,0.12c1.14,1.77,2.4,2.42,4.01,2.42c0.9,0,1.91-0.21,3.06-0.53
	L254.21,47.81z M249.63,43.36c0.99-0.46,2.07-0.69,2.91-0.84c0.43-0.07,0.88-0.04,1.17-0.02c0.3,0.02,0.41,0.03,0.45-0.06
	c0.01-0.02,0.03-0.07-0.02-0.12c-1.92-2.71-4.1-2.64-7.23-1.6c-1.08,0.49-2.14,0.74-2.84,0.87c-0.42,0.07-0.87,0.05-1.16,0.02
	c-0.3-0.02-0.4-0.03-0.45,0.06c-0.01,0.02-0.02,0.07,0.02,0.12c1.15,1.63,2.37,2.24,3.86,2.24
	C247.31,44.03,248.38,43.77,249.63,43.36L249.63,43.36z M244.88,39.12c0.97-0.5,2.04-0.78,2.86-0.96c0.43-0.09,0.89-0.08,1.18-0.07
	c0.29,0.01,0.39,0.01,0.42-0.07c0.01-0.02,0.02-0.07-0.03-0.12c-2.03-2.62-4.21-2.46-7.29-1.29c-1.12,0.58-2.23,0.87-2.8,1
	c-0.42,0.09-0.87,0.07-1.16,0.07c-0.31-0.01-0.41-0.01-0.44,0.08c-0.01,0.02-0.02,0.07,0.02,0.12c1.17,1.5,2.35,2.08,3.74,2.08
	C242.41,39.94,243.55,39.62,244.88,39.12L244.88,39.12z M239.92,35.08c0.76-0.43,1.72-0.8,2.83-1.08c0.42-0.11,0.87-0.12,1.16-0.13
	c0.3-0.01,0.4-0.01,0.43-0.1c0.01-0.02,0.02-0.07-0.03-0.12c-2.14-2.53-4.31-2.27-7.35-0.97c-1,0.58-2.04,0.92-2.74,1.11
	c-0.41,0.11-0.86,0.12-1.15,0.13c-0.3,0.01-0.41,0.01-0.44,0.1c-0.01,0.02-0.02,0.07,0.03,0.12c1.16,1.37,2.31,1.92,3.61,1.92
	C237.35,36.06,238.53,35.69,239.92,35.08L239.92,35.08z M234.81,31.28c0.95-0.6,2.04-0.98,2.77-1.21c0.41-0.13,0.86-0.16,1.16-0.18
	c0.3-0.02,0.4-0.03,0.43-0.11c0.01-0.02,0.02-0.07-0.04-0.11c-2.25-2.44-4.41-2.08-7.38-0.65c-1.05,0.67-2.13,1.06-2.69,1.23
	c-0.41,0.13-0.85,0.15-1.15,0.17c-0.3,0.02-0.41,0.03-0.44,0.11c-0.01,0.02-0.02,0.07,0.03,0.12c1.16,1.25,2.27,1.76,3.5,1.76
	C232.14,32.41,233.36,31.98,234.81,31.28L234.81,31.28z M229.54,27.69c0.71-0.49,1.6-0.93,2.72-1.33c0.41-0.15,0.86-0.19,1.16-0.22
	c0.29-0.03,0.39-0.04,0.41-0.13c0.01-0.02,0.01-0.07-0.04-0.11c-2.36-2.34-4.49-1.89-7.39-0.33c-1.1,0.76-2.21,1.19-2.64,1.34
	c-0.41,0.15-0.86,0.2-1.16,0.23c-0.29,0.03-0.39,0.04-0.41,0.13c-0.01,0.02-0.01,0.07,0.04,0.11c1.15,1.14,2.23,1.62,3.38,1.62
	C226.78,29,228.04,28.5,229.54,27.69L229.54,27.69z M218.3,23.82c-0.4,0.16-0.85,0.23-1.14,0.27c-0.29,0.04-0.39,0.06-0.41,0.15
	c-0.01,0.02-0.01,0.08,0.05,0.11c1.14,1.04,2.18,1.48,3.27,1.48c1.23,0,2.52-0.57,4.04-1.47l0.01-0.01c0.68-0.52,1.55-1,2.65-1.45
	c0.4-0.16,0.84-0.23,1.13-0.27c0.3-0.05,0.4-0.06,0.43-0.15c0.01-0.02,0.01-0.08-0.05-0.11c-2.45-2.23-4.57-1.68-7.4,0
	C219.89,23.11,218.84,23.59,218.3,23.82z M212.71,20.96c-0.39,0.18-0.83,0.27-1.12,0.33c-0.29,0.06-0.39,0.08-0.41,0.17
	c0,0.02-0.01,0.07,0.05,0.11c1.12,0.93,2.13,1.33,3.16,1.33c1.29,0,2.59-0.64,4.15-1.66l0.01-0.01c0.66-0.55,1.51-1.06,2.6-1.57
	c0.39-0.18,0.82-0.26,1.11-0.32c0.3-0.06,0.4-0.08,0.42-0.17c0-0.02,0.01-0.07-0.05-0.11c-2.55-2.12-4.64-1.49-7.39,0.32
	C214.27,20.18,213.24,20.71,212.71,20.96z M207.01,18.35c-0.38,0.2-0.82,0.31-1.11,0.38c-0.29,0.07-0.39,0.09-0.4,0.19
	c0,0.02,0,0.07,0.06,0.11c1.09,0.83,2.07,1.19,3.04,1.19c1.35,0,2.67-0.71,4.24-1.84l0.01-0.01c0.65-0.58,1.5-1.15,2.52-1.67
	c0.38-0.2,0.82-0.3,1.11-0.37c0.29-0.07,0.39-0.1,0.4-0.19c0-0.02,0-0.08-0.06-0.11c-2.64-2-4.7-1.28-7.37,0.66
	C208.49,17.54,207.51,18.09,207.01,18.35z M201.2,15.99c-0.38,0.22-0.81,0.34-1.1,0.43c-0.28,0.08-0.37,0.11-0.38,0.2
	c0,0.02,0,0.08,0.06,0.1c1.06,0.74,2.01,1.07,2.92,1.07c1.4,0,2.74-0.78,4.33-2.03l0.01-0.01c0.76-0.76,1.71-1.35,2.44-1.78
	c0.38-0.22,0.81-0.34,1.1-0.42c0.28-0.08,0.38-0.11,0.39-0.2c0-0.02,0-0.08-0.06-0.1c-2.73-1.89-4.75-1.08-7.34,0.97
	C202.66,15.11,201.7,15.71,201.2,15.99z M195.3,13.89c-0.37,0.24-0.8,0.38-1.08,0.47c-0.28,0.09-0.37,0.12-0.38,0.22
	c0,0.02,0,0.07,0.06,0.1c1.03,0.65,1.94,0.94,2.8,0.94c1.47,0,2.81-0.85,4.4-2.22l0.01-0.01c0.58-0.63,1.35-1.25,2.36-1.89
	c0.37-0.23,0.8-0.38,1.09-0.47c0.28-0.09,0.37-0.12,0.37-0.21c0-0.02-0.01-0.08-0.07-0.1c-2.81-1.77-4.8-0.87-7.29,1.28
	C196.72,12.94,195.78,13.59,195.3,13.89z M189.31,12.05c-0.36,0.25-0.78,0.41-1.06,0.51c-0.28,0.11-0.37,0.14-0.37,0.23
	c0,0.02,0.01,0.07,0.07,0.1c0.99,0.56,1.86,0.82,2.68,0.82c1.54,0,2.88-0.92,4.47-2.42l0.01-0.01c0.73-0.86,1.65-1.55,2.27-1.99
	c0.35-0.24,0.77-0.4,1.04-0.51c0.29-0.11,0.39-0.15,0.39-0.24c0-0.02-0.01-0.08-0.07-0.1c-2.88-1.64-4.83-0.66-7.23,1.61
	C190.77,10.94,189.9,11.63,189.31,12.05z M183.24,10.47c-0.35,0.27-0.77,0.45-1.04,0.57c-0.27,0.12-0.36,0.16-0.35,0.25
	c0,0.02,0.01,0.07,0.07,0.09c0.94,0.48,1.77,0.71,2.53,0.71c1.61,0,2.95-0.99,4.53-2.61l0.01-0.01c0.69-0.88,1.58-1.61,2.2-2.08
	c0.34-0.26,0.75-0.44,1.02-0.56c0.27-0.12,0.37-0.16,0.36-0.25c0-0.02-0.01-0.07-0.07-0.1c-2.94-1.51-4.84-0.44-7.15,1.92
	C184.56,9.41,183.69,10.13,183.24,10.47z M177.11,9.16c-0.33,0.28-0.74,0.48-1.01,0.61c-0.27,0.13-0.36,0.18-0.35,0.27
	c0,0.02,0.02,0.07,0.08,0.09c0.89,0.41,1.67,0.6,2.39,0.6c1.69,0,3.03-1.06,4.59-2.81l0.01-0.01c0.5-0.71,1.19-1.43,2.1-2.18
	c0.33-0.28,0.74-0.48,1-0.61c0.27-0.13,0.36-0.18,0.35-0.27c0-0.02-0.01-0.07-0.08-0.09c-3.01-1.38-4.86-0.23-7.06,2.23
	C178.42,8,177.56,8.79,177.11,9.16z M170.93,8.12c-0.32,0.3-0.72,0.51-0.98,0.65c-0.26,0.14-0.35,0.19-0.34,0.28
	c0,0.02,0.02,0.07,0.08,0.09c0.83,0.34,1.56,0.5,2.23,0.5c1.78,0,3.1-1.13,4.64-3.01l0.01-0.01c0.47-0.72,1.12-1.46,2-2.26
	c0.32-0.3,0.72-0.51,0.98-0.65c0.26-0.14,0.35-0.19,0.34-0.28c0-0.02-0.02-0.07-0.08-0.09c-3.07-1.25-4.87-0.02-6.95,2.53
	C172.18,6.92,171.36,7.73,170.93,8.12z M164.71,7.35c-0.31,0.3-0.69,0.53-0.95,0.69c-0.26,0.15-0.34,0.21-0.33,0.3
	c0,0.02,0.02,0.07,0.09,0.09c0.77,0.28,1.45,0.41,2.07,0.41c1.87,0,3.19-1.2,4.68-3.21l0.01-0.01c0.55-0.95,1.31-1.76,1.91-2.36
	c0.31-0.31,0.7-0.55,0.96-0.7c0.25-0.15,0.33-0.2,0.31-0.29c0-0.02-0.02-0.07-0.09-0.09c-3.11-1.12-4.86,0.19-6.84,2.84
	C166.07,5.81,165.46,6.59,164.71,7.35z M158.46,6.86c-0.29,0.32-0.66,0.56-0.91,0.73c-0.25,0.17-0.33,0.22-0.32,0.31
	c0.01,0.02,0.02,0.07,0.09,0.09c0.7,0.21,1.31,0.32,1.88,0.32c1.98,0,3.28-1.27,4.74-3.42l0.01-0.01c0.4-0.76,1.01-1.58,1.8-2.44
	c0.29-0.32,0.67-0.57,0.91-0.73c0.25-0.16,0.33-0.22,0.31-0.31c0-0.02-0.02-0.07-0.09-0.09c-3.17-0.98-4.85,0.41-6.71,3.13
	C159.58,5.58,158.84,6.44,158.46,6.86z M152.2,6.63c-0.27,0.32-0.63,0.58-0.87,0.75c-0.25,0.18-0.34,0.25-0.32,0.34
	c0.01,0.02,0.03,0.07,0.1,0.08c0.62,0.16,1.17,0.24,1.68,0.24c2.11,0,3.39-1.34,4.8-3.63l0-0.01c0.37-0.78,0.94-1.62,1.69-2.51
	c0.28-0.34,0.65-0.6,0.89-0.78c0.24-0.17,0.31-0.23,0.29-0.32c-0.01-0.02-0.03-0.07-0.09-0.08c-3.21-0.85-4.84,0.61-6.57,3.42
	C153.27,5.28,152.57,6.19,152.2,6.63z M145.08,7.49c-0.23,0.18-0.31,0.25-0.28,0.33c0.01,0.02,0.03,0.07,0.1,0.07
	c0.54,0.12,1.02,0.17,1.47,0.17c2.24,0,3.5-1.41,4.85-3.83l0-0.01c0.33-0.79,0.85-1.64,1.58-2.59c0.26-0.34,0.61-0.61,0.84-0.8
	c0.24-0.19,0.32-0.25,0.29-0.34c-0.01-0.02-0.03-0.07-0.1-0.08c-3.22-0.7-4.79,0.83-6.4,3.71c-0.49,1.16-1.15,2.09-1.5,2.55
	C145.66,7.02,145.31,7.3,145.08,7.49z M138.86,7.84c-0.23,0.2-0.3,0.26-0.27,0.35c0.01,0.02,0.03,0.07,0.1,0.07
	c0.44,0.07,0.85,0.11,1.23,0.11c2.39,0,3.64-1.48,4.93-4.05l0-0.01c0.39-1.06,1.02-2.02,1.47-2.65c0.25-0.35,0.58-0.65,0.81-0.84
	c0.22-0.19,0.3-0.26,0.27-0.35c-0.01-0.02-0.03-0.07-0.1-0.07c-3.27-0.56-4.76,1.04-6.24,3.98C140.63,5.56,140,6.53,139.67,7
	C139.42,7.35,139.09,7.65,138.86,7.84z M132.66,8.47c-0.22,0.2-0.29,0.27-0.25,0.36c0.01,0.03,0.04,0.07,0.1,0.07c0,0,0,0,0,0
	c0.34,0.04,0.67,0.07,0.97,0.07c2.57,0,3.79-1.55,5.01-4.27l0-0.01c0.26-0.82,0.71-1.71,1.35-2.71c0.23-0.37,0.56-0.68,0.78-0.89
	c0.21-0.2,0.28-0.26,0.25-0.35c-0.01-0.02-0.03-0.07-0.1-0.07c0,0,0,0,0,0c-3.28-0.41-4.71,1.24-6.07,4.24
	c-0.35,1.11-0.88,2.07-1.27,2.68C133.2,7.96,132.87,8.27,132.66,8.47z M126.49,9.37c-0.21,0.21-0.28,0.29-0.24,0.37
	c0.01,0.02,0.04,0.06,0.1,0.06c0,0,0.01,0,0.01,0c0.23,0.02,0.46,0.03,0.67,0.03c2.78,0,3.98-1.61,5.12-4.48l0-0.01
	c0.23-0.83,0.64-1.76,1.23-2.77c0.22-0.37,0.52-0.69,0.73-0.9c0.21-0.22,0.28-0.3,0.25-0.38c-0.01-0.02-0.04-0.06-0.1-0.06
	c0,0-0.01,0-0.01,0c-0.22-0.02-0.44-0.03-0.65-0.03c-2.83,0-4.08,1.69-5.22,4.55c-0.32,1.19-0.86,2.22-1.16,2.72
	C127.01,8.84,126.7,9.16,126.49,9.37z M120.36,10.56c-0.19,0.22-0.26,0.29-0.21,0.37c0.01,0.02,0.04,0.05,0.09,0.05
	c0.01,0,0.01,0,0.02,0c0.12,0,0.23,0.01,0.34,0.01c3.02,0,4.19-1.68,5.25-4.72l0-0.01c0.25-1.1,0.75-2.13,1.11-2.81
	c0.2-0.39,0.5-0.72,0.7-0.95c0.19-0.22,0.26-0.3,0.22-0.38c-0.01-0.02-0.05-0.06-0.11-0.06c-0.11,0-0.23-0.01-0.34-0.01
	c-3.06,0-4.29,1.76-5.34,4.77c-0.25,1.12-0.7,2.13-1.04,2.77C120.86,9.99,120.56,10.33,120.36,10.56z M114.3,11.98
	c-0.19,0.23-0.25,0.31-0.2,0.39c0.01,0.02,0.04,0.05,0.09,0.05c0.01,0,0.01,0,0.02,0c3.28-0.02,4.42-1.75,5.38-4.95l0-0.01
	c0.21-1.12,0.66-2.17,0.98-2.86c0.18-0.39,0.46-0.73,0.65-0.96c0.19-0.24,0.26-0.32,0.21-0.4c-0.01-0.02-0.05-0.05-0.11-0.05
	c-3.31,0.02-4.5,1.85-5.45,5.01c-0.23,1.26-0.68,2.3-0.92,2.81C114.77,11.4,114.49,11.75,114.3,11.98z M108.12,14.08
	c0.01,0.02,0.04,0.05,0.09,0.05c0.01,0,0.02,0,0.03,0c3.28-0.15,4.35-1.94,5.17-5.18l0-0.01c0.14-1.07,0.53-2.11,0.85-2.9
	c0.17-0.4,0.44-0.77,0.61-1.01c0.17-0.24,0.23-0.31,0.18-0.39c-0.01-0.02-0.06-0.06-0.11-0.05c-3.3,0.17-4.42,2.04-5.23,5.24
	c-0.16,1.18-0.52,2.2-0.79,2.85c-0.17,0.4-0.44,0.77-0.61,1.01C108.13,13.92,108.07,14,108.12,14.08z M102.23,16.04
	c0.01,0.02,0.04,0.05,0.08,0.05c0.01,0,0.02,0,0.03-0.01c3.26-0.3,4.25-2.13,4.93-5.39l0-0.01c0.1-1.11,0.46-2.21,0.72-2.94
	c0.15-0.41,0.4-0.78,0.57-1.03c0.17-0.25,0.22-0.33,0.17-0.41c-0.01-0.02-0.05-0.05-0.11-0.04c-3.3,0.3-4.33,2.23-5,5.46
	c-0.12,1.27-0.47,2.35-0.67,2.89c-0.15,0.41-0.4,0.79-0.57,1.04C102.23,15.88,102.17,15.96,102.23,16.04z M96.5,18.3
	c0.01,0,0.02,0,0.03-0.01c3.25-0.44,4.16-2.31,4.7-5.61v-0.01c0.05-1.11,0.36-2.23,0.6-2.97c0.13-0.42,0.37-0.8,0.52-1.05
	c0.16-0.25,0.21-0.34,0.15-0.41c-0.01-0.02-0.04-0.05-0.12-0.04c-3.29,0.45-4.23,2.42-4.75,5.68c-0.07,1.27-0.37,2.36-0.55,2.91
	c-0.13,0.41-0.37,0.8-0.52,1.05c-0.16,0.26-0.21,0.34-0.15,0.42C96.43,18.28,96.45,18.3,96.5,18.3z M90.79,20.77
	c0.01,0,0.02,0,0.04-0.01c3.24-0.59,4.06-2.5,4.44-5.81l0-0.01c0.01-0.85,0.16-1.83,0.47-2.99c0.11-0.42,0.33-0.82,0.48-1.08
	c0.14-0.25,0.19-0.34,0.13-0.41c-0.01-0.02-0.05-0.05-0.12-0.03c-3.26,0.59-4.12,2.6-4.51,5.87c-0.01,1.17-0.23,2.24-0.41,2.93
	c-0.12,0.42-0.33,0.82-0.48,1.08c-0.14,0.26-0.19,0.35-0.13,0.42C90.72,20.75,90.75,20.77,90.79,20.77z M85.2,23.49
	c0.01,0,0.03,0,0.04-0.01c3.2-0.73,3.94-2.68,4.19-6l0-0.01c-0.03-0.86,0.08-1.85,0.34-3.01c0.09-0.43,0.3-0.83,0.43-1.1
	c0.13-0.26,0.17-0.35,0.11-0.42c-0.01-0.02-0.05-0.05-0.12-0.03c-3.22,0.73-3.99,2.78-4.24,6.07c0.05,1.24-0.16,2.38-0.29,2.94
	c-0.09,0.43-0.3,0.84-0.43,1.11c-0.13,0.26-0.17,0.35-0.11,0.42C85.13,23.47,85.16,23.49,85.2,23.49z M79.73,26.45
	c0.01,0,0.03,0,0.05-0.01c3.17-0.86,3.83-2.84,3.93-6.18l0-0.01c-0.07-0.86,0-1.85,0.21-3.02c0.08-0.42,0.26-0.83,0.38-1.1
	c0.12-0.28,0.17-0.37,0.1-0.44c-0.02-0.02-0.06-0.05-0.12-0.02c-3.19,0.87-3.87,2.95-3.97,6.24c0.1,1.29-0.06,2.41-0.16,2.96
	c-0.07,0.43-0.26,0.85-0.38,1.12c-0.12,0.27-0.16,0.35-0.09,0.42C79.66,26.43,79.69,26.45,79.73,26.45z M74.39,29.64
	c0.02,0,0.03,0,0.05-0.01c3.12-1,3.69-3,3.66-6.34l0-0.01c-0.11-0.85-0.09-1.84,0.07-3.02c0.06-0.44,0.23-0.86,0.34-1.14
	c0.11-0.27,0.14-0.36,0.08-0.43c-0.02-0.01-0.06-0.05-0.12-0.01c-3.16,1.01-3.75,3.11-3.7,6.41c0.14,1.14,0.06,2.24-0.02,2.96
	c-0.06,0.43-0.23,0.85-0.34,1.13c-0.11,0.27-0.14,0.36-0.08,0.43C74.33,29.62,74.36,29.64,74.39,29.64z M69.2,33.07
	c0.02,0,0.03,0,0.06-0.02c3.08-1.14,3.56-3.16,3.37-6.49v-0.01c-0.18-1.11-0.12-2.26-0.06-3.03c0.04-0.43,0.19-0.86,0.29-1.14
	s0.13-0.38,0.06-0.44c-0.02-0.01-0.07-0.05-0.12-0.01c-3.1,1.15-3.61,3.27-3.42,6.57c0.22,1.23,0.16,2.38,0.11,2.96
	c-0.04,0.43-0.18,0.86-0.28,1.14c-0.1,0.28-0.13,0.38-0.06,0.44C69.15,33.05,69.17,33.07,69.2,33.07z M64.37,35.1
	c-0.02,0.43-0.15,0.86-0.23,1.14c-0.09,0.29-0.11,0.38-0.04,0.44c0.01,0.01,0.03,0.02,0.06,0.02c0.02,0,0.04-0.01,0.06-0.02
	c3.03-1.27,3.42-3.31,3.08-6.63l0-0.01c-0.18-0.86-0.25-1.88-0.18-3.02c0.02-0.43,0.15-0.86,0.23-1.15
	c0.08-0.29,0.11-0.38,0.04-0.44c-0.02-0.01-0.06-0.04-0.12,0c-3.05,1.28-3.46,3.42-3.13,6.71C64.4,33.36,64.4,34.52,64.37,35.1z
	 M59.43,38.96c0,0.43-0.11,0.86-0.18,1.15c-0.07,0.3-0.1,0.4-0.02,0.45c0.01,0.01,0.03,0.02,0.06,0.02c0.02,0,0.04-0.01,0.06-0.02
	c2.96-1.41,3.27-3.46,2.79-6.76l0-0.01c-0.29-1.08-0.32-2.24-0.32-3.01c0-0.43,0.11-0.87,0.18-1.16c0.07-0.29,0.1-0.38,0.02-0.43
	c-0.02-0.01-0.07-0.04-0.12,0c-2.99,1.41-3.3,3.58-2.83,6.84C59.39,37.22,59.43,38.38,59.43,38.96z M54.67,43.03
	c0.02,0.43-0.07,0.87-0.13,1.16c-0.06,0.29-0.08,0.39,0,0.44c0.01,0.01,0.03,0.02,0.06,0.02c0.02,0,0.04-0.01,0.06-0.02
	c2.91-1.54,3.12-3.6,2.5-6.87l0-0.01c-0.33-1.08-0.42-2.23-0.45-3c-0.02-0.43,0.07-0.87,0.13-1.16c0.06-0.3,0.08-0.4,0-0.45
	c-0.02-0.01-0.07-0.03-0.12,0c-2.93,1.55-3.15,3.72-2.54,6.96C54.54,41.3,54.64,42.45,54.67,43.03z M50.08,47.3
	c0.04,0.43-0.03,0.88-0.08,1.17c-0.05,0.29-0.06,0.39,0.02,0.44c0.01,0.01,0.03,0.01,0.05,0.01c0.02,0,0.04-0.01,0.07-0.02
	c2.83-1.66,2.95-3.73,2.19-6.98l0-0.01c-0.29-0.81-0.48-1.78-0.58-2.97c-0.04-0.43,0.03-0.88,0.08-1.17
	c0.05-0.29,0.06-0.39-0.02-0.44c-0.02-0.01-0.07-0.03-0.12,0.01c-2.85,1.67-2.98,3.85-2.22,7.06C49.89,45.57,50.03,46.72,50.08,47.3
	z M45.69,51.76c0.05,0.43,0,0.88-0.03,1.18c-0.03,0.3-0.05,0.4,0.04,0.44c0.01,0.01,0.03,0.01,0.05,0.01c0.02,0,0.05-0.01,0.07-0.03
	c2.76-1.78,2.79-3.85,1.89-7.07l0-0.01c-0.33-0.8-0.56-1.76-0.71-2.94c-0.06-0.43-0.01-0.88,0.03-1.17c0.03-0.3,0.04-0.39-0.04-0.44
	c-0.02-0.01-0.07-0.03-0.12,0.01c-2.78,1.8-2.81,3.98-1.91,7.15C45.38,49.96,45.59,51.04,45.69,51.76z M41.49,56.42
	c0.08,0.43,0.05,0.88,0.02,1.18c-0.02,0.29-0.03,0.39,0.06,0.43c0.01,0.01,0.03,0.01,0.05,0.01c0.02,0,0.05-0.01,0.07-0.03
	c2.68-1.89,2.62-3.97,1.58-7.14l0-0.01c-0.37-0.79-0.65-1.77-0.83-2.91c-0.07-0.43-0.04-0.87-0.02-1.17c0.02-0.3,0.03-0.4-0.06-0.44
	c-0.02-0.01-0.07-0.03-0.12,0.02c-2.7,1.92-2.64,4.1-1.6,7.23C41.16,54.74,41.4,55.85,41.49,56.42z M37.51,61.25
	c0.09,0.42,0.08,0.87,0.07,1.17c-0.01,0.3-0.01,0.41,0.08,0.44c0.01,0,0.02,0.01,0.04,0.01c0.02,0,0.05-0.01,0.08-0.03
	c2.59-2.02,2.44-4.09,1.26-7.21l0-0.01c-0.4-0.78-0.72-1.75-0.96-2.87c-0.09-0.42-0.08-0.87-0.07-1.17c0.01-0.3,0.01-0.39-0.07-0.43
	c-0.02-0.01-0.07-0.02-0.12,0.02c-2.62,2.04-2.46,4.21-1.29,7.29C37.09,59.59,37.38,60.7,37.51,61.25z M33.73,66.25
	c0.11,0.42,0.12,0.87,0.12,1.17c0.01,0.3,0.01,0.4,0.09,0.43c0.01,0,0.02,0.01,0.04,0.01c0.02,0,0.05-0.01,0.08-0.04
	c2.5-2.13,2.27-4.19,0.95-7.25l0-0.01c-0.55-0.97-0.88-2.07-1.09-2.82c-0.11-0.43-0.12-0.88-0.12-1.18c0-0.29-0.01-0.39-0.09-0.43
	c-0.02-0.01-0.07-0.02-0.12,0.03c-2.53,2.14-2.27,4.31-0.97,7.35C33.2,64.53,33.54,65.56,33.73,66.25z M30.17,71.42
	c0.13,0.41,0.16,0.85,0.17,1.15c0.02,0.3,0.03,0.4,0.11,0.43c0.01,0,0.02,0.01,0.03,0.01c0.03,0,0.06-0.01,0.09-0.04
	c2.41-2.23,2.08-4.28,0.63-7.28l0-0.01c-0.46-0.74-0.85-1.64-1.21-2.77c-0.13-0.42-0.15-0.87-0.17-1.17
	c-0.02-0.29-0.02-0.39-0.11-0.42c-0.01,0-0.07-0.01-0.11,0.04c-2.43,2.24-2.08,4.4-0.64,7.37C29.58,69.72,29.96,70.74,30.17,71.42z
	 M26.85,76.73c0.15,0.41,0.2,0.86,0.23,1.16c0.03,0.29,0.04,0.39,0.13,0.41c0.01,0,0.02,0,0.03,0c0.03,0,0.06-0.01,0.09-0.05
	c2.3-2.34,1.89-4.37,0.31-7.3l-0.01-0.01c-0.49-0.71-0.93-1.61-1.33-2.72c-0.15-0.41-0.19-0.86-0.22-1.15
	c-0.03-0.29-0.04-0.39-0.13-0.42c-0.02-0.01-0.07-0.01-0.11,0.04c-2.33,2.36-1.89,4.49-0.33,7.39
	C26.24,75.14,26.66,76.2,26.85,76.73z M23.77,82.19c0.16,0.4,0.23,0.85,0.27,1.14c0.04,0.29,0.06,0.39,0.15,0.41
	c0.01,0,0.01,0,0.02,0c0.03,0,0.06-0.01,0.09-0.05c2.2-2.43,1.7-4.45,0-7.31l-0.01-0.01c-0.51-0.68-0.99-1.55-1.45-2.66
	c-0.16-0.39-0.23-0.83-0.27-1.12c-0.05-0.3-0.06-0.41-0.15-0.43c-0.03-0.01-0.08-0.01-0.11,0.05c-2.22,2.46-1.68,4.57,0,7.4
	C23.02,80.55,23.5,81.53,23.77,82.19z M20.92,87.77c0.18,0.39,0.27,0.84,0.32,1.13c0.06,0.29,0.07,0.39,0.17,0.41
	c0.01,0,0.01,0,0.02,0c0.02,0,0.06-0.01,0.09-0.05c2.09-2.52,1.5-4.51-0.32-7.3l-0.01-0.01c-0.7-0.84-1.2-1.83-1.56-2.6
	c-0.18-0.39-0.27-0.83-0.32-1.12c-0.06-0.29-0.08-0.39-0.17-0.41c-0.03-0.01-0.08-0.01-0.11,0.05c-2.11,2.55-1.48,4.64,0.32,7.4
	C20.14,86.21,20.67,87.24,20.92,87.77z M18.31,93.47c0.2,0.39,0.3,0.82,0.37,1.11c0.07,0.29,0.09,0.39,0.18,0.4c0,0,0.01,0,0.01,0
	c0.03,0,0.07-0.01,0.09-0.06c1.99-2.61,1.31-4.57-0.64-7.28l-0.01-0.01c-0.73-0.81-1.28-1.77-1.67-2.52
	c-0.2-0.39-0.3-0.82-0.37-1.11c-0.07-0.29-0.09-0.39-0.18-0.4c-0.02-0.01-0.07-0.01-0.11,0.06c-2,2.64-1.28,4.7,0.64,7.37
	C17.42,91.88,17.98,92.83,18.31,93.47z M15.96,99.28c0.21,0.38,0.34,0.81,0.42,1.09c0.08,0.29,0.11,0.38,0.2,0.39c0,0,0.01,0,0.01,0
	c0.02,0,0.07-0.01,0.1-0.06c1.87-2.69,1.11-4.63-0.96-7.25l-0.01-0.01c-0.61-0.61-1.19-1.41-1.77-2.44
	c-0.21-0.37-0.33-0.8-0.42-1.08c-0.08-0.29-0.11-0.39-0.21-0.4c-0.02-0.01-0.08,0-0.11,0.06c-1.88,2.72-1.07,4.75,0.97,7.34
	C15.06,97.8,15.67,98.77,15.96,99.28z M13.87,105.18c0.23,0.37,0.37,0.79,0.46,1.07c0.1,0.29,0.13,0.39,0.22,0.39c0,0,0,0,0.01,0
	c0.02,0,0.07-0.01,0.1-0.07c1.75-2.77,0.9-4.67-1.28-7.2l-0.01-0.01c-0.63-0.58-1.24-1.36-1.88-2.36c-0.23-0.37-0.38-0.8-0.47-1.09
	c-0.09-0.28-0.12-0.37-0.21-0.37c0,0,0,0,0,0c-0.02,0-0.07,0.01-0.1,0.07c-1.77,2.8-0.87,4.79,1.28,7.29
	C12.89,103.74,13.55,104.69,13.87,105.18z M12.03,111.17c0.25,0.36,0.41,0.78,0.51,1.06c0.1,0.27,0.14,0.37,0.23,0.37c0,0,0,0,0,0
	c0.02,0,0.07-0.01,0.1-0.07c1.62-2.85,0.7-4.7-1.58-7.14l-0.01-0.01c-0.66-0.56-1.31-1.31-1.98-2.28c-0.25-0.36-0.41-0.78-0.52-1.06
	c-0.1-0.27-0.14-0.37-0.23-0.37h0c-0.02,0-0.07,0.01-0.1,0.07c-1.64,2.88-0.66,4.83,1.6,7.22C10.74,109.56,11.41,110.3,12.03,111.17
	z M10.45,117.24c0.26,0.35,0.44,0.76,0.56,1.04c0.12,0.27,0.16,0.36,0.25,0.36c0,0,0,0,0.01,0c0.02,0,0.07-0.01,0.1-0.07
	c1.5-2.92,0.49-4.74-1.89-7.07l-0.01-0.01c-0.88-0.67-1.61-1.57-2.08-2.18c-0.26-0.34-0.44-0.76-0.55-1.03
	c-0.12-0.27-0.16-0.37-0.25-0.37c0,0,0,0,0,0c-0.02,0-0.08,0.01-0.1,0.07c-1.51,2.95-0.44,4.85,1.91,7.15
	C9.3,115.84,10.02,116.67,10.45,117.24z M6.99,121.35c1.02,0.72,1.79,1.57,2.16,2.01c0.28,0.34,0.48,0.75,0.61,1.02
	c0.12,0.25,0.17,0.34,0.25,0.34c0.02,0,0.08,0,0.1-0.08c1.37-2.98,0.29-4.75-2.2-6.97l-0.01-0.01c-0.91-0.64-1.67-1.51-2.17-2.1
	c-0.28-0.33-0.47-0.73-0.6-1c-0.13-0.26-0.17-0.36-0.26-0.36c-0.02,0-0.08,0.01-0.11,0.08C3.38,117.3,4.53,119.16,6.99,121.35z
	 M5.86,127.63c1.06,0.69,1.86,1.5,2.24,1.92c0.29,0.32,0.5,0.71,0.64,0.97c0.13,0.25,0.18,0.34,0.27,0.34c0.01,0,0.01,0,0.02,0
	c0.02,0,0.07-0.02,0.09-0.08c1.24-3.04,0.08-4.76-2.5-6.87l-0.01-0.01c-0.74-0.47-1.48-1.12-2.27-2c-0.29-0.32-0.51-0.72-0.65-0.98
	c-0.13-0.24-0.18-0.33-0.26-0.33c-0.01,0-0.01,0-0.02,0c-0.02,0-0.07,0.02-0.09,0.08C2.08,123.74,3.31,125.54,5.86,127.63z
	 M5.01,133.95c1,0.58,1.82,1.31,2.33,1.82c0.3,0.31,0.53,0.69,0.68,0.94c0.15,0.24,0.2,0.33,0.28,0.33c0.01,0,0.01,0,0.02,0
	c0.02,0,0.07-0.02,0.09-0.09c1.1-3.09-0.13-4.76-2.8-6.76L5.6,130.2c-0.75-0.44-1.52-1.06-2.35-1.9c-0.31-0.31-0.54-0.7-0.69-0.96
	c-0.14-0.23-0.19-0.32-0.27-0.32c-0.01,0-0.01,0-0.02,0c-0.02,0-0.07,0.02-0.09,0.09C1.07,130.23,2.37,131.98,5.01,133.95z
	 M4.43,140.3c1.1,0.58,1.98,1.33,2.4,1.72c0.31,0.29,0.56,0.67,0.73,0.92c0.15,0.23,0.21,0.32,0.29,0.32c0.01,0,0.02,0,0.02,0
	c0.02,0,0.07-0.02,0.08-0.09c0.97-3.14-0.34-4.76-3.09-6.63l-0.01-0.01c-0.76-0.4-1.56-0.98-2.42-1.79
	c-0.32-0.3-0.57-0.67-0.73-0.92c-0.17-0.25-0.23-0.33-0.31-0.32c-0.02,0-0.07,0.02-0.09,0.09C0.33,136.75,1.71,138.44,4.43,140.3z
	 M4.13,146.67c1.07,0.5,1.93,1.15,2.47,1.61c0.33,0.28,0.6,0.64,0.77,0.88c0.15,0.21,0.22,0.3,0.3,0.3c0.01,0,0.02,0,0.03,0
	c0.03-0.01,0.07-0.03,0.08-0.1c0.83-3.18-0.54-4.73-3.37-6.48l-0.01,0c-0.78-0.37-1.62-0.94-2.51-1.69
	c-0.33-0.28-0.6-0.65-0.77-0.89c-0.17-0.23-0.22-0.31-0.32-0.29c-0.02,0.01-0.07,0.03-0.08,0.09
	C-0.12,143.3,1.33,144.93,4.13,146.67z M4.11,153.04c1.08,0.45,1.98,1.07,2.54,1.5c0.35,0.27,0.63,0.62,0.81,0.86
	c0.16,0.2,0.22,0.29,0.3,0.29c0.01,0,0.02,0,0.03-0.01c0.02-0.01,0.07-0.03,0.07-0.1c0.7-3.21-0.75-4.7-3.65-6.34l-0.01,0
	c-0.8-0.34-1.66-0.87-2.57-1.58c-0.34-0.26-0.62-0.61-0.8-0.84c-0.19-0.24-0.26-0.32-0.34-0.29c-0.02,0.01-0.07,0.03-0.07,0.1
	C-0.28,149.86,1.24,151.43,4.11,153.04z M4.37,159.41c1.17,0.43,2.13,1.06,2.6,1.39c0.35,0.25,0.65,0.59,0.84,0.81
	c0.17,0.19,0.24,0.27,0.31,0.27c0.01,0,0.02,0,0.04-0.01c0.03-0.01,0.07-0.04,0.07-0.1c0.55-3.23-0.95-4.66-3.92-6.16l-0.01,0
	c-0.81-0.3-1.69-0.79-2.64-1.46c-0.35-0.25-0.64-0.58-0.83-0.81c-0.2-0.23-0.26-0.31-0.35-0.27c-0.02,0.01-0.07,0.03-0.07,0.1
	C-0.16,156.43,1.43,157.93,4.37,159.41z M4.9,165.77c1.1,0.35,2.06,0.88,2.67,1.27c0.36,0.23,0.67,0.56,0.87,0.77
	c0.17,0.18,0.25,0.26,0.32,0.26c0.01,0,0.03,0,0.04-0.01c0.02-0.01,0.07-0.03,0.07-0.1c0.42-3.26-1.15-4.62-4.19-5.98l-0.01,0
	c-0.82-0.26-1.73-0.72-2.7-1.35c-0.37-0.23-0.68-0.56-0.88-0.78c-0.21-0.22-0.28-0.28-0.36-0.25c-0.02,0.01-0.07,0.03-0.07,0.1
	C0.25,162.99,1.9,164.41,4.9,165.77z M5.72,172.09c1.19,0.32,2.21,0.86,2.71,1.16c0.37,0.22,0.69,0.52,0.9,0.73
	c0.18,0.18,0.26,0.26,0.34,0.26c0.02,0,0.03,0,0.05-0.01c0.02-0.01,0.07-0.04,0.06-0.11c0.27-3.26-1.36-4.55-4.45-5.79l-0.01,0
	c-0.83-0.23-1.73-0.63-2.76-1.23c-0.37-0.22-0.7-0.53-0.91-0.73c-0.22-0.21-0.29-0.27-0.37-0.24c-0.02,0.01-0.07,0.04-0.06,0.11
	C0.95,169.51,2.66,170.86,5.72,172.09z M6.8,178.37c1.2,0.26,2.25,0.76,2.76,1.04c0.39,0.2,0.72,0.5,0.95,0.7
	c0.18,0.16,0.26,0.23,0.33,0.23c0.02,0,0.03,0,0.05-0.01c0.02-0.01,0.06-0.04,0.06-0.11c0.13-3.28-1.55-4.5-4.7-5.6l-0.01,0
	c-0.84-0.19-1.76-0.56-2.8-1.11c-0.39-0.2-0.72-0.5-0.95-0.7c-0.22-0.2-0.3-0.26-0.38-0.22c-0.02,0.01-0.06,0.04-0.06,0.11
	C1.92,176.01,3.69,177.28,6.8,178.37z M10.97,185.51c0.39,0.18,0.74,0.47,0.97,0.65c0.18,0.15,0.27,0.22,0.34,0.22
	c0.02,0,0.03-0.01,0.05-0.01c0.02-0.01,0.06-0.05,0.05-0.11c-0.02-3.28-1.75-4.42-4.94-5.38l-0.01,0c-0.85-0.16-1.81-0.49-2.85-0.99
	c-0.39-0.18-0.74-0.47-0.97-0.65c-0.23-0.19-0.31-0.25-0.39-0.2c-0.02,0.01-0.06,0.05-0.05,0.11c0.02,3.31,1.84,4.51,4.98,5.46
	C9.41,184.83,10.45,185.27,10.97,185.51z M12.63,191.55c0.39,0.17,0.75,0.43,0.99,0.61c0.19,0.14,0.28,0.21,0.35,0.21
	c0.02,0,0.04-0.01,0.05-0.02c0.02-0.01,0.06-0.05,0.05-0.11c-0.17-3.28-1.94-4.35-5.17-5.17l-0.01,0c-1.09-0.14-2.17-0.55-2.89-0.85
	c-0.4-0.17-0.76-0.43-1-0.61c-0.24-0.18-0.32-0.24-0.4-0.19c-0.02,0.01-0.06,0.05-0.05,0.11c0.15,3.3,2.03,4.42,5.22,5.23
	C11.04,190.93,12.1,191.33,12.63,191.55z M14.55,197.51c0.41,0.15,0.78,0.4,1.03,0.57c0.18,0.13,0.28,0.19,0.34,0.19
	c0.02,0,0.04-0.01,0.06-0.02c0.02-0.01,0.06-0.05,0.04-0.11c-0.3-3.27-2.12-4.26-5.38-4.94l-0.01,0c-1.12-0.11-2.2-0.46-2.92-0.72
	c-0.41-0.15-0.78-0.4-1.02-0.57c-0.25-0.17-0.33-0.23-0.41-0.17c-0.02,0.01-0.06,0.05-0.04,0.11c0.3,3.29,2.22,4.32,5.44,5
	C13,196.97,14.13,197.35,14.55,197.51z M16.74,203.38c0.41,0.13,0.79,0.36,1.04,0.52c0.19,0.12,0.29,0.18,0.36,0.18
	c0.02,0,0.04-0.01,0.06-0.02c0.02-0.01,0.06-0.05,0.04-0.12c-0.45-3.25-2.31-4.16-5.59-4.7h-0.01c-0.87-0.04-1.86-0.25-2.96-0.6
	c-0.42-0.13-0.8-0.37-1.06-0.52c-0.25-0.15-0.33-0.21-0.4-0.15c-0.02,0.01-0.06,0.05-0.04,0.12c0.45,3.29,2.41,4.23,5.65,4.75
	C15.08,202.9,16.19,203.21,16.74,203.38z M19.17,209.15c0.42,0.11,0.8,0.33,1.06,0.48c0.19,0.11,0.29,0.16,0.36,0.16
	c0.03,0,0.05-0.01,0.07-0.02c0.02-0.01,0.05-0.05,0.03-0.12c-0.59-3.23-2.49-4.05-5.79-4.44l-0.01,0c-1.12-0.01-2.24-0.27-2.98-0.47
	c-0.42-0.12-0.81-0.33-1.07-0.47c-0.27-0.15-0.35-0.19-0.42-0.13c-0.02,0.01-0.05,0.05-0.03,0.12c0.59,3.26,2.59,4.12,5.85,4.51
	C17.51,208.75,18.62,209,19.17,209.15z M21.86,214.81c0.42,0.09,0.82,0.29,1.08,0.43c0.19,0.09,0.29,0.14,0.35,0.14
	c0.03,0,0.05-0.01,0.07-0.03c0.02-0.01,0.05-0.06,0.03-0.12c-0.73-3.2-2.66-3.94-5.98-4.19l-0.01,0c-0.86,0.03-1.87-0.08-3-0.34
	c-0.42-0.1-0.83-0.3-1.09-0.43c-0.27-0.13-0.36-0.18-0.43-0.12c-0.02,0.01-0.05,0.06-0.03,0.12c0.73,3.23,2.77,4,6.05,4.24
	C20.09,214.47,21.16,214.65,21.86,214.81z M24.79,220.34c0.42,0.08,0.84,0.26,1.11,0.38c0.18,0.08,0.28,0.13,0.35,0.13
	c0.03,0,0.06-0.01,0.08-0.03c0.02-0.02,0.05-0.06,0.02-0.12c-0.86-3.17-2.83-3.83-6.15-3.93l-0.01,0c-0.87,0.07-1.88,0-3.01-0.21
	c-0.43-0.08-0.83-0.26-1.1-0.38c-0.27-0.12-0.36-0.16-0.43-0.1c-0.02,0.02-0.05,0.06-0.02,0.12c0.87,3.19,2.94,3.87,6.23,3.97
	C22.78,220.11,23.85,220.17,24.79,220.34z M25,225.71c1.23-0.15,2.38-0.04,2.96,0.03c0.43,0.06,0.85,0.22,1.12,0.33
	c0.18,0.07,0.28,0.11,0.34,0.11c0.03,0,0.06-0.01,0.08-0.03c0.01-0.02,0.05-0.06,0.02-0.12c-0.97-3.03-2.87-3.66-6.02-3.66
	c-0.1,0-0.19,0-0.29,0l-0.01,0c-0.85,0.11-1.84,0.09-3.02-0.07c-0.43-0.06-0.85-0.23-1.13-0.34c-0.27-0.11-0.36-0.14-0.43-0.08
	c-0.01,0.02-0.05,0.06-0.01,0.12c0.97,3.05,2.96,3.7,6.04,3.7C24.76,225.71,24.88,225.71,25,225.71z M28.4,231.1
	c1.23-0.22,2.38-0.16,2.95-0.1c0.44,0.04,0.87,0.19,1.15,0.29c0.17,0.06,0.27,0.09,0.34,0.09c0.04,0,0.07-0.01,0.09-0.04
	c0.01-0.02,0.04-0.06,0.01-0.12c-1-2.71-2.68-3.41-5.32-3.41c-0.37,0-0.75,0.01-1.15,0.04h-0.01c-1.1,0.19-2.25,0.12-3.02,0.06
	c-0.44-0.04-0.87-0.19-1.15-0.29c-0.27-0.09-0.36-0.13-0.42-0.06c-0.01,0.02-0.04,0.06-0.01,0.12
	C22.99,230.79,25.11,231.29,28.4,231.1z M32.03,236.33c1.21-0.26,2.36-0.25,2.94-0.23c0.43,0.02,0.86,0.15,1.15,0.24
	c0.29,0.09,0.39,0.11,0.44,0.04c0.01-0.02,0.04-0.06,0.01-0.12c-1.27-3.02-3.3-3.42-6.62-3.09l-0.01,0
	c-0.85,0.18-1.86,0.25-3.01,0.18c-0.43-0.02-0.86-0.15-1.15-0.23c-0.28-0.08-0.38-0.11-0.44-0.04c-0.01,0.02-0.04,0.06,0,0.12
	c1.04,2.5,2.66,3.22,5.02,3.22C30.88,236.43,31.44,236.39,32.03,236.33z M35.89,241.4c1.16-0.3,2.24-0.35,2.84-0.35
	c0.03,0,0.07,0,0.1,0c0.43,0,0.87,0.11,1.16,0.18c0.29,0.07,0.37,0.09,0.43,0.02c0.01-0.02,0.04-0.07,0-0.12
	c-1.4-2.97-3.45-3.27-6.74-2.79l-0.01,0c-0.8,0.21-1.75,0.31-2.83,0.31c-0.06,0-0.11,0-0.17,0c-0.44,0-0.88-0.11-1.16-0.18
	c-0.28-0.07-0.37-0.09-0.43-0.02c-0.01,0.02-0.04,0.07,0,0.12c1.08,2.29,2.59,3.01,4.7,3.01C34.42,241.58,35.12,241.51,35.89,241.4z
	 M39.96,246.29c1.1-0.34,2.19-0.45,2.91-0.48c0.44-0.02,0.88,0.07,1.17,0.13c0.29,0.06,0.38,0.08,0.43,0
	c0.01-0.02,0.03-0.07-0.01-0.12c-1.52-2.91-3.58-3.12-6.85-2.5l-0.01,0c-0.82,0.26-1.82,0.4-2.98,0.44
	c-0.44,0.01-0.89-0.07-1.18-0.13c-0.28-0.06-0.37-0.08-0.42,0c-0.01,0.02-0.03,0.07,0,0.12c1.11,2.11,2.54,2.82,4.46,2.82
	C38.23,246.58,39.06,246.47,39.96,246.29z M47.13,250.39c0.43-0.04,0.87,0.03,1.17,0.08c0.29,0.05,0.39,0.06,0.44-0.02
	c0.01-0.02,0.03-0.07-0.01-0.12c-1.66-2.83-3.72-2.95-6.96-2.19l-0.01,0c-0.82,0.29-1.82,0.48-2.97,0.58
	c-0.42,0.03-0.87-0.04-1.16-0.08c-0.29-0.05-0.39-0.06-0.44,0.02c-0.01,0.02-0.03,0.07,0.01,0.12c1.13,1.94,2.5,2.62,4.25,2.62
	c0.83,0,1.76-0.15,2.79-0.4C45.46,250.58,46.58,250.44,47.13,250.39z M51.59,254.79c0.43-0.06,0.88,0,1.18,0.03
	c0.29,0.03,0.38,0.05,0.43-0.03c0.01-0.02,0.03-0.07-0.01-0.12c-1.78-2.77-3.85-2.8-7.05-1.89l-0.01,0
	c-0.81,0.33-1.79,0.57-2.93,0.71c-0.43,0.06-0.88,0-1.18-0.03c-0.29-0.03-0.39-0.05-0.43,0.04c-0.01,0.02-0.03,0.07,0.02,0.12
	c1.15,1.79,2.46,2.44,4.09,2.44c0.91,0,1.91-0.2,3.04-0.52C49.8,255.09,50.87,254.89,51.59,254.79z M56.23,258.99
	c0.44-0.08,0.89-0.05,1.19-0.03c0.28,0.02,0.38,0.03,0.42-0.06c0.01-0.02,0.02-0.07-0.02-0.12c-1.9-2.69-3.97-2.63-7.12-1.58
	l-0.01,0c-1,0.46-2.13,0.7-2.89,0.84c-0.44,0.07-0.88,0.04-1.19,0.02c-0.29-0.02-0.38-0.03-0.42,0.05
	c-0.01,0.02-0.02,0.07,0.02,0.12c1.16,1.64,2.42,2.26,3.93,2.26c0.97,0,2.05-0.25,3.27-0.66C54.55,259.32,55.66,259.09,56.23,258.99
	z M61.04,262.98c0.42-0.09,0.87-0.09,1.17-0.08c0.3,0.01,0.4,0.01,0.44-0.08c0.01-0.02,0.02-0.07-0.02-0.12
	c-2.01-2.59-4.08-2.44-7.19-1.27l-0.01,0c-0.98,0.51-2.1,0.8-2.86,0.96c-0.41,0.09-0.86,0.08-1.15,0.07
	c-0.3-0.01-0.41-0.01-0.44,0.08c-0.01,0.02-0.02,0.07,0.03,0.12c1.17,1.51,2.38,2.09,3.8,2.09c1.03,0,2.17-0.31,3.47-0.81
	C59.09,263.54,60.11,263.18,61.04,262.98z M66.04,266.75c0.42-0.11,0.87-0.12,1.17-0.12c0.29,0,0.39,0,0.42-0.09
	c0.01-0.02,0.02-0.07-0.03-0.12c-2.13-2.5-4.19-2.27-7.24-0.96l-0.01,0c-0.97,0.56-2.07,0.89-2.81,1.09
	c-0.42,0.11-0.87,0.12-1.16,0.12c-0.29,0.01-0.39,0.01-0.42,0.09c-0.01,0.02-0.02,0.07,0.03,0.12c1.17,1.38,2.34,1.93,3.66,1.93
	c1.09,0,2.28-0.38,3.65-0.96C64.39,267.24,65.48,266.9,66.04,266.75z M71.18,270.3c0.42-0.13,0.87-0.16,1.16-0.17
	c0.29-0.02,0.39-0.02,0.42-0.11c0.01-0.02,0.02-0.07-0.03-0.11c-2.22-2.41-4.27-2.08-7.27-0.64l-0.01,0.01
	c-0.74,0.46-1.64,0.86-2.77,1.21c-0.41,0.13-0.86,0.16-1.16,0.17c-0.29,0.02-0.39,0.02-0.42,0.11c-0.01,0.02-0.02,0.07,0.03,0.11
	c1.16,1.26,2.3,1.77,3.54,1.77c1.15,0,2.39-0.44,3.81-1.12C69.55,270.87,70.63,270.48,71.18,270.3z M76.47,273.63
	c0.4-0.14,0.85-0.19,1.14-0.22c0.3-0.03,0.41-0.04,0.43-0.14c0.01-0.02,0.01-0.07-0.04-0.12c-2.32-2.31-4.35-1.89-7.29-0.31
	l-0.01,0.01c-0.69,0.48-1.58,0.92-2.71,1.33c-0.4,0.14-0.85,0.19-1.14,0.22c-0.3,0.03-0.4,0.04-0.43,0.13
	c-0.01,0.02-0.01,0.07,0.04,0.12c1.16,1.15,2.26,1.62,3.43,1.62c1.2,0,2.48-0.5,3.95-1.29C74.89,274.25,75.94,273.82,76.47,273.63z
	 M81.92,276.72c0.4-0.17,0.84-0.23,1.13-0.27c0.29-0.04,0.39-0.06,0.41-0.15c0.01-0.02,0.01-0.08-0.05-0.11
	c-2.42-2.2-4.43-1.7-7.29,0.01l-0.01,0.01c-0.69,0.52-1.58,1.01-2.65,1.44c-0.4,0.17-0.84,0.23-1.14,0.27
	c-0.3,0.04-0.39,0.06-0.42,0.15c0,0.02-0.01,0.08,0.05,0.11c1.14,1.04,2.21,1.47,3.31,1.47c1.26,0,2.57-0.57,4.07-1.47
	C80.33,277.42,81.38,276.94,81.92,276.72z M87.48,279.57c0.39-0.18,0.83-0.27,1.13-0.32c0.29-0.06,0.38-0.07,0.4-0.17
	c0-0.02,0.01-0.07-0.05-0.11c-2.52-2.09-4.51-1.5-7.29,0.32l-0.01,0.01c-0.66,0.55-1.51,1.06-2.58,1.56
	c-0.39,0.18-0.83,0.27-1.12,0.32c-0.29,0.06-0.39,0.08-0.4,0.17c0,0.02,0,0.08,0.05,0.11c1.12,0.93,2.15,1.33,3.19,1.33
	c1.32,0,2.65-0.64,4.18-1.65C85.87,280.39,86.84,279.87,87.48,279.57z M93.16,282.17c0.39-0.2,0.82-0.3,1.11-0.37
	c0.29-0.07,0.38-0.09,0.39-0.18c0-0.02,0-0.08-0.06-0.11c-2.61-1.99-4.56-1.31-7.27,0.64l-0.01,0.01c-0.82,0.75-1.82,1.31-2.51,1.66
	c-0.39,0.2-0.82,0.31-1.11,0.38c-0.29,0.07-0.38,0.09-0.4,0.18c0,0.02,0,0.08,0.06,0.11c1.1,0.83,2.09,1.19,3.07,1.19
	c1.38,0,2.73-0.71,4.28-1.84C91.67,283,92.66,282.43,93.16,282.17z M98.95,284.53c0.37-0.21,0.8-0.34,1.08-0.42
	c0.29-0.08,0.39-0.11,0.4-0.21c0-0.02,0-0.08-0.06-0.11c-2.69-1.87-4.62-1.1-7.23,0.96l-0.01,0.01c-0.79,0.78-1.78,1.39-2.44,1.78
	c-0.38,0.22-0.81,0.34-1.09,0.42c-0.28,0.08-0.37,0.11-0.38,0.2c0,0.02,0,0.07,0.06,0.1c1.06,0.74,2.02,1.07,2.94,1.07
	c1.44,0,2.8-0.79,4.37-2.02C97.5,285.41,98.46,284.81,98.95,284.53z M104.85,286.62c0.37-0.23,0.79-0.38,1.08-0.47
	c0.28-0.09,0.37-0.12,0.37-0.22c0-0.02-0.01-0.07-0.06-0.1c-2.77-1.75-4.66-0.91-7.18,1.27l-0.01,0.01
	c-0.58,0.63-1.35,1.24-2.36,1.88c-0.37,0.24-0.8,0.38-1.09,0.47c-0.28,0.09-0.37,0.12-0.37,0.21c0,0.02,0.01,0.08,0.06,0.1
	c1.03,0.65,1.95,0.94,2.82,0.94c1.5,0,2.88-0.86,4.45-2.22C103.41,287.59,104.36,286.93,104.85,286.62z M110.82,288.46
	c0.36-0.25,0.78-0.41,1.06-0.52c0.27-0.1,0.36-0.14,0.36-0.23c0-0.02-0.01-0.07-0.07-0.1c-2.84-1.63-4.69-0.71-7.12,1.58l-0.01,0.01
	c-0.73,0.87-1.65,1.54-2.27,1.98c-0.36,0.25-0.78,0.41-1.06,0.52c-0.27,0.1-0.36,0.14-0.36,0.23c0,0.02,0.01,0.07,0.07,0.1
	c0.98,0.56,1.86,0.82,2.68,0.82c1.57,0,2.95-0.93,4.52-2.41C109.43,289.49,110.35,288.8,110.82,288.46z M116.87,290.04
	c0.35-0.27,0.77-0.45,1.04-0.57c0.26-0.11,0.35-0.15,0.34-0.24c0-0.02-0.01-0.07-0.07-0.09c-2.91-1.51-4.72-0.5-7.05,1.89
	l-0.01,0.01c-0.65,0.85-1.51,1.56-2.18,2.08c-0.34,0.26-0.75,0.43-1.02,0.55c-0.28,0.12-0.37,0.16-0.37,0.25
	c0,0.02,0.01,0.07,0.07,0.1c0.93,0.48,1.76,0.7,2.53,0.7c1.65,0,3.03-1.01,4.59-2.61C115.34,291.37,116.1,290.62,116.87,290.04z
	 M122.98,291.35c0.33-0.28,0.74-0.48,1.01-0.61c0.26-0.13,0.35-0.17,0.34-0.26c0-0.03-0.02-0.07-0.08-0.09
	c-2.97-1.37-4.73-0.29-6.95,2.2l-0.01,0.01c-0.5,0.7-1.19,1.41-2.1,2.17c-0.33,0.28-0.74,0.48-1,0.61
	c-0.26,0.13-0.35,0.17-0.34,0.26c0,0.03,0.02,0.07,0.08,0.09c0.88,0.41,1.67,0.6,2.39,0.6c1.73,0,3.1-1.08,4.64-2.81
	C121.7,292.48,122.54,291.71,122.98,291.35z M129.15,292.39c0.32-0.29,0.72-0.51,0.98-0.65c0.26-0.14,0.34-0.19,0.33-0.28
	c0-0.02-0.02-0.07-0.08-0.09c-3.04-1.25-4.75-0.08-6.86,2.49l-0.01,0.01c-0.47,0.74-1.14,1.5-1.99,2.27
	c-0.32,0.29-0.71,0.5-0.97,0.64c-0.26,0.14-0.35,0.19-0.34,0.28c0,0.02,0.02,0.07,0.08,0.09c0.82,0.34,1.56,0.5,2.23,0.5
	c1.82,0,3.19-1.16,4.71-3.02C127.91,293.58,128.72,292.78,129.15,292.39z M135.34,293.17c0.31-0.31,0.7-0.54,0.96-0.7
	c0.25-0.15,0.33-0.2,0.32-0.29c0-0.02-0.02-0.07-0.09-0.09c-3.09-1.11-4.75,0.13-6.73,2.79l-0.01,0.01c-0.54,0.93-1.3,1.75-1.9,2.36
	c-0.31,0.31-0.7,0.54-0.96,0.69c-0.25,0.15-0.33,0.2-0.32,0.29c0,0.02,0.02,0.07,0.08,0.09c0.76,0.27,1.44,0.4,2.06,0.4
	c1.91,0,3.27-1.23,4.76-3.23C134.1,294.5,134.83,293.68,135.34,293.17z M141.57,293.67c0.3-0.32,0.68-0.57,0.93-0.74
	c0.24-0.16,0.32-0.21,0.3-0.3c0-0.02-0.02-0.07-0.09-0.08c-3.12-0.97-4.73,0.33-6.61,3.09l-0.01,0.01c-0.4,0.76-0.99,1.56-1.79,2.43
	c-0.29,0.32-0.67,0.57-0.92,0.73c-0.25,0.16-0.33,0.22-0.31,0.31c0.01,0.02,0.02,0.07,0.09,0.08c0.69,0.21,1.31,0.31,1.88,0.31
	c2.03,0,3.37-1.31,4.82-3.43C140.44,294.97,141.18,294.09,141.57,293.67z M147.82,293.89c0.28-0.33,0.64-0.59,0.88-0.77
	c0.24-0.17,0.32-0.23,0.3-0.32c-0.01-0.02-0.03-0.07-0.09-0.08c-3.16-0.84-4.71,0.54-6.47,3.37l0,0.01
	c-0.48,1.01-1.19,1.91-1.68,2.5c-0.28,0.32-0.64,0.58-0.87,0.76c-0.25,0.18-0.33,0.24-0.31,0.34c0.01,0.02,0.02,0.07,0.09,0.08
	c0.61,0.16,1.16,0.24,1.66,0.24c2.15,0,3.48-1.38,4.88-3.64C146.74,295.24,147.45,294.33,147.82,293.89z M154.91,293.04
	c0.23-0.18,0.31-0.24,0.28-0.33c-0.01-0.02-0.03-0.07-0.1-0.07c-3.19-0.7-4.68,0.74-6.31,3.64l0,0.01
	c-0.33,0.79-0.85,1.63-1.58,2.58c-0.27,0.34-0.62,0.62-0.85,0.8c-0.23,0.18-0.31,0.25-0.28,0.33c0.01,0.02,0.03,0.07,0.1,0.07
	c0.53,0.12,1.01,0.17,1.45,0.17c2.28,0,3.59-1.46,4.94-3.86c0.44-1.07,1.06-1.97,1.49-2.54
	C154.33,293.5,154.68,293.23,154.91,293.04z M161.11,292.69c0.23-0.2,0.3-0.26,0.27-0.35c-0.01-0.02-0.03-0.07-0.1-0.07
	c-3.23-0.54-4.65,0.95-6.14,3.92l0,0.01c-0.3,0.8-0.79,1.69-1.46,2.64c-0.25,0.35-0.59,0.65-0.81,0.84
	c-0.22,0.19-0.3,0.26-0.27,0.35c0.01,0.02,0.03,0.07,0.1,0.07c0.43,0.07,0.84,0.11,1.21,0.11c2.44,0,3.73-1.53,5.01-4.07
	c0.44-1.19,1.06-2.14,1.39-2.61C160.55,293.18,160.89,292.89,161.11,292.69z M167.3,292.06c0.21-0.2,0.29-0.27,0.25-0.36
	c-0.01-0.02-0.03-0.07-0.1-0.07c0,0,0,0,0,0c-3.23-0.42-4.6,1.15-5.97,4.19l0,0.01c-0.26,0.81-0.7,1.7-1.34,2.7
	c-0.24,0.37-0.56,0.68-0.78,0.88c-0.21,0.2-0.28,0.27-0.25,0.35c0.01,0.02,0.03,0.07,0.1,0.07c0,0,0,0,0,0
	c0.34,0.04,0.65,0.06,0.95,0.06c2.61,0,3.88-1.61,5.1-4.3c0.38-1.18,0.96-2.17,1.27-2.66C166.76,292.58,167.09,292.26,167.3,292.06z
	 M173.44,291.17c0.21-0.21,0.28-0.29,0.24-0.37c-0.01-0.02-0.04-0.06-0.1-0.06c0,0-0.01,0-0.01,0c-0.23-0.02-0.46-0.03-0.67-0.03
	c-2.78,0-3.96,1.6-5.1,4.47l0,0.01c-0.23,0.84-0.64,1.76-1.23,2.76c-0.22,0.38-0.53,0.71-0.74,0.92c-0.2,0.21-0.27,0.28-0.23,0.36
	c0.01,0.02,0.04,0.06,0.1,0.06c0,0,0.01,0,0.01,0c0.23,0.02,0.46,0.03,0.67,0.03c2.81,0,4.05-1.68,5.18-4.52
	c0.33-1.21,0.87-2.22,1.16-2.72C172.93,291.71,173.24,291.39,173.44,291.17z M179.56,290c0.19-0.22,0.26-0.29,0.22-0.37
	c-0.01-0.02-0.04-0.06-0.09-0.06c-0.01,0-0.01,0-0.02,0c-0.12,0-0.23-0.01-0.35-0.01c-3.02,0-4.18,1.67-5.24,4.7l0,0.01
	c-0.25,1.1-0.75,2.13-1.11,2.81c-0.2,0.38-0.49,0.71-0.69,0.93c-0.2,0.23-0.27,0.31-0.23,0.39c0.01,0.02,0.04,0.06,0.1,0.06
	c0,0,0.01,0,0.01,0c0.11,0,0.21,0.01,0.31,0.01c3.06,0,4.29-1.75,5.34-4.75c0.29-1.24,0.77-2.26,1.04-2.76
	C179.06,290.56,179.36,290.22,179.56,290z M185.6,288.59c0.19-0.23,0.25-0.31,0.21-0.39c-0.01-0.02-0.05-0.07-0.11-0.05
	c-3.28,0.02-4.42,1.75-5.38,4.93l0,0.01c-0.16,0.87-0.49,1.83-0.98,2.85c-0.18,0.39-0.46,0.73-0.65,0.96
	c-0.19,0.23-0.25,0.31-0.21,0.39c0.01,0.02,0.04,0.05,0.09,0.05c0.01,0,0.01,0,0.02,0c3.3-0.02,4.49-1.84,5.44-4.98
	c0.21-1.15,0.62-2.17,0.92-2.81C185.13,289.16,185.41,288.82,185.6,288.59z M191.77,286.49c-0.01-0.02-0.05-0.06-0.11-0.05
	c-3.28,0.16-4.34,1.93-5.15,5.16l0,0.01c-0.15,1.11-0.56,2.18-0.85,2.89c-0.17,0.4-0.44,0.77-0.62,1.01
	c-0.17,0.24-0.23,0.31-0.18,0.39c0.01,0.02,0.04,0.05,0.09,0.05c0.01,0,0.02,0,0.03,0c3.3-0.16,4.41-2.03,5.21-5.22
	c0.17-1.24,0.57-2.31,0.79-2.84c0.17-0.4,0.44-0.76,0.61-1C191.76,286.65,191.82,286.57,191.77,286.49z M197.65,284.54
	c-0.01-0.02-0.05-0.06-0.11-0.04c-3.26,0.29-4.25,2.12-4.93,5.38l0,0.01c-0.08,0.87-0.33,1.86-0.73,2.93
	c-0.15,0.41-0.4,0.78-0.56,1.03c-0.17,0.25-0.22,0.33-0.17,0.41c0.01,0.02,0.04,0.05,0.08,0.05c0.01,0,0.02,0,0.03-0.01
	c3.29-0.3,4.32-2.22,4.99-5.44c0.12-1.27,0.47-2.35,0.67-2.88c0.15-0.42,0.41-0.79,0.58-1.04
	C197.65,284.68,197.7,284.61,197.65,284.54z M203.32,282.29c-3.25,0.44-4.15,2.31-4.68,5.59v0.01c-0.06,1.12-0.37,2.22-0.6,2.96
	c-0.13,0.4-0.36,0.78-0.52,1.04c-0.16,0.26-0.21,0.35-0.15,0.42c0.01,0.01,0.04,0.04,0.08,0.04c0.01,0,0.02,0,0.03-0.01
	c3.27-0.45,4.21-2.41,4.74-5.66c0.05-1.14,0.32-2.21,0.54-2.9c0.13-0.41,0.36-0.79,0.52-1.04c0.16-0.26,0.21-0.34,0.15-0.42
	C203.43,282.3,203.38,282.26,203.32,282.29z M209.01,279.83c-3.22,0.59-4.04,2.49-4.43,5.79l0,0.01c-0.01,0.88-0.17,1.88-0.47,2.98
	c-0.11,0.42-0.33,0.81-0.47,1.07c-0.14,0.26-0.19,0.35-0.13,0.42c0.01,0.01,0.04,0.04,0.08,0.04c0.01,0,0.02,0,0.04-0.01
	c3.24-0.59,4.1-2.59,4.49-5.86c0.01-1.28,0.26-2.38,0.42-2.92c0.11-0.42,0.33-0.81,0.47-1.07c0.14-0.26,0.19-0.34,0.13-0.42
	C209.11,279.85,209.07,279.81,209.01,279.83z M214.58,277.12c-3.18,0.73-3.93,2.66-4.18,5.98l0,0.01c0.05,1.13-0.17,2.25-0.34,3
	c-0.09,0.42-0.29,0.83-0.43,1.09c-0.13,0.27-0.18,0.35-0.11,0.42c0.01,0.01,0.04,0.03,0.08,0.03c0.01,0,0.03,0,0.04-0.01
	c3.22-0.73,3.99-2.77,4.23-6.05c-0.05-1.27,0.16-2.38,0.28-2.93c0.1-0.42,0.29-0.82,0.43-1.09c0.13-0.27,0.18-0.36,0.12-0.43
	C214.69,277.14,214.64,277.1,214.58,277.12z M220.04,274.18c-3.16,0.86-3.81,2.83-3.91,6.16l0,0.01c0.07,0.85,0,1.83-0.21,3.01
	c-0.08,0.43-0.26,0.84-0.38,1.11c-0.12,0.27-0.16,0.36-0.1,0.43c0.01,0.01,0.04,0.03,0.07,0.03c0.01,0,0.03,0,0.05-0.01
	c3.18-0.87,3.87-2.94,3.97-6.23c-0.1-1.17,0.03-2.25,0.15-2.95c0.08-0.42,0.26-0.83,0.38-1.1c0.12-0.27,0.16-0.37,0.1-0.44
	C220.14,274.19,220.1,274.16,220.04,274.18z M225.36,271.01c-3.11,0.99-3.68,2.99-3.65,6.32l0,0.01c0.11,0.85,0.08,1.84-0.08,3.01
	c-0.06,0.43-0.22,0.85-0.33,1.13c-0.11,0.28-0.14,0.37-0.08,0.43c0.01,0.01,0.04,0.03,0.07,0.03c0.02,0,0.03,0,0.05-0.01
	c3.14-1.01,3.73-3.11,3.69-6.4c-0.16-1.26-0.05-2.39,0.02-2.95c0.06-0.42,0.22-0.84,0.33-1.11c0.11-0.28,0.15-0.37,0.08-0.44
	C225.46,271.01,225.41,270.98,225.36,271.01z M230.53,267.59c-3.06,1.14-3.54,3.15-3.36,6.47v0.01c0.14,0.85,0.16,1.84,0.05,3.02
	c-0.04,0.43-0.18,0.86-0.28,1.14c-0.1,0.28-0.13,0.37-0.06,0.43c0.01,0.01,0.03,0.03,0.07,0.03c0.02,0,0.03,0,0.05-0.02
	c3.1-1.14,3.6-3.26,3.41-6.55c-0.22-1.24-0.16-2.38-0.1-2.95c0.04-0.43,0.18-0.85,0.28-1.13c0.1-0.28,0.13-0.38,0.06-0.45
	C230.63,267.59,230.58,267.56,230.53,267.59z M235.4,265.56c0.02-0.43,0.15-0.86,0.23-1.14c0.08-0.29,0.11-0.38,0.04-0.44
	c-0.02-0.01-0.06-0.04-0.12,0c-3.02,1.26-3.41,3.3-3.08,6.61l0,0.01c0.18,0.85,0.25,1.86,0.18,3.01c-0.02,0.43-0.15,0.86-0.23,1.14
	c-0.09,0.29-0.11,0.39-0.04,0.45c0.01,0.01,0.03,0.02,0.07,0.02c0.02,0,0.04,0,0.06-0.02c3.04-1.28,3.45-3.42,3.12-6.69
	C235.37,267.27,235.37,266.13,235.4,265.56z M240.33,261.71c0-0.44,0.11-0.88,0.18-1.17c0.07-0.28,0.09-0.38,0.02-0.43
	c-0.02-0.01-0.07-0.04-0.12,0c-2.96,1.4-3.26,3.45-2.79,6.74l0,0.01c0.22,0.83,0.32,1.81,0.32,3c0,0.44-0.11,0.87-0.19,1.16
	c-0.07,0.28-0.1,0.38-0.02,0.43c0.01,0.01,0.03,0.02,0.06,0.02c0.02,0,0.04-0.01,0.06-0.02c2.99-1.4,3.3-3.56,2.83-6.82
	C240.36,263.41,240.32,262.28,240.33,261.71z M245.08,257.65c-0.02-0.43,0.07-0.86,0.13-1.15c0.06-0.29,0.08-0.39,0-0.45
	c-0.02-0.01-0.06-0.03-0.12,0c-2.9,1.53-3.11,3.59-2.49,6.86l0,0.01c0.33,1.08,0.41,2.22,0.44,2.98c0.02,0.43-0.07,0.87-0.13,1.16
	c-0.06,0.29-0.08,0.39,0,0.44c0.01,0.01,0.03,0.02,0.06,0.02c0.02,0,0.04-0.01,0.06-0.02c2.93-1.54,3.14-3.7,2.53-6.93
	C245.22,259.46,245.11,258.37,245.08,257.65z M249.66,253.4c-0.03-0.43,0.04-0.87,0.08-1.16c0.05-0.3,0.06-0.4-0.02-0.44
	c-0.02-0.01-0.07-0.03-0.12,0.01c-2.83,1.65-2.95,3.72-2.19,6.96l0,0.01c0.29,0.8,0.48,1.77,0.58,2.96
	c0.03,0.43-0.04,0.87-0.09,1.16c-0.05,0.3-0.06,0.39,0.02,0.44c0.01,0.01,0.03,0.01,0.05,0.01c0.02,0,0.04-0.01,0.07-0.03
	c2.85-1.67,2.98-3.84,2.22-7.04C249.87,255.19,249.72,254.11,249.66,253.4z M254.04,248.95c-0.06-0.43-0.01-0.87,0.03-1.17
	c0.03-0.29,0.04-0.39-0.04-0.44c-0.02-0.01-0.07-0.03-0.12,0.02c-2.75,1.78-2.78,3.85-1.88,7.05l0,0.01c0.32,0.8,0.55,1.76,0.7,2.93
	c0.05,0.42,0,0.86-0.03,1.15c-0.03,0.3-0.05,0.41,0.04,0.45c0.01,0.01,0.03,0.01,0.05,0.01c0.02,0,0.05-0.01,0.07-0.03
	c2.77-1.79,2.8-3.96,1.91-7.13C254.31,250.66,254.12,249.52,254.04,248.95z M258.23,244.31c-0.07-0.42-0.04-0.87-0.02-1.16
	c0.02-0.3,0.03-0.4-0.06-0.44c-0.02-0.01-0.07-0.03-0.12,0.02c-2.67,1.89-2.62,3.96-1.58,7.12l0,0.01c0.47,1,0.7,2.13,0.84,2.9
	c0.07,0.43,0.04,0.88,0.02,1.18c-0.02,0.29-0.03,0.39,0.05,0.42c0.01,0,0.03,0.01,0.05,0.01c0.02,0,0.05-0.01,0.07-0.03
	c2.7-1.91,2.63-4.08,1.61-7.2C258.56,245.99,258.32,244.87,258.23,244.31z M262.21,239.49c-0.1-0.43-0.08-0.88-0.07-1.18
	c0.01-0.29,0.01-0.38-0.07-0.42c-0.02-0.01-0.07-0.02-0.12,0.03c-2.59,2-2.44,4.07-1.27,7.18l0,0.01c0.51,0.99,0.79,2.11,0.96,2.86
	c0.09,0.42,0.08,0.86,0.07,1.16c-0.01,0.3-0.01,0.4,0.08,0.44c0.01,0,0.02,0.01,0.04,0.01c0.02,0,0.05-0.01,0.08-0.03
	c2.6-2.02,2.44-4.19,1.29-7.26C262.61,241.15,262.33,240.05,262.21,239.49z M265.97,234.51c-0.11-0.42-0.12-0.87-0.12-1.17
	c0-0.29-0.01-0.39-0.09-0.42c-0.02-0.01-0.07-0.02-0.12,0.03c-2.5,2.12-2.26,4.18-0.96,7.23l0,0.01c0.43,0.75,0.79,1.7,1.08,2.82
	c0.11,0.41,0.12,0.86,0.13,1.16c0.01,0.3,0.01,0.4,0.1,0.43c0.01,0,0.02,0.01,0.04,0.01c0.02,0,0.05-0.01,0.08-0.04
	c2.52-2.13,2.26-4.3,0.97-7.32C266.46,236.17,266.12,235.07,265.97,234.51z M269.52,229.36c-0.13-0.4-0.15-0.85-0.17-1.14
	c-0.02-0.3-0.03-0.41-0.11-0.44c-0.02-0.01-0.07-0.02-0.12,0.03c-2.4,2.23-2.07,4.27-0.63,7.26l0.01,0.01
	c0.6,0.95,0.97,2.03,1.2,2.76c0.13,0.42,0.16,0.87,0.17,1.16c0.02,0.29,0.02,0.39,0.11,0.42c0.01,0,0.02,0.01,0.03,0.01
	c0.02,0,0.06-0.01,0.08-0.04c2.42-2.25,2.08-4.39,0.65-7.35C270.12,231.05,269.73,230.04,269.52,229.36z M272.84,224.07
	c-0.15-0.41-0.2-0.85-0.23-1.15c-0.03-0.3-0.04-0.39-0.13-0.42c-0.02-0.01-0.07-0.02-0.12,0.04c-2.29,2.32-1.88,4.35-0.31,7.29
	l0.01,0.01c0.49,0.69,0.92,1.58,1.32,2.71c0.14,0.4,0.19,0.84,0.22,1.14c0.03,0.3,0.04,0.4,0.13,0.43c0.01,0,0.02,0,0.03,0
	c0.03,0,0.06-0.01,0.09-0.05c2.32-2.35,1.88-4.48,0.33-7.37C273.44,225.64,273.02,224.6,272.84,224.07z M275.92,218.63
	c-0.16-0.39-0.23-0.83-0.27-1.12c-0.05-0.3-0.06-0.41-0.15-0.43c-0.03-0.01-0.07-0.01-0.11,0.05c-2.2,2.43-1.69,4.44,0.01,7.29
	l0.01,0.01c0.67,0.89,1.14,1.94,1.44,2.65c0.16,0.4,0.22,0.84,0.27,1.13c0.04,0.3,0.06,0.4,0.15,0.42c0.01,0,0.02,0,0.03,0
	c0.03,0,0.06-0.01,0.09-0.05c2.22-2.45,1.68-4.56,0.01-7.39C276.6,220.18,276.13,219.16,275.92,218.63z M278.76,213.07
	c-0.18-0.39-0.26-0.83-0.32-1.12c-0.06-0.3-0.08-0.39-0.17-0.41c-0.02-0.01-0.07-0.01-0.11,0.05c-2.09,2.52-1.5,4.51,0.32,7.29
	l0.01,0.01c0.72,0.86,1.23,1.89,1.55,2.58c0.18,0.39,0.27,0.84,0.33,1.13c0.06,0.29,0.07,0.39,0.17,0.4c0.01,0,0.01,0,0.02,0
	c0.02,0,0.06-0.01,0.09-0.05c2.11-2.54,1.48-4.63-0.31-7.38C279.58,214.68,279.06,213.72,278.76,213.07z M281.36,207.38
	c-0.2-0.38-0.31-0.82-0.38-1.11c-0.07-0.29-0.09-0.38-0.18-0.4c-0.02-0.01-0.07-0.01-0.11,0.06c-1.98,2.6-1.3,4.56,0.64,7.27
	l0.01,0.01c0.58,0.64,1.14,1.48,1.66,2.51c0.2,0.38,0.3,0.82,0.37,1.11c0.07,0.29,0.09,0.39,0.19,0.4c0,0,0.01,0,0.01,0
	c0.03,0,0.07-0.01,0.09-0.06c2-2.63,1.28-4.69-0.63-7.35C282.19,208.89,281.63,207.9,281.36,207.38z M283.71,201.59
	c-0.21-0.37-0.34-0.8-0.42-1.08c-0.08-0.29-0.11-0.39-0.21-0.4c-0.03,0-0.07,0-0.11,0.06c-1.86,2.69-1.1,4.62,0.95,7.23l0.01,0.01
	c0.6,0.61,1.18,1.4,1.77,2.44c0.21,0.37,0.34,0.8,0.42,1.08c0.08,0.29,0.11,0.39,0.21,0.4c0,0,0.01,0,0.01,0
	c0.02,0,0.07-0.01,0.1-0.06c1.88-2.71,1.07-4.73-0.96-7.32C284.6,203.06,283.99,202.09,283.71,201.59z M285.8,195.7
	c-0.23-0.36-0.37-0.78-0.46-1.06c-0.1-0.29-0.13-0.38-0.22-0.39c0,0,0,0-0.01,0c-0.03,0-0.07,0.01-0.1,0.07
	c-1.74,2.76-0.9,4.65,1.26,7.18l0.01,0.01c0.82,0.75,1.47,1.71,1.88,2.36c0.23,0.37,0.38,0.8,0.47,1.08
	c0.09,0.27,0.12,0.37,0.21,0.37c0,0,0,0,0,0c0.02,0,0.07-0.01,0.1-0.07c1.76-2.8,0.87-4.78-1.27-7.26
	C286.75,197.13,286.11,196.19,285.8,195.7z M287.64,189.73c-0.25-0.36-0.41-0.78-0.51-1.05c-0.1-0.28-0.14-0.37-0.23-0.37
	c0,0,0,0,0,0c-0.02,0-0.07,0.01-0.1,0.07c-1.63,2.84-0.7,4.69,1.57,7.11l0.01,0.01c0.66,0.56,1.32,1.33,1.98,2.28
	c0.24,0.35,0.4,0.76,0.51,1.04c0.11,0.28,0.15,0.38,0.24,0.38c0,0,0,0,0,0c0.02,0,0.07-0.01,0.1-0.07c1.63-2.86,0.65-4.81-1.59-7.2
	C288.72,191.18,288.05,190.32,287.64,189.73z M289.21,183.68c-0.26-0.34-0.43-0.75-0.55-1.02c-0.12-0.27-0.16-0.37-0.25-0.37
	c0,0,0,0,0,0c-0.02,0-0.08,0.01-0.1,0.07c-1.5,2.91-0.49,4.72,1.89,7.04l0.01,0.01c0.85,0.66,1.56,1.52,2.07,2.19
	c0.26,0.34,0.44,0.75,0.55,1.02c0.12,0.27,0.16,0.37,0.25,0.37c0.03,0.01,0.08-0.01,0.1-0.07c1.5-2.94,0.44-4.84-1.9-7.13
	C290.3,185.03,289.56,184.14,289.21,183.68z M292.67,179.59c-1.02-0.72-1.79-1.57-2.15-2.01c-0.27-0.33-0.46-0.72-0.59-0.99
	c-0.13-0.26-0.18-0.36-0.26-0.36c0,0-0.01,0-0.01,0c-0.02,0-0.08,0.01-0.1,0.08c-1.37,2.97-0.29,4.73,2.19,6.95l0.01,0.01
	c0.9,0.64,1.67,1.5,2.17,2.1c0.27,0.33,0.47,0.74,0.6,1.01c0.12,0.26,0.17,0.35,0.25,0.35c0.02-0.01,0.08,0,0.1-0.08
	C296.26,183.63,295.12,181.78,292.67,179.59z M293.8,173.33c-0.98-0.63-1.76-1.39-2.24-1.91c-0.29-0.32-0.5-0.71-0.64-0.98
	c-0.13-0.25-0.18-0.34-0.27-0.34c-0.02,0-0.08,0-0.11,0.08c-1.23,3.03-0.07,4.75,2.5,6.86l0.01,0.01c0.91,0.59,1.68,1.37,2.25,1.99
	c0.29,0.32,0.5,0.71,0.65,0.98c0.13,0.25,0.18,0.34,0.27,0.34c0.01,0,0.01,0,0.02,0c0.02,0,0.07-0.02,0.09-0.08
	C297.56,177.2,296.34,175.41,293.8,173.33z M294.65,167.03c-1.08-0.63-1.91-1.41-2.32-1.82c-0.3-0.3-0.53-0.68-0.68-0.94
	c-0.15-0.24-0.2-0.34-0.29-0.34c-0.02,0-0.09,0-0.11,0.09c-1.1,3.08,0.13,4.74,2.79,6.74l0.01,0.01c0.74,0.43,1.5,1.05,2.34,1.9
	c0.3,0.31,0.53,0.69,0.69,0.95c0.14,0.23,0.19,0.32,0.27,0.32c0.01,0,0.01,0,0.02,0c0.02,0,0.07-0.02,0.09-0.09
	C298.58,170.74,297.28,168.99,294.65,167.03z M295.23,160.69c-1.03-0.54-1.87-1.23-2.39-1.71c-0.32-0.29-0.56-0.67-0.73-0.91
	c-0.15-0.23-0.21-0.31-0.29-0.31c-0.01,0-0.02,0-0.02,0c-0.02,0.01-0.07,0.02-0.08,0.09c-0.97,3.13,0.34,4.74,3.08,6.61l0.01,0.01
	c0.75,0.4,1.54,0.99,2.42,1.79c0.32,0.29,0.56,0.67,0.73,0.91c0.15,0.22,0.21,0.31,0.29,0.31c0.01,0,0.02,0,0.02,0
	c0.02-0.01,0.07-0.02,0.08-0.09C299.31,164.23,297.94,162.55,295.23,160.69z M295.53,154.35c-1.11-0.52-2.02-1.23-2.47-1.61
	c-0.33-0.28-0.59-0.64-0.76-0.88c-0.16-0.22-0.22-0.31-0.3-0.31c-0.01,0-0.02,0-0.03,0c-0.02,0.01-0.07,0.03-0.08,0.09
	c-0.83,3.16,0.54,4.71,3.36,6.47l0.01,0c0.78,0.37,1.62,0.94,2.49,1.69c0.33,0.28,0.59,0.64,0.76,0.88c0.16,0.22,0.22,0.31,0.3,0.31
	c0.01,0,0.02,0,0.03,0c0.02-0.01,0.07-0.02,0.08-0.09C299.76,157.7,298.32,156.08,295.53,154.35z M150.04,10.89
	c-76.86,0-139.39,62.62-139.39,139.58c0,76.97,62.53,139.59,139.39,139.59c76.86,0,139.4-62.62,139.4-139.59
	C289.44,73.5,226.91,10.89,150.04,10.89z"/>
<path class="st1" d="M150.05,46.01c-57.62,0-104.32,46.77-104.32,104.46c0,57.7,46.7,104.47,104.32,104.47
	c57.61,0,104.32-46.76,104.32-104.47C254.36,92.78,207.66,46.01,150.05,46.01z M150.25,233.05c-45.66,0-82.69-37.07-82.69-82.79
	c0-45.73,37.03-82.8,82.69-82.8c45.66,0,82.69,37.07,82.69,82.8C232.94,195.98,195.91,233.05,150.25,233.05z M83.94,38.89l1.89-1.09
	c1.79-1.04,3.8-0.95,5.34,1.72c1.6,2.77,1.55,4.94-0.58,6.18l-2.02,1.17L83.94,38.89z M79.39,41.33c2.36-1,2.18-1.07,3.5,1.21
	l6.36,11.01c1.31,2.28,1.34,2.11-0.7,3.64l0.36,0.64l6.59-3.8l-0.37-0.64c-2.36,1-2.18,1.07-3.51-1.21L89,47.65l2.31-1.33
	c5.8,3.2,8.12,5.42,9.57,4.59l2.52-1.46l-0.18-0.32c-1.15-0.02-3.51-0.94-5.76-2.02l-4.51-2.26c1.47-1.83,2-4.45,0.55-6.98
	c-1.66-2.86-4.88-2.73-7.35-1.3l-7.12,4.11L79.39,41.33z M103.28,32.29c-0.86-2.49-0.92-2.31,1.38-3.43l-0.24-0.7l-7.19,2.48
	l0.24,0.69c2.51-0.53,2.35-0.63,3.2,1.85l2.74,7.96c1.67,4.84,4.42,7.11,10.12,5.16c3.44-1.18,6.37-4.58,4.39-10.33l-2.59-7.54
	c-0.2-0.56-0.24-1.05-0.34-1.5c-0.19-1.01,0.56-1.68,1.8-2.26l-0.24-0.69l-6.31,2.17l0.24,0.7c1.3-0.3,2.34-0.24,2.8,0.68
	c0.2,0.4,0.46,0.83,0.66,1.38l2.56,7.43c1.47,4.27,0.4,7.4-3.26,8.65c-3.98,1.38-5.98-1.13-7.27-4.87L103.28,32.29z M130.26,22.37
	l2.52-0.35c2.44-0.35,3.21,1.12,4.4,2.83l0.7-0.1l-1.35-4.18l-15.48,2.18l-0.16,4.39l0.7-0.1c0.66-1.98,1.01-3.59,3.44-3.94
	l2.53-0.35l2.13,15.19c0.37,2.61,0.46,2.45-2.02,3.11l0.11,0.73l7.53-1.06L135.19,40c-2.56,0.05-2.43,0.17-2.79-2.43L130.26,22.37z
	 M151.64,40.03c2.57,0.13,4.97-0.33,6.81-0.95l0.26-4.91c0.14-2.62,0.02-2.48,2.58-2.66l0.04-0.74l-8.16-0.43l-0.03,0.74
	c3.08,0.48,2.98,0.32,2.84,2.95l-0.09,1.72c-0.11,2.2-0.49,3.49-4.02,3.3c-5.73-0.3-7.72-5.53-7.46-9.99
	c0.29-4.83,2.41-8.78,8.32-8.48c4.48,0.24,5.8,2.76,5.76,5.03l0.73,0.04l0.2-3.64c0.02-0.45-0.27-0.87-1.04-1.16
	c-1.36-0.53-2.63-1.1-5.37-1.25c-7.62-0.4-11.59,5.17-11.82,9.51C140.78,36.68,145.85,39.72,151.64,40.03 M164.14,40.55l13.77,1.93
	l1.55-4.92l-0.73-0.1c-1.71,2.81-1.67,3.98-5.73,3.42c-2.52-0.36-3.58-0.71-3.25-3.09l0.89-6.32l2.35,0.33
	c1.88,0.26,2.38,1.33,2.21,2.99l0.73,0.11l0.83-5.97l-0.73-0.1c-0.3,1.72-1.15,2.31-2.91,2.07l-2.36-0.33l1.13-8.01l3.81,0.53
	c2.01,0.28,2.36,1.9,2.34,4.02l0.73,0.11l0.64-4.51l-12.48-1.76h-0.03l-0.1,0.73c2.47,0.66,2.38,0.5,2.02,3.11l-1.77,12.59
	c-0.36,2.6-0.24,2.48-2.79,2.43L164.14,40.55z M193.05,28.1l2.07,0.71c1.95,0.67,3.2,2.23,2.2,5.15c-1.04,3.02-2.72,4.42-5.04,3.62
	l-2.22-0.76L193.05,28.1z M188.22,26.25c2.31,1.13,2.24,0.96,1.39,3.44l-4.14,12.03c-0.86,2.49-0.71,2.39-3.2,1.85l-0.24,0.7
	l7.19,2.47l0.24-0.69c-2.31-1.13-2.24-0.96-1.39-3.44l1.71-4.94l2.51,0.87c1.38,6.48,1.24,9.69,2.81,10.23l2.75,0.95l0.12-0.34
	c-0.74-0.89-1.6-3.27-2.26-5.68l-1.25-4.88c2.33-0.1,4.67-1.42,5.62-4.17c1.08-3.13-1.13-5.47-3.84-6.4l-7.77-2.67L188.22,26.25z
	 M216.41,42.85l1.85-3.21c0.06-0.12,0.1-0.24-0.02-0.36c-0.79-0.91-2.11-1.84-3.16-2.44c-2.82-1.63-6.27-1.3-7.54,0.91
	c-1.55,2.66-0.45,4.57,0.35,6.21c2.28,4.54,2.38,6.34,1.47,7.92c-1.04,1.79-3.21,2.29-4.95,1.29c-1.89-1.09-3.05-3.2-1.75-6.07
	l-0.64-0.36l-2.03,3.52c-0.11,0.2-0.1,0.34-0.02,0.44c0.99,1.22,2.16,2.3,3.73,3.2c2.94,1.7,6.86,1.8,8.53-1.11
	c1.17-2.03,1.06-3.76-0.41-7.19c-1.39-3.25-2.51-5.27-1.52-6.98c1.05-1.81,2.74-1.81,4.16-1c1.96,1.13,2.09,3.04,1.3,4.87
	L216.41,42.85z M241.07,58.23l1.74,1.86c1.67,1.8,0.92,3.27,0.19,5.22l0.49,0.52l2.64-3.51l-10.66-11.43l-3.68,2.39l0.49,0.52
	c2-0.59,3.52-1.24,5.2,0.56l1.73,1.86l-11.22,10.47c-1.93,1.8-1.74,1.78-3.71,0.13l-0.53,0.5l5.18,5.56l0.54-0.5
	c-1.51-2.07-1.54-1.89,0.39-3.68L241.07,58.23z M243.86,74.03l5.97,7.92l-5.33,4.02c-2.1,1.59-1.92,1.59-3.69-0.25l-0.59,0.44
	l4.57,6.07l0.59-0.44c-1.29-2.22-1.33-2.05,0.77-3.63l10.16-7.66c2.1-1.58,1.92-1.59,3.7,0.26l0.58-0.45l-4.57-6.07l-0.59,0.44
	c1.29,2.22,1.33,2.04-0.77,3.63l-3.9,2.94l-5.98-7.92l3.91-2.95c2.1-1.58,1.92-1.59,3.69,0.26l0.59-0.44l-4.58-6.07l-0.59,0.45
	c1.29,2.22,1.33,2.04-0.77,3.63l-10.16,7.65c-2.09,1.59-1.92,1.59-3.7-0.26l-0.58,0.45l4.58,6.07l0.59-0.44
	c-1.29-2.22-1.33-2.04,0.77-3.62L243.86,74.03z M246.28,94.17l5.65,12.71l5-1.29l-0.3-0.67c-3.29,0.04-4.27,0.69-5.93-3.05
	c-1.04-2.32-1.3-3.41,0.89-4.39l5.84-2.6l0.96,2.17c0.77,1.73,0.13,2.73-1.37,3.46l0.3,0.67l5.5-2.45l-0.3-0.67
	c-1.62,0.66-2.57,0.25-3.3-1.38l-0.96-2.17l7.38-3.29l1.56,3.51c0.83,1.86-0.35,3.01-2.15,4.12l0.3,0.67l4.15-1.85l-5.12-11.52
	l-0.02-0.02l-0.67,0.3c0.75,2.45,0.83,2.29-1.56,3.36l-11.61,5.17c-2.41,1.07-2.23,1.12-3.55-1.08L246.28,94.17z M264.94,111.22
	c0.83-0.28,1.28-1.19,0.99-2.02c-0.29-0.85-1.19-1.29-2.02-0.99c-0.85,0.28-1.28,1.19-1,2.02
	C263.19,111.07,264.1,111.51,264.94,111.22 M273.99,124.54l3.57-0.96c0.14-0.03,0.24-0.09,0.25-0.27c0.09-1.2-0.18-2.79-0.5-3.97
	c-0.84-3.13-3.51-5.35-5.96-4.69c-2.98,0.8-3.55,2.91-4.14,4.65c-1.6,4.82-2.79,6.16-4.56,6.64c-1.99,0.53-3.89-0.66-4.41-2.59
	c-0.57-2.1,0.11-4.42,3.05-5.53l-0.19-0.71l-3.93,1.05c-0.22,0.06-0.31,0.17-0.33,0.29c-0.16,1.57-0.09,3.16,0.38,4.91
	c0.87,3.28,3.57,6.13,6.82,5.25c2.27-0.6,3.41-1.91,4.79-5.38c1.32-3.28,1.95-5.5,3.86-6.01c2.03-0.54,3.22,0.66,3.65,2.24
	c0.59,2.19-0.67,3.63-2.52,4.36L273.99,124.54z M279.33,139.68l0.22,2.53c0.21,2.45-1.29,3.15-3.06,4.24l0.06,0.71l4.24-1.14
	l-1.36-15.57l-4.37-0.38l0.06,0.71c1.94,0.76,3.54,1.19,3.76,3.64l0.22,2.53l-15.29,1.34c-2.62,0.23-2.46,0.33-3-2.18l-0.73,0.06
	l0.66,7.58l0.74-0.06c0.09-2.56-0.04-2.44,2.57-2.67L279.33,139.68z M267.02,160.24l-3.7,1.03c-1.27,0.38-2.19,0.16-2.1-1.61
	l-0.73-0.04l-0.34,6.57l0.73,0.04c0.06-1.22,1-1.62,2.6-2.15c2.56-0.83,11.41-3.25,17.18-4.87l0.08-1.58
	c-6.11-2.67-15.17-6.45-17.59-7.8c-0.91-0.5-1.34-1.34-1.3-2.1l-0.74-0.04l-0.27,5.14l0.74,0.03c0.07-1.24,1.02-1.72,2.11-1.3
	l3.72,1.5L267.02,160.24z M268.45,153.53l8.99,3.85v0.06l-9.34,2.51L268.45,153.53z M276.49,179.94l-0.62,2.47
	c-0.59,2.39-2.23,2.56-4.27,3.01l-0.17,0.69l4.38,0.31l3.78-15.17l-4.01-1.78l-0.17,0.68c1.58,1.36,2.96,2.28,2.36,4.67l-0.62,2.47
	l-14.89-3.72c-2.55-0.64-2.45-0.49-2.13-3.04l-0.71-0.18l-1.84,7.37l0.71,0.18c0.91-2.39,0.75-2.32,3.3-1.68L276.49,179.94z
	 M256.24,183.59l-5.2,12.89l4.4,2.69l0.27-0.68c-2.32-2.34-3.47-2.59-1.93-6.39c0.95-2.36,1.55-3.31,3.77-2.41l5.93,2.4l-0.89,2.2
	c-0.71,1.76-1.87,1.98-3.44,1.42l-0.27,0.68l5.58,2.25l0.28-0.68c-1.6-0.7-1.98-1.67-1.3-3.33l0.88-2.2l7.5,3.03l-1.44,3.56
	c-0.76,1.89-2.41,1.83-4.46,1.31l-0.27,0.68l4.22,1.7l4.73-11.69l0.01-0.02l-0.68-0.27c-1.24,2.24-1.07,2.19-3.51,1.2l-11.79-4.76
	c-2.44-0.99-2.35-0.83-1.69-3.3L256.24,183.59z M257.17,207.79c0.79,0.39,1.75,0.06,2.14-0.74c0.39-0.8,0.07-1.76-0.74-2.14
	c-0.8-0.39-1.75-0.06-2.14,0.74C256.05,206.44,256.38,207.4,257.17,207.79 M256.74,220.03c2.1,1.58,2.06,1.41,0.77,3.63l0.59,0.44
	l4.57-6.07l-0.59-0.44c-1.78,1.84-1.6,1.84-3.69,0.25l-6.73-5.07c-4.09-3.07-7.65-3.42-11.27,1.38c-2.2,2.91-2.72,7.37,2.13,11.03
	l6.37,4.79c0.47,0.36,0.78,0.74,1.11,1.05c0.73,0.73,0.48,1.71-0.22,2.88l0.59,0.44l4.02-5.33l-0.59-0.44
	c-0.91,0.97-1.81,1.51-2.7,1c-0.4-0.23-0.84-0.43-1.32-0.78l-6.27-4.73c-3.61-2.72-4.46-5.91-2.14-9c2.53-3.37,5.6-2.41,8.76-0.03
	L256.74,220.03z M221.22,235.46l10.69,11.87c0.4,0.44,0.63,0.87,0.89,1.25c0.58,0.85,0.13,1.78-0.76,2.78l0.49,0.55l5.15-4.64
	l-0.49-0.54c-1.48,1.14-2.46,1.49-3.25,0.82c-0.34-0.29-0.74-0.57-1.14-1.02l-7.78-8.63l0.05-0.04c6.55,0.99,13.28,1.92,19.83,2.91
	l3.83-3.45l-0.49-0.54c-1.2,1.08-2.45,1-3.72,0.77l-8.9-9.9c-0.4-0.44-0.64-0.87-0.9-1.25c-0.57-0.85-0.15-1.76,0.77-2.78
	l-0.49-0.55l-5.15,4.64l0.49,0.54c1.48-1.14,2.46-1.49,3.25-0.83c0.35,0.3,0.75,0.58,1.15,1.03l8.36,9.28
	c-7.05-0.95-14.24-1.97-21.13-2.91L221.22,235.46z M222.45,255.09c1.58,2.11,1.59,1.92-0.26,3.7l0.44,0.59l6.07-4.58l-0.45-0.58
	c-2.22,1.28-2.04,1.33-3.63-0.78l-7.65-10.15c-1.58-2.11-1.58-1.92,0.25-3.7L216.8,239l-6.07,4.58l0.44,0.58
	c2.23-1.28,2.05-1.33,3.63,0.77L222.45,255.09z M212.34,265.59l6.91-3.37l-0.32-0.66c-1.22,0.59-2.4,0.19-4.65-2.07
	c-3.66-3.57-7.78-7.62-11.47-11.27l-1.29,0.63c0.4,6.25,0.78,12.49,1.18,18.73c0.08,1.53-0.63,2.19-1.37,2.56l0.32,0.66l5.49-2.67
	l-0.32-0.66c-1.72,0.84-2.77,0.38-2.91-1.53c-0.32-4.65-0.68-9.33-0.96-14.01c3.21,3.21,6.81,6.87,9.26,9.38
	c2.03,2.03,1.21,2.93-0.19,3.61L212.34,265.59z M191.85,253.3l-13.07,4.75l0.94,5.07l0.69-0.25c0.19-3.29-0.39-4.31,3.46-5.71
	c2.4-0.87,3.5-1.06,4.32,1.2l2.18,6.01l-2.22,0.81c-1.78,0.65-2.73-0.06-3.35-1.61l-0.7,0.25l2.07,5.66l0.69-0.25
	c-0.54-1.67-0.07-2.59,1.6-3.2l2.23-0.81l2.76,7.59l-3.61,1.31c-1.91,0.69-2.98-0.57-3.96-2.44l-0.69,0.25l1.55,4.27l11.84-4.31
	l0.03-0.02l-0.25-0.69c-2.5,0.57-2.35,0.67-3.25-1.8l-4.35-11.95c-0.9-2.48-0.95-2.3,1.33-3.47L191.85,253.3z M173.67,278.2
	l-2.15,0.34c-2.04,0.31-3.88-0.48-4.36-3.52c-0.5-3.15,0.32-5.17,2.75-5.55l2.32-0.37L173.67,278.2z M178.8,277.56
	c-2.56,0.1-2.43,0.22-2.84-2.38l-1.98-12.56c-0.41-2.6-0.5-2.44,1.96-3.14l-0.11-0.73l-7.51,1.19l0.11,0.73
	c2.57-0.09,2.43-0.22,2.84,2.38l0.82,5.17l-2.62,0.41c-4.26-5.08-5.64-7.97-7.29-7.72l-2.88,0.45l0.07,0.36
	c1.07,0.43,2.94,2.14,4.65,3.96l3.4,3.72c-2.02,1.18-3.46,3.44-3.01,6.31c0.52,3.26,3.57,4.3,6.4,3.85l8.12-1.29L178.8,277.56z
	 M147.71,277.25l0.18,3.69c0.01,0.15,0.05,0.26,0.22,0.31c1.15,0.33,2.77,0.39,3.98,0.32c3.25-0.17,5.96-2.32,5.84-4.86
	c-0.16-3.09-2.11-4.08-3.69-5.02c-4.38-2.58-5.45-4.02-5.54-5.85c-0.11-2.05,1.45-3.67,3.45-3.77c2.18-0.11,4.3,1.02,4.78,4.14
	l0.73-0.04l-0.21-4.07c-0.01-0.22-0.11-0.33-0.22-0.38c-1.5-0.49-3.07-0.74-4.87-0.66c-3.38,0.18-6.74,2.23-6.56,5.58
	c0.12,2.35,1.16,3.73,4.27,5.81c2.94,1.97,4.97,3.04,5.07,5.03c0.11,2.09-1.31,3.01-2.95,3.09c-2.26,0.12-3.42-1.4-3.75-3.37
	L147.71,277.25z M136.77,277.13c-0.14,2.62-0.02,2.49-2.58,2.66l-0.04,0.74l7.59,0.4l0.04-0.74c-2.53-0.44-2.42-0.29-2.28-2.92
	l0.67-12.7c0.14-2.62,0.02-2.49,2.57-2.66l0.04-0.74l-7.59-0.4l-0.03,0.74c2.52,0.44,2.41,0.29,2.27,2.92L136.77,277.13z
	 M119.84,276.86l-2.47-0.62c-2.39-0.59-2.56-2.24-3.01-4.27l-0.69-0.17l-0.31,4.38l15.17,3.78l1.78-4.02l-0.68-0.17
	c-1.36,1.59-2.28,2.96-4.67,2.36l-2.47-0.62l3.72-14.89c0.64-2.55,0.49-2.44,3.04-2.12l0.18-0.71l-7.37-1.85l-0.18,0.71
	c2.39,0.92,2.32,0.75,1.67,3.3L119.84,276.86z M112.57,255.04l-7.05-2.85l-0.27,0.69c2.24,1.24,2.19,1.06,1.2,3.5l-1.18,2.94
	c-0.27,0.66-0.62,1.37-1.09,1.79l-7.58,6.17c-1.22,0.97-2.07,1.03-2.8,0.73l-0.28,0.69l5.4,2.18l0.28-0.68
	c-1.55-0.62-2.07-1.72-0.54-2.96l6.27-5.12l0.52,7.86c0.11,1.63-0.11,2.69-2.1,1.89l-0.28,0.68l6.68,2.7l0.28-0.68
	c-1.21-0.48-1.68-1.44-1.85-3.49l-0.81-9.63l1.63-4.04c0.99-2.44,0.83-2.35,3.3-1.68L112.57,255.04z M92.76,257.74
	c-0.39,0.79-0.06,1.74,0.74,2.13c0.8,0.4,1.75,0.06,2.13-0.73c0.4-0.81,0.06-1.75-0.73-2.14C94.09,256.61,93.15,256.95,92.76,257.74
	 M85.71,240.45c-4.99-3.76-11.48-2.57-15.07,2.2c-2.62,3.47-2.96,9.83,1.94,13.53c4.69,3.54,11.19,2.81,14.87-2.07
	C90.74,249.73,90.02,243.7,85.71,240.45 M84.5,240.78c2.91,2.2,3.6,7.1-0.51,12.56c-2.31,3.08-6.48,5.31-10.32,2.42
	c-2.75-2.07-4.02-6.46,0.05-11.85C76,240.89,80.31,237.62,84.5,240.78 M59.2,243.31l-2.77-2.67c-1.47-1.41-0.73-2.87,0.46-4.62
	l-0.53-0.51l-3.16,3.27l9.09,8.78l0.51-0.53c-1.62-1.99-1.64-1.81,0.19-3.7l8.83-9.15c1.83-1.89,1.65-1.87,3.69-0.32l0.51-0.53
	l-5.46-5.28l-0.51,0.53c1.61,1.99,1.63,1.81-0.19,3.7l-4.02,4.17l-1.93-1.86c-1.36-1.32-1.1-2.48-0.01-3.74l-0.53-0.51l-4.2,4.35
	l0.53,0.51c1.26-1.22,2.3-1.2,3.58,0.03l1.94,1.87L59.2,243.31z M53.4,224.1c-0.71,0.53-0.85,1.53-0.32,2.23
	c0.54,0.71,1.53,0.85,2.23,0.31c0.71-0.54,0.84-1.53,0.32-2.23C55.1,223.7,54.11,223.56,53.4,224.1 M50.09,199.46l-13.69,8.23
	c-0.51,0.31-0.98,0.45-1.39,0.64c-0.95,0.4-1.78-0.22-2.58-1.29l-0.63,0.38l3.56,5.93l0.63-0.37c-0.84-1.68-1-2.7-0.2-3.35
	c0.36-0.27,0.71-0.62,1.22-0.93l9.96-5.98l0.02,0.05c-2.21,6.25-4.41,12.68-6.63,18.93l2.65,4.41l0.63-0.38
	c-0.83-1.38-0.5-2.6-0.04-3.8l11.41-6.86c0.51-0.3,0.98-0.45,1.4-0.64c0.95-0.4,1.76,0.2,2.58,1.29l0.63-0.38l-3.57-5.93l-0.62,0.37
	c0.83,1.67,0.99,2.71,0.2,3.35c-0.36,0.27-0.71,0.62-1.22,0.93l-10.71,6.43c2.28-6.75,4.65-13.61,6.89-20.21L50.09,199.46z
	 M48.51,195.88l-4.76-13.07l-5.07,0.95l0.25,0.69c3.29,0.19,4.31-0.4,5.71,3.46c0.87,2.39,1.07,3.5-1.19,4.31l-6.01,2.18l-0.81-2.23
	c-0.65-1.77,0.06-2.73,1.6-3.35l-0.25-0.69l-5.65,2.06l0.25,0.69c1.66-0.55,2.59-0.07,3.2,1.6l0.81,2.23L29,197.48l-1.31-3.62
	c-0.69-1.91,0.57-2.97,2.44-3.95l-0.25-0.7l-4.27,1.56l4.31,11.84l0.01,0.02l0.7-0.25c-0.58-2.49-0.67-2.34,1.8-3.24l11.95-4.35
	c2.47-0.91,2.3-0.96,3.47,1.32L48.51,195.88z M22.28,179.88l1.16,7.31l0.72-0.11c-0.24-1.48,0.77-2.58,3.38-3.8l14.27-6.58
	l-0.19-1.2l-16.04-3.18l14.26-8.01l-0.2-1.29l-17.46-2.56c-1.61-0.22-2.43-1.24-2.56-2.08l-0.73,0.11l0.97,6.14l0.73-0.11
	c-0.33-2.27,0.43-2.87,2.25-2.62c4.16,0.6,8.31,1.15,12.41,1.78l0.01,0.06l-14.03,7.89l0.17,1.06l15.99,3.22l0.01,0.05l-11.48,5.23
	c-1.8,0.86-2.63,0.33-2.91-1.43L22.28,179.88z M30.36,151.66c-0.88,0.05-1.56,0.79-1.51,1.69c0.05,0.89,0.79,1.56,1.67,1.51
	c0.9-0.05,1.56-0.8,1.51-1.68C31.99,152.29,31.24,151.62,30.36,151.66 M23.66,141.23c-2.62-0.14-2.49-0.02-2.66-2.57l-0.74-0.03
	l-0.4,7.59l0.74,0.04c0.44-2.53,0.29-2.42,2.92-2.28l7.87,0.41c4.96,0.26,6.9,1.01,6.84,2.25c-0.03,0.65-0.4,1.14-0.83,1.77
	l-0.56,0.93c-0.1,0.16-0.2,0.39-0.08,0.51l0.56,0.56c0.08,0.1,0.27,0.33,0.48,0.15l1.36-1.07c0.35-0.26,0.37-0.74,0.4-1.08
	c0.06-0.79-0.58-2.44-0.83-2.99c-0.31-0.69-1.69-3.49-7.58-3.8L23.66,141.23z M39.91,136.7l2.41-13.7l-4.86-1.72l-0.13,0.72
	c2.75,1.8,3.93,1.81,3.21,5.85c-0.44,2.51-0.82,3.56-3.19,3.14l-6.29-1.11l0.41-2.34c0.32-1.86,1.42-2.33,3.07-2.1l0.12-0.72
	l-5.92-1.05l-0.13,0.73c1.72,0.36,2.28,1.23,1.98,2.99l-0.41,2.34l-7.97-1.41l0.67-3.78c0.35-2.01,1.98-2.29,4.09-2.21l0.13-0.72
	l-4.49-0.8l-2.18,12.42l-0.01,0.03l0.73,0.13c0.74-2.45,0.59-2.36,3.17-1.91l12.53,2.21c2.58,0.46,2.47,0.32,2.33,2.88L39.91,136.7z
	 M27.06,108.41l0.78-2.03c0.74-1.93,2.36-3.12,5.23-2.02c2.98,1.14,4.31,2.87,3.44,5.16l-0.84,2.18L27.06,108.41z M25.05,113.17
	c1.2-2.27,1.03-2.21,3.48-1.27l11.87,4.56c2.45,0.94,2.36,0.78,1.74,3.27l0.68,0.27l2.73-7.1l-0.69-0.26
	c-1.2,2.26-1.03,2.2-3.48,1.26l-4.88-1.87l0.96-2.49c6.52-1.16,9.72-0.9,10.32-2.45l1.04-2.72l-0.34-0.13
	c-0.91,0.71-3.33,1.48-5.76,2.05l-4.92,1.08c-0.02-2.33-1.25-4.71-3.97-5.76c-3.09-1.19-5.51,0.94-6.53,3.6l-2.95,7.68L25.05,113.17
	z M40.73,86.91l-3.24-1.79c-0.12-0.07-0.24-0.1-0.36,0.02c-0.9,0.8-1.8,2.14-2.39,3.2c-1.58,2.84-1.19,6.29,1.03,7.52
	c2.69,1.49,4.58,0.37,6.21-0.47c4.5-2.36,6.29-2.49,7.9-1.6c1.8,1,2.34,3.17,1.37,4.93c-1.05,1.9-3.14,3.11-6.04,1.85l-0.36,0.65
	l3.56,1.98c0.2,0.11,0.34,0.09,0.45,0.02c1.2-1.01,2.26-2.21,3.13-3.79c1.64-2.97,1.68-6.89-1.25-8.52c-2.06-1.14-3.78-1-7.19,0.54
	c-3.22,1.44-5.22,2.6-6.95,1.64c-1.82-1.01-1.85-2.71-1.06-4.14c1.09-1.98,3-2.14,4.84-1.38L40.73,86.91z M55.87,91.1l8.37-11.11
	l-3.56-3.74l-0.44,0.59c1.63,2.86,2.67,3.39,0.21,6.67c-1.54,2.03-2.35,2.79-4.27,1.34l-5.1-3.84l1.42-1.89
	c1.14-1.52,2.32-1.43,3.69-0.48l0.44-0.59l-4.81-3.62l-0.44,0.58c1.37,1.1,1.47,2.14,0.4,3.56l-1.42,1.89l-6.46-4.86l2.31-3.07
	c1.22-1.63,2.81-1.14,4.65-0.11l0.45-0.58l-3.63-2.74l-7.59,10.06l-0.02,0.02l0.59,0.45c1.78-1.85,1.59-1.85,3.7-0.26l10.15,7.65
	c2.11,1.58,2.06,1.41,0.78,3.62L55.87,91.1z M68.49,75.49l5.08-5.65l-0.54-0.49c-1.93,1.68-1.76,1.7-3.71-0.07l-2.36-2.11
	c-0.52-0.48-1.07-1.05-1.3-1.64l-3.21-9.24c-0.49-1.47-0.26-2.29,0.27-2.88l-0.54-0.49l-3.89,4.32l0.54,0.49
	c1.12-1.24,2.33-1.36,2.97,0.5l2.66,7.65l-7.56-2.21c-1.57-0.45-2.5-1.03-1.06-2.62l-0.55-0.49l-4.82,5.36l0.54,0.49
	c0.87-0.97,1.93-1.09,3.92-0.55l9.32,2.54l3.23,2.91c1.96,1.76,1.93,1.58,0.45,3.67L68.49,75.49z M220.45,161.55l-46.08-5.36
	l43.47,16.23l-44.66-12.5l40.38,22.83l-42.31-19.1l36.48,28.63l-38.46-25.89l31.22,34.39l-33.95-31.6l25.46,38.86l-28.65-36.6
	l19.13,42.44l-22.77-40.46l12.46,44.74l-16.19-43.55l5.33,46.16l-9.13-45.52l-2,46.39l-1.89-46.39l-9.24,45.52l5.36-46.16
	l-16.21,43.55l12.48-44.74l-22.8,40.46l19.07-42.37l-28.59,36.52l25.86-38.51l-34.35,31.25l31.56-33.99L92.6,192.28l36.48-28.63
	l-42.31,19.1l40.4-22.9L82.5,172.41l43.48-16.22l-46.09,5.35l45.46-9.25l-46.34-1.9l46.34-1.91l-45.46-9.23l46.09,5.34L82.5,128.38
	l44.67,12.47l-40.4-22.81l42.31,19.1L92.6,108.52l38.81,25.49l-31.56-33.99l34.35,31.25l-25.86-38.52l28.59,36.52l-19.07-42.37
	l22.8,40.44l-12.48-44.72l16.13,43.53l-5.27-46.14l9.23,45.59l1.89-46.47l1.91,46.39l9.22-45.51l-5.42,46.14l16.27-43.53
	l-12.46,44.72l22.77-40.44l-19.07,42.37l28.59-36.52l-25.45,38.86l33.94-31.6l-31.22,34.4l38.47-25.89l-36.2,29.08l42.03-19.56
	l-40.39,22.89l0.09,0.17l44.58-12.72l-43.53,15.94l0.06,0.19l46.08-5.26l-45.44,9.08v0.07l46.32,2l-46.24,1.81L220.45,161.55z
	 M198.28,147.91l20.45-2.91l-20.66,0.33l-11.44,2.2L198.28,147.91z M185.74,141.84l10.96-3.97l20.35-3.55l-19.75,6.08L185.74,141.84
	z M183.96,136.38l10.2-5.63l19.55-6.7l-18.55,9.1L183.96,136.38z M181.36,131.26l9.2-7.16l18.26-9.68l-16.91,11.89L181.36,131.26z
	 M177.98,126.61l7.97-8.52l16.52-12.42l-14.84,14.39L177.98,126.61z M173.92,122.55l6.53-9.67l14.38-14.86l-12.41,16.55
	L173.92,122.55z M169.28,119.17l4.96-10.56l11.87-16.93l-9.67,18.28L169.28,119.17z M164.17,116.56l3.23-11.21l9.09-18.58
	l-6.69,19.57L164.17,116.56z M158.71,114.78l1.45-11.58l6.07-19.77l-3.55,20.38L158.71,114.78z M153.04,113.89l-0.38-11.66
	l2.91-20.49l-0.32,20.69L153.04,113.89z M147.3,113.89l-2.2-11.45l-0.33-20.69l2.91,20.49L147.3,113.89z M141.64,114.78l-3.96-10.97
	l-3.56-20.38l6.07,19.78L141.64,114.78z M136.18,116.56l-5.63-10.21l-6.7-19.57l9.09,18.58L136.18,116.56z M131.06,119.17
	l-7.16-9.21l-9.67-18.28l11.88,16.93L131.06,119.17z M126.42,122.56l-8.51-7.98l-12.41-16.54l14.38,14.85L126.42,122.56z
	 M122.36,126.61l-9.64-6.54l-14.84-14.39l16.51,12.43L122.36,126.61z M118.99,131.27l-10.56-4.95l-16.9-11.89l18.25,9.68
	L118.99,131.27z M116.39,136.38l-11.19-3.24l-18.55-9.1l19.54,6.7L116.39,136.38z M114.61,141.84l-11.57-1.44l-19.74-6.08
	l20.35,3.55L114.61,141.84z M113.72,147.53l-11.65,0.38l-20.45-2.91l20.66,0.33L113.72,147.53z M113.72,153.28l-11.45,2.19
	l-20.66,0.33l20.46-2.91L113.72,153.28z M114.61,158.95l-10.96,3.97l-20.35,3.56l19.74-6.08L114.61,158.95z M116.39,164.41
	l-10.21,5.63l-19.54,6.7l18.55-9.1L116.39,164.41z M118.99,169.53l-9.2,7.16l-18.26,9.69l16.9-11.9L118.99,169.53z M122.36,174.18
	l-7.97,8.52l-16.51,12.43l14.84-14.4L122.36,174.18z M126.43,178.25l-6.54,9.66l-14.38,14.86l12.41-16.55L126.43,178.25z
	 M131.06,181.63l-4.94,10.56l-11.88,16.92l9.67-18.28L131.06,181.63z M136.18,184.23l-3.24,11.21l-9.09,18.58l6.7-19.57
	L136.18,184.23z M141.64,186.01l-1.45,11.58l-6.07,19.77l3.56-20.38L141.64,186.01z M147.3,186.91l0.38,11.66l-2.91,20.49
	l0.33-20.69L147.3,186.91z M153.04,186.91l2.19,11.45l0.33,20.69l-2.91-20.49L153.04,186.91z M158.71,186.01l3.96,10.97l3.56,20.38
	l-6.07-19.77L158.71,186.01z M164.16,184.23l5.63,10.21l6.7,19.57l-9.09-18.58L164.16,184.23z M169.28,181.62l7.16,9.21l9.67,18.28
	l-11.88-16.93L169.28,181.62z M173.93,178.25l8.5,7.97l12.41,16.54l-14.38-14.86L173.93,178.25z M177.98,174.18l9.64,6.54
	l14.84,14.4l-16.51-12.43L177.98,174.18z M181.36,169.53l10.55,4.96l16.9,11.89l-18.25-9.69L181.36,169.53z M183.96,164.41
	l11.19,3.24l18.55,9.11l-19.54-6.71L183.96,164.41z M185.73,158.95l11.57,1.45l19.74,6.08l-20.35-3.56L185.73,158.95z
	 M186.63,153.28l11.65-0.38l20.46,2.91l-20.66-0.32L186.63,153.28z"/>
<path class="st0" d="M204.91,71.42c-0.03-0.98,0.08-2.38-1.11-3.16c-0.36-0.23-1.32-0.49-1.93,0.45c-0.59,0.91,0.15,1.81,1.24,4.24
	c0.87,1.93,0.81,3.01,0.27,3.84c-1.08,1.66-3.49,1.29-6.1-0.4c-1.87-1.22-2.61-1.92-3.24-2.69c-0.04-0.07-0.06-0.15,0.01-0.24
	l1.36-2.1l0.48,0.31c-0.14,0.98-0.54,2.68,0.95,3.65c0.89,0.57,2.15,0.57,2.76-0.36c0.55-0.85,0.54-1.48-0.74-3.72
	c-1.09-1.91-1.27-3.49-0.8-4.2c0.92-1.43,2.82-1.46,5.85,0.52c1.13,0.74,2.06,1.38,2.68,2.02c0.08,0.11,0.07,0.21,0.03,0.27
	l-1.22,1.89L204.91,71.42z M208.03,84.52c-1.63-1.42-4.11-5.05-1.15-8.46c1.81-2.1,5.74-2.15,8.88,0.58
	c2.57,2.23,3.48,5.84,1.38,8.27C214.53,87.9,210.3,86.5,208.03,84.52 M208.8,84.32c0.86,0.75,2.45,1.31,5.13-1.78
	c2.25-2.59,2.05-4.84,0.91-5.84c-0.92-0.8-2.5-0.88-4.69,1.64C207.88,80.95,207.58,83.27,208.8,84.32 M214.91,90.53l6.71,8.61
	l2.52-1.27l-0.35-0.44c-1.11,0.08-2.64-0.12-3.76-1.56c-0.76-0.98-1.11-1.5-0.26-2.16l5.62-4.4c0.19-0.15,0.4-0.31,0.57-0.36
	c0.21-0.07,0.68,0.3,1.27,1l0.45-0.35l-4.39-5.63l-0.45,0.36c0.53,0.73,0.78,1.28,0.66,1.46c-0.09,0.16-0.29,0.32-0.48,0.47
	l-5.82,4.56c-0.19,0.15-0.4,0.31-0.57,0.36c-0.21,0.07-0.68-0.31-1.25-1L214.91,90.53z M232.05,105.78c1.27-0.74,1.59-2.56,0.71-4.1
	c-0.9-1.55-2.64-2.19-3.9-1.44c-1.3,0.75-1.6,2.56-0.71,4.1C229.04,105.87,230.78,106.51,232.05,105.78 M239.9,113.73
	c0.22-0.11,0.45-0.21,0.64-0.21c0.23-0.02,0.58,0.46,0.98,1.27l0.53-0.23l-2.9-6.52l-0.53,0.24c0.34,0.85,0.45,1.44,0.29,1.59
	c-0.12,0.14-0.36,0.24-0.58,0.34l-6.75,3.01c-0.23,0.1-0.46,0.2-0.64,0.2c-0.23,0.02-0.59-0.46-0.99-1.28l-0.53,0.24l2.9,6.52
	l0.53-0.24c-0.34-0.83-0.45-1.42-0.28-1.58c0.12-0.13,0.35-0.24,0.58-0.34L239.9,113.73z M243.2,123.16
	c0.24-0.06,0.49-0.14,0.66-0.11c0.23,0.01,0.52,0.53,0.8,1.39l0.56-0.16l-1.97-6.86l-0.55,0.16c0.22,0.89,0.25,1.49,0.07,1.62
	c-0.14,0.12-0.39,0.19-0.62,0.26l-4.78,1.37c-2.49,0.71-3.72,2.4-2.49,6.67c0.68,2.38,2.47,4.19,5.05,3.44l4.23-1.21
	c1.42-0.41,1.77-0.72,2.3,0.96l0.56-0.16l-1.16-4.07l-0.55,0.16c0.29,1.13,0.19,1.47-0.21,1.66c-0.35,0.15-0.77,0.27-1.22,0.4
	l-3.95,1.13c-2.29,0.66-3.09-0.31-3.6-2.05c-0.51-1.8,0.32-2.72,1.73-3.12L243.2,123.16z M245.99,142.71l2.23-0.27
	c0.07-0.01,0.16-0.08,0.18-0.21c0.1-0.87-0.02-2.01-0.18-3.35c-0.44-3.59-1.67-5.02-3.37-4.82c-0.84,0.11-1.94,1.25-2.69,3.32
	c-0.88,2.44-1.37,2.84-2.36,2.96c-1.11,0.14-1.93-0.82-2.06-1.88c-0.22-1.76,1.34-2.55,2.18-3.07l-0.07-0.56l-2.48,0.3
	c-0.12,0.02-0.18,0.08-0.2,0.15c-0.18,0.98-0.24,2.01,0.02,4.22c0.38,3.09,1.65,5.18,3.61,4.94c0.98-0.11,1.85-0.76,2.77-2.68
	c1.16-2.39,1.37-3.54,2.44-3.67c1.12-0.14,1.53,0.77,1.59,1.19c0.17,1.42-0.97,2.22-1.7,2.88L245.99,142.71z M247.99,154.68
	l-0.02,1.36c-0.03,1.53-0.74,1.96-1.62,2.73l-0.01,0.57l2.34-0.47l0.21-12.2l-2.31-0.55l-0.02,0.57c0.86,0.8,1.55,1.23,1.52,2.78
	l-0.03,1.35l-8.25-0.14c-0.24-0.01-0.5-0.01-0.67-0.09c-0.21-0.07-0.34-0.67-0.35-1.58l-0.58-0.01l-0.13,7.13l0.58,0.01
	c0.04-0.89,0.19-1.47,0.4-1.55c0.17-0.07,0.43-0.06,0.67-0.06L247.99,154.68z M245.62,167.32c0.24,0.04,0.49,0.08,0.65,0.18
	c0.2,0.1,0.24,0.7,0.14,1.59l0.57,0.1l1.12-7.05l-0.58-0.09c-0.17,0.9-0.4,1.46-0.62,1.49c-0.18,0.05-0.44,0.01-0.68-0.03
	l-7.29-1.16c-0.24-0.03-0.49-0.07-0.65-0.17c-0.2-0.11-0.24-0.71-0.13-1.62l-0.58-0.09l-1.12,7.05l0.58,0.09
	c0.17-0.88,0.4-1.44,0.62-1.48c0.18-0.04,0.44,0,0.67,0.03L245.62,167.32z M243.86,179.29l-0.33,1.31c-0.36,1.49-1.15,1.75-2.18,2.3
	l-0.14,0.55l2.39,0.07l2.95-11.84l-2.14-1.06l-0.14,0.55c0.66,0.97,1.23,1.55,0.86,3.06l-0.33,1.31l-8.01-2
	c-0.24-0.06-0.49-0.12-0.63-0.24c-0.19-0.12-0.18-0.72,0.02-1.62l-0.56-0.14l-1.72,6.92l0.56,0.14c0.24-0.86,0.52-1.39,0.74-1.42
	c0.18-0.02,0.43,0.03,0.66,0.1L243.86,179.29z M238.34,191.39c0.22,0.1,0.45,0.2,0.58,0.34c0.17,0.15,0.06,0.74-0.29,1.58l0.53,0.24
	l2.9-6.52l-0.53-0.24c-0.4,0.83-0.76,1.3-0.99,1.29c-0.18,0-0.41-0.11-0.64-0.21l-6.75-3c-0.22-0.11-0.45-0.21-0.58-0.34
	c-0.16-0.15-0.05-0.74,0.29-1.59l-0.53-0.24l-2.9,6.51l0.53,0.24c0.4-0.8,0.76-1.29,0.98-1.26c0.19,0,0.42,0.11,0.64,0.2
	L238.34,191.39z M229.85,195.15l-0.96-1.23c-0.46-0.61-0.93-0.71-1.38,0.07l-0.5-0.28l1.98-3.43l0.5,0.29
	c-0.28,0.48-0.5,1.37,0.05,2.35c0.45,0.81,3.5,5.32,5.63,8.33l-0.74,1.28c-1.87-0.08-7.99-0.45-9.78-0.62
	c-0.79-0.08-1.91,0.37-2.31,1.05l-0.5-0.29l3.23-5.59l0.49,0.29c-0.4,0.69-0.17,1.13,0.56,1.2l1.66,0.16L229.85,195.15z
	 M228.73,198.79l3.98,0.44l-2.31-3.33L228.73,198.79z M220.83,203.82l-7.3,8.12l1.69,2.27l0.38-0.42c-0.27-1.08-0.34-2.62,0.88-3.98
	c0.83-0.93,1.28-1.36,2.03-0.68l2.48,2.23l-0.98,1.08c-0.82,0.92-1.72,0.58-2.27,0.1l-0.37,0.42l2.97,2.68l0.38-0.42
	c-0.61-0.47-0.91-1.41-0.14-2.27l0.98-1.09l2.95,2.66l-1.37,1.52c-0.82,0.91-1.73,0.87-2.72,0.5l-0.38,0.42l1.82,1.64l6.88-7.65
	l-0.43-0.39c-0.62,0.65-1.12,0.99-1.32,0.9c-0.18-0.06-0.36-0.23-0.55-0.4l-5.49-4.95c-0.18-0.16-0.37-0.34-0.45-0.5
	c-0.11-0.2,0.18-0.73,0.75-1.42L220.83,203.82z M208.89,223.47c0.99,1.1,2.84,1.03,4.15-0.16c1.34-1.2,1.6-3.04,0.6-4.12
	c-1-1.11-2.84-1.03-4.16,0.16C208.17,220.54,207.9,222.37,208.89,223.47 M201.76,222.41l-9.15,5.95l1.05,2.62l0.47-0.31
	c0.02-1.12,0.35-2.62,1.89-3.62c1.04-0.68,1.59-0.98,2.14-0.12l1.81,2.79l-1.22,0.8c-1.03,0.66-1.82,0.11-2.22-0.5l-0.48,0.31
	l2.18,3.36l0.48-0.31c-0.46-0.6-0.51-1.59,0.45-2.22l1.23-0.8l2.16,3.34l-1.71,1.12c-1.03,0.66-1.9,0.4-2.76-0.23l-0.48,0.31
	l1.33,2.06l8.63-5.61l-0.31-0.49c-0.77,0.47-1.34,0.67-1.51,0.54c-0.16-0.11-0.29-0.32-0.42-0.53l-4.03-6.21
	c-0.13-0.2-0.27-0.42-0.3-0.6c-0.06-0.22,0.36-0.66,1.09-1.16L201.76,222.41z M187.7,241.55l-1.22,0.6
	c-1.38,0.67-2.08,0.24-3.16-0.2l-0.51,0.25l1.48,1.87l10.95-5.35l-0.56-2.32l-0.51,0.25c-0.32,1.13-0.4,1.94-1.8,2.62l-1.21,0.59
	l-3.62-7.43c-0.11-0.22-0.22-0.45-0.23-0.63c-0.02-0.22,0.44-0.61,1.25-1.04l-0.25-0.52l-6.41,3.12l0.26,0.53
	c0.82-0.36,1.4-0.5,1.56-0.34c0.14,0.11,0.25,0.35,0.36,0.57L187.7,241.55z M172.06,241.9c0.4,1.42,2.1,2.17,3.8,1.68
	c1.72-0.49,2.76-2.03,2.34-3.45c-0.41-1.43-2.11-2.17-3.8-1.67C172.69,238.94,171.64,240.48,172.06,241.9 M159.64,238.36
	c2.14-0.27,6.5,0.32,7.05,4.81c0.33,2.75-2.25,5.71-6.39,6.22c-3.37,0.41-6.65-1.32-7.05-4.5
	C152.77,240.94,156.64,238.72,159.64,238.36 M159.26,239.07c-1.13,0.14-2.61,0.95-2.11,5.02c0.41,3.4,2.22,4.75,3.72,4.57
	c1.22-0.15,2.33-1.27,1.93-4.58C162.38,240.64,160.86,238.87,159.26,239.07 M139.57,241.71c1.03-1.51,2.6-2.53,4.18-2.44
	c2.54,0.13,3.38,2.48,3.22,5.26c-0.16,2.74-1.64,4.64-3.82,4.52c-1.81-0.1-2.69-1.5-3.29-2.65l-0.57-0.02l-0.1,1.96
	c-0.02,0.24,0.17,0.47,0.68,0.63c0.87,0.29,1.7,0.61,3.33,0.69c5.95,0.31,7.61-2.71,7.73-5.06c0.18-3.55-2.32-5.7-6.85-5.93
	c-1.47-0.08-2.95,0.27-3.47,0.38c-0.61,0.15-0.95,0.21-1.05,0.52l-0.57,2.11L139.57,241.71z M127.06,239.65
	c1.18-1.4,2.85-2.24,4.42-1.99c2.51,0.4,3.11,2.82,2.65,5.57c-0.44,2.7-2.11,4.44-4.27,4.09c-1.79-0.28-2.52-1.76-2.99-2.97
	l-0.56-0.09L126,246.2c-0.03,0.24,0.13,0.49,0.61,0.7c0.84,0.38,1.64,0.78,3.24,1.04c5.89,0.94,7.85-1.89,8.22-4.21
	c0.56-3.52-1.71-5.92-6.18-6.63c-1.47-0.23-2.98-0.04-3.51,0.02c-0.62,0.09-0.96,0.11-1.1,0.41l-0.78,2.03L127.06,239.65z
	 M117.79,242.72c-0.08,0.24-0.16,0.48-0.28,0.61c-0.14,0.18-0.74,0.12-1.6-0.15l-0.19,0.55l6.74,2.32l0.19-0.55
	c-0.85-0.32-1.36-0.65-1.36-0.87c-0.02-0.18,0.07-0.43,0.15-0.66l2.4-6.99c0.08-0.24,0.16-0.48,0.28-0.6
	c0.14-0.18,0.74-0.12,1.61,0.15l0.19-0.54l-6.74-2.32l-0.18,0.54c0.83,0.33,1.34,0.65,1.34,0.87c0.02,0.19-0.07,0.43-0.15,0.66
	L117.79,242.72z M105.75,239.47c-3.31-1.69-5.08-4.7-3.65-7.5c2.07-4.07,6.17-3.17,9.32-1.56l5.94,3.04l-0.26,0.51
	c-0.81-0.38-1.41-0.53-1.57-0.37c-0.15,0.11-0.26,0.35-0.37,0.57l-3.35,6.59c-0.11,0.22-0.24,0.45-0.24,0.63
	c-0.03,0.22,0.45,0.62,1.23,1.05l-0.27,0.52L105.75,239.47z M111.47,232.89c0.6-1.18,0.77-1.38-0.03-1.79
	c-1.9-0.97-4.17-0.79-5.91,2.62c-1.31,2.57-0.62,4.64,2.09,6.02l0.29,0.15L111.47,232.89z M103.73,226.52l-8.71-6.57l-2.11,1.88
	l0.45,0.34c1.05-0.36,2.58-0.57,4.04,0.54c1,0.74,1.46,1.16,0.85,1.97l-2.01,2.67l-1.16-0.88c-0.98-0.74-0.73-1.68-0.29-2.26
	l-0.45-0.34l-2.4,3.2l0.45,0.34c0.41-0.64,1.32-1.03,2.23-0.33l1.18,0.88l-2.39,3.18l-1.64-1.23c-0.98-0.74-1.03-1.65-0.74-2.67
	l-0.45-0.34l-1.47,1.95l8.22,6.2l0.35-0.46c-0.7-0.57-1.09-1.03-1.01-1.24c0.04-0.18,0.19-0.39,0.34-0.58l4.45-5.91
	c0.15-0.2,0.3-0.4,0.46-0.49c0.18-0.13,0.73,0.11,1.46,0.63L103.73,226.52z M84.48,210.7l-5.43,6.05c-0.32,0.35-0.6,0.69-0.91,0.92
	c-0.35,0.27-0.7,0.2-1.58-0.54l-0.39,0.43l3.61,3.25l0.39-0.43c-1.3-1.21-1.38-1.53-1.13-1.9c0.21-0.32,0.49-0.66,0.81-1.01
	l3.04-3.38l0.03,0.02c0.1,2.85,0.14,7.07-0.03,9.5l4.23,3.81l0.38-0.44c-0.85-0.77-1.17-1.84-0.93-2.89l4.02-4.49
	c0.31-0.35,0.62-0.66,0.92-0.91c0.35-0.28,0.67-0.23,1.56,0.53l0.39-0.43l-3.6-3.24l-0.38,0.43c1.26,1.19,1.38,1.53,1.13,1.91
	c-0.2,0.33-0.51,0.65-0.83,1l-3.4,3.78l-0.02-0.02c-0.12-3.39-0.07-8.27,0.13-10.13L84.48,210.7z M70.19,208.18l-0.81-1.08
	c-0.92-1.23-0.63-2-0.41-3.15l-0.34-0.45l-1.55,1.8l7.34,9.75l2.16-0.99l-0.34-0.45c-1.16-0.11-1.98-0.02-2.91-1.26l-0.82-1.09
	l6.6-4.97c0.2-0.15,0.4-0.31,0.58-0.35c0.22-0.07,0.68,0.32,1.25,1.03l0.46-0.35l-4.29-5.7l-0.46,0.35
	c0.51,0.74,0.75,1.29,0.63,1.47c-0.09,0.15-0.3,0.31-0.49,0.46L70.19,208.18z M75.01,197.87l-5.45-9.46l-2.67,0.91l0.29,0.49
	c1.12,0.08,2.6,0.49,3.51,2.07c0.62,1.08,0.89,1.63,0.01,2.14l-2.88,1.67l-0.73-1.26c-0.62-1.06-0.02-1.83,0.62-2.2l-0.28-0.49
	l-3.47,2.01l0.28,0.49c0.63-0.43,1.61-0.42,2.19,0.58l0.74,1.26l-3.44,1.99l-1.02-1.77c-0.62-1.06-0.3-1.92,0.36-2.75l-0.28-0.49
	l-2.12,1.22l5.14,8.92l0.5-0.29c-0.42-0.78-0.59-1.36-0.45-1.53c0.11-0.15,0.33-0.28,0.54-0.4l6.4-3.7
	c0.21-0.12,0.43-0.25,0.62-0.27c0.22-0.05,0.63,0.4,1.1,1.16L75.01,197.87z M59.08,190.58l0.54-0.2c-0.34-0.93-0.12-1.84,0.57-2.62
	l5.75-2.09c0.44-0.16,0.86-0.32,1.23-0.4c0.44-0.08,0.71,0.13,1.14,1.22l0.54-0.19l-1.47-4.02l-0.54,0.19
	c0.36,1.09,0.3,1.45-0.09,1.67c-0.33,0.2-0.74,0.35-1.19,0.51l-4.43,1.62l-0.01-0.03l5.38-6.33l-0.17-0.46l-8.31-1.72l-0.01-0.03
	l5.27-1.92c0.23-0.09,0.47-0.18,0.66-0.16c0.23-0.01,0.56,0.52,0.89,1.34l0.55-0.19l-2.44-6.73l-0.54,0.2
	c0.28,0.85,0.36,1.47,0.18,1.61c-0.13,0.12-0.37,0.21-0.61,0.29l-6.63,2.42c-0.97,0.36-1.42,0.15-1.89-1.16l-0.54,0.2l1.54,4.23
	l8,1.74l-5.12,6.17L59.08,190.58z M56.58,159.56c-1.47,0.18-2.47,1.74-2.26,3.5c0.22,1.78,1.57,3.05,3.04,2.86
	c1.48-0.19,2.47-1.74,2.25-3.51C59.39,160.64,58.04,159.37,56.58,159.56 M52.51,149.2c-0.24,0-0.5,0.01-0.66-0.06
	c-0.22-0.07-0.36-0.66-0.41-1.55l-0.57,0.01l0.12,7.13l0.58-0.01c0.01-0.91,0.14-1.51,0.35-1.58c0.17-0.07,0.43-0.08,0.67-0.09
	l7.39-0.12c0.24-0.01,0.5-0.02,0.67,0.06c0.22,0.07,0.36,0.66,0.41,1.57l0.58-0.02l-0.12-7.13l-0.58,0.01
	c-0.02,0.9-0.14,1.49-0.35,1.56c-0.17,0.08-0.43,0.08-0.67,0.09L52.51,149.2z M61.37,145.52l1.7-10.79l-2.65-0.97l-0.09,0.56
	c0.82,0.76,1.72,2.02,1.43,3.82c-0.19,1.23-0.34,1.84-1.41,1.67l-7.04-1.11c-0.24-0.04-0.49-0.08-0.65-0.18
	c-0.2-0.11-0.24-0.71-0.13-1.62l-0.58-0.09l-1.11,7.05l0.57,0.09c0.17-0.88,0.4-1.43,0.62-1.47c0.17-0.05,0.43-0.01,0.67,0.03
	l7.29,1.16c0.24,0.03,0.5,0.07,0.66,0.18c0.2,0.11,0.24,0.71,0.13,1.6L61.37,145.52z M63.23,133.14l2.64-10.6l-2.56-1.21l-0.14,0.55
	c0.75,0.83,1.54,2.16,1.09,3.94c-0.3,1.2-0.49,1.8-1.54,1.54l-6.92-1.73c-0.24-0.06-0.49-0.12-0.63-0.24
	c-0.2-0.12-0.19-0.72,0.01-1.62l-0.56-0.14l-1.72,6.92l0.56,0.15c0.25-0.87,0.52-1.4,0.74-1.42c0.18-0.03,0.43,0.03,0.67,0.09
	l7.16,1.79c0.24,0.06,0.49,0.12,0.63,0.24c0.19,0.12,0.18,0.72,0,1.6L63.23,133.14z M60.04,112.85c-0.22-0.1-0.46-0.2-0.58-0.34
	c-0.16-0.15-0.05-0.74,0.29-1.57l-0.53-0.24l-2.9,6.52l0.53,0.24c0.4-0.83,0.76-1.3,0.99-1.29c0.19,0.01,0.42,0.11,0.64,0.21
	l4.55,2.02c2.35,1.05,4.38,0.55,6.18-3.51c1-2.25,0.8-4.78-1.66-5.89l-4.02-1.79c-1.35-0.6-1.82-0.59-1.15-2.21l-0.53-0.24
	l-1.71,3.86l0.53,0.24c0.5-1.05,0.79-1.25,1.22-1.13c0.37,0.11,0.78,0.29,1.2,0.48l3.75,1.67c2.18,0.97,2.17,2.23,1.43,3.89
	c-0.76,1.71-1.98,1.88-3.33,1.28L60.04,112.85z M70.34,96.02l-1.89-1.23c-0.07-0.04-0.17-0.04-0.27,0.04
	c-0.63,0.62-1.28,1.55-2.02,2.69c-1.97,3.04-1.94,4.93-0.52,5.85c0.72,0.47,2.3,0.29,4.2-0.8c2.24-1.29,2.87-1.29,3.72-0.74
	c0.93,0.61,0.94,1.88,0.36,2.77c-0.96,1.48-2.67,1.08-3.64,0.95l-0.31,0.47l2.09,1.36c0.1,0.07,0.18,0.06,0.25,0.01
	c0.77-0.63,1.47-1.38,2.69-3.24c1.69-2.61,2.07-5.03,0.4-6.1c-0.82-0.54-1.91-0.61-3.84,0.27c-2.43,1.09-3.33,1.83-4.23,1.24
	c-0.95-0.62-0.68-1.58-0.45-1.93c0.78-1.19,2.17-1.08,3.15-1.11L70.34,96.02z M76.57,85.3l0.91-1c1.03-1.14,1.84-1,3.01-1l0.38-0.42
	l-2.07-1.18l-8.16,9.07l1.39,1.94l0.38-0.42c-0.12-1.17-0.36-1.94,0.68-3.1l0.91-1l6.14,5.53c0.18,0.16,0.37,0.34,0.45,0.5
	c0.11,0.19-0.18,0.72-0.77,1.42l0.43,0.39l4.77-5.3l-0.43-0.39c-0.62,0.65-1.12,0.99-1.32,0.9c-0.18-0.06-0.36-0.23-0.55-0.39
	L76.57,85.3z M88.39,80l0.66-0.58c1.23-1.12,0.49-2.32-0.15-3.03c-1.08-1.22-1.87-1.24-2.74-0.45l-0.79,0.71L88.39,80z M80.79,79.78
	l6.1-5.5c1.81-1.64,3.74-2.21,5.06-0.74c0.74,0.83,0.82,2.44-0.33,4.03c2.11,0.24,4.34,0.37,6.41,0.45l0.26,0.29l-2.87,2.6
	c-0.88,0.79-3.84-0.58-5.95-0.87l-0.57,0.52l2.02,2.24c0.16,0.18,0.33,0.37,0.5,0.44c0.2,0.11,0.72-0.18,1.41-0.75l0.38,0.43
	l-5.29,4.78l-0.38-0.44c0.66-0.63,0.99-1.13,0.91-1.33c-0.06-0.17-0.23-0.36-0.39-0.54l-4.95-5.51c-0.16-0.18-0.34-0.37-0.5-0.44
	c-0.19-0.11-0.72,0.18-1.42,0.77L80.79,79.78z M100.85,73.22l0.21,1.55c0.1,0.75,0.45,1.08,1.23,0.62l0.29,0.5l-3.43,1.97
	l-0.28-0.49c0.49-0.29,1.12-0.95,1.13-2.07c0.02-0.92-0.38-6.36-0.72-10.03l1.28-0.74c1.57,1.01,6.69,4.4,8.15,5.43
	c0.66,0.47,1.85,0.64,2.53,0.25l0.29,0.5l-5.59,3.23l-0.29-0.5c0.7-0.4,0.71-0.89,0.13-1.32l-1.36-0.97L100.85,73.22z M103.63,70.63
	l-3.22-2.37l0.34,4.04L103.63,70.63z M134.06,52.74l-6.27,2.5l0.31,0.66l0.83-0.36c0.69-0.31,1.77-0.61,1.87,0.03l0.99,6.24
	c0.09,0.55,0.13,0.78,0.12,1.2c-0.02,0.36-0.71,0.49-2.04,0.78l0.09,0.57l8.03-1.27l-0.1-0.57c-1.4,0.15-2.09,0.22-2.22-0.11
	c-0.15-0.39-0.19-0.62-0.27-1.17L134.06,52.74z M146.09,54.06c-1.86,2.91-3.91,5.76-5.95,8.67l3.19-0.17
	c1.45-2.7,4.48-8.07,5.49-10.12l-0.04-0.84l-8.73,0.46l0.16,2.98l0.69-0.03c0.41-0.63,1.3-0.74,2.14-0.78L146.09,54.06z
	 M159.29,52.66c-3.1-0.19-5.34,1.75-5.94,3.97c0.76-0.26,1.6-0.67,2.97-0.6c1.93,0.1,3.62,1.22,3.48,3.49
	c-0.12,1.85-1.94,3.34-5.11,3.17c-3.16-0.16-5.15-2.23-4.98-4.88c0.27-3.28,4.16-5.94,9.61-5.91L159.29,52.66z M153.06,58.79
	c-0.17,1.77,0.58,2.94,1.76,3c1.16,0.06,1.76-1.16,1.81-2.16c0.07-1.38-0.47-2.56-1.71-2.62C153.94,56.96,153.11,57.64,153.06,58.79
	 M171.9,54.59c-3.06-0.52-5.49,1.18-6.31,3.33c0.78-0.18,1.67-0.5,3.03-0.29c1.91,0.31,3.47,1.6,3.09,3.84
	c-0.32,1.83-2.27,3.13-5.42,2.62c-3.12-0.49-4.89-2.76-4.44-5.37c0.61-3.24,4.75-5.48,10.17-4.88L171.9,54.59z M165.07,60.04
	c-0.36,1.75,0.27,2.99,1.44,3.17c1.15,0.19,1.87-0.96,2.03-1.96c0.22-1.37-0.2-2.59-1.43-2.78
	C166.14,58.31,165.25,58.9,165.07,60.04"/>
</svg>
