<?xml version="1.0" encoding="utf-8"?>
<!-- Generator: Adobe Illustrator 18.1.0, SVG Export Plug-In . SVG Version: 6.00 Build 0)  -->
<svg version="1.1" id="图层_1" xmlns="http://www.w3.org/2000/svg" xmlns:xlink="http://www.w3.org/1999/xlink" x="0px" y="0px"
	 width="316" height="316" 
viewBox="0 0 226.8 226.8" enable-background="new 0 0 226.8 226.8" xml:space="preserve">
<g>
	<g>
		<path fill="#940040" d="M134.2,27.3c-0.7,4.2-3.8,5.8-7.7,5.2c-4.4-0.7-6.8-3.1-6.4-6l1.9-12.2c0.3-2.2-2.2-1.5-2.1-2.3
			c0-0.2,0.2-0.3,0.6-0.3c1.4,0.2,2.8,0.5,3.9,0.7c1.1,0.2,2.5,0.3,3.9,0.6c0.4,0.1,0.5,0.2,0.5,0.5c-0.1,0.8-2.4-0.7-2.7,1.6
			l-1.9,12.2c-0.4,2.3,1.3,4.4,3.6,4.7c2.9,0.5,5.2-1.1,5.8-4.5l1.3-8.5c0.4-2.4-0.3-3.9-1.5-4.5c-0.4-0.2-0.8-0.3-0.8-0.6
			c0-0.2,0.1-0.3,0.4-0.2c0.7,0.1,1.8,0.3,3,0.5c1.1,0.2,2.2,0.3,3,0.4c0.3,0.1,0.4,0.2,0.3,0.4c0,0.3-0.5,0.2-0.9,0.3
			c-1.4,0.2-2.5,1.4-2.8,3.9L134.2,27.3z"/>
		<path fill="#940040" d="M142.6,31.4c-0.9,2.1-0.5,3.3,0.2,4c0.6,0.6,1.4,0.7,1.2,1.1c-0.1,0.2-0.2,0.3-0.5,0.1
			c-0.9-0.4-1.9-0.9-2.9-1.4c-1.1-0.5-2.1-0.9-3-1.3c-0.3-0.1-0.3-0.3-0.2-0.4c0.2-0.4,0.8,0.1,1.6,0.1c0.9,0,2.1-0.5,3-2.6l5-11.3
			c-0.3-1.6-0.9-2.3-1.7-2.7c-0.4-0.2-0.6-0.3-0.4-0.6c0.1-0.2,0.2-0.2,0.4-0.1c0.9,0.4,1.8,0.9,2.8,1.3l2.9,1.3l4.1,15.7l0.1,0
			l3.4-7.7c0.9-2.1,0.5-3.3-0.2-4c-0.6-0.6-1.4-0.7-1.2-1.1c0.1-0.2,0.2-0.3,0.5-0.1c0.9,0.4,1.9,0.9,2.9,1.4c1.1,0.5,2.1,0.9,3,1.3
			c0.3,0.1,0.3,0.3,0.2,0.4c-0.2,0.4-0.8-0.1-1.6-0.1c-0.9,0-2.1,0.5-3,2.6l-5.9,13.3c-0.2,0.5-0.4,0.8-0.6,0.8
			c-0.2-0.1-0.3-0.5-0.4-0.9l-5-19.5l-0.1,0L142.6,31.4z"/>
		<path fill="#940040" d="M169.5,31.4c1.3-1.8-1.3-2.4-0.8-3c0.1-0.2,0.3-0.2,0.7,0c1.2,0.8,2.2,1.7,3.2,2.3
			c0.9,0.7,2.1,1.4,3.2,2.2c0.4,0.3,0.4,0.4,0.2,0.6c-0.5,0.6-1.8-1.7-3.1,0.2l-8.5,11.9c-1.3,1.8,1.3,2.4,0.8,3
			c-0.1,0.2-0.3,0.2-0.7,0c-1.2-0.8-2.2-1.7-3.2-2.3c-0.9-0.7-2.1-1.4-3.2-2.2c-0.4-0.3-0.4-0.4-0.2-0.6c0.5-0.6,1.8,1.7,3.1-0.2
			L169.5,31.4z"/>
		<path fill="#940040" d="M187.3,50.8c0.6-0.2,1.2-0.6,1.6-1c2-1.9-0.2-3.2,0.3-3.7c0.1-0.1,0.3-0.1,0.6,0.1
			c0.7,0.7,1.3,1.4,1.9,2.1c0.6,0.7,1.3,1.3,2,2c0.4,0.4,0.5,0.7,0.4,0.9c-0.6,0.6-1.3-1.8-5.4-0.2l-15.1,5.8
			c-0.3,0.1-0.7,0.2-0.8,0.1c-0.1-0.1,0-0.4,0.2-0.8l7.3-16.3c1-2.4-0.6-3-0.2-3.4c0.1-0.1,0.3-0.1,0.5,0.1c1,1,1.8,2,2.7,3
			c0.9,0.9,1.8,1.8,2.7,2.8c0.3,0.4,0.4,0.6,0.2,0.7c-0.4,0.4-1.3-1.5-2.3-0.5c-0.3,0.3-0.5,0.6-0.6,0.9l-5.2,11L187.3,50.8z"/>
		<path fill="#940040" d="M195.5,57.1c1.9-1.2-0.3-2.7,0.4-3.1c0.2-0.1,0.4-0.1,0.6,0.3c0.7,1.2,1.4,2.4,2,3.4
			c1.8,3,3.5,5.9,5.3,8.7l-3.9,4c-0.3,0.3-0.5,0.5-0.5,0.5c-0.1,0.1-0.2,0-0.3-0.1c-0.1-0.2,0.3-0.4,1.3-2.3
			c1.2-2.3,1.3-4.4-0.5-7.4l-0.8-1.3l-7,4.2l0.4,0.6c1,1.7,3,2.2,4.8,1.2c0.5-0.3,0.7-0.3,0.8,0c0.1,0.1,0,0.3-0.2,0.4l-7.4,4.4
			c-0.2,0.1-0.4,0.1-0.5,0c-0.1-0.2-0.1-0.4,0.4-0.7c2.1-1.4,2.5-3.3,1.5-5l-0.4-0.6l-6.1,3.7c-1.1,0.7-1.4,1.5-0.5,3
			c2.3,3.8,6.2,4.2,9,3.5c0.5-0.1,0.8-0.2,0.9,0c0.1,0.2,0,0.3-0.1,0.4c-0.1,0.1-0.5,0.2-0.8,0.3l-6,2.2c-1.9-3.2-3.8-6.5-5.8-9.8
			c-0.6-1-1.3-2.1-2.1-3.3c-0.2-0.4-0.2-0.6,0-0.7c0.7-0.4,1,2.2,2.9,1.1L195.5,57.1z"/>
		<path fill="#940040" d="M199.6,89.1c1.2-1.1,1.3-2.5,0.8-4l-6.5,1.9c-2.2,0.6-0.4,2.7-1.2,2.9c-0.2,0.1-0.4,0-0.5-0.4
			c-0.4-1.4-0.7-2.7-1.1-3.8c-0.3-1.1-0.8-2.4-1.2-3.8c-0.1-0.4,0-0.6,0.2-0.6c0.8-0.2,0.4,2.4,2.6,1.8l14.1-4.1
			c2.2-0.6,0.4-2.7,1.2-2.9c0.2-0.1,0.4,0,0.5,0.4c0.4,1.4,0.7,2.7,1.1,3.8c0.4,1.4,0.8,2.5,1.3,4.3c1.4,4.6,0,7.7-2.7,8.5
			c-2.3,0.7-4.6-0.2-6.8-5.6l-0.1,0c0.9,2.9,0.6,4.7-1.1,6.3l-3.3,3.2c-1.8,1.7-0.3,3.2-1,3.5c-0.2,0-0.3,0.1-0.4-0.2
			c-0.3-1-0.5-2-0.8-2.9l-0.9-2.9L199.6,89.1z M200.9,84.9l0.3,1.1c0.9,3.1,2.8,4,5.7,3.1c3-0.9,3.8-2.7,3.1-5l-0.5-1.7L200.9,84.9z
			"/>
		<path fill="#940040" d="M203.3,101.9c0.3,0,0.4,0.1,0.4,0.3c0,0.3-0.4,0.3-1,0.4c-3.6,0.9-7.1,2.4-6.9,6.6
			c0.1,2.9,1.7,4.4,3.9,4.3c5.7-0.3,2.4-11.4,9.4-11.8c3.3-0.2,6,2.5,6.1,6c0.1,2.7-0.9,4.1-0.9,4.9c0,1,0.8,0.5,0.8,1
			c0,0.2-0.1,0.3-0.5,0.4l-5.3,0.8c-0.5,0.1-0.8,0.1-0.9,0.1c-0.2,0-0.3-0.1-0.3-0.2c0-0.3,0.6-0.3,1.7-0.8c3.1-1.4,4.9-3,4.7-6.1
			c-0.1-2-1.1-3.5-3.2-3.4c-4.6,0.2-1.5,11.6-9.2,11.9c-3.8,0.2-6.8-2.8-7-7.1c-0.1-2.8,1.1-4.2,1-5.3c-0.1-1.1-1-0.9-1-1.4
			c0-0.1,0-0.2,0.2-0.2L203.3,101.9z"/>
		<path fill="#940040" d="M212,124.5c2.2,0.3,1.5-2.3,2.3-2.2c0.2,0,0.3,0.2,0.3,0.6c-0.2,1.4-0.4,2.8-0.6,3.9
			c-0.2,1.1-0.3,2.5-0.5,3.9c-0.1,0.4-0.2,0.5-0.4,0.5c-0.8-0.1,0.6-2.4-1.6-2.7l-14.5-2c-2.2-0.3-1.5,2.3-2.3,2.2
			c-0.2,0-0.3-0.2-0.3-0.6c0.2-1.4,0.4-2.8,0.6-3.9s0.3-2.5,0.5-3.9c0.1-0.4,0.2-0.5,0.4-0.5c0.8,0.1-0.6,2.4,1.6,2.7L212,124.5z"/>
		<path fill="#940040" d="M209.6,143.4c0.3-5.8-3.7-7.5-3.5-8.1c0-0.1,0.2-0.2,0.3-0.2c0.1,0,0.5,0.2,0.9,0.5l4.6,2.5
			c0.4,0.2,0.5,0.3,0.4,0.5c0,0.1-0.2,0.2-0.3,0.3c-0.1,0.1-0.3,0.2-0.5,0.6l-4,12c-0.1,0.4,0,0.6,0,0.8c0.1,0.2,0.1,0.3,0.1,0.4
			c0,0.1-0.2,0.2-0.6,0.1l-5.2-0.8c-0.5-0.1-0.9-0.2-1-0.2c-0.2-0.1-0.2-0.2-0.2-0.3c0.2-0.6,4.4,0.5,7.7-4.3l-14.9-5
			c-1.7-0.6-2.4,0.1-2.8,1.4c-0.1,0.3-0.2,0.5-0.5,0.4c-0.2-0.1-0.3-0.2-0.2-0.5c0.5-1.5,1-2.9,1.5-4.1c0.4-1.3,0.8-2.6,1.3-4.2
			c0.1-0.3,0.2-0.4,0.4-0.3c0.3,0.1,0.3,0.3,0.2,0.6c-0.4,1.3-0.3,2.3,1.4,2.8L209.6,143.4z"/>
		<path fill="#940040" d="M190.6,163.2l2.1,3.9c0.7,1.3,1.6,2.2,2.3,2.6c1.6,1,2.3-0.6,2.7-0.4c0.1,0.1,0.2,0.3,0,0.6
			c-0.5,0.8-0.9,1.3-1.5,2.3c-0.5,0.7-0.9,1.5-1.3,2.3c-0.1,0.2-0.3,0.2-0.4,0.1c-0.5-0.3,0.9-1-1.5-5.7l-3-5.8l-5.8-3.6
			c-1.9-1.2-2.3,1.5-2.9,1c-0.2-0.1-0.3-0.3,0-0.7c0.8-1.2,1.5-2.3,2.1-3.3c0.6-1,1.3-2.1,2-3.4c0.2-0.4,0.4-0.4,0.6-0.3
			c0.7,0.4-1.6,1.9,0.4,3.1l5.3,3.3l9.4,0.5c2.5,0.2,2.8-1.6,3.3-1.3c0.2,0.1,0.2,0.3,0,0.6c-0.7,1.2-1.5,2.3-2.2,3.4
			c-0.7,1.1-1.3,2.3-2,3.4c-0.2,0.4-0.4,0.5-0.6,0.4c-0.5-0.3,1-1.5-0.3-2.3c-0.4-0.3-0.9-0.3-1.6-0.4L190.6,163.2z"/>
	</g>
	<g>
		<path fill="#940040" d="M42.1,169.1c-0.3,0.2-0.4,0.1-0.5,0c-0.2-0.2,0.2-0.5,0.6-0.9c2.6-2.6,4.8-5.7,2.5-9.2
			c-1.6-2.4-3.7-2.9-5.5-1.7c-4.8,3.2,3.9,11-2,14.9c-2.8,1.9-6.4,0.9-8.4-2c-1.5-2.2-1.3-4-1.8-4.7c-0.6-0.8-1,0-1.3-0.5
			c-0.1-0.2-0.1-0.3,0.2-0.6l4.2-3.4c0.4-0.3,0.6-0.5,0.7-0.6c0.2-0.1,0.3-0.1,0.4,0c0.2,0.2-0.3,0.6-1,1.6
			c-1.9,2.8-2.6,5.1-0.9,7.7c1.1,1.7,2.7,2.5,4.5,1.3c3.9-2.6-4.7-10.7,1.7-15c3.1-2.1,7.3-1.1,9.7,2.5c1.6,2.3,1.2,4.2,1.8,5.1
			c0.6,0.9,1.3,0.2,1.6,0.6c0.1,0.1,0.1,0.2-0.1,0.3L42.1,169.1z"/>
		<path fill="#940040" d="M21.9,152.4c-2.1,0.7-0.3,2.7-1.1,2.9c-0.2,0.1-0.4,0-0.5-0.4c-0.5-1.4-0.8-2.7-1.2-3.7
			c-0.4-1.1-0.8-2.3-1.3-3.7c-0.1-0.4,0-0.6,0.2-0.7c0.8-0.3,0.5,2.4,2.6,1.7l6.2-2.1l-2.4-7l-6.2,2.1c-2.1,0.7-0.3,2.7-1.1,2.9
			c-0.2,0.1-0.4,0-0.5-0.4c-0.5-1.4-0.8-2.7-1.2-3.7c-0.4-1.1-0.8-2.3-1.3-3.7c-0.1-0.4,0-0.6,0.2-0.7c0.7-0.3,0.5,2.4,2.6,1.7
			l13.9-4.7c2.1-0.7,0.3-2.7,1.1-2.9c0.2-0.1,0.4,0,0.5,0.4c0.5,1.4,0.8,2.7,1.2,3.7c0.4,1.1,0.8,2.3,1.3,3.7c0.1,0.4,0,0.6-0.2,0.7
			c-0.8,0.3-0.5-2.4-2.6-1.7l-7.1,2.4l2.4,7l7.1-2.4c2.1-0.7,0.3-2.7,1.1-2.9c0.2-0.1,0.4,0,0.5,0.4c0.5,1.4,0.8,2.7,1.2,3.7
			c0.4,1.1,0.8,2.3,1.3,3.7c0.1,0.4,0,0.6-0.2,0.7c-0.8,0.3-0.5-2.4-2.6-1.7L21.9,152.4z"/>
		<path fill="#940040" d="M14.7,124.5c-2.3,0.1-1,2.5-1.8,2.5c-0.2,0-0.4-0.1-0.4-0.5c-0.1-1.4-0.1-2.8-0.1-3.9
			c-0.2-3.5-0.4-6.8-0.6-10.2l5.3-1.7c0.4-0.1,0.6-0.2,0.7-0.2c0.1,0,0.2,0.1,0.2,0.3c0,0.3-0.5,0.3-2.3,1.4c-2.1,1.4-3.2,3.3-3,6.7
			l0.1,1.5l8.1-0.4l0-0.7c-0.1-2-1.6-3.3-3.7-3.4c-0.6,0-0.7-0.1-0.7-0.4c0-0.2,0.1-0.3,0.4-0.3l8.6-0.4c0.3,0,0.4,0.1,0.4,0.3
			c0,0.3-0.1,0.4-0.7,0.4c-2.5,0.2-3.8,1.7-3.7,3.7l0,0.7l7.1-0.3c1.3-0.1,2-0.6,1.9-2.4c-0.2-4.4-3.5-6.6-6.3-7.4
			c-0.5-0.1-0.8-0.2-0.8-0.4c0-0.2,0.1-0.3,0.3-0.3c0.2,0,0.5,0,0.8,0.1l6.3,0.9c0.2,3.7,0.3,7.5,0.5,11.4c0.1,1.1,0.2,2.5,0.2,3.9
			c0,0.5-0.1,0.6-0.3,0.6c-0.8,0,0.2-2.4-2.1-2.3L14.7,124.5z"/>
		<path fill="#940040" d="M27.5,101c2.2,0.5,3.3-0.2,3.9-1c0.5-0.7,0.4-1.5,0.9-1.4c0.2,0,0.3,0.1,0.2,0.5c-0.2,0.9-0.5,2-0.7,3.1
			c-0.2,1.1-0.4,2.2-0.6,3.2c-0.1,0.3-0.2,0.4-0.4,0.3c-0.5-0.1,0-0.8-0.2-1.6c-0.2-0.9-0.9-2-3.1-2.5L15.2,99
			c-1.5,0.6-2.1,1.3-2.4,2.2c-0.2,0.4-0.2,0.6-0.5,0.6c-0.2,0-0.3-0.2-0.2-0.4c0.2-0.9,0.5-1.9,0.7-3l0.7-3.1l14.6-7.2l0-0.1
			L20,86.3c-2.2-0.5-3.3,0.2-3.9,0.9c-0.5,0.7-0.4,1.5-0.9,1.4c-0.2,0-0.3-0.1-0.2-0.5c0.2-0.9,0.5-2,0.7-3.1
			c0.2-1.1,0.4-2.2,0.6-3.2c0.1-0.3,0.2-0.4,0.4-0.3c0.5,0.1,0,0.8,0.2,1.6c0.2,0.9,0.9,2,3.1,2.5l14.2,3.1c0.5,0.1,0.9,0.2,0.9,0.4
			c-0.1,0.2-0.4,0.4-0.8,0.5l-18.1,8.8l0,0.1L27.5,101z"/>
		<path fill="#940040" d="M38,79c1.4-2.9,0.9-5.3-0.2-7.2c-1.1-1.9-2.6-2.6-2.4-3c0-0.1,0.2-0.2,0.4-0.1c0.2,0.1,0.5,0.3,0.9,0.7
			l4.9,3.6c-1,2-2,4.1-3,6.2c-1,2.1-1.9,4.2-2.9,6.3c-0.1,0.2-0.3,0.2-0.4,0.2c-0.1-0.1-0.3-0.2-0.5-0.6L23.3,68l-0.7,1.5
			c-1.3,2.8-1.1,5.2,0.3,7.3c1.3,1.9,1.7,1.9,1.5,2.2c-0.1,0.2-0.2,0.2-0.3,0.1c-0.1,0-0.3-0.2-0.6-0.5l-4.3-3.6
			c0.9-1.8,1.8-3.7,2.7-5.6c0.9-1.9,1.7-3.8,2.6-5.7c0.2-0.3,0.3-0.4,0.4-0.3c0.1,0.1,0.3,0.4,0.6,0.7L37,81.1L38,79z"/>
		<path fill="#940040" d="M31.1,57.5c-1.8-1.4-2.4,1.2-3,0.7c-0.2-0.1-0.2-0.3,0.1-0.7c0.9-1.1,1.8-2.1,2.5-3c0.7-0.9,1.5-2,2.4-3.1
			c0.3-0.4,0.5-0.4,0.6-0.2c0.6,0.5-1.8,1.7,0,3.1l5.1,4.1l4.6-5.8l-5.1-4.1c-1.8-1.4-2.4,1.2-3,0.7c-0.2-0.1-0.2-0.3,0.1-0.7
			c0.9-1.1,1.8-2.1,2.5-3c0.7-0.9,1.5-2,2.4-3.1c0.3-0.4,0.5-0.4,0.6-0.2c0.6,0.5-1.8,1.7,0,3.1l11.4,9.2c1.8,1.4,2.4-1.2,3-0.7
			c0.2,0.1,0.2,0.3-0.1,0.7c-0.9,1.1-1.8,2.1-2.5,3c-0.7,0.9-1.5,2-2.4,3.1c-0.3,0.4-0.5,0.4-0.6,0.2c-0.6-0.5,1.8-1.7,0-3.1
			L43.9,53l-4.6,5.8l5.8,4.7c1.8,1.4,2.4-1.2,3-0.7c0.2,0.1,0.2,0.3-0.1,0.7c-0.9,1.1-1.8,2.1-2.5,3c-0.7,0.9-1.5,2-2.4,3.1
			c-0.3,0.4-0.5,0.4-0.6,0.2c-0.6-0.5,1.8-1.7,0-3.1L31.1,57.5z"/>
		<path fill="#940040" d="M50.7,36.3c-1.3-1.8-2.7,0.5-3.1-0.2c-0.1-0.2-0.1-0.4,0.2-0.6c1.2-0.8,2.3-1.6,3.2-2.2c2.9-2,5.6-4,8.3-6
			l4.3,3.6c0.3,0.3,0.5,0.4,0.6,0.5c0.1,0.1,0.1,0.2-0.1,0.3c-0.2,0.1-0.5-0.3-2.4-1.1c-2.4-1-4.5-0.9-7.3,1.1l-1.2,0.9l4.7,6.6
			l0.6-0.4c1.6-1.2,1.9-3.2,0.8-4.9c-0.3-0.5-0.3-0.6-0.1-0.8c0.1-0.1,0.3,0,0.5,0.2l5,7c0.1,0.2,0.1,0.4,0,0.5
			c-0.2,0.2-0.4,0.1-0.7-0.3c-1.6-2-3.5-2.2-5.1-1.1l-0.6,0.4l4.1,5.8c0.8,1.1,1.6,1.3,3,0.3c3.6-2.6,3.7-6.5,2.8-9.3
			c-0.2-0.5-0.3-0.8-0.1-0.9c0.2-0.1,0.3,0,0.4,0.1c0.1,0.1,0.3,0.4,0.4,0.7l2.6,5.8c-3.1,2.1-6.1,4.3-9.3,6.6
			c-0.9,0.7-2,1.5-3.2,2.3c-0.4,0.3-0.5,0.2-0.7,0c-0.5-0.6,2.2-1.2,0.8-3L50.7,36.3z"/>
		<path fill="#940040" d="M76.8,34.6c0.8,2.1,2,2.7,2.9,2.7c0.9,0,1.4-0.5,1.6,0c0.1,0.2,0.1,0.3-0.3,0.4c-0.9,0.3-2,0.7-3,1.1
			c-1.1,0.4-2.1,0.9-3,1.2c-0.3,0.1-0.4,0-0.5-0.2c-0.2-0.4,0.6-0.4,1.2-1c0.7-0.6,1.2-1.8,0.4-4l-4.4-11.6c-1.4-0.9-2.2-1-3.1-0.8
			c-0.4,0.1-0.6,0.2-0.7-0.1c-0.1-0.2,0-0.3,0.2-0.4c0.9-0.3,1.9-0.7,2.9-1l3-1.1l14,8.3l0.1,0l-3-7.8c-0.8-2.1-2-2.7-2.9-2.7
			c-0.9,0-1.4,0.5-1.6,0c-0.1-0.2-0.1-0.3,0.3-0.4c0.9-0.3,2-0.7,3-1.1c1.1-0.4,2.1-0.9,3-1.2c0.3-0.1,0.4,0,0.5,0.2
			c0.2,0.4-0.6,0.4-1.2,1c-0.7,0.6-1.2,1.8-0.4,4l5.1,13.6c0.2,0.5,0.3,0.9,0.1,1c-0.2,0.1-0.5-0.2-0.9-0.4L72.8,23.8l-0.1,0
			L76.8,34.6z"/>
	</g>
	<g>
		<circle fill="#940040" cx="62.9" cy="191.6" r="2.7"/>
	</g>
	<g>
		<circle fill="#940040" cx="163.7" cy="191.6" r="2.7"/>
	</g>
	<g>
		<path fill="#940040" d="M83.6,207.3c-0.4,1.1,0.1,2,1.6,2.5c1.4,0.6,1.7,0.7,1.6,1.1c-0.1,0.2-0.2,0.3-0.5,0.2
			c-1.8-0.6-3.7-1.3-5.4-1.8c-1.8-0.6-3.7-1.2-5.5-1.8c-0.3-0.1-0.4-0.3-0.3-0.5c0.1-0.4,0.4-0.3,1.9,0.1c1.6,0.4,2.5,0.1,2.8-1.1
			l4.2-12.5c0.2-0.6,0.1-0.8-0.4-1l-3.6-1.2c-0.2-0.1-0.3-0.2-0.3-0.4c0.1-0.4,0.6,0,3,0.4c3.6,0.7,5.4-0.2,5.9-0.1
			c0.2,0.1,0.3,0.3,0.2,0.7L83.6,207.3z"/>
		<path fill="#940040" d="M103.3,194.4c4.6,0.5,7.1,4.4,6.6,9.1c-0.9,8.1-11.5,10.1-12.7,10c-0.1,0-0.2-0.1-0.1-0.2
			c0-0.3,6-1.2,8.3-8c-1.2,0.6-2.4,0.9-3.9,0.8c-4.6-0.5-6.3-3.6-6-6.4C95.8,196.2,98.6,193.9,103.3,194.4z M102.3,205.4
			c1.3,0.1,2.9-0.6,3.3-1.2c0.1-0.2,0.4-1.3,0.5-2.5c0.5-5.1-0.9-6.7-3-6.9c-1.6-0.2-3.3,0.6-3.8,4.9
			C98.9,203.7,100.4,205.2,102.3,205.4z"/>
		<path fill="#940040" d="M118.2,204.5c-1.8-1.1-2.6-2.5-2.7-3.9c-0.3-3,2.5-5.7,6.4-6.1c3.2-0.3,5.8,1.5,6,3.9
			c0.1,1.7-0.6,3.3-1.9,4.3c2.2,0.5,3.6,2.5,3.8,4.9c0.3,3.2-2.7,6.1-7.3,6.5c-4,0.3-6.8-1.8-7-4.7
			C115.4,207.9,116.2,205.9,118.2,204.5z M122.5,213.7c2.8-0.2,4.1-2.1,3.9-4.3c-0.1-1.5-0.9-2.7-4-3.5c-2.9-0.8-3.2-1-3.6-1
			c-0.5,0-1.8,1.6-1.6,4.1C117.6,212,119.5,213.9,122.5,213.7z M122,195c-2,0.2-3.2,1.6-3,3.6c0.2,2.9,4.6,3.5,6.6,4
			c0.6-0.8,1.1-1.6,0.9-3.5C126.2,196.2,124.5,194.8,122,195z"/>
		<path fill="#940040" d="M144.4,197.5c2.1,0.7,3.8,1.8,4.5,4c1.1,3.6-1.5,7.5-5.4,8.8c-3.8,1.2-6.9,0.2-7.5-1.7
			c-0.3-1.1,0.1-2.3,1.2-2.6c1.4-0.4,2.2,0.2,2.9,2c0.6,1.9,1.9,2.3,3.2,1.9c2.2-0.7,3.3-2.8,2.4-5.6c-0.7-2.3-2.4-3.5-4.3-3.5
			c-1.2,0-2.2,0.6-2.3,0.2c-0.2-0.6,1.1-0.3,2.2-1.5c0.8-0.8,0.9-2.1,0.4-3.6c-0.6-2-2.3-2.7-4.5-2c-2.9,0.9-2.5,3.2-3,3.3
			c-0.1,0-0.3,0-0.3-0.2c-0.2-0.7,0.6-4.4,4.4-5.6c2.7-0.8,5.8-0.1,6.7,2.8C145.3,195.4,145.1,196.4,144.4,197.5z"/>
	</g>
	<g>
		<path fill="#940040" d="M113.4,226.8c-15.3,0-30.2-3-44.1-8.9c-13.5-5.7-25.6-13.9-36-24.3c-10.4-10.4-18.6-22.5-24.3-36
			C3,143.5,0,128.7,0,113.4c0-15.3,3-30.2,8.9-44.1c5.7-13.5,13.9-25.6,24.3-36c10.4-10.4,22.5-18.6,36-24.3C83.2,3,98.1,0,113.4,0
			c15.3,0,30.2,3,44.1,8.9c13.5,5.7,25.6,13.9,36,24.3c10.4,10.4,18.6,22.5,24.3,36c5.9,14,8.9,28.8,8.9,44.1
			c0,15.3-3,30.2-8.9,44.1c-5.7,13.5-13.9,25.6-24.3,36c-10.4,10.4-22.5,18.6-36,24.3C143.5,223.8,128.7,226.8,113.4,226.8
			L113.4,226.8z M113.4,4C53.1,4,4,53,4,113.4c0,60.3,49.1,109.4,109.4,109.4c60.3,0,109.4-49.1,109.4-109.4
			C222.8,53,173.7,4,113.4,4L113.4,4z"/>
	</g>
	<g>
		<g>
			<path fill="#940040" d="M93.9,123c0.2,0.1,0.4,0.2,0.8,0.2c0.8,0,1.3-0.5,1.5-0.6c0.1,0,0.3-0.2,0.3-0.2c0-0.3-1.2-0.8-1.7-0.8
				c-0.7,0-1.8,0.6-1.8,0.8C92.9,122.6,93.6,122.9,93.9,123z"/>
		</g>
		<g>
			<path fill="#940040" d="M100.7,137.1c0.3-1.7-0.3-1.2-3.8-1.3c-1.6,0-7.1-0.1-8.7,0.1c-0.7,0.1-0.8,0.7-0.8,1.1
				c0,1.2-0.3,1.1,5.7,1.1l2.3-0.2C99.1,137.6,100,138,100.7,137.1z"/>
		</g>
		<g>
			<path fill="#940040" d="M161.1,83.4c0,1.5,0.6,2.9,1.7,3.8l0,0l18,18l0,0c1,1,1.6,2.3,1.6,3.8V86.6c0-1.1-0.6-2.5-1.4-3.3
				l-37.7-37.7c-0.7-0.7-2.2-1.4-3.3-1.4h-2.8l0,0l0,0c-0.7,0-1.3,0.6-1.3,1.3v17.9c0,1.1-0.9,2-2,2h-2V48.3c0-2.2-1.8-4-4-4H98.8
				c-2.2,0-4,1.8-4,4v17.2h-2c-1.1,0-2-0.9-2-2V45.6c0-0.7-0.6-1.3-1.3-1.3l0,0h-2.8c-1.1,0-2.5,0.6-3.3,1.4L45.8,83.3
				c-0.7,0.7-1.4,2.2-1.4,3.3v22.5c0-1.5,0.6-2.8,1.6-3.8l0,0l18-18l0,0c1-1,1.7-2.3,1.7-3.8v2.2v1.6c0,1.5-0.6,2.8-1.6,3.8v0
				l-18,18l0,0c-1,1-1.7,2.3-1.7,3.8v20.3c0-1.5,0.6-2.8,1.6-3.8l0,0l18-18l0,0c1-1,1.7-2.3,1.7-3.8v2.2v1.6c0,1.5-0.6,2.8-1.6,3.8
				v0l-18,18l0,0c-1,1-1.7,2.3-1.7,3.8v3c0,1.1,0.6,2.5,1.4,3.3l5.3,5.3L64,135.5l0,0c1-1,1.7-2.3,1.7-3.8v2.2v1.6
				c0,1.5-0.6,2.8-1.6,3.8v0l-11.2,11.2l30.2,30.2l8.2-14.7c0.7-1.3,2.1-2.2,3.7-2.2h1.3h1.9c-1.6,0-3,0.9-3.7,2.3l0,0L85.5,182
				c0.4,0.1,0.9,0.2,1.2,0.2h15.5l3-16.4c0.2-1.3,1.3-2.2,2.6-2.2h0h0.4h2.2c-1.3,0-2.4,1-2.6,2.2l-3,16.3h16.8l-3-16.3
				c-0.2-1.3-1.3-2.2-2.6-2.2h2.2h0.4h0c1.3,0,2.4,1,2.6,2.2l3,16.4H140c0.4,0,0.8-0.1,1.2-0.2l-8.9-16.1v0
				c-0.7-1.3-2.1-2.3-3.7-2.3h1.9h1.3c1.6,0,3,0.9,3.7,2.2l8.2,14.7l30.2-30.2l-11.2-11.2l0,0c-1-1-1.6-2.3-1.6-3.8v-1.6v-2.2
				c0,1.5,0.6,2.9,1.7,3.8l0,0l12.9,12.9l5.3-5.3c0.7-0.7,1.4-2.2,1.4-3.3v-3c0-1.5-0.6-2.9-1.7-3.8l0,0l-18-18l0,0
				c-1-1-1.6-2.3-1.6-3.8v-1.6v-2.2c0,1.5,0.6,2.9,1.7,3.8l0,0l18,18l0,0c1,1,1.6,2.3,1.6,3.8v-20.3c0-1.5-0.6-2.9-1.7-3.8l0,0
				l-18-18l0,0c-1-1-1.6-2.3-1.6-3.8v-1.6V83.4z M128.1,84.7c0.6-5.5,0.7-5,3.8-6.1c3.7-0.7,5.7-1.2,7.6-1.2
				c1.9,0.1,6.2,0.2,10.1,1.7c1.7,0.6,1,1.2,1.1,7.5c-0.3,2.4-0.5,2-2.9,2.2c-2-0.1-3.1,0.1-5.7-0.6c-0.8-1-1.9-6.8-3.8-6.1
				c-0.8,0.6,0,0.7-1.4,3.5c-0.3,0.4-0.8,1.8-1.3,2.4c-2,0.9-3.7,0.6-5.9,0.7C127.6,88.6,128.1,87.6,128.1,84.7z M124.2,80
				c0.1-1.2,0-1.4,0.9-1.5c1.5,0,1.5,0.5,1.6,1.3c0,1.2-0.1,3.7-0.1,6c0,1.4,0,4.3-1.1,4.7c-1.2,0.2-1.9,0.3-1.8-1.1
				c-0.1-0.8,0.3-2,0.5-3.2C124.5,84.9,124.3,81.5,124.2,80z M124.9,94.1c1.4,0.6,1.5,4.9,1.5,4.9c0,0.6,0.1,4.4,0.1,5.7
				c0,1.3,0.1,2.2-0.1,2.8c-0.4,0.4-1,0.4-1.8,0.3c-0.6-0.4-1-3.8-1-4.9c0-1.1,0-3.7-0.4-6.3C123,94.1,123.3,94.4,124.9,94.1z
				 M119.6,91.7c0.1-1.9,0.7-8.3,0.5-9.9c0-1.1-0.1-2.6,0.2-3.7c0.2-0.5,0.7-0.6,1.6-0.7c1.5-0.3,1.2,4.9,1.2,4.9
				c-0.1,4.5-1.3,13.4-1.3,15.7c-0.5,3.8,1.4,14,0.4,14.9c-0.3,0.2-1.6,0.4-1.9-0.3c-1-2.8-1-7-1.2-10.6
				C118.8,98.1,119.5,93.6,119.6,91.7z M115.7,85.8c0.4-2.7,0.2-5.9,0.5-6.7c0.3-0.3,1-0.5,1.8-0.3c1,0.7,1.3,9.6-0.9,11.3
				c-0.7,0-1.5,0.1-1.7-0.4C115,89.2,115.4,87.8,115.7,85.8z M114.5,97.7c0-3.6,0.4-4.2,1.1-5.2c0.8-0.4,1.8,0.1,2.1,0.6
				c0.5,1.3-0.3,7.5-0.5,10.3c-0.2,2.8,0.7,5.6-0.4,6.1c-1.2,0.4-2,0-2.1-0.8C114.4,105.4,114.5,97.7,114.5,97.7z M111.3,141.4
				c-0.2,4.7-0.3,4.2-3.5,4.2c-2.8,0-9.8,0-10.3,0.1c0,0.7-0.2,2.1-0.1,3.4c0.1,1.8,1.1,2.3-6.3,3.1c-1.8,0.2-13-0.3-13.7-1.6
				c-0.8-1.4-2.2-3.6-1.1-5.5c1.6,1.3,3.1,2.2,6.5,3.5c2.7,0.5,7.2,0.9,9.4,0.2c1.6-0.7,1.6-1.1,1.5-2.9c-5.2-0.3-8-0.5-9.8-0.6
				c-2.9-0.3-2.7-0.3-2.8-1.7c0.1-1.2,0.4-1.4,2.3-1.3c1,0.2,3.3,0.3,6.3,0.3c2.2,0,4,0,4,0v-2.3c0,0-4,0.2-5.5,0.1
				c-4.8-0.2-4-0.9-4.2-3c0.4-3.9,0.4-3.4,3.9-3.6c3-0.1,11.5-0.2,13.8-0.1c3.5,0.3,3,0.6,2.9,3.6c-0.3,1.8,0.3,2.4-3.1,2.9
				c-0.6,0-3.9,0.2-3.9,0.2v2.3h7.7c0,0,2.7,0,2.7-2.3c0-2.3,0.3-5.7,0.3-5.7s0-2.4-2.4-2.4c-2.4,0-15.2-0.2-20.5-0.1
				c-4.1,0-4.2,0.7-4.5,2.1c-0.4,1.6-0.7,8.1-1.9,7.8c-3.1-0.8-2.4-1.1-2.3-2.9c0.1-2.4,0.5-4.9,1-7.3c0.7-1.7,0.9-2.6,11-2.6
				c4.6,0,18.2,0,18.2,0c3.1,0.2,4.1,0.2,4.5,3.1C111.6,136.6,111.5,138,111.3,141.4z M81.1,120.8c0,0.7,1.2,0.6,3.6,0.5
				c2.1,0,2-0.4,2,1.3c0,0.6,0.1,0.8-1.3,0.9c-4.8,0.2-4.4,0.1-4.4,1.3c0,1,0.8,0.7,3.7,0.6c1.9-0.1,2-0.4,2.2,0.9
				c0.1,0.8,0,1.3,0,1.3c-1.4,0-6.7,0.5-8,0.4c-1.4-0.2-1.4-0.1-1.3-2.9c0.2-2.5,0.3-4.9,0.8-7.1c0.6-1.3,0.7-1,6-1.3
				c2.8,0,2.5-0.2,2.7,1.7c0.1,0.7,0.2,0.8-4.4,1.1C80.7,119.6,81,119.4,81.1,120.8z M89,118.3c-0.3-0.1,0.7-1.5,1.2-1.6
				c0.7,0.1,2.5,1.2,3.1,1.4c0.2,0.1,0.7,0.3,1.5,0.7c0.3-0.2,0.6-0.3,0.8-0.4c0.6-0.4,3.3-1.9,4.1-1.9c0.2,0.1,1.3,1.7,0.5,2.2
				c-0.9,0.6-1.9,1.3-2.6,1.6c0.8,0.4,1.5,0.8,1.6,0.9c1.1,0.6,1.4,0.8,1.3,2c-0.1,0.2-0.6,0.6-0.9,0.7c-0.6,0.3-1.1,0.6-1.8,0.9
				c0.5,0.2,1,0.5,1.5,0.7c2.1,1.2,2,0.9,1.4,2c-0.8,1.1-2,0.5-2.5,0.3c-0.3-0.1-1.9-0.8-3.4-1.6c-0.9,0.5-2.1,1.2-3.2,1.6
				c-1.5,0.7-1.7,0.7-2.2,0c-0.9-1.3-0.3-1.2,1.2-2.1c0.2-0.1,0.9-0.4,1.4-0.8c-0.7-0.3-1.4-0.6-2.2-1.1c-0.2-0.1-0.8-0.5-0.9-0.8
				c0-0.6-0.2-1.1,1.4-2c0.5-0.3,1-0.5,1.5-0.7C90.6,119.6,89.4,118.9,89,118.3z M110.6,127.6c-1.1,0.2-7.5,0.4-7.6,0.4
				c-0.6-0.1-0.7,0-0.7-0.8c0-1.3,0.1-1.4,2.2-1.3c2.1,0.1,3.7,0.2,3.7-1c0-0.9-0.2-1.1-3.7-1c-2,0.1-1.9,0-1.9-0.4
				c-0.2-1.2-0.5-1.9,1.2-2c2.4-0.2,4.3,0,4.5-0.6c0.2-1,0-1.4-1.9-1.3c-4,0.3-4.2,0.6-4.2-0.7c0-1.2-0.5-1.6,2.6-1.7
				c3.2-0.1,5.8-0.5,6,1c0.5,1.7,0.6,3.9,0.7,7.3C111.6,127.5,111.4,127.4,110.6,127.6z M110.1,114c-1.1,0.6-5.2-5-8-8.7
				c-1-1.3-4.6-4.4-7.8-4.6c-4.8-0.3-11.5,8.3-13.2,11.3c-0.8,1.3-1.8,2.6-3.2,2c-1.3-0.8-1.3-0.8-0.5-3c1.4-3.3,7.4-9.9,10-11.7
				c2.7-2.6,3.4-2.9,4.3-5.9c0.4-5.6,0.3-6.9-1.3-7.1c-1.6-0.2-8.8-1.2-9.1,3.2c-0.2,3.8-0.2,5.4-0.2,7c0,2.3-0.2,1.9-2.4,1.9
				c-1.5,0-0.7-7.6-0.7-12.7c0.8-3.1,2.7-2.5,5.7-2.8c1.6,0.2,3.7,0,4.8,0c2.6,0,3.2-1.3,3.3-3.4c0.2-2.1,0.4-2.2,2.2-2.5
				c1.6-0.3,1.5,1,1.8,2.6c0.6,2.5-0.3,2.7,3.3,2.9c3.1,0,5.5,0.1,6.8,0.2c3,0.3,4.7,0,4.9,4.6c0.1,3.9,1.1,7.6-0.1,9
				c-0.5,0.6-1.9,1.3-2.9,1.1c-1.3-0.7,1.4-9.3-1.9-10.7c-1.9-0.9-7.3-0.9-8.9-0.1c-1.5,0.7-0.9,3.8-1,6c0,1.7,0,3.6,3.5,5.9
				c3.6,2.6,6.8,6,10.1,9.9C111.4,110.4,113.1,113.1,110.1,114z M112.1,65.5H96.1c0-2.2,1.8-4,4-4h9.9c1.1,0,2,0.9,2,2V65.5z
				 M127.2,134.3c-0.6,0.6-2.9,0.9-3.4,1.6c-0.5,0.7-0.3,6,0,6.3c0.4,0.5,1.5,0.2,3.1,0c1.2,0,1.7,3.8,0.7,3.9
				c-1,0.2-4.5,0.6-6.3,0.7c-2,0.2-3.1,0.4-5,0.4c-1.8,0-1.7-0.9-1.9-2.3c0-1.5-0.2-2,1.3-1.9c1.4,0.1,2.4,0.2,3.7-0.9
				c0.9-0.8,0.4-2.7,0.5-4.2c0-1.3,0.3-2.6-1.6-2.1c-2.7,0.6-2.8,1-2.8-3.5c0-1.6,0-3.2,0.1-4.2c0.2-2.2-0.3-3.3,2.4-3.8
				c1.2-0.3,0.5,3.3,0.5,5c0,1.6-0.2,3.3,0.7,3.3c2.2,0.2,0.9-4.9,1.1-9.1c0.1-2.8-0.5-4.1,1.7-4.5c2-0.3,1.5,0.5,1.6,2.8
				c0,2.2-0.1,9.8,0.8,9.7c1.9-0.1,1.5-6.6,1.4-7.7c0-1.7-0.3-2.5,1.4-2.6c1.4-0.1,1.4-0.2,1.6,1.4c0.3,1.6,0.3,3.1,0.3,4.3
				c-0.1,1.6-0.2,2.4-0.5,4.1C128.5,133,127.9,133.7,127.2,134.3z M135.5,151.8c-1,0.2-1.4,0.2-2.6,0c-0.9-0.2-1.3-1.2-2.1-3.5
				c-0.3-1.2-0.7-2.5-1.3-5.4c-0.3-3.3-0.8-5.9-0.1-7.6c0.3-1.2,1-3,1.8-4.4c0.6-1.4,1.1-2.4,1.8-4.8c0.4-2.4,0.4-2.6,0-4.6
				c-0.1-0.8-0.7-1.8-1.1-2.9c-0.7-1.4-1.1-2.1,0.6-2.3c2.4-0.2,2.2,0.1,3.3,1.7c1.1,2.6,1.1,3.6,1.2,4.4c0.2,2,0.2,4.2-1.7,8.3
				c-1.8,3.6-2.5,5-2.3,8.4c0.3,3.8,1.1,7.8,1.6,9.2C134.9,149.2,136.3,151.6,135.5,151.8z M141.3,146.6c0.7,2.5,2.3,4.7,1.3,5
				c-0.8,0.2-2.3,0.1-2.8-0.4c-1-1.1-1.9-3.1-2.6-6.4c-0.5-3.5-0.8-5.7-0.4-8.9c1.1-4.8,3.5-6.2,3.9-10.2c0.2-2.6,0-3.3-0.4-4.4
				c-0.7-1.9-2.9-4.8-0.3-4.8c1.6,0,1.6,0.2,2.3,0.7c1,0.8,2.1,4.2,2.3,6.1c0.2,2.9-1.1,5.9-2.1,8.4c-1.1,2.9-2.2,4.5-2.2,7.3
				C140.3,140.8,140.5,143.4,141.3,146.6z M150.5,128.6c-1.3,4.9-2.4,4.3-3.4,9.7c0,2.1,1.1,6.6,1.5,8.2c0.3,1.6,1.8,4.7,1.1,4.9
				c-0.8,0.2-2.5-0.2-3.1-0.6c-0.9-0.7-1.6-3.8-2-4.9c-0.7-3.1-1.9-8.4,0.3-12.8c0.6-1.4,1.7-3.2,2.3-6.7c0-4.8-0.3-5.3-1-7.6
				c-0.5-1.3-1.2-2.3,0-2.4c3.5,0,3.1,1.1,4.1,3.4C151.1,122.7,151.1,123.8,150.5,128.6z M149.6,112.3c-1.9,0.7-1.8-0.3-1.8-3
				c-0.1-1.8,0.2-7.3-2.3-8.1c-2.1-1-4-1.1-4.5-0.4c-0.3,0.5-0.2,10.3-0.2,10.3c0,2.3-1,1.9-2,1.8c-2-0.5-1.7-1.6-1.7-3.5
				c0-1.8,0-8.4-0.3-8.8c-0.3-0.3-4-0.5-4.7,3.4c-0.6,3.7-1,6.2-1.1,7c-0.1,0.5-0.2,1.1-0.5,1.2c-0.7,0.2-2.1,0.5-2.3,0.2
				c-0.4-1.4,0-3.5,0.2-5.9c0.4-2.5,1-4.3,1.8-6.4c0.3-1.4,4.1-2.4,6.3-3.3c1.3-0.3,0.9-2.3,0.5-2.4c-0.7-0.2-3.2,0.2-4.8,0.4
				c-1.1,0-2.1,0.9-3-1.1c-0.4-1-0.6-1.8,2-2l3.5-0.3c0,0,2.5-0.1,2.6-0.5c0-0.6,0.1-1.8,0.7-2.8c0.2-0.3,1.2-0.2,1.8-0.1
				c1.3,0.4,0.8,0.4,1,2.1c0.1,0.7-0.2,0.9,4.1,0.8c3-0.1,5.3-0.5,5.2,0.8c0,0.6,0,1.8-0.3,2.2c-0.4,0.5-1.3,0.3-2.7,0.3
				c-2.1,0-5.6,0.1-6.1,0.2c-0.3,0.2-0.3,0.8-0.1,1.4c0.2,0.5-0.1,0.5,1.9,1c6.7,2,6.6,1.5,7.6,5.9c0.6,3.6,0.6,5.7,0.6,6.8
				C150.9,110.8,151.4,111.6,149.6,112.3z"/>
		</g>
		<g>
			<path fill="#940040" d="M145.6,85.3l1.6-0.1c0.8-0.2,0.7-1.4,0.3-3.2c-0.5-1.1-2-1-3.5-1c-0.6,0-1,0.1-0.8,1
				C143.7,85.6,143.9,85,145.6,85.3z"/>
		</g>
		<g>
			<path fill="#940040" d="M131.6,85.5l1.2-0.1c2.3-0.2,2.2-1.4,2.5-3.4c0.1-0.8-1.2-0.6-2.5-0.4c-1.2,0.2-1.3,0.2-1.5,1.1
				C131.1,83.5,130.8,85.2,131.6,85.5z"/>
		</g>
	</g>
</g>
</svg>
