<svg xmlns="http://www.w3.org/2000/svg" height="151.79" viewBox="0 0 158.60925 151.78999" width="158.61"><g transform="matrix(1.25 0 0 -1.25 -205.24 638.1)"><g><path d="m227.71 390.38c34.345 0 62.189 26.623 62.189 59.461 0 32.837-27.844 59.459-62.189 59.459-34.344 0-62.187-26.622-62.187-59.459 0-32.838 27.843-59.461 62.187-59.461z" stroke="#001e60" stroke-linecap="square" stroke-miterlimit="2" stroke-width=".912" fill="#fff"/><path d="m227.71 394.37c32.025 0 57.986 24.821 57.986 55.441 0 30.616-25.961 55.438-57.986 55.438-32.024 0-57.985-24.822-57.985-55.438 0-30.62 25.961-55.441 57.985-55.441" fill="#001e60"/><path d="m82.299 12.25l-0.041 0.283c0.614 0.174 0.76 0.692 0.855 1.449l1.532 11.963 1.201 0.178 2.824-7.041 0.033 0.006 0.815 7.58 1.252 0.184 4.593-10.952c0.353-0.856 0.627-1.188 1.19-1.25l0.041-0.283c-0.456-0.067-0.931-0.014-1.389-0.082-0.524-0.077-1.03-0.276-1.555-0.353l-0.041 0.283c0.895 0.256 0.989 0.559 0.922 1.004-0.023 0.162-0.202 0.673-0.42 1.199l-3.336 8.162-0.033-0.004-1.023-9.078c-0.09-0.674-0.097-0.986-0.065-1.209 0.052-0.344 0.416-0.578 1.096-0.498l0.041-0.283c-0.524-0.078-1.084-0.037-1.625-0.117-0.777-0.115-1.555-0.354-2.334-0.469l-0.041 0.283c0.608 0.214 1.068 0.386 1.186 1.106 0.072 0.445 0.46 3.064 0.408 3.427-0.055 0.364-1.664 3.989-2.496 5.994l-0.034-0.005-1.113-9.174c-0.071-0.568-0.079-0.879-0.043-1.121 0.06-0.405 0.584-0.431 0.959-0.397l0.041-0.281c-0.626-0.093-1.27-0.064-1.896-0.156-0.507-0.075-0.979-0.27-1.504-0.348zm-3.078 0.326l-8.229 0.483 0.016 0.285c0.674 0.084 0.888 0.235 0.922 0.806l0.623 10.653c0.033 0.571-0.162 0.745-0.821 0.906l0.018 0.287 8.674-0.51c-0.049-1.122-0.046-2.228-0.028-3.355l-0.324 0.017c-0.198 1.875-0.791 2.259-2.224 2.344l-3.621 0.213-0.301-5.143 2.426-0.142c0.613-0.036 0.957 0.005 1.142 1.121l0.342-0.02c-0.085-0.588-0.17-1.139-0.207-1.771-0.034-0.591-0.014-1.145 0.002-1.74l-0.342 0.021c-0.054 1.129-0.392 1.21-1.006 1.246l-2.426 0.143-0.253-4.367 3.91-0.231c0.751-0.043 1.346 0.169 1.646 1.789l0.34-0.021c-0.128-0.996-0.221-2.014-0.279-3.014zm-11.744 0.811c-0.548 0.138-1.064 0.397-1.61 0.537-0.464 0.117-0.958 0.117-1.422 0.236l0.071 0.278c0.94-0.05 1.281 0.179 1.619 1.505l1.828 7.17-0.031 0.008-7.994-7.81c-0.414 0.105-0.75 0.316-1.196 0.431-0.465 0.119-0.974 0.122-1.439 0.24l0.07 0.278c0.676-0.046 0.917 0.06 1.059 0.615l2.697 10.576c0.141 0.554-0.017 0.763-0.633 1.047l0.07 0.277c0.547-0.138 1.064-0.397 1.612-0.537 0.463-0.117 0.956-0.117 1.42-0.236l-0.069-0.277c-0.94 0.05-1.282-0.179-1.621-1.506l-2.178-8.535 0.036-0.01 9.152 8.971 0.978-0.25-2.98-11.684c-0.142-0.554 0.017-0.764 0.633-1.047l-0.072-0.277zm36.473 3.525l-0.12 0.26c0.55 0.397 0.66 0.634 0.41 1.15l-4.703 9.848c-0.247 0.516-0.502 0.574-1.156 0.396l-0.125 0.258c0.324 0.155 1.009 0.347 1.596 0.627 0.588 0.281 1.168 0.695 1.488 0.85l0.12-0.258c-0.54-0.399-0.66-0.636-0.41-1.152l2.22-4.645 4.88 2.33-2.23 4.647c-0.24 0.516-0.5 0.574-1.15 0.398l-0.13 0.258c0.33 0.155 1.01 0.347 1.6 0.627s1.17 0.694 1.49 0.849l0.12-0.259c-0.55-0.398-0.66-0.633-0.41-1.151l4.7-9.845c0.25-0.517 0.51-0.576 1.16-0.399l0.13-0.258c-0.33-0.155-1.01-0.347-1.6-0.627-0.59-0.281-1.17-0.692-1.49-0.847l-0.12 0.256c0.55 0.398 0.66 0.636 0.41 1.152l-1.94 4.057-4.87-2.332 1.94-4.057c0.25-0.516 0.5-0.575 1.15-0.399l0.13-0.257c-0.33-0.155-1.01-0.347-1.6-0.627-0.58-0.28-1.16-0.695-1.49-0.85zm-54.638 2.365c-0.486 0.289-0.908 0.682-1.394 0.969-0.413 0.244-0.886 0.38-1.299 0.625l0.147 0.246c0.887-0.311 1.279-0.188 1.976 0.99l3.768 6.368-0.03 0.017-9.865-5.252c-0.367 0.218-0.63 0.514-1.027 0.75-0.413 0.244-0.9 0.391-1.313 0.635l0.147 0.246c0.636-0.234 0.896-0.197 1.187 0.295l5.559 9.393c0.291 0.492 0.197 0.738-0.314 1.183l0.144 0.246c0.486-0.287 0.912-0.679 1.397-0.967 0.412-0.243 0.886-0.383 1.298-0.626l-0.146-0.247c-0.888 0.313-1.28 0.187-1.977-0.992l-4.486-7.58 0.029-0.017 11.305 6.041 0.867-0.514-6.14-10.379c-0.292-0.492-0.199-0.737 0.312-1.184l-0.145-0.246zm69.338 5.754l-0.17 0.229c0.24 0.307 0.34 0.459 0.06 0.836-0.15 0.196-0.33 0.346-0.49 0.478l-8.42 6.153c-0.94 0.695-1.19 0.768-1.67 0.435l-0.17 0.229c0.41 0.307 0.89 0.516 1.31 0.824 0.35 0.266 0.65 0.642 1 0.908l0.17-0.228c-0.56-0.448-0.58-0.697-0.4-0.942 0.17-0.229 0.57-0.593 1.04-0.932l2.36-1.753 2.94 2.205-0.78 2.22c-0.39 1.115-0.52 1.453-0.74 1.748-0.23 0.31-0.48 0.328-0.99 0.018l-0.18 0.23c0.54 0.4 1.14 0.7 1.68 1.1 0.35 0.268 0.62 0.622 0.98 0.889l0.09-0.117c-0.1-0.09-0.19-0.168-0.28-0.272l0.16-0.131c-0.17-0.324-0.09-0.662 0.28-1.72l3.09-8.946c0.33-0.954 0.6-1.648 0.88-2.146-0.27-0.125-0.55-0.263-0.78-0.438-0.34-0.255-0.66-0.57-0.97-0.877zm-2.5 14.127c0.04 0.093 0.11 0.183 0.2 0.291l-0.08 0.112c0.28 0.281 0.57 0.53 0.81 0.806 0.34 0.403 0.55 0.831 0.92 1.26l0.21-0.186c-0.44-0.52-0.34-1.031-0.02-1.31 0.13-0.108 0.95-0.748 1.4-1.108l6.49-5.179 0.02 0.025-6.09 10.108 0.45 0.519 10.55-4.519 0.02 0.025-4.37 4.197c-0.53 0.504-2.37 2.168-2.83 2.567-0.41 0.345-0.63 0.308-1.23-0.209l-0.22 0.185c0.4 0.468 0.9 0.855 1.31 1.336 0.34 0.403 0.58 0.871 0.93 1.274l0.22-0.186c-0.42-0.52-0.31-0.863 0.32-1.473l6.59-6.257c0.61-0.572 1.04-0.983 1.17-1.09 0.43-0.373 0.77-0.257 1.04 0.054l0.22-0.187c-0.29-0.338-0.66-0.583-0.95-0.92-0.27-0.311-0.43-0.689-0.7-1l-9.67 4.076 5.42-9.037c-0.26-0.299-0.62-0.53-1.07-1.062-0.19-0.222-0.44-0.69-0.78-1.092l-0.22 0.185c0.3 0.442 0.29 0.745-0.07 1.051-0.09 0.079-0.53 0.452-0.91 0.758l-7.85 6.166c-0.38 0.306-0.74 0.167-1.17-0.234l-0.06 0.054zm2.23-11.678l0.02 0.022-1.82 4.969-2.46-1.848 4.26-3.143zm-81.778 0.975c-0.579 0.067-1.191 0.353-1.825 0.924l-3.685 3.32 0.191 0.211c0.578-0.356 0.839-0.37 1.223 0.055l7.223 8.019c0.382 0.425 0.339 0.684-0.075 1.221l0.192 0.213c0.267-0.24 0.707-0.801 1.189-1.236 0.484-0.435 1.085-0.813 1.352-1.053l-0.19-0.213c-0.577 0.355-0.839 0.372-1.222-0.055l-7.223-8.017 0.686-0.619c1.067-0.962 2.338-1.722 3.638-0.28 1.204 1.337 0.864 2.826-0.457 4.016-0.101 0.092-0.187 0.278-0.105 0.369 0.055 0.06 0.281 0.107 0.652 0.213l4.006 1.148c2.574 0.79 2.92 0.918 3.101 0.838 0.318-0.286 0.565-0.675 0.895-0.972 0.216-0.194 0.515-0.298 0.744-0.504l-0.191-0.211c-0.409 0.286-1.07 0.191-1.971-0.043l-5.594-1.506c1.112-1.221 1.384-3.116-0.011-4.666-0.711-0.788-1.58-1.283-2.543-1.172zm42.798 2.356c-26 0-47.076 20.153-47.076 45.013 0 24.866 21.076 45.016 47.076 45.016s47.08-20.15 47.08-45.016c0-24.86-21.08-45.013-47.08-45.013zm-50.89 4.732l-4.996 6.557 0.228 0.173c0.501-0.457 0.756-0.521 1.211-0.173l8.485 6.466c0.454 0.348 0.461 0.61 0.154 1.215l0.228 0.174 5.268-6.91c-0.884-0.696-1.72-1.418-2.563-2.168l-0.199 0.258c1.293 1.372 1.198 2.072 0.326 3.215l-2.197 2.884-4.098-3.123 1.473-1.931c0.373-0.49 0.63-0.725 1.596-0.139l0.207-0.271c-0.503-0.319-0.973-0.612-1.477-0.997-0.471-0.358-0.877-0.734-1.318-1.134l-0.207 0.271c0.821 0.778 0.663 1.086 0.289 1.576l-1.473 1.932-3.478-2.65 2.375-3.116c0.456-0.598 1.002-0.913 2.427-0.086l0.208-0.271c-0.839-0.553-1.673-1.145-2.469-1.752zm107.66 8.18l-0.25 0.134c0.2 0.645 0.16 0.903-0.35 1.174l-9.5 5.108c-0.51 0.271-0.75 0.167-1.17-0.362l-0.25 0.137c0.17 0.316 0.61 0.875 0.91 1.447 0.31 0.573 0.54 1.249 0.71 1.565l0.25-0.135c-0.21-0.645-0.16-0.905 0.34-1.176l9.62-5.164 0.21 0.391c1.09 2.034 1.47 3.559-0.84 4.797-1.69 0.91-3.21 0.328-3.97-1.088l-0.49-0.905c-0.07-0.135-0.16-0.181-0.25-0.132-0.09 0.048-0.1 0.111-0.13 0.185-0.17 0.436 0.11 1.337 0.3 1.699 1.1 2.034 3.27 2.71 5.47 1.53 2-1.074 2.84-2.789 1.77-4.778l-2.38-4.427zm-114.77 1.412c-0.155 0.325-0.343 1.012-0.621 1.599s-0.688 1.168-0.841 1.493l0.257 0.123c0.397-0.55 0.631-0.667 1.149-0.422l4.064 1.926-2.314 4.882-4.063-1.924c-0.517-0.244-0.576-0.501-0.402-1.156l-0.26-0.123c-0.154 0.325-0.341 1.012-0.619 1.6-0.279 0.587-0.69 1.167-0.844 1.492l0.258 0.123c0.396-0.55 0.632-0.666 1.148-0.422l9.866 4.672c0.517 0.245 0.577 0.501 0.402 1.156l0.26 0.123c0.154-0.325 0.342-1.012 0.621-1.599 0.277-0.588 0.688-1.169 0.842-1.492l-0.258-0.124c-0.396 0.55-0.631 0.667-1.149 0.422l-4.656-2.205 2.313-4.884 4.656 2.205c0.517 0.245 0.577 0.501 0.402 1.156l0.258 0.121c0.154-0.325 0.342-1.01 0.621-1.598 0.278-0.587 0.69-1.168 0.844-1.492l-0.26-0.123c-0.396 0.55-0.631 0.665-1.148 0.42l-9.865-4.672c-0.517-0.244-0.577-0.499-0.403-1.154l-0.258-0.123zm117.13 9.219c-0.25 0.023-0.49 0.073-0.73 0.152-2.37 0.774-2.48 2.482-2.23 5.494 0.1 1.211 0.04 2.092-1.52 2.6-1.72 0.563-2.92-0.539-3.31-1.725-0.52-1.594 0.06-3.115 1.8-4.113l-0.11-0.324c-0.99 0.394-1.97 0.75-2.98 1.08-0.38 1.148-0.27 2.248 0.05 3.255 0.99 3.025 3.26 3.796 5.42 3.092 2.58-0.844 2.57-2.547 2.39-4.738-0.17-2.158-0.16-2.86 1.24-3.316 1.22-0.4 2.5 0.169 3.08 1.925 0.37 1.138 0.24 2.657-1.38 3.436l0.11 0.324c0.88-0.34 1.78-0.671 2.68-0.947 0.24-0.724-0.02-2.224-0.24-2.906-0.75-2.291-2.54-3.455-4.27-3.289zm-122.51 3.468l-1.977 8.213c1.081 0.314 2.13 0.671 3.195 1.051l0.08-0.332c-1.716-0.73-1.963-1.283-1.738-2.213l0.369-1.529 10.174 2.449c0.675 0.162 0.986 0.446 0.901 1.322l0.279 0.069c0.155-0.649 0.208-1.392 0.328-1.891s0.411-1.185 0.566-1.834l-0.277-0.066c-0.324 0.818-0.73 0.932-1.406 0.769l-10.172-2.449 0.367-1.527c0.225-0.932 0.694-1.311 2.555-1.18l0.078-0.334c-1.12-0.146-2.217-0.304-3.322-0.518zm128.53 6.616l-0.28 0.031c-0.05 0.676-0.19 0.897-0.76 0.959l-10.85 1.179c-0.57 0.063-0.76-0.123-0.95-0.773l-0.28 0.031c0.03 0.356 0.23 1.041 0.3 1.688 0.07 0.646 0.03 1.355 0.06 1.713l0.29-0.032c0.05-0.676 0.19-0.898 0.76-0.961l5.12-0.554 0.58 5.371-5.12 0.556c-0.56 0.063-0.75-0.123-0.94-0.773l-0.29 0.031c0.04 0.357 0.24 1.04 0.31 1.686s0.02 1.357 0.06 1.715l0.29-0.032c0.05-0.677 0.19-0.898 0.76-0.961l10.85-1.179c0.56-0.063 0.75 0.123 0.94 0.773l0.29-0.031c-0.04-0.356-0.24-1.039-0.31-1.686-0.07-0.646-0.02-1.355-0.06-1.712l-0.29 0.031c-0.05 0.676-0.19 0.896-0.76 0.959l-4.47 0.486-0.58-5.373 4.47-0.486c0.57-0.063 0.75 0.123 0.95 0.773l0.28-0.031c-0.04-0.356-0.23-1.039-0.3-1.686-0.07-0.646-0.03-1.355-0.07-1.712zm-131.11 4.562c-0.022 0.53 0.08 1.064 0.062 1.525-0.034 0.872-0.177 1.416-0.197 1.946l0.285 0.009c0.035-0.375 0.181-0.984 0.916-0.957l7.986 0.309c2.165 0.084 3.185 1.22 3.131 2.621-0.054 1.384-1.157 2.437-3.322 2.352l-7.986-0.309c-0.735-0.029-0.834-0.649-0.84-1.025l-0.287-0.01c-0.02 0.53 0.08 1.08 0.046 1.951-0.017 0.461-0.159 0.988-0.179 1.518l0.285 0.009c0.109-0.697 0.173-0.796 1.072-0.761l7.434 0.287c3.166 0.124 4.697-1.358 4.799-3.973 0.102-2.632-1.311-4.227-4.477-4.349l-7.434-0.288c-0.898-0.035-0.954-0.14-1.009-0.843l-0.285-0.012zm118.86 8.209c-0.01 0.359 0.07 1.066 0.04 1.715-0.04 0.65-0.2 1.344-0.21 1.701l0.28 0.016c0.16-0.659 0.33-0.857 0.9-0.827l10.9 0.563c0.58 0.029 0.73 0.242 0.82 0.914l0.28 0.016c0.02-0.359-0.07-1.066-0.03-1.715 0.03-0.649 0.19-1.343 0.21-1.701l-0.29-0.016c-0.15 0.66-0.33 0.856-0.9 0.826l-10.9-0.562c-0.57-0.029-0.72-0.242-0.81-0.914l-0.29-0.016zm-111.42 3.893c-0.436 0.014-0.873 0.061-1.305 0.142-2.934 0.549-6.253 2.702-5.555 6.434 0.488 2.606 3.827 4.991 7.764 4.254 3.636-0.682 6.297-3.129 5.664-6.508-0.546-2.912-3.519-4.424-6.568-4.322zm111.31 0.521c-0.07 0.353-0.08 1.062-0.21 1.701-0.13 0.636-0.38 1.302-0.45 1.655l0.28 0.054c0.25-0.631 0.45-0.8 1.01-0.687l10.59 2.092-0.18 0.906c-0.28 1.408-0.84 2.78-2.75 2.402-1.76-0.349-2.38-1.744-2.04-3.488 0.03-0.135-0.01-0.335-0.14-0.36-0.07-0.015-0.28 0.084-0.64 0.221l-3.9 1.481c-2.54 0.911-2.89 1.015-2.98 1.187-0.09 0.419-0.05 0.878-0.14 1.315-0.06 0.285-0.23 0.547-0.29 0.849l0.28 0.055c0.15-0.475 0.74-0.794 1.6-1.147l5.38-2.144c-0.16 1.642 0.76 3.325 2.81 3.728 1.66 0.329 3.2-0.186 3.64-2.418l0.96-4.865-0.28-0.055c-0.25 0.63-0.45 0.799-1.01 0.688l-10.59-2.094c-0.56-0.11-0.68-0.342-0.67-1.019l-0.28-0.057zm-110.46 0.9c2.506-0.1 3.992 1.195 4.283 2.754 0.485 2.588-2.181 4.672-5.014 5.202-3.697 0.692-5.284-1.343-5.514-2.569-0.4-2.135 1.592-4.597 5.108-5.256 0.399-0.074 0.779-0.116 1.137-0.131zm108.62 8.555l-3.32 8.027c1.03 0.445 2.02 0.935 3.03 1.435l0.12-0.3c-1.6-0.991-1.68-1.692-1.13-3.019l1.38-3.35 4.76 1.971-0.93 2.244c-0.23 0.569-0.42 0.862-1.51 0.541l-0.12 0.316c0.56 0.179 1.09 0.344 1.68 0.586 0.54 0.227 1.03 0.481 1.56 0.761l0.13-0.317c-0.99-0.542-0.91-0.881-0.68-1.45l0.93-2.244 4.04 1.674-1.5 3.617c-0.29 0.7-0.73 1.14-2.32 0.7l-0.13 0.32c0.95 0.32 1.91 0.68 2.83 1.06l3.15-7.613-0.26-0.111c-0.37 0.57-0.6 0.697-1.13 0.478l-9.86-4.082c-0.52-0.218-0.6-0.47-0.45-1.133l-0.27-0.111zm-103.88 1.346c-0.532 0.02-1.071 0.145-1.596 0.361-2.512 1.038-2.362 2.735-2.019 4.906 0.331 2.139 0.378 2.839-0.983 3.399-1.19 0.49-2.514 0.02-3.219-1.684-0.457-1.106-0.443-2.627 1.108-3.527l-0.129-0.317c-0.85 0.407-1.727 0.803-2.602 1.147-0.18 0.741 0.188 2.217 0.461 2.881 1.052 2.55 3.355 3.52 5.225 2.75 2.305-0.95 2.284-2.669 1.803-5.652-0.185-1.2-0.197-2.083 1.314-2.708 1.681-0.693 2.961 0.314 3.438 1.469 0.64 1.549 0.179 3.108-1.479 4.237l0.131 0.314c0.955-0.467 1.906-0.896 2.889-1.301 0.288-1.175 0.103-2.265-0.301-3.246-0.911-2.205-2.446-3.09-4.041-3.029zm89.937 22.646c-0.38 0.28-0.61 0.57-0.9 0.78-0.38 0.28-0.92 0.55-1.24 0.77l0.14 0.19c0.43-0.27 0.67-0.29 0.84-0.06 0.08 0.11 0.18 0.25 0.26 0.53l1.16 4.8-4.3-2.47c-0.29-0.17-0.43-0.29-0.53-0.43-0.17-0.22-0.04-0.44 0.33-0.73l-0.14-0.19c-0.42 0.3-0.77 0.68-1.18 0.98-0.42 0.3-0.9 0.53-1.33 0.84l0.14 0.2c0.49-0.24 0.81-0.13 1.29 0.13l5.47 2.97 1.8 2.47c0.34 0.47 0.37 0.82-0.18 1.35l0.14 0.19c0.47-0.34 0.93-0.8 1.29-1.06s0.93-0.56 1.4-0.9l-0.14-0.19c-0.67 0.36-1 0.22-1.34-0.25l-1.79-2.46-1.28-5.69c-0.19-0.87-0.21-1.22 0.23-1.58l-0.14-0.19zm-72.552 0.68l-0.137 0.2c0.46 0.4 0.505 0.49 0.076 1.11l-3.549 5.08c-1.51 2.17-1.115 3.94 0.748 5.24 1.875 1.31 3.674 1.07 5.184-1.1l3.547-5.09c0.429-0.61 0.531-0.6 1.07-0.31l0.135-0.2c-0.378-0.26-0.812-0.44-1.141-0.67-0.621-0.43-0.952-0.79-1.33-1.05l-0.137 0.2c0.259 0.2 0.639 0.59 0.288 1.09l-3.811 5.46c-1.034 1.48-2.32 1.67-3.318 0.97-0.987-0.69-1.259-1.96-0.225-3.44l3.811-5.46c0.351-0.51 0.847-0.28 1.125-0.11l0.136-0.2c-0.378-0.26-0.826-0.45-1.447-0.88-0.329-0.23-0.648-0.58-1.025-0.84zm65.592 4.44l-6.49 3.41c0.4 0.85 0.75 1.71 1.09 2.59l0.26-0.14c-0.48-1.48-0.25-1.95 0.49-2.33l1.21-0.64 4.05 7.72c0.27 0.52 0.26 0.87-0.37 1.31l0.11 0.21c0.52-0.27 1.03-0.65 1.43-0.86 0.39-0.21 1.01-0.41 1.52-0.68l-0.11-0.21c-0.72 0.26-1.02 0.07-1.29-0.45l-4.05-7.72 1.2-0.63c0.74-0.39 1.25-0.31 2.2 0.92l0.26-0.14c-0.53-0.78-1.03-1.55-1.51-2.36zm-57.544 1.07l-0.097 0.22c0.484 0.33 0.589 0.53 0.39 0.97l-3.779 8.27c-0.199 0.44-0.417 0.48-0.986 0.34l-0.098 0.21c0.445 0.21 0.934 0.32 1.379 0.52 0.379 0.17 0.713 0.44 1.092 0.61l0.099-0.21c-0.666-0.48-0.777-0.81-0.302-1.85l3.051-6.67 0.027 0.01 1.461 10.7 0.795 0.37 4.177-9.14c0.198-0.44 0.417-0.49 0.987-0.34l0.097-0.22c-0.446-0.2-0.932-0.31-1.378-0.52-0.378-0.17-0.715-0.44-1.092-0.61l-0.1 0.22c0.666 0.47 0.776 0.8 0.301 1.84l-2.561 5.61-0.029-0.01-1.285-9.34c-0.338-0.15-0.678-0.19-1.043-0.36-0.378-0.17-0.727-0.44-1.106-0.62zm50.124 2.53c-0.29 0.11-0.82 0.43-1.35 0.63-0.52 0.21-1.126 0.34-1.416 0.45l0.088 0.22c0.576-0.11 0.788-0.05 0.968 0.39l3.33 8.47c0.17 0.44 0.05 0.63-0.45 0.94l0.09 0.22c0.29-0.11 0.82-0.43 1.34-0.64 0.53-0.2 1.13-0.33 1.42-0.44l-0.08-0.23c-0.58 0.12-0.79 0.06-0.97-0.38l-3.33-8.47c-0.17-0.44-0.06-0.63 0.45-0.94l-0.09-0.22zm-40.647 1.5l-0.07 0.23c0.522 0.26 0.651 0.45 0.511 0.9l-2.681 8.7c-0.141 0.45-0.352 0.53-0.936 0.46l-0.07 0.22c0.297 0.1 0.909 0.18 1.449 0.34 0.539 0.17 1.09 0.45 1.389 0.54l0.07-0.23c-0.524-0.27-0.653-0.45-0.512-0.91l2.682-8.69c0.14-0.45 0.351-0.53 0.934-0.46l0.072-0.23c-0.298-0.09-0.911-0.17-1.449-0.34-0.54-0.16-1.091-0.44-1.389-0.53zm35.873 0.45c-0.656-0.04-1.505 0.09-1.957 0.21-2.306 0.63-3.408 2.45-2.963 4.08 0.548 2 2.019 2.15 4.635 2.03 1.051-0.04 1.81 0.04 2.17 1.35 0.399 1.47-0.614 2.43-1.66 2.72-1.403 0.38-2.688-0.15-3.463-1.63l-0.285 0.07c0.291 0.84 0.546 1.67 0.781 2.53 0.972 0.35 1.93 0.3 2.818 0.06 2.664-0.73 3.448-2.61 2.948-4.43-0.6-2.18-2.071-2.22-3.975-2.14-1.873 0.07-2.481 0.04-2.805-1.14-0.282-1.04 0.276-2.09 1.822-2.52 1.003-0.27 2.306-0.12 2.899 1.26l0.285-0.08c-0.25-0.74-0.488-1.51-0.68-2.27-0.153-0.05-0.351-0.08-0.57-0.1zm-32.598 0.71l-0.044 0.23c0.643 0.19 0.701 0.53 0.763 0.93l1.371 10.43 0.977 0.18 4.674-9.14c0.24-0.48 0.566-0.76 1.045-0.74l0.043-0.24c-0.365-0.07-0.75-0.04-1.114-0.1-0.438-0.09-0.87-0.27-1.308-0.35l-0.045 0.23c0.28 0.12 0.656 0.3 0.594 0.63-0.038 0.2-0.171 0.51-0.368 0.91l-3.435 6.8h-0.028l-0.943-7.87c-0.025-0.2-0.06-0.57-0.025-0.75 0.06-0.32 0.276-0.44 0.834-0.35l0.045-0.23c-0.438-0.09-0.866-0.06-1.289-0.14-0.584-0.11-1.163-0.32-1.747-0.43zm23.248 1.4c-0.21-0.01-0.438 0-0.683 0.03l-4.275 0.51 0.029 0.24c0.586 0.03 0.779 0.15 0.836 0.62l1.066 8.93c0.056 0.47-0.103 0.63-0.666 0.8l0.027 0.24c0.31-0.04 0.903-0.21 1.463-0.28s1.177-0.04 1.487-0.07l-0.03-0.24c-0.586-0.03-0.779-0.15-0.836-0.62l-1.066-8.93 0.795-0.1c1.237-0.15 2.52-0.06 2.711 1.55 0.179 1.49-0.811 2.34-2.344 2.52-0.117 0.02-0.271 0.11-0.26 0.21 0.008 0.07 0.144 0.2 0.354 0.45l2.252 2.7c1.422 1.77 1.602 2.02 1.769 2.05 0.369-0.04 0.741-0.19 1.123-0.23 0.252-0.03 0.513 0.04 0.78 0.01l-0.028-0.24c-0.433 0-0.853-0.38-1.373-0.97l-3.193-3.7c1.399-0.3 2.545-1.47 2.34-3.19-0.148-1.23-0.802-2.22-2.278-2.29zm-13.808 0.36l-0.008 0.24c0.575 0.12 0.749 0.26 0.734 0.74l-0.287 8.88c-0.016 0.48-0.196 0.61-0.779 0.69l-0.008 0.24 7.539 0.25c0.045-0.94 0.134-1.86 0.239-2.79l-0.282-0.01c-0.317 1.54-0.861 1.81-2.107 1.77l-3.149-0.1 0.139-4.29 2.108 0.07c0.533 0.02 0.828 0.08 0.902 1.02l0.297 0.01c-0.028-0.5-0.057-0.96-0.039-1.49 0.016-0.49 0.074-0.95 0.134-1.44l-0.296-0.01c-0.134 0.93-0.433 0.97-0.967 0.96l-2.108-0.07 0.118-3.65 3.398 0.11c0.654 0.02 1.152 0.24 1.287 1.61l0.295 0.01c-0.032-0.83-0.034-1.69-0.008-2.52l-7.152-0.23z" transform="matrix(.8 0 0 -.8 164.19 510.48)" fill="#fff"/></g><path d="m227.71 416.23c19.403 0 35.134 15.04 35.134 33.592s-15.731 33.591-35.134 33.591-35.132-15.039-35.132-33.591 15.729-33.592 35.132-33.592z" stroke="#001e60" stroke-linecap="square" stroke-miterlimit="2" stroke-width=".456" fill="none"/><g><path d="m81.234 39.098l-31.796 0.744s-14.37 39.632 31.796 57.172c46.166-17.54 31.796-57.172 31.796-57.172h-31.413l-0.383-0.744zm-73.072 71.682l11.006 7.86-13.146 7.42h29.351v-13.8l-27.211-1.48zm144.01 1.48l-27.21 2.23v11.57h29.35l-13.15-6.67 11.01-7.13z" transform="matrix(.8 0 0 -.8 164.19 510.48)" fill="#001e60"/><path d="m4.4922 111.12l10.369 6.52-10.369 5.79 29.352-0.74v-11.57h-29.352zm122 0v11.57h29.35l-11.15-5.8 11.15-5.77h-29.35z" transform="matrix(.8 0 0 -.8 164.19 510.48)" stroke="#001e60" stroke-linecap="round" stroke-width="0.57" fill="#fff"/><path d="m46.074 37.797s-14.37 39.632 31.797 57.172c46.169-17.54 31.799-57.172 31.799-57.172h-31.416-0.383-31.797zm29.924 57.506c-15.071 0.088-31.556 2.542-47.352 9.627v12.29s42.193-23.971 103.95 0v-12.22c-2.3-0.71-26.64-9.872-56.602-9.697zm56.602 9.697c0.25 0.08 0.28 0.07 0-0.07v0.07z" transform="matrix(.8 0 0 -.8 164.19 510.48)" stroke="#001e60" stroke-linecap="square" stroke-miterlimit="2" stroke-width="0.57" fill="#fff"/></g><g stroke="#001e60" fill="none"><path d="m226.67 434.7v45.488m-25.99-21.314h51.977" stroke-linecap="square" stroke-miterlimit="2" stroke-width=".456"/><path d="m214.02 475.47 0.121-12.043m7.706 11.927c-1.223-0.35-3.913 0.35-3.913 0.35-1.714 1.054-3.914-0.234-3.914-0.234-1.59 1.288-4.159 0.234-4.159 0.234-2.69-0.584-4.037-0.116-4.037-0.116" stroke-linecap="square" stroke-miterlimit="2" stroke-width=".152"/><g><path stroke-linejoin="round" d="m221.72 474.77 0.123-11.81s-7.827 2.689-7.582-0.466c0 0-1.346 3.741-8.071 0.116l-0.123 12.278" stroke-linecap="round" stroke-width=".912"/><path stroke-linejoin="round" d="m236.88 456.69c0 0.002 4.648-1.754 4.282-5.904 0 0-0.183-4.795-4.282-5.964m0 11.868c-0.001 0-4.646-1.754-4.279-5.904 0 0 0.185-4.795 4.279-5.964m0.429 11.693s2.385-1.345 2.569-5.729c0 0 0.244-3.1-2.509-5.728m-0.9156 11.457c-0.001 0-2.386-1.345-2.569-5.729 0 0-0.243-3.1 2.508-5.728m0.4876 11.632c0 0.002 3.364-4.971 0.185-11.751m-0.185 10.562c0 0.002-3.362-3.781-0.182-10.561m0.182 11.75v-11.751m0.063 11.927s5.259-1.344 5.443-6.08c0 0 0-4.853-5.443-6.022m-0.063 12.102s-5.257-1.344-5.441-6.08c0 0 0-4.853 5.441-6.022m0 12.099c-3.509 0-6.355-2.721-6.355-6.077 0-3.357 2.846-6.078 6.355-6.078 3.511 0 6.356 2.721 6.356 6.078 0 3.356-2.845 6.077-6.356 6.077z" stroke-linecap="round" stroke-width=".061"/><path d="m239.29 464.19s-0.545 4.285 3.269 4.083c0 0 0.829-3.34-3.269-4.083m-0.6864 3.3398s-1.695 1.554 0.848 4.187c0 0 2.992-1.406 0.918-3.985m-1.0796-3.6596s-3.814 1.213-2.452 3.997c0 0 3.836 0.081 2.452-3.997zm-1.4892 9.2813s0.671-0.934-0.368-2.396c0 0-1.835-2.164-2.078-2.631 0 0-1.285-2.924 2.507-4.503m1.0382 11.635s0.979-3.216 3.547-5.378c0 0 3.057-3.509-1.529-6.198m-1.6496-1.4839h0.548v1.4h2.257c3.415 0.583 3.6 3.383 3.6 3.383 0.853 2.914-3.417 5.131-3.417 5.131-2.318 1.109-2.805 4.607-2.805 4.607h-0.245s-0.486-3.498-2.805-4.607c0 0-4.271-2.217-3.416-5.131 0 0 0.184-2.8 3.6-3.383h2.255v-1.4h0.55-0.122z" stroke-width="0.304"/></g></g><path d="m64.711 67.076l-0.611 3.362c-1.68 0.584-3.364 0-3.364 0l0.614 2.63c-0.154 2.045-1.684 1.608-1.684 1.608-2.904-0.876-0.916-4.238-0.916-4.238-1.375 0-1.988 1.316-1.988 1.316-1.53-1.169-2.752-0.442-2.752-0.442 3.211 1.757 3.365 8.186 3.365 8.186h7.336 7.338s0.154-6.429 3.363-8.186c0 0-1.223-0.727-2.752 0.442 0 0-0.611-1.316-1.986-1.316 0 0 1.988 3.362-0.916 4.238 0 0-1.531 0.437-1.684-1.608l0.612-2.63s-1.681 0.584-3.362 0l-0.613-3.362zm26.689 0.024s-0.227 1.463-0.535 0.951c0 0-0.381 1.388 0.307 2.338 0 0 0.841 1.315 1.603 1.095 0 0 1.76-0.438 1.913 0.44 0 0 0.456 1.023-0.458 2.412 0 0 0.075 1.755-0.613 2.338 0 0-0.151 0.732 0.154 1.096 0 0 0.917 0.146 1.758-0.073 0 0 1.3-1.096 1.68-1.9 0 0 1.682-1.827 1.529-2.41 0 0-0.687-2.997-2.521-4.239 0 0-2.065-2.121-4.817-2.048zm-28.677 1.439c-0.479 0-0.864 0.369-0.864 0.828 0 0.456 0.385 0.826 0.864 0.826 0.478 0 0.865-0.37 0.865-0.826 0-0.459-0.387-0.828-0.865-0.828zm3.988 0c-0.479 0-0.865 0.369-0.865 0.828 0 0.456 0.386 0.826 0.865 0.826 0.476 0 0.863-0.37 0.863-0.826 0-0.459-0.387-0.828-0.863-0.828zm18.955 0.389c-2.061 1.753-2.291 2.998-2.291 2.998-0.229 0.436 0.611 0.219 0.611 0.219 0.078 0.656 0.537 1.166 0.537 1.166-0.155 0.513-0.228 1.974-0.228 1.974-0.076 0.586 1.223 1.682 1.223 1.682 0.23 0.584 1.068 0.803 1.068 0.803-0.306 0.295 0.842 2.412 0.842 2.412 0.381 0.657 1.758 0.658 1.758 0.658 0.686 0.291-0.383-1.533-0.383-1.533-0.689-0.513-1.375-2.34-1.375-2.34-0.154-0.658 1.22-0.803 1.22-0.803 0.84 0.145 0.612-1.537 0.612-1.537 0.536-0.438-0.153-1.168-0.153-1.168-0.535-1.17 0.079-1.828 0.079-1.828-0.993-0.073-1.606-0.656-1.606-0.656-0.611 0.217-1.914-2.047-1.914-2.047zm-25.953 3.148c-0.479 0-0.865 0.372-0.865 0.828 0 0.458 0.386 0.828 0.865 0.828s0.865-0.37 0.865-0.828c0-0.456-0.386-0.828-0.865-0.828zm9.961 0.051c-0.478 0-0.865 0.369-0.865 0.826 0 0.455 0.387 0.826 0.865 0.826 0.479 0 0.865-0.371 0.865-0.826 0-0.457-0.386-0.826-0.865-0.826zm9.541 25.689c-0.068 0-0.14 0.004-0.221 0.008l-0.723 0.033c-0.27 0.01-0.524 0.017-0.763 0.018-0.36 0.003-0.849-0.007-1.467-0.027l0.002 0.293c0.36 0.005 0.579 0.02 0.656 0.045 0.076 0.025 0.133 0.064 0.168 0.115 0.036 0.052 0.057 0.22 0.069 0.508 0.017 0.387 0.026 0.787 0.027 1.201l0.01 2.08c-0.009 0.79-0.015 1.22-0.018 1.28-0.009 0.23-0.031 0.38-0.066 0.43-0.032 0.05-0.088 0.09-0.166 0.11-0.079 0.03-0.298 0.05-0.657 0.05v0.3c0.857-0.03 1.338-0.05 1.442-0.05 0.267 0 0.687 0.01 1.256 0.03l-0.002-0.29c-0.36 0-0.579-0.02-0.657-0.05-0.077-0.02-0.134-0.06-0.169-0.11-0.035-0.06-0.058-0.23-0.069-0.51-0.016-0.39-0.026-0.79-0.027-1.2l-0.01-2.264c-0.002-0.677 0.011-1.178 0.041-1.498 0.333-0.103 0.641-0.155 0.93-0.158 0.322-0.002 0.597 0.05 0.824 0.158 0.226 0.107 0.397 0.264 0.508 0.473 0.112 0.206 0.168 0.44 0.168 0.701 0.001 0.266-0.056 0.508-0.168 0.728-0.114 0.23-0.272 0.39-0.477 0.5s-0.423 0.17-0.652 0.17c-0.155 0-0.368-0.03-0.641-0.09l0.104 0.34c0.227 0.04 0.438 0.05 0.635 0.05 0.232 0 0.441-0.02 0.625-0.08 0.27-0.08 0.529-0.21 0.777-0.4 0.247-0.18 0.436-0.4 0.566-0.67 0.129-0.258 0.193-0.522 0.192-0.784-0.002-0.298-0.081-0.56-0.239-0.789-0.157-0.229-0.376-0.395-0.656-0.498-0.28-0.104-0.663-0.155-1.152-0.153zm2.451 0.002c0.02 0.28 0.019 0.781 0 1.502l0.293 0.008 0.066-0.459c0.037-0.275 0.073-0.439 0.108-0.49 0.022-0.029 0.071-0.049 0.144-0.055 0.235-0.021 0.552-0.027 0.95-0.015l0.687 0.019-0.008 0.762c0 0.149-0.002 0.289-0.006 0.414l-0.08 2.626c-0.04 0.79-0.06 1.21-0.062 1.28-0.016 0.23-0.045 0.37-0.086 0.43-0.029 0.04-0.082 0.08-0.162 0.1-0.079 0.03-0.3 0.04-0.66 0.03l-0.01 0.3c0.834 0 1.311 0.01 1.43 0.01 0.275 0.01 0.685 0.03 1.23 0.06l0.01-0.29c-0.361-0.02-0.579-0.04-0.656-0.07s-0.132-0.07-0.165-0.12c-0.032-0.06-0.05-0.23-0.05-0.51-0.004-0.39 0.001-0.79 0.013-1.2l0.08-2.632c0.014-0.488 0.042-0.878 0.082-1.164l0.563 0.017c0.154 0.004 0.361 0.018 0.625 0.039s0.418 0.037 0.459 0.047c0.034 0.01 0.058 0.023 0.074 0.039s0.03 0.043 0.037 0.08c0.008 0.036 0.022 0.186 0.039 0.447l0.022 0.438 0.293 0.008c0.032-0.661 0.071-1.159 0.117-1.496-0.253 0.007-0.652 0.007-1.201 0.006-0.758-0.003-1.241-0.005-1.449-0.01-0.193-0.007-0.579-0.025-1.157-0.055-0.713-0.04-1.236-0.073-1.57-0.096zm-9.512 0.053c-0.547 0.026-1.029 0.13-1.447 0.313-0.419 0.183-0.789 0.446-1.111 0.781-0.322 0.337-0.547 0.71-0.674 1.115-0.128 0.41-0.18 0.85-0.158 1.33 0.018 0.42 0.112 0.84 0.281 1.26 0.169 0.43 0.404 0.79 0.705 1.07 0.301 0.29 0.663 0.51 1.086 0.64 0.422 0.13 0.874 0.19 1.355 0.16 1.055-0.04 1.914-0.42 2.577-1.13 0.663-0.7 0.972-1.56 0.927-2.57-0.013-0.32-0.062-0.61-0.142-0.883-0.082-0.272-0.186-0.509-0.311-0.709-0.165-0.266-0.386-0.509-0.66-0.727-0.275-0.216-0.621-0.385-1.041-0.505-0.419-0.12-0.882-0.167-1.387-0.145zm15.252 0.135l-0.017 0.293c0.358 0.027 0.576 0.054 0.652 0.084 0.075 0.03 0.129 0.073 0.16 0.127s0.044 0.224 0.035 0.511c-0.006 0.389-0.021 0.787-0.045 1.199l-0.121 2.08c-0.058 0.78-0.092 1.21-0.101 1.27-0.023 0.24-0.053 0.38-0.094 0.43-0.033 0.05-0.09 0.08-0.17 0.1-0.081 0.02-0.299 0.03-0.658 0.01l-0.018 0.3 1.414 0.04c0.204 0.01 0.629 0.05 1.276 0.11l0.017-0.3c-0.362-0.02-0.583-0.05-0.658-0.08-0.077-0.03-0.131-0.07-0.164-0.13-0.031-0.05-0.044-0.22-0.035-0.51 0.014-0.39 0.031-0.79 0.055-1.19l0.123-2.08c0.058-0.793 0.09-1.219 0.097-1.28 0.023-0.23 0.054-0.375 0.094-0.431 0.034-0.045 0.089-0.076 0.168-0.098 0.079-0.021 0.3-0.025 0.664-0.01l0.016-0.293c-0.593-0.011-1.042-0.023-1.346-0.041-0.318-0.017-0.764-0.055-1.344-0.111zm3.102 0.125l-0.029 0.305c0.357 0.04 0.573 0.076 0.648 0.109 0.075 0.034 0.126 0.078 0.156 0.133 0.029 0.055 0.033 0.225 0.016 0.511-0.024 0.388-0.053 0.782-0.094 1.191l-0.203 2.07c-0.088 0.78-0.14 1.2-0.148 1.27-0.033 0.23-0.069 0.37-0.112 0.42-0.035 0.05-0.092 0.08-0.174 0.09-0.081 0.02-0.3 0.02-0.658-0.01l-0.029 0.29 1.16 0.08 1.102 0.14 0.027-0.29c-0.363-0.04-0.581-0.08-0.654-0.11-0.077-0.04-0.13-0.08-0.159-0.14-0.03-0.05-0.036-0.23-0.017-0.51 0.015-0.39 0.044-0.79 0.084-1.19l0.308-3.148 1.743 4.668 0.246 0.68c0.026 0.07 0.054 0.17 0.082 0.28l0.179 0.02c0.252-0.47 0.438-0.81 0.561-1.03 0.17-0.29 0.403-0.67 0.699-1.16l1.891-3.087-0.322 3.287c-0.09 0.79-0.14 1.21-0.149 1.28-0.03 0.23-0.065 0.37-0.111 0.42-0.033 0.04-0.089 0.07-0.17 0.09s-0.306 0.02-0.67-0.01l-0.027 0.29c0.7 0.04 1.152 0.07 1.357 0.09 0.253 0.03 0.682 0.08 1.295 0.16l0.029-0.29c-0.359-0.04-0.573-0.07-0.648-0.11-0.074-0.03-0.126-0.08-0.156-0.13-0.029-0.06-0.036-0.23-0.016-0.52 0.022-0.38 0.054-0.78 0.094-1.18l0.203-2.07c0.089-0.79 0.138-1.211 0.146-1.272 0.029-0.23 0.065-0.37 0.112-0.424 0.033-0.042 0.093-0.074 0.171-0.092 0.08-0.018 0.303-0.013 0.663 0.016l0.029-0.305c-0.459-0.02-0.789-0.041-0.994-0.06-0.223-0.023-0.491-0.058-0.813-0.113-0.178 0.357-0.524 0.953-1.035 1.79l-1.885 3.07-1.386-3.681c-0.179-0.472-0.375-1.024-0.582-1.65-0.274-0.003-0.556-0.016-0.85-0.045-0.291-0.028-0.594-0.069-0.91-0.123zm-18.533 0.137c0.336-0.015 0.652 0.02 0.947 0.109s0.536 0.202 0.724 0.342c0.188 0.139 0.353 0.306 0.493 0.5 0.14 0.193 0.255 0.412 0.345 0.656 0.147 0.395 0.231 0.825 0.252 1.305 0.025 0.56-0.043 1.06-0.203 1.49-0.16 0.44-0.415 0.78-0.767 1.04-0.354 0.25-0.777 0.39-1.27 0.41-0.354 0.02-0.68-0.03-0.976-0.13-0.298-0.1-0.569-0.27-0.817-0.5-0.247-0.24-0.453-0.53-0.617-0.88-0.098-0.21-0.183-0.46-0.254-0.75s-0.111-0.58-0.125-0.87c-0.022-0.51 0.049-0.97 0.217-1.379 0.166-0.411 0.429-0.733 0.787-0.963 0.356-0.231 0.779-0.357 1.264-0.38zm-8.791 0.353l-0.291 0.031c-0.308 1.004-0.51 1.648-0.606 1.938l-0.875 2.66c-0.264 0.77-0.418 1.21-0.461 1.33-0.075 0.2-0.135 0.33-0.18 0.38s-0.096 0.09-0.154 0.12c-0.057 0.02-0.207 0.04-0.447 0.07l0.031 0.29c0.351-0.06 0.676-0.1 0.975-0.14 0.259-0.02 0.648-0.05 1.166-0.09l-0.031-0.29c-0.284 0.03-0.483 0.04-0.598 0.03-0.071-0.01-0.127-0.03-0.166-0.07-0.028-0.02-0.043-0.06-0.047-0.1-0.01-0.09 0.018-0.25 0.086-0.47l0.359-1.2 2.647-0.28 0.709 1.31c0.054 0.1 0.082 0.18 0.09 0.24 0.003 0.05-0.005 0.08-0.028 0.12-0.023 0.03-0.07 0.05-0.142 0.08-0.072 0.02-0.277 0.05-0.617 0.1l0.031 0.29 1.467-0.19c0.188-0.02 0.52-0.05 0.998-0.08l-0.03-0.29c-0.242 0.02-0.398 0.02-0.47 0-0.072-0.03-0.143-0.09-0.211-0.19-0.123-0.17-0.384-0.61-0.778-1.31l-2.427-4.289zm-4.151 0.49c-0.449 0.102-0.773 0.167-0.974 0.201-0.22 0.038-0.493 0.073-0.817 0.104-0.08 0.393-0.259 1.054-0.535 1.994l-1.016 3.46-2.302-3.19c-0.297-0.41-0.626-0.89-0.993-1.44-0.262 0.07-0.54 0.12-0.832 0.17-0.288 0.05-0.591 0.09-0.91 0.12l0.049 0.3c0.356-0.05 0.576-0.07 0.656-0.06 0.082 0.01 0.142 0.04 0.186 0.09 0.042 0.04 0.091 0.21 0.148 0.49 0.079 0.38 0.154 0.77 0.221 1.17l0.344 2.05c0.119 0.78 0.181 1.2 0.187 1.26 0.029 0.23 0.032 0.38 0.004 0.44-0.022 0.05-0.071 0.1-0.144 0.14-0.074 0.03-0.287 0.09-0.641 0.15l0.049 0.29 1.141-0.23 1.099-0.15-0.047-0.29c-0.361 0.06-0.584 0.08-0.664 0.07-0.082-0.02-0.145-0.05-0.187-0.09-0.044-0.05-0.093-0.21-0.151-0.49-0.086-0.38-0.165-0.77-0.232-1.17l-0.52-3.12 2.901 4.05 0.416 0.59c0.045 0.07 0.095 0.15 0.152 0.25l0.176-0.03c0.121-0.51 0.213-0.89 0.275-1.13 0.088-0.33 0.212-0.76 0.373-1.3l1.022-3.48 0.547 3.26c0.117 0.78 0.18 1.2 0.187 1.27 0.031 0.23 0.032 0.37 0.002 0.44-0.019 0.05-0.065 0.09-0.139 0.13-0.073 0.04-0.29 0.09-0.648 0.16l0.047 0.29c0.687-0.14 1.131-0.23 1.334-0.26 0.25-0.05 0.682-0.11 1.295-0.19l-0.047-0.29c-0.358 0.06-0.575 0.08-0.656 0.07-0.08-0.02-0.143-0.05-0.186-0.09-0.044-0.05-0.092-0.21-0.148-0.5-0.08-0.38-0.154-0.76-0.221-1.16l-0.344-2.06c-0.119-0.78-0.181-1.2-0.187-1.26-0.033-0.226-0.034-0.373-0.004-0.437 0.021-0.05 0.069-0.095 0.14-0.133 0.073-0.04 0.289-0.09 0.645-0.156l-0.051-0.303zm43.757 0.364c-0.55 0.895-0.91 1.465-1.08 1.725l-1.52 2.34c-0.457 0.68-0.718 1.07-0.79 1.17-0.123 0.18-0.215 0.29-0.271 0.33-0.058 0.04-0.117 0.06-0.18 0.07-0.061 0-0.212-0.01-0.451-0.04l-0.045 0.29c0.355 0.03 0.682 0.06 0.979 0.11 0.257 0.04 0.638 0.11 1.148 0.21l0.04-0.29c-0.28-0.04-0.47-0.09-0.58-0.13-0.066-0.02-0.114-0.06-0.142-0.1-0.02-0.04-0.027-0.07-0.021-0.11 0.016-0.1 0.082-0.24 0.203-0.43l0.66-1.07 2.63 0.4 0.34 1.45c0.03 0.11 0.04 0.2 0.03 0.26-0.01 0.04-0.03 0.08-0.06 0.1-0.03 0.03-0.08 0.04-0.15 0.04-0.08 0.01-0.29-0.01-0.63-0.06l-0.04 0.29 1.46 0.19c0.19 0.03 0.52 0.09 0.99 0.19l0.04-0.29c-0.24-0.04-0.39-0.09-0.45-0.13s-0.11-0.12-0.16-0.23c-0.07-0.2-0.21-0.69-0.41-1.47l-1.25-4.77-0.29-0.045zm-39.851 0.402l1.432 2.593-2.316 0.25 0.884-2.843zm-12.878 0.773c-0.439 0.13-0.759 0.23-0.957 0.28-0.217 0.05-0.485 0.11-0.805 0.17-0.048 0.39-0.171 1.07-0.369 2.02l-0.737 3.53-2.552-2.99c-0.328-0.39-0.695-0.84-1.104-1.36-0.257 0.09-0.529 0.18-0.816 0.25-0.283 0.07-0.584 0.14-0.899 0.19l0.074 0.3c0.352-0.09 0.568-0.12 0.649-0.12 0.081 0.01 0.145 0.03 0.191 0.07 0.047 0.04 0.109 0.2 0.188 0.48 0.11 0.37 0.214 0.75 0.314 1.15l0.51 2.02c0.181 0.76 0.278 1.18 0.289 1.24 0.049 0.23 0.06 0.37 0.039 0.44-0.019 0.05-0.061 0.1-0.133 0.14-0.07 0.05-0.278 0.11-0.625 0.21l0.071 0.28 1.117-0.32 1.086-0.24-0.072-0.28c-0.355 0.08-0.574 0.12-0.657 0.12-0.081-0.01-0.146-0.03-0.193-0.08-0.048-0.04-0.111-0.2-0.19-0.48-0.117-0.37-0.226-0.75-0.326-1.14l-0.771-3.06 3.221 3.8 0.46 0.55c0.049 0.06 0.109 0.14 0.174 0.24l0.174-0.04c0.08-0.53 0.139-0.91 0.182-1.16 0.061-0.33 0.149-0.77 0.265-1.32l0.739-3.55 0.806 3.2c0.182 0.77 0.279 1.19 0.291 1.25 0.052 0.23 0.063 0.37 0.039 0.44-0.016 0.05-0.059 0.1-0.129 0.14-0.071 0.05-0.283 0.12-0.634 0.21l0.072 0.29c0.674-0.2 1.11-0.32 1.309-0.37 0.246-0.07 0.67-0.16 1.275-0.29l-0.072-0.28c-0.35 0.08-0.566 0.12-0.647 0.11-0.081 0-0.147-0.03-0.193-0.07-0.048-0.05-0.111-0.21-0.19-0.48-0.11-0.37-0.213-0.75-0.312-1.15l-0.51-2.02c-0.18-0.76-0.274-1.18-0.287-1.24-0.05-0.22-0.065-0.37-0.041-0.44 0.019-0.05 0.062-0.09 0.131-0.14 0.069-0.04 0.279-0.11 0.629-0.21l-0.074-0.29zm52.469 0.02l0.71 2.88-2.3-0.35 1.59-2.53zm7.02 0.01c-0.73-0.03-1.38 0.13-1.95 0.48-0.77 0.48-1.26 1.19-1.46 2.13-0.13 0.65-0.12 1.26 0.05 1.84 0.17 0.59 0.46 1.05 0.88 1.39 0.41 0.34 1 0.59 1.76 0.75-0.31 0.04-0.75 0.19-1.32 0.45l-0.06 0.29 0.47-0.15c0.09-0.03 0.17-0.05 0.25-0.06 0.07 0 0.13 0 0.19 0.01 0.18 0.04 0.61 0.26 1.32 0.68 0.38 0.22 0.64 0.37 0.79 0.45s0.3 0.14 0.45 0.19c0.15 0.06 0.25 0.09 0.29 0.09 0.07-0.04 0.14-0.07 0.21-0.1s0.2-0.08 0.37-0.13c0.1-0.03 0.18-0.06 0.25-0.09l0.05-0.23c-0.22 0.03-0.38 0.02-0.5 0-0.18-0.04-0.39-0.11-0.63-0.23-0.23-0.11-0.6-0.34-1.1-0.67-0.22-0.15-0.39-0.25-0.51-0.31-0.13-0.05-0.27-0.11-0.42-0.17 0.65 0.09 1.27 0.04 1.85-0.17 0.58-0.2 1.06-0.53 1.44-0.98s0.63-0.99 0.76-1.61c0.11-0.53 0.12-1.02 0.01-1.47-0.08-0.33-0.23-0.66-0.45-0.96-0.21-0.31-0.51-0.58-0.89-0.81s-0.83-0.4-1.35-0.51c-0.26-0.06-0.51-0.09-0.75-0.1zm-0.03 0.37c0.16 0.01 0.34 0.03 0.52 0.07 0.39 0.08 0.74 0.23 1.03 0.43 0.3 0.21 0.52 0.45 0.68 0.74 0.17 0.29 0.27 0.64 0.31 1.05s0.01 0.84-0.08 1.29c-0.12 0.55-0.31 1.02-0.59 1.41-0.27 0.39-0.61 0.66-1.02 0.8-0.4 0.14-0.85 0.16-1.33 0.06-0.35-0.08-0.65-0.2-0.89-0.36-0.24-0.17-0.44-0.36-0.6-0.6-0.16-0.23-0.28-0.49-0.36-0.77-0.09-0.28-0.13-0.59-0.14-0.95-0.01-0.35 0.02-0.67 0.08-0.95 0.19-0.88 0.54-1.5 1.05-1.85 0.39-0.27 0.83-0.39 1.34-0.37zm4.56 0.66l-0.08 0.28c0.35 0.1 0.56 0.17 0.62 0.22 0.07 0.05 0.11 0.1 0.13 0.16s0 0.23-0.07 0.51c-0.09 0.37-0.19 0.76-0.3 1.16l-0.54 1.91c-0.16 0.56-0.22 0.97-0.21 1.23 0.02 0.2 0.09 0.41 0.21 0.63 0.13 0.22 0.34 0.43 0.65 0.63 0.3 0.2 0.68 0.36 1.13 0.48 0.39 0.11 0.76 0.17 1.1 0.17 0.35-0.01 0.65-0.06 0.9-0.16 0.33-0.14 0.58-0.34 0.76-0.6 0.19-0.25 0.38-0.74 0.58-1.45l0.41-1.46c0.22-0.76 0.34-1.17 0.35-1.23 0.08-0.22 0.14-0.35 0.19-0.4 0.04-0.03 0.1-0.05 0.18-0.06 0.08 0 0.3 0.04 0.65 0.13l0.08-0.28c-0.53-0.12-0.9-0.22-1.11-0.27-0.22-0.06-0.57-0.17-1.05-0.33l-0.07 0.28c0.34 0.1 0.55 0.18 0.62 0.22 0.06 0.05 0.11 0.1 0.13 0.16s-0.01 0.23-0.08 0.51c-0.09 0.38-0.19 0.76-0.3 1.16l-0.37 1.34c-0.11 0.37-0.21 0.68-0.31 0.92s-0.2 0.42-0.3 0.55c-0.1 0.12-0.24 0.22-0.4 0.3-0.15 0.08-0.37 0.12-0.65 0.13s-0.58-0.03-0.91-0.13c-0.29-0.07-0.53-0.17-0.75-0.3-0.21-0.12-0.37-0.25-0.48-0.38-0.14-0.19-0.22-0.39-0.25-0.61-0.02-0.21 0.05-0.64 0.23-1.26l0.44-1.6c0.23-0.76 0.35-1.17 0.37-1.23 0.07-0.22 0.14-0.35 0.19-0.4 0.04-0.04 0.1-0.06 0.18-0.06 0.09 0 0.3 0.04 0.65 0.13l0.08-0.28c-0.42-0.09-0.84-0.2-1.26-0.32-0.42-0.11-0.86-0.25-1.34-0.4zm-72.861 1.24c-0.509 0.2-0.86 0.34-1.059 0.41-0.217 0.08-0.569 0.2-1.049 0.34l0.1 0.28c0.34-0.12 0.551-0.18 0.635-0.18 0.082 0 0.15 0.02 0.201 0.05 0.05 0.04 0.126 0.19 0.228 0.46 0.147 0.36 0.289 0.73 0.426 1.12l0.467 1.3c0.132 0.37 0.227 0.68 0.287 0.93 0.059 0.26 0.083 0.46 0.07 0.62-0.012 0.17-0.061 0.32-0.146 0.48-0.086 0.15-0.239 0.32-0.461 0.48-0.223 0.17-0.497 0.31-0.82 0.43-0.277 0.1-0.537 0.16-0.782 0.19-0.246 0.02-0.451 0.01-0.617-0.04-0.22-0.07-0.403-0.18-0.551-0.35-0.148-0.16-0.332-0.55-0.55-1.16l-0.559-1.56c-0.256-0.75-0.394-1.15-0.41-1.21-0.07-0.22-0.096-0.37-0.078-0.44 0.011-0.05 0.049-0.1 0.115-0.15 0.065-0.06 0.265-0.14 0.602-0.27l-0.098-0.28c-0.396 0.17-0.8 0.33-1.211 0.48-0.405 0.14-0.847 0.29-1.326 0.44l0.097 0.27c0.342-0.11 0.554-0.17 0.635-0.18 0.083 0 0.147 0.02 0.197 0.06 0.05 0.03 0.129 0.19 0.235 0.45 0.145 0.36 0.287 0.74 0.426 1.12l0.67 1.87c0.196 0.55 0.375 0.92 0.539 1.13 0.126 0.15 0.305 0.28 0.535 0.39 0.23 0.1 0.526 0.15 0.888 0.13 0.363-0.01 0.768-0.1 1.211-0.26 0.382-0.13 0.712-0.3 0.995-0.5 0.281-0.2 0.492-0.42 0.634-0.65 0.189-0.31 0.285-0.61 0.285-0.93 0.002-0.31-0.123-0.81-0.375-1.51l-0.507-1.42c-0.259-0.75-0.399-1.15-0.42-1.21-0.07-0.22-0.097-0.37-0.08-0.43 0.012-0.06 0.05-0.11 0.115-0.16 0.064-0.05 0.265-0.14 0.605-0.27l-0.099-0.27zm80.111 0.81l-0.1 0.28c0.34 0.13 0.54 0.21 0.61 0.26 0.06 0.05 0.1 0.11 0.12 0.17 0.01 0.06-0.02 0.23-0.11 0.5-0.11 0.37-0.24 0.75-0.38 1.14l-0.76 2.16c-0.1 0.27-0.22 0.59-0.37 0.96-0.1 0.24-0.17 0.38-0.22 0.42-0.03 0.04-0.07 0.05-0.12 0.06-0.11 0.01-0.31-0.04-0.62-0.15l-0.1 0.28c0.73 0.23 1.11 0.35 1.15 0.37l2.58 0.94c0.35 0.13 0.66 0.21 0.92 0.26 0.13-0.37 0.34-0.83 0.61-1.37l-0.29-0.1c-0.06 0.12-0.17 0.29-0.32 0.52-0.09 0.14-0.17 0.24-0.23 0.32-0.16 0.01-0.31-0.01-0.48-0.04-0.16-0.03-0.43-0.11-0.8-0.24-0.52-0.19-0.98-0.36-1.39-0.54 0.08-0.28 0.21-0.68 0.4-1.2 0.2-0.56 0.35-0.97 0.47-1.26 0.37 0.11 0.65 0.19 0.84 0.26 0.48 0.17 0.8 0.3 0.96 0.39 0.08 0.06 0.13 0.11 0.15 0.18 0.01 0.06-0.01 0.2-0.08 0.41l-0.09 0.29 0.29 0.1 0.32-0.99 0.34-0.88 0.03-0.08-0.27-0.09-0.13 0.29c-0.09 0.19-0.15 0.3-0.19 0.32-0.04 0.03-0.11 0.03-0.2 0.01-0.26-0.06-0.56-0.14-0.9-0.26-0.29-0.1-0.59-0.22-0.92-0.37l0.52-1.43c0.1-0.27 0.22-0.56 0.34-0.87 0.11 0.03 0.29 0.08 0.53 0.15 0.24 0.08 0.4 0.13 0.47 0.15 0.33 0.11 0.64 0.25 0.95 0.4 0.19 0.09 0.35 0.2 0.48 0.32-0.04 0.25-0.12 0.53-0.22 0.81l0.28 0.1c0.24-0.55 0.37-0.84 0.39-0.86 0.06-0.12 0.14-0.24 0.25-0.39-0.25-0.12-0.51-0.23-0.8-0.34-0.28-0.09-0.74-0.25-1.37-0.46l-1.31-0.44-1.23-0.46zm-87.576 2.29c-0.296 0-0.599 0.03-0.906 0.1-0.308 0.08-0.582 0.17-0.817 0.28-0.391 0.19-0.716 0.44-0.976 0.76-0.259 0.31-0.407 0.65-0.444 1.02-0.036 0.36 0.022 0.7 0.174 1.02 0.104 0.22 0.244 0.4 0.418 0.55s0.358 0.25 0.549 0.3 0.45 0.05 0.779 0c0.239-0.06 0.519-0.14 0.844-0.25 0.325-0.1 0.542-0.17 0.652-0.21 0.179-0.04 0.344-0.05 0.493-0.02 0.148 0.02 0.281 0.09 0.396 0.19 0.115 0.11 0.214 0.25 0.299 0.42 0.112 0.24 0.162 0.49 0.152 0.74-0.011 0.26-0.104 0.51-0.279 0.75-0.176 0.23-0.404 0.42-0.684 0.55-0.191 0.09-0.405 0.16-0.64 0.19-0.237 0.04-0.434 0.04-0.594 0.02-0.161-0.02-0.274-0.06-0.34-0.12-0.066-0.05-0.199-0.28-0.4-0.66l-0.274 0.13c0.27 0.58 0.445 1.02 0.528 1.3 0.546 0 1.092-0.13 1.638-0.39 0.724-0.34 1.216-0.83 1.481-1.45 0.263-0.62 0.267-1.2 0.009-1.74-0.108-0.23-0.243-0.41-0.404-0.54s-0.328-0.22-0.502-0.26c-0.174-0.05-0.409-0.05-0.705 0-0.301 0.08-0.636 0.18-1.002 0.3s-0.638 0.19-0.814 0.21c-0.258 0.03-0.459 0-0.606-0.08-0.146-0.09-0.274-0.25-0.383-0.47-0.181-0.38-0.204-0.75-0.076-1.11 0.129-0.35 0.395-0.62 0.801-0.81 0.314-0.15 0.652-0.22 1.016-0.2 0.158 0.02 0.297 0.07 0.412 0.13 0.036 0.03 0.155 0.25 0.361 0.66l0.278-0.13c-0.13-0.29-0.224-0.51-0.28-0.67-0.055-0.15-0.107-0.32-0.154-0.51zm39.414 3.5c-0.358 0.18-0.714 0.37-1.096 0.49v0.13c0.234 0.03 0.412 0.09 0.412 0.4v4.37c0 0.21-0.202 0.31-0.42 0.34v0.12c0.264-0.03 0.476-0.05 0.754-0.05 0.28 0 0.491 0.02 0.754 0.05v-0.12c-0.217-0.03-0.42-0.13-0.42-0.34v-4.46c0-0.31 0.008-0.62 0.016-0.93zm3.623 0c-1.097 0-1.656 1.08-1.656 2.06 0 0.77 0.388 1.88 1.414 1.88 0.436 0 0.833-0.29 1.082-0.65h0.014c-0.179 1.14-0.925 2.09-1.78 2.65l0.063 0.19c1.321-0.62 2.502-2.17 2.502-3.93 0-1.08-0.551-2.2-1.639-2.2zm7.711 0c-0.381 0-0.754 0.08-1.088 0.29-0.022 0.39-0.069 0.76-0.123 1.15h0.154c0.109-0.51 0.529-0.99 1.041-0.99 0.498 0 0.895 0.38 0.895 1.34 0 1.47-1.22 2.53-2.113 3.47v0.54h2.812l0.102-0.72h-2.34c0.949-0.91 2.254-1.85 2.254-3.41 0-0.73-0.467-1.67-1.594-1.67zm-3.986 0c-0.337 0-0.686 0.08-1.036 0.25-0.062 0.4-0.149 0.8-0.242 1.2h0.157c0.195-0.51 0.475-1.11 1.035-1.11 0.512 0 0.824 0.43 0.824 1.04 0 0.92-0.631 1.22-1.416 1.24l-0.047 0.34c0.956 0.06 1.648 0.27 1.648 1.02 0 1.08-0.957 1.53-2.099 1.67l0.039 0.29c1.229-0.02 2.775-0.73 2.775-1.99 0-0.95-0.659-1.21-1.367-1.23v-0.02c0.591-0.11 1.182-0.61 1.182-1.36 0-0.94-0.74-1.34-1.453-1.34zm-3.819 0.39c0.474 0 1.067 0.51 1.067 1.7 0 0.83-0.452 1.41-1.012 1.41-0.7 0-1.041-0.97-1.041-1.71 0-0.83 0.434-1.4 0.986-1.4z" transform="matrix(.8 0 0 -.8 164.19 510.48)" fill="#001e60"/></g></svg>
