<?xml version="1.0" encoding="UTF-8" standalone="no"?>
<!-- Created with Inkscape (http://www.inkscape.org/) -->
<svg
   xmlns:dc="http://purl.org/dc/elements/1.1/"
   xmlns:cc="http://creativecommons.org/ns#"
   xmlns:rdf="http://www.w3.org/1999/02/22-rdf-syntax-ns#"
   xmlns:svg="http://www.w3.org/2000/svg"
   xmlns="http://www.w3.org/2000/svg"
   xmlns:sodipodi="http://sodipodi.sourceforge.net/DTD/sodipodi-0.dtd"
   xmlns:inkscape="http://www.inkscape.org/namespaces/inkscape"
   width="885.82672"
   height="885.82672"
   id="svg2"
   sodipodi:version="0.32"
   inkscape:version="0.46"
   version="1.0"
   sodipodi:docname="Logo FH St. Pölten neu.svg"
   inkscape:output_extension="org.inkscape.output.svg.inkscape">
  <defs
     id="defs4">
    <clipPath
       id="clipPath3789"
       clipPathUnits="userSpaceOnUse">
      <path
         id="path3791"
         d="M 425.197,637.795 L 496.063,637.795 L 496.063,708.662 L 425.197,708.662 L 425.197,637.795 z" />
    </clipPath>
    <clipPath
       id="clipPath3757"
       clipPathUnits="userSpaceOnUse">
      <path
         id="path3759"
         d="M 425.197,637.795 L 496.063,637.795 L 496.063,708.662 L 425.197,708.662 L 425.197,637.795 z" />
    </clipPath>
    <clipPath
       id="clipPath3729"
       clipPathUnits="userSpaceOnUse">
      <path
         id="path3731"
         d="M 0,0 L 566.929,0 L 566.929,779.528 L 0,779.528 L 0,0 z" />
    </clipPath>
    <clipPath
       id="clipPath3715"
       clipPathUnits="userSpaceOnUse">
      <path
         id="path3717"
         d="M 0,0 L 566.929,0 L 566.929,708.662 L 0,708.662 L 0,0 z" />
    </clipPath>
    <inkscape:perspective
       id="perspective3707"
       inkscape:persp3d-origin="372.04724 : 350.78739 : 1"
       inkscape:vp_z="744.09448 : 526.18109 : 1"
       inkscape:vp_y="0 : 1000 : 0"
       inkscape:vp_x="0 : 526.18109 : 1"
       sodipodi:type="inkscape:persp3d" />
  </defs>
  <sodipodi:namedview
     id="base"
     pagecolor="#ffffff"
     bordercolor="#666666"
     borderopacity="1.0"
     inkscape:pageopacity="0.0"
     inkscape:pageshadow="2"
     inkscape:zoom="0.49497475"
     inkscape:cx="811.99574"
     inkscape:cy="466.55052"
     inkscape:document-units="px"
     inkscape:current-layer="layer1"
     showgrid="false"
     units="cm"
     inkscape:window-width="1440"
     inkscape:window-height="844"
     inkscape:window-x="-4"
     inkscape:window-y="-4" />
  <metadata
     id="metadata7">
    <rdf:RDF>
      <cc:Work
         rdf:about="">
        <dc:format>image/svg+xml</dc:format>
        <dc:type
           rdf:resource="http://purl.org/dc/dcmitype/StillImage" />
      </cc:Work>
    </rdf:RDF>
  </metadata>
  <g
     inkscape:label="Ebene 1"
     inkscape:groupmode="layer"
     id="layer1">
    <g
       id="g4026"
       transform="translate(37.84221,34.267572)">
      <path
         id="path3751"
         style="fill:#0057a3;fill-opacity:1;fill-rule:nonzero;stroke:none"
         d="M 10.256932,803.45969 L 799.88537,803.45969 L 799.88537,13.831887 L 10.256932,13.831887 L 10.256932,803.45969 z" />
      <path
         d="M 178.58339,515.72566 L 160.4656,515.72566 L 160.4656,491.42377 L 178.58339,491.42377 C 178.58339,458.51982 190.07091,448.35782 222.09459,448.35782 C 228.0563,448.35782 234.24086,448.80352 240.21237,449.02637 L 240.21237,475.53449 C 236.66904,475.07765 233.36015,474.86594 230.05126,474.86594 C 221.43762,474.86594 216.13377,475.96905 216.13377,486.34277 L 216.13377,491.42377 L 238.65241,491.42377 L 238.65241,515.72566 L 216.13377,515.72566 L 216.13377,606.05829 L 178.58339,606.05829 L 178.58339,515.72566 z"
         style="fill:#ffffff;fill-opacity:1;fill-rule:nonzero;stroke:none"
         id="path3763" />
      <path
         d="M 268.6954,448.36228 L 306.24583,448.36228 L 306.24583,507.11693 L 306.68083,507.11693 C 312.4188,495.40611 327.89624,488.11889 341.57929,488.11889 C 379.78637,488.11889 382.8733,515.95297 382.8733,532.5108 L 382.8733,606.06274 L 345.33388,606.06274 L 345.33388,550.61743 C 345.33388,534.93987 347.10599,519.02831 326.55914,519.02831 C 312.4188,519.02831 306.24583,530.96198 306.24583,543.55305 L 306.24583,606.06274 L 268.6954,606.06274 L 268.6954,448.36228 z"
         style="fill:#ffffff;fill-opacity:1;fill-rule:nonzero;stroke:none"
         id="path3767" />
      <path
         d="M 458.15949,448.12499 L 494.08306,448.12499 L 460.73386,605.94802 L 424.81029,605.94802 L 458.15949,448.12499 z"
         style="fill:#ffffff;fill-opacity:1;fill-rule:nonzero;stroke:none"
         id="path3771" />
      <path
         d="M 537.12449,448.12499 L 573.04806,448.12499 L 539.69797,605.94802 L 503.7744,605.94802 L 537.12449,448.12499 z"
         style="fill:#ffffff;fill-opacity:1;fill-rule:nonzero;stroke:none"
         id="path3775" />
      <path
         d="M 616.0895,448.12499 L 652.01307,448.12499 L 618.66298,605.94802 L 582.73941,605.94802 L 616.0895,448.12499 z"
         style="fill:#ffffff;fill-opacity:1;fill-rule:nonzero;stroke:none"
         id="path3779" />
      <path
         d="M 102.82565,448.12499 L 138.74922,448.12499 L 105.40003,605.94802 L 69.476452,605.94802 L 102.82565,448.12499 z"
         style="fill:#ffffff;fill-opacity:1;fill-rule:nonzero;stroke:none"
         id="path3783" />
      <path
         d="M 280.06975,706.71455 C 280.16959,713.18837 285.60715,715.80687 291.45744,715.80687 C 295.73618,715.80687 301.17374,714.12435 301.17374,708.89849 C 301.17374,704.41919 295.01146,702.84809 284.34849,700.54158 C 275.79102,698.66963 267.22191,695.63886 267.22191,686.13427 C 267.22191,672.33978 279.13378,668.79645 290.72203,668.79645 C 302.53313,668.79645 313.39667,672.76319 314.5448,686.02284 L 300.43833,686.02284 C 300.02561,680.28443 295.63545,678.71333 290.3102,678.71333 C 286.96744,678.71333 282.05313,679.33731 282.05313,683.72748 C 282.05313,689.06476 290.41004,689.78902 298.87837,691.7724 C 307.54728,693.76691 316.00402,696.89797 316.00402,706.91512 C 316.00402,721.12187 303.68126,725.72374 291.34601,725.72374 C 278.81109,725.72374 266.59792,721.02158 265.96324,706.71455 L 280.06975,706.71455 z"
         style="fill:#ffffff;fill-opacity:1;fill-rule:nonzero;stroke:none"
         id="path3795" />
      <path
         d="M 345.87853,670.25496 L 356.74269,670.25496 L 356.74269,680.18299 L 345.87853,680.18299 L 345.87853,706.9251 C 345.87853,711.93925 347.13719,713.18721 352.15107,713.18721 C 353.71192,713.18721 355.17115,713.08693 356.74269,712.7638 L 356.74269,724.36319 C 354.23517,724.78661 350.99314,724.88689 348.07406,724.88689 C 338.98174,724.88689 331.04825,722.80323 331.04825,712.03953 L 331.04825,680.18299 L 322.06646,680.18299 L 322.06646,670.25496 L 331.04825,670.25496 L 331.04825,654.06484 L 345.87853,654.06484 L 345.87853,670.25496 z"
         style="fill:#ffffff;fill-opacity:1;fill-rule:nonzero;stroke:none"
         id="path3799" />
      <path
         id="path3801"
         style="fill:#ffffff;fill-opacity:1;fill-rule:nonzero;stroke:none"
         d="M 368.6465,708.17975 L 385.04744,708.17975 L 385.04744,724.26959 L 368.6465,724.26959 L 368.6465,708.17975 z" />
      <path
         d="M 449.08054,697.41712 C 449.08054,688.8485 445.63705,679.96789 436.1329,679.96789 C 426.4166,679.96789 423.28599,688.63679 423.28599,697.41712 C 423.28599,706.18631 426.61716,714.54322 436.23274,714.54322 C 445.94993,714.54322 449.08054,706.18631 449.08054,697.41712 M 408.97806,670.25157 L 423.07383,670.25157 L 423.07383,677.14883 L 423.28599,677.14883 C 426.84001,671.4104 432.6903,668.7919 439.36424,668.7919 C 456.28932,668.7919 463.91082,682.47497 463.91082,697.8294 C 463.91082,712.24785 455.97822,725.71919 440.21107,725.71919 C 433.72611,725.71919 427.56472,722.90013 424.00981,717.57399 L 423.79765,717.57399 L 423.79765,743.26871 L 408.97806,743.26871 L 408.97806,670.25157 z"
         style="fill:#ffffff;fill-opacity:1;fill-rule:nonzero;stroke:none"
         id="path3805" />
      <path
         id="path3807"
         style="fill:#ffffff;fill-opacity:1;fill-rule:nonzero;stroke:none"
         d="M 504.8637,649.68136 L 518.95857,649.68136 L 518.95857,661.90474 L 504.8637,661.90474 L 504.8637,649.68136 z M 501.1091,714.54215 C 511.23723,714.54215 514.26801,705.87325 514.26801,697.30463 C 514.26801,688.63573 511.23723,679.97797 501.1091,679.97797 C 491.07992,679.97797 488.05004,688.63573 488.05004,697.30463 C 488.05004,705.87325 491.07992,714.54215 501.1091,714.54215 M 483.35858,649.68136 L 497.45435,649.68136 L 497.45435,661.90474 L 483.35858,661.90474 L 483.35858,649.68136 z M 501.1091,668.79083 C 518.13492,668.79083 529.09918,680.07825 529.09918,697.30463 C 529.09918,714.44187 518.13492,725.71812 501.1091,725.71812 C 484.18313,725.71812 473.21886,714.44187 473.21886,697.30463 C 473.21886,680.07825 484.18313,668.79083 501.1091,668.79083" />
      <path
         id="path3809"
         style="fill:#ffffff;fill-opacity:1;fill-rule:nonzero;stroke:none"
         d="M 540.80956,649.68136 L 555.63984,649.68136 L 555.63984,724.26959 L 540.80956,724.26959 L 540.80956,649.68136 z" />
      <path
         d="M 588.11725,670.25496 L 598.98168,670.25496 L 598.98168,680.18299 L 588.11725,680.18299 L 588.11725,706.9251 C 588.11725,711.93925 589.36521,713.18721 594.39005,713.18721 C 595.9509,713.18721 597.41013,713.08693 598.98168,712.7638 L 598.98168,724.36319 C 596.47416,724.78661 593.23212,724.88689 590.31188,724.88689 C 581.21956,724.88689 573.28696,722.80323 573.28696,712.03953 L 573.28696,680.18299 L 564.29448,680.18299 L 564.29448,670.25496 L 573.28696,670.25496 L 573.28696,654.06484 L 588.11725,654.06484 L 588.11725,670.25496 z"
         style="fill:#ffffff;fill-opacity:1;fill-rule:nonzero;stroke:none"
         id="path3813" />
      <path
         d="M 644.2115,691.46032 C 642.8637,683.9391 639.62078,679.97235 632.4111,679.97235 C 623.01838,679.97235 620.2889,687.28186 620.07675,691.46032 L 644.2115,691.46032 z M 620.07675,700.86463 C 620.50016,710.26894 625.10248,714.54767 633.34708,714.54767 C 639.30878,714.54767 644.11078,710.89292 645.04675,707.55016 L 658.10582,707.55016 C 653.92781,720.28609 645.04675,725.72365 632.82382,725.72365 C 615.8096,725.72365 605.24646,714.02398 605.24646,697.31015 C 605.24646,681.12003 616.43269,668.79636 632.82382,668.79636 C 651.22061,668.79636 660.08919,684.25109 659.04179,700.86463 L 620.07675,700.86463 z"
         style="fill:#ffffff;fill-opacity:1;fill-rule:nonzero;stroke:none"
         id="path3817" />
      <path
         d="M 670.01408,670.25496 L 684.12054,670.25496 L 684.12054,677.7762 L 684.43254,677.7762 C 688.18802,671.71463 694.66139,668.79529 700.93509,668.79529 C 716.71294,668.79529 720.6788,677.67592 720.6788,691.04697 L 720.6788,724.26291 L 705.84851,724.26291 L 705.84851,693.75461 C 705.84851,684.88514 703.24116,680.49498 696.33278,680.49498 C 688.29945,680.49498 684.84526,684.98543 684.84526,695.94969 L 684.84526,724.26291 L 670.01408,724.26291 L 670.01408,670.25496 z"
         style="fill:#ffffff;fill-opacity:1;fill-rule:nonzero;stroke:none"
         id="path3821" />
    </g>
  </g>
</svg>
