<?xml version="1.0" encoding="utf-8"?>
<!-- Generator: Adobe Illustrator 22.0.1, SVG Export Plug-In . SVG Version: 6.00 Build 0)  -->
<svg version="1.1" id="Layer_1" xmlns="http://www.w3.org/2000/svg" xmlns:xlink="http://www.w3.org/1999/xlink" x="0px" y="0px"
	 width="316.2px" height="316.2px" viewBox="0 0 316.2 316.2" enable-background="new 0 0 316.2 316.2" xml:space="preserve">
<circle fill="#A32638" cx="158.1" cy="158.1" r="156.62"/>
<path fill="#9A989A" d="M158.1,316.1c-87.12,0-158-70.88-158-158s70.88-158,158-158s158,70.88,158,158S245.22,316.1,158.1,316.1z
	 M158.1,2.87C72.5,2.87,2.87,72.5,2.87,158.1c0,85.6,69.64,155.23,155.23,155.23S313.33,243.7,313.33,158.1
	C313.33,72.5,243.7,2.87,158.1,2.87z M158.1,306.78c-81.98,0-148.68-66.7-148.68-148.68C9.42,76.12,76.12,9.42,158.1,9.42
	c81.98,0,148.68,66.7,148.68,148.68C306.78,240.08,240.08,306.78,158.1,306.78z M158.1,11.08c-81.07,0-147.02,65.95-147.02,147.02
	c0,81.07,65.95,147.02,147.02,147.02c81.07,0,147.02-65.95,147.02-147.02C305.12,77.03,239.17,11.08,158.1,11.08z M158.33,269.42
	c-61.25,0-111.08-49.83-111.08-111.09c0-61.25,49.83-111.08,111.08-111.08c61.25,0,111.08,49.83,111.08,111.08
	C269.42,219.58,219.58,269.42,158.33,269.42z M158.33,48.91c-60.34,0-109.42,49.09-109.42,109.42
	c0,60.34,49.09,109.42,109.42,109.42s109.42-49.09,109.42-109.42C267.75,97.99,218.67,48.91,158.33,48.91z M158.1,264.62
	c-58.73,0-106.52-47.78-106.52-106.52c0-58.73,47.78-106.52,106.52-106.52c58.73,0,106.52,47.78,106.52,106.52
	C264.62,216.83,216.83,264.62,158.1,264.62z M158.1,52.69c-58.12,0-105.41,47.29-105.41,105.41c0,58.12,47.29,105.41,105.41,105.41
	c58.12,0,105.41-47.29,105.41-105.41C263.51,99.98,216.22,52.69,158.1,52.69z M68.98,236.5l-5.46,4.99l-0.9-1.14
	c1.06-1.72,1.66-3.32,1.78-4.78c0.12-1.46-0.23-2.72-1.06-3.77c-0.64-0.81-1.42-1.29-2.33-1.43c-0.91-0.14-1.74,0.09-2.5,0.68
	c-0.6,0.47-0.96,1.03-1.1,1.67c-0.14,0.64-0.07,1.46,0.22,2.47l1.03,3.73c0.45,1.62,0.54,3,0.29,4.14c-0.26,1.14-0.88,2.1-1.87,2.88
	c-1.28,1.02-2.66,1.41-4.14,1.19c-1.47-0.23-2.76-1.03-3.85-2.41c-0.51-0.64-0.91-1.43-1.22-2.37c-0.31-0.94-0.52-1.48-0.63-1.62
	c-0.1-0.12-0.24-0.17-0.42-0.15c-0.18,0.03-0.44,0.14-0.76,0.32l-0.86-1.08l4.74-4.18l0.84,1.06c-0.96,1.41-1.49,2.69-1.59,3.83
	c-0.1,1.14,0.23,2.19,0.98,3.14c0.63,0.8,1.37,1.27,2.21,1.42c0.84,0.15,1.62-0.05,2.32-0.61c0.51-0.41,0.83-0.89,0.95-1.44
	c0.12-0.55,0.06-1.26-0.19-2.11l-1.07-3.76c-0.51-1.74-0.63-3.23-0.35-4.46c0.28-1.23,0.97-2.28,2.07-3.16
	c1.32-1.05,2.77-1.46,4.35-1.26c1.58,0.21,2.91,0.99,3.99,2.35c0.36,0.45,0.66,0.91,0.89,1.38c0.23,0.47,0.41,0.94,0.53,1.41
	c0.04,0.15,0.09,0.37,0.16,0.65c0.2,0.8,0.35,1.27,0.45,1.4c0.16,0.21,0.39,0.31,0.68,0.31c0.29,0,0.63-0.11,1.01-0.33L68.98,236.5z
	 M41.91,234.47l6.4-3.39l-0.71-1.23c-1.88,0.8-3.43,1.09-4.64,0.87c-1.21-0.22-2.18-0.95-2.91-2.21l-0.19-0.33l12.79-7.41
	c0.77-0.45,1.36-0.6,1.77-0.44c0.41,0.16,0.99,0.81,1.76,1.97l1.2-0.69l-4.8-8.29l-1.2,0.69c0.62,1.24,0.9,2.07,0.84,2.49
	c-0.06,0.43-0.49,0.87-1.27,1.32l-12.79,7.41l-0.19-0.33c-0.73-1.26-0.88-2.46-0.47-3.6c0.42-1.15,1.44-2.34,3.07-3.59l-0.73-1.25
	l-6.11,3.9L41.91,234.47z M43.71,192.12l-6.92,2.18l0.54,1.43c1.87-0.49,3.46-0.4,4.77,0.26c1.31,0.66,2.3,1.89,2.98,3.67l0.54,1.43
	c0.36,0.95,0.47,1.65,0.33,2.1c-0.14,0.45-0.65,0.84-1.54,1.18l-5.68,2.15l-0.25-0.66c-0.41-1.08-0.42-2.02-0.04-2.81
	c0.39-0.79,1.19-1.47,2.41-2.05l-0.49-1.29l-8.71,3.29l0.49,1.29c1.3-0.38,2.35-0.39,3.15-0.06c0.81,0.34,1.41,1.05,1.82,2.14
	l0.25,0.66l-4.66,1.76c-0.89,0.34-1.53,0.38-1.93,0.13c-0.4-0.25-0.78-0.85-1.14-1.8l-0.48-1.27c-0.63-1.67-0.72-3.16-0.26-4.47
	c0.46-1.31,1.45-2.41,2.98-3.3l-0.54-1.43l-6.1,2.72l6.19,16.38l1.29-0.49c-0.34-1.1-0.44-1.85-0.3-2.23
	c0.14-0.39,0.64-0.74,1.49-1.06l11.69-4.42c0.85-0.32,1.46-0.39,1.82-0.19c0.36,0.19,0.78,0.82,1.25,1.87l1.29-0.49L43.71,192.12z
	 M26.02,187.97c-0.18,0.11-0.34,0.2-0.49,0.26c-0.15,0.07-0.27,0.11-0.37,0.13c-0.39,0.08-0.71-0.03-0.94-0.32
	c-0.24-0.29-0.47-0.85-0.69-1.68l-1.35,0.27l1.56,7.82l1.36-0.27c-0.03-0.68,0.08-1.23,0.33-1.66c0.25-0.43,0.75-0.86,1.5-1.31
	L42,182.12l-0.33-1.68l-17.08-2.56c-0.93-0.14-1.63-0.36-2.1-0.65c-0.47-0.3-0.81-0.73-1.05-1.31l-1.36,0.27l1.19,5.98l1.35-0.27
	c0.01-0.92,0.07-1.53,0.2-1.83c0.13-0.3,0.36-0.48,0.7-0.54c0.22-0.04,0.59-0.03,1.12,0.05c0.17,0.02,0.3,0.04,0.39,0.04l12.1,1.66
	L26.02,187.97z M38.85,153.72l-7.25-0.17l0.05,1.53c1.93,0.14,3.4,0.74,4.43,1.79c1.03,1.05,1.57,2.53,1.64,4.43l0.05,1.53
	c0.03,1.02-0.09,1.72-0.36,2.1c-0.27,0.38-0.89,0.59-1.83,0.62l-6.07,0.2l-0.02-0.7c-0.04-1.16,0.25-2.05,0.87-2.67
	c0.62-0.62,1.6-1.01,2.95-1.16l-0.05-1.38l-9.31,0.31l0.05,1.38c1.35,0.06,2.35,0.38,3,0.96c0.65,0.58,1,1.45,1.04,2.61l0.02,0.7
	l-4.98,0.17c-0.95,0.03-1.57-0.13-1.87-0.5c-0.3-0.36-0.47-1.05-0.5-2.07l-0.05-1.35c-0.06-1.79,0.34-3.23,1.19-4.32
	c0.86-1.09,2.15-1.81,3.88-2.16l-0.05-1.53l-6.65,0.61l0.58,17.5l1.38-0.05c0.03-1.15,0.18-1.89,0.44-2.21
	c0.26-0.32,0.85-0.49,1.76-0.53l12.49-0.42c0.91-0.03,1.51,0.11,1.79,0.41c0.28,0.3,0.48,1.03,0.58,2.17l1.38-0.05L38.85,153.72z
	 M20.09,142.23l-0.87,6.14l1.37,0.19c0.23-1.13,0.5-1.83,0.81-2.09c0.31-0.26,0.92-0.33,1.83-0.21l12.38,1.75
	c0.91,0.13,1.48,0.36,1.7,0.7c0.22,0.34,0.29,1.08,0.19,2.23l1.37,0.19l0.98-6.91l-1.37-0.19c-0.23,1.14-0.5,1.84-0.81,2.11
	c-0.31,0.27-0.92,0.34-1.82,0.21l-13.07-1.85l18.58-8.55l0.26-1.82l-16.34-2.31c-0.9-0.13-1.47-0.36-1.69-0.71
	c-0.22-0.34-0.29-1.09-0.2-2.24L22,128.71l-0.97,6.89l1.37,0.19c0.23-1.12,0.5-1.82,0.8-2.09c0.31-0.27,0.92-0.34,1.83-0.21
	l10.71,1.51L20.09,142.23z M43.18,128.08c-0.39-0.2-0.67-0.41-0.84-0.65c-0.17-0.24-0.21-0.48-0.13-0.74
	c0.05-0.16,0.35-0.55,0.9-1.17c0.2-0.22,0.35-0.38,0.45-0.5c0.33-0.36,0.61-0.77,0.87-1.23c0.25-0.46,0.46-0.96,0.63-1.51
	c0.51-1.66,0.41-3.2-0.32-4.62c-0.72-1.42-1.89-2.38-3.5-2.88c-1.35-0.42-2.61-0.39-3.78,0.08c-1.17,0.47-2.33,1.4-3.48,2.81
	l-2.5,3.01c-0.56,0.69-1.11,1.14-1.63,1.35c-0.53,0.21-1.1,0.22-1.73,0.03c-0.86-0.26-1.46-0.79-1.81-1.57
	c-0.35-0.78-0.38-1.66-0.08-2.63c0.36-1.16,1.04-2.02,2.04-2.58c1-0.56,2.35-0.85,4.06-0.86l0.4-1.3l-6.13-1.54l-0.41,1.32
	c0.34,0.16,0.57,0.31,0.7,0.44c0.12,0.13,0.16,0.28,0.12,0.43c-0.05,0.17-0.38,0.65-0.98,1.43c-0.6,0.79-1.03,1.57-1.27,2.35
	c-0.52,1.68-0.46,3.2,0.19,4.54c0.65,1.34,1.75,2.26,3.32,2.74c1.21,0.37,2.36,0.35,3.44-0.09c1.08-0.43,2.17-1.29,3.25-2.58
	l2.5-2.96c0.67-0.8,1.31-1.33,1.92-1.58c0.61-0.25,1.27-0.26,2-0.04c0.92,0.28,1.58,0.84,1.98,1.67c0.4,0.83,0.44,1.74,0.14,2.73
	c-0.39,1.28-1.23,2.28-2.51,3.01c-1.28,0.73-2.93,1.14-4.95,1.24l-0.43,1.38l7.2,1.68L43.18,128.08z M32.18,99.43l1.23,0.63
	c0.58-0.99,1.07-1.57,1.45-1.72c0.38-0.16,0.98-0.03,1.79,0.39l11.15,5.65c0.81,0.41,1.27,0.82,1.37,1.22
	c0.1,0.4-0.08,1.13-0.54,2.19l1.23,0.63l3.94-7.76l-1.23-0.63c-0.58,0.99-1.06,1.56-1.44,1.71c-0.38,0.16-0.98,0.03-1.8-0.39
	l-11.15-5.65c-0.82-0.42-1.28-0.82-1.38-1.22c-0.1-0.4,0.08-1.12,0.54-2.17l-1.23-0.63L32.18,99.43z M41.51,82.68l-3.52,5.11
	l1.14,0.78c0.71-0.91,1.26-1.41,1.66-1.51c0.39-0.1,0.97,0.11,1.73,0.63l10.29,7.09c0.76,0.52,1.16,0.99,1.21,1.39
	c0.05,0.4-0.23,1.1-0.82,2.09l1.14,0.78l3.96-5.74l-1.14-0.78c-0.72,0.92-1.28,1.42-1.67,1.53c-0.4,0.1-0.97-0.11-1.72-0.62
	l-10.87-7.49l20.45,0.65l1.04-1.51l-13.59-9.36c-0.75-0.52-1.15-0.98-1.2-1.39c-0.05-0.41,0.23-1.11,0.82-2.1l-1.14-0.78l-3.95,5.73
	l1.14,0.78c0.71-0.9,1.26-1.4,1.65-1.51c0.39-0.1,0.97,0.1,1.73,0.63l8.9,6.14L41.51,82.68z M68.48,80.34
	c-0.27-0.35-0.42-0.67-0.47-0.96c-0.04-0.29,0.02-0.53,0.21-0.72c0.12-0.12,0.56-0.34,1.33-0.64c0.27-0.11,0.48-0.19,0.62-0.25
	c0.45-0.18,0.89-0.42,1.33-0.72c0.43-0.3,0.85-0.66,1.24-1.07c1.2-1.26,1.79-2.68,1.77-4.28c-0.01-1.6-0.63-2.98-1.85-4.14
	c-1.02-0.97-2.16-1.51-3.42-1.61c-1.26-0.1-2.71,0.22-4.37,0.97l-3.58,1.58c-0.81,0.36-1.5,0.53-2.06,0.48
	c-0.57-0.04-1.08-0.29-1.56-0.74c-0.65-0.62-0.96-1.35-0.92-2.21c0.03-0.86,0.4-1.65,1.1-2.39c0.84-0.88,1.83-1.35,2.97-1.41
	c1.14-0.06,2.48,0.29,4.02,1.04l0.93-0.98l-4.8-4.11l-0.95,1c0.23,0.29,0.38,0.53,0.43,0.71c0.05,0.18,0.02,0.32-0.09,0.44
	c-0.12,0.13-0.63,0.41-1.52,0.85c-0.89,0.44-1.62,0.95-2.18,1.54c-1.22,1.28-1.83,2.66-1.85,4.15c-0.02,1.49,0.56,2.8,1.75,3.93
	c0.92,0.87,1.96,1.36,3.12,1.46c1.16,0.1,2.51-0.19,4.06-0.86l3.55-1.53c0.96-0.42,1.77-0.6,2.42-0.56
	c0.65,0.05,1.25,0.33,1.81,0.86c0.7,0.67,1.04,1.46,1.03,2.38c-0.01,0.92-0.38,1.76-1.09,2.51c-0.92,0.97-2.12,1.49-3.58,1.58
	c-1.47,0.08-3.13-0.28-4.98-1.09l-1,1.05l5.7,4.71L68.48,80.34z M65.83,54.21l4.25,5.87l1.12-0.88c-1.05-1.75-1.55-3.25-1.51-4.47
	c0.04-1.23,0.64-2.29,1.78-3.19l0.3-0.24l9.13,11.63c0.55,0.7,0.78,1.27,0.68,1.7c-0.1,0.43-0.67,1.1-1.7,2.01l0.85,1.09l7.54-5.91
	l-0.85-1.09c-1.14,0.79-1.92,1.18-2.35,1.18c-0.43,0-0.93-0.36-1.48-1.07L74.45,49.2l0.3-0.24c1.14-0.9,2.31-1.22,3.5-0.97
	c1.19,0.25,2.52,1.1,3.98,2.54l1.14-0.89l-4.71-5.51L65.83,54.21z M82.31,41.9l0.72,1.18c1.02-0.54,1.73-0.77,2.14-0.7
	c0.41,0.07,0.85,0.5,1.32,1.28l6.48,10.69c0.47,0.78,0.65,1.37,0.52,1.76c-0.13,0.39-0.66,0.92-1.61,1.57l0.72,1.18l7.44-4.51
	l-0.72-1.18c-1.01,0.53-1.72,0.76-2.13,0.7c-0.4-0.07-0.84-0.49-1.32-1.28L89.39,41.9c-0.48-0.79-0.65-1.38-0.52-1.76
	c0.13-0.39,0.66-0.91,1.6-1.56l-0.72-1.18L82.31,41.9z M93.39,35.22l2.72,6.72l1.3-0.58c-0.6-1.95-0.73-3.52-0.39-4.7
	c0.34-1.18,1.17-2.07,2.49-2.67l0.35-0.16l6.07,13.48c0.37,0.82,0.45,1.42,0.26,1.81c-0.2,0.39-0.91,0.91-2.14,1.55l0.57,1.26
	l8.73-3.94l-0.57-1.26c-1.29,0.49-2.15,0.69-2.56,0.58c-0.42-0.11-0.81-0.57-1.18-1.4l-6.07-13.48l0.35-0.16
	c1.32-0.6,2.54-0.63,3.63-0.1c1.1,0.53,2.18,1.67,3.25,3.42l1.32-0.6l-3.25-6.48L93.39,35.22z M119.94,28.66
	c-0.23-0.89-0.23-1.5,0-1.84c0.23-0.34,0.89-0.68,1.98-1.04l-0.35-1.34l-8.42,2.2l0.35,1.34c1.13-0.22,1.88-0.24,2.25-0.06
	c0.37,0.18,0.67,0.72,0.9,1.6l2.19,8.41c0.7,2.67,1.76,4.47,3.21,5.4c1.44,0.94,3.38,1.09,5.8,0.46c2.45-0.64,4.07-1.71,4.87-3.21
	c0.79-1.5,0.84-3.6,0.14-6.3l-2.19-8.41c-0.23-0.88-0.23-1.49,0-1.83c0.23-0.34,0.9-0.69,1.99-1.05l-0.35-1.34l-6.74,1.76l0.35,1.34
	c1.13-0.22,1.88-0.24,2.24-0.06c0.36,0.18,0.66,0.71,0.89,1.61l2.19,8.41c0.55,2.13,0.59,3.77,0.12,4.92
	c-0.47,1.15-1.5,1.94-3.09,2.35c-1.59,0.42-2.88,0.24-3.85-0.54c-0.98-0.77-1.74-2.22-2.29-4.35L119.94,28.66z M137.27,20.95
	l0.35,7.24l1.42-0.12c0.08-2.04,0.47-3.57,1.18-4.57c0.71-1,1.79-1.57,3.23-1.7l0.38-0.03l1.29,14.73c0.08,0.89-0.04,1.49-0.36,1.79
	c-0.32,0.3-1.16,0.55-2.53,0.75l0.12,1.38l9.54-0.83l-0.12-1.38c-1.38,0.04-2.25-0.06-2.61-0.3c-0.36-0.24-0.58-0.81-0.66-1.71
	l-1.29-14.73l0.38-0.03c1.45-0.13,2.6,0.24,3.46,1.1c0.86,0.86,1.51,2.3,1.94,4.3l1.44-0.13l-0.94-7.19L137.27,20.95z M174.86,40.48
	l0.94-7.19l-1.52-0.11c-0.34,1.9-1.09,3.31-2.25,4.22c-1.16,0.91-2.68,1.29-4.58,1.15l-1.52-0.11c-1.02-0.08-1.7-0.27-2.05-0.58
	c-0.35-0.31-0.49-0.94-0.42-1.89l0.45-6.05l0.7,0.05c1.16,0.09,2.01,0.47,2.56,1.15c0.55,0.69,0.83,1.7,0.84,3.05l1.38,0.1
	l0.69-9.29l-1.38-0.1c-0.2,1.33-0.63,2.3-1.28,2.88c-0.65,0.59-1.55,0.84-2.71,0.75l-0.7-0.05l0.37-4.97
	c0.07-0.94,0.3-1.55,0.69-1.81c0.39-0.26,1.1-0.35,2.11-0.28l1.35,0.1c1.78,0.13,3.17,0.68,4.17,1.65c0.99,0.97,1.57,2.33,1.74,4.09
	l1.52,0.11l0.11-6.68l-17.46-1.29l-0.1,1.38c1.14,0.16,1.86,0.38,2.15,0.67c0.29,0.29,0.4,0.89,0.33,1.8l-0.92,12.47
	c-0.07,0.91-0.27,1.49-0.59,1.73c-0.33,0.25-1.07,0.36-2.22,0.35l-0.1,1.38L174.86,40.48z M192.73,45.31
	c1.12,0.35,2.23,0.47,3.32,0.36c1.09-0.11,2.14-0.45,3.14-1.01c1.19-0.66,2.21-1.55,3.05-2.68c0.85-1.12,1.51-2.45,1.99-3.99
	c0.48-1.53,0.68-3,0.61-4.39c-0.07-1.4-0.4-2.71-1.01-3.95c-0.5-1.02-1.17-1.88-2.01-2.6c-0.84-0.71-1.81-1.24-2.92-1.59
	c-1.11-0.34-2.21-0.46-3.31-0.35c-1.1,0.11-2.14,0.45-3.14,1c-1.2,0.67-2.23,1.57-3.07,2.68c-0.85,1.11-1.51,2.44-1.99,3.97
	c-0.48,1.53-0.68,3-0.61,4.41c0.07,1.41,0.4,2.72,1.01,3.95c0.51,1.04,1.18,1.91,2.01,2.61S191.6,44.96,192.73,45.31 M193.14,43.98
	c-1.6-0.5-2.57-1.58-2.92-3.26c-0.35-1.68-0.08-3.95,0.82-6.83c0.89-2.86,1.95-4.88,3.19-6.05c1.24-1.18,2.66-1.52,4.25-1.02
	c1.6,0.5,2.58,1.59,2.94,3.26c0.36,1.68,0.1,3.94-0.79,6.79c-0.89,2.86-1.96,4.88-3.21,6.07C196.17,44.13,194.74,44.47,193.14,43.98
	 M211.84,52.62l0.62-1.23L211.69,51c-0.91-0.46-1.47-0.9-1.67-1.32c-0.2-0.42-0.09-1.06,0.33-1.91l2.72-5.42l0.63,0.32
	c1.04,0.52,1.68,1.2,1.93,2.05c0.25,0.84,0.12,1.89-0.39,3.14l1.23,0.62l4.18-8.32l-1.23-0.62c-0.7,1.16-1.46,1.88-2.28,2.18
	c-0.82,0.3-1.75,0.18-2.79-0.34l-0.63-0.32l2.24-4.45c0.43-0.85,0.87-1.32,1.33-1.41c0.46-0.09,1.15,0.09,2.06,0.55l0.88,0.44
	c1.59,0.8,2.66,1.84,3.21,3.11c0.55,1.27,0.57,2.76,0.05,4.45l1.35,0.68l2.66-6.13l-15.31-7.69l-0.62,1.23
	c1,0.58,1.57,1.06,1.73,1.44c0.16,0.38,0.03,0.98-0.38,1.79l-5.61,11.17c-0.41,0.82-0.81,1.27-1.21,1.38
	c-0.4,0.1-1.13-0.07-2.19-0.53l-0.62,1.23L211.84,52.62z M237.9,45.06l-4.75,5.47l1.11,0.89c1.47-1.42,2.81-2.25,4.01-2.48
	c1.21-0.23,2.38,0.1,3.51,1.01l0.3,0.24l-9.26,11.52c-0.56,0.7-1.06,1.05-1.5,1.05c-0.44,0-1.22-0.4-2.35-1.2l-0.87,1.08l7.46,6
	l0.87-1.08c-1.03-0.93-1.59-1.6-1.68-2.02c-0.09-0.42,0.14-0.98,0.71-1.69l9.26-11.52l0.3,0.24c1.13,0.91,1.71,1.97,1.74,3.19
	c0.03,1.22-0.5,2.7-1.58,4.45l1.13,0.91l4.3-5.83L237.9,45.06z M251.49,85.18l5.66-4.53l-1.02-1.14c-1.57,1.13-3.08,1.63-4.54,1.48
	c-1.46-0.14-2.83-0.93-4.1-2.34l-1.02-1.14c-0.68-0.76-1.04-1.37-1.07-1.84c-0.03-0.47,0.3-1.02,1.01-1.65l4.52-4.06l0.47,0.52
	c0.78,0.86,1.13,1.73,1.05,2.61c-0.08,0.88-0.58,1.8-1.51,2.78l0.92,1.03l6.93-6.22l-0.92-1.03c-1.07,0.82-2.05,1.22-2.92,1.19
	c-0.87-0.02-1.7-0.47-2.47-1.33L251.99,69l3.71-3.33c0.71-0.63,1.29-0.91,1.75-0.82c0.46,0.09,1.03,0.51,1.71,1.26l0.91,1.01
	c1.19,1.33,1.82,2.69,1.86,4.07c0.05,1.39-0.48,2.77-1.58,4.15l1.02,1.14l4.71-4.74l-11.7-13.03l-1.03,0.92
	c0.72,0.9,1.08,1.56,1.08,1.97c0.01,0.41-0.33,0.92-1.01,1.53l-9.3,8.35c-0.68,0.61-1.22,0.89-1.63,0.84
	c-0.41-0.05-1.02-0.48-1.84-1.29l-1.03,0.92L251.49,85.18z M266.66,96.89c-1.77,0.36-3.27,0.36-4.51,0
	c-1.24-0.36-2.2-1.07-2.87-2.13c-0.95-1.5-1.05-3.04-0.3-4.61c0.75-1.57,2.34-3.13,4.76-4.66c2.5-1.59,4.62-2.44,6.34-2.53
	c1.72-0.1,3.03,0.56,3.93,1.97c0.76,1.2,0.96,2.52,0.57,3.94c-0.38,1.43-1.31,2.84-2.79,4.23l0.74,1.17l6.39-4.25l-0.73-1.14
	c-0.41,0.19-0.75,0.29-1.01,0.29c-0.26,0-0.45-0.1-0.57-0.29c-0.14-0.22-0.26-0.63-0.36-1.24c-0.05-0.33-0.09-0.57-0.12-0.74
	c-0.15-0.71-0.3-1.28-0.45-1.7c-0.15-0.42-0.34-0.8-0.55-1.14c-0.6-0.94-1.35-1.71-2.24-2.31c-0.9-0.6-1.91-1.01-3.05-1.23
	c-1.34-0.27-2.69-0.26-4.06,0.04c-1.37,0.3-2.73,0.88-4.08,1.74c-1.36,0.86-2.47,1.85-3.33,2.97c-0.86,1.12-1.46,2.34-1.8,3.67
	c-0.28,1.1-0.32,2.19-0.14,3.27c0.18,1.08,0.59,2.12,1.22,3.1c1.01,1.58,2.33,2.64,3.97,3.17s3.43,0.48,5.39-0.16L266.66,96.89z
	 M281.64,95.81l-1.28,0.53c0.38,1.09,0.5,1.83,0.37,2.22c-0.13,0.39-0.62,0.76-1.46,1.11l-11.54,4.8c-0.84,0.35-1.45,0.43-1.82,0.25
	c-0.37-0.18-0.81-0.79-1.31-1.83l-1.28,0.53l3.34,8.04l1.28-0.53c-0.37-1.08-0.5-1.82-0.37-2.21c0.13-0.39,0.61-0.76,1.46-1.11
	l5.29-2.2l3.04,7.31l-5.29,2.2c-0.85,0.35-1.46,0.44-1.82,0.26c-0.36-0.18-0.8-0.78-1.3-1.81l-1.28,0.53l3.34,8.04l1.28-0.53
	c-0.38-1.1-0.5-1.84-0.37-2.23c0.13-0.39,0.62-0.76,1.46-1.11l11.54-4.8c0.84-0.35,1.45-0.43,1.82-0.25
	c0.37,0.18,0.81,0.8,1.32,1.84l1.28-0.53l-3.34-8.03l-1.28,0.53c0.37,1.08,0.49,1.82,0.37,2.2c-0.13,0.38-0.62,0.75-1.47,1.11
	l-4.81,2l-3.04-7.31l4.81-2c0.85-0.35,1.46-0.44,1.82-0.25c0.36,0.18,0.8,0.79,1.3,1.82l1.28-0.53L281.64,95.81z M292.19,125.47
	l-1.3-6.07l-1.35,0.29c0.17,1.14,0.16,1.89-0.04,2.24c-0.2,0.36-0.74,0.63-1.64,0.82l-12.22,2.61c-0.9,0.19-1.51,0.17-1.84-0.08
	c-0.32-0.24-0.64-0.92-0.95-2.03l-1.35,0.29l1.46,6.82l1.35-0.29c-0.17-1.15-0.16-1.9,0.04-2.26c0.2-0.36,0.75-0.63,1.64-0.82
	l12.91-2.76l-14.51,14.42l0.38,1.79l16.13-3.45c0.89-0.19,1.5-0.16,1.83,0.08c0.33,0.25,0.65,0.93,0.96,2.04l1.35-0.29l-1.46-6.81
	l-1.35,0.29c0.17,1.13,0.16,1.88-0.04,2.24c-0.2,0.36-0.74,0.63-1.64,0.83l-10.57,2.26L292.19,125.47z M275.64,153.75
	c0.04,1.18,0.3,2.26,0.76,3.26c0.47,0.99,1.13,1.87,1.99,2.63c1.02,0.9,2.19,1.57,3.53,1.99c1.34,0.43,2.81,0.61,4.43,0.55
	c1.6-0.06,3.05-0.35,4.35-0.87s2.43-1.28,3.4-2.26c0.8-0.81,1.39-1.73,1.79-2.76c0.4-1.03,0.58-2.12,0.53-3.28
	c-0.04-1.16-0.3-2.24-0.77-3.24c-0.47-1-1.13-1.88-1.98-2.64c-1.03-0.91-2.22-1.58-3.55-2.01c-1.33-0.43-2.8-0.62-4.4-0.56
	c-1.6,0.06-3.06,0.35-4.36,0.88c-1.31,0.53-2.44,1.28-3.4,2.25c-0.81,0.83-1.41,1.75-1.8,2.76
	C275.77,151.48,275.6,152.57,275.64,153.75 M277.03,153.7c-0.06-1.67,0.64-2.95,2.11-3.84c1.47-0.89,3.7-1.38,6.71-1.49
	c2.99-0.11,5.25,0.23,6.77,1.01c1.52,0.78,2.31,2,2.37,3.68c0.06,1.67-0.64,2.96-2.11,3.85c-1.47,0.89-3.69,1.4-6.67,1.5
	c-2.99,0.11-5.26-0.23-6.79-1.02C277.89,156.6,277.09,155.37,277.03,153.7 M274.2,181.33l7.59,1.4l0.19-1.52
	c-1.96-0.43-3.43-1.24-4.39-2.44c-0.97-1.2-1.34-2.67-1.12-4.41l0.11-0.83c0.13-1.01,0.36-1.68,0.69-2.01
	c0.33-0.33,0.97-0.44,1.91-0.32l12.4,1.57c0.94,0.12,1.53,0.38,1.77,0.78c0.24,0.4,0.29,1.11,0.17,2.12l-0.06,0.46l1.34,0.17
	l1.15-9.09l-1.35-0.17c-0.21,1.13-0.47,1.84-0.78,2.11c-0.31,0.27-0.91,0.35-1.82,0.24l-12.4-1.57c-0.91-0.11-1.47-0.34-1.7-0.68
	c-0.23-0.34-0.31-1.09-0.23-2.24l-1.37-0.17L274.2,181.33z M270.8,191.92c-0.34,1.13-0.44,2.24-0.32,3.33
	c0.12,1.09,0.47,2.13,1.04,3.13c0.67,1.18,1.58,2.19,2.71,3.02c1.13,0.83,2.47,1.48,4.02,1.94c1.54,0.46,3,0.65,4.4,0.56
	c1.4-0.08,2.71-0.43,3.94-1.06c1.01-0.51,1.87-1.19,2.58-2.04c0.71-0.85,1.23-1.83,1.56-2.94c0.33-1.11,0.43-2.22,0.31-3.31
	c-0.13-1.1-0.47-2.14-1.03-3.13c-0.69-1.19-1.59-2.21-2.72-3.04c-1.12-0.83-2.45-1.48-3.99-1.94c-1.54-0.46-3.01-0.65-4.41-0.56
	c-1.41,0.08-2.72,0.43-3.94,1.05c-1.03,0.52-1.9,1.2-2.59,2.04C271.65,189.8,271.14,190.79,270.8,191.92 M272.14,192.31
	c0.48-1.6,1.55-2.59,3.23-2.96c1.67-0.37,3.95-0.12,6.84,0.74c2.87,0.86,4.9,1.9,6.09,3.12c1.19,1.22,1.55,2.64,1.07,4.24
	c-0.48,1.6-1.56,2.59-3.23,2.97c-1.68,0.38-3.94,0.14-6.8-0.71c-2.87-0.86-4.91-1.9-6.11-3.14
	C272.02,195.34,271.66,193.92,272.14,192.31 M260.14,217.24l5.41,2.7c0.79,0.4,1.24,0.79,1.35,1.17c0.11,0.39-0.03,1.08-0.43,2.08
	l1.24,0.62l3.77-7.55l-1.24-0.62c-0.58,1-1.05,1.57-1.43,1.73c-0.37,0.15-0.97,0.03-1.8-0.39l-1.22-0.61
	c-0.83-0.42-1.37-1.1-1.61-2.04c-0.24-0.95-0.12-1.9,0.37-2.87c0.77-1.55,2.05-2.38,3.83-2.51c1.78-0.13,3.97,0.45,6.58,1.76
	c2.74,1.37,4.58,2.77,5.51,4.19c0.93,1.43,1,2.94,0.2,4.53c-0.64,1.28-1.61,2.17-2.91,2.67c-1.3,0.5-2.86,0.59-4.67,0.27l-0.64,1.28
	l6.23,2.88l0.61-1.21c-0.37-0.26-0.6-0.51-0.72-0.76c-0.11-0.25-0.11-0.49,0.01-0.72c0.11-0.22,0.4-0.55,0.88-0.99
	c0.3-0.27,0.53-0.48,0.69-0.64c0.56-0.57,0.98-1.03,1.27-1.39c0.28-0.36,0.51-0.71,0.69-1.06c0.5-1,0.78-2.04,0.83-3.11
	c0.05-1.08-0.12-2.16-0.51-3.25c-0.47-1.3-1.19-2.45-2.15-3.47c-0.96-1.02-2.15-1.88-3.57-2.59c-1.43-0.71-2.85-1.15-4.27-1.31
	c-1.42-0.16-2.79-0.05-4.1,0.35c-1.09,0.34-2.04,0.86-2.86,1.56c-0.82,0.7-1.49,1.58-2.02,2.64c-0.29,0.59-0.5,1.19-0.63,1.81
	c-0.13,0.62-0.17,1.24-0.13,1.84c0.01,0.17,0.04,0.39,0.07,0.66c0.06,0.52,0.06,0.83,0.01,0.94c-0.1,0.19-0.31,0.29-0.65,0.3
	c-0.34,0.01-0.77-0.07-1.29-0.25L260.14,217.24z M250.74,231.65l1.12,0.81c0.88-1.08,1.53-1.67,1.96-1.79
	c0.42-0.11,1,0.09,1.72,0.62l3.24,2.36l3.65,8.72l0.06,0.16c0.69,1.67,0.76,3.02,0.2,4.07l1.12,0.81l4.16-5.73l-1.12-0.81
	c-0.64,0.74-1.14,1.19-1.51,1.36c-0.37,0.16-0.73,0.12-1.1-0.15c-0.15-0.11-0.31-0.28-0.47-0.51c-0.16-0.23-0.29-0.47-0.4-0.73
	l-2.88-6.74l8.13,0.67c0.26,0.01,0.49,0.05,0.72,0.12c0.22,0.07,0.4,0.15,0.53,0.25c0.22,0.16,0.29,0.43,0.2,0.81
	c-0.09,0.38-0.33,0.88-0.73,1.5l1.12,0.81l5.06-6.95l-1.12-0.81c-0.43,0.55-0.89,0.93-1.36,1.13c-0.48,0.2-1.28,0.26-2.4,0.16
	l-9.86-0.88l-3.24-2.36c-0.72-0.53-1.1-1.01-1.12-1.45c-0.02-0.44,0.34-1.24,1.09-2.4l-1.12-0.81L250.74,231.65z M83.07,260.44
	l4.81-1.99l-5.2-0.16l2.41-4.61L81,256.9l-1.12-5.08l-1.06,5.09l-4.13-3.17l2.46,4.59l-5.2,0.22l4.83,1.93l-3.84,3.51l4.94-1.62
	l-0.69,5.16l2.74-4.42l2.79,4.39l-0.74-5.15l4.96,1.57L83.07,260.44z M241.39,260.44l4.81-1.99l-5.2-0.16l2.41-4.61l-4.09,3.22
	l-1.12-5.08l-1.06,5.09l-4.13-3.17l2.46,4.59l-5.2,0.22l4.83,1.93l-3.84,3.51l4.94-1.62l-0.69,5.16l2.74-4.42l2.79,4.39l-0.74-5.15
	l4.96,1.57L241.39,260.44z M108.61,288.65l0.46-1.3c-0.75-0.43-1.23-0.79-1.44-1.06c-0.21-0.28-0.26-0.58-0.14-0.92
	c0.05-0.14,0.13-0.3,0.24-0.47c0.11-0.17,0.31-0.43,0.61-0.79l1.44-1.8l6.49,2.28l-0.01,3c0,0.22-0.01,0.4-0.03,0.56
	c-0.02,0.16-0.05,0.29-0.08,0.4c-0.13,0.38-0.38,0.59-0.76,0.65c-0.37,0.06-0.97-0.03-1.8-0.27l-0.46,1.3l7.52,2.64l0.46-1.3
	c-0.6-0.32-1.02-0.7-1.26-1.13c-0.24-0.43-0.36-1.08-0.36-1.96l-0.23-17.37l-1.59-0.56l-11.08,13.07c-0.64,0.74-1.19,1.23-1.67,1.47
	c-0.48,0.24-1.02,0.31-1.63,0.23l-0.46,1.3L108.61,288.65z M116.23,274.4l0.05,8.72l-5.57-1.95L116.23,274.4z M123.57,291.97
	c-0.11,0.47-0.05,0.91,0.2,1.32c0.25,0.41,0.61,0.67,1.08,0.78c0.48,0.12,0.93,0.05,1.34-0.2c0.41-0.25,0.67-0.61,0.79-1.08
	c0.11-0.47,0.05-0.92-0.21-1.34c-0.25-0.42-0.62-0.68-1.09-0.8c-0.46-0.11-0.9-0.04-1.32,0.21S123.68,291.5,123.57,291.97
	 M137.75,296.13c1.13,0.15,2.19,0.21,3.18,0.2c0.99-0.02,1.79-0.11,2.4-0.28c1.97-0.58,3.53-1.57,4.69-2.97
	c1.16-1.4,1.88-3.18,2.16-5.33c0.28-2.14,0.04-4.04-0.71-5.68c-0.76-1.65-2.01-3-3.77-4.07c-0.55-0.32-1.3-0.62-2.25-0.89
	c-0.95-0.27-1.99-0.48-3.13-0.63l-8.06-1.06l-0.18,1.37c1.13,0.22,1.83,0.49,2.11,0.79c0.27,0.31,0.35,0.91,0.23,1.82l-1.63,12.4
	c-0.12,0.9-0.35,1.47-0.7,1.69c-0.35,0.22-1.09,0.28-2.23,0.16l-0.19,1.44L137.75,296.13z M137.8,279.83
	c0.13-0.96,0.39-1.55,0.78-1.78c0.4-0.23,1.14-0.27,2.24-0.13c2.14,0.28,3.71,1.24,4.71,2.88c1,1.64,1.32,3.79,0.97,6.45
	c-0.36,2.71-1.22,4.72-2.58,6.01c-1.36,1.29-3.14,1.8-5.32,1.51c-1.11-0.15-1.82-0.37-2.14-0.69c-0.32-0.31-0.42-0.95-0.29-1.91
	L137.8,279.83 M152.49,296.16c-0.01,0.49,0.15,0.9,0.47,1.25c0.33,0.34,0.74,0.52,1.22,0.54c0.49,0.01,0.92-0.15,1.27-0.47
	c0.35-0.33,0.53-0.74,0.54-1.22c0.01-0.49-0.15-0.91-0.49-1.26c-0.34-0.35-0.75-0.54-1.24-0.55c-0.48-0.01-0.89,0.15-1.24,0.49
	C152.68,295.26,152.5,295.67,152.49,296.16 M171.96,278.29l-1.14,0.12c-0.34,0.62-0.87,1.12-1.6,1.5c-0.73,0.38-1.8,0.7-3.2,0.97
	l0.12,1.14l1.65-0.17c0.75-0.08,1.21-0.05,1.38,0.08c0.17,0.13,0.28,0.43,0.33,0.89l1.09,10.61c0.1,0.94-0.03,1.58-0.37,1.9
	c-0.34,0.32-1.02,0.54-2.03,0.64l-0.62,0.06l0.13,1.24l9.38-0.96l-0.13-1.24l-0.62,0.06c-1.01,0.1-1.72,0.03-2.11-0.22
	c-0.39-0.25-0.64-0.84-0.74-1.79L171.96,278.29z M182.72,285.49c-1.36,0.61-2.32,1.41-2.88,2.39c-0.57,0.98-0.72,2.12-0.45,3.41
	c0.32,1.55,1.09,2.67,2.3,3.35c1.21,0.68,2.71,0.84,4.5,0.47c1.79-0.37,3.1-1.1,3.94-2.21c0.84-1.1,1.1-2.43,0.78-3.99
	c-0.27-1.3-0.85-2.29-1.75-2.96c-0.9-0.67-2.09-1.03-3.58-1.05c1.15-0.55,1.96-1.27,2.42-2.13c0.46-0.87,0.57-1.88,0.33-3.05
	c-0.29-1.41-0.97-2.43-2.04-3.04c-1.07-0.62-2.39-0.76-3.98-0.43c-1.59,0.33-2.75,0.98-3.47,1.97c-0.73,0.99-0.95,2.19-0.66,3.6
	c0.24,1.16,0.74,2.05,1.51,2.67C180.44,285.1,181.45,285.43,182.72,285.49 M184.03,284.53c-0.69,0.14-1.26-0.05-1.74-0.58
	c-0.47-0.53-0.83-1.38-1.07-2.55c-0.24-1.16-0.25-2.08-0.02-2.75c0.23-0.67,0.68-1.08,1.37-1.22c0.69-0.14,1.26,0.05,1.74,0.57
	c0.47,0.52,0.83,1.37,1.07,2.54c0.24,1.17,0.25,2.09,0.02,2.76C185.17,283.98,184.71,284.39,184.03,284.53 M185.97,293.94
	c-0.82,0.17-1.51-0.04-2.07-0.63s-0.97-1.54-1.24-2.87c-0.27-1.31-0.26-2.34,0.01-3.1c0.28-0.75,0.83-1.22,1.65-1.39
	c0.82-0.17,1.5,0.04,2.05,0.62c0.55,0.58,0.97,1.53,1.24,2.84c0.27,1.33,0.27,2.37-0.01,3.13
	C187.33,293.3,186.78,293.77,185.97,293.94 M199.05,274.75c-1.18,4.38-1.93,7.72-2.24,10.02c-0.31,2.3-0.28,4.05,0.1,5.26
	c0.23,0.72,0.55,1.22,0.98,1.51c0.43,0.29,0.92,0.34,1.49,0.17c0.47-0.15,0.8-0.34,1-0.59c0.2-0.25,0.31-0.6,0.34-1.05
	c0.01-0.26-0.11-0.81-0.37-1.65c-0.16-0.49-0.27-0.88-0.36-1.17c-0.49-1.84-0.7-3.79-0.64-5.85c0.06-2.06,0.43-4.52,1.1-7.38
	l-0.68-2.16l-9.11,2.87l-0.51-0.3l-0.94,0.29l1.82,6.45l1.15-0.38c-0.45-1.56-0.58-2.6-0.38-3.1c0.2-0.5,0.87-0.93,2.02-1.29
	L199.05,274.75 M213.01,286.67c1.54-0.66,2.45-2.03,2.73-4.1c0.28-2.07-0.14-4.42-1.27-7.04c-1.13-2.62-2.53-4.53-4.22-5.74
	c-1.69-1.21-3.3-1.48-4.85-0.81c-1.52,0.65-2.43,2.02-2.71,4.1c-0.29,2.08,0.13,4.43,1.26,7.04c1.12,2.6,2.53,4.51,4.23,5.72
	C209.88,287.05,211.49,287.33,213.01,286.67 M212.54,285.57c-0.84,0.36-1.67,0.06-2.48-0.9c-0.82-0.96-1.86-2.91-3.12-5.84
	c-1.27-2.94-1.97-5.04-2.1-6.29c-0.13-1.25,0.22-2.05,1.06-2.42c0.83-0.36,1.65-0.06,2.47,0.9c0.82,0.96,1.86,2.91,3.12,5.85
	c1.26,2.94,1.96,5.03,2.1,6.28C213.72,284.41,213.37,285.22,212.54,285.57 M77.38,115.79c0.69-1.32,0.92-2.46,0.71-3.41
	c-0.21-0.96-0.86-1.72-1.94-2.28c-0.51-0.26-1.01-0.42-1.5-0.47c-0.49-0.05-0.96,0.02-1.4,0.19c-0.44,0.17-0.84,0.44-1.19,0.81
	c-0.35,0.37-0.74,0.97-1.17,1.79l-1.44,2.76c-0.25,0.47-0.32,0.87-0.23,1.19c0.09,0.32,0.37,0.61,0.85,0.85l8.19,4.26
	c0.43,0.22,0.8,0.29,1.12,0.21c0.32-0.08,0.57-0.29,0.74-0.61c0.16-0.31,0.18-0.62,0.07-0.94c-0.12-0.32-0.39-0.59-0.82-0.81
	l-3.01-1.56L77.38,115.79 M72.24,113.78c0.5-0.96,0.99-1.52,1.46-1.66c0.44-0.12,0.89-0.06,1.36,0.18c0.39,0.2,0.66,0.46,0.81,0.76
	c0.15,0.3,0.19,0.65,0.12,1.05c-0.07,0.4-0.24,0.85-0.5,1.35l-0.75,1.45l-3.25-1.69L72.24,113.78 M80.9,99.99
	c0.22-0.32,0.32-0.6,0.28-0.85c-0.03-0.25-0.17-0.46-0.4-0.62c-0.23-0.16-0.47-0.21-0.71-0.15c-0.25,0.06-0.48,0.24-0.7,0.56
	l-3.66,5.26c-0.2,0.28-0.32,0.54-0.36,0.78c-0.04,0.24,0,0.46,0.12,0.67c0.12,0.21,0.33,0.42,0.61,0.62l7.39,5.15
	c0.43,0.3,0.81,0.42,1.13,0.36c0.32-0.06,0.64-0.3,0.94-0.73l3.77-5.41c0.22-0.31,0.31-0.6,0.28-0.86c-0.04-0.26-0.17-0.47-0.4-0.63
	c-0.24-0.17-0.49-0.22-0.75-0.17c-0.26,0.06-0.49,0.24-0.71,0.56l-3.23,4.64l-2.8-1.95l2.88-4.13c0.21-0.31,0.3-0.59,0.27-0.83
	c-0.04-0.25-0.17-0.45-0.39-0.6c-0.22-0.16-0.45-0.21-0.7-0.15c-0.24,0.05-0.47,0.23-0.68,0.54l-2.88,4.13l-2.41-1.68L80.9,99.99
	 M89.6,97.31c0.29-0.32,0.57-0.54,0.85-0.67c0.28-0.13,0.62-0.19,1.04-0.19c0.41,0.01,0.96,0.08,1.63,0.23l1.85,0.38
	c0.44,0.09,0.77,0.15,1.01,0.18c0.23,0.03,0.46,0.03,0.68-0.02c0.22-0.05,0.42-0.17,0.61-0.38c0.15-0.17,0.26-0.35,0.31-0.54
	c0.05-0.19,0.05-0.37,0.01-0.55c-0.05-0.18-0.13-0.32-0.24-0.43c-0.11-0.1-0.38-0.23-0.79-0.38c-0.42-0.15-0.91-0.28-1.49-0.39
	c-0.58-0.11-1.17-0.18-1.76-0.19c-0.59-0.01-1.12,0.06-1.58,0.22c0.53-0.91,0.76-1.72,0.71-2.46c-0.05-0.73-0.41-1.4-1.07-2
	c-0.32-0.29-0.68-0.52-1.07-0.67c-0.39-0.15-0.79-0.22-1.2-0.21c-0.41,0.01-0.8,0.11-1.17,0.28C87.6,89.65,87.3,89.85,87,90.1
	c-0.29,0.25-0.63,0.58-1,0.98l-2.67,2.91c-0.35,0.39-0.52,0.74-0.51,1.08c0.01,0.33,0.21,0.67,0.6,1.03l6.79,6.23
	c0.36,0.33,0.7,0.5,1.03,0.51c0.33,0.01,0.62-0.12,0.88-0.41c0.24-0.27,0.35-0.56,0.33-0.89c-0.03-0.33-0.23-0.66-0.6-1l-2.84-2.6
	L89.6,97.31 M86.83,92.88c0.56-0.61,0.98-0.99,1.26-1.11c0.29-0.14,0.59-0.18,0.89-0.13c0.3,0.05,0.57,0.18,0.82,0.41
	c0.31,0.29,0.49,0.59,0.53,0.91c0.04,0.32-0.04,0.66-0.24,1.02c-0.19,0.36-0.49,0.76-0.88,1.19l-1.47,1.6l-2.43-2.22L86.83,92.88
	 M107.93,85.97c0.17,0.1,0.37,0.22,0.6,0.35c0.23,0.13,0.42,0.21,0.56,0.25c0.14,0.04,0.29,0.04,0.44,0.02
	c0.15-0.03,0.3-0.1,0.45-0.21c0.26-0.2,0.42-0.46,0.46-0.78c0.05-0.32-0.01-0.6-0.18-0.82c-0.16-0.21-0.51-0.48-1.06-0.81
	l-7.14-4.31c-0.35-0.22-0.63-0.4-0.85-0.53c-0.21-0.13-0.44-0.23-0.67-0.31c-0.23-0.08-0.48-0.1-0.73-0.07
	c-0.26,0.03-0.52,0.15-0.79,0.35c-0.27,0.2-0.45,0.42-0.56,0.66c-0.1,0.24-0.15,0.48-0.14,0.73c0.01,0.25,0.06,0.54,0.15,0.86
	c0.09,0.32,0.17,0.6,0.23,0.83l2.2,8.06c0.09,0.32,0.16,0.57,0.22,0.74c0.06,0.17,0.14,0.32,0.24,0.45c0.17,0.23,0.42,0.36,0.74,0.4
	c0.32,0.04,0.6-0.03,0.85-0.22c0.29-0.21,0.43-0.45,0.43-0.72c0-0.26-0.09-0.7-0.27-1.31l-0.46-1.57l3.9-2.92L107.93,85.97
	 M100.55,81.16l4.41,2.88l-2.87,2.14L100.55,81.16z M118.56,77.04c-0.29-0.53-0.64-0.92-1.03-1.18c-0.39-0.26-0.82-0.41-1.29-0.47
	c-0.47-0.05-0.99-0.03-1.56,0.07c-0.57,0.1-1.19,0.25-1.86,0.44c-0.54,0.14-0.93,0.24-1.16,0.29c-0.24,0.05-0.49,0.08-0.75,0.08
	c-0.26,0-0.49-0.04-0.69-0.13c-0.2-0.09-0.36-0.24-0.47-0.45c-0.19-0.34-0.18-0.72,0.02-1.15c0.2-0.43,0.58-0.79,1.12-1.1
	c0.59-0.33,1.08-0.46,1.47-0.38c0.39,0.07,0.79,0.25,1.2,0.54c0.3,0.19,0.55,0.32,0.74,0.37c0.19,0.05,0.41,0.01,0.65-0.13
	c0.27-0.15,0.43-0.37,0.5-0.68c0.07-0.3,0.03-0.58-0.11-0.83c-0.15-0.28-0.38-0.52-0.69-0.73c-0.31-0.21-0.69-0.36-1.14-0.45
	c-0.46-0.09-0.96-0.09-1.52,0.02c-0.56,0.1-1.16,0.33-1.8,0.69c-0.8,0.45-1.44,0.96-1.9,1.53c-0.46,0.57-0.72,1.17-0.79,1.79
	c-0.07,0.62,0.06,1.22,0.38,1.8c0.34,0.6,0.77,1.03,1.29,1.27c0.52,0.24,1.1,0.34,1.74,0.29c0.64-0.05,1.38-0.19,2.23-0.43
	c0.63-0.18,1.15-0.31,1.55-0.38c0.4-0.07,0.76-0.06,1.1,0.04c0.33,0.1,0.6,0.32,0.79,0.67c0.24,0.44,0.25,0.91,0.02,1.42
	c-0.23,0.51-0.66,0.94-1.29,1.29c-0.46,0.25-0.87,0.39-1.23,0.4c-0.36,0.01-0.68-0.05-0.96-0.19c-0.28-0.14-0.58-0.33-0.9-0.59
	c-0.27-0.22-0.52-0.36-0.75-0.41c-0.23-0.06-0.46-0.02-0.69,0.1c-0.28,0.15-0.45,0.37-0.53,0.65c-0.08,0.28-0.04,0.55,0.1,0.81
	c0.25,0.44,0.65,0.82,1.21,1.12c0.56,0.3,1.15,0.46,1.79,0.48c0.89,0.02,1.85-0.26,2.88-0.84c0.86-0.48,1.53-1.04,2-1.67
	c0.47-0.64,0.73-1.3,0.77-1.98C119.07,78.33,118.91,77.67,118.56,77.04 M124.8,73.26c1.38-0.55,2.31-1.26,2.77-2.12
	c0.47-0.86,0.47-1.86,0.02-2.99c-0.21-0.53-0.49-0.97-0.83-1.33c-0.34-0.36-0.74-0.62-1.19-0.78c-0.45-0.16-0.92-0.22-1.43-0.16
	c-0.51,0.05-1.2,0.25-2.05,0.59l-2.89,1.15c-0.5,0.2-0.82,0.45-0.96,0.75c-0.14,0.3-0.12,0.7,0.08,1.2l3.41,8.58
	c0.18,0.44,0.42,0.74,0.71,0.89c0.3,0.15,0.62,0.15,0.96,0.02c0.32-0.13,0.55-0.35,0.67-0.67c0.12-0.32,0.09-0.7-0.09-1.15
	l-1.25-3.15L124.8,73.26 M122.22,68.38c1.01-0.4,1.74-0.5,2.19-0.3c0.41,0.19,0.71,0.54,0.91,1.03c0.16,0.41,0.2,0.78,0.11,1.11
	c-0.09,0.33-0.29,0.62-0.6,0.87c-0.31,0.25-0.73,0.49-1.26,0.7l-1.52,0.6l-1.35-3.4L122.22,68.38 M137.81,63.61
	c0.37-0.1,0.63-0.25,0.77-0.46c0.14-0.21,0.17-0.46,0.1-0.73c-0.07-0.27-0.21-0.46-0.44-0.58c-0.22-0.12-0.52-0.13-0.9-0.04
	l-6.21,1.57c-0.33,0.08-0.59,0.2-0.78,0.35c-0.19,0.15-0.31,0.35-0.35,0.59c-0.05,0.24-0.03,0.53,0.06,0.87l2.21,8.73
	c0.13,0.51,0.33,0.85,0.62,1.02c0.28,0.17,0.68,0.19,1.19,0.06l6.39-1.62c0.37-0.09,0.63-0.25,0.77-0.47
	c0.14-0.22,0.18-0.47,0.11-0.74c-0.07-0.28-0.22-0.49-0.45-0.61c-0.23-0.12-0.53-0.14-0.9-0.05l-5.48,1.39l-0.84-3.3l4.88-1.24
	c0.37-0.09,0.61-0.24,0.75-0.45c0.13-0.21,0.16-0.45,0.1-0.71c-0.07-0.26-0.21-0.45-0.43-0.57c-0.22-0.12-0.51-0.13-0.87-0.04
	l-4.88,1.24l-0.72-2.85L137.81,63.61 M146.15,67.29c0.43-0.05,0.79-0.03,1.08,0.05c0.29,0.08,0.6,0.26,0.9,0.54
	c0.31,0.28,0.67,0.69,1.08,1.24l1.15,1.5c0.27,0.35,0.48,0.62,0.64,0.8c0.15,0.18,0.33,0.32,0.53,0.43c0.2,0.11,0.43,0.14,0.7,0.11
	c0.23-0.02,0.42-0.09,0.59-0.2c0.16-0.11,0.29-0.25,0.37-0.41c0.08-0.17,0.11-0.33,0.1-0.48c-0.02-0.15-0.13-0.42-0.35-0.8
	c-0.22-0.38-0.51-0.81-0.87-1.27c-0.36-0.47-0.77-0.9-1.21-1.3c-0.44-0.4-0.89-0.69-1.34-0.87c0.99-0.34,1.71-0.8,2.15-1.39
	c0.44-0.59,0.61-1.32,0.51-2.21c-0.05-0.43-0.17-0.83-0.36-1.2c-0.19-0.37-0.45-0.69-0.77-0.94c-0.32-0.26-0.68-0.45-1.07-0.56
	c-0.32-0.11-0.68-0.16-1.07-0.16c-0.39,0-0.86,0.03-1.4,0.09l-3.92,0.45c-0.52,0.06-0.88,0.22-1.09,0.48
	c-0.21,0.26-0.28,0.65-0.22,1.17l1.05,9.16c0.05,0.48,0.2,0.83,0.44,1.06s0.55,0.32,0.94,0.27c0.36-0.04,0.63-0.19,0.83-0.46
	c0.2-0.26,0.26-0.65,0.21-1.15l-0.44-3.82L146.15,67.29 M146.96,62.13c0.83-0.09,1.39-0.1,1.68-0.01c0.31,0.09,0.57,0.25,0.76,0.48
	c0.2,0.23,0.31,0.51,0.35,0.84c0.05,0.42-0.02,0.77-0.2,1.03c-0.18,0.26-0.46,0.47-0.85,0.61c-0.38,0.15-0.86,0.25-1.44,0.32
	l-2.16,0.25l-0.37-3.27L146.96,62.13 M163.18,70.39c0.07,0.19,0.16,0.4,0.26,0.65c0.1,0.25,0.2,0.43,0.28,0.55
	c0.09,0.12,0.2,0.21,0.34,0.29c0.14,0.07,0.3,0.11,0.49,0.11c0.33,0.01,0.61-0.1,0.85-0.33c0.24-0.23,0.36-0.48,0.37-0.76
	c0.01-0.27-0.11-0.7-0.34-1.29l-2.94-7.8c-0.14-0.39-0.25-0.7-0.34-0.94c-0.09-0.23-0.2-0.45-0.34-0.66
	c-0.13-0.21-0.31-0.37-0.54-0.51c-0.22-0.13-0.5-0.2-0.84-0.21c-0.33-0.01-0.61,0.05-0.84,0.17c-0.23,0.12-0.42,0.29-0.56,0.49
	c-0.14,0.2-0.28,0.46-0.41,0.77c-0.13,0.31-0.24,0.58-0.33,0.8l-3.25,7.7c-0.13,0.31-0.23,0.55-0.29,0.72
	c-0.06,0.17-0.09,0.34-0.09,0.5c-0.01,0.28,0.1,0.54,0.33,0.77c0.23,0.23,0.5,0.35,0.8,0.35c0.36,0.01,0.62-0.09,0.78-0.3
	c0.16-0.21,0.36-0.61,0.6-1.2l0.61-1.52l4.87,0.12L163.18,70.39 M160.34,62.05l1.69,4.98l-3.58-0.09L160.34,62.05z M179.45,72.86
	c0.04,0.2,0.08,0.43,0.13,0.68c0.05,0.26,0.11,0.46,0.18,0.59c0.07,0.13,0.16,0.25,0.28,0.34c0.12,0.1,0.27,0.16,0.46,0.2
	c0.32,0.07,0.62,0.01,0.89-0.16c0.27-0.18,0.44-0.4,0.5-0.67c0.06-0.26,0.03-0.7-0.09-1.33l-1.44-8.21
	c-0.06-0.41-0.12-0.74-0.16-0.98c-0.04-0.25-0.11-0.48-0.21-0.71c-0.09-0.23-0.24-0.43-0.43-0.6c-0.19-0.17-0.46-0.29-0.79-0.37
	c-0.32-0.07-0.61-0.07-0.86,0.01c-0.25,0.08-0.46,0.2-0.64,0.38c-0.18,0.17-0.36,0.4-0.55,0.68c-0.18,0.28-0.34,0.52-0.48,0.72
	l-4.62,6.97c-0.19,0.28-0.33,0.49-0.42,0.65c-0.09,0.16-0.15,0.32-0.19,0.48c-0.06,0.28,0,0.55,0.18,0.82
	c0.18,0.27,0.42,0.43,0.72,0.5c0.35,0.07,0.63,0.03,0.83-0.15c0.2-0.17,0.47-0.53,0.81-1.07l0.88-1.38l4.76,1.02L179.45,72.86
	 M178.22,64.14l0.73,5.21l-3.5-0.75L178.22,64.14z M188.96,64.55c-0.49-0.18-0.89-0.2-1.19-0.06c-0.3,0.14-0.54,0.45-0.72,0.94
	l-3.04,8.24c-0.14,0.36-0.21,0.67-0.23,0.92c-0.02,0.25,0.05,0.48,0.22,0.68c0.16,0.2,0.45,0.38,0.87,0.53l2.97,1.09
	c0.52,0.19,0.99,0.33,1.43,0.41c0.44,0.09,0.86,0.11,1.28,0.08c0.42-0.03,0.83-0.13,1.23-0.29c0.51-0.21,0.98-0.5,1.39-0.85
	c0.41-0.36,0.78-0.79,1.1-1.31c0.32-0.51,0.61-1.11,0.86-1.78c0.75-2.04,0.73-3.78-0.07-5.22c-0.31-0.56-0.71-1.01-1.21-1.36
	c-0.5-0.35-1.13-0.66-1.91-0.95L188.96,64.55 M190.68,67.23c0.7,0.26,1.26,0.55,1.7,0.88c0.43,0.33,0.72,0.83,0.85,1.51
	c0.13,0.67-0.01,1.57-0.42,2.68c-0.58,1.57-1.37,2.54-2.37,2.91c-0.22,0.09-0.47,0.13-0.72,0.12c-0.26,0-0.5-0.03-0.72-0.09
	c-0.22-0.06-0.52-0.16-0.9-0.3l-1.73-0.64l2.81-7.63L190.68,67.23z M205.98,84.42c-0.03,0.2-0.06,0.43-0.1,0.69
	c-0.04,0.26-0.04,0.47-0.02,0.62c0.02,0.15,0.07,0.29,0.15,0.42c0.08,0.13,0.2,0.24,0.37,0.34c0.28,0.17,0.58,0.21,0.9,0.14
	c0.32-0.08,0.55-0.24,0.69-0.47c0.14-0.23,0.25-0.66,0.35-1.29l1.32-8.23c0.07-0.41,0.13-0.74,0.17-0.98
	c0.04-0.25,0.05-0.49,0.04-0.74c-0.01-0.24-0.09-0.48-0.21-0.71c-0.13-0.23-0.34-0.43-0.63-0.6c-0.28-0.17-0.56-0.26-0.82-0.27
	c-0.26-0.01-0.5,0.04-0.73,0.15c-0.23,0.11-0.47,0.26-0.74,0.47c-0.27,0.2-0.49,0.38-0.69,0.53l-6.64,5.07
	c-0.27,0.2-0.47,0.36-0.61,0.48c-0.14,0.12-0.25,0.25-0.33,0.39c-0.15,0.24-0.18,0.52-0.09,0.83c0.09,0.31,0.26,0.55,0.52,0.7
	c0.31,0.19,0.58,0.23,0.83,0.13c0.24-0.1,0.62-0.34,1.12-0.74l1.28-1.02l4.17,2.52L205.98,84.42 M207.66,75.78l-1.01,5.16
	l-3.06-1.85L207.66,75.78z M218.25,90.92c0.38-0.47,0.62-0.94,0.71-1.4c0.09-0.46,0.07-0.92-0.05-1.37
	c-0.13-0.45-0.35-0.92-0.65-1.42c-0.31-0.49-0.67-1.01-1.1-1.56c-0.33-0.44-0.57-0.77-0.71-0.97c-0.14-0.2-0.26-0.42-0.36-0.66
	c-0.1-0.24-0.15-0.47-0.14-0.69c0.01-0.22,0.09-0.42,0.24-0.61c0.24-0.3,0.6-0.44,1.07-0.41c0.47,0.03,0.95,0.24,1.44,0.63
	c0.53,0.42,0.83,0.83,0.91,1.22c0.08,0.39,0.06,0.83-0.05,1.32c-0.07,0.35-0.09,0.63-0.06,0.83c0.02,0.2,0.15,0.38,0.36,0.56
	c0.24,0.19,0.51,0.26,0.81,0.21c0.3-0.05,0.55-0.19,0.73-0.42c0.2-0.25,0.34-0.55,0.42-0.91c0.08-0.36,0.08-0.77-0.01-1.23
	c-0.09-0.46-0.28-0.92-0.59-1.4c-0.3-0.48-0.74-0.95-1.31-1.41c-0.72-0.58-1.43-0.97-2.13-1.18c-0.7-0.21-1.35-0.23-1.96-0.06
	c-0.6,0.17-1.11,0.52-1.52,1.03c-0.43,0.54-0.66,1.1-0.69,1.67c-0.03,0.58,0.1,1.15,0.38,1.73c0.28,0.57,0.7,1.21,1.24,1.9
	c0.41,0.52,0.72,0.95,0.94,1.29c0.22,0.34,0.34,0.69,0.38,1.03c0.03,0.34-0.07,0.67-0.32,0.98c-0.31,0.39-0.75,0.58-1.31,0.55
	c-0.56-0.02-1.12-0.26-1.68-0.71c-0.41-0.33-0.68-0.66-0.83-0.99c-0.15-0.33-0.21-0.65-0.19-0.96c0.02-0.31,0.09-0.66,0.21-1.05
	c0.1-0.33,0.14-0.61,0.1-0.85c-0.04-0.24-0.15-0.44-0.35-0.6c-0.25-0.2-0.52-0.28-0.81-0.24c-0.29,0.04-0.53,0.17-0.71,0.4
	c-0.32,0.4-0.51,0.91-0.58,1.54c-0.07,0.63,0,1.24,0.23,1.84c0.32,0.83,0.94,1.61,1.86,2.35c0.77,0.62,1.53,1.03,2.3,1.22
	c0.76,0.2,1.47,0.18,2.13-0.03C217.24,91.87,217.8,91.48,218.25,90.92 M230.07,93.81c0.29,0.3,0.57,0.46,0.84,0.48
	c0.28,0.02,0.52-0.07,0.74-0.28c0.22-0.21,0.32-0.45,0.31-0.73c-0.01-0.27-0.16-0.56-0.45-0.86l-5.36-5.54
	c-0.28-0.29-0.55-0.44-0.83-0.47c-0.28-0.03-0.53,0.07-0.75,0.28c-0.22,0.21-0.32,0.45-0.31,0.72c0.01,0.27,0.16,0.56,0.45,0.85
	l1.84,1.9l-6.25,6.05c-0.36,0.34-0.54,0.68-0.56,1.02c-0.02,0.33,0.1,0.63,0.35,0.89c0.25,0.25,0.53,0.38,0.86,0.37
	c0.33-0.01,0.67-0.19,1.03-0.53l6.25-6.05L230.07,93.81 M230.75,102.32c0.26,0.34,0.42,0.67,0.5,0.96c0.08,0.3,0.07,0.65-0.01,1.05
	c-0.09,0.41-0.26,0.93-0.53,1.56l-0.72,1.75c-0.17,0.41-0.29,0.73-0.37,0.95c-0.08,0.22-0.11,0.45-0.1,0.67
	c0.01,0.22,0.09,0.45,0.26,0.66c0.14,0.18,0.29,0.32,0.47,0.41c0.18,0.09,0.36,0.12,0.54,0.11c0.18-0.01,0.34-0.06,0.47-0.16
	c0.12-0.09,0.29-0.33,0.52-0.71s0.44-0.84,0.67-1.39c0.22-0.55,0.39-1.11,0.52-1.69c0.12-0.58,0.15-1.11,0.08-1.59
	c0.79,0.69,1.55,1.08,2.28,1.16c0.73,0.09,1.45-0.14,2.17-0.67c0.35-0.26,0.64-0.57,0.86-0.92c0.22-0.35,0.37-0.73,0.43-1.14
	c0.06-0.41,0.05-0.81-0.05-1.2c-0.07-0.33-0.2-0.67-0.4-1.01c-0.19-0.34-0.45-0.72-0.78-1.16l-2.36-3.17
	c-0.31-0.42-0.63-0.65-0.96-0.7c-0.33-0.05-0.7,0.08-1.12,0.4l-7.4,5.5c-0.39,0.29-0.62,0.59-0.69,0.91c-0.07,0.32,0,0.64,0.23,0.94
	c0.21,0.29,0.48,0.45,0.81,0.49c0.33,0.04,0.69-0.1,1.1-0.4l3.09-2.3L230.75,102.32 M235.61,100.43c0.5,0.67,0.78,1.15,0.86,1.45
	c0.08,0.32,0.07,0.62-0.04,0.9c-0.1,0.29-0.29,0.53-0.55,0.73c-0.34,0.25-0.67,0.37-0.99,0.35c-0.32-0.02-0.64-0.17-0.96-0.42
	c-0.32-0.26-0.65-0.62-1-1.09l-1.3-1.74l2.64-1.96L235.61,100.43 M236.6,118.6c-0.13,0.16-0.27,0.34-0.43,0.55
	c-0.16,0.21-0.27,0.38-0.33,0.52c-0.06,0.14-0.08,0.28-0.08,0.43c0,0.15,0.05,0.31,0.15,0.48c0.16,0.29,0.39,0.48,0.71,0.57
	c0.31,0.09,0.59,0.07,0.84-0.06c0.23-0.13,0.55-0.44,0.95-0.94l5.28-6.45c0.27-0.31,0.48-0.57,0.64-0.76
	c0.16-0.19,0.29-0.4,0.4-0.62c0.11-0.22,0.17-0.46,0.17-0.72c0-0.26-0.07-0.54-0.24-0.83c-0.16-0.29-0.35-0.51-0.57-0.64
	c-0.22-0.14-0.45-0.22-0.7-0.24c-0.25-0.02-0.54-0.01-0.87,0.03c-0.33,0.04-0.62,0.08-0.86,0.11l-8.29,1.05
	c-0.33,0.04-0.59,0.08-0.77,0.11c-0.18,0.04-0.34,0.09-0.48,0.17c-0.25,0.14-0.41,0.36-0.5,0.67c-0.08,0.31-0.05,0.6,0.1,0.87
	c0.17,0.32,0.39,0.49,0.65,0.53c0.26,0.04,0.71,0.01,1.34-0.08l1.62-0.24l2.34,4.27L236.6,118.6 M242.4,111.98l-3.47,3.96
	l-1.72-3.14L242.4,111.98z M113.52,121.23c0-6.29,1.69-12.59,4.95-18.77c2.7-4.83,5.62-8.32,8.88-10.34c0.11,0,0.11-0.11,0.11-0.11
	v-0.22c0-1.12,1.35-2.47,3.94-3.93c1.46-0.79,2.92-1.46,4.38-1.8c-0.11,0-0.22,0-0.34-0.11c0.22,0,1.24-0.9,3.26-2.47
	c2.47-1.57,5.06-2.36,7.87-2.36l1.46,0.56c0.34-0.11,0.9-0.22,1.57-0.22c1.12-0.22,2.7-0.34,4.95-0.34c4.16,0,6.97,0.45,8.32,1.57
	c1.46,1.12,2.59,2.02,3.26,2.7c0.79,0.11,1.57,0.23,2.7,0.45c5.96,0,10.68,1.8,14.16,5.4c1.8,2.02,2.92,3.93,3.37,5.73
	c1.24,0.56,2.25,1.24,3.04,2.02c2.25,2.02,3.37,4.61,3.37,7.53v0.34c2.7,2.02,4.05,3.93,4.05,5.73c0,0.34,0,0.67-0.11,1.01
	c1.24,1.46,2.13,2.81,2.92,3.93c0.67,0.67,1.01,1.12,1.24,1.57c0.45,0.56,0.67,1.24,0.79,2.25c0.67,1.57,1.57,3.6,2.7,6.18
	c0.9,2.25,1.35,4.38,1.35,6.29c0,1.12-0.11,2.13-0.23,3.15c0.23,1.12,0.45,2.81,0.56,5.17c0,1.69-0.56,3.6-1.8,5.62
	c0,0.67,0.11,1.35,0.11,2.14c0,2.36-0.79,5.06-2.36,8.21c-1.12,2.25-2.36,3.93-3.94,5.06c-0.22,0.34-0.56,0.79-0.9,1.12
	c-2.47,3.04-5.17,4.95-8.21,6.07c-0.45,1.12-0.9,2.25-1.46,3.6c0,4.05,1.01,7.87,3.03,11.13c1.24,2.25,3.48,4.83,6.52,7.64
	c3.48,3.26,5.62,5.51,6.52,6.74c2.02,2.7,3.03,5.51,3.03,8.54c-0.34,3.93-1.24,6.86-2.81,8.54c-0.45,1.35-1.12,2.47-2.14,3.26
	c-1.35,1.01-3.71,1.91-7.19,2.7c-7.08,1.46-10.9,2.25-11.35,2.36c-5.4,1.46-10.57,3.26-15.51,5.73
	c-6.75,3.15-13.15,7.64-19.33,13.49c-2.25,2.02-4.16,3.48-5.4,4.16c-2.02,1.12-4.38,1.57-7.19,1.57c-2.47,0-4.05-0.34-4.83-1.01
	c-0.34-0.34-0.45-0.79-0.45-1.35c0-0.79,1.69-1.57,5.06-2.13c4.05-0.79,6.41-1.24,6.86-1.57c1.91-0.9,4.05-2.92,6.52-5.85
	c4.16-3.48,8.21-6.41,11.91-8.77c2.59-2.81,6.41-6.07,11.47-9.67l-0.45-0.45c-0.23,0.11-0.34,0.23-0.56,0.23
	c-6.86,4.61-12.03,7.64-15.29,9.44c-0.34-0.45-0.56-0.9-0.56-1.35c0-0.34,0.34-1.01,1.01-1.8c-0.45,0.45-1.01,0.9-1.57,1.35
	c-7.87,7.19-12.47,11.35-13.82,12.48c-4.83,3.71-8.77,5.62-11.8,5.62c-1.24,0-2.02-0.11-2.36-0.34c-0.67-0.34-1.12-0.56-1.35-0.56
	v-0.79c3.6,0.11,5.4-0.11,5.4-0.67c7.08-5.51,11.13-8.65,12.14-9.67c1.01-0.67,2.25-2.47,3.93-5.28c1.69-2.7,3.26-4.61,4.5-5.62
	c0.56-0.56,2.14-2.02,4.38-4.61c2.25-2.58,4.38-4.61,6.18-6.18c6.18-5.28,12.93-7.87,20.01-7.87c4.5,0,8.43,0.56,11.8,1.91
	c0.34-0.67,0.79-1.46,1.35-2.47c0.56-1.01,1.24-1.8,1.69-2.36c-0.11-0.11-0.22-0.34-0.22-0.45c-0.23,0.45-0.56,1.12-0.9,1.8
	c-1.01,1.8-2.02,2.7-2.92,2.7c-0.67-0.22-1.46-0.34-2.36-0.34c-0.11,0.11-0.22-0.11-0.22-0.67c0,0,1.24-2.36,3.71-6.86
	c-0.45-0.34-0.79-0.79-1.12-1.24c-0.11,0.34-0.11,0.56-0.11,0.79c0,3.82-1.24,5.73-3.6,5.73c-0.11,0-0.56-0.11-1.24-0.34
	c-0.11-0.11-0.11-0.45-0.11-1.01c0-0.34,0.56-3.26,1.8-8.65c-0.11-0.11-0.23-0.22-0.34-0.34v0.22c0,2.81-0.79,4.27-2.36,4.27
	c-0.79,0-1.24-0.67-1.24-2.02c0.11-1.24,0.11-1.91,0.11-2.02c0-1.46-0.22-3.03-0.67-4.72c0-0.11,0-0.22-0.11-0.34
	c-0.79,2.47-2.02,3.71-3.6,3.71c-0.45-0.11-1.01-0.23-1.46-0.34l-0.11-1.01c0.9-2.25,1.57-4.05,2.13-5.62
	c-0.22-0.34-0.34-0.79-0.45-1.12c-0.11-0.9-0.34-1.69-0.34-2.25c-1.12,2.58-2.02,4.16-2.81,4.95h-0.34
	c0.11-1.24,0.45-2.81,1.12-4.72c0.9-2.25,1.46-3.93,1.8-4.95c0.11-0.34,0.23-0.9,0.34-1.57c-0.9,2.13-2.02,3.15-3.37,3.15
	c-1.24-0.11-1.8-0.11-1.8,0c-0.11,0.23-0.11,0.11-0.11-0.45c0-0.67,0.45-2.02,1.24-3.71c0.9-1.69,1.24-2.36,1.24-2.47
	c-0.22-0.67-0.34-1.24-0.45-1.69c-1.24,0.79-2.59,1.24-3.82,1.24h-0.56h-1.01c-0.11,0-0.22-0.34-0.22-0.9
	c0.45-2.81,0.67-4.5,0.67-5.06c0-0.67-0.11-1.35-0.45-2.13c-0.22,0.34-0.45,0.56-0.67,0.79v0.9c0,2.36-0.67,5.06-2.02,8.43
	c-1.8,4.38-4.27,6.97-7.42,7.64c-0.34,0.22-0.67,0.56-1.01,0.79c-0.34,0.23-0.56,0.34-0.79,0.56c-0.45,0.67-1.24,1.57-2.25,2.36
	c-1.69,1.35-3.6,2.14-5.51,2.59c-0.22,0.34-0.45,0.79-0.79,1.24h0.11c0,0.9-0.34,1.35-0.9,1.35h-0.34c-0.11,0-0.11,0.11-0.22,0.22
	c-1.24,1.35-2.7,2.25-4.38,2.81v0.34c0,0.11-0.11,0.23-0.22,0.34c0.67,0.79,1.24,1.91,1.69,3.26c0.56,2.02,0.79,4.05,0.56,6.18
	c0,6.74-1.69,10.68-4.94,11.8c-0.56-0.23-0.79-0.56-0.79-0.9c1.69-3.71,2.58-6.29,2.81-8.09c-1.57,0.56-4.72,0.79-9.22,0.79
	c-0.9,0.67-1.8,1.35-2.59,2.02c-4.83,4.5-7.87,7.42-8.99,8.88c-5.51,6.52-8.32,12.81-8.32,18.77c0,1.24,0.9,3.15,2.81,5.85
	c-0.23,0.56-0.45,0.9-0.9,0.9c-1.8,0-3.03-1.46-3.71-4.27c-0.34-2.92-0.56-4.27-0.56-4.38c0-0.56,0.45-2.02,1.24-4.27
	c-0.11-0.11-0.11-0.22-0.11-0.34c0-0.45,0.45-1.57,1.57-3.71c0.11-0.45,0.34-1.01,0.56-1.57c1.91-5.06,3.15-7.98,3.48-8.66
	c1.69-2.58,4.61-5.51,8.66-8.77c3.26-3.03,7.53-6.52,13.04-10.57c-0.56-0.45-1.24-0.9-2.02-1.12c-1.69-0.56-2.81-0.9-3.48-1.12
	c-0.11,0-0.23,0-0.34-0.11c-0.22,0.11-0.34,0.11-0.45,0.11c-1.69,0-3.04-0.34-4.05-0.79c-0.34,0.11-0.67,0.22-1.12,0.45
	c-1.8,0.67-3.48,1.01-5.28,1.01c-0.9,0-1.69-0.22-2.47-0.45c-0.34,0.45-1.01,0.79-1.91,0.79c-2.36,0-4.16-1.01-5.51-2.92
	c-1.01-1.35-1.57-2.59-1.57-3.49c0-0.79,0.34-1.8,0.9-3.15c0.56-1.46,0.79-2.47,0.79-3.26c-1.12-3.71-1.69-5.62-1.69-5.84
	c0-0.56,0.22-1.24,0.56-2.14c-0.11-1.01-0.11-1.57-0.11-1.69c0-1.91,0.67-3.37,2.02-4.05c-1.12-0.45-1.69-1.24-1.69-2.25
	c0-1.57,0.34-2.47,1.01-2.92c0.11-0.45,0.22-0.9,0.45-1.24c-0.56-0.23-1.12-0.56-1.35-1.01c-0.45-0.56-0.67-1.24-0.56-2.25
	c0.22-1.01,0.34-1.8,0.34-2.36c0-1.12,0.11-1.91,0.22-2.25c0.11-0.34,0.34-0.56,0.67-0.9c-4.61-0.11-6.97-1.35-6.97-3.6
	c0-3.15,1.35-7.19,4.05-12.14c2.7-5.06,4.05-7.53,4.05-7.64c0-0.22-0.11-0.56-0.23-1.12c-0.11-0.22-0.22-0.45-0.45-0.79
	c-0.22-0.45-0.56-1.12-1.01-1.8C114.08,123.37,113.52,122.02,113.52,121.23 M116.1,120.45c0.9,0.67,1.8,1.01,2.92,1.24
	c1.12-0.67,2.59-0.9,4.05-0.9c2.02,0,4.38,0.56,6.97,1.69c2.7,1.01,4.05,2.02,4.05,2.81c0,1.01-0.67,1.57-1.91,1.57
	c-4.27-1.01-7.31-1.69-8.99-1.91c0,0.9,0.45,1.69,1.24,2.36c0.45,0.34,2.02,0.9,4.61,1.57c1.35,0.45,2.13,0.9,2.59,1.35
	c2.81,0.67,4.16,1.35,4.16,1.8c0,0.67-1.35,1.24-4.16,2.02c-3.04,0.79-4.72,1.35-4.95,1.46c-1.8,3.26-3.03,4.95-3.82,4.95
	c-0.56,0-0.9-0.34-1.12-0.9v-0.9c0-0.79,0.45-1.8,1.24-2.7c-0.56-0.34-1.01-0.9-1.35-1.57c-0.34-1.24-0.45-2.02-0.45-2.02
	c0-0.45,0-0.79,0.11-1.12c-0.34-0.34-0.56-0.56-0.67-0.79c-0.56-0.11-0.9-0.22-1.35-0.45c-0.56,1.46-1.91,3.93-3.93,7.53
	c-2.92,4.83-4.38,8.09-4.38,9.78c0,1.8,0.79,2.59,2.25,2.59c1.69,0,2.92-0.23,3.82-0.56c0.67-0.34,1.46-0.56,2.25-0.45
	c1.8,0.11,3.04-0.11,3.71-0.56c-0.56-1.13-1.24-2.25-2.02-3.48c0-1.12,0.45-1.69,1.35-1.69c3.37,0,6.29,4.5,8.54,13.38
	c0,1.24-0.56,1.8-1.69,1.8c-0.22,0-1.69-2.47-4.61-7.31c-1.12,0.67-2.92,1.12-5.39,1.35c-0.23,0.67-0.79,2.59-1.8,5.4
	c0,1.35,0.67,2.02,1.91,2.02c3.04,0.23,6.07,0.67,8.88,1.57c-0.11,0.9-0.45,1.24-0.79,1.24c-2.13,0-3.93-0.11-5.51-0.22
	c-0.45,0.22-1.01,0.45-1.91,0.79c-0.9,0.23-1.46,0.56-1.91,0.9c0.11,0.34,0.11,0.67,0.11,1.12c0.11,0,0.56,0.11,1.24,0.23
	c0.56,0,1.69-0.23,3.26-0.67c0.67,0,1.01,0.45,1.01,1.12c0,1.46-1.12,2.25-3.37,2.25h-0.34c-0.56,1.01-1.24,2.36-2.36,4.16
	c0.22,1.24,0.45,2.02,1.01,2.59c1.24,1.46,3.93,2.25,7.76,2.47c1.24-0.56,2.92-1.24,4.94-2.02c4.27-1.8,8.09-3.15,11.47-4.05
	c0.11-0.22,0.22-0.56,0.45-0.79c-1.91,0.79-3.6,1.35-5.28,1.57l-0.34-0.11c2.02-1.8,6.74-4.83,13.94-9.1
	c-0.34-1.57-0.56-2.36-0.56-2.47v-0.9c-0.67,0.9-1.8,2.02-3.26,3.26c-2.81,2.36-4.72,3.48-5.85,3.71c-0.56-0.11-0.9-0.22-0.9-0.56
	c0-0.45,1.69-2.02,4.83-4.72c2.92-2.7,4.72-4.16,5.4-4.5c0.11-1.12,0.22-1.91,0.56-2.47c-0.9,1.69-3.48,3.6-7.87,5.73l-0.34-0.11
	c0.34-0.34,0.56-0.79,0.56-1.35c0-0.45,1.01-1.57,3.15-3.48c1.46-1.46,2.47-2.25,3.26-2.7c-0.23-0.34-0.34-0.79-0.34-1.24
	c0-0.34,0.11-0.67,0.22-1.01c-0.67,0.34-1.46,0.56-2.36,0.67c-0.34-0.11-0.9-0.22-1.69-0.22c-0.11-0.11-0.11-0.45-0.11-1.01
	c0-0.67,0.9-1.24,2.7-1.91c0.9-0.34,1.91-0.45,2.81-0.67c0.67,0,1.12,0.34,1.35,1.01c-0.11,0.56-0.56,1.12-1.24,1.46h0.22
	c0.45,0,1.24,0.56,2.36,1.46c0.23,0.34,0.56,0.56,0.9,0.79h0.22c0.68,0.45,1.35,0.67,1.91,0.67c2.92,0,5.62-1.8,7.76-5.51
	c1.13-1.8,1.91-3.71,2.36-5.51c0-0.56-0.79-2.36-2.47-5.73v0.34c-0.34,5.73-2.02,8.54-5.28,8.54c-1.12,0-1.69-0.45-1.69-1.46
	c1.01-1.46,1.57-2.25,1.57-2.36c0-0.45-0.34-1.01-1.01-1.8c-0.56-0.79-0.79-1.57-0.79-2.36c0-0.9,0.34-1.57,1.12-2.02
	c-0.34-0.11-0.45-0.22-0.67-0.34c-0.67,0.67-1.57,1.46-2.81,2.36c-2.81,2.02-4.94,3.04-6.63,3.04c-0.67,0-1.01-0.45-1.01-1.12
	c3.48-2.92,6.18-4.95,7.87-6.07c-0.79-1.01-1.57-2.14-2.02-3.6c-2.92,3.48-4.95,5.28-6.07,5.28l-1.13-0.23h-0.22
	c0.34-1.68,1.46-3.48,3.26-5.39c1.24-1.35,2.36-2.14,3.37-2.47c-0.11-0.79-0.22-1.69-0.22-2.59c-2.81,4.38-4.83,6.52-6.07,6.52
	l-0.9-0.11c0-0.11-0.11-0.34-0.11-0.79c0-0.9,2.36-4.05,6.86-9.33v-0.34v-0.34c-0.34,0.45-0.9,1.12-1.69,1.8
	c-1.91,1.69-3.26,3.03-3.93,3.71c-0.9-0.45-1.35-0.79-1.35-0.9c0-0.9,0.9-2.25,2.81-3.82c0.34-0.45,0.79-1.01,1.35-1.69
	c1.24-1.57,2.25-2.59,2.81-3.03v-0.45c-0.79,0.79-1.69,1.69-2.92,2.7c-3.15,2.81-5.28,4.16-6.63,4.16
	c-0.45-0.11-0.79-0.22-1.01-0.34c0.9-1.01,2.92-3.03,6.07-5.96c0.56-0.45,1.01-0.79,1.46-1.24c0.11-0.11,0.45-0.67,1.01-1.57
	c-0.11,0-0.23,0.11-0.23,0.22c-2.47,3.48-5.28,5.28-8.43,5.28c-0.22-0.11-0.34-0.22-0.34-0.34h-0.11c-0.11,0-0.11-0.11-0.11-0.11
	l-0.11-0.22c0-0.67,0.67-1.24,2.25-1.69c0.67-0.56,1.57-1.35,2.7-2.36c0.45-0.45,1.01-1.01,1.69-1.69c0.22-0.45,0.79-1.24,1.35-2.36
	c-0.45,0.45-1.01,0.9-1.69,1.46c-2.58,1.57-4.16,2.7-4.83,3.03c-0.34,0.34-0.45,0.23-0.45-0.34c0-0.34,1.12-1.8,3.37-4.05
	c1.8-2.02,3.15-3.15,3.93-3.6c-0.11-0.11-0.34-0.23-0.34-0.45c-0.22,0.34-0.56,0.67-0.9,0.9c-0.23,0.22-0.67,0.45-1.35,0.67
	c-1.57,0.56-2.81,1.12-3.71,1.8c-0.22,0-0.22-0.11-0.34-0.22c0.56-0.45,1.69-1.35,3.15-2.47h-0.11c0-0.11,0.67-0.67,2.02-1.8
	c-0.34-0.22-0.67-0.34-1.12-0.56c-0.23,0.67-0.79,1.01-1.8,1.01l-0.34-0.22c0.23-0.56,0.56-1.12,1.01-1.57
	c-0.45-0.34-0.79-0.56-1.24-1.01c-1.69-1.69-2.81-2.7-3.15-2.92c-0.9-0.67-2.59-1.35-4.95-2.14c-2.25-0.67-3.6-1.24-3.93-1.57
	c0.45-0.79,1.91-1.12,4.5-1.12c1.91,0,4.5,1.35,7.98,4.16c2.81,2.14,4.27,3.71,4.72,4.5c2.36,0.9,3.93,3.26,4.72,7.19
	c0.67,3.15,0.79,6.07,0.34,8.77c-0.67,5.28,0.56,9.55,3.82,12.47c0.22,0.23,0.45,0.45,0.79,0.67c0.9,0.79,2.14,1.46,3.37,2.13h0.45
	c-0.45-0.22-0.68-0.45-1.01-0.67c-2.36-1.91-3.6-3.6-3.6-5.28c0-0.11,0.22-0.45,0.56-1.01h0.22c0.67,0,1.69,0.79,2.81,2.47
	c1.35,1.8,2.14,2.81,2.36,2.92c1.8,1.12,3.94,1.91,6.29,2.59c-3.93-2.92-5.96-4.38-5.96-4.5c0-0.79,0.45-1.13,1.57-1.13
	c4.38,0,8.32,3.37,11.69,10v-0.67c0-4.61-3.15-8.77-9.33-12.25c-4.38-2.47-6.63-3.71-6.74-3.93c-2.14-1.35-3.26-2.92-3.48-4.38h0.22
	c0,0,5.4,3.03,15.85,9.33c4.16,2.47,6.18,5.85,6.18,10.23c0,2.92-0.34,5.4-1.12,7.42c0.56-0.45,1.01-0.67,1.24-0.9
	c0.34-0.22,0.56-1.46,0.68-3.37c0.11-1.8,0.56-2.7,1.24-2.7c0.34,0,0.67,0.34,0.9,0.79c3.15,0.45,5.17,5.51,5.96,15.17
	c0.22-2.36,0.34-4.5,0.34-6.63c0-1.24-0.11-2.36-0.45-3.48c-0.23-0.67-0.45-1.24-0.45-1.69c-0.67-1.57-1.01-2.81-1.01-3.48
	c-2.02-1.01-3.82-2.47-5.28-4.16c-1.12-1.46-2.02-3.03-2.81-4.94c-0.56-1.69-1.01-2.81-1.12-3.15c-1.01-2.14-3.48-4.72-7.53-7.87
	c-3.15-2.47-4.83-5.06-4.83-7.64c0-1.35,0.45-2.36,1.12-3.03c1.35,2.7,3.93,5.73,7.64,9.44c3.6,3.37,5.73,5.84,6.18,7.19
	c0.79,1.91,1.46,3.6,2.25,5.06c0.11-0.11,0.22-0.11,0.34-0.11c0.11,0,1.8,0.56,5.17,1.8c-3.26-3.15-5.39-6.52-6.18-10.23h0.22
	c0.56,0,2.47,1.69,5.51,5.17c0.67,0.9,1.35,1.57,1.91,2.25c-0.11-0.34-0.23-0.67-0.34-1.01c-1.01-3.03-2.7-5.51-4.95-7.31
	c-4.61-3.48-7.42-5.73-8.43-6.63c-2.81-2.7-4.27-5.17-4.27-7.31c0-0.9,0.34-1.46,1.01-1.69c1.69,2.14,6.41,6.86,14.16,14.05
	c3.82,3.48,6.07,6.86,6.86,10c0.22-0.9,0.45-1.8,0.45-2.59c0-4.61-2.59-8.77-7.64-12.48c-2.59-1.8-4.38-2.92-5.28-3.6
	c-1.69-1.12-2.47-1.91-2.47-2.47c0-0.45,0.11-0.9,0.22-1.24c-0.56-0.56-1.01-0.9-1.35-1.35l0.34-0.11c0.34,0,0.9,0.11,1.69,0.34
	c0.22-0.34,0.67-0.56,1.24-0.67c-2.81-1.24-4.5-2.25-5.17-3.15l0.22-0.11c3.6,0,7.31,1.01,11.01,2.92
	c-0.34-1.01-0.56-1.57-0.79-1.91c-0.11-0.11-0.23-0.22-0.34-0.45c-0.22-0.11-0.34-0.22-0.56-0.34c-0.56-0.45-1.12-0.79-1.57-1.12
	h-0.34c-0.9-0.45-2.14-0.9-3.6-1.46c-3.48-1.24-5.62-2.25-6.18-3.04c0.34-0.45,0.68-0.67,0.79-0.67c3.03,0,5.62,0.34,7.87,0.9
	c-0.67-1.01-1.35-2.02-2.25-2.7c-1.57-1.46-4.61-2.7-8.88-4.05c-1.8-0.45-3.37-1.01-4.72-1.46c1.01,3.04,2.14,5.4,3.48,6.97
	c0,0.67-0.34,1.01-1.01,1.01c-1.91,0-3.26-1.24-4.27-3.71c-0.67-2.7-1.35-4.27-1.8-4.61c-0.9-0.79-3.37-1.69-7.31-2.81
	c-1.69-0.56-3.15-1.01-4.38-1.46h-0.45c2.25,1.01,3.71,1.91,4.5,2.59c-0.23,0.45-0.56,0.56-0.9,0.56c-6.07-1.91-9.1-2.92-9.1-2.92
	c-3.26,1.01-5.62,1.8-7.19,2.25h1.01c1.24,0,2.36,0.45,3.37,1.24c1.24,1.13,2.47,1.91,3.93,2.36c0.11,0,1.57,0.22,4.61,0.67
	c1.46,0.22,2.25,0.79,2.25,1.69c0,0.67-1.13,0.9-3.26,0.9c-2.02,0-4.5-0.79-7.53-2.36c-3.03-1.69-4.95-2.47-5.84-2.47
	c-2.25,0-4.72,1.01-7.19,2.92h0.11c2.02-0.67,4.16-0.9,6.52-0.9c0.22,0,0.67,0.22,1.35,0.67c0.79,0.56,1.35,0.9,1.57,1.35
	c-6.63,1.01-10.45,1.69-11.35,2.02h-0.79c-7.76,9.22-11.58,17.98-11.58,26.08V120.45 M151.96,153.6c-0.11,0-0.11,0.11-0.11,0.23
	C151.85,153.72,151.85,153.6,151.96,153.6 M189.16,107.63c-0.67-0.45-1.8-0.9-3.26-1.57v0.22c0.11,0.45,0.23,0.79,0.34,1.24
	c0.11,0,0.22,0.11,0.34,0.11c1.24,0.79,2.47,1.46,3.48,2.02C189.72,109.21,189.5,108.53,189.16,107.63 M198.38,124.27v-0.34V124.27z
	 M185.9,132.7c1.24,1.46,3.37,2.7,6.29,3.71c-1.01-0.67-2.59-1.46-4.38-2.58c-0.79-0.34-1.46-0.79-2.02-1.12H185.9 M170.73,136.3
	c-0.34,0-0.67,0-1.12-0.11c0.11,0.22,0.11,0.34,0.22,0.56C170.05,136.52,170.39,136.41,170.73,136.3 M190.62,139.67
	c0.45,0.9,0.9,2.02,1.12,3.26c0.11,0.11,0.22,0.34,0.34,0.45c1.24,2.02,1.91,3.48,2.25,4.5c0,0.22,0.11,0.45,0.11,0.67
	c0.23-0.34,0.56-0.79,0.9-1.24c-0.34-1.24-1.01-2.47-1.8-3.6c-1.69-2.36-2.47-3.48-2.47-3.6v-0.34
	C190.96,139.78,190.85,139.67,190.62,139.67 M176.12,165.86v0.11l0.11-0.11H176.12z M153.76,160.24c0,2.81,0.45,4.83,1.46,6.07
	c0.9,1.35,2.92,2.81,6.07,4.61c0-0.11,0-0.11,0.11-0.11c-0.11-0.11-0.11-0.34-0.11-0.45c-3.48-4.38-5.62-7.31-6.41-8.54
	c-0.45-0.67-0.79-1.46-1.01-2.25C153.87,159.67,153.87,160.01,153.76,160.24 M151.96,165.07c0.23,0.22,0.11,1.24-0.34,2.81
	c0,1.91,1.46,3.93,4.5,5.73c1.57,0.9,2.81,1.68,3.48,2.13c0.79-0.79,1.35-1.35,1.69-1.69c-0.67,0-1.24-0.11-1.69-0.34
	c-2.92-0.34-5.4-2.47-6.97-6.41c-0.22-0.9-0.45-1.69-0.67-2.47V165.07 M148.92,170.91c-0.11,0.56-0.22,1.12-0.22,1.69
	c0,1.91,0.34,3.48,1.01,4.61c0.45,0.56,1.01,1.35,1.91,2.36c1.35,0,2.59-0.11,3.71-0.11v-0.11c0.79-0.56,1.57-1.12,2.13-1.69
	c-2.47-0.22-4.61-1.35-6.52-3.48C149.93,172.49,149.15,171.48,148.92,170.91 M145.21,174.4c0,1.46,0.34,2.92,1.01,4.5
	c-0.22-0.9-0.45-1.57-0.56-1.8h0.56c-0.45-1.46-0.67-2.92-0.67-4.27v-0.23C145.33,173.16,145.21,173.84,145.21,174.4 M123.75,179.57
	c-0.11-0.11-0.11-0.22-0.11-0.34c-3.15-0.34-5.17-1.01-6.29-2.02l-0.11-0.11c0.22,1.13,0.56,2.47,0.9,4.05
	c0,0.45-0.45,2.7-1.46,6.52c0,0.45,0.45,1.12,1.12,2.02c1.01,1.24,2.14,1.91,3.37,1.91c-0.22-0.22-0.34-0.45-0.45-0.56l-1.01-2.7
	c0-2.81,0.67-4.38,2.02-4.72c0.9,0,1.01,1.01,0.56,3.03c0,1.46,0.34,2.47,1.12,2.92c1.01,0.45,3.15,0.67,6.41,0.79
	c-0.11-0.23-0.22-0.34-0.34-0.45c-0.67-2.13-1.01-3.26-1.01-3.26c0-1.91,0.79-3.48,2.25-4.83c0.22,0.22,0.34,1.69,0.34,4.38
	c0,0.45,0.34,1.24,1.01,2.25c0.56,1.01,1.12,1.57,1.57,1.69v-0.11h1.57c0.56-0.11,1.46-0.34,2.36-0.56
	c-0.79-0.67-1.57-1.46-2.25-2.36c-1.69-2.92-2.58-4.38-2.58-4.38c0-1.24,0.34-2.14,1.01-2.81c0.11-1.13,0.34-2.02,0.67-2.59
	c-4.27,1.91-7.42,2.92-9.67,2.92C124.2,180.24,123.86,180.02,123.75,179.57 M137.01,177.32c0.11-0.34,0.23-0.67,0.34-1.01
	c0.11-0.23,0.23-0.45,0.34-0.56c-0.22,0.11-0.45,0.22-0.68,0.34c0,0.11,0,0.34,0.11,0.56C137.12,176.87,137.12,176.98,137.01,177.32
	 M136.9,178.22c-0.23,0.56-0.34,1.24-0.67,2.13c0,1.46,0.67,3.04,2.02,4.83c0.22-0.11,0.45-0.22,0.79-0.22
	c0.45,0,1.12,0.11,2.47,0.34c-0.9-0.56-1.57-1.35-2.36-2.25l-2.36-4.38C136.78,178.56,136.78,178.33,136.9,178.22 M141.05,180.81
	c0.34,0.45,1.35,1.01,2.92,1.69c-1.24-3.94-1.91-5.85-1.91-5.96c0-1.24,0-2.36,0.11-3.26c-1.12,0.67-2.25,1.24-3.37,1.8
	C139.03,177.43,139.82,179.34,141.05,180.81 M142.4,189.35c0.23,0,0.34,0,0.45-0.11c-0.22,0-0.45,0-0.56-0.11
	C142.29,189.24,142.4,189.35,142.4,189.35 M151.51,183.95c0.34-0.23,0.67-0.45,1.01-0.56c-1.12-0.23-2.25-0.67-3.03-1.35
	c-0.9-0.22-1.57-0.45-2.02-0.9c0.34,0.67,0.79,1.24,1.24,1.8l1.01,1.46c0.45-0.23,0.9-0.34,1.46-0.45H151.51 M143.98,197.1
	c-0.45,1.46-1.57,3.03-3.6,4.94c2.25,0,3.93,0.45,5.17,1.12C145.44,200.7,144.88,198.56,143.98,197.1 M162.75,111.79
	c0.56-2.47,0.23-3.71-1.01-3.71c-1.24,0-1.91,1.57-1.91,4.83c0,0.9,0.79,2.47,2.25,4.61c1.8,2.81,3.93,4.16,6.41,4.16
	c1.12,0,1.69-0.11,1.91-0.45c-1.12-1.35-2.92-3.15-5.51-5.17C163.42,114.94,162.75,113.48,162.75,111.79 M156.12,137.64
	c0-0.22-0.11-0.34-0.34-0.34c-1.24,1.8-2.02,2.7-2.14,2.81c0,0.11-0.56,0.56-1.8,1.46c-0.45,0.34-0.68,0.56-1.01,0.79
	c-0.79,0.79-1.46,1.57-2.02,2.25h0.34c0-0.11,0.56,0,1.46,0.22c0.22,0,0.9-0.56,2.14-1.8c0.11-0.22,0.34-0.34,0.45-0.45
	c1.46-1.01,2.14-1.57,2.14-1.91l-0.23-0.22C155.78,139.44,156.12,138.54,156.12,137.64"/>
</svg>
