<?xml version="1.0" encoding="UTF-8" standalone="no"?>
<svg xmlns:rdf="http://www.w3.org/1999/02/22-rdf-syntax-ns#" xmlns="http://www.w3.org/2000/svg" xml:space="preserve" viewBox="0 0 187 187" version="1.1" y="0px" x="0px" xmlns:cc="http://creativecommons.org/ns#" xmlns:dc="http://purl.org/dc/elements/1.1/" height="187" width="187"><g transform="matrix(.5 0 0 .5 1.02 .98)"><path d="m112.99 14.536c-22.034 9.319-41.816 22.658-58.806 39.656-16.99 16.99-30.321 36.765-39.641 58.798-9.658 22.81-14.543 47.03-14.543 72.01 0 24.977 4.885 49.201 14.543 72.009 9.319 22.034 22.651 41.824 39.641 58.807 16.99 16.99 36.772 30.329 58.806 39.648 22.809 9.643 47.033 14.536 72.01 14.536s49.201-4.893 72.01-14.535c22.033-9.319 41.816-22.658 58.806-39.648 16.99-16.982 30.329-36.772 39.648-58.807 9.64-22.82 14.53-47.04 14.53-72.02s-4.89-49.2-14.54-72.01c-9.32-22.033-22.65-41.809-39.64-58.798-16.99-16.998-36.78-30.337-58.81-39.656-22.81-9.643-47.03-14.536-72.01-14.536s-49.2 4.893-72.01 14.536"/><path fill="#fff" d="m113.42 354.45c-21.899-9.26-41.562-22.52-58.454-39.42-16.892-16.89-30.156-36.55-39.407-58.45-9.59-22.67-14.453-46.75-14.453-71.58s4.863-48.91 14.453-71.58c9.251-21.899 22.515-41.562 39.407-58.454 16.892-16.884 36.555-30.156 58.454-39.407 22.67-9.59 46.75-14.453 71.58-14.453 24.826 0 48.915 4.863 71.581 14.453 21.897 9.251 41.56 22.523 58.452 39.407 16.892 16.892 30.148 36.555 39.415 58.453 9.59 22.673 14.453 46.754 14.453 71.581s-4.863 48.908-14.453 71.581c-9.267 21.898-22.523 41.561-39.415 58.452-16.893 16.893-36.555 30.156-58.452 39.415-22.666 9.59-46.755 14.453-71.581 14.453s-48.907-4.863-71.581-14.453"/><path d="m114.5 18.126c-21.564 9.116-40.925 22.184-57.561 38.813s-29.689 36.005-38.813 57.561c-9.447 22.33-14.234 46.05-14.234 70.5s4.788 48.162 14.235 70.497c9.124 21.566 22.177 40.928 38.813 57.564s35.997 29.696 57.564 38.813c22.334 9.439 46.054 14.234 70.497 14.234 24.45 0 48.17-4.795 70.497-14.234 21.559-9.116 40.935-22.177 57.563-38.813 16.637-16.637 29.696-35.998 38.813-57.564 9.447-22.335 14.242-46.047 14.242-70.497s-4.795-48.169-14.242-70.497c-9.11-21.556-22.17-40.933-38.81-57.561-16.63-16.629-36-29.697-57.56-38.813-22.33-9.447-46.05-14.227-70.5-14.227-24.442 0-48.162 4.78-70.497 14.227"/><path fill="#fff" d="m114.72 351.37c-21.497-9.1-40.806-22.11-57.396-38.69-16.576-16.59-29.599-35.9-38.692-57.4-9.418-22.26-14.183-45.9-14.183-70.28 0-24.367 4.765-48.019 14.182-70.278 9.093-21.499 22.116-40.808 38.692-57.391 16.591-16.583 35.899-29.599 57.398-38.7 22.26-9.41 45.904-14.19 70.279-14.19s48.019 4.78 70.286 14.189c21.491 9.101 40.808 22.116 57.383 38.7 16.584 16.583 29.599 35.892 38.7 57.391 9.417 22.259 14.189 45.911 14.189 70.278 0 24.375-4.772 48.019-14.189 70.278-9.102 21.499-22.116 40.808-38.7 57.399-16.575 16.583-35.892 29.591-57.383 38.691-22.268 9.417-45.912 14.19-70.286 14.19s-48.019-4.771-70.278-14.188"/><path d="m134.76 66.063c-15.372 6.496-29.177 15.808-41.033 27.664s-21.16 25.654-27.664 41.026c-6.73 15.921-10.14 32.82-10.14 50.254 0 17.419 3.41 34.319 10.14 50.24 6.504 15.371 15.808 29.177 27.664 41.025 11.856 11.856 25.662 21.168 41.033 27.664 15.914 6.729 32.821 10.14 50.24 10.14 17.427 0 34.333-3.41 50.239-10.14 15.372-6.496 29.178-15.808 41.033-27.664 11.856-11.849 21.161-25.654 27.665-41.025 6.729-15.921 10.146-32.821 10.146-50.24 0-17.434-3.417-34.333-10.146-50.254-6.504-15.372-15.809-29.17-27.665-41.026-11.86-11.852-25.67-21.164-41.04-27.66-15.91-6.73-32.81-10.14-50.24-10.14-17.419 0-34.326 3.41-50.24 10.14"/><path fill="#fff" d="m134.97 303.42c-15.31-6.47-29.05-15.74-40.852-27.54-11.803-11.8-21.077-25.55-27.551-40.85-6.699-15.85-10.094-32.67-10.094-50.02 0-17.358 3.395-34.19 10.094-50.036 6.474-15.304 15.748-29.049 27.551-40.853 11.804-11.804 25.542-21.07 40.853-27.544 15.838-6.707 32.677-10.102 50.029-10.102 17.351 0 34.183 3.395 50.029 10.102 15.304 6.474 29.049 15.74 40.853 27.544 11.811 11.803 21.069 25.549 27.551 40.853 6.7 15.846 10.095 32.678 10.095 50.036 0 17.344-3.395 34.176-10.095 50.021-6.481 15.304-15.74 29.05-27.551 40.853-11.804 11.804-25.549 21.07-40.853 27.544-15.846 6.707-32.678 10.109-50.029 10.109-17.352 0.001-34.191-3.402-50.029-10.109"/><path d="m135.9 68.765c-15.025 6.354-28.515 15.447-40.1 27.032s-20.678 25.075-27.032 40.1c-6.579 15.56-9.914 32.075-9.914 49.103s3.335 33.543 9.914 49.103c6.354 15.025 15.447 28.515 27.032 40.1s25.075 20.679 40.1 27.032c15.552 6.579 32.075 9.914 49.103 9.914 17.027 0 33.543-3.335 49.103-9.914 15.025-6.354 28.516-15.447 40.101-27.032s20.679-25.074 27.031-40.1c6.572-15.56 9.914-32.075 9.914-49.103s-3.342-33.543-9.914-49.103c-6.353-15.025-15.446-28.515-27.031-40.1-11.59-11.59-25.08-20.683-40.11-27.037-15.56-6.572-32.07-9.914-49.1-9.914-17.028 0-33.551 3.342-49.103 9.914"/><path fill="#fff" d="m136.33 300.22c-14.89-6.3-28.26-15.32-39.75-26.8-11.487-11.48-20.498-24.86-26.799-39.75-6.519-15.41-9.823-31.79-9.823-48.67 0-16.884 3.305-33.257 9.823-48.674 6.301-14.89 15.312-28.267 26.799-39.746 11.487-11.48 24.856-20.498 39.746-26.799 15.417-6.519 31.789-9.823 48.674-9.823s33.257 3.305 48.674 9.823c14.89 6.301 28.267 15.319 39.746 26.799 11.479 11.479 20.498 24.856 26.799 39.746 6.519 15.417 9.823 31.789 9.823 48.674s-3.305 33.265-9.823 48.674c-6.301 14.89-15.319 28.266-26.799 39.746-11.479 11.479-24.856 20.497-39.746 26.798-15.417 6.52-31.789 9.824-48.674 9.824s-33.257-3.304-48.674-9.824"/><path fill="#ffd520" d="m184.75 67.071c-63.225 0-116.44 51.618-117.65 115.69l0.038 0.113c0.053 0.188 0.647 1.362 3.117 2.921 2.492 1.565 6.165 3.222 11.005 4.464 5.992 1.536 12.277 2.792 18.142 3.794l0.113 0.022c17.848 3.041 32.339 4.268 53.657 5.142 10.035 0.421 20.122 0.798 30.073 0.775-0.015-6.022-0.045-40.273 0.226-73.335 0.038-4.275 0.09-8.739 0.143-13.218 0.263-21.545 0.722-43.473 1.136-46.364m118.12 115.33c0 0.527-2.093 2.281-4.336 3.644-0.053 0.03-0.105 0.06-0.158 0.098-3.049 1.656-7.354 3.207-12.729 4.615-5.495 1.445-12.285 2.77-19.745 3.907-7.475 1.152-15.793 2.002-24.759 2.808v0c-11.479 1.017-18.698 1.453-27.844 1.912-9.718 0.399-19.813 0.617-30.066 0.61 0 1.295 0.008 2.597 0.008 3.899 0.022 9.214 0.045 17.999 0.09 26.264 0.226 45.271 0.293 45.233 1.656 72.77 65.114 0 117.91-52.784 117.91-117.91-0.001-0.002-0.023-1.71-0.023-2.621"/><path fill="#c8102e" d="m184.75 67.07 0.0527 0.09961c2.68 3.929 8.0615 6.2546 9.2285 6.6016-0.331 1.43-0.0883 4.282 4.8867 7.873 0.768 0.564 1.5205 1.0015 2.2285 1.3555 7.663 4.005 9.3558 0.88767 9.7168-0.36133 0.038-0.038 0.0917-0.06766 0.13672-0.09766 2.333 1.716 6.8878 5.3811 11.924 11.08 2.898 3.485 5.6284 6.5116 7.6914 9.5606-4.734 0.603-11.012 1.1587-17.229 1.5957-0.346-7.513-5.7734-11.268-9.1914-12.541-7.467-2.777-9.9216 6.0221-6.6856 12.203-5.917-3.199-12.91-0.35372-13.896 8.9883 23.357-0.143 39.369-1.1763 57.113-3.6973-15.018-22.929-26.868-31.27-42.096-37.285-3.034-1.189-13.362-5.239-13.881-5.375zm55.977 42.66h0.006l-0.006-0.008v0.008zm-51.71-42.562c5.947 0.527 9.9745 2.1143 10.938 2.4453 0.752 0.256 1.3558 0.67033 1.7168 0.98633 0.038-0.008 0.0586-0.01367 0.0586-0.01367 1.182 0.128 2.538 0.3598 4.209 0.8418 1.829 0.534 4.8771 1.6477 7.5801 2.9277 2.71 1.28 6.737 4.1558 6.752 5.7598-0.617 0.384-0.81163 0.497-2.6406 0 6.978 4.983 16.982 14.347 22.891 21.242 4.064-0.768 10.117-1.641 12.902-2.582-0.18 0.198-9.2205-6.5684-11.23-10.4-0.061-0.105-0.11973-0.51994-0.0527-0.83594 0.075-0.301 0.33789-0.55664 0.33789-0.55664s0.12026-0.30064 0.57226-0.55664c1.204-0.693 4.758-1.0475 14.627 5.7715-20.445-16.079-42.457-22.696-61.133-24.518-2.642-0.309-7.5274-0.51172-7.5274-0.51172zm77.295 32.559c0 4.456-15.305 8.131-22.057 9.373-1.031 0.181-2.115 0.36864-3.252 0.55664-0.031 0.008-0.0606 0.0156-0.0606 0.0156-0.0341 0.001-0.0624 0.007-0.0977 0.0137l-0.11914 0.0527h0.006c18.841 30.923 23.691 56.312 25.166 84.924 0.00007 0.001-0.00007 0.003 0 0.004 8.921-2.793 10.426-15.552 5.7285-24.246 5.88 2.055 8.764-3.6667 8.5-10.096-0.459-10.93-9.7505-22.251-15.689-16.146-3.418-9.499-8.1752-19.309-13.158-27.529 0.503-0.098 1.4075-0.30825 1.8965-0.40625 4.238-0.82 9.3352-3.0349 12.406-4.0059 1.182 2.297 3.1607 7.8461 9.2207 10.578 0.188 0.09 0.36197 0.1488 0.54297 0.2168 1.695 0.76 3.3048 0.70087 3.5078-1.8281 0.06-0.83599-0.26383-2.5443-0.79883-4.0273-0.474-1.325-0.81284-2.1593-1.3398-3.0703-4.403-8.363-10.402-14.379-10.402-14.379zm-0.41406 94.936c-0.60128 0.0467-1.3807 0.0641-1.959-0.0117-6.143-0.813-11.283-11.193-8.5801-21.748-8.627 5.97-18.352-6.2995-16.938-17.645 0.761-6.015 4.6965-11.354 11.562-8.8848-2.785-9.59-6.285-18.675-10.373-27.031-6.098 0.775-12.782 1.4239-19.881 1.9199 6.309 9.522 0.12094 18.375-8.6641 16.967-6.376-1.023-12.324-7.7079-10.668-15.672-5.164 3.583-15.77 2.174-16.77-9.125-0.278 23.983-0.42958 54.651-0.39258 86.553 31.335 0.30896 68.041-3.0343 82.662-5.3223zm-166.38-0.59c9.137 3.1 11.642 16.702 9.2871 24.252 8.762-3.387 19.776 11.761 15.922 21.893-1.776 4.667-6.3836 5.9621-11.225 3.1621 2.612 8.845 5.9998 16.914 10.049 24.088 6.195 0.851 13.159 1.5883 20.77 2.1523-6.113-7.521-1.2059-13.693 6.9551-13.279 7 0.361 16.274 6.1875 14.295 14.145 6.301-2.845 16.961-0.51983 18.248 7.7012-0.309-17.683-0.52045-43.646-0.56445-74.291 0-1.333-0.0156-2.5664-0.0156-3.8984-9.952 0.022-20.038-0.36139-30.072-0.77539-21.311-0.881-35.815-2.1074-53.648-5.1484zm-0.0098 0.006c-9.063-0.023-10.078 12.97-6.3223 21.627-4.983-3.771-6.934-0.28624-7.543 1.3848-2.974 8.205 6.4058 27.635 13.76 23.924 3.132 8.936 7.1834 17.126 12.023 24.42-5.142-1.039-9.4184-2.1902-12.693-3.4102-0.09-0.151-8.3623-14.619-13.654-16.381-0.49-0.158-1.2725-0.10521-1.3105-0.1582 0.323 0.49699 3.379 5.8051 7 10.494 4.991 6.475 10.652 12.293 10.742 12.301 0.151 0.03 0.36276 0.0362 1.0098 0.36718 3.869 1.987 9.6801 3.5089 19.789 5.3379-18.669-26.543-22.59-51.255-22.801-79.906zm22.809 79.914c15.198 19.904 30.321 24.851 39.008 26.559 1.919 0.385 2.7566 0.5658 6.1816 1.0918 0 0 0.94727 0.14976 0.94727 0.13476-4.509-1.596-8.8217-3.7178-13.346-5.2988-3.531-1.243-4.6307-1.3096-5.3457-1.0156-5.955-3.486-11.465-8.1836-16.418-13.936 5.208 0.716 11.065 1.3411 17.479 1.8301 0.475 4.17 6.6335 8.3402 11.812 9.2812 6.663 1.198 9.945-3.1162 6.166-8.1152 8.099 3.304 13.828-0.59464 14.844-4.6816 0.114-0.489 0.12669-1.1594 0.17969-1.6484-25.383-0.166-43.201-1.3862-61.508-4.2012z"/><path d="m196.68 18.662c-3.678 0.0014-6.5034 2.1458-6.75 5.2227-0.542 6.933 12.029 9.6653 11.592 15.363-0.249 3.132-3.185 4.4571-5.834 4.2461-3.087-0.24-5.6989-2.5135-6.2559-6.1035l-0.75195-0.0625 0.36133 6.0898 0.66992 0.05273c0.18-0.233 0.47494-0.405 0.83594-0.375 0.557 0.045 3.2369 1.325 5.4199 1.498 4.629 0.361 8.3025-2.2605 8.6035-6.1445 0.565-7.279-12.022-9.7772-11.578-15.408 0.166-2.205 2.1007-3.5751 4.7207-3.3711 2.733 0.218 5.1179 2.2339 6.0059 5.1699l0.67774 0.05273-0.28516-5.0801-0.63281-0.05273c-0.264 0.3-0.42228 0.36789-0.73828 0.33789-1.385-0.105-1.9785-1.1452-5.3125-1.4082-0.25225-0.01931-0.50285-0.02744-0.74805-0.02734zm-34.086 1.4355c-0.7982 0.0044-1.6527 0.06067-2.5644 0.16992-2.567 0.301-3.3501 0.43603-4.9531 0.70703-1.611 0.271-3.9973 0.71531-4.9453 0.82031l0.0898 0.75391 0.86718-0.10547c2.281-0.264 3.049 0.36959 3.334 2.8086l1.9726 16.605c0.316 2.634-0.43767 3.3646-2.7637 3.6426l-0.66992 0.07422 0.084 0.76172 11.17-1.336-0.082-0.75391-0.91016 0.11328c-2.206 0.256-3.2238-0.21803-3.5098-2.582l-0.79-6.668c0.64-0.03 1.1516-0.0532 2.0176-0.1582 1.062-0.128 1.6939-0.24044 2.6719-0.39844 1.023 0.52 2.5365 1.4972 4.4785 3.0332l2.9121 2.2891c3.929 3.094 5.8871 4.3801 12.744 3.2441l-0.0742-0.70703c-3.071 0.158-5.646-1.0155-8.25-3.0625l-3.4844-2.748c-2.07-1.634-3.3894-2.5974-4.9844-3.5684 3.116-1.332 4.8403-4.0498 4.4863-7.0078-0.42175-3.5175-3.2524-5.9583-8.8398-5.9277zm-1.25 0.89453c4.4522 0.07682 6.0278 2.5012 6.4102 5.709 0.565 4.728-2.0936 6.9242-6.4746 7.4512-0.911 0.105-1.4991 0.21908-2.4551 0.20508l-1.5352-12.934c0.7-0.158 1.2048-0.21841 1.9648-0.31641 0.75837-0.08938 1.4538-0.12621 2.0898-0.11523zm54.459 0.62695-0.16602 0.73828c2.153 0.588 2.7626 1.3316 2.3106 3.4316l-3.6 16.522c-0.565 2.605-1.2057 3.1171-3.6367 2.7031l-0.1582 0.74609 9.4258 2.0469 0.1582-0.73828c-2.672-0.579-3.124-1.4911-2.627-3.7871l3.582-16.447c0.565-2.597 1.5442-2.9586 3.9902-2.4316l0.1504-0.72852-9.4238-2.0566zm-77.258 3.5977-18.021 6.2109 0.24023 0.70703 0.82813-0.2793c2.514-0.873 3.313-0.13516 4.043 1.9648l5.4648 15.848c0.775 2.258 0.53425 3.2579-2.4688 4.2969l-1.0547 0.36133 0.24024 0.70703 19.941-6.873-1.3242-5.7949-0.67774 0.23242c0.18 3.554-0.26362 4.8411-2.8906 5.7441l-5.7891 1.9961c-1.384 0.474-2.1454 0.35991-2.7324-1.3711l-2.7637-7.9941 6.3555-2.1895c1.536-0.535 2.3494-0.48302 3.5684 2.084l0.71484-0.24805-2.4629-7.1367-0.71484 0.24805c0.564 2.243 0.14973 3.1094-1.1973 3.5684l-6.7226 2.3184-3.1836-9.2285 7.918-2.7402c1.355-0.459 2.5233-0.11275 4.1113 2.9062l0.67773-0.23438-2.0996-5.1035zm97.168 0.46289-2.9668 5.75 0.66992 0.26367c1.844-3.034 2.8373-3.6222 4.3203-3.0352l6.4297 2.5449-7.2422 18.24c-0.783 1.995-1.7234 2.439-3.9824 1.543l-1.3691-0.54297-0.27149 0.70117 11.631 4.6133 0.2793-0.70703-1.3711-0.53516c-2.251-0.896-2.6437-1.8605-1.8457-3.8555l7.2285-18.236 6.4199 2.5449c1.483 0.588 1.8151 1.7019 1.0781 5.1719l0.66992 0.26172 1.7754-6.2246-0.69922-0.27148c-0.256 0.414-0.85109 0.31061-1.3711 0.09961l-17.758-7.0391c-0.255-0.097-0.4964-0.24825-0.6914-0.40625-0.197-0.165-0.28757-0.36252-0.22656-0.60352l-0.70704-0.27734zm-123.18 9.166-7.957 4.6602 0.38477 0.64648c2.327-1.37 3.4332-1.4587 4.0352-0.42774 0.279 0.482 0.47411 1.2868 0.66211 2.4688l2.875 17.32-15.16-11.734c-1.574-1.19-1.2446-2.3575 1.8574-4.2695l-0.375-0.6543-9.418 5.5254 0.37695 0.64648c2.092-1.219 2.8069-0.95697 4.9219 0.70703l18.301 14.184 1.7168-1.002-3.6524-22.402c-0.414-2.605 0.0226-3.9755 1.8066-5.0215l-0.375-0.64648zm152.92 4.0566-0.41406 0.625c2.101 1.505 2.5508 2.4697 2.4688 6.0977l-0.25586 13.105-3.1094 4.6523c-1.091 1.618-2.1885 1.9872-4.2285 0.61719l-0.63281-0.42188-0.42188 0.63281 9.0859 6.0664 0.41406-0.625-0.42187-0.29297c-2.025-1.34-2.1818-2.46-1.0078-4.207l3.3125-4.9473 11.676-5.623c1.958-0.933 3.5151-1.1898 5.8711 0.1582l0.42187-0.63086-7.459-4.9922-0.43164 0.63281c2.123 1.408 2.3715 2.386 0.10547 3.5l-9.9512 4.8184 0.1582-11.689c0.03-2.183 0.60745-2.7023 3.1894-0.98633l0.41406-0.625-8.7832-5.8652zm-182.83 15.109-7.4219 6.166 0.48047 0.58008c1.785-1.325 2.7491-1.3482 4.1191 0.30078l10.809 13.021c1.701 2.04 1.7107 2.8674-0.11133 4.5234l0.48047 0.58789 7.4316-6.1719-0.48242-0.57226c-2.116 1.746-3.1086 1.5353-4.5996-0.26367l-10.755-12.955c-1.693-2.048-1.3782-3.0337 0.54883-4.6367l-0.48828-0.58008zm-14.783 12.143-5.9922 7.1055 0.58008 0.48828c2.107-2.379 2.9039-2.642 4.7559-1.084l12.09 10.186-26.963 1.7402-4.0195 4.7715 0.57031 0.48242c0.926-1.031 1.8381-1.6191 2.9141-1.9121l14.941 12.594c1.4 1.175 1.5196 2.3262-0.06836 4.2012l-0.09766 0.12696 0.58008 0.48242 5.9316-7.0469-0.57226-0.48047c-2.176 2.582-3.0405 2.678-5.2305 0.83398l-13.014-10.978 29.711-1.867 0.664-0.783-16.937-14.28c-1.19-1.001-1.1729-1.8227 0.74609-4.0957l-0.58008-0.48828zm116.9 0.91602c-0.001 0.000696-0.003 0.0013-0.004 0.002-0.001 0.000216-0.003 0.0017-0.004 0.002-11.754 6.6429-22.041 35.562-27.74 72.182-0.004 0.0276-0.007 0.0564-0.0117 0.084 8.4751 10.779 14.693 17.606 26.285 29.762 0-1.431 0.0355-8.8221 0.10352-19.037 0.03-10.297 0.10781-23.636 0.25781-36.629 0.25597-22.054 0.69133-42.874 1.1133-46.363 0.00005-0.000406-0.00005-0.0015 0-0.002zc-9.515 0.023-17.938 1.0241-27.551 3.3281-13.708 3.29-18.632 7.8371-27.281 14.078 16.275-9.756 34.966-16.555 54.832-17.406zm-27.76 72.27c-0.00059-0.00074-0.001-0.001-0.002-0.002 0.004-0.0277 0.009-0.0543 0.0137-0.082-8.634-11.759-11.374-17.353-14.754-27.229-7.407 15.635-12.955 34.348-16.004 54.461 7.204 10.72 11.661 16.984 26.023 32.688 0.15776-21.046 1.8704-41.46 4.7227-59.836zm-14.742-27.312c10.997-23.191 25.967-40.51 42.492-44.953-12.717 0.72359-19.024 3.4771-25.6 6.1328 7.9936-2.9479 16.978-5.3532 25.59-6.1309-15.106 2.3689-29.293 10.796-41.594 22.125-3.237 8.379-3.0566 13.288-0.93359 22.916 0.0145-0.0305 0.0304-0.0593 0.0449-0.0898zm16.893-38.82c-17.201 6.737-32.686 18.285-45.227 32.678-3.4248 10.726-3.416 16.704-1.6934 28.16 7.656-17.877 18.33-33.363 30.969-44.939 3.892-6.746 6.3232-10.772 15.951-15.898zm146.77 4.8066c-2.6217 0.09497-5.2395 1.015-7.5938 2.8105-5.909 4.509-5.9173 12.744-1.1973 18.939 4.674 6.128 13.061 7.821 19.445 2.959 5.676-4.336 5.8548-12.555 1.3008-18.525-3.2038-4.2056-7.5856-6.3419-11.955-6.1836zm2.9238 2.332c2.7202-0.1035 5.4962 0.8475 7.6152 3.625 3.975 5.217 2.6728 12.097-3.1992 16.576-4.486 3.425-10.914 4.4263-14.836-0.72266-3.877-5.081-2.7713-12.27 3.1387-16.771 1.897-1.4455 4.561-2.6035 7.2812-2.707zm-179.02 4.194c-34.53 20.727-58.242 58.577-59.544 101.25 2.491 1.566 6.0899 3.2598 11.006 4.4648 0.881-32.166 13.249-62.103 32.625-84.355 4.118-9.786 7.7451-14.114 15.912-21.355zm-86.959 13.037-4.1465 8.3633 0.67774 0.33203c1.611-2.883 2.4775-3.11 5.8945-1.416l8.2949 4.1113c6.045 3.003 5.6825 7.9183 3.6875 11.945-2.628 5.292-6.9021 6.685-11.705 4.291l-9.8926-4.9004c-2.062-1.024-2.1741-2.1465-1.2031-4.1035l0.16602-0.31445-0.67773-0.33984-4.5469 9.1465 0.68555 0.33789c1.228-2.409 1.9045-2.8673 4.1855-1.7383l10.389 5.1484c5.089 2.529 10.695 0.96301 14.068-5.834 3.831-7.716 0.48931-12.88-3.9297-15.062l-9.5977-4.7715c-2.274-1.121-2.8169-2.4545-1.6719-4.8555l-0.67773-0.33984zm288.4 7.9648-0.68555 0.32422c1.159 2.529 0.20206 3.1998-2.0859 4.2988l-14.053 6.6992c-2.907 1.385-3.5626 1.2186-4.7676-0.94141l-0.67578 0.32422 4.1543 8.709 0.68554-0.32421c-1.288-2.687-0.73851-3.4698 1.2715-4.4258l7.8516-3.748 3.1621 6.6309c0.82 1.717 0.53333 2.7786-1.5137 3.8476l0.29297 0.60352 6.3105-3.0137-0.28711-0.60157c-1.596 0.625-2.6641 0.33868-3.2891-0.98632l-3.3867-7.0977 8.4219-4.0215 3.252 6.8144c1.054 2.221 0.54266 3.349-1.5273 4.373l0.29492 0.60937 4.2285-2.0176-7.6543-16.057zm-219.03 28.502c-7.7456 18.156-12.217 38.646-12.691 60.023 7.324 1.273 15.476 2.4161 24.088 3.2441 0.158-10.486 1.0466-20.821 2.5606-30.811-8.4156-14.128-10.961-20.542-13.957-32.457zm-91.258 41.068c-0.881 1.272-3.9959 4.0888-6.1719 5.5488l0.30078 0.52735c1.385-0.64 3.4855-2.0261 4.6895-3.0801v18.715c0 1.122-0.22469 1.459-1.4297 1.459h-2.0254v0.68554h9.4238v-0.68554h-2.0996c-1.167 0-1.3926-0.29988-1.3926-1.4219v-21.748h-1.2949zm17.869 0.008c-3.711 0-6.8125 2.7794-6.8125 6.0684 0 2.552 1.6041 4.4641 5.1191 6.0371-3.673 1.453-5.4648 3.5226-5.4648 6.1426 0 3.41 3.2073 6.1504 7.2793 6.1504 4.178 0 7.3984-2.9973 7.3984-6.9043 0-2.883-1.6867-4.8699-5.6387-6.6309 3.306-1.31 4.8887-3.0708 4.8887-5.4648 0-3.003-3.0205-5.3984-6.7695-5.3984zm-0.01367 0.67773c2.619 0 4.5156 1.9796 4.5156 4.6816 0 2.13-1.0459 3.8549-3.1309 5.1719-4.855-2.07-5.9766-3.561-5.9766-5.623 0-2.356 2.0098-4.2305 4.5918-4.2305zm295.33 1.5215c-0.181 0.331-0.40598 0.48242-1.084 0.48242h-8.875l-0.51953 11.93 0.36719 0.25585c1.121-0.956 2.5838-1.4902 3.9688-1.4902 3.222 0 5.5859 2.5735 5.5859 6.0215 0 3.418-2.364 6.3164-5.127 6.3164-2.371 0-3.0797-2.627-5.0977-2.627-0.678 0-1.2422 0.52797-1.2422 1.168 0 1.31 2.4786 2.3555 5.4746 2.3555 5.014-0.00001 8.7988-3.4552 8.7988-7.9942 0-4.231-3.4767-7.7305-7.6777-7.7305-1.535 0-2.884 0.29964-4.043 0.93164l0.30078-6.7207h9.4707l0.42187-2.8984h-0.72266zm18.803 0.006c-7.837 2.213-12.562 7.7174-12.562 14.65 0 5.751 3.2219 9.7559 7.8359 9.7559 4.02 0 7.3164-3.4412 7.3164-7.5742 0-3.832-2.9666-6.9024-6.6406-6.9024-1.836 0-3.3031 0.58697-5.3281 2.168 0.828-5.473 3.9432-9.1457 9.7852-11.555l-0.40625-0.54297zm-50.074 5.0742c-0.639 1.137-2.5272 2.5974-4.4922 3.7344 0.037 1.302 0.0664 2.598 0.0664 3.916 0.0585 40.005-18.683 73.556-48.363 93.162-0.77768 0.59065-2.4104 1.6296-4.2148 2.7285l-0.40234 0.30469c14.965-9.207 33.883-24.736 45.92-50.451 12.895-25.36 11.486-53.395 11.486-53.395zm-57.004 103.54 0.4336-0.32813c1.2816-0.772 2.5375-1.5788 3.7812-2.4004 0.0552-0.0419 0.18533-0.12359 0.23047-0.16015 4.682-3.786 6.1431-6.6309 8.0781-10.922-0.006 0.007-0.0174 0.0166-0.0234 0.0234-3.8805 4.371-25.574 22.13-41.447 26.406 2.567-0.729 4.8936-1.3245 7.3926-2.3555 8.958-3.682 10.26-3.7885 16.914-7.5215 1.0332-0.58139 2.8813-1.6707 4.6406-2.7422zm12.5-13.787c16.998-19.256 27.395-46.454 27.342-77.498 0-1.302-0.0217-2.5964-0.0527-3.8984-5.495 1.453-12.294 2.7624-19.754 3.8984 0.105 1.31 0.15039 2.6482 0.15039 3.9512 0.03 20.182-3.401 38.521-9.627 54.02 3.509 8.996 3.5594 12.766 1.9414 19.527zm-220.52-84.55c4.365 1.987 6.0957 3.5602 6.0957 6.0742 0 2.921-2.1368 5.1719-4.9668 5.1719-2.853 0-4.9609-2.365-4.9609-5.541 0-2.447 1.28-4.3201 3.832-5.7051zm310.49 0.55078c2.507-0.002 4.3887 2.3316 4.3887 6.3516 0 4.246-1.7988 6.6172-4.4258 6.6172-2.364 0-5.0977-2.0709-5.0977-8.3789 0-1.28 0.0686-1.806 0.18164-2.332 2.289-1.837 3.9821-2.2578 4.9531-2.2578zm-107.19 9.3184c-11.473 1.016-18.7 1.459-27.838 1.918 0.00039 0.00041-0.0004 0.002 0 0.002 16.161 16.801 19.594 20.737 26.422 28.564 0.963-8.341 1.4689-17.185 1.4609-26.436-0.008-1.324-0.0149-2.7318-0.0449-4.0488zm-27.838 1.9199c-11.939 0.475-19.813 0.60856-30.066 0.60156 0 1.301 0.008 2.6032 0.008 3.9062 0.015 9.214 0.0448 17.991 0.0898 26.256 18.895 17.908 18.895 17.909 26.768 25.791 2.085-14.965 3.2526-32.844 3.2226-52.648 0-1.303-0.007-2.6042-0.0215-3.9062zm26.422 28.574c0.022-0.173-6.7889 35.416-13.211 48.115 3.696 7.128 3.8611 9.9756 2.3711 14.643 11.449-8.687 20.882-21.792 27.379-38.021-4.171-8.485-6.9951-13.007-16.539-24.736zm-178.13 21.695-0.73633 0.53516c1.678 2.672 1.0009 3.2889-1.8301 5.0879l-16.695 10.607c-3.884 2.506-4.8111 2.6112-6.9941-0.38477l-0.77539 0.56446 6.1953 8.5508 0.79102-0.57031c-1.264-1.905-1.9408-3.7945 0.24219-5.1875l19.293-12.309 0.05859 0.084-14.301 26.361 0.68555 0.94922 29.32-5.6621 0.05859 0.0762-17.539 14.543c-2.055 1.746-3.9664 0.24146-5.3594-1.6855l-0.79102 0.5625 7.6641 10.562 0.77344-0.56446c-2.168-3.004-2.4095-3.3263 1.1895-6.3223l17.66-14.814c1.332-1.092 1.9424-0.33921 3.5684 1.5508l0.73047-0.53516-4.375-6.0371-27.859 5.1641 13.52-24.924-4.4941-6.2031zm252 1.7402c-4.9734 0.26007-10.168 3.4038-14.713 10.438-1.43 2.214-3.072 4.8414-4.502 7.2344-1.431 2.409-2.6949 4.5545-3.6289 6.1875l0.80664 0.51367 0.54883-0.84375c1.626-2.514 2.7858-2.8016 5.5488-1.0176l18.336 11.85c2.462 1.596 2.4177 3.0788 0.92774 5.3828l-0.46875 0.71485 0.80664 0.52734 8.8223-13.643c6.97-10.779 2.4761-20.754-3.9609-24.916-2.6366-1.7021-5.5394-2.5838-8.5234-2.4277zm-1.6758 4.0977c3.0423 0.10106 5.9294 1.2511 8.2949 2.7871 4.381 2.838 6.406 6.9105 6.918 9.4785 0.934 4.358 0.20381 7.2704-3.4922 12.984-2.168 3.357-2.8596 3.1027-4.5996 1.9727l-22.764-14.709c0.294-0.542 0.90225-1.7704 2.0312-3.5234 3.854-5.962 7.3032-8.0238 10.531-8.7168 1.0352-0.224 2.066-0.30713 3.0801-0.27344zm-101.83 0.51367c-4.012 28.718-11.164 46.394-19.963 46.77 0.737-0.03 1.8898-0.0976 2.6348-0.14257 0.941-0.068 2.0766-0.16543 3.0176-0.23243 12.202-1.1 22.704-10.456 30.736-26.318-4.125-6.722-7.8898-11.11-16.426-20.076zm77.859 22.676-9.1602 7.5645 0.61719 0.74609c3.199-2.514 4.2594-2.6573 6.2324-0.2793l12.865 15.574-34.305-3.9746-6.1348 5.0664 0.60938 0.74609c1.401-1.092 2.6807-1.6192 4.0957-1.7402l15.904 19.248c1.483 1.799 1.3791 3.2673-1.0449 5.2773l-0.15821 0.12695 0.61719 0.73828 9.0762-7.498-0.60742-0.73633c-3.335 2.739-4.4435 2.6705-6.7695-0.14453l-13.873-16.779 37.789 4.457 1.0176-0.84179-18.035-21.83c-1.264-1.529-1.0551-2.5506 1.8809-4.9746l-0.61719-0.7461zm-59.041 11.922c-7.769 5.849-16.078 9.4318-25.359 10.885l2.416-0.40625c2.567-0.452 2.4238-0.4974 7.1738-1.5664l2.8301-0.8125c8.702-2.71 10.229-4.0716 12.939-8.0996zm-127.19 3.252-0.29296 1.1602-22.389 14.859c-3.922 2.59-4.7056 2.7091-7.3926 0.78907l-0.57227 0.7832 9.4473 6.9394 0.57227-0.77539-0.6543-0.48047c-2.251-1.648-3.0202-2.8454-2.1992-3.9434 0.414-0.572 1.8449-1.4076 2.7109-1.9726l7.082-4.6836 8.4785 6.2344-2.7402 9.4473c-0.136 0.534-0.3012 1.3538-0.7832 2.0098-0.843 1.145-1.8828 0.75997-4.2168-0.95703l-1.0625-0.7832-0.57031 0.77539 11.246 8.2734 0.56445-0.77539c-2.04-1.506-2.5975-2.5444-1.8145-5.3144l8.1387-28.975-3.5527-2.6113zm-1.1836 4.4258-3.4023 12.166-7.082-5.2031 10.484-6.9629zm20.121 10.133-0.32422 0.91015 1.0469 0.36914c2.778 0.986 3.2903 2.1375 2.2363 5.1035l-7.1445 20.137c-1.145 3.199-2.4094 3.6143-5.2324 2.6133l-0.82032-0.28711-0.32226 0.90234 13.541 4.8047 0.31641-0.9043-1.0918-0.39843c-2.68-0.948-3.5756-2.0685-2.5586-4.9375l2.8691-8.0859c0.746 0.316 1.3544 0.58784 2.4004 0.96484 1.295 0.451 2.0779 0.67574 3.2969 1.0527 0.866 1.174 2.0552 3.1548 3.4102 6.0078l2.0391 4.2754c2.748 5.767 4.2528 8.3477 12.76 10.93l0.30273-0.84961c-3.598-1.551-5.887-4.3586-7.709-8.1836l-2.4316-5.1191c-1.453-3.041-2.4183-4.8933-3.6973-6.9023 4.336 0.233 7.8452-1.9041 9.1172-5.4941 1.731-4.878-0.94778-9.9216-9.8008-13.061-3.109-1.107-4.0892-1.3941-6.0762-1.9961-1.995-0.603-4.976-1.4446-6.127-1.8516zm118.71 2.416-4.0723 1.709 0.85156 0.85156 1.1953 26.836c0.203 4.697-0.0972 5.435-3.1152 6.752l0.36914 0.88086 10.816-4.5176-0.37695-0.88086-0.74609 0.30859c-2.574 1.077-3.9806 1.1136-4.5156-0.15039-0.278-0.654-0.25692-2.31-0.29492-3.334l-0.35352-8.4902 9.6895-4.0508 6.6992 7.2109c0.377 0.384 1.0004 0.95794 1.3164 1.7109 0.55 1.31-0.32328 2.0014-2.9883 3.1074l-1.2188 0.51172 0.37695 0.89648 12.871-5.3828-0.36914-0.88867c-2.341 0.971-3.5211 0.91722-5.4941-1.1758l-20.641-21.904zm-110.3 1.2129c0.896 0.211 1.5206 0.43577 2.4316 0.75977 7.362 2.604 8.1453 6.768 6.5723 11.209-2.04 5.736-6.3237 6.7451-11.639 4.8711-1.091-0.392-1.8287-0.59535-2.9277-1.1524l5.5625-15.688zm109.41 3.7852 8.6797 9.1836-8.0996 3.3887-0.58008-12.572zm-28.26 4.6758-14.762 2.4902 0.16601 0.94922 0.69922-0.11328c3.155-0.534 4.1411 0.43089 4.5781 3.0879l3.748 22.168c0.43 2.552-0.29189 3.44-2.5879 3.832l-1.6562 0.28516 0.1582 0.9414 22.371-3.7715 2.6191-7.957-0.90235 0.14453c-2.409 4.892-3.1182 6.1954-6.0762 6.6914l-7.3613 1.2402c-1.445 0.249-2.0775-0.15772-2.3105-1.5117l-3.91-23.08c-0.527-3.1 0.27144-3.5984 3.5234-4.1484l1.8516-0.30859-0.16602-0.95508zm-55.061 0.25586-0.084 0.95703c3.281 0.384 4.3814 1.181 6.5274 5.291l7.7988 14.822-0.60351 7.1289c-0.211 2.484-1.2206 3.5679-4.3516 3.2969l-0.96289-0.0742-0.084 0.96289 13.904 1.1738 0.082-0.95508-0.6543-0.0605c-3.08-0.263-3.9545-1.3999-3.7285-4.0879l0.64843-7.5801 9.5977-13.49c1.626-2.258 3.2071-3.4999 6.6621-3.4629l0.082-0.95507-11.426-0.98047-0.0762 0.96484c3.237 0.278 4.1176 1.2193 2.2656 3.8613l-8.1641 11.525-7.0312-13.174c-1.317-2.46-0.9852-3.4015 2.9668-3.0625l0.082-0.96484-13.451-1.1367z"/></g></svg>
