<?xml version="1.0" encoding="UTF-8" standalone="no"?>
<!-- Created with Inkscape (http://www.inkscape.org/) -->

<svg
   xmlns:dc="http://purl.org/dc/elements/1.1/"
   xmlns:cc="http://creativecommons.org/ns#"
   xmlns:rdf="http://www.w3.org/1999/02/22-rdf-syntax-ns#"
   xmlns:svg="http://www.w3.org/2000/svg"
   xmlns="http://www.w3.org/2000/svg"
   xmlns:sodipodi="http://sodipodi.sourceforge.net/DTD/sodipodi-0.dtd"
   xmlns:inkscape="http://www.inkscape.org/namespaces/inkscape"
   width="364.83649"
   height="364.83649"
   id="svg7759"
   version="1.1"
   inkscape:version="0.48.4 r9939"
   sodipodi:docname="Logo UC3M.svg">
  <defs
     id="defs7761" />
  <sodipodi:namedview
     id="base"
     pagecolor="#ffffff"
     bordercolor="#666666"
     borderopacity="1.0"
     inkscape:pageopacity="0.0"
     inkscape:pageshadow="2"
     inkscape:zoom="1.979899"
     inkscape:cx="301.19283"
     inkscape:cy="195.32279"
     inkscape:document-units="px"
     inkscape:current-layer="layer1"
     showgrid="false"
     fit-margin-top="0"
     fit-margin-left="0"
     fit-margin-right="0"
     fit-margin-bottom="0"
     inkscape:window-width="1366"
     inkscape:window-height="744"
     inkscape:window-x="0"
     inkscape:window-y="24"
     inkscape:window-maximized="1" />
  <metadata
     id="metadata7764">
    <rdf:RDF>
      <cc:Work
         rdf:about="">
        <dc:format>image/svg+xml</dc:format>
        <dc:type
           rdf:resource="http://purl.org/dc/dcmitype/StillImage" />
        <dc:title />
      </cc:Work>
    </rdf:RDF>
  </metadata>
  <g
     inkscape:label="Capa 1"
     inkscape:groupmode="layer"
     id="layer1"
     transform="translate(-208.5108,-70.913283)">
    <path
       sodipodi:type="arc"
       style="fill:#ffffff;fill-opacity:1"
       id="path4411-5"
       sodipodi:cx="279.9567"
       sodipodi:cy="259.25372"
       sodipodi:rx="165.19183"
       sodipodi:ry="165.19183"
       d="m 445.14853,259.25372 c 0,91.23293 -73.9589,165.19184 -165.19183,165.19184 -91.23293,0 -165.19184,-73.95891 -165.19184,-165.19184 0,-91.23293 73.95891,-165.19183 165.19184,-165.19183 91.23293,0 165.19183,73.9589 165.19183,165.19183 z"
       transform="matrix(1.1042812,0,0,1.1042812,81.778117,-32.957493)" />
    <path
       sodipodi:type="arc"
       style="fill:#000779;fill-opacity:1"
       id="path4411"
       sodipodi:cx="279.9567"
       sodipodi:cy="259.25372"
       sodipodi:rx="165.19183"
       sodipodi:ry="165.19183"
       d="m 445.14853,259.25372 c 0,91.23293 -73.9589,165.19184 -165.19183,165.19184 -91.23293,0 -165.19184,-73.95891 -165.19184,-165.19184 0,-91.23293 73.95891,-165.19183 165.19184,-165.19183 91.23293,0 165.19183,73.9589 165.19183,165.19183 z"
       transform="matrix(1.0745083,0,0,1.0745083,90.113247,-25.238749)" />
    <g
       transform="matrix(-0.96416942,-0.26528726,0.26528726,-0.96416942,0,0)"
       style="font-size:37px;font-style:normal;font-weight:normal;line-height:125%;letter-spacing:0px;word-spacing:0px;fill:#ffffff;fill-opacity:1;stroke:none;font-family:Times New Roman;-inkscape-font-specification:Times New Roman"
       id="text4750">
      <path
         d="m -463.09161,26.505775 0,-0.668457 0.92138,0 c 1.03581,1e-6 1.77051,-0.331216 2.2041,-0.993652 0.26497,-0.397459 0.39746,-1.288734 0.39747,-2.673828 l 0,-15.8261719 c -10e-6,-1.5296007 -0.16863,-2.4871193 -0.50586,-2.8725586 -0.46973,-0.5299244 -1.1683,-0.7948981 -2.09571,-0.7949219 l -0.92138,0 0,-0.668457 9.97265,0 c 3.66145,2.45e-5 6.44367,0.4155514 8.34668,1.246582 1.91502,0.8310771 3.45066,2.2161669 4.60694,4.1552734 1.16827,1.9391448 1.75241,4.179377 1.75244,6.720703 -3e-5,3.408538 -1.03583,6.257005 -3.10742,8.54541 -2.32457,2.553387 -5.86558,3.830078 -10.62305,3.830078 l -10.94824,0 m 6.9917,-1.770507 c 1.52961,0.337241 2.81232,0.50586 3.84814,0.505859 2.79426,1e-6 5.11278,-0.981606 6.95557,-2.944824 1.84275,-1.96321 2.76414,-4.624991 2.76416,-7.985352 -2e-5,-3.384424 -0.92141,-6.0522276 -2.76416,-8.0034177 -1.84279,-1.9511498 -4.20949,-2.9267347 -7.1001,-2.9267578 -1.084,2.31e-5 -2.31853,0.1746648 -3.70361,0.5239257 l 0,20.8305668"
         style=""
         id="path3294" />
    </g>
    <path
       sodipodi:type="arc"
       style="fill:#ffffff;fill-opacity:1;stroke:none"
       id="path4482"
       sodipodi:cx="283.2088"
       sodipodi:cy="253.41595"
       sodipodi:rx="126.64475"
       sodipodi:ry="126.64475"
       d="m 409.85355,253.41595 c 0,69.94397 -56.70078,126.64476 -126.64475,126.64476 -69.94396,0 -126.64475,-56.70079 -126.64475,-126.64476 0,-69.94396 56.70079,-126.64475 126.64475,-126.64475 69.94397,0 126.64475,56.70079 126.64475,126.64475 z"
       transform="matrix(1.0814445,0,0,1.0814446,85.154437,-20.223797)" />
    <path
       style="fill:#000779;fill-opacity:1;stroke:#000e77;stroke-width:1px;stroke-linecap:butt;stroke-linejoin:miter;stroke-opacity:1"
       d="m 311.22834,158.20795 6.5456,6.5456 c 73.07175,-64.847259 135.70759,4.82109 132.37502,59.07796 -3.83875,62.498 -83.62893,108.0766 -134.11389,44.67409 l -8.11468,6.37583 c 27.50359,33.03127 80.52288,33.94192 118.44966,12.98358 20.90275,-11.55087 36.59706,-38.63459 37.04389,-64.0335 0.49632,-28.2116 -13.62996,-58.29578 -37.04389,-73.50479 -18.81433,-12.22124 -70.57594,-27.58387 -115.14171,7.88123 z"
       id="path4413"
       inkscape:connector-curvature="0"
       sodipodi:nodetypes="ccsccsssc" />
    <path
       style="fill:#000779;fill-opacity:1;stroke:#000e77;stroke-width:1px;stroke-linecap:butt;stroke-linejoin:miter;stroke-opacity:1"
       d="m 468.11831,158.20813 -6.5456,6.5456 c -73.07175,-64.84725 -135.70759,4.82109 -132.37502,59.07796 3.83875,62.498 83.62893,108.0766 134.11389,44.67409 l 8.11468,6.37583 c -27.50359,33.03127 -80.52288,33.94192 -118.44966,12.98358 -20.90275,-11.55087 -36.59706,-38.63459 -37.04389,-64.0335 -0.49632,-28.2116 13.62996,-58.29578 37.04389,-73.50479 18.81433,-12.22124 70.57594,-27.58387 115.14171,7.88123 z"
       id="path4413-5"
       inkscape:connector-curvature="0"
       sodipodi:nodetypes="ccsccsssc" />
    <g
       transform="scale(0.80863859,1.2366464)"
       style="font-size:141.67156982px;font-style:normal;font-weight:normal;line-height:125%;letter-spacing:0px;word-spacing:0px;fill:#000779;fill-opacity:1;stroke:none;font-family:Sans"
       id="text4448">
      <path
         d="m 470.08523,248.79089 0,2.5595 -40.191,0 0,-2.5595 3.32042,0 c 3.87382,0 6.68696,-1.12986 8.43942,-3.3896 1.1068,-1.47574 1.6602,-5.02675 1.66022,-10.65304 l 0,-60.5978 c -2e-5,-4.74997 -0.29978,-7.88593 -0.89929,-9.40788 -0.46118,-1.15284 -1.40658,-2.14435 -2.83619,-2.97455 -2.02917,-1.10672 -4.15055,-1.66012 -6.36416,-1.66021 l -3.32042,0 0,-2.5595 40.191,0 0,2.5595 -3.3896,0 c -3.82775,9e-5 -6.61783,1.12996 -8.37024,3.3896 -1.15296,1.47583 -1.72942,5.02684 -1.72939,10.65304 l 0,60.5978 c -3e-5,4.75007 0.29973,7.88602 0.89928,9.40788 0.46114,1.15293 1.42959,2.14445 2.90537,2.97455 1.983,1.10681 4.08132,1.66021 6.29498,1.66021 l 3.3896,0"
         style="font-variant:normal;font-stretch:normal;fill:#000779;font-family:Times New Roman;-inkscape-font-specification:Times New Roman"
         id="path3234" />
    </g>
    <g
       transform="scale(0.80863859,1.2366464)"
       style="font-size:141.67156982px;font-style:normal;font-weight:normal;line-height:125%;letter-spacing:0px;word-spacing:0px;fill:#000779;fill-opacity:1;stroke:none;font-family:Sans"
       id="text4448-3">
      <path
         d="m 503.47464,248.79089 0,2.5595 -40.19101,0 0,-2.5595 3.32043,0 c 3.87382,0 6.68696,-1.12986 8.43942,-3.3896 1.10679,-1.47574 1.66019,-5.02675 1.66021,-10.65304 l 0,-60.5978 c -2e-5,-4.74997 -0.29978,-7.88593 -0.89928,-9.40788 -0.46119,-1.15284 -1.40659,-2.14435 -2.8362,-2.97455 -2.02916,-1.10672 -4.15054,-1.66012 -6.36415,-1.66021 l -3.32043,0 0,-2.5595 40.19101,0 0,2.5595 -3.38961,0 c -3.82775,9e-5 -6.61783,1.12996 -8.37024,3.3896 -1.15296,1.47583 -1.72942,5.02684 -1.72939,10.65304 l 0,60.5978 c -3e-5,4.75007 0.29973,7.88602 0.89928,9.40788 0.46114,1.15293 1.4296,2.14445 2.90538,2.97455 1.98299,1.10681 4.08132,1.66021 6.29497,1.66021 l 3.38961,0"
         style="font-variant:normal;font-stretch:normal;fill:#000779;font-family:Times New Roman;-inkscape-font-specification:Times New Roman"
         id="path3333" />
    </g>
    <g
       transform="scale(0.80863859,1.2366464)"
       style="font-size:141.67156982px;font-style:normal;font-weight:normal;line-height:125%;letter-spacing:0px;word-spacing:0px;fill:#000779;fill-opacity:1;stroke:none;font-family:Sans"
       id="text4448-2">
      <path
         d="m 536.8641,248.79089 0,2.5595 -40.191,0 0,-2.5595 3.32042,0 c 3.87382,0 6.68696,-1.12986 8.43942,-3.3896 1.1068,-1.47574 1.6602,-5.02675 1.66022,-10.65304 l 0,-60.5978 c -2e-5,-4.74997 -0.29978,-7.88593 -0.89929,-9.40788 -0.46118,-1.15284 -1.40658,-2.14435 -2.83619,-2.97455 -2.02917,-1.10672 -4.15055,-1.66012 -6.36416,-1.66021 l -3.32042,0 0,-2.5595 40.191,0 0,2.5595 -3.3896,0 c -3.82775,9e-5 -6.61783,1.12996 -8.37024,3.3896 -1.15296,1.47583 -1.72942,5.02684 -1.72939,10.65304 l 0,60.5978 c -3e-5,4.75007 0.29973,7.88602 0.89928,9.40788 0.46114,1.15293 1.42959,2.14445 2.90537,2.97455 1.983,1.10681 4.08132,1.66021 6.29498,1.66021 l 3.3896,0"
         style="font-variant:normal;font-stretch:normal;fill:#000779;font-family:Times New Roman;-inkscape-font-specification:Times New Roman"
         id="path3330" />
    </g>
    <g
       transform="matrix(0.87198602,0.48953078,-0.48953078,0.87198602,0,0)"
       style="font-size:37px;font-style:normal;font-weight:normal;line-height:125%;letter-spacing:0px;word-spacing:0px;fill:#ffffff;fill-opacity:1;stroke:none;font-family:Times New Roman;-inkscape-font-specification:'Times New Roman,'"
       id="text4639">
      <path
         d="m 448.58948,171.98735 0.56006,8.32861 -0.56006,0 c -0.74677,-2.49314 -1.81269,-4.28774 -3.19776,-5.38379 -1.38511,-1.096 -3.04721,-1.64401 -4.98632,-1.64404 -1.62599,3e-5 -3.09539,0.41555 -4.40821,1.24658 -1.31283,0.81904 -2.34864,2.13186 -3.10742,3.93848 -0.74675,1.80666 -1.12012,4.05291 -1.12012,6.73877 0,2.21616 0.3553,4.13721 1.06592,5.76318 0.71061,1.62598 1.77652,2.87257 3.19776,3.73975 1.43325,0.86719 3.06525,1.30078 4.89599,1.30078 1.58983,0 2.99298,-0.33724 4.20947,-1.01172 1.21646,-0.68652 2.55337,-2.0415 4.01075,-4.06494 l 0.56005,0.36133 c -1.22853,2.18002 -2.6618,3.77588 -4.2998,4.7876 -1.63804,1.01172 -3.58319,1.51757 -5.83545,1.51757 -4.05893,0 -7.20248,-1.50553 -9.43066,-4.5166 -1.66211,-2.24023 -2.49317,-4.87792 -2.49317,-7.91308 0,-2.44498 0.54802,-4.69123 1.64405,-6.73877 1.09602,-2.04751 2.60155,-3.63133 4.5166,-4.75147 1.92707,-1.13213 4.02879,-1.69821 6.30517,-1.69824 1.7705,3e-5 3.51691,0.43362 5.23926,1.30078 0.50584,0.265 0.86717,0.39749 1.08399,0.39746 0.32517,3e-5 0.60821,-0.11439 0.84912,-0.34326 0.31313,-0.32517 0.53594,-0.77683 0.66845,-1.35498 l 0.63233,0"
         style=""
         id="path3252" />
    </g>
    <g
       transform="matrix(0.86643085,-0.49929709,0.49929709,0.86643085,0,0)"
       style="font-size:37px;font-style:normal;font-weight:normal;line-height:125%;letter-spacing:0px;word-spacing:0px;fill:#ffffff;fill-opacity:1;stroke:none;font-family:Times New Roman;-inkscape-font-specification:Times New Roman"
       id="text4643">
      <path
         d="m 215.05084,583.49908 0,0.66846 -10.49658,0 0,-0.66846 0.86719,0 c 1.01171,10e-6 1.74641,-0.29508 2.2041,-0.88525 0.28906,-0.38541 0.43359,-1.31282 0.43359,-2.78223 l 0,-15.82617 c 0,-1.24054 -0.0783,-2.05955 -0.23486,-2.45703 -0.12045,-0.30108 -0.36735,-0.56003 -0.74072,-0.77685 -0.52995,-0.28904 -1.08399,-0.43357 -1.66211,-0.4336 l -0.86719,0 0,-0.66846 10.49658,0 0,0.66846 -0.88525,0 c -0.99969,3e-5 -1.72836,0.29511 -2.18604,0.88526 -0.30111,0.38543 -0.45166,1.31284 -0.45166,2.78222 l 0,15.82617 c 0,1.24057 0.0783,2.05958 0.23487,2.45704 0.12043,0.3011 0.37336,0.56006 0.75879,0.77685 0.51789,0.28906 1.0659,0.4336 1.64404,0.43359 l 0.88525,0"
         style=""
         id="path3324" />
    </g>
    <g
       transform="matrix(0.80654858,-0.59116782,0.59116782,0.80654858,0,0)"
       style="font-size:37px;font-style:normal;font-weight:normal;line-height:125%;letter-spacing:0px;word-spacing:0px;fill:#ffffff;fill-opacity:1;stroke:none;font-family:Times New Roman;-inkscape-font-specification:Times New Roman"
       id="text4643-1">
      <path
         d="m 167.85645,604.31525 0,0.66845 -10.49659,0 0,-0.66845 0.86719,0 c 1.01172,0 1.74642,-0.29509 2.2041,-0.88526 0.28906,-0.38541 0.43359,-1.31282 0.4336,-2.78222 l 0,-15.82618 c -10e-6,-1.24053 -0.0783,-2.05954 -0.23487,-2.45703 -0.12044,-0.30108 -0.36735,-0.56003 -0.74072,-0.77685 -0.52995,-0.28904 -1.08399,-0.43357 -1.66211,-0.4336 l -0.86719,0 0,-0.66845 10.49659,0 0,0.66845 -0.88526,0 c -0.99968,3e-5 -1.72836,0.29511 -2.18603,0.88526 -0.30112,0.38544 -0.45167,1.31284 -0.45166,2.78222 l 0,15.82618 c -10e-6,1.24056 0.0783,2.05957 0.23486,2.45703 0.12043,0.30111 0.37336,0.56006 0.75879,0.77685 0.51789,0.28907 1.06591,0.4336 1.64404,0.4336 l 0.88526,0"
         style=""
         id="path3327" />
    </g>
    <g
       transform="matrix(0.74547515,-0.66653342,0.66653342,0.74547515,0,0)"
       style="font-size:37px;font-style:normal;font-weight:normal;line-height:125%;letter-spacing:0px;word-spacing:0px;fill:#ffffff;fill-opacity:1;stroke:none;font-family:Times New Roman;-inkscape-font-specification:Times New Roman"
       id="text4643-9">
      <path
         d="m 126.11119,618.05347 0,0.66845 -10.49658,0 0,-0.66845 0.86719,0 c 1.01171,0 1.74641,-0.29509 2.2041,-0.88526 0.28906,-0.38541 0.43359,-1.31282 0.43359,-2.78222 l 0,-15.82618 c 0,-1.24053 -0.0783,-2.05954 -0.23486,-2.45703 -0.12045,-0.30108 -0.36736,-0.56003 -0.74072,-0.77685 -0.52996,-0.28904 -1.08399,-0.43357 -1.66211,-0.4336 l -0.86719,0 0,-0.66845 10.49658,0 0,0.66845 -0.88525,0 c -0.99969,3e-5 -1.72836,0.29511 -2.18604,0.88526 -0.30111,0.38544 -0.45167,1.31285 -0.45166,2.78222 l 0,15.82618 c -1e-5,1.24056 0.0783,2.05957 0.23486,2.45703 0.12044,0.30111 0.37337,0.56006 0.75879,0.77685 0.5179,0.28907 1.06591,0.4336 1.64405,0.4336 l 0.88525,0"
         style=""
         id="path3321" />
    </g>
    <g
       style="font-size:100px;font-style:normal;font-weight:normal;line-height:125%;letter-spacing:0px;word-spacing:0px;fill:#ffffff;fill-opacity:1;stroke:none;font-family:Times New Roman;-inkscape-font-specification:Times New Roman"
       id="text4677">
      <path
         d="m 506.57919,354.53766 c 1.43228,4e-5 2.6367,0.50459 3.61328,1.51367 1.0091,0.9766 1.51365,2.18103 1.51368,3.61328 -3e-5,1.39977 -0.50458,2.6042 -1.51368,3.61328 -1.00913,1.00915 -2.21356,1.5137 -3.61328,1.51367 -1.39975,3e-5 -2.60418,-0.50452 -3.61328,-1.51367 -1.00912,-1.00908 -1.51368,-2.21351 -1.51367,-3.61328 -1e-5,-1.43225 0.48827,-2.63668 1.46484,-3.61328 1.0091,-1.00908 2.22981,-1.51363 3.66211,-1.51367"
         style=""
         id="path3318" />
    </g>
    <g
       transform="matrix(0.88523963,0.46513524,-0.46513524,0.88523963,0,0)"
       style="font-size:37px;font-style:normal;font-weight:normal;line-height:125%;letter-spacing:0px;word-spacing:0px;fill:#ffffff;fill-opacity:1;stroke:none;font-family:Times New Roman;-inkscape-font-specification:Times New Roman"
       id="text4681">
      <path
         d="m 469.05634,203.42227 -9.48487,0 -1.66211,3.86621 c -0.40951,0.9515 -0.61426,1.66211 -0.61426,2.13184 0,0.37337 0.17464,0.70459 0.52393,0.99365 0.36132,0.27702 1.13216,0.45768 2.3125,0.54199 l 0,0.66846 -7.71435,0 0,-0.66846 c 1.02376,-0.18066 1.68619,-0.41552 1.9873,-0.70459 0.61425,-0.57812 1.29476,-1.75243 2.0415,-3.52295 l 8.61768,-20.16211 0.63232,0 8.52735,20.37891 c 0.6865,1.63802 1.30678,2.70394 1.86084,3.19775 0.56605,0.48178 1.34893,0.75277 2.34863,0.81299 l 0,0.66846 -9.66553,0 0,-0.66846 c 0.97557,-0.0482 1.63198,-0.21077 1.96924,-0.48779 0.34927,-0.27702 0.52391,-0.61426 0.52393,-1.01172 -2e-5,-0.52994 -0.24091,-1.36702 -0.72266,-2.51123 l -1.48144,-3.52295 m -0.50586,-1.33691 -4.15528,-9.90039 -4.26367,9.90039 8.41895,0"
         style=""
         id="path3249" />
    </g>
    <g
       transform="matrix(0.96947729,0.24518113,-0.24518113,0.96947729,0,0)"
       style="font-size:37px;font-style:normal;font-weight:normal;line-height:125%;letter-spacing:0px;word-spacing:0px;fill:#ffffff;fill-opacity:1;stroke:none;font-family:Times New Roman;-inkscape-font-specification:Times New Roman"
       id="text4685">
      <path
         d="m 449.90735,319.40668 -6.54004,0 -8.29248,-11.4541 c -0.61427,0.0241 -1.11411,0.0361 -1.49951,0.0361 -0.15659,10e-6 -0.32521,10e-6 -0.50586,0 -0.18067,-0.012 -0.36736,-0.0241 -0.56006,-0.0361 l 0,7.11816 c -1e-5,1.54167 0.16861,2.49919 0.50586,2.87256 0.45767,0.52995 1.1442,0.79492 2.05957,0.79492 l 0.95752,0 0,0.66846 -10.49658,0 0,-0.66846 0.92138,0 c 1.03581,0 1.77653,-0.33724 2.22217,-1.01172 0.25293,-0.37337 0.37939,-1.25862 0.3794,-2.65576 l 0,-15.82617 c -10e-6,-1.54165 -0.16863,-2.49917 -0.50586,-2.87256 -0.46973,-0.52993 -1.1683,-0.7949 -2.09571,-0.79492 l -0.92138,0 0,-0.66846 8.9248,0 c 2.60155,2e-5 4.51659,0.19273 5.74512,0.57813 1.24054,0.37339 2.28839,1.07196 3.14355,2.0957 0.86717,1.01174 1.30076,2.22219 1.30078,3.63135 -2e-5,1.50555 -0.49383,2.81235 -1.48144,3.92041 -0.9756,1.10808 -2.49318,1.89096 -4.55274,2.34863 l 5.0586,7.02783 c 1.15623,1.61394 2.14988,2.68588 2.98096,3.21582 0.83103,0.52995 1.91501,0.86719 3.25195,1.01172 l 0,0.66846 M 432.5094,306.81439 c 0.22883,10e-6 0.42756,0.006 0.59619,0.0181 0.16861,10e-6 0.30712,10e-6 0.41553,0 2.33658,10e-6 4.09504,-0.50585 5.27539,-1.51758 1.19237,-1.0117 1.78856,-2.30044 1.78857,-3.86621 -1e-5,-1.5296 -0.48178,-2.77016 -1.44531,-3.72168 -0.95151,-0.96352 -2.21616,-1.44529 -3.79394,-1.44531 -0.69858,2e-5 -1.64406,0.11444 -2.83643,0.34326 l 0,10.18945"
         style=""
         id="path3246" />
    </g>
    <g
       transform="matrix(0.99933705,0.036407,-0.036407,0.99933705,0,0)"
       style="font-size:37px;font-style:normal;font-weight:normal;line-height:125%;letter-spacing:0px;word-spacing:0px;fill:#ffffff;fill-opacity:1;stroke:none;font-family:Times New Roman;-inkscape-font-specification:Times New Roman"
       id="text4689">
      <path
         d="m 400.92905,401.45312 0.59619,0.12647 -2.09571,6.64844 -18.96972,0 0,-0.66846 0.92139,0 c 1.0358,0 1.77652,-0.33724 2.22216,-1.01172 0.25293,-0.38541 0.37939,-1.27669 0.3794,-2.67383 l 0,-15.8081 c -10e-6,-1.5296 -0.16863,-2.48712 -0.50586,-2.87256 -0.46973,-0.52992 -1.1683,-0.7949 -2.0957,-0.79492 l -0.92139,0 0,-0.66846 11.09277,0 0,0.66846 c -1.30079,-0.012 -2.21615,0.10842 -2.74609,0.36133 -0.51791,0.25295 -0.87322,0.57212 -1.06592,0.95752 -0.19272,0.38543 -0.28907,1.30682 -0.28906,2.76416 l 0,15.39257 c -10e-6,0.99968 0.0963,1.6862 0.28906,2.05957 0.14452,0.25294 0.36734,0.43962 0.66846,0.56006 0.30109,0.12045 1.24055,0.18067 2.81836,0.18067 l 1.78857,0 c 1.87889,0 3.19774,-0.13851 3.95654,-0.41553 0.75877,-0.27702 1.45132,-0.76481 2.07764,-1.46338 0.62628,-0.71061 1.25258,-1.8247 1.87891,-3.34229"
         style=""
         id="path3243" />
    </g>
    <g
       transform="matrix(0.99635529,-0.08530025,0.08530025,0.99635529,0,0)"
       style="font-size:37px;font-style:normal;font-weight:normal;line-height:125%;letter-spacing:0px;word-spacing:0px;fill:#ffffff;fill-opacity:1;stroke:none;font-family:Times New Roman;-inkscape-font-specification:Times New Roman"
       id="text4693">
      <path
         d="m 370.51535,430.10132 c 3.17967,2e-5 5.93178,1.21047 8.25635,3.63135 2.33656,2.40887 3.50486,5.41993 3.50488,9.0332 -2e-5,3.72169 -1.17434,6.81104 -3.52295,9.26807 -2.34865,2.45703 -5.1911,3.68554 -8.52734,3.68554 -3.37241,0 -6.20883,-1.1984 -8.50928,-3.59521 -2.28841,-2.39681 -3.43262,-5.4982 -3.43262,-9.3042 0,-3.89028 1.32487,-7.06395 3.97461,-9.521 2.30045,-2.13181 5.05256,-3.19773 8.25635,-3.19775 m -0.34326,1.31885 c -2.19207,2e-5 -3.95053,0.81301 -5.27539,2.43896 -1.65007,2.02346 -2.47511,4.98635 -2.4751,8.88867 -1e-5,3.99871 0.85514,7.07602 2.56543,9.23194 1.31282,1.63802 3.04719,2.45703 5.20313,2.45703 2.30044,0 4.19741,-0.8973 5.69091,-2.6919 1.50552,-1.79459 2.25828,-4.62499 2.2583,-8.49121 -2e-5,-4.19139 -0.82505,-7.31687 -2.47509,-9.37646 -1.32489,-1.638 -3.15562,-2.45701 -5.49219,-2.45703"
         style=""
         id="path3240" />
    </g>
    <g
       transform="matrix(0.97940274,-0.20191652,0.20191652,0.97940274,0,0)"
       style="font-size:37px;font-style:normal;font-weight:normal;line-height:125%;letter-spacing:0px;word-spacing:0px;fill:#ffffff;fill-opacity:1;stroke:none;font-family:Times New Roman;-inkscape-font-specification:Times New Roman"
       id="text4697">
      <path
         d="m 351.29987,470.68265 0,8.47314 -0.66846,0 c -0.21681,-1.62596 -0.60825,-2.92071 -1.17432,-3.88428 -0.55405,-0.96352 -1.34897,-1.72833 -2.38476,-2.29443 -1.03582,-0.56606 -2.10776,-0.8491 -3.21582,-0.84912 -1.25262,2e-5 -2.28842,0.38544 -3.10743,1.15625 -0.81901,0.75881 -1.22852,1.626 -1.22851,2.60156 -1e-5,0.74677 0.25895,1.42727 0.77685,2.04151 0.74674,0.90333 2.52327,2.10776 5.32959,3.61328 2.2884,1.22853 3.84813,2.174 4.6792,2.83642 0.84309,0.6504 1.48745,1.42124 1.93311,2.3125 0.45766,0.89129 0.6865,1.82472 0.68652,2.8003 -2e-5,1.85482 -0.72267,3.45671 -2.16797,4.80566 -1.43328,1.33691 -3.28207,2.00537 -5.54638,2.00537 -0.71063,0 -1.37908,-0.0542 -2.00537,-0.1626 -0.37339,-0.0602 -1.15024,-0.27701 -2.33057,-0.65039 -1.1683,-0.38541 -1.90902,-0.57812 -2.22217,-0.57812 -0.30111,0 -0.54199,0.0903 -0.72265,0.27099 -0.16863,0.18067 -0.29509,0.55404 -0.3794,1.12012 l -0.66846,0 0,-8.40088 0.66846,0 c 0.31315,1.75847 0.7347,3.07732 1.26465,3.95655 0.52994,0.86719 1.33691,1.58984 2.4209,2.16796 1.09602,0.57813 2.29442,0.86719 3.59521,0.86719 1.50552,0 2.69188,-0.39746 3.55908,-1.19238 0.87922,-0.79492 1.31884,-1.73437 1.31885,-2.81836 -10e-6,-0.60221 -0.16863,-1.21044 -0.50586,-1.82471 -0.32521,-0.61425 -0.83709,-1.18635 -1.53564,-1.71631 -0.46974,-0.36132 -1.75245,-1.12613 -3.84815,-2.29443 -2.09571,-1.18033 -3.5892,-2.11978 -4.48047,-2.81836 -0.87923,-0.69855 -1.54769,-1.46938 -2.00537,-2.3125 -0.45768,-0.84308 -0.68652,-1.77049 -0.68652,-2.78223 0,-1.75844 0.67448,-3.26999 2.02344,-4.53466 1.34895,-1.27667 3.06526,-1.91502 5.14892,-1.91504 1.30077,2e-5 2.67984,0.3192 4.13721,0.95752 0.67447,0.30113 1.15021,0.45168 1.42725,0.45166 0.31313,2e-5 0.56606,-0.0903 0.75879,-0.271 0.20473,-0.19268 0.36733,-0.57208 0.48779,-1.13818 l 0.66846,0"
         style=""
         id="path3237" />
    </g>
    <g
       style="font-size:100px;font-style:normal;font-weight:normal;line-height:125%;letter-spacing:0px;word-spacing:0px;fill:#ffffff;fill-opacity:1;stroke:none;font-family:Times New Roman;-inkscape-font-specification:Times New Roman"
       id="text4677-9">
      <path
         d="m 276.04526,354.84598 c 1.43227,4e-5 2.6367,0.50459 3.61328,1.51367 1.00909,0.9766 1.51365,2.18103 1.51367,3.61328 -2e-5,1.39977 -0.50458,2.6042 -1.51367,3.61328 -1.00914,1.00915 -2.21356,1.5137 -3.61328,1.51367 -1.39976,3e-5 -2.60418,-0.50452 -3.61328,-1.51367 -1.00913,-1.00908 -1.51369,-2.21351 -1.51368,-3.61328 -10e-6,-1.43225 0.48827,-2.63668 1.46485,-3.61328 1.0091,-1.00908 2.2298,-1.51363 3.66211,-1.51367"
         style=""
         id="path3255" />
    </g>
    <g
       transform="matrix(0.45006918,-0.89299369,0.89299369,0.45006918,0,0)"
       style="font-size:37px;font-style:normal;font-weight:normal;line-height:125%;letter-spacing:0px;word-spacing:0px;fill:#ffffff;fill-opacity:1;stroke:none;font-family:Times New Roman;-inkscape-font-specification:Times New Roman"
       id="text4722">
      <path
         d="m -68.446854,632.56506 0,-0.66845 0.921387,0 c 1.035805,0 1.770505,-0.33122 2.204102,-0.99366 0.26497,-0.39745 0.397456,-1.28873 0.397461,-2.67382 l 0,-15.82618 c -5e-6,-1.5296 -0.168624,-2.48712 -0.50586,-2.87255 -0.46973,-0.52993 -1.168297,-0.7949 -2.095703,-0.79493 l -0.921387,0 0,-0.66845 9.972657,0 c 3.661444,2e-5 6.443667,0.41555 8.346679,1.24658 1.915018,0.83108 3.450661,2.21617 4.606934,4.15527 1.168269,1.93915 1.752416,4.17938 1.752441,6.72071 -2.5e-5,3.40853 -1.035831,6.257 -3.107422,8.54541 -2.324564,2.55338 -5.865576,3.83007 -10.623046,3.83007 l -10.948243,0 m 6.9917,-1.7705 c 1.529613,0.33724 2.812326,0.50586 3.848144,0.50586 2.794257,0 5.112776,-0.98161 6.955567,-2.94483 1.842753,-1.96321 2.764138,-4.62499 2.76416,-7.98535 -2.2e-5,-3.38443 -0.921407,-6.05223 -2.76416,-8.00342 -1.842791,-1.95115 -4.209487,-2.92673 -7.100098,-2.92676 -1.083995,3e-5 -2.318531,0.17467 -3.703613,0.52393 l 0,20.83057"
         style=""
         id="path3315" />
    </g>
    <g
       transform="matrix(0.2942501,-0.95572845,0.95572845,0.2942501,0,0)"
       style="font-size:37px;font-style:normal;font-weight:normal;line-height:125%;letter-spacing:0px;word-spacing:0px;fill:#ffffff;fill-opacity:1;stroke:none;font-family:Times New Roman;-inkscape-font-specification:Times New Roman"
       id="text4726">
      <path
         d="m -132.4682,593.81329 0,9.6836 5.38379,0 c 1.39712,10e-6 2.33055,-0.21076 2.80029,-0.63233 0.62629,-0.55402 0.97557,-1.5296 1.04785,-2.92675 l 0.66846,0 0,8.52734 -0.66846,0 c -0.16863,-1.19237 -0.33725,-1.95718 -0.50586,-2.29443 -0.21681,-0.42154 -0.57212,-0.75276 -1.06591,-0.99366 -0.49383,-0.24087 -1.25262,-0.36131 -2.27637,-0.36133 l -5.38379,0 0,8.07569 c -1e-5,1.08399 0.0482,1.74642 0.14453,1.9873 0.0964,0.22885 0.26497,0.41553 0.50586,0.56006 0.24088,0.13249 0.69856,0.19873 1.37305,0.19873 l 4.15527,0 c 1.38508,0 2.39077,-0.0964 3.01709,-0.28906 0.62628,-0.19271 1.2285,-0.5721 1.80664,-1.13818 0.74673,-0.74675 1.51154,-1.87288 2.29443,-3.37842 l 0.72266,0 -2.11377,6.14258 -18.87939,0 0,-0.66846 0.86718,0 c 0.57813,0 1.12614,-0.13851 1.64405,-0.41553 0.38541,-0.19271 0.64436,-0.48177 0.77685,-0.86719 0.14453,-0.38541 0.2168,-1.17431 0.2168,-2.36669 l 0,-15.91651 c 0,-1.55369 -0.15658,-2.51121 -0.46973,-2.87256 -0.43359,-0.48174 -1.15625,-0.72263 -2.16797,-0.72265 l -0.86718,0 0,-0.66846 18.87939,0 0.271,5.36572 -0.70459,0 c -0.25295,-1.28871 -0.53599,-2.17397 -0.84912,-2.65576 -0.30113,-0.48175 -0.75279,-0.8491 -1.35498,-1.10205 -0.48179,-0.18064 -1.33091,-0.27097 -2.54737,-0.271 l -6.7207,0"
         style=""
         id="path3312" />
    </g>
    <g
       transform="matrix(-0.16355181,-0.98653475,0.98653475,-0.16355181,0,0)"
       style="font-size:37px;font-style:normal;font-weight:normal;line-height:125%;letter-spacing:0px;word-spacing:0px;fill:#ffffff;fill-opacity:1;stroke:none;font-family:Times New Roman;-inkscape-font-specification:Times New Roman"
       id="text4730">
      <path
         d="m -315.3627,512.1474 -9.4668,-20.61377 0,16.36816 c 0,1.50554 0.16259,2.44499 0.48779,2.81836 0.44564,0.50586 1.15023,0.75879 2.11377,0.75879 l 0.86719,0 0,0.66846 -8.52734,0 0,-0.66846 0.86719,0 c 1.0358,0 1.7705,-0.31315 2.2041,-0.93945 0.26497,-0.38541 0.39745,-1.26465 0.39746,-2.6377 l 0,-16.00683 c -1e-5,-1.08396 -0.12045,-1.86684 -0.36133,-2.34863 -0.16862,-0.34927 -0.48177,-0.63833 -0.93945,-0.86719 -0.44564,-0.24086 -1.1683,-0.36131 -2.16797,-0.36133 l 0,-0.66846 6.9375,0 8.88867,19.16846 8.74414,-19.16846 6.9375,0 0,0.66846 -0.84912,0 c -1.04788,2e-5 -1.7886,0.31317 -2.22217,0.93945 -0.265,0.38544 -0.39749,1.26467 -0.39746,2.6377 l 0,16.00683 c -3e-5,1.50554 0.16859,2.44499 0.50586,2.81836 0.44561,0.50586 1.1502,0.75879 2.11377,0.75879 l 0.84912,0 0,0.66846 -10.40625,0 0,-0.66846 0.86719,0 c 1.04783,0 1.78253,-0.31315 2.2041,-0.93945 0.26495,-0.38541 0.39744,-1.26465 0.39746,-2.6377 l 0,-16.36816 -9.44873,20.61377 -0.59619,0"
         style=""
         id="path3309" />
    </g>
    <g
       transform="matrix(-0.40440555,-0.91457977,0.91457977,-0.40440555,0,0)"
       style="font-size:37px;font-style:normal;font-weight:normal;line-height:125%;letter-spacing:0px;word-spacing:0px;fill:#ffffff;fill-opacity:1;stroke:none;font-family:Times New Roman;-inkscape-font-specification:Times New Roman"
       id="text4734">
      <path
         d="m -384.74133,414.5033 -9.48487,0 -1.66211,3.86621 c -0.40951,0.9515 -0.61426,1.66211 -0.61425,2.13183 -10e-6,0.37338 0.17463,0.70459 0.52392,0.99366 0.36132,0.27701 1.13216,0.45768 2.3125,0.54199 l 0,0.66845 -7.71435,0 0,-0.66845 c 1.02376,-0.18067 1.68619,-0.41553 1.9873,-0.70459 0.61426,-0.57813 1.29476,-1.75244 2.04151,-3.52295 l 8.61767,-20.16211 0.63233,0 8.52734,20.37891 c 0.6865,1.63802 1.30678,2.70394 1.86084,3.19775 0.56606,0.48177 1.34893,0.75277 2.34863,0.81299 l 0,0.66845 -9.66553,0 0,-0.66845 c 0.97557,-0.0482 1.63198,-0.21078 1.96924,-0.4878 0.34927,-0.27701 0.52391,-0.61425 0.52393,-1.01171 -2e-5,-0.52995 -0.24091,-1.36703 -0.72266,-2.51123 l -1.48144,-3.52295 m -0.50586,-1.33692 -4.15528,-9.90039 -4.26367,9.90039 8.41895,0"
         style=""
         id="path3306" />
    </g>
    <g
       transform="matrix(-0.61459122,-0.78884576,0.78884576,-0.61459122,0,0)"
       style="font-size:37px;font-style:normal;font-weight:normal;line-height:125%;letter-spacing:0px;word-spacing:0px;fill:#ffffff;fill-opacity:1;stroke:none;font-family:Times New Roman;-inkscape-font-specification:Times New Roman"
       id="text4738">
      <path
         d="m -453.00558,320.75781 0,-0.66845 0.92138,0 c 1.03581,0 1.77051,-0.33122 2.2041,-0.99366 0.26497,-0.39746 0.39746,-1.28873 0.39746,-2.67383 l 0,-15.82617 c 0,-1.5296 -0.16862,-2.48712 -0.50585,-2.87256 -0.46973,-0.52992 -1.1683,-0.79489 -2.09571,-0.79492 l -0.92138,0 0,-0.66845 9.97265,0 c 3.66145,2e-5 6.44367,0.41555 8.34668,1.24658 1.91502,0.83107 3.45066,2.21616 4.60693,4.15527 1.16827,1.93915 1.75242,4.17938 1.75245,6.7207 -3e-5,3.40854 -1.03584,6.25701 -3.10743,8.54541 -2.32456,2.55339 -5.86557,3.83008 -10.62304,3.83008 l -10.94824,0 m 6.99169,-1.77051 c 1.52962,0.33725 2.81233,0.50587 3.84815,0.50586 2.79426,1e-5 5.11278,-0.9816 6.95557,-2.94482 1.84275,-1.96321 2.76413,-4.62499 2.76416,-7.98535 -3e-5,-3.38443 -0.92141,-6.05223 -2.76416,-8.00342 -1.84279,-1.95115 -4.20949,-2.92673 -7.1001,-2.92676 -1.084,3e-5 -2.31853,0.17467 -3.70362,0.52393 l 0,20.83056"
         style=""
         id="path3303" />
    </g>
    <g
       transform="matrix(-0.88620849,-0.46328663,0.46328663,-0.88620849,0,0)"
       style="font-size:37px;font-style:normal;font-weight:normal;line-height:125%;letter-spacing:0px;word-spacing:0px;fill:#ffffff;fill-opacity:1;stroke:none;font-family:Times New Roman;-inkscape-font-specification:Times New Roman"
       id="text4746">
      <path
         d="m -460.93161,122.98769 0,0.66846 -10.49658,0 0,-0.66846 0.86719,0 c 1.01171,0 1.74641,-0.29508 2.2041,-0.88525 0.28906,-0.38541 0.43359,-1.31282 0.43359,-2.78223 l 0,-15.82617 c 0,-1.24054 -0.0783,-2.05955 -0.23486,-2.45703 -0.12045,-0.30108 -0.36736,-0.56004 -0.74073,-0.77686 -0.52995,-0.289034 -1.08398,-0.433565 -1.6621,-0.433589 l -0.86719,0 0,-0.668457 10.49658,0 0,0.668457 -0.88525,0 c -0.99969,2.4e-5 -1.72837,0.295109 -2.18604,0.885249 -0.30111,0.38544 -0.45167,1.31285 -0.45166,2.78223 l 0,15.82617 c -10e-6,1.24057 0.0783,2.05958 0.23486,2.45703 0.12044,0.30111 0.37337,0.56006 0.75879,0.77686 0.5179,0.28906 1.06591,0.43359 1.64405,0.43359 l 0.88525,0"
         style=""
         id="path3297" />
    </g>
    <g
       transform="matrix(-0.77888816,-0.62716284,0.62716284,-0.77888816,0,0)"
       style="font-size:37px;font-style:normal;font-weight:normal;line-height:125%;letter-spacing:0px;word-spacing:0px;fill:#ffffff;fill-opacity:1;stroke:none;font-family:Times New Roman;-inkscape-font-specification:Times New Roman"
       id="text4742">
      <path
         d="m -451.43506,215.43367 -6.54004,0 -8.29248,-11.4541 c -0.61427,0.0241 -1.1141,0.0361 -1.49951,0.0361 -0.15658,1e-5 -0.3252,1e-5 -0.50586,0 -0.18067,-0.012 -0.36736,-0.0241 -0.56006,-0.0361 l 0,7.11816 c -10e-6,1.54167 0.16861,2.49919 0.50586,2.87256 0.45768,0.52995 1.1442,0.79492 2.05957,0.79492 l 0.95752,0 0,0.66846 -10.49658,0 0,-0.66846 0.92139,0 c 1.0358,0 1.77652,-0.33724 2.22216,-1.01172 0.25293,-0.37337 0.37939,-1.25862 0.3794,-2.65576 l 0,-15.82617 c -1e-5,-1.54164 -0.16863,-2.49916 -0.50586,-2.87256 -0.46973,-0.52992 -1.1683,-0.7949 -2.0957,-0.79492 l -0.92139,0 0,-0.66846 8.9248,0 c 2.60155,3e-5 4.51659,0.19274 5.74512,0.57813 1.24054,0.37339 2.2884,1.07196 3.14356,2.0957 0.86716,1.01174 1.30076,2.22219 1.30078,3.63135 -2e-5,1.50555 -0.49384,2.81235 -1.48145,3.92041 -0.9756,1.10809 -2.49318,1.89096 -4.55273,2.34863 l 5.05859,7.02783 c 1.15623,1.61394 2.14988,2.68588 2.98096,3.21582 0.83103,0.52995 1.91501,0.86719 3.25195,1.01172 l 0,0.66846 m -17.39795,-12.59229 c 0.22884,2e-5 0.42757,0.006 0.59619,0.0181 0.16862,1e-5 0.30712,1e-5 0.41553,0 2.33658,1e-5 4.09504,-0.50585 5.27539,-1.51758 1.19237,-1.0117 1.78856,-2.30044 1.78858,-3.86621 -2e-5,-1.5296 -0.48179,-2.77016 -1.44532,-3.72168 -0.95151,-0.96352 -2.21615,-1.44529 -3.79394,-1.44531 -0.69858,2e-5 -1.64405,0.11444 -2.83643,0.34326 l 0,10.18945"
         style=""
         id="path3300" />
    </g>
    <g
       transform="matrix(0.99990213,-0.01399051,0.01399051,0.99990213,0,0)"
       style="font-size:37px;font-style:normal;font-weight:normal;line-height:125%;letter-spacing:0px;word-spacing:0px;fill:#ffffff;fill-opacity:1;stroke:none;font-family:Times New Roman;-inkscape-font-specification:Times New Roman"
       id="text4754">
      <path
         d="m 387.13269,91.105179 c 0.55403,1.7e-5 1.02376,0.198747 1.40918,0.596191 0.39745,0.385433 0.59618,0.855159 0.59619,1.40918 -10e-6,0.554051 -0.19874,1.029799 -0.59619,1.427246 -0.38542,0.38543 -0.85515,0.578138 -1.40918,0.578125 -0.55404,1.3e-5 -1.02979,-0.192695 -1.42725,-0.578125 -0.38542,-0.397447 -0.57812,-0.873195 -0.57812,-1.427246 0,-0.554021 0.1927,-1.023747 0.57812,-1.40918 0.39746,-0.397444 0.87321,-0.596174 1.42725,-0.596191 m -0.0361,13.531741 c 0.56607,0 1.04182,0.19873 1.42724,0.59619 0.39746,0.39746 0.59619,0.87321 0.5962,1.42724 -1e-5,0.55404 -0.19874,1.02979 -0.5962,1.42725 -0.39746,0.38542 -0.87321,0.57813 -1.42724,0.57813 -0.55404,0 -1.02979,-0.19271 -1.42725,-0.57813 -0.38542,-0.39746 -0.57813,-0.87321 -0.57812,-1.42725 -10e-6,-0.55403 0.1927,-1.02978 0.57812,-1.42724 0.39746,-0.39746 0.87321,-0.59619 1.42725,-0.59619"
         style=""
         id="path3291" />
    </g>
    <g
       transform="matrix(-0.95824401,0.28595176,-0.28595176,-0.95824401,0,0)"
       style="font-size:37px;font-style:normal;font-weight:normal;line-height:125%;letter-spacing:0px;word-spacing:0px;fill:#ffffff;fill-opacity:1;stroke:none;font-family:Times New Roman;-inkscape-font-specification:Times New Roman"
       id="text4758">
      <path
         d="m -298.52155,-211.20654 0,-0.66846 8.67188,0 0,0.66846 -0.92139,0 c -0.96356,2e-5 -1.70429,0.4035 -2.22217,1.21045 -0.25295,0.37339 -0.37941,1.24058 -0.37939,2.60156 l 0,9.93652 c -2e-5,2.45704 -0.24693,4.36606 -0.74072,5.72705 -0.48179,1.34896 -1.43931,2.51124 -2.87256,3.48682 -1.42124,0.96354 -3.36037,1.44531 -5.81738,1.44531 -2.67384,0 -4.7033,-0.4637 -6.08838,-1.39111 -1.3851,-0.92741 -2.36671,-2.17399 -2.94483,-3.73975 -0.38542,-1.07193 -0.57813,-3.08332 -0.57812,-6.03418 l 0,-9.57519 c -1e-5,-1.50551 -0.21078,-2.49314 -0.63233,-2.96289 -0.4095,-0.46971 -1.07796,-0.70457 -2.00537,-0.70459 l -0.92138,0 0,-0.66846 10.58691,0 0,0.66846 -0.93945,0 c -1.01173,2e-5 -1.73439,0.31919 -2.16797,0.95752 -0.30112,0.43361 -0.45167,1.33693 -0.45166,2.70996 l 0,10.67724 c -1e-5,0.95151 0.0843,2.04151 0.25293,3.27002 0.18065,1.22852 0.49983,2.18604 0.95752,2.87256 0.45767,0.68653 1.11408,1.25261 1.96924,1.69824 0.86717,0.44564 1.92707,0.66846 3.17968,0.66846 1.60188,0 3.03514,-0.34928 4.29981,-1.04785 1.26463,-0.69857 2.12579,-1.58984 2.58349,-2.67383 0.46971,-1.09602 0.70457,-2.94482 0.70459,-5.54639 l 0,-9.91845 c -2e-5,-1.5296 -0.16864,-2.48712 -0.50586,-2.87256 -0.46974,-0.52993 -1.16831,-0.7949 -2.0957,-0.79492 l -0.92139,0"
         style=""
         id="path3288" />
    </g>
    <g
       transform="matrix(-0.88187399,0.47148516,-0.47148516,-0.88187399,0,0)"
       style="font-size:37px;font-style:normal;font-weight:normal;line-height:125%;letter-spacing:0px;word-spacing:0px;fill:#ffffff;fill-opacity:1;stroke:none;font-family:Times New Roman;-inkscape-font-specification:Times New Roman"
       id="text4762">
      <path
         d="m -239.00748,-265.17648 6.64844,0 14.97705,18.37353 0,-14.12793 c -2e-5,-1.50551 -0.16864,-2.44496 -0.50586,-2.81836 -0.44566,-0.50583 -1.15025,-0.75876 -2.11377,-0.75879 l -0.84912,0 0,-0.66845 8.52735,0 0,0.66845 -0.86719,0 c -1.03583,3e-5 -1.77053,0.31318 -2.2041,0.93946 -0.265,0.38544 -0.39749,1.26467 -0.39746,2.63769 l 0,20.6499 -0.6504,0 -16.15136,-19.72851 0,15.08545 c -1e-5,1.50553 0.16259,2.44499 0.48779,2.81836 0.45768,0.50586 1.16226,0.75879 2.11377,0.75879 l 0.86719,0 0,0.66845 -8.52735,0 0,-0.66845 0.84912,0 c 1.04785,0 1.78858,-0.31315 2.22217,-0.93946 0.26497,-0.38541 0.39746,-1.26464 0.39746,-2.63769 l 0,-17.03662 c -0.71061,-0.83104 -1.2526,-1.37905 -1.62597,-1.64405 -0.36133,-0.26495 -0.8973,-0.51185 -1.60791,-0.74072 -0.34929,-0.10837 -0.87924,-0.16257 -1.58985,-0.1626 l 0,-0.66845"
         style=""
         id="path3285" />
    </g>
    <g
       transform="matrix(-0.811775,0.58397033,-0.58397033,-0.811775,0,0)"
       style="font-size:37px;font-style:normal;font-weight:normal;line-height:125%;letter-spacing:0px;word-spacing:0px;fill:#ffffff;fill-opacity:1;stroke:none;font-family:Times New Roman;-inkscape-font-specification:Times New Roman"
       id="text4766">
      <path
         d="m -159.91838,-266.89804 0,0.66846 -10.49658,0 0,-0.66846 0.86718,0 c 1.01172,0 1.74642,-0.29508 2.20411,-0.88525 0.28905,-0.38542 0.43359,-1.31283 0.43359,-2.78223 l 0,-15.82617 c 0,-1.24054 -0.0783,-2.05955 -0.23486,-2.45703 -0.12045,-0.30109 -0.36736,-0.56004 -0.74073,-0.77686 -0.52995,-0.28904 -1.08398,-0.43357 -1.66211,-0.43359 l -0.86718,0 0,-0.66846 10.49658,0 0,0.66846 -0.88525,0 c -0.99969,2e-5 -1.72837,0.2951 -2.18604,0.88525 -0.30111,0.38544 -0.45167,1.31285 -0.45166,2.78223 l 0,15.82617 c -1e-5,1.24056 0.0783,2.05957 0.23486,2.45703 0.12044,0.30111 0.37337,0.56006 0.75879,0.77686 0.5179,0.28906 1.06591,0.43359 1.64405,0.43359 l 0.88525,0"
         style=""
         id="path3279" />
    </g>
    <g
       transform="matrix(-0.67389336,0.73882863,-0.73882863,-0.67389336,0,0)"
       style="font-size:37px;font-style:normal;font-weight:normal;line-height:125%;letter-spacing:0px;word-spacing:0px;fill:#ffffff;fill-opacity:1;stroke:none;font-family:Times New Roman;-inkscape-font-specification:Times New Roman"
       id="text4770">
      <path
         d="m -66.456596,-316.00879 0,0.66846 c -0.867213,0.1566 -1.523625,0.43362 -1.969239,0.83105 -0.63837,0.59019 -1.20445,1.49351 -1.698242,2.70996 l -8.54541,20.84864 -0.668457,0 -9.177734,-21.11963 c -0.469731,-1.08397 -0.800948,-1.7464 -0.993653,-1.98731 -0.301109,-0.37335 -0.674481,-0.66241 -1.120117,-0.86718 -0.433595,-0.21678 -1.023764,-0.35529 -1.770508,-0.41553 l 0,-0.66846 10.008789,0 0,0.66846 c -1.13217,0.10842 -1.86687,0.30113 -2.204101,0.57812 -0.337248,0.27704 -0.505867,0.63235 -0.50586,1.06592 -7e-6,0.60224 0.277011,1.54169 0.831055,2.81836 l 6.23291,14.36279 5.78125,-14.18213 c 0.56606,-1.39711 0.8491,-2.36667 0.849121,-2.90869 -2.1e-5,-0.34926 -0.174663,-0.68048 -0.523925,-0.99365 -0.349305,-0.32517 -0.939473,-0.55401 -1.770508,-0.68652 -0.06024,-0.012 -0.162617,-0.0301 -0.307129,-0.0542 l 0,-0.66846 7.551758,0"
         style=""
         id="path3282" />
    </g>
    <g
       transform="matrix(-0.56076889,0.82797238,-0.82797238,-0.56076889,0,0)"
       style="font-size:37px;font-style:normal;font-weight:normal;line-height:125%;letter-spacing:0px;word-spacing:0px;fill:#ffffff;fill-opacity:1;stroke:none;font-family:Times New Roman;-inkscape-font-specification:Times New Roman"
       id="text4774">
      <path
         d="m -9.0039673,-320.93582 0,9.68359 5.3837891,0 c 1.3971209,2e-5 2.3305509,-0.21076 2.80029295,-0.63232 0.62628554,-0.55402 0.97556904,-1.52961 1.04785156,-2.92676 l 0.66845703,0 0,8.52734 -0.66845703,0 c -0.16863659,-1.19237 -0.33725621,-1.95718 -0.50585938,-2.29443 -0.21681311,-0.42154 -0.57211875,-0.75276 -1.06591793,-0.99365 -0.49383,-0.24088 -1.2526183,-0.36132 -2.2763672,-0.36133 l -5.3837891,0 0,8.07568 c -7.7e-6,1.08399 0.048169,1.74643 0.1445313,1.98731 0.096346,0.22884 0.2649658,0.41553 0.5058593,0.56006 0.2408768,0.13249 0.6985587,0.19873 1.3730469,0.19873 l 4.1552735,0 c 1.3850758,0 2.39077141,-0.0964 3.0170898,-0.28907 0.62628452,-0.1927 1.2284975,-0.5721 1.8066406,-1.13818 0.7467253,-0.74674 1.5115358,-1.87288 2.2944336,-3.37842 l 0.7226563,0 -2.1137696,6.14258 -18.8793944,0 0,-0.66846 0.867187,0 c 0.578123,0 1.126137,-0.1385 1.644043,-0.41552 0.385413,-0.19271 0.644365,-0.48177 0.776856,-0.86719 0.144527,-0.38541 0.216792,-1.17431 0.216797,-2.3667 l 0,-15.9165 c -5e-6,-1.55369 -0.15658,-2.51121 -0.469727,-2.87256 -0.433597,-0.48175 -1.156252,-0.72263 -2.167969,-0.72266 l -0.867187,0 0,-0.66846 18.8793944,0 0.2709961,5.36573 -0.7045898,0 c -0.2529487,-1.28872 -0.5359887,-2.17397 -0.8491211,-2.65576 -0.3011248,-0.48175 -0.75278454,-0.8491 -1.35498048,-1.10206 -0.48178735,-0.18064 -1.33090762,-0.27097 -2.54736332,-0.27099 l -6.7207031,0"
         style=""
         id="path3276" />
    </g>
    <g
       transform="matrix(-0.360206,0.93287279,-0.93287279,-0.360206,0,0)"
       style="font-size:37px;font-style:normal;font-weight:normal;line-height:125%;letter-spacing:0px;word-spacing:0px;fill:#ffffff;fill-opacity:1;stroke:none;font-family:Times New Roman;-inkscape-font-specification:Times New Roman"
       id="text4778">
      <path
         d="m 106.57353,-288.17383 -6.54004,0 -8.292477,-11.4541 c -0.614268,0.0241 -1.114105,0.0361 -1.499512,0.0361 -0.156584,10e-6 -0.325204,10e-6 -0.50586,0 -0.180672,-0.012 -0.367358,-0.0241 -0.560058,-0.0361 l 0,7.11816 c -8e-6,1.54167 0.168612,2.49919 0.505859,2.87256 0.457674,0.52995 1.144197,0.79493 2.059571,0.79492 l 0.957519,0 0,0.66846 -10.496582,0 0,-0.66846 0.921387,0 c 1.035804,10e-6 1.776526,-0.33723 2.222168,-1.01171 0.252925,-0.37337 0.37939,-1.25863 0.379394,-2.65577 l 0,-15.82617 c -4e-6,-1.54164 -0.168623,-2.49916 -0.505859,-2.87256 -0.46973,-0.52992 -1.168297,-0.79489 -2.095703,-0.79492 l -0.921387,0 0,-0.66845 8.924805,0 c 2.60155,2e-5 4.516587,0.19273 5.745117,0.57812 1.240543,0.3734 2.288394,1.07196 3.143558,2.0957 0.86716,1.01174 1.30076,2.22219 1.30078,3.63135 -2e-5,1.50555 -0.49384,2.81235 -1.481447,3.92041 -0.975604,1.10809 -2.49318,1.89096 -4.552735,2.34863 l 5.058592,7.02784 c 1.15623,1.61393 2.14988,2.68587 2.98096,3.21582 0.83103,0.52995 1.91501,0.86718 3.25195,1.01171 l 0,0.66846 m -17.397947,-12.59228 c 0.228833,1e-5 0.427563,0.006 0.596191,0.0181 0.168612,2e-5 0.307121,2e-5 0.415528,0 2.336577,2e-5 4.095039,-0.50584 5.27539,-1.51757 1.192368,-1.01171 1.788559,-2.30044 1.788574,-3.86622 -1.5e-5,-1.5296 -0.481786,-2.77016 -1.445312,-3.72168 -0.951511,-0.96351 -2.216158,-1.44529 -3.793945,-1.44531 -0.698578,2e-5 -1.644052,0.11445 -2.836426,0.34326 l 0,10.18946"
         style=""
         id="path3273" />
    </g>
    <g
       transform="matrix(-0.25884888,0.96591783,-0.96591783,-0.25884888,0,0)"
       style="font-size:37px;font-style:normal;font-weight:normal;line-height:125%;letter-spacing:0px;word-spacing:0px;fill:#ffffff;fill-opacity:1;stroke:none;font-family:Times New Roman;-inkscape-font-specification:Times New Roman"
       id="text4782">
      <path
         d="m 159.16829,-299.91342 0,8.47314 -0.66846,0 c -0.21681,-1.62596 -0.60825,-2.92071 -1.17431,-3.88427 -0.55406,-0.96352 -1.34898,-1.72834 -2.38477,-2.29444 -1.03582,-0.56606 -2.10776,-0.8491 -3.21582,-0.84912 -1.25261,2e-5 -2.28842,0.38544 -3.10742,1.15625 -0.81902,0.75881 -1.22852,1.626 -1.22852,2.60156 0,0.74677 0.25895,1.42727 0.77686,2.04151 0.74674,0.90333 2.52326,2.10776 5.32959,3.61328 2.2884,1.22853 3.84813,2.174 4.6792,2.83642 0.84308,0.65041 1.48745,1.42124 1.9331,2.3125 0.45767,0.89129 0.68651,1.82472 0.68653,2.8003 -2e-5,1.85482 -0.72268,3.45671 -2.16797,4.80566 -1.43329,1.33692 -3.28208,2.00537 -5.54639,2.00537 -0.71062,0 -1.37908,-0.0542 -2.00537,-0.1626 -0.37338,-0.0602 -1.15024,-0.27701 -2.33057,-0.65039 -1.1683,-0.38541 -1.90902,-0.57812 -2.22217,-0.57812 -0.30111,0 -0.54199,0.0903 -0.72265,0.271 -0.16862,0.18066 -0.29509,0.55403 -0.3794,1.12011 l -0.66845,0 0,-8.40088 0.66845,0 c 0.31315,1.75847 0.7347,3.07732 1.26465,3.95655 0.52995,0.86719 1.33691,1.58984 2.4209,2.16797 1.09602,0.57812 2.29443,0.86718 3.59522,0.86718 1.50552,0 2.69188,-0.39746 3.55908,-1.19238 0.87921,-0.79492 1.31883,-1.73437 1.31885,-2.81836 -2e-5,-0.60221 -0.16864,-1.21044 -0.50586,-1.82471 -0.32521,-0.61425 -0.83709,-1.18635 -1.53565,-1.71631 -0.46974,-0.36131 -1.75245,-1.12612 -3.84814,-2.29443 -2.09571,-1.18033 -3.5892,-2.11978 -4.48047,-2.81836 -0.87924,-0.69855 -1.54769,-1.46938 -2.00537,-2.3125 -0.45769,-0.84308 -0.68653,-1.77049 -0.68653,-2.78222 0,-1.75845 0.67448,-3.27 2.02344,-4.53467 1.34895,-1.27667 3.06526,-1.91502 5.14893,-1.91504 1.30077,2e-5 2.67984,0.3192 4.1372,0.95752 0.67447,0.30113 1.15022,0.45168 1.42725,0.45166 0.31314,2e-5 0.56607,-0.0903 0.75879,-0.271 0.20474,-0.19268 0.36733,-0.57208 0.48779,-1.13818 l 0.66846,0"
         style=""
         id="path3270" />
    </g>
    <g
       transform="matrix(-0.06179769,0.9980887,-0.9980887,-0.06179769,0,0)"
       style="font-size:37px;font-style:normal;font-weight:normal;line-height:125%;letter-spacing:0px;word-spacing:0px;fill:#ffffff;fill-opacity:1;stroke:none;font-family:Times New Roman;-inkscape-font-specification:Times New Roman"
       id="text4786">
      <path
         d="m 233.47787,-237.97232 0,0.66846 -10.49658,0 0,-0.66846 0.86719,0 c 1.01172,0 1.74642,-0.29508 2.2041,-0.88525 0.28906,-0.38542 0.43359,-1.31283 0.4336,-2.78223 l 0,-15.82617 c -1e-5,-1.24054 -0.0783,-2.05955 -0.23487,-2.45703 -0.12044,-0.30109 -0.36735,-0.56004 -0.74072,-0.77686 -0.52995,-0.28904 -1.08399,-0.43357 -1.66211,-0.43359 l -0.86719,0 0,-0.66846 10.49658,0 0,0.66846 -0.88525,0 c -0.99968,2e-5 -1.72836,0.2951 -2.18603,0.88525 -0.30112,0.38544 -0.45167,1.31285 -0.45166,2.78223 l 0,15.82617 c -1e-5,1.24056 0.0783,2.05957 0.23486,2.45703 0.12043,0.30111 0.37336,0.56006 0.75879,0.77686 0.51789,0.28906 1.06591,0.43359 1.64404,0.43359 l 0.88525,0"
         style=""
         id="path3267" />
    </g>
    <g
       transform="matrix(0.02280315,0.99973997,-0.99973997,0.02280315,0,0)"
       style="font-size:37px;font-style:normal;font-weight:normal;line-height:125%;letter-spacing:0px;word-spacing:0px;fill:#ffffff;fill-opacity:1;stroke:none;font-family:Times New Roman;-inkscape-font-specification:Times New Roman"
       id="text4790">
      <path
         d="m 259.92542,-216.42036 0,-0.66846 0.92138,0 c 1.03581,0 1.77051,-0.33122 2.2041,-0.99365 0.26497,-0.39746 0.39746,-1.28874 0.39746,-2.67383 l 0,-15.82617 c 0,-1.5296 -0.16862,-2.48712 -0.50586,-2.87256 -0.46972,-0.52993 -1.16829,-0.7949 -2.0957,-0.79492 l -0.92138,0 0,-0.66846 9.97265,0 c 3.66145,2e-5 6.44367,0.41555 8.34668,1.24658 1.91502,0.83108 3.45066,2.21617 4.60693,4.15527 1.16827,1.93915 1.75242,4.17938 1.75245,6.72071 -3e-5,3.40853 -1.03584,6.257 -3.10743,8.54541 -2.32456,2.55338 -5.86557,3.83008 -10.62304,3.83008 l -10.94824,0 m 6.99169,-1.77051 c 1.52962,0.33724 2.81233,0.50586 3.84815,0.50586 2.79426,0 5.11278,-0.98161 6.95557,-2.94483 1.84275,-1.96321 2.76413,-4.62499 2.76416,-7.98535 -3e-5,-3.38442 -0.92141,-6.05223 -2.76416,-8.00342 -1.84279,-1.95115 -4.20949,-2.92673 -7.1001,-2.92675 -1.084,2e-5 -2.31853,0.17466 -3.70362,0.52392 l 0,20.83057"
         style=""
         id="path3264" />
    </g>
    <g
       transform="matrix(0.27617175,0.9611083,-0.9611083,0.27617175,0,0)"
       style="font-size:37px;font-style:normal;font-weight:normal;line-height:125%;letter-spacing:0px;word-spacing:0px;fill:#ffffff;fill-opacity:1;stroke:none;font-family:Times New Roman;-inkscape-font-specification:Times New Roman"
       id="text4794">
      <path
         d="m 357.85571,-145.18036 -9.48486,0 -1.66211,3.86621 c -0.40951,0.9515 -0.61426,1.66211 -0.61426,2.13184 0,0.37337 0.17464,0.70459 0.52393,0.99365 0.36132,0.27702 1.13215,0.45768 2.3125,0.54199 l 0,0.66846 -7.71436,0 0,-0.66846 c 1.02376,-0.18066 1.6862,-0.41552 1.98731,-0.70459 0.61425,-0.57812 1.29475,-1.75244 2.0415,-3.52295 l 8.61768,-20.16211 0.63232,0 8.52735,20.37891 c 0.6865,1.63802 1.30678,2.70394 1.86083,3.19775 0.56606,0.48178 1.34894,0.75277 2.34864,0.81299 l 0,0.66846 -9.66553,0 0,-0.66846 c 0.97557,-0.0482 1.63198,-0.21077 1.96924,-0.48779 0.34926,-0.27702 0.52391,-0.61426 0.52392,-1.01172 -1e-5,-0.52994 -0.2409,-1.36702 -0.72265,-2.51123 l -1.48145,-3.52295 m -0.50586,-1.33691 -4.15527,-9.90039 -4.26367,9.90039 8.41894,0"
         style=""
         id="path3261" />
    </g>
    <g
       transform="matrix(0.47217146,0.88150673,-0.88150673,0.47217146,0,0)"
       style="font-size:37px;font-style:normal;font-weight:normal;line-height:125%;letter-spacing:0px;word-spacing:0px;fill:#ffffff;fill-opacity:1;stroke:none;font-family:Times New Roman;-inkscape-font-specification:Times New Roman"
       id="text4798">
      <path
         d="m 397.89355,-55.902302 0,-0.668457 0.92139,0 c 1.03581,1e-6 1.77051,-0.331216 2.2041,-0.993652 0.26497,-0.397459 0.39746,-1.288734 0.39746,-2.673828 l 0,-15.826172 c 0,-1.529601 -0.16862,-2.487119 -0.50586,-2.872559 -0.46973,-0.529924 -1.16829,-0.794898 -2.0957,-0.794922 l -0.92139,0 0,-0.668457 9.97266,0 c 3.66145,2.5e-5 6.44367,0.415552 8.34668,1.246582 1.91502,0.831077 3.45066,2.216167 4.60693,4.155274 1.16827,1.939145 1.75242,4.179377 1.75245,6.720703 -3e-5,3.408538 -1.03584,6.257005 -3.10743,8.54541 -2.32456,2.553387 -5.86557,3.830078 -10.62304,3.830078 l -10.94825,0 m 6.9917,-1.770508 c 1.52962,0.337241 2.81233,0.505861 3.84815,0.50586 2.79426,10e-7 5.11277,-0.981606 6.95556,-2.944824 1.84276,-1.96321 2.76414,-4.624992 2.76416,-7.985352 -2e-5,-3.384425 -0.9214,-6.052228 -2.76416,-8.003418 -1.84279,-1.95115 -4.20948,-2.926735 -7.10009,-2.926758 -1.084,2.3e-5 -2.31853,0.174665 -3.70362,0.523926 l 0,20.830566"
         style=""
         id="path3258" />
    </g>
    <path
       inkscape:connector-curvature="0"
       d="m 349.33283,315.68509 3.1784,-0.906 0.90558,0.79048 c 0,0 1.0211,1.25004 1.0211,1.92669 0,0.68383 0.11232,2.72562 0.11232,2.72562 l 4.19446,-1.1379 c 0,0 2.7256,-1.13449 4.65229,0.90728 1.92669,2.0422 2.48994,2.61051 2.48994,3.7387 0,1.13453 0,7.36949 0,7.36949 l 0.22429,1.01941 -3.17208,1.24499 -1.1345,-1.81161 0.34065,-6.68775 c 0,0 0.68046,-1.24161 -1.81454,-2.9461 -0.11198,-0.11535 -0.79051,-0.79051 -2.04221,-0.79051 -1.2433,0 -3.7383,1.0211 -3.7383,1.81161 0,0.79047 -0.22733,7.25437 -0.22733,7.25437 0,0 0.34065,1.70452 -1.36388,1.925 -1.69943,0.23239 -4.30151,0.23239 -4.30151,0.23239 0,0 2.15435,-0.4528 2.26437,-2.15733 0.11232,-1.69649 -0.10996,-12.01376 -0.10996,-12.01376 0,0 -0.22765,-0.68383 -0.6851,-1.36048 -0.4532,-0.68173 -0.79385,-1.13452 -0.79385,-1.13452"
       style="fill:#000779;fill-opacity:1;fill-rule:evenodd;stroke:none"
       id="path5756" />
    <path
       inkscape:connector-curvature="0"
       d="m 388.56098,320.10509 c 0,0 1.58098,0.22395 1.58098,1.24498 0,1.01943 0,9.97832 0,9.97832 l -0.67539,1.36047 1.46884,0.7905 c 0,0 2.72225,-0.11534 2.83777,-1.2437 0.11501,-1.13621 0,-8.61278 0,-8.61278 0,0 1.36175,-2.495 2.26943,-2.495 0.9039,0 3.7383,-0.23239 3.96889,1.925 0.22564,2.15098 0.22564,9.63598 0.22564,9.63598 0,0 3.39765,1.0211 3.39765,-0.90599 0,-1.92838 0.22834,-8.5061 0.22834,-8.5061 0,0 0.79047,-2.14889 2.38157,-2.14889 1.58436,0 3.85382,0.22226 3.9689,2.37948 0.11029,2.14761 -0.23238,8.04488 -0.23238,8.7283 0,0.68383 0.91064,1.0211 0.91064,1.0211 l 2.83272,0 1.13324,-0.91401 c 0,0 -0.9077,0.23069 -1.13324,-0.79051 -0.22564,-1.0211 0.11231,-7.59164 0.11231,-7.59164 0,0 -0.44986,-2.71761 -1.81161,-3.63163 -1.36381,-0.90559 -2.4916,-2.60208 -5.78044,-1.35838 -3.29057,1.24327 -3.29057,1.35838 -3.29057,1.35838 0,0 -1.35838,-1.12819 -2.94273,-1.4739 -1.5911,-0.33771 -2.26943,-0.45447 -3.17502,0 -0.91108,0.4528 -1.25173,1.01943 -2.15772,0.6834 -0.90559,-0.33769 -3.05953,-0.6834 -3.05953,-0.6834 0,0 -1.36216,-0.10691 -1.69988,0.4528 -0.34064,0.56663 -1.35838,0.79722 -1.35838,0.79722"
       style="fill:#000779;fill-opacity:1;fill-rule:evenodd;stroke:none"
       id="path5758" />
    <path
       inkscape:connector-curvature="0"
       d="m 375.63319,318.4006 c 0,0 2.49796,-0.79051 4.87448,0.23238 2.38285,1.02111 5.33233,2.7172 5.67342,5.44111 0.33256,2.71888 -0.60457,6.01278 -2.61011,7.47825 -1.70112,1.25005 -4.98999,3.5161 -7.36988,2.72563 -2.37949,-0.7985 -5.78051,-2.159 -7.14227,-6.01111 -1.36047,-3.85338 1.58733,-7.02377 1.58733,-7.02377 l 4.98703,-2.8424 z m -1.01814,3.065 c 0,0 1.01814,-1.47434 2.83268,-0.57 1.81162,0.90726 3.62488,1.81326 3.62488,1.81326 0,0 2.60843,1.70453 1.93006,4.7594 -0.67833,3.06288 -1.58604,3.63119 -1.58604,3.63119 0,0 -2.3778,1.80992 -4.30658,0.56831 -1.92669,-1.24327 -4.07895,-3.62487 -4.07895,-3.62487 0,0 -2.26774,-2.72391 -0.34274,-4.6506 1.92669,-1.92669 1.92669,-1.92669 1.92669,-1.92669"
       style="fill:#000779;fill-opacity:1;fill-rule:evenodd;stroke:none"
       id="path5760" />
    <path
       inkscape:connector-curvature="0"
       d="m 349.33283,331.87181 3.1784,-0.91402 0.90558,0.80063 c 0,0 1.0211,1.24326 1.0211,1.925 0,0.67664 0.11232,2.71885 0.11232,2.71885 l 4.19446,-1.12819 c 0,0 2.7256,-1.13618 4.65229,0.8976 1.92669,2.0422 2.48994,2.61051 2.48994,3.74501 0,1.1379 0,7.36149 0,7.36149 l 0.22429,1.0211 -3.17208,1.25338 -1.1345,-1.81158 0.34065,-6.68649 c 0,0 0.68046,-1.2513 -1.81454,-2.94779 -0.11198,-0.11502 -0.79051,-0.79851 -2.04221,-0.79851 -1.2433,0 -3.7383,1.02111 -3.7383,1.81792 0,0.79048 -0.22733,7.24807 -0.22733,7.24807 0,0 0.34065,1.70449 -1.36388,1.925 -1.69943,0.23238 -4.30151,0.23238 -4.30151,0.23238 0,0 2.15435,-0.45279 2.26437,-2.15729 0.11232,-1.69649 -0.10996,-12.01421 -0.10996,-12.01421 0,0 -0.22765,-0.67664 -0.6851,-1.35837 -0.4532,-0.6834 -0.79385,-1.12988 -0.79385,-1.12988"
       style="fill:#000779;fill-opacity:1;fill-rule:evenodd;stroke:none"
       id="path5762" />
    <path
       inkscape:connector-curvature="0"
       d="m 382.55493,336.28719 c 0,0 1.58733,0.2307 1.58733,1.25169 0,1.02071 0,9.96989 0,9.96989 l -0.68174,1.36051 1.47727,0.79681 c 0,0 2.7172,-0.11332 2.83272,-1.24161 0.10995,-1.1463 0,-8.62119 0,-8.62119 0,0 1.35838,-2.495 2.26774,-2.495 0.90728,0 3.73998,-0.2226 3.96552,1.925 0.22733,2.15898 0.22733,9.63599 0.22733,9.63599 0,0 3.40396,1.0274 3.40396,-0.90603 0,-1.92669 0.22226,-8.49767 0.22226,-8.49767 0,0 0.79388,-2.15729 2.38498,-2.15729 1.58392,0 3.85169,0.2307 3.96384,2.37949 0.11501,2.15729 -0.22564,8.0533 -0.22564,8.7367 0,0.67498 0.9039,1.01267 0.9039,1.01267 l 2.83774,0 1.13115,-0.90559 c 0,0 -0.90895,0.23069 -1.13115,-0.79048 -0.22563,-1.02278 0.11501,-7.59377 0.11501,-7.59377 0,0 -0.45785,-2.72394 -1.81454,-3.62953 -1.35882,-0.90598 -2.49504,-2.61051 -5.78051,-1.36046 -3.29056,1.24495 -3.29056,1.36046 -3.29056,1.36046 0,0 -1.36217,-1.13662 -2.9478,-1.47389 -1.58942,-0.33768 -2.26775,-0.45319 -3.17502,0 -0.90433,0.45279 -1.24707,1.01099 -2.15266,0.68342 -0.90558,-0.34615 -3.06331,-0.68342 -3.06331,-0.68342 0,0 -1.35838,-0.11535 -1.69609,0.45279 -0.34274,0.5582 -1.36176,0.79051 -1.36176,0.79051"
       style="fill:#000779;fill-opacity:1;fill-rule:evenodd;stroke:none"
       id="path5764" />
    <path
       inkscape:connector-curvature="0"
       d="m 373.02267,334.5907 c 0,0 2.50006,-0.79851 4.87492,0.2226 2.38455,1.0211 5.33065,2.72558 5.66496,5.44279 0.34277,2.72559 -0.59782,6.0111 -2.60208,7.48499 -1.70112,1.24158 -4.99001,3.51611 -7.36949,2.71548 -2.37988,-0.79047 -5.78048,-2.1476 -7.14435,-6.00098 -1.35669,-3.85378 1.5911,-7.03221 1.5911,-7.03221 l 4.98494,-2.83267 z m -1.01604,3.06162 c 0,0 1.01604,-1.4739 2.83271,-0.56663 1.81158,0.90599 3.62275,1.81157 3.62275,1.81157 0,0 2.61052,1.70454 1.92713,4.75941 -0.67708,3.06163 -1.58604,3.63162 -1.58604,3.63162 0,0 -2.37655,1.81117 -4.30155,0.55989 -1.92669,-1.24372 -4.08567,-3.62489 -4.08567,-3.62489 0,0 -2.2648,-2.7155 -0.33592,-4.6426 1.92669,-1.92837 1.92669,-1.92837 1.92669,-1.92837"
       style="fill:#000779;fill-opacity:1;fill-rule:evenodd;stroke:none"
       id="path5766" />
    <path
       inkscape:connector-curvature="0"
       d="m 408.16981,335.40437 c 0,0 1.0211,2.04389 1.0211,3.28547 0,1.25343 0.22733,8.5078 0.22733,8.5078 0,0 -0.22733,1.0211 0.45279,1.589 0.67539,0.56662 1.9271,0.56662 1.9271,0.56662 l 1.70115,-0.90434 c 0,0 -1.02617,-0.56786 -0.90559,-1.13617 0.11501,-0.56831 -0.34277,-9.29661 -0.34277,-9.29661 0,0 -0.90559,-2.71886 -1.35882,-3.16996 -0.4528,-0.4528 -2.72223,0.55819 -2.72223,0.55819"
       style="fill:#000779;fill-opacity:1;fill-rule:evenodd;stroke:none"
       id="path5768" />
    <path
       inkscape:connector-curvature="0"
       d="m 413.27195,336.20456 c 0,0 2.495,-1.70409 3.17333,-0.90728 0.68046,0.79048 1.58604,1.35204 1.58604,1.35204 0,0 3.74336,-2.71716 5.21726,-2.03546 1.47221,0.68342 3.28884,2.03546 3.85378,2.8344 0.56622,0.79048 0.56622,1.4739 0.56622,2.49501 0,1.0211 -0.45616,7.70547 -0.45616,7.70547 0,0 -0.22733,0.90728 0.34274,1.12988 0.57128,0.23069 0.34064,1.02912 0.34064,1.02912 0,0 -1.35838,0.4528 -2.03883,0.22227 -0.68339,-0.22227 -1.47683,-1.0207 -1.47683,-1.81121 0,-0.79047 0.23036,-6.80158 0.23036,-6.80158 0,0 -0.23036,-3.73829 -2.72226,-3.96889 -2.495,-0.2226 -3.63118,0.11501 -4.07891,0.90558 -0.45617,0.79891 -0.2307,5.4428 -0.11535,8.95891 -0.11501,-0.2307 0,1.58941 -0.56791,1.69649 -0.56325,0.11333 -0.56325,0.34402 -1.4743,0.34402 -0.90558,0 -1.92669,-0.11366 -1.92669,-0.11366 0,0 0.56831,0 0.56831,-1.35838 0,-1.36681 0,-9.30504 0,-9.30504 0,0 -0.34277,-1.01267 -0.68046,-1.69775 -0.34064,-0.67371 -0.34064,-0.67371 -0.34064,-0.67371"
       style="fill:#000779;fill-opacity:1;fill-rule:evenodd;stroke:none"
       id="path5770" />
    <path
       inkscape:connector-curvature="0"
       d="m 428.80183,335.40437 c 0,0 1.0211,2.04389 1.0211,3.28547 0,1.25343 0.22733,8.5078 0.22733,8.5078 0,0 -0.22733,1.0211 0.45279,1.589 0.67833,0.56662 1.93006,0.56662 1.93006,0.56662 l 1.69651,-0.90434 c 0,0 -1.02111,-0.56786 -0.90603,-1.13617 0.11535,-0.56831 -0.34066,-9.29661 -0.34066,-9.29661 0,0 -0.90767,-2.71886 -1.35541,-3.16996 -0.45616,-0.4528 -2.72562,0.55819 -2.72562,0.55819"
       style="fill:#000779;fill-opacity:1;fill-rule:evenodd;stroke:none"
       id="path5772" />
    <path
       inkscape:connector-curvature="0"
       d="m 362.03,352.18763 c 0,0 -1.81158,-1.82001 -2.83268,-2.04389 -1.01773,-0.22058 0.11231,-1.1345 -2.26946,0 -2.3778,1.1379 -3.85676,1.4739 -4.30617,2.6118 -0.4532,1.1265 -3.62657,3.05487 0.5679,6.23326 3.96889,1.24371 5.10215,1.01312 5.89599,2.495 0.79051,1.47434 1.47053,1.92713 0.11164,2.83272 -1.35838,0.90599 -3.96384,1.35879 -4.30662,0.10523 -0.34064,-1.24162 -0.45784,-1.69441 -0.45784,-1.69441 l -2.37443,0.34402 c 0,0 -0.34105,3.17168 3.62279,3.40228 4.08441,-0.79851 4.42209,-1.13787 4.98999,-1.92838 0.56831,-0.79682 1.58942,-1.4739 1.4739,-3.17838 -0.11501,-1.70453 -0.11501,-2.14761 -2.0418,-3.16872 -1.92372,-1.02069 -4.75937,-1.70453 -4.75937,-1.70453 0,0 -2.27283,-1.59066 -1.35882,-3.17164 0.90558,-1.58772 1.58604,-1.93343 1.58604,-1.93343 0,0 0.4528,0 2.26778,0.7989 1.81117,0.79051 2.26437,1.0211 2.26437,1.0211 l 1.92669,-1.0211"
       style="fill:#000779;fill-opacity:1;fill-rule:evenodd;stroke:none"
       id="path5774" />
    <path
       inkscape:connector-curvature="0"
       d="m 396.38325,352.18763 c 0,0 -2.04176,-3.06499 -6.23832,-2.04389 -4.19447,1.02279 -8.38889,3.96889 -8.04784,8.2772 0.33727,4.30658 1.81117,6.68606 4.64894,7.48499 2.83565,0.79048 7.02715,0.33728 8.15827,-0.46291 1.13325,-0.7905 2.04221,-1.3487 1.92882,-2.03209 -0.11231,-0.68341 -0.68046,-1.25341 -0.68046,-1.25341 l -1.47053,0.11669 -0.90895,1.13662 c 0,0 -0.22564,1.24162 -1.35882,1.4739 -1.13618,0.22227 -5.10002,0.67499 -6.00773,-2.83437 -0.90896,-3.51442 -0.68339,-6.4639 -0.11332,-7.70551 0.56324,-1.25339 2.26777,-3.86181 4.98494,-2.495 2.72226,1.35882 3.29057,1.47221 3.29057,1.47221 l 1.81454,-1.1345"
       style="fill:#000779;fill-opacity:1;fill-rule:evenodd;stroke:none"
       id="path5776" />
    <path
       inkscape:connector-curvature="0"
       d="m 369.63011,351.50424 c 0,0 3.1704,4.4217 3.28085,6.01067 -0.11029,0.11535 -7.81765,0.23069 -8.15533,5.55663 0.10995,1.24498 0,1.69777 1.81158,2.60377 2.63497,1.3175 4.41663,0.115 5.55325,-0.56831 1.13284,-0.68508 1.59069,-1.47559 2.49459,-0.56157 0.90768,0.90727 1.70156,1.69778 1.70156,1.69778 0,0 0.56787,0 1.70112,-0.33728 1.13116,-0.34614 1.69947,-0.90603 1.69947,-0.90603 0,0 0,0.79052 -1.02111,-0.91401 -1.0211,-1.69606 -1.69946,-7.03177 -2.15225,-7.81425 -0.45785,-0.79849 -1.24833,-3.40059 -2.72223,-4.7674 -1.47389,-1.3605 -2.495,-1.6965 -2.495,-1.6965 l -1.6965,1.6965 z m 1.81158,7.82228 c 0,0 -1.69943,-0.33772 -2.60671,0.68339 -0.90939,1.0211 -1.81498,2.37992 -0.45616,3.40102 1.36344,1.01099 3.06287,1.4739 4.08397,0.79048 1.01605,-0.6754 1.24836,-1.24327 1.13325,-2.15098 -0.11738,-0.9039 -0.34274,-1.92501 -0.79553,-2.15729 -0.45279,-0.22058 -1.35882,-0.56662 -1.35882,-0.56662"
       style="fill:#000779;fill-opacity:1;fill-rule:evenodd;stroke:none"
       id="path5778" />
    <path
       inkscape:connector-curvature="0"
       d="m 421.77468,351.50424 c 0,0 3.17333,4.4217 3.28885,6.01067 -0.11535,0.11535 -7.82774,0.23069 -8.16546,5.55663 0.11704,1.24498 0,1.69777 1.81667,2.60377 2.64003,1.3175 4.42169,0.115 5.55494,-0.56831 1.13112,-0.68508 1.58436,-1.47559 2.48994,-0.56157 0.906,0.90727 1.70449,1.69778 1.70449,1.69778 0,0 0.56494,0 1.69948,-0.33728 1.13324,-0.34614 1.69818,-0.90603 1.69818,-0.90603 0,0 0,0.79052 -1.01773,-0.91401 -1.02111,-1.69606 -1.70157,-7.03177 -2.15773,-7.81425 -0.44773,-0.79849 -1.2433,-3.40059 -2.7172,-4.7674 -1.47389,-1.3605 -2.495,-1.6965 -2.495,-1.6965 l -1.69943,1.6965 z m 1.81158,7.82228 c 0,0 -1.69818,-0.33772 -2.60714,0.68339 -0.90559,1.0211 -1.81158,2.37992 -0.4528,3.40102 1.36176,1.01099 3.05994,1.4739 4.08105,0.79048 1.02069,-0.6754 1.24667,-1.24327 1.13621,-2.15098 -0.11568,-0.9039 -0.34278,-1.92501 -0.79557,-2.15729 -0.45279,-0.22058 -1.36175,-0.56662 -1.36175,-0.56662"
       style="fill:#000779;fill-opacity:1;fill-rule:evenodd;stroke:none"
       id="path5780" />
    <path
       inkscape:connector-curvature="0"
       d="m 399.78428,351.73443 c 0,0 0.90559,0.67372 0.90559,2.14761 0,1.47558 -0.11501,11.45389 -0.11501,11.45389 l -0.56325,0.90728 4.30658,0 0.22563,-2.6118 c 0,0 2.15226,-0.33592 3.05994,0.57 0.90389,0.90559 0.79344,2.0418 2.15225,2.15563 1.36217,0.1167 3.74333,0 3.74333,0 0,0 -0.90559,-0.68173 -1.70112,-1.36513 -0.79384,-0.67539 -1.92709,-2.71759 -1.92709,-2.71759 0,0 3.85381,-2.9478 4.30661,-3.9689 0.4532,-1.0211 1.35878,-2.61181 0.11535,-4.30618 -1.24667,-1.69819 -1.81667,-3.5161 -4.07936,-3.5161 -2.26946,0 -4.99168,0.4511 -5.78219,0.91402 -0.79682,0.44436 -1.58729,-1.14465 -2.15559,-0.91402 -0.57,0.23069 -2.49164,1.25129 -2.49164,1.25129 z m 4.19106,2.495 0.11231,5.4432 c 0,0 1.36176,1.46546 2.15732,1.46546 0.79385,0 2.15223,0.34571 3.06332,-0.56156 0.90558,-0.9039 1.80989,-3.62949 1.58391,-4.42 -0.23069,-0.79891 -0.90559,-2.38792 -1.70112,-2.61052 -0.79388,-0.22395 -2.15226,-0.45448 -3.05825,-0.22395 -0.91064,0.22395 -2.15732,0.90728 -2.15732,0.90728"
       style="fill:#000779;fill-opacity:1;fill-rule:evenodd;stroke:none"
       id="path5782" />
    <path
       inkscape:connector-curvature="0"
       d="m 372.2322,368.28541 c 0,0 0.90895,0.6834 0.90895,2.14762 0,1.47389 -0.11332,11.45557 -0.11332,11.45557 l -0.56493,0.90559 4.30661,0 0.22732,-2.6118 c 0,0 2.15226,-0.33592 3.05825,0.57 0.90559,0.9039 0.79051,2.0418 2.15226,2.15732 1.36384,0.11501 3.74332,0 3.74332,0 0,0 -0.90895,-0.68342 -1.69943,-1.36682 -0.79557,-0.67708 -1.92669,-2.71759 -1.92669,-2.71759 0,0 3.85676,-2.94948 4.30617,-3.9689 0.4532,-1.02111 1.36216,-2.61012 0.11569,-4.30661 -1.24836,-1.69775 -1.8133,-3.5161 -4.08104,-3.5161 -2.26946,0 -4.99337,0.45322 -5.78388,0.91402 -0.79513,0.44479 -1.5856,-1.14422 -2.14885,-0.91402 -0.57337,0.23069 -2.50006,1.25172 -2.50006,1.25172 z m 4.19443,2.495 0.11703,5.4428 c 0,0 1.36176,1.46419 2.15227,1.46419 0.79553,0 2.14929,0.34738 3.06331,-0.5582 0.90558,-0.90599 1.81157,-3.63118 1.58603,-4.42169 -0.23069,-0.80059 -0.9077,-2.38832 -1.70155,-2.61052 -0.7985,-0.22226 -2.15226,-0.45448 -3.05953,-0.22226 -0.91274,0.22226 -2.15772,0.90559 -2.15772,0.90559"
       style="fill:#000779;fill-opacity:1;fill-rule:evenodd;stroke:none"
       id="path5784" />
    <path
       inkscape:connector-curvature="0"
       d="m 414.52028,369.19141 c 0,0 -1.81158,-1.82001 -2.83437,-2.0439 -1.02447,-0.22058 0.11231,-1.1265 -2.26778,0 -2.38285,1.1379 -3.85338,1.4739 -4.30954,2.6118 -0.44983,1.12819 -3.62319,3.05488 0.56622,6.23327 3.96889,1.25174 5.10214,1.0211 5.89768,2.495 0.79343,1.47433 1.47389,1.92713 0.11332,2.83271 -1.36175,0.906 -3.96889,1.35879 -4.30955,0.10692 -0.34105,-1.24499 -0.4532,-1.69609 -0.4532,-1.69609 l -2.37948,0.34402 c 0,0 -0.34277,3.17208 3.62613,3.40227 4.08103,-0.7985 4.42381,-1.13787 4.98662,-1.92838 0.56831,-0.79681 1.58941,-1.47389 1.47727,-3.17838 -0.11332,-1.70453 -0.11332,-2.14761 -2.04008,-3.16871 -1.93219,-1.0207 -4.76109,-1.70409 -4.76109,-1.70409 0,0 -2.26778,-1.5911 -1.36219,-3.17208 0.90602,-1.58773 1.58604,-1.925 1.58604,-1.925 0,0 0.45617,0 2.26778,0.79046 1.81158,0.79052 2.26942,1.02111 2.26942,1.02111 l 1.92669,-1.02111"
       style="fill:#000779;fill-opacity:1;fill-rule:evenodd;stroke:none"
       id="path5786" />
    <path
       inkscape:connector-curvature="0"
       d="m 400.57476,368.50801 c 0,0 -1.02111,-1.13661 -2.83269,-1.3605 -1.81161,-0.22058 -1.24667,-0.11366 -3.85382,1.25342 -2.61007,1.35838 -6.00772,2.94779 -5.67001,7.13886 0.34274,4.1915 0.57,4.08441 2.38158,5.7805 1.81454,1.6965 5.21556,2.37989 7.36779,1.4739 2.15395,-0.90559 3.17505,-1.4739 3.40565,-2.14889 0.2226,-0.68339 0.56324,-1.70449 -0.2307,-1.70449 -0.79344,0 -1.36175,1.925 -2.495,2.26438 -1.13113,0.34402 -5.43773,-0.33938 -6.00773,-4.19151 0,0 2.38161,-1.92838 6.68818,-1.81158 0.11839,0.10692 1.70453,-1.25129 0.22564,-1.25129 -1.47053,0 -6.34372,0 -7.81762,-0.79051 -0.11669,0 0.67833,-1.93681 1.58436,-2.61051 0.90558,-0.67496 1.81454,-1.69775 2.72222,-1.35838 0.9039,0.33728 2.72057,1.13452 2.72057,1.13452 l 2.03883,-0.56662 -0.22732,-1.2513"
       style="fill:#000779;fill-opacity:1;fill-rule:evenodd;stroke:none"
       id="path5788" />
    <path
       inkscape:connector-curvature="0"
       d="m 424.26968,318.4006 c 0,0 2.48994,-0.79051 4.87279,0.23238 2.38158,1.02111 5.32768,2.7172 5.67046,5.44111 0.33728,2.71888 -0.60119,6.01278 -2.61052,7.47825 -1.69946,1.25005 -4.98663,3.5161 -7.36947,2.72563 -2.37487,-0.7985 -5.78051,-2.159 -7.13424,-6.01111 -1.36344,-3.85338 1.58435,-7.02377 1.58435,-7.02377 l 4.98663,-2.8424 z m -1.0211,3.065 c 0,0 1.0211,-1.47434 2.83268,-0.57 1.81454,0.90726 3.63121,1.81326 3.63121,1.81326 0,0 2.60546,1.70453 1.92501,4.7594 -0.67836,3.06288 -1.58732,3.63119 -1.58732,3.63119 0,0 -2.38158,1.80992 -4.30658,0.56831 -1.93175,-1.24327 -4.08569,-3.62487 -4.08569,-3.62487 0,0 -2.26482,-2.72391 -0.33593,-4.6506 1.92669,-1.92669 1.92669,-1.92669 1.92669,-1.92669"
       style="fill:#000779;fill-opacity:1;fill-rule:evenodd;stroke:none"
       id="path5790" />
    <path
       inkscape:connector-curvature="0"
       d="m 349.35729,315.80863 0,32.75413"
       style="fill:#000779;fill-opacity:1;stroke:#000779;stroke-width:0.23609325;stroke-linecap:butt;stroke-linejoin:miter;stroke-miterlimit:3.86400008;stroke-opacity:1;stroke-dasharray:none"
       id="path5792" />
    <path
       inkscape:connector-curvature="0"
       d="m 373.74741,320.90528 0,10.9189"
       style="fill:#000779;fill-opacity:1;stroke:#000779;stroke-width:0.23609325;stroke-linecap:butt;stroke-linejoin:miter;stroke-miterlimit:3.86400008;stroke-opacity:1;stroke-dasharray:none"
       id="path5794" />
    <path
       inkscape:connector-curvature="0"
       d="m 422.14862,320.90528 0,10.9189"
       style="fill:#000779;fill-opacity:1;stroke:#000779;stroke-width:0.23609325;stroke-linecap:butt;stroke-linejoin:miter;stroke-miterlimit:3.86400008;stroke-opacity:1;stroke-dasharray:none"
       id="path5796" />
    <path
       inkscape:connector-curvature="0"
       d="m 371.19463,336.92127 0,10.91847"
       style="fill:#000779;fill-opacity:1;stroke:#000779;stroke-width:0.23609325;stroke-linecap:butt;stroke-linejoin:miter;stroke-miterlimit:3.86400008;stroke-opacity:1;stroke-dasharray:none"
       id="path5798" />
    <path
       inkscape:connector-curvature="0"
       d="m 405.37841,353.46213 0,12.70728"
       style="fill:#000779;fill-opacity:1;stroke:#000779;stroke-width:0.23609325;stroke-linecap:butt;stroke-linejoin:miter;stroke-miterlimit:3.86400008;stroke-opacity:1;stroke-dasharray:none"
       id="path5800" />
    <path
       inkscape:connector-curvature="0"
       d="m 377.8727,370.06401 0,12.71404"
       style="fill:#000779;fill-opacity:1;stroke:#000779;stroke-width:0.23609325;stroke-linecap:butt;stroke-linejoin:miter;stroke-miterlimit:3.86400008;stroke-opacity:1;stroke-dasharray:none"
       id="path5802" />
    <path
       inkscape:connector-curvature="0"
       d="m 371.49947,350.129 4.58652,1.82803 1.37483,7.3366"
       style="fill:#000779;fill-opacity:1;stroke:#000779;stroke-width:0.1812859;stroke-linecap:butt;stroke-linejoin:miter;stroke-miterlimit:3.86400008;stroke-opacity:1;stroke-dasharray:none"
       id="path5804" />
    <path
       inkscape:connector-curvature="0"
       d="m 423.77051,350.58011 4.58652,1.83815 1.37019,7.3366"
       style="fill:#000779;fill-opacity:1;stroke:#000779;stroke-width:0.1812859;stroke-linecap:butt;stroke-linejoin:miter;stroke-miterlimit:3.86400008;stroke-opacity:1;stroke-dasharray:none"
       id="path5806" />
    <path
       inkscape:connector-curvature="0"
       d="m 393.50966,370.10965 0,10.7272"
       style="fill:#000779;fill-opacity:1;stroke:#000779;stroke-width:0.18695366;stroke-linecap:butt;stroke-linejoin:miter;stroke-miterlimit:3.86400008;stroke-opacity:1;stroke-dasharray:none"
       id="path5808" />
  </g>
</svg>
