<?xml version="1.0" encoding="UTF-8" standalone="no"?>
<!-- Created with Inkscape (http://www.inkscape.org/) -->

<svg
   xmlns:dc="http://purl.org/dc/elements/1.1/"
   xmlns:cc="http://creativecommons.org/ns#"
   xmlns:rdf="http://www.w3.org/1999/02/22-rdf-syntax-ns#"
   xmlns:svg="http://www.w3.org/2000/svg"
   xmlns="http://www.w3.org/2000/svg"
   version="1.0"
   width="1731.875"
   height="1383.7642"
   viewBox="0 0 1385.5 1107.0113"
   id="svg2">
  <defs
     id="defs100" />
  <metadata
     id="metadata4">
Created by potrace 1.11, written by Peter Selinger 2001-2013
<rdf:RDF>
  <cc:Work
     rdf:about="">
    <dc:format>image/svg+xml</dc:format>
    <dc:type
       rdf:resource="http://purl.org/dc/dcmitype/StillImage" />
    <dc:title></dc:title>
  </cc:Work>
</rdf:RDF>
</metadata>
  <g
     transform="matrix(0.1,0,0,-0.1,-23.000001,1125.7362)"
     id="g6"
     style="fill:#000000;stroke:none">
    <path
       d="m 6630,10441 c -585.4045,-106.618 -1049.6626,-700.1467 -957.6883,-1297.7799 46.4094,-363.5898 277.6177,-679.8714 581.0587,-876.2328 166.8191,-116.2181 354.1683,-249.5928 381.1022,-468.5602 46.5565,-123.5524 95.309,-465.1133 22.9297,-399.6368 290.3248,100.4225 535.0993,373.2851 522.0412,693.2008 2.5634,348.1333 -206.1134,654.0313 -444.1788,889.9763 -185.512,239.7958 -141.9949,575.9343 -43.1167,842.1622 104.0675,266.8234 339.2947,485.2824 625.491,533.7214 -53.7685,83.089 -304.88,90.338 -446.2281,99.088 -80.7059,1.775 -161.8209,-1.754 -241.4109,-15.939 z"
       id="path8"
       style="fill:#da251c;fill-opacity:1" />
    <path
       d="m 7571,9699 c -259.2792,-49.0723 -478.9343,-269.4435 -511.9638,-533.7705 -31.813,-207.2035 63.7399,-411.3615 198.6579,-563.5255 96.9859,-131.766 137.1056,-298.3823 125.0333,-460.3034 -3.7389,-321.1099 -208.7374,-649.6812 -523.9847,-745.2563 -40.5189,-48.0097 132.8828,-11.8903 170.7655,-14.9283 226.4385,15.0723 454.1969,89.0417 623.613,244.5405 337.5376,296.2648 461.3543,827.0122 250.8591,1230.6223 -88.7032,155.7954 -260.0761,248.9397 -335.5007,413.008 -43.8087,112.591 -33.5624,253.2403 58.6443,339.5667 16.8707,39.3072 188.2772,104.6774 77.7429,110.4341 C 7659.7606,9716.5675 7615.1866,9708.15 7571,9699 z"
       id="path10"
       style="fill:#da251c;fill-opacity:1" />
    <path
       d="m 5479,9290 c -230.7587,-174.3384 -405.2243,-452.0976 -376.7763,-750.3195 -0.215,-239.0482 124.3833,-465.0985 301.0336,-620.6379 181.2123,-127.9605 401.6064,-191.1205 622.5736,-189.85 165.2682,7.9105 310.2373,-89.4128 405.5202,-218.0771 28.0159,-60.7989 113.686,-134.2842 97.1291,-14.3387 15.0106,197.7081 -57.1318,415.9892 -235.257,521.2143 -241.4895,167.4804 -570.4624,223.4448 -739.3788,483.5664 -154.3389,231.988 -141.5033,540.5411 -16.2945,782.2779 54.5477,94.8415 -24.2616,28.2676 -58.5499,6.1646 z"
       id="path12"
       style="fill:#da251c;fill-opacity:1" />
    <path
       d="m 4725,7310 c 152.7107,-86.3418 331.7694,-106.7625 495.7877,-164.7513 978.3478,-275.5634 2030.7987,-273.3788 3008.8052,2.7606 156.8844,50.6416 325.8183,78.8175 472.0552,153.8213 -151.5457,23.1685 -332.9909,0.8694 -495.4006,8.0558 -1155.8156,-3.8331 -2311.8324,-5.1739 -3467.5131,4.2698 l -7.6479,-2.3143 L 4725,7310 z"
       id="path14"
       style="fill:#29166f;fill-opacity:1" />
    <path
       d="m 6291,6783 c -66.6838,-31.1653 -101.6383,-124.3602 -57.1117,-187.1388 35.9093,-57.3436 119.337,-81.6936 176.9342,-42.0907 53.4057,31.3844 84.5049,103.7458 53.876,161.1932 -26.45,60.8255 -102.4407,101.7321 -165.6749,72.026 l -4.0536,-1.9098 -3.97,-2.0799 0,0 z"
       id="path16"
       style="fill:#29166f;fill-opacity:1" />
    <path
       d="m 6671,6783 c -54.8552,-27.3622 -90.7477,-94.1252 -72.4835,-154.5388 19.0817,-62.1053 88.1661,-106.9897 152.7425,-91.1966 49.634,11.7581 91.3766,53.6645 103.3568,103.1875 11.707,56.9993 -24.5165,115.3069 -73.5777,142.4399 -33.8765,17.9371 -76.2444,18.7278 -110.0381,0.108 z"
       id="path18"
       style="fill:#29166f;fill-opacity:1" />
    <path
       d="m 7041,6783 c -54.8552,-27.3622 -90.7477,-94.1252 -72.4835,-154.5388 19.0817,-62.1053 88.1661,-106.9897 152.7425,-91.1966 49.634,11.7581 91.3766,53.6645 103.3568,103.1875 11.707,56.9993 -24.5165,115.3069 -73.5777,142.4399 -33.8765,17.9371 -76.2444,18.7278 -110.0381,0.108 z"
       id="path20"
       style="fill:#29166f;fill-opacity:1" />
    <path
       d="M 9435,6416 C 8992.2624,6376.9537 8553.2508,6121.6119 8368.256,5706.309 8136.2436,5204.5453 8220.1044,4547.686 8638.4651,4168.0078 8990.739,3841.2735 9511.5243,3759.6751 9970,3857 c 380.332,88.6308 743.88,326.1566 918.391,683.4844 111.867,255.9064 118.453,539.8368 126.609,814.5156 -474.972,-3.3028 -950.003,-3.1239 -1425,-5 0,-196.6667 0,-393.3333 0,-590 142.5505,-4.0976 287.9796,10.088 428.309,-10.623 -45.7055,-109.4652 -171.4233,-201.7278 -297.8156,-213.4419 -185.5606,-32.3762 -377.3223,59.2296 -471.9827,221.0002 -104.5132,168.5099 -99.2663,386.2157 -42.2607,570.0647 84.7271,217.8948 323.3184,375.9476 559.4375,326.0781 C 9879.885,5637.9214 9958.2695,5548.5443 10030,5467 c 275.544,115.2489 559.534,210.0133 838.797,315.2812 -9.675,106.8941 -139.355,196.8352 -213.526,281.2778 -271.083,249.7798 -644.076,363.24 -1008.2825,362.2432 -70.7626,1.0042 -141.6812,-1.4006 -211.9885,-9.8022 z"
       id="path22"
       style="fill:#29166f;fill-opacity:1" />
    <path
       d="m 12215,6415 c -355.978,-42.7388 -722.553,-242.5514 -859.831,-589.1124 -111.142,-274.7978 -71.19,-638.3882 179.446,-824.4067 205.009,-163.2667 477.458,-166.6687 719.092,-235.1322 186.261,-40.5569 60.779,-295.9097 -92.574,-259.9214 -239.099,-14.4624 -474.993,87.7023 -649.258,247.8227 -109.061,-96.7868 -104.91,-262.613 -176.914,-384.1492 -22.256,-103.6432 -146.813,-253.6341 -88.354,-333.5039 400.217,-179.9744 857.761,-281.1391 1292.002,-176.6519 336.681,82.7893 649.875,339.6293 714.21,693.0619 58.059,273.6069 -24.931,596.7383 -273.182,751.022 -193.481,137.5926 -437.179,147.7407 -658.495,208.4774 -191.544,26.8385 -90.621,272.3202 66.479,248.9198 190.052,6.1717 370.923,-72.2637 524.754,-178.4261 111.663,44.9251 81.586,220.0012 153.842,309.3027 29.749,105.1385 116.111,227.69 111.585,321.7685 C 12889.183,6378.2857 12546.844,6467.9037 12215,6415 z"
       id="path24"
       style="fill:#29166f;fill-opacity:1" />
    <path
       d="m 1040,5543 c 17.0359,-374.1936 -44.2509,-760.5007 64.3165,-1124.749 149.8181,-378.2392 564.3315,-574.3317 952.24,-590.6905 420.9711,-47.0307 911.3527,61.3372 1153.3741,439.6917 147.9886,215.0299 174.412,482.8149 156.2736,736.1959 1.5973,462.184 3.196,924.3679 4.7958,1386.5519 -300,0 -600,0 -900,0 -2.002,-531.6667 -4.002,-1063.3333 -6,-1595 -54.3874,-245.9498 -469.0448,-241.2981 -503.2606,15.5645 -19.6745,197.0114 1.6949,396.5102 -9.0254,594.7672 -1.1159,328.2222 -1.9425,656.4452 -2.714,984.6683 -303.3333,0 -606.6667,0 -910,0 0,-282.3333 0,-564.6667 0,-847 z"
       id="path26"
       style="fill:#29166f;fill-opacity:1" />
    <path
       d="m 3810,5125 c 0,-421.6667 0,-843.3333 0,-1265 306.6667,0 613.3333,0 920,0 0,296.6667 0,593.3333 0,890 223.3333,0 446.6667,0 670,0 0,220 0,440 0,660 -223.3333,0 -446.6667,0 -670,0 0,90 0,180 0,270 253.3333,0 506.6667,0 760,0 0,236.6667 0,473.3333 0,710 -560,0 -1120,0 -1680,0 0,-421.6667 0,-843.3333 0,-1265 z"
       id="path28"
       style="fill:#29166f;fill-opacity:1" />
    <path
       d="m 5822,5125 3,-1265 445,-1 445,0 -4,415 c -2,266 0,416 6,416 13,0 43,-34 43,-48 0,-18 40,-103 249,-536 61,-125 111,-232 111,-237 0,-7 1058,-18 1070,-11 2,2 0,9 -5,16 -6,8 -142,210 -303,450 -285,424 -294,436 -350,469 -72,42 -76,59 -20,77 115,35 137,44 194,75 170,95 267,305 266,575 -1,184 -34,314 -113,446 -95,157 -288,307 -476,370 -149,50 -216,54 -916,54 l -647,0 2,-1265 z m 1160,546 c 68,-43 100,-103 100,-189 1,-95 -35,-155 -118,-199 -27,-13 -231,-35 -246,-26 -5,2 -8,103 -8,224 l 0,219 113,0 c 108,0 115,-1 159,-29 z"
       id="path30"
       style="fill:#29166f;fill-opacity:1" />
    <path
       d="m 5159,2777 c -148.1565,-47.5257 -217.7053,-270.2337 -95.7159,-378.9093 73.8295,-58.7328 181.1855,-52.9709 249.1152,-121.2982 33.142,-81.1928 -77.1196,-129.5391 -141.0203,-99.7048 -55.3915,47.6263 -143.2075,85.8652 -169.5347,-12.0509 -63.3364,-83.0264 49.5126,-122.9103 114.2808,-134.8434 126.9326,-37.5302 295.7449,-15.5239 364.8952,110.5568 39.321,81.4176 47.5337,192.4491 -12.5946,265.5785 -72.7262,76.3114 -195.7844,66.0457 -268.8544,140.1047 -27.8491,86.421 110.368,116.1198 163.9258,66.1104 63.7005,-69.0221 102.478,71.8387 109.178,116.2086 -51.0168,57.2971 -142.2483,47.0636 -212.5835,58.5891 -33.9403,1.034 -68.1831,-1.6717 -101.0916,-10.3415 z"
       id="path32"
       style="fill:#29166f;fill-opacity:1" />
    <path
       d="m 1034,2765 c -7.5096,-147.8214 -0.9584,-296.0087 1.9828,-443.8886 4.6467,-73.4071 5.4772,-157.711 67.1971,-209.1219 138.2219,-144.022 402.7883,-128.6243 520.5675,33.3407 57.6171,73.4056 46.9376,169.6299 49.4685,256.8354 1.5986,124.272 0.8502,248.5579 1.7841,372.8344 -62.3333,0 -124.6667,0 -187,0 -2.935,-165.3183 1.1246,-330.9501 -7.0972,-496.0594 -8.5538,-82.1421 -112.4623,-114.2813 -181.2442,-88.4488 -57.6861,23.9477 -86.1668,84.4276 -74.9881,144.5078 -0.6082,146.6659 -0.8317,293.3334 -0.6705,440.0004 -61.8872,-4.6126 -135.3293,19.5435 -190,-10 l 0,0 z"
       id="path34"
       style="fill:#29166f;fill-opacity:1" />
    <path
       d="m 1820,2775 c -0.5379,-246.6663 -1.3158,-493.3329 -1,-740 64.6667,0 129.3333,0 194,0 -2.8342,147.3835 2.1117,295.6117 -19.0036,441.958 68.7395,10.6273 95.3568,-101.927 142.4021,-143.4501 C 2210.7097,2230.9271 2288.6077,2131.023 2365,2030 c 64.6667,0 129.3333,0 194,0 -1.3305,248.3333 -2.6639,496.6667 -4,745 -63.3333,0 -126.6667,0 -190,0 2.9059,-147.3058 6.9997,-294.6057 14.4116,-441.7607 -42.2088,-40.0988 -70.7276,76.1562 -105.4093,96.7417 C 2187.3592,2546.6842 2096.7831,2660.4025 2010,2777 c -63.3271,-0.4857 -126.8269,4.4462 -190,-2 z"
       id="path36"
       style="fill:#29166f;fill-opacity:1" />
    <path
       d="m 2700,2775 c -0.4882,-246.6664 -1.3376,-493.3328 -1,-740 64,0 128,0 192,0 0,246.6667 0,493.3333 0,740 -63.5324,0.6467 -127.9563,7.7304 -191,0 z"
       id="path38"
       style="fill:#29166f;fill-opacity:1" />
    <path
       d="m 2956,2772 c 38.5565,-107.0656 91.221,-208.4854 131.8289,-314.8941 C 3146.6211,2317.2632 3207.4585,2178.1194 3258,2035 c 55.961,6.0658 138.4346,-30.2996 171.9105,31.9852 91.6903,229.4601 193.7787,455.0039 290.2061,682.6752 -28.4179,61.1556 -132.2641,18.1365 -187.7271,26.887 -49.8081,-65.9151 -63.9584,-159.4946 -100.4125,-236.2368 -32.3229,-63.6786 -49.5528,-175.1963 -90.6157,-209.0436 -49.4964,53.2497 -47.2618,133.7413 -84.2782,195.0187 -31.1853,81.6367 -59.5429,164.3553 -92.6541,245.2521 -69.1569,7.2939 -139.3558,9.732 -208.429,0.4622 z"
       id="path40"
       style="fill:#29166f;fill-opacity:1" />
    <path
       d="m 4325,2771 c -8.9839,-233.2227 -3.1465,-466.7014 -4.9987,-700.0354 -19.1052,-59.5899 43.9671,-36.796 80.5786,-41.1009 35.0451,2.8848 77.1931,-5.2818 107.4596,10.2588 16.7287,44.6009 -3.3195,94.1948 1.5327,140.9164 6.1671,39.3747 -23.0829,116.6482 17.0946,133.2045 29.3932,-35.7799 44.3688,-82.6625 71.3676,-121.0609 31.8472,-53.2243 65.6536,-105.2405 97.9606,-158.1825 73.1247,-0.8405 146.3242,-6.547 219.4148,-1.5103 14.2755,45.6392 -51.1212,76.728 -69.8091,116.9367 -44.8325,56.8959 -96.7227,109.6256 -135.1381,170.7463 0.7505,49.2395 77.0031,32.1917 96.906,73.9938 84.2155,96.436 68.1568,268.8803 -41.0573,340.4508 -65.8867,36.7812 -145.1253,32.6098 -218.2729,36.316 -74.3397,0.1513 -148.8413,5.804 -223.0384,-0.9333 z m 253,-142 c 61.4184,-3.5301 121.123,-73.4327 86.1934,-132.8153 -29.3771,-54.4937 -95.0208,-64.9636 -150.8612,-69.1572 -7.7136,45.0291 -0.9562,91.2074 -3.2217,136.7305 0.063,51.9724 1.1452,96.8755 67.8895,65.242 z"
       id="path42"
       style="fill:#29166f;fill-opacity:1" />
    <path
       d="m 5620,2405 c 0,-125 0,-250 0,-375 63.3333,0 126.6667,0 190,0 0,250 0,500 0,750 -63.3333,0 -126.6667,0 -190,0 0,-125 0,-250 0,-375 z"
       id="path44"
       style="fill:#29166f;fill-opacity:1" />
    <path
       d="m 6896,2771 c -68.0629,-175.1635 -131.5932,-352.1199 -201.8098,-526.4768 -26.7451,-65.6818 -51.3196,-132.8214 -83.4871,-195.8201 12.7611,-32.635 70.7931,-11.1061 101.2969,-16.7031 34.3333,1 68.6667,2 103,3 14,40 28,80 42,120 93.0002,1.9889 186.0002,3.9887 279,6 13.3333,-42 26.6667,-84 40,-126 62.5618,-0.5632 125.4189,-7.0809 187.7637,-1.1016 40.5196,19.3317 -13.4865,67.6815 -17.6218,97.6249 -51.2409,124.3309 -94.1355,251.8802 -143.219,377.064 -33.6114,88.5674 -66.1319,177.5403 -98.9229,266.4127 -68.4898,-0.037 -137.2329,3.7703 -205.4961,-2.9238 L 6896,2771 z m 124,-243 c 2.4544,-45.0432 21.7032,-86.5592 37.375,-128 -4.1692,-33.118 48.7247,-80.7706 1.7395,-100.606 -43.4181,-3.9998 -88.0071,-6.4557 -131.2122,0.4908 -37.5255,15.687 3.1073,59.0624 8.8717,84.6972 16.435,38.8442 28.8271,79.4295 38.0854,120.2774 6.6054,15.6064 43.6208,76.0232 45.1406,23.1406 z"
       id="path46"
       style="fill:#29166f;fill-opacity:1" />
    <path
       d="m 9064,2771 c -6.7634,-247.2792 -3.1545,-494.6677 -4,-742 59.5465,16.5555 160.3779,-25.025 195,29.1701 0,88.9433 0,177.8866 0,266.8299 70,0 140,0 210,0 0,53.3333 0,106.6667 0,160 -66.172,13.3433 -172.6065,-35.4099 -215,17.1701 0,39.6099 0,79.2199 0,118.8299 73.3754,7.3929 183.3156,-22.7461 235,6.8723 0,48.7092 0,97.4185 0,146.1277 -140.3301,-1.4008 -280.7398,3.318 -421,-3 z"
       id="path48"
       style="fill:#29166f;fill-opacity:1" />
    <path
       d="m 11400,2773 c 0,-244.3333 0,-488.6667 0,-733 35.974,-15.5019 79.629,-6.4761 118.926,-7.3219 25.025,0.774 50.049,1.5479 75.074,2.3219 -2.874,88.1275 -3.271,176.7637 -17.938,263.7969 23.534,47.932 64.499,-42.1642 77.415,-68.1153 45.11,-61.4685 71.261,-134.6478 121.523,-192.6816 102.986,-12.766 207.798,-6.3983 311.502,-6.172 43.703,11.4091 120.242,-19.6825 138.873,31.922 11.854,30.0614 21.982,60.7508 32.625,91.25 93,1.9889 186,3.9887 279,6 13.333,-42 26.667,-84 40,-126 65.389,-0.1153 131.4,-8.3826 196.291,-0.5684 4.39,44.179 -31.63,94.1919 -42.883,140.2932 -72.892,195.3027 -144.374,391.1755 -220.408,585.2752 -42.418,26.1734 -99.565,11.8116 -148.157,15.8619 -64.571,17.6522 -86.403,-39.7512 -99.753,-90.2541 -79.282,-206.7176 -151.686,-416.3855 -241.24,-618.9701 -24.517,-36.5524 -57.208,45.8703 -82.672,64.0431 -50.923,64.2967 -104.447,126.9762 -154.522,191.663 11.704,42.6536 81.683,35.5497 105.592,75.9374 65.746,70.9845 63.821,185.9945 19.955,267.5 -31.265,55.674 -89.263,93.7669 -153.357,97.4805 -118.005,11.6815 -237.444,12.3556 -355.846,9.7383 z m 270,-148 c 56.105,-4.1257 90.852,-65.3458 72.75,-116.9531 -17.128,-59.7039 -83.056,-83.8776 -139.821,-78.0469 -24.592,-5.6581 -8.236,29.6325 -12.929,43.8737 2.087,52.6514 -6.173,107.2265 8.398,158.1888 19.217,13.8173 49.097,-8.411 71.602,-7.0625 z m 750,-97 c 4.667,-73.7265 49.963,-137.7444 58.94,-209.9985 -31.114,-39.0763 -100.113,-15.3213 -145.881,-18.753 -41.25,30.7687 16.401,92.6561 20.91,133.7671 14.907,34.4114 20.196,117.4936 63.406,110.4844 l 1.922,-7 0.703,-8.5 z"
       id="path50"
       style="fill:#29166f;fill-opacity:1" />
    <path
       d="m 12859,2776 c -3,-3 -4,-171 -2,-373 l 3,-368 210,-3 211,-2 -3,82 -3,83 -115,0 -115,0 0,290 0,290 -90,3 c -50,1 -93,0 -96,-2 z"
       id="path52"
       style="fill:#29166f;fill-opacity:1" />
    <path
       d="m 3790,2400 c 0,-123.3333 0,-246.6667 0,-370 140,0 280,0 420,0 0,53.3333 0,106.6667 0,160 -80,0 -160,0 -240,0 0,46.6667 0,93.3333 0,140 73.3333,0 146.6667,0 220,0 0,50 0,100 0,150 -73.3333,0 -146.6667,0 -220,0 0,46.6667 0,93.3333 0,140 80,0 160,0 240,0 0,50 0,100 0,150 -140,0 -280,0 -420,0 0,-123.3333 0,-246.6667 0,-370 z"
       id="path54"
       style="fill:#29166f;fill-opacity:1" />
    <path
       d="m 5960,2400 c 0,-123.6667 0,-247.3333 0,-371 131.0888,7.5215 264.7371,-8.7646 393.6997,21.4831 150.9341,52.034 258.8641,211.1468 242.4916,371.4198 1.2193,153.3557 -116.7176,287.1731 -257.408,335.1309 -60.648,18.3812 -124.7289,5.9011 -186.9726,10.9136 -63.9381,0.9389 -127.8782,1.7723 -191.8107,3.0526 0,-123.6667 0,-247.3333 0,-371 z m 338,188 c 139.2786,-68.9664 144.0219,-300.8805 5.5807,-373.5362 -49.1691,-24.767 -104.6678,-34.4166 -159.3529,-35.4593 -8.9394,75.1259 -2.4199,151.1305 -4.2278,226.6992 0,72.4321 0,144.8642 0,217.2963 53.6448,-5.3756 109.1912,-10.0692 158,-35 z"
       id="path56"
       style="fill:#29166f;fill-opacity:1" />
    <path
       d="m 7460,2400 c 0,-123.6667 0,-247.3333 0,-371 135.5239,9.0921 275.9373,-12.491 407.6363,26.7822 145.1881,57.1152 245.1674,212.8876 228.4969,369.3242 -1.0808,166.386 -142.4697,315.6828 -303.7147,341.1467 -109.135,-2.4866 -231.4074,9.6014 -332.4185,-0.1414 0,-122.0372 0,-244.0745 0,-366.1117 z m 338,188 c 149.0699,-72.5508 141.3904,-330.4249 -19.4151,-384.476 -61.8776,-24.3746 -171.2562,-53.1292 -138.6797,52.9964 0.247,122.1412 0.013,244.3213 0.095,366.4796 53.6453,-5.3758 109.1906,-10.0688 158,-35 z"
       id="path58"
       style="fill:#29166f;fill-opacity:1" />
    <path
       d="m 8210,2400 c 0,-123.3333 0,-246.6667 0,-370 140,0 280,0 420,0 0,53.3333 0,106.6667 0,160 -80,0 -160,0 -240,0 0,46.6667 0,93.3333 0,140 73.3333,0 146.6667,0 220,0 0,50 0,100 0,150 -73.3333,0 -146.6667,0 -220,0 0,46.6667 0,93.3333 0,140 80,0 160,0 240,0 0,50 0,100 0,150 -140,0 -280,0 -420,0 0,-123.3333 0,-246.6667 0,-370 z"
       id="path60"
       style="fill:#29166f;fill-opacity:1" />
    <path
       d="m 9590,2400 c 0,-123.3333 0,-246.6667 0,-370 140,0 280,0 420,0 0,53.3333 0,106.6667 0,160 -80,0 -160,0 -240,0 0,46.6667 0,93.3333 0,140 73.3333,0 146.6667,0 220,0 0,50 0,100 0,150 -73.3333,0 -146.6667,0 -220,0 0,46.6667 0,93.3333 0,140 80,0 160,0 240,0 0,50 0,100 0,150 -140,0 -280,0 -420,0 0,-123.3333 0,-246.6667 0,-370 z"
       id="path62"
       style="fill:#29166f;fill-opacity:1" />
    <path
       d="m 10120,2400 c 0,-123.6667 0,-247.3333 0,-371 135.524,9.0922 275.937,-12.4911 407.636,26.7824 145.188,57.1154 245.168,212.8873 228.497,369.324 -1.082,166.3856 -142.47,315.6833 -303.715,341.1467 -109.135,-2.4867 -231.407,9.6014 -332.418,-0.1414 0,-122.0372 0,-244.0745 0,-366.1117 z m 338,188 c 149.069,-72.5512 141.39,-330.4246 -19.415,-384.476 -61.878,-24.3743 -171.257,-53.1296 -138.68,52.9965 0.247,122.1411 0.01,244.3212 0.09,366.4795 53.645,-5.3758 109.191,-10.0688 158,-35 z"
       id="path64"
       style="fill:#29166f;fill-opacity:1" />
    <path
       d="m 10870,2400 c 0,-123.3333 0,-246.6667 0,-370 140,0 280,0 420,0 0,53.3333 0,106.6667 0,160 -80,0 -160,0 -240,0 0,46.6667 0,93.3333 0,140 73.333,0 146.667,0 220,0 0,50 0,100 0,150 -73.333,0 -146.667,0 -220,0 0,46.6667 0,93.3333 0,140 80,0 160,0 240,0 0,50 0,100 0,150 -140,0 -280,0 -420,0 0,-123.3333 0,-246.6667 0,-370 z"
       id="path66"
       style="fill:#29166f;fill-opacity:1" />
    <path
       d="m 2040,1770 c -320.5937,-45.4211 -430.0195,-541.3583 -149.8738,-711.3777 235.7092,-172.89448 643.9922,-14.8048 650.9935,292.9275 19.542,233.1663 -193.7146,453.2651 -429.8651,427.5788 l -35.8327,-2.9334 L 2040,1770 l 0,0 z m 148,-183 c 244.3864,-50.2607 164.7436,-484.1001 -89.8682,-415.0986 -240.034,42.201 -227.197,420.4193 24.5958,425.3189 l 32.8275,-1.7643 L 2188,1587 l 0,0 z"
       id="path68"
       style="fill:#29166f;fill-opacity:1" />
    <path
       d="m 4162,1769 c -260.6759,-36.9661 -412.0429,-378.4759 -261.5689,-595.5743 134.4748,-217.06989 480.8696,-253.05789 650.6659,-59.0564 152.5801,159.555 136.8622,447.8892 -45.7235,578.4876 C 4409.1263,1766.1297 4280.2063,1794.8986 4162,1769 z m 160,-188 c 166.3415,-50.7532 187.4602,-323.6891 20.9666,-389.1677 -132.8015,-65.4891 -313.1557,40.9782 -307.8323,192.5355 0.23,136.6264 156.5909,259.0282 286.8657,196.6322 z"
       id="path70"
       style="fill:#29166f;fill-opacity:1" />
    <path
       d="m 5311,1769 c -127.7215,-26.3742 -247.1993,-116.5426 -287.0925,-243.8315 -42.6041,-135.732 -28.899,-298.0336 68.9867,-407.281 75.4277,-84.7043 189.2892,-134.38729 302.9569,-128.07524 88.2795,1.17614 180.4647,23.72834 245.6927,86.63944 92.7324,83.8009 134.2779,212.3314 128.4562,335.1719 6.4911,19.7571 -14.4631,12.0689 -26.4218,13.3764 -116.1927,0 -232.3855,0 -348.5782,0 0,-50 0,-100 0,-150 51.58,1.3627 103.4902,8.4295 154.875,1.6465 25.996,-21.2631 -17.7513,-62.2537 -31.8184,-84.2676 -21.3327,-30.2761 -57.6428,-42.7936 -93.4836,-43.2967 -52.9323,-3.5951 -112.4598,1.7483 -150.7578,42.952 -72.3934,70.0448 -95.4241,182.4051 -63.9686,277.1413 14.9574,56.1967 58.7569,101.3818 107.514,130.7813 58.9182,34.8117 137.1911,19.3988 183.9624,-28.7378 30.4933,-15.0697 35.2903,-79.569 74.3489,-65.5159 43.7347,21.6614 90.438,36.1021 135.7246,53.7012 43.6253,19.7712 -14.4638,65.2167 -27.158,89.7788 -59.3637,76.9494 -152.7834,125.4383 -250.1291,127.8481 -41.1738,2.1276 -82.4734,-1.4307 -123.1094,-8.0312 z"
       id="path72"
       style="fill:#29166f;fill-opacity:1" />
    <path
       d="m 10621,1764 c -315.221,-55.1904 -408.501,-544.8526 -128.703,-706.9752 242.231,-173.73261 656.214,1.0656 646.995,315.546 6.002,257.9396 -268.917,476.1204 -518.292,391.4292 z m 164,-177 c 279.816,-51.4099 117.445,-541.7992 -138.27,-400.7453 -227.972,91.6274 -109.664,490.5296 138.27,400.7453 z"
       id="path74"
       style="fill:#29166f;fill-opacity:1" />
    <path
       d="m 11644,1746 c -121.93,-56.756 -176.996,-232.1711 -94.488,-342.4634 66.003,-74.2858 176.377,-71.4918 254.303,-126.1078 49.996,-31.4587 17.546,-99.4981 -28.265,-115.572 -54.705,-28.3094 -113.265,8.5629 -161.081,34.2647 -28.825,38.8766 -76.124,30.9965 -85.572,-17.9672 -15.256,-35.7469 -69.401,-88.65 -20.749,-120.0139 81.222,-38.8003 170.618,-68.73233 262.009,-59.32132 94.34,7.78532 197.209,54.33992 230.9,149.39772 25.929,72.7136 27.447,160.0421 -12.595,227.911 -35.205,48.9169 -97.348,67.181 -151.118,88.2185 -44.549,13.4092 -104.29,22.4805 -123.992,71.2207 -16.971,51.6243 40.222,93.4458 87.691,82.2528 48.041,9.4133 92.187,-59.2787 128.216,-35.1891 24.956,35.8592 39.624,77.9429 62.457,115.2726 -0.711,42.5178 -68.024,43.9006 -101.646,57.3657 -80.62,14.2685 -169.54,28.3956 -246.07,-9.269 z"
       id="path76"
       style="fill:#29166f;fill-opacity:1" />
    <path
       d="m 1030,1390 c 0,-123.6667 0,-247.3333 0,-371 121.1667,4.4145 243.23,-1.7134 363.7686,12.2086 130.8981,33.7033 239.7654,146.3533 267.4813,278.7517 7.2201,86.4605 11.9812,180.8105 -36.0308,257.4506 -45.112,82.7873 -122.8553,142.0406 -208.9155,177.7449 -63.55,22.0772 -135.3515,6.2363 -202.2413,12.8268 -59.2412,-3.0959 -134.6435,10.2365 -184.0623,-2.844 0,-121.7129 0,-243.4257 0,-365.1386 z m 338,188 c 99.9461,-46.5726 126.5188,-177.8186 91.2196,-274.6122 -24.6852,-82.6707 -113.3901,-121.7881 -192.827,-130.1916 -39.6509,-12.4272 -66.7574,-9.011 -56.3926,34.8338 0,134.99 0,269.98 0,404.97 53.6724,-5.3826 109.1499,-10.0573 158,-35 z"
       id="path78"
       style="fill:#29166f;fill-opacity:1" />
    <path
       d="m 2920,1386 c 0,-125.3333 0,-250.6667 0,-376 56.6667,0 113.3333,0 170,0 0.8298,92.1266 -2.3713,184.364 3.411,276.388 52.8096,18.3547 60.0733,-57.43 85.6562,-87.2296 37.3037,-59.0096 70.7283,-120.476 111.3742,-177.3518 64.6988,-20.178 133.1592,-6.3715 199.4451,-13.1825 58.4485,29.4408 -29.255,82.9192 -45.2043,118.4479 -44.4665,56.4015 -90.9206,111.1968 -137.7625,165.6293 -13.6562,60.5118 71.9499,46.1919 95.4004,85.6984 88.7321,103.2885 63.7928,289.3094 -61.0123,352.5287 -76.8884,31.754 -162.4449,22.2644 -243.7151,27.5492 -59.1971,1.1899 -118.415,1.4749 -177.5927,3.5224 0,-125.3333 0,-250.6667 0,-376 z m 283,219 c 73.3772,-21.7907 78.5499,-140.6921 8.4967,-170.5322 -35.9058,-19.0409 -127.3395,-54.4442 -111.3942,17.9617 -0.904,55.8503 0.3373,111.7113 -0.1025,167.5705 34.7742,1.1208 70.6413,-1.1254 103,-15 z"
       id="path80"
       style="fill:#29166f;fill-opacity:1" />
    <path
       d="m 3569,1748 c -4.2863,-239.9766 4.2534,-479.9151 5.4753,-719.8773 52.5212,-29.24989 130.8252,-17.5908 181.7045,-11.0553 -0.422,247.3592 -0.058,495.3295 -0.1798,742.9326 -61.9743,-4.5411 -127.8023,10.618 -187,-12 z"
       id="path82"
       style="fill:#29166f;fill-opacity:1" />
    <path
       d="m 5855,1388 2,-373 94,0 c 94,0 94,0 93,25 -1,14 -5,78 -9,143 -6,97 -4,117 7,117 8,0 52,-64 99,-142 l 85,-143 102,-3 c 84,-2 103,0 108,13 5,13 8,13 27,0 27,-19 160,-21 174,-2 5,6 16,32 23,57 21,71 18,70 163,67 148,-2 141,1 167,-94 l 11,-43 99,0 c 54,0 101,3 103,8 3,4 -3,25 -13,47 -10,22 -31,76 -48,120 -78,204 -139,369 -173,465 l -36,105 -108,0 -108,0 -10,-30 c -9,-30 -81,-221 -97,-260 -4,-11 -22,-56 -38,-100 -65,-173 -115,-300 -122,-308 -6,-7 -156,168 -215,250 -11,16 8,33 38,33 32,0 74,38 98,87 30,62 30,144 1,205 -51,104 -105,124 -345,127 l -174,2 2,-373 z m 266,221 c 52,-18 79,-47 79,-87 0,-52 -31,-88 -90,-102 -27,-6 -55,-10 -62,-8 -17,6 -20,189 -4,200 16,11 38,10 77,-3 z m 728,-126 c 15,-55 29,-99 42,-128 9,-21 12,-42 10,-62 -1,-8 -25,-12 -74,-12 -84,0 -103,8 -89,35 5,11 14,30 20,44 5,14 15,38 21,53 6,15 11,36 11,45 0,25 23,72 35,72 6,0 17,-21 24,-47 z"
       id="path84"
       style="fill:#29166f;fill-opacity:1" />
    <path
       d="m 7252,1388 3,-373 94,-3 94,-3 -7,230 c -3,126 -3,232 1,234 5,3 68,-74 140,-171 73,-98 153,-203 178,-234 l 45,-58 95,0 95,0 0,375 0,376 -97,-3 -98,-3 4,-221 c 3,-217 -3,-263 -28,-217 -11,21 -132,184 -249,336 l -84,107 -94,0 -94,0 2,-372 z"
       id="path86"
       style="fill:#29166f;fill-opacity:1" />
    <path
       d="m 8100,1390 c 0,-123.6667 0,-247.3333 0,-371 135.5239,9.0921 275.9373,-12.491 407.6363,26.7822 145.1881,57.1152 245.1674,212.8876 228.4969,369.3242 -1.0808,166.386 -142.4697,315.6828 -303.7147,341.1467 -109.135,-2.4866 -231.4074,9.6014 -332.4185,-0.1414 0,-122.0372 0,-244.0745 0,-366.1117 z m 338,188 c 149.0699,-72.5508 141.3904,-330.4249 -19.4151,-384.476 -61.8776,-24.3746 -171.2562,-53.1292 -138.6797,52.9964 0.247,122.1412 0.013,244.3213 0.095,366.4796 53.6453,-5.3758 109.1906,-10.0688 158,-35 z"
       id="path88"
       style="fill:#29166f;fill-opacity:1" />
    <path
       d="m 8830,1390 0,-370 210,0 210,0 0,80 0,80 -120,0 -120,0 0,70 0,70 110,0 110,0 0,75 0,75 -110,0 -110,0 0,70 0,70 120,0 120,0 0,75 0,75 -210,0 -210,0 0,-370 z"
       id="path90"
       style="fill:#29166f;fill-opacity:1" />
    <path
       d="m 9620,1390 c 0,-123.6667 0,-247.3333 0,-371 126.384,6.1232 254.625,-5.4603 379.6011,16.8704 151.8299,46.3255 268.6749,199.3129 256.0679,360.2915 5.68,101.2685 -40.401,199.4359 -115.728,265.9786 -60.619,51.468 -135.275,101.1427 -218.2307,93.985 -100.5647,1.9527 -201.1466,2.8606 -301.7103,4.8745 0,-123.6667 0,-247.3333 0,-371 z m 338,188 c 128.371,-62.6174 142.263,-266.0692 35.0592,-354.5032 -53.8637,-39.704 -123.3452,-53.205 -188.8314,-54.4923 -8.945,39.0878 -2.1205,83.4943 -4.2278,125.001 0,106.3315 0,212.663 0,318.9945 53.6453,-5.3759 109.1906,-10.0687 158,-35 z"
       id="path92"
       style="fill:#29166f;fill-opacity:1" />
    <path
       d="m 12100,1565 c 4.651,-141.4168 -6.223,-288.3198 40.747,-423.8605 75.412,-132.8074 255.579,-170.04841 393.892,-129.5701 122.002,38.0745 215.337,157.0241 209.634,286.9476 11.003,153.9452 3.421,308.3346 5.727,462.483 -68.955,-15.211 -219.566,38.3381 -193.842,-81.384 -1.089,-146.3468 16.786,-295.6823 -9.192,-440.0506 -49.967,-116.9998 -247.158,-89.394 -252.647,42.5404 -10.195,128.0327 -0.515,257.239 -0.616,385.7744 7.603,58.5999 8.139,104.1126 -62.623,88.3142 -48.343,4.3647 -151.003,25.3217 -131.08,-52.447 0,-46.2492 0,-92.4983 0,-138.7474 z"
       id="path94"
       style="fill:#29166f;fill-opacity:1" />
    <path
       d="m 12860,1758 c -0.499,-247.6663 -1.333,-495.3328 -1,-743 142,0 284,0 426,0 0,53.3333 0,106.6667 0,160 -79,-2.0133 -158,-4.0131 -237,-6 2,195.3333 4,390.6667 6,586 -64.649,1.6868 -129.317,5.2234 -194,3 z"
       id="path96"
       style="fill:#29166f;fill-opacity:1" />
  </g>
</svg>
