<?xml version="1.0" encoding="UTF-8" standalone="no"?>
<svg xmlns:rdf="http://www.w3.org/1999/02/22-rdf-syntax-ns#" xmlns="http://www.w3.org/2000/svg" xml:space="preserve" height="104.1" viewBox="0 0 104.10125 104.10125" width="104.1" version="1.1" xmlns:cc="http://creativecommons.org/ns#" xmlns:dc="http://purl.org/dc/elements/1.1/"><g transform="matrix(1.25 0 0 -1.25 -561.37 575.09)"><g><ellipse rx="40.278" ry="40.202" transform="scale(1,-1)" cy="-418.35" cx="490.73" fill="#fff"/><path d="m490.84 459.23c-22.519 0-40.841-18.322-40.841-40.842 0-22.514 18.314-40.83 40.827-40.839h0.0297c22.507 0.009 40.817 18.318 40.825 40.825v0.0297c-0.008 22.513-18.326 40.827-40.841 40.827zm0-0.79531c22.081 0 40.047-17.965 40.047-40.047 0-22.081-17.966-40.044-40.047-40.044s-40.045 17.963-40.045 40.044c0 22.082 17.964 40.047 40.045 40.047zm0-2.0469c-20.986 0-37.998-17.013-37.998-38 0-20.986 17.012-37.998 37.998-37.998 20.988 0 38 17.012 38 37.998 0 20.987-17.012 38-38 38zm-0.0734-0.41874h0.26562c0.176 0 0.31875-0.14219 0.31875-0.31719v-0.22031c0-0.176-0.14275-0.31719-0.31875-0.31719h-0.26562c-0.175 0-0.31719 0.14119-0.31719 0.31719v0.22031c0 0.175 0.14219 0.31719 0.31719 0.31719zm1.1906-0.008 0.26563-0.009c0.175-0.006 0.31281-0.15368 0.30781-0.32968l-0.008-0.21719c-0.007-0.176-0.15369-0.31381-0.32969-0.30781l-0.26562 0.008c-0.174 0.007-0.31225 0.15625-0.30625 0.33125l0.008 0.21875c0.006 0.176 0.15212 0.31325 0.32812 0.30625zm-2.2375-0.0109c0.176 0.006 0.32269-0.13025 0.32969-0.30625l0.006-0.21875c0.007-0.176-0.13125-0.32269-0.30625-0.32969l-0.26562-0.009c-0.175-0.006-0.32213 0.13125-0.32813 0.30625l-0.008 0.21875c-0.006 0.176 0.13281 0.32469 0.30781 0.32969l0.26407 0.009zm3.5516-0.05 0.26407-0.0203c0.175-0.012 0.30831-0.16406 0.29531-0.33906l-0.0141-0.21875c-0.013-0.174-0.16462-0.30575-0.34062-0.29375l-0.26407 0.0188c-0.175 0.012-0.30731 0.16406-0.29531 0.33906l0.0156 0.21875c0.012 0.175 0.16407 0.30731 0.33907 0.29531zm-4.8641-0.0156c0.175 0.012 0.32806-0.11975 0.33906-0.29375l0.0156-0.21875c0.013-0.176-0.12031-0.32863-0.29531-0.34062l-0.26406-0.0172c-0.175-0.012-0.32806 0.11875-0.33906 0.29375l-0.0156 0.21875c-0.013 0.175 0.11931 0.32606 0.29531 0.33906l0.26407 0.0188zm6.175-0.0937 0.26406-0.0266c0.175-0.019 0.30082-0.176 0.28282-0.35l-0.0234-0.21875c-0.018-0.174-0.17344-0.30081-0.34844-0.28281l-0.26406 0.0281c-0.174 0.019-0.29982 0.17443-0.28281 0.34843l0.0234 0.21875c0.018 0.174 0.17443 0.29982 0.34843 0.28282zm-7.4859-0.0172c0.174 0.018 0.331-0.10938 0.35-0.28438l0.0219-0.21718c0.018-0.174-0.10881-0.332-0.28281-0.35l-0.26406-0.0266c-0.175-0.019-0.332 0.10881-0.35 0.28281l-0.0219 0.21719c-0.018 0.176 0.10781 0.33044 0.28281 0.34844l0.26406 0.0297zm8.7922-0.13438 0.2625-0.0391c0.173-0.024 0.29431-0.18481 0.27031-0.35781l-0.0297-0.21719c-0.025-0.17399-0.18538-0.29631-0.35938-0.27031l-0.26406 0.0359c-0.173 0.024-0.29375 0.18538-0.26875 0.35938l0.0297 0.21562c0.025 0.174 0.18538 0.29644 0.35938 0.27344zm-10.097-0.025c0.174 0.024 0.33438-0.0963 0.35938-0.27031l0.0297-0.21719c0.024-0.173-0.0963-0.33438-0.27031-0.35938l-0.2625-0.0359c-0.174-0.025-0.33437 0.0963-0.35937 0.27032l-0.0312 0.21718c-0.024 0.174 0.0973 0.33538 0.27031 0.35938l0.26406 0.0359zm11.397-0.175 0.26093-0.0453c0.173-0.03 0.28881-0.19575 0.25781-0.36875l-0.0391-0.21562c-0.029-0.173-0.19419-0.28881-0.36719-0.25781l-0.26093 0.0453c-0.173 0.031-0.28882 0.19575-0.25782 0.36875l0.0375 0.21563c0.031 0.173 0.19575 0.28881 0.36875 0.25781zm-12.697-0.0281c0.174 0.031 0.33875-0.0848 0.36875-0.25781l0.0375-0.21719c0.03-0.173-0.0848-0.33618-0.25782-0.36718l-0.26249-0.0469c-0.173-0.031-0.33619 0.0848-0.36719 0.25781l-0.0391 0.21719c-0.03 0.172 0.0864 0.33719 0.25937 0.36719l0.26094 0.0469zm13.864-0.21562c0.0405 0.008 0.0836 0.008 0.12656-0.002l0.25938-0.0547c0.17-0.036 0.27975-0.20456 0.24375-0.37656l-0.0437-0.21407c-0.037-0.172-0.20712-0.28175-0.37812-0.24375l-0.25782 0.0531c-0.172 0.037-0.28231 0.20612-0.24531 0.37812l0.0453 0.21406c0.0277 0.12975 0.12846 0.22216 0.25 0.24532zm-15.03-0.0328c0.12178-0.0233 0.223-0.11706 0.25-0.24531l0.0453-0.21406c0.037-0.172-0.0728-0.34113-0.24375-0.37813l-0.26094-0.0547c-0.171-0.037-0.34112 0.0728-0.37812 0.24375l-0.0453 0.21562c-0.036 0.172 0.0743 0.339 0.24532 0.375l0.26093 0.0562c0.043 0.009 0.086 0.009 0.12657 0.002zm16.312-0.25c0.0408 0.006 0.0841 0.004 0.12656-0.006l0.25625-0.0656c0.17-0.042 0.27425-0.21537 0.23125-0.38437l-0.0516-0.2125c-0.042-0.17-0.21438-0.27325-0.38438-0.23125l-0.25781 0.0641c-0.171 0.042-0.27325 0.21437-0.23125 0.38437l0.0531 0.21407c0.0315 0.1275 0.13547 0.218 0.25781 0.2375zm-17.595-0.0406c0.12263-0.0191 0.22788-0.10844 0.25938-0.23594l0.0531-0.2125c0.043-0.171-0.0618-0.3435-0.23282-0.3875l-0.25625-0.0625c-0.171-0.043-0.34394 0.0602-0.38594 0.23125l-0.0531 0.2125c-0.043 0.17 0.0612 0.34294 0.23125 0.38594l0.25782 0.0625c0.0425 0.0107 0.0857 0.0126 0.12656 0.006zm8.7969-0.18281c20.049 0 36.302-16.253 36.302-36.302 0-20.048-16.253-36.302-36.302-36.302-20.048 0-36.3 16.254-36.3 36.302 0 20.049 16.252 36.302 36.3 36.302zm10.072-0.10781c0.0408 0.005 0.083 0.003 0.125-0.009l0.25625-0.075c0.168-0.048 0.26519-0.22219 0.21719-0.39219l-0.0594-0.21094c-0.049-0.169-0.22475-0.26618-0.39375-0.21718l-0.25468 0.0734c-0.169 0.048-0.26575 0.22319-0.21875 0.39219l0.0594 0.21094c0.0375 0.1275 0.14632 0.21313 0.26875 0.22813zm-20.141-0.0422c0.12304-0.0153 0.23119-0.10219 0.26719-0.22969l0.0609-0.20937c0.048-0.169-0.0482-0.34419-0.21719-0.39219l-0.25625-0.0734c-0.168-0.05-0.34418 0.0487-0.39218 0.21875l-0.0609 0.20938c-0.048 0.169 0.0498 0.34475 0.21875 0.39375l0.25469 0.0734c0.0423 0.012 0.084 0.0145 0.125 0.009zm21.402-0.33125c0.0411 0.004 0.0848-0.00056 0.12656-0.0141l0.25157-0.0828c0.168-0.054 0.25868-0.232 0.20468-0.4l-0.0672-0.20781c-0.054-0.168-0.234-0.25869-0.4-0.20469l-0.25313 0.0813c-0.166 0.056-0.25869 0.23356-0.20469 0.40157l0.0672 0.20781c0.0412 0.12525 0.15162 0.20783 0.275 0.21875zm-22.659-0.0469c0.12318-0.0105 0.2345-0.0951 0.275-0.22031l0.0672-0.20781c0.055-0.167-0.0367-0.346-0.20469-0.4l-0.25156-0.0812c-0.167-0.055-0.34656 0.0361-0.40156 0.20312l-0.0672 0.20938c-0.055 0.167 0.0371 0.346 0.20313 0.4l0.25469 0.0812c0.0415 0.0138 0.0839 0.0191 0.125 0.0156zm11.327-0.17187c-19.63 0-35.602-15.971-35.602-35.602 0-19.63 15.972-35.6 35.602-35.6 19.631 0 35.602 15.97 35.602 35.6 0 19.631-15.971 35.602-35.602 35.602zm12.58-0.19844c0.0413 0.002 0.0838-0.004 0.125-0.0188l0.24844-0.0906c0.165-0.06 0.25063-0.24182 0.19063-0.40782l-0.075-0.20468c-0.059-0.165-0.24225-0.25163-0.40625-0.19063l-0.25 0.0906c-0.165 0.061-0.24906 0.24281-0.18906 0.40781l0.075 0.20625c0.0442 0.12375 0.1574 0.20148 0.28124 0.20781zm-25.152-0.0531c0.12361-0.006 0.23625-0.0841 0.28125-0.20782l0.0766-0.20625c0.06-0.165-0.0256-0.34781-0.19062-0.40781l-0.25-0.0906c-0.164-0.06-0.34781 0.0266-0.40781 0.19062l-0.075 0.20625c-0.06 0.165 0.0256 0.34625 0.19062 0.40625l0.25 0.0906c0.0412 0.015 0.0838 0.0208 0.125 0.0187zm12.572-0.225c19.367 0 35.123-15.756 35.123-35.125 0-19.368-15.756-35.123-35.123-35.123s-35.123 15.755-35.123 35.123c0 19.369 15.756 35.125 35.123 35.125zm13.809-0.18125c0.0412 0.00065 0.0845-0.007 0.125-0.0234l0.24688-0.1c0.163-0.065 0.241-0.25006 0.175-0.41406l-0.0813-0.20157c-0.066-0.163-0.25106-0.24256-0.41406-0.17656l-0.24532 0.1c-0.162 0.066-0.241 0.25106-0.175 0.41406l0.0797 0.20313c0.0487 0.1215 0.16536 0.19647 0.28906 0.19844zm-27.611-0.0578c0.12389-0.002 0.24112-0.0769 0.29062-0.19843l0.0813-0.20313c0.066-0.164-0.013-0.34906-0.175-0.41406l-0.24687-0.1c-0.163-0.067-0.34807 0.013-0.41407 0.175l-0.0828 0.20312c-0.065 0.162 0.0136 0.34807 0.17656 0.41406l0.24688 0.1c0.0408 0.0163 0.0821 0.0242 0.12344 0.0234zm28.827-0.44531c0.0412-0.00072 0.0834-0.0104 0.12344-0.0281l0.24218-0.10938c0.161-0.07 0.23194-0.25775 0.16094-0.41875l-0.0891-0.2c-0.071-0.16-0.26032-0.23294-0.42032-0.16094l-0.24062 0.10782c-0.16 0.071-0.23194 0.25931-0.16094 0.42031l0.0875 0.2c0.054 0.12075 0.17341 0.19122 0.29688 0.18906zm-30.041-0.0625c0.12399 0.002 0.24363-0.0683 0.29688-0.18906l0.0891-0.19844c0.071-0.16-0.00096-0.34931-0.16094-0.42031l-0.24219-0.10782c-0.161-0.071-0.34931-0.00006-0.42031 0.16094l-0.0906 0.2c-0.071 0.161 0.00096 0.34775 0.16093 0.41875l0.24376 0.10938c0.04 0.0178 0.0821 0.0258 0.12343 0.0266zm31.236-0.48437c0.0411-0.002 0.0826-0.012 0.12187-0.0313l0.23907-0.11718c0.157-0.077 0.22287-0.267 0.14687-0.425l-0.0969-0.19688c-0.076-0.157-0.266-0.22287-0.425-0.14687l-0.2375 0.11875c-0.159 0.075-0.22388 0.26544-0.14688 0.42344l0.0953 0.19843c0.0578 0.11775 0.17985 0.18341 0.30313 0.17656zm-32.43-0.0656c0.12375 0.006 0.24619-0.0604 0.30469-0.17812l0.0953-0.19688c0.077-0.158 0.0111-0.348-0.14687-0.425l-0.2375-0.11562c-0.159-0.078-0.34957-0.0132-0.42657 0.14375l-0.0953 0.19843c-0.077 0.157-0.0127 0.348 0.14531 0.425l0.23907 0.11719c0.0395 0.019 0.0806 0.0292 0.12187 0.0312zm33.606-0.52031c0.041-0.004 0.0818-0.0154 0.12031-0.0359l0.23438-0.12344c0.156-0.083 0.21425-0.27525 0.13125-0.43125l-0.10313-0.19375c-0.082-0.154-0.27412-0.21325-0.42812-0.13125l-0.23594 0.12344c-0.155 0.083-0.21325 0.27681-0.13125 0.43281l0.10313 0.19219c0.0615 0.117 0.18628 0.17816 0.30937 0.16719zm-34.78-0.0703c0.12347 0.0112 0.24707-0.0509 0.30782-0.16719l0.10312-0.19219c0.082-0.156 0.0243-0.34725-0.12968-0.43125l-0.23594-0.12344c-0.155-0.082-0.34669-0.0238-0.42969 0.13125l-0.10313 0.19219c-0.083 0.157-0.0228 0.34869 0.13126 0.42969l0.23437 0.125c0.0388 0.0208 0.0807 0.0322 0.12187 0.0359zm14.981-0.1625-0.005-0.2875 0.0813-0.002c0.144-0.003 0.36887-0.0473 0.49687-0.22032l-0.0656-3.7203c-0.005-0.287-0.0561-0.42331-0.66407-0.42031l-0.005-0.2875c0.315 0.015 0.63782 0.0316 0.88282 0.0266 0.247-0.005 0.56725-0.0303 0.88125-0.0563l0.005 0.28594c-0.607 0.018-0.65344 0.15675-0.64844 0.44375l0.0563 3.2344h0.0141l3.0828-4.0094 0.56094-0.008 0.0734 4.2188c0.005 0.288 0.0563 0.42187 0.52031 0.42187l0.005 0.2875c-0.171-0.018-0.49206-0.0331-0.73906-0.0281-0.246 0.004-0.56825 0.0292-0.88125 0.0562l-0.005-0.2875c0.608-0.017 0.654-0.15575 0.65-0.44375l-0.0422-2.4188h-0.0156l-2.475 3.1828c-0.301-0.015-0.59606-0.0316-0.88906-0.0266-0.287 0.005-0.581 0.0318-0.875 0.0578zm8.0422-0.37344c-1.289 0.0521-2.2148-0.65169-2.4922-2.0797-0.317-1.631 0.50562-2.7039 2.0906-3.0109 1.584-0.308 2.7481 0.37738 3.0641 2.0094 0.318 1.63-0.50506 2.7035-2.0891 3.0125-0.19812 0.0384-0.3893 0.0613-0.57344 0.0688zm12.909-0.0219c0.041-0.005 0.0823-0.0171 0.12031-0.0391l0.22813-0.13437c0.152-0.088 0.20518-0.28181 0.11718-0.43281l-0.10937-0.18907c-0.088-0.153-0.28138-0.20519-0.43438-0.11719l-0.22969 0.13281c-0.152 0.088-0.20362 0.28238-0.11562 0.43438l0.10781 0.18906c0.066 0.114 0.19253 0.17163 0.31563 0.15625zm-37.088-0.0734c0.1229 0.0152 0.25037-0.0407 0.31562-0.15469l0.10938-0.19063c0.088-0.152 0.0358-0.34737-0.11719-0.43437l-0.22969-0.13281c-0.152-0.088-0.34637-0.0364-0.43437 0.11562l-0.10938 0.19063c-0.088 0.152-0.0348 0.34637 0.11719 0.43437l0.22969 0.13281c0.0377 0.0218 0.0778 0.034 0.11875 0.0391zm12.203-0.0469c-0.619-0.176-1.2317-0.34812-1.8547-0.50312-0.618-0.154-1.2394-0.28931-1.8484-0.42031l0.0703-0.27813c0.532 0.126 0.61069 0.006 0.67969-0.27344l0.84844-3.3984c0.069-0.279 0.0555-0.42388-0.5125-0.57188l0.0688-0.27812c0.413 0.125 0.83212 0.24918 1.2031 0.34218 0.372 0.092 0.84919 0.19069 1.2922 0.27969l-0.0703 0.27813c-0.678-0.163-0.75756-0.0399-0.82656 0.23906l-0.38282 1.5328 0.625 0.15469c0.445 0.11 0.676 0.0846 0.8-0.38438l0.05-0.2 0.27813 0.0688c-0.073 0.208-0.171 0.51537-0.25 0.83437s-0.13731 0.63556-0.17031 0.85156l-0.27813-0.0688c0.137-0.551-0.0325-0.66387-0.5625-0.79687l-0.57187-0.14219-0.41875 1.6797c-0.05 0.206 0.14787 0.25469 0.44687 0.32969 0.69 0.172 1.1602 0.26143 1.4062-0.55157l0.33125 0.0828c-0.103 0.299-0.25413 0.79675-0.35313 1.1938zm12.1-0.30937c0.11513 0.0114 0.23782 0.005 0.37032-0.0203 1.059-0.207 1.1114-1.3789 0.92343-2.3469-0.188-0.966-0.67337-2.0357-1.7344-1.8297-1.061 0.205-1.112 1.3799-0.925 2.3469 0.16537 0.84612 0.55971 1.7702 1.3656 1.85zm13.916-0.2375c0.0407-0.006 0.0815-0.0221 0.11875-0.0453l0.22656-0.13907c0.148-0.094 0.194-0.29006 0.1-0.43906l-0.11719-0.18594c-0.093-0.15-0.28693-0.19356-0.43593-0.10156l-0.225 0.14063c-0.149 0.093-0.19457 0.2895-0.10157 0.4375l0.11563 0.1875c0.0697 0.111 0.19668 0.16467 0.31875 0.14531zm-39.348-0.0766c0.12263 0.0196 0.25056-0.0336 0.32031-0.14531l0.11719-0.18594c0.093-0.149 0.0474-0.3435-0.10156-0.4375l-0.225-0.14063c-0.15-0.093-0.3445-0.0474-0.4375 0.10157l-0.11563 0.18437c-0.093 0.15-0.048 0.34606 0.1 0.43906l0.225 0.14063c0.0372 0.0233 0.0763 0.0372 0.11719 0.0437zm29.055-0.24063-0.1-0.26875c0.51-0.199 0.50725-0.3445 0.40625-0.6125l-1.2328-3.2766c-0.102-0.269-0.19307-0.37994-0.66407-0.21094l-0.10156-0.27031c0.335-0.103 0.72037-0.2255 1.0844-0.3625 0.364-0.138 0.73594-0.29819 1.0609-0.44219l0.10156 0.26875c-0.472 0.184-0.46874 0.32944-0.36874 0.59844l0.51406 1.3625 0.39687-0.14844c0.166-0.064 0.27144-0.13143 0.37344-1.5734 0.042-0.607 0.11925-0.965 0.30625-1.05l1.1359-0.51407 0.10156 0.26719c-0.245 0.108-0.28569 0.17513-0.45469 1.2031-0.086 0.529-0.13556 1.1749-0.60156 1.5469l0.003 0.0141c0.697-0.072 1.3662 0.17256 1.6312 0.87656 0.341 0.91-0.48012 1.4233-1.2031 1.6953-0.397 0.149-0.80807 0.26006-1.2891 0.43906-0.364 0.138-0.736 0.29782-1.1 0.45782zm11.283-0.38906c0.0796 0.0154 0.165 0.00056 0.2375-0.0484l0.22031-0.14844c0.145-0.098 0.1855-0.29562 0.0875-0.44062l-0.12344-0.18125c-0.098-0.145-0.29518-0.18394-0.44218-0.0859l-0.21875 0.14844c-0.145 0.098-0.18494 0.29462-0.0859 0.44062l0.12187 0.18282c0.049 0.0725 0.1235 0.11743 0.20313 0.13281zm-41.442-0.0797c0.12188 0.0238 0.2515-0.0249 0.325-0.13437l0.12344-0.18125c0.098-0.146 0.0591-0.34319-0.0859-0.44219l-0.22031-0.14844c-0.146-0.099-0.34319-0.0601-0.44219 0.0859l-0.12187 0.18125c-0.099 0.146-0.0601 0.34319 0.0859 0.44219l0.22032 0.14844c0.0365 0.0245 0.075 0.0405 0.11562 0.0484zm31.702-0.50468 0.40938-0.15469c0.575-0.216 0.76656-0.63869 0.52656-1.2797-0.24-0.64-0.66206-0.83006-1.2391-0.61406l-0.40938 0.15312 0.7125 1.8953zm-23.286-0.0125c-0.33869-0.0304-0.69557-0.12818-1.0641-0.29218-1.475-0.656-2.0354-1.8857-1.3594-3.4047 0.675-1.518 1.9641-1.9258 3.4391-1.2688 1.475 0.656 2.0354 1.8877 1.3594 3.4047-0.507 1.1385-1.3589 1.6521-2.375 1.5609zm34.109-0.14375c0.0804 0.0127 0.166-0.005 0.2375-0.0562l0.21563-0.15625c0.142-0.102 0.17331-0.30175 0.0703-0.44375l-0.12969-0.17656c-0.103-0.143-0.30175-0.17331-0.44375-0.0703l-0.21562 0.15469c-0.142 0.102-0.17332 0.30275-0.0703 0.44375l0.12969 0.17968c0.051 0.0705 0.12588 0.11226 0.20625 0.125zm-43.483-0.0859c0.0805-0.0129 0.15581-0.0556 0.20781-0.12657l0.12813-0.17656c0.103-0.141 0.0711-0.34075-0.0719-0.44375l-0.21407-0.15625c-0.142-0.104-0.34075-0.0727-0.44375 0.0703l-0.12812 0.17656c-0.103 0.142-0.0722 0.34175 0.0688 0.44375l0.21562 0.15625c0.071 0.0515 0.15701 0.0691 0.23751 0.0562zm8.8328-0.33438c0.80421 0.10389 1.3953-0.70869 1.7453-1.4953 0.4-0.9 0.61512-2.0538-0.37188-2.4938-0.988-0.439-1.7021 0.49319-2.1031 1.3922-0.401 0.9-0.61513 2.0548 0.37187 2.4938 0.1235 0.055 0.24293 0.0883 0.35781 0.10312zm27.233-0.28594-0.65469-1.05 0.26562-0.15625c0.389 0.55 0.82325 0.48182 1.2562 0.23282l0.24219-0.14063-1.9047-3.2984c-0.143-0.25-0.25362-0.34262-0.79062-0.0406l-0.14219-0.25c0.413-0.214 0.77137-0.39875 1.1094-0.59375 0.337-0.195 0.67776-0.41406 1.0688-0.66406l0.14531 0.24843c-0.53 0.314-0.50338 0.45513-0.35938 0.70313l1.9031 3.3 0.24375-0.13906c0.433-0.25 0.70856-0.59213 0.42656-1.2031l0.26719-0.15312 0.58437 1.0922c-0.604 0.324-1.1996 0.64432-1.8516 1.0203-0.651 0.376-1.2274 0.73318-1.8094 1.0922zm8.475-0.0719c0.0806 0.01 0.16537-0.0101 0.23437-0.0641l0.20781-0.16407c0.139-0.109 0.16425-0.30787 0.0562-0.44687l-0.13594-0.17188c-0.108-0.139-0.30731-0.16268-0.44531-0.0547l-0.20938 0.1625c-0.137 0.108-0.16112 0.30887-0.0531 0.44687l0.13437 0.17188c0.0535 0.0695 0.13031 0.11043 0.21094 0.12031zm-45.595-0.0891c0.0809-0.01 0.158-0.0508 0.2125-0.12031l0.13438-0.17188c0.108-0.138 0.0833-0.33887-0.0547-0.44687l-0.20937-0.1625c-0.139-0.10901-0.33888-0.0833-0.44688 0.0547l-0.13438 0.17187c-0.108 0.139-0.0843 0.33888 0.0547 0.44688l0.20938 0.16406c0.069 0.0535 0.1535 0.0741 0.23437 0.0641zm46.625-0.725c0.081 0.007 0.16425-0.0154 0.23125-0.0719l0.20313-0.17188c0.136-0.112 0.15362-0.31444 0.0406-0.44844l-0.14219-0.16718c-0.112-0.134-0.31187-0.15207-0.44687-0.0391l-0.20313 0.17032c-0.135 0.113-0.15206 0.31187-0.0391 0.44687l0.13906 0.17031c0.057 0.067 0.13619 0.10382 0.21719 0.11094zm-47.652-0.0937c0.0811-0.007 0.15912-0.0455 0.21562-0.1125l0.14063-0.16719c0.113-0.135 0.0949-0.33544-0.0391-0.44844l-0.20313-0.17031c-0.135-0.112-0.33487-0.0959-0.44687 0.0391l-0.14063 0.16874c-0.113 0.134-0.0975 0.33388 0.0375 0.44688l0.20312 0.17031c0.067 0.0565 0.15169 0.0806 0.23282 0.0734zm48.652-0.75625c0.0812 0.004 0.16313-0.0222 0.22813-0.0813l0.19687-0.17656c0.131-0.118 0.143-0.319 0.025-0.45l-0.14844-0.1625c-0.118-0.131-0.31787-0.142-0.44687-0.025l-0.19844 0.17812c-0.13 0.117-0.14143 0.31844-0.0234 0.44844l0.14688 0.1625c0.059 0.066 0.13906 0.102 0.22031 0.10625zm-49.65-0.0969c0.0813-0.004 0.16132-0.0397 0.22032-0.10468l0.14687-0.1625c0.117-0.13 0.106-0.332-0.025-0.45l-0.19687-0.17657c-0.131-0.118-0.33144-0.10756-0.44844 0.0234l-0.14688 0.1625c-0.118 0.131-0.10656 0.33144 0.0234 0.44844l0.19844 0.17813c0.065 0.059 0.14688 0.0855 0.22812 0.0813zm43-0.35468-0.17187-0.23125c0.432-0.334 0.38762-0.47257 0.21562-0.70157l-2.1078-2.7969c-0.173-0.23-0.29338-0.30894-0.73438 0.0141l-0.17343-0.22969c0.331-0.222 0.66556-0.44881 0.97656-0.68281 0.312-0.235 0.621-0.494 0.925-0.75l0.17187 0.22969c-0.432 0.335-0.38762 0.47412-0.21562 0.70312l1.025 1.3609 1.7266-1.3016-1.025-1.3594c-0.172-0.229-0.29237-0.30893-0.73437 0.0141l-0.17344-0.22969c0.329-0.223 0.663-0.44937 0.975-0.68437 0.312-0.234 0.62256-0.49344 0.92656-0.74844l0.17344 0.22969c-0.433 0.335-0.39119 0.47312-0.21719 0.70312l2.1078 2.7953c0.172 0.23 0.29437 0.31094 0.73437-0.0141l0.17187 0.22969c-0.328 0.222-0.663 0.44781-0.975 0.68281-0.31 0.235-0.62 0.495-0.925 0.75l-0.17187-0.23125c0.433-0.334 0.38963-0.47156 0.21563-0.70156l-0.83594-1.1078-1.725 1.3 0.83437 1.1094c0.173 0.229 0.29394 0.3095 0.73594-0.0125l0.17187 0.22656c-0.329 0.222-0.664 0.44937-0.975 0.68437-0.312 0.234-0.62156 0.495-0.92656 0.75zm-36.778-0.27188c-0.166-0.155-0.36325-0.33494-0.55625-0.48594-0.189-0.148-0.45013-0.32612-0.67813-0.47812l0.17813-0.225 0.22031 0.17187c0.178 0.139 0.24306 0.11157 0.28906 0.0516 0.042-0.053 0.0771-0.16437 0.12813-0.58437l0.1875-1.5641-1.6328 0.63437c-0.273 0.106-0.32763 0.14263-0.36563 0.19063-0.033 0.043-0.0831 0.11881 0.16094 0.30781l0.225 0.17656-0.17813 0.22656c-0.299-0.26-0.59325-0.51693-0.90625-0.76093-0.334-0.261-0.68019-0.50619-1.0172-0.74219l0.17813-0.22656c0.257 0.192 0.29319 0.21212 0.66719 0.0781l2.3266-0.81093 0.92969-1.1922c0.178-0.226 0.22287-0.36256-0.32813-0.80156l0.17813-0.22657c0.424 0.357 0.72993 0.6215 1.0359 0.8625 0.308 0.24 0.6385 0.47188 1.0875 0.79688l-0.17656 0.22656c-0.559-0.429-0.68181-0.351-0.85781-0.125l-0.91094 1.1641-0.2625 2.3828c-0.045 0.423-0.0297 0.50512 0.25625 0.72812l-0.17812 0.225zm44.397-0.16094c0.0814 0.002 0.16307-0.0281 0.22657-0.0891l0.18906-0.18437c0.127-0.122 0.13137-0.323 0.009-0.45l-0.15312-0.15625c-0.123-0.127-0.323-0.13038-0.45-0.009l-0.18907 0.18437c-0.126 0.122-0.12981 0.323-0.008 0.45l0.15157 0.15781c0.061 0.063 0.14206 0.0954 0.22343 0.0969zm-51.584-0.0984c0.0815-0.002 0.16244-0.0354 0.22344-0.0984l0.15156-0.15625c0.122-0.127 0.11818-0.327-0.008-0.45l-0.1906-0.18438c-0.126-0.122-0.329-0.11919-0.45 0.008l-0.15156 0.15625c-0.123 0.127-0.11975 0.32956 0.006 0.45156l0.19219 0.18438c0.063 0.061 0.14506 0.0906 0.22656 0.0891zm52.52-0.81875c0.0814-0.001 0.1635-0.0349 0.225-0.0984l0.18281-0.19063c0.122-0.126 0.11819-0.32743-0.008-0.44843l-0.15781-0.15313c-0.125-0.122-0.32644-0.11819-0.44844 0.008l-0.18594 0.19219c-0.121 0.126-0.11662 0.327 0.009 0.45l0.15781 0.15c0.063 0.061 0.14363 0.092 0.225 0.0906zm-53.456-0.10157c0.0812 0.002 0.16356-0.0281 0.22656-0.0891l0.15782-0.15312c0.127-0.122 0.12981-0.32244 0.008-0.44844l-0.18594-0.19063c-0.122-0.126-0.32144-0.13081-0.44844-0.008l-0.15781 0.15157c-0.126 0.123-0.12981 0.323-0.008 0.45l0.18437 0.19062c0.061 0.0635 0.14219 0.0953 0.22344 0.0969zm26.553-0.1625c-14.368 0-26.058-11.689-26.058-26.058 0-14.367 11.69-26.055 26.058-26.055s26.058 11.688 26.058 26.055c0 14.369-11.69 26.058-26.058 26.058zm0-0.47656c14.106 0 25.581-11.475 25.581-25.581 0-14.104-11.475-25.58-25.581-25.58-14.105 0-25.58 11.476-25.58 25.58 0 14.106 11.475 25.581 25.58 25.581zm27.809-0.20938c0.081-0.004 0.16025-0.0392 0.21875-0.10469l0.17813-0.19687c0.118-0.13 0.106-0.333-0.025-0.45l-0.16094-0.14532c-0.131-0.119-0.333-0.10756-0.45 0.0234l-0.17656 0.19688c-0.117 0.13-0.10657 0.33044 0.0234 0.44844l0.1625 0.14687c0.0655 0.0585 0.14868 0.0855 0.22968 0.0813zm-55.266-0.10469c0.0812 0.004 0.16418-0.0223 0.22968-0.0813l0.1625-0.14531c0.131-0.118 0.142-0.319 0.025-0.45l-0.17812-0.19531c-0.118-0.13-0.31844-0.141-0.44844-0.025l-0.16406 0.14687c-0.13 0.117-0.13988 0.319-0.0219 0.45l0.17656 0.19688c0.0585 0.065 0.1375 0.0991 0.21875 0.10312zm27.456-0.32812c-13.751 0-24.939-11.186-24.939-24.939 0-13.75 11.188-24.939 24.939-24.939 13.752 0 24.938 11.189 24.938 24.939 0 13.753-11.186 24.939-24.938 24.939zm0-0.47657c13.488 0 24.461-10.974 24.461-24.462 0-13.487-10.973-24.461-24.461-24.461-13.489 0-24.462 10.974-24.462 24.461 0 13.489 10.974 24.462 24.462 24.462zm28.681-0.0719c0.081-0.007 0.15962-0.045 0.21562-0.1125l0.17031-0.20468c0.114-0.134 0.0959-0.33388-0.0391-0.44688l-0.16719-0.14062c-0.136-0.114-0.33544-0.0959-0.44844 0.0391l-0.17031 0.20313c-0.113 0.135-0.0949 0.33543 0.0391 0.44843l0.16874 0.14063c0.067 0.0565 0.15026 0.0804 0.23126 0.0734zm-56.98-0.11c0.0811 0.007 0.16425-0.0159 0.23125-0.0719l0.16718-0.14219c0.134-0.113 0.15207-0.31187 0.0391-0.44687l-0.17031-0.20313c-0.112-0.134-0.31344-0.15206-0.44844-0.0391l-0.16719 0.14062c-0.135 0.113-0.15206 0.31444-0.0391 0.44844l0.17031 0.20312c0.0565 0.067 0.13606 0.10369 0.21719 0.11094zm5.7234-0.30625c-0.451-0.514-0.89793-1.0244-1.4109-1.5734-0.513-0.552-0.98988-1.0318-1.4719-1.5188l0.87813-0.87344 0.20937 0.225c-0.448 0.502-0.28375 0.91 0.0562 1.275l0.19219 0.20469 2.7859-2.5984c0.211-0.196 0.2775-0.32413-0.1375-0.77813l0.20937-0.19531c0.303 0.354 0.56313 0.66287 0.82813 0.94687 0.267 0.286 0.55806 0.56719 0.88906 0.89219l-0.20938 0.19688c-0.425-0.446-0.55875-0.38563-0.76875-0.19063l-2.7859 2.5969 0.19218 0.20469c0.341 0.365 0.73519 0.55888 1.2672 0.14688l0.21094 0.225-0.93438 0.81406zm52.119-0.59844c0.0809-0.01 0.1585-0.0508 0.2125-0.12031l0.1625-0.20781c0.107-0.139 0.0833-0.34044-0.0547-0.44844l-0.17188-0.13437c-0.139-0.108-0.33887-0.0833-0.44687 0.0547l-0.16406 0.20938c-0.107 0.138-0.0843 0.33787 0.0547 0.44687l0.17344 0.13438c0.0695 0.054 0.1535 0.0755 0.23438 0.0656zm-58.678-0.10781c0.0806 0.01 0.16487-0.0121 0.23437-0.0656l0.17344-0.13438c0.139-0.108 0.16269-0.30831 0.0547-0.44531l-0.16406-0.20938c-0.108-0.139-0.30731-0.16268-0.44531-0.0547l-0.17344 0.13437c-0.138 0.108-0.16269 0.30788-0.0547 0.44688l0.16406 0.20781c0.054 0.069 0.13031 0.11044 0.21094 0.12031zm59.48-0.93281c0.0806-0.0126 0.15631-0.0556 0.20781-0.12657l0.15625-0.21406c0.103-0.143 0.0727-0.34131-0.0703-0.44531l-0.17813-0.12813c-0.142-0.103-0.33975-0.0727-0.44375 0.0703l-0.15625 0.21562c-0.103 0.141-0.0717 0.34075 0.0703 0.44375l0.17812 0.12813c0.071 0.0515 0.15531 0.0689 0.23594 0.0562zm-60.278-0.10938c0.0805 0.0127 0.1665-0.005 0.2375-0.0562l0.17657-0.12812c0.143-0.104 0.17431-0.30275 0.0703-0.44375l-0.15469-0.21563c-0.104-0.142-0.30331-0.17331-0.44531-0.0703l-0.17657 0.12969c-0.142 0.103-0.17331 0.30075-0.0703 0.44375l0.15469 0.2125c0.052 0.0715 0.12731 0.11538 0.20781 0.12813zm60.922-0.95625c0.12215 0.0238 0.25306-0.0249 0.32656-0.13437l0.14687-0.22031c0.099-0.145 0.0606-0.34263-0.0844-0.44063l-0.18281-0.12344c-0.145-0.098-0.34106-0.0601-0.43906 0.0859l-0.15 0.22031c-0.099 0.147-0.0601 0.34319 0.0859 0.44219l0.18125 0.12187c0.0365 0.0245 0.0749 0.0405 0.11563 0.0484zm-61.559-0.1125c0.0406-0.008 0.0794-0.0239 0.11563-0.0484l0.18281-0.12187c0.146-0.098 0.18337-0.29719 0.0844-0.44219l-0.14843-0.22031c-0.098-0.146-0.29563-0.18338-0.44063-0.0844l-0.18125 0.12188c-0.145 0.097-0.18493 0.29562-0.0859 0.44062l0.14687 0.22031c0.0735 0.10876 0.20483 0.15796 0.32656 0.13438zm30.403-0.0594-0.26563-0.25157-0.28437-0.26718c-1.601-1.513-4.2813-4.0438-9.3703-4.0438-1.942 0-3.0732 0.35593-4.9062 0.98593l-0.51876 0.17813v-22.011c0-6.299 4.1841-17.19 15.414-19.597l0.0828-0.0172 0.0813 0.0172c11.089 2.377 15.116 13.021 15.116 19.597v22.011l-0.51876-0.17813c-1.833-0.63-2.9664-0.98593-4.9094-0.98593-5.089 0-7.7678 2.5318-9.3688 4.0438l-0.55156 0.51875zm-25.412-0.5625c-0.222-0.33-0.44882-0.664-0.68282-0.975-0.235-0.311-0.49343-0.62157-0.74843-0.92657l0.22812-0.17343c0.335 0.433 0.47357 0.39018 0.70157 0.21718l2.7969-2.1078c0.229-0.172 0.30994-0.29237-0.0141-0.73437l0.22968-0.17188c0.223 0.329 0.44938 0.664 0.68438 0.975 0.234 0.311 0.49244 0.621 0.74844 0.925l-0.22969 0.17344c-0.334-0.434-0.47156-0.38963-0.70156-0.21563l-2.7969 2.1063c-0.23 0.173-0.31094 0.29393 0.0141 0.73593l-0.22969 0.17188zm50.486-0.0859c-0.49275-0.0123-0.99119-0.17625-1.4453-0.50625-1.345-0.977-1.4756-2.3211-0.52656-3.6281 0.578-0.797 1.3181-1.1043 2.2141-1.0453l-0.0359 0.48125c-0.577-0.081-1.2366 0.10675-1.5906 0.59375-0.711 0.98-0.0209 2.0055 0.81406 2.6125 0.831 0.603 1.841 0.89881 2.525-0.0422 0.466-0.641 0.3555-1.2562-0.3375-1.7922l0.28907-0.39844c0.188 0.161 0.37968 0.32488 0.57968 0.47188 0.227 0.164 0.47763 0.31931 0.61563 0.39531-0.265 0.61-0.54556 1.1943-0.92656 1.7203-0.55 0.7575-1.3538 1.1579-2.175 1.1375zm6.8109-0.26719c0.12235 0.0196 0.249-0.0336 0.31875-0.14531l0.14219-0.225c0.093-0.148 0.0464-0.3445-0.10156-0.4375l-0.18594-0.11719c-0.149-0.092-0.3445-0.0474-0.4375 0.10156l-0.14219 0.225c-0.092 0.15-0.0474 0.34607 0.10156 0.43907l0.18594 0.11562c0.0373 0.0232 0.078 0.0372 0.11875 0.0437zm-63.009-0.11719c0.0407-0.007 0.0802-0.0221 0.11718-0.0453l0.18594-0.11562c0.149-0.093 0.19356-0.2895 0.10156-0.4375l-0.14062-0.225c-0.094-0.148-0.2885-0.19356-0.4375-0.10156l-0.18594 0.11562c-0.15 0.093-0.19456 0.29106-0.10156 0.43906l0.13906 0.225c0.0705 0.11175 0.19991 0.16491 0.32188 0.14532zm31.127-0.0437c0.00096 0 0.0125-0.0109 0.0125-0.0109 1.686-1.593 4.5062-4.2594 9.9062-4.2594 1.864 0 3.0623 0.32113 4.6453 0.85313v-19.342l-29.117 14.898-0.0109 0.005v4.4391c1.581-0.532 2.7792-0.85312 4.6422-0.85312 5.401 0 8.2234 2.6664 9.9094 4.2594 0 0 0.0115 0.01 0.0125 0.0109zm32.57-0.95156c0.12263 0.0152 0.24881-0.0415 0.31407-0.15625l0.13281-0.22969c0.088-0.153 0.0364-0.34737-0.11563-0.43437l-0.19062-0.10937c-0.153-0.088-0.34638-0.0354-0.43438 0.11562l-0.13281 0.23125c-0.087 0.152-0.0338 0.34481 0.11719 0.43281l0.19062 0.11094c0.0378 0.0217 0.0779 0.034 0.11875 0.0391zm-64.383-0.12031c0.041-0.005 0.081-0.0189 0.11875-0.0406l0.19063-0.10938c0.152-0.088 0.20418-0.28137 0.11718-0.43437l-0.13437-0.22813c-0.088-0.151-0.28081-0.20519-0.43281-0.11719l-0.19063 0.10938c-0.152 0.088-0.20419 0.28037-0.11719 0.43437l0.13438 0.22969c0.0645 0.114 0.1912 0.17149 0.31406 0.15625zm65.033-1.0156c0.12314 0.0107 0.24713-0.0517 0.30938-0.16874l0.12187-0.23282c0.083-0.155 0.0243-0.34825-0.12968-0.43125l-0.19376-0.10156c-0.154-0.082-0.34668-0.0238-0.42968 0.13125l-0.12344 0.23438c-0.082 0.155-0.0253 0.34868 0.12969 0.42968l0.19531 0.10313c0.0385 0.0205 0.0793 0.0324 0.12031 0.0359zm-65.68-0.12031c0.0412-0.004 0.0831-0.0154 0.12188-0.0359l0.19375-0.10313c0.154-0.082 0.21425-0.27469 0.13125-0.42969l-0.125-0.23437c-0.082-0.155-0.27469-0.21481-0.42969-0.13281l-0.19375 0.10312c-0.155 0.082-0.21425 0.27625-0.13125 0.43125l0.125 0.23281c0.0615 0.1155 0.1843 0.17925 0.30781 0.16875zm5.1328-0.26719c-0.337-0.373-0.68588-0.7545-0.94688-1.1875-0.552-0.921-0.46418-1.8101 0.33282-2.2891 1.507-0.906 2.4967 1.4599 3.4937 0.86094 0.392-0.237 0.31938-0.7285 0.0594-1.1625-0.416-0.691-1.0959-0.64025-1.7359-0.25625l-0.25156-0.42344c0.34-0.204 0.83438-0.5095 1.1594-0.7375 0.468 0.261 0.9625 0.76331 1.2375 1.2203 0.539 0.897 0.59281 1.9174-0.39219 2.5094-1.535 0.922-2.5531-1.4745-3.4031-0.9625-0.423 0.253-0.36181 0.67194-0.15781 1.0109 0.42 0.699 0.9035 0.6535 1.5125 0.3125l0.21406 0.35781-1.1219 0.74687zm61.155-0.77031c0.12357 0.006 0.24538-0.0596 0.30313-0.17812l0.11563-0.23907c0.077-0.158 0.0111-0.347-0.14688-0.425l-0.19531-0.0953c-0.159-0.077-0.34957-0.0117-0.42657 0.14531l-0.11562 0.23907c-0.077 0.158-0.0121 0.348 0.14688 0.425l0.19687 0.0969c0.0392 0.0192 0.0807 0.0291 0.12187 0.0312zm-66.891-0.12343c0.0413-0.002 0.0824-0.0136 0.12188-0.0328l0.19687-0.0953c0.157-0.077 0.22231-0.268 0.14531-0.425l-0.11562-0.2375c-0.078-0.159-0.268-0.22388-0.425-0.14688l-0.19688 0.0969c-0.157 0.077-0.22231 0.267-0.14531 0.425l0.11406 0.2375c0.0585 0.11775 0.18094 0.18497 0.30469 0.17813zm67.459-1.0547c0.12398 0.002 0.24362-0.0682 0.29687-0.1875l0.10781-0.24375c0.072-0.161 0.00006-0.34775-0.16094-0.41875l-0.20156-0.0906c-0.159-0.071-0.34775 0.002-0.41875 0.1625l-0.10625 0.24219c-0.071 0.161-0.00006 0.34775 0.16094 0.41875l0.2 0.0891c0.04 0.018 0.0806 0.0273 0.12188 0.0281zm-68.025-0.125c0.0414-0.00078 0.0832-0.0101 0.12343-0.0281l0.2-0.0891c0.16-0.071 0.23194-0.25875 0.16094-0.41875l-0.10781-0.24219c-0.072-0.16-0.25932-0.23294-0.42032-0.16094l-0.2 0.0891c-0.16099 0.071-0.23193 0.25876-0.16093 0.41876l0.10781 0.24218c0.0532 0.12 0.17275 0.19141 0.29688 0.18907zm57.981-0.39063-0.25624-0.12812c0.141-0.235 0.27956-0.46438 0.40156-0.70938 0.125-0.244 0.22781-0.49856 0.33281-0.75156l0.25625 0.12812-0.0766 0.15469c-0.114 0.226-0.18712 0.37157-0.0281 0.45157 0.084 0.044 0.21819 0.0566 0.34219 0.0656l0.89062 0.0563 0.71407-1.4234-0.62813-0.66719c-0.085-0.09-0.17675-0.167-0.24375-0.2-0.11-0.056-0.18725 0.006-0.30625 0.24375l-0.1375 0.275-0.25781-0.12812c0.207-0.364 0.41512-0.73425 0.60312-1.1062 0.186-0.373 0.36013-0.76019 0.52813-1.1422l0.25625 0.12812-0.0641 0.12969c-0.09 0.176-0.0859 0.30769 0.0891 0.50469l3.1609 3.4703-0.24219 0.48438-4.6375-0.18282c-0.27-0.012-0.52788 0.011-0.64688 0.25l-0.05 0.0969zm4.0547-0.60156-1.2359-1.3031-0.59844 1.1922 1.8344 0.11094zm6.5156-0.0828c0.1237-0.002 0.24187-0.0762 0.29062-0.19844l0.1-0.24687c0.065-0.163-0.0136-0.34807-0.17656-0.41407l-0.20312-0.0813c-0.164-0.066-0.34807 0.013-0.41407 0.175l-0.0984 0.24532c-0.066 0.163 0.011 0.34806 0.175 0.41406l0.20312 0.0828c0.0405 0.0165 0.0822 0.0241 0.12344 0.0234zm-69.075-0.125c0.0411 0.00079 0.0829-0.007 0.12344-0.0234l0.20312-0.0813c0.163-0.066 0.24156-0.2505 0.17656-0.4125l-0.1-0.24688c-0.065-0.163-0.25106-0.24156-0.41406-0.17656l-0.20312 0.0828c-0.16301 0.065-0.24157 0.2495-0.17657 0.4125l0.1 0.24687c0.0495 0.1215 0.16716 0.19605 0.29063 0.19844zm53.466-0.46094c-0.0448-0.005-0.0886-0.0459-0.12812-0.0859-0.079-0.08-0.33882-0.25769-0.45782-0.65469-0.119-0.399-0.17868-0.99462 0.0203-1.4906-0.279-0.298-0.83438-0.95538-0.83438-1.8094 0-0.278 0.0588-0.51506 0.15781-0.71406-0.258-0.497-0.41718-0.93518-0.41718-1.3922 0-0.457 0.0607-0.497 0.17968-0.775-0.165-0.265-0.27525-0.59782-0.30625-0.93282h-0.54062l-0.0641-0.13594c-0.169-0.359-0.42369-0.72974-0.57969-0.84374l-0.0984-0.0703v-0.925l0.15469-0.0562c0.264-0.1 0.75937-0.584 0.75937-0.85v-1.2328c0.02-0.237 0.1965-0.47994 0.3875-0.73594h-0.42656l0.0188-0.21406c0.044-0.501 1.0753-12.266 1.0953-12.464 0.028-0.289 0.44087-0.71406 0.77187-0.71406 0.321 0 0.78406 0.40918 0.81406 0.71718 0.02 0.196 1.0498 11.96 1.0938 12.461l0.0203 0.21406h-0.21718-0.21094c0.191 0.256 0.37006 0.49863 0.38906 0.71563v1.2531c0 0.266 0.49481 0.75 0.75781 0.85l0.15625 0.0562v0.925l-0.0984 0.0703c-0.156 0.114-0.41069 0.48474-0.57969 0.84374l-0.0641 0.13594h-0.15312-0.075c0.044 0.151 0.059 0.29013 0.075 0.75313 0.02 0.598-0.23756 1.3526-0.47656 1.7906 0.259 0.437 0.21906 0.873 0.23906 1.35 0.02 0.476-0.25881 1.2109-0.35781 1.4109-0.1 0.198-0.37719 0.77537-0.51719 1.0344-0.157 0.292-0.2975 0.81388-0.3375 0.97188-0.039 0.16 0.0397 0.26975-0.0203 0.41875-0.0395 0.0995-0.0849 0.12987-0.12969 0.125zm-38.65-0.18437c-0.0447 0.005-0.0902-0.0244-0.12968-0.12344-0.059-0.149 0.0197-0.25819-0.0203-0.41719-0.039-0.16-0.1805-0.68344-0.3375-0.97344-0.138-0.259-0.41662-0.83437-0.51562-1.0344-0.099-0.198-0.37781-0.93494-0.35781-1.4109 0.02-0.477-0.0199-0.91356 0.23906-1.3516-0.239-0.436-0.49813-1.1905-0.47813-1.7875 0.015-0.465 0.031-0.60425 0.075-0.75625h-0.22656l-0.0641-0.13594c-0.169-0.358-0.42369-0.72975-0.57969-0.84375l-0.0984-0.0703v-0.92344l0.15469-0.0562c0.264-0.099 0.75937-0.584 0.75937-0.85v-1.2328c0.019-0.239 0.19907-0.48094 0.38907-0.73594h-0.42813l0.0188-0.21562c0.045-0.501 1.0743-12.266 1.0953-12.462 0.03-0.308 0.4935-0.71563 0.8125-0.71563 0.333 0 0.74543 0.42663 0.77343 0.71563 0.02 0.197 1.0498 11.962 1.0938 12.462l0.0203 0.21562h-0.21719-0.21094c0.191 0.256 0.3705 0.49663 0.3875 0.71563l0.002 1.2531c0 0.266 0.49481 0.751 0.75781 0.85l0.15625 0.0562v0.92344l-0.0984 0.0703c-0.156 0.114-0.41069 0.48575-0.57969 0.84375l-0.0641 0.13594h-0.15312-0.3875c-0.032 0.334-0.14025 0.66993-0.30625 0.93593 0.119 0.277 0.17812 0.31544 0.17812 0.77344 0 0.457-0.16018 0.89363-0.41718 1.3906 0.099 0.199 0.15781 0.43662 0.15781 0.71562 0 0.855-0.55481 1.5098-0.83281 1.8078 0.198 0.498 0.13875 1.0936 0.0188 1.4906-0.119 0.397-0.37781 0.57625-0.45781 0.65625-0.0395 0.039-0.0834 0.0794-0.12813 0.0844zm54.745-0.44532c0.1244-0.006 0.237-0.0841 0.28124-0.20781l0.0922-0.25c0.059-0.166-0.0256-0.34881-0.19062-0.40781l-0.20625-0.075c-0.164-0.061-0.34525 0.0256-0.40625 0.19062l-0.0906 0.24844c-0.061 0.165 0.0241 0.34781 0.18906 0.40781l0.20469 0.075c0.0417 0.0147 0.0851 0.0209 0.12657 0.0188zm-70.041-0.125c0.0413 0.002 0.0838-0.004 0.125-0.0188l0.20625-0.075c0.165-0.061 0.24906-0.24281 0.18906-0.40781l-0.0906-0.25c-0.059-0.164-0.24182-0.24806-0.40782-0.18906l-0.20468 0.075c-0.165 0.06-0.25219 0.24125-0.19219 0.40625l0.0922 0.25c0.045 0.12375 0.15892 0.2029 0.28281 0.20937zm53.817-0.006c0.079 0.021 0.082-0.10106 0.1-0.23906 0.079-0.656 0.47625-1.213 0.65625-1.55 0.178-0.338 0.51593-0.675 0.53593-1.55 0.02-0.873-0.29893-1.2118-0.63593-1.7078-0.338-0.498-0.61719-0.93382-0.61719-1.2328 0-0.234 0.10006-0.56606 0.23906-0.81406h-0.61875c0.026 0.341-0.30412 0.8295-0.45312 1.0125-0.179 0.219-0.22031 0.576-0.22031 0.875 0 0.457 0.13918 0.93456 0.51718 1.4516 0.378 0.516 0.53594 1.0317 0.53594 1.3297 0 0.299-0.0801 0.51731-0.13906 0.79531-0.06 0.279-0.0597 0.69569-0.0797 0.85469-0.019 0.159 0.0206 0.476 0.0406 0.575 0.021 0.1 0.0401 0.176 0.13907 0.2zm-23.553-0.0312v-0.19687c0.227-0.043 0.22813-0.20225 0.22813-0.43125v-2.5328c0-0.228-0.001-0.38769-0.22813-0.42969v-0.19688h2.7203v0.84844h-0.25624c-0.031-0.339-0.273-0.39219-0.55-0.39219h-0.9875v2.7031c0 0.229 0.00056 0.38825 0.22656 0.43125v0.19687h-1.1531zm2.4531 0v-0.19687c0.18-0.032 0.21956-0.19625 0.27656-0.35625l1.1047-3.2328h0.73125l1.0906 3.2328c0.051 0.149 0.0962 0.34025 0.28125 0.35625v0.19687h-0.96562v-0.19687c0.226-0.011 0.18981-0.19225 0.13281-0.35625l-0.80156-2.4281-0.8125 2.4281c-0.062 0.181-0.0869 0.32925 0.13906 0.35625v0.19687h-1.1766zm3.7828 0v-0.19687c0.174-0.016 0.25544-0.12263 0.34844-0.26563l0.89062-1.3359-1.0234-1.4594c-0.088-0.121-0.21063-0.31781-0.36563-0.33281v-0.19688h1.1781v0.19688c-0.299 0.047-0.26876 0.15955-0.11876 0.37655l0.67344 0.99062 0.6625-1.0344c0.077-0.116 0.24313-0.31781-0.0969-0.33281v-0.19688h1.3156v0.19688c-0.169 0.01-0.27706 0.20581-0.36406 0.33281l-1.0125 1.5219 0.85313 1.225c0.103 0.15 0.2 0.31407 0.4 0.31407v0.19687h-1.1922v-0.19687c0.299-0.016 0.20487-0.21257 0.0969-0.37657l-0.49218-0.74218-0.525 0.80468c-0.129 0.197-0.11782 0.30307 0.0922 0.31407v0.19687h-1.3203zm-21.077-0.15156c0.099-0.025 0.11962-0.1 0.14062-0.2 0.019-0.099 0.0601-0.416 0.0391-0.575-0.02-0.159-0.0207-0.57669-0.0797-0.85469-0.06-0.279-0.1375-0.49731-0.1375-0.79531 0-0.299 0.15694-0.81425 0.53594-1.3312 0.377-0.516 0.51562-0.993 0.51562-1.45 0-0.298-0.0398-0.656-0.21875-0.875-0.149-0.183-0.47812-0.67306-0.45312-1.0141h-0.62032c0.139 0.247 0.24063 0.58062 0.24063 0.81562 0 0.298-0.27819 0.73582-0.61719 1.2328-0.337 0.496-0.65594 0.83381-0.63594 1.7078 0.02 0.874 0.3585 1.213 0.5375 1.55 0.178 0.338 0.57469 0.894 0.65469 1.55 0.017 0.138 0.0194 0.25906 0.0984 0.23906zm-9.8281-0.0625c-0.71026 0.0665-1.1389-0.64013-1.3812-1.2719-0.151-0.395-0.267-0.80537-0.45-1.2844-0.14-0.364-0.30306-0.73231-0.46406-1.0953l0.26875-0.10469c0.202 0.51 0.34662 0.50612 0.61562 0.40312l3.2688-1.2562c0.268-0.103 0.37824-0.19606 0.20624-0.66406l0.26719-0.10469c0.105 0.334 0.23188 0.71982 0.37188 1.0828 0.14 0.364 0.303 0.73281 0.45 1.0578l-0.26875 0.10312c-0.188-0.471-0.33256-0.46706-0.60156-0.36406l-1.3594 0.52188 0.15156 0.39687c0.064 0.166 0.133 0.2715 1.575 0.3625 0.608 0.038 0.96613 0.113 1.0531 0.3l0.52343 1.1312-0.26874 0.10469c-0.108-0.245-0.17569-0.28488-1.2047-0.44688-0.53-0.082-1.1761-0.12762-1.5531-0.59062l-0.0125 0.003c0.077 0.696-0.16363 1.3685-0.86563 1.6375-0.11325 0.0435-0.2204 0.0686-0.32187 0.0781zm14.472-0.69375 29.117-14.897 0.0109-0.005v-0.475l-29.117 14.897-0.0109 0.005v0.475zm50.416-0.16094c0.123-0.0109 0.23456-0.0935 0.27656-0.21875l0.0813-0.25157c0.054-0.166-0.0377-0.346-0.20469-0.4l-0.20781-0.0688c-0.167-0.053-0.346 0.0377-0.4 0.20469l-0.0828 0.25156c-0.054 0.167 0.0387 0.34756 0.20469 0.40156l0.20781 0.0672c0.0415 0.0135 0.084 0.0177 0.125 0.0141zm-70.92-0.12657c0.0411 0.004 0.0832-0.002 0.125-0.0156l0.20781-0.0672c0.167-0.055 0.25869-0.234 0.20469-0.4l-0.0828-0.25312c-0.054-0.167-0.233-0.25813-0.4-0.20313l-0.20938 0.0672c-0.167 0.055-0.25712 0.234-0.20312 0.4l0.0828 0.25312c0.0405 0.1245 0.15167 0.20802 0.275 0.21875zm5.7219-0.10625c0.13293-0.008 0.27957-0.0419 0.43907-0.10312 0.639-0.245 0.82881-0.66876 0.60781-1.2438l-0.15625-0.40937-1.8906 0.72656 0.15626 0.40781c0.16574 0.4305 0.44498 0.64518 0.84374 0.62188zm14.783-0.13281 29.117-14.898 0.0109-0.005v-0.99375c0-1.94-0.364-4.2467-1.175-6.5797l-27.942 14.295-0.0109 0.006v8.175zm45.694-0.0219-0.27188-0.0906c0.165-0.521 0.0511-0.609-0.22187-0.7l-3.325-1.1c-0.273-0.09-0.41825-0.0876-0.58125 0.38437l-0.27188-0.0906c0.129-0.324 0.27388-0.70031 0.39688-1.0703 0.122-0.371 0.23087-0.75969 0.32187-1.1047l0.27344 0.0906c-0.153 0.482-0.0371 0.57094 0.23594 0.66094l1.3812 0.45781 0.13281-0.40312c0.056-0.169 0.0689-0.29513-0.98906-1.2781-0.446-0.414-0.676-0.69787-0.625-0.89687l0.31406-1.2094 0.27188 0.0922c-0.069 0.257-0.044 0.32925 0.65 1.1062 0.358 0.4 0.83012 0.84363 0.82812 1.4406l0.0109 0.005c0.383-0.586 0.99381-0.95419 1.7078-0.71719 0.921 0.304 0.8045 1.267 0.5625 2-0.134 0.403-0.30519 0.79325-0.46719 1.2812-0.122 0.369-0.22737 0.75919-0.33437 1.1422zm-12.302-0.32188c0.059-0.179 0.20338-0.50769 0.15938-0.75469-0.08-0.437-0.23831-0.77612-0.59531-1.0531-0.199 0.238-0.107 0.61406 0 1.0141 0.078 0.299 0.23693 0.57575 0.43593 0.79375zm-37.678-0.18282c0.199-0.218 0.3585-0.49574 0.4375-0.79374 0.107-0.401 0.199-0.77507 0-1.0141-0.357 0.279-0.51631 0.61713-0.59531 1.0531-0.046 0.248 0.0988 0.57668 0.15781 0.75468zm55.102-0.35468c0.12305-0.0148 0.23119-0.10056 0.26719-0.22656l0.0734-0.25626c0.048-0.169-0.0482-0.34474-0.21719-0.39374l-0.21093-0.0594c-0.169-0.048-0.34575 0.0498-0.39375 0.21875l-0.0734 0.25469c-0.049 0.169 0.0487 0.34475 0.21875 0.39375l0.20937 0.0594c0.0423 0.0122 0.0856 0.0143 0.12656 0.009zm-71.714-0.12969c0.041 0.005 0.083 0.001 0.125-0.0109l0.21094-0.0594c0.169-0.048 0.26518-0.22319 0.21718-0.39219l-0.0719-0.25625c-0.049-0.167-0.22575-0.26519-0.39375-0.21719l-0.21094 0.0609c-0.169 0.048-0.26519 0.22319-0.21718 0.39219l0.0719 0.25312c0.036 0.1275 0.14584 0.21469 0.26875 0.22969zm66.803-0.82187 0.1375-0.41563c0.193-0.585-0.0151-1.0001-0.66406-1.2141-0.65-0.215-1.0654-0.006-1.2594 0.57812l-0.13594 0.41563 1.9219 0.63594zm5.2656-0.30626c0.12239-0.0193 0.22713-0.10924 0.25937-0.2375l0.0641-0.25781c0.041-0.171-0.0612-0.34293-0.23125-0.38593l-0.2125-0.0531c-0.171-0.042-0.34294 0.0613-0.38594 0.23125l-0.0641 0.25781c-0.042 0.171 0.0618 0.34294 0.23281 0.38594l0.21094 0.0531c0.0425 0.0105 0.0858 0.0127 0.12656 0.006zm-72.422-0.13281c0.0408 0.006 0.0838 0.004 0.12656-0.006l0.2125-0.0531c0.171-0.042 0.27325-0.21393 0.23125-0.38593l-0.0641-0.25625c-0.042-0.17001-0.21538-0.27326-0.38438-0.23126l-0.2125 0.0531c-0.171 0.042-0.27481 0.21437-0.23281 0.38437l0.0641 0.25781c0.0323 0.1275 0.13684 0.21828 0.25938 0.2375zm72.734-1.1391c0.1222-0.0234 0.22456-0.11787 0.25156-0.24687l0.0547-0.25782c0.037-0.173-0.0733-0.34212-0.24531-0.37812l-0.21406-0.0453c-0.171-0.037-0.33957 0.0733-0.37657 0.24531l-0.0562 0.25781c-0.036 0.172 0.0743 0.34213 0.24531 0.37813l0.21406 0.0453c0.0433 0.009 0.0858 0.009 0.12656 0.002zm-16.659-0.0922c0.155-0.36 0.3775-0.71531 0.3375-1.2703-0.029-0.416-0.1025-0.66469-0.1875-0.85469h-0.77344c-0.097 0.23-0.1275 0.54706-0.1125 0.71406 0.04 0.457 0.45794 1.0339 0.73594 1.4109zm-56.381-0.0406c0.0405 0.008 0.0838 0.006 0.12657-0.003l0.21406-0.0437c0.172-0.037 0.28231-0.20613 0.24531-0.37813l-0.0547-0.25937c-0.037-0.17-0.20613-0.27975-0.37813-0.24375l-0.21406 0.0453c-0.172 0.036-0.28231 0.204-0.24531 0.375l0.0547 0.26094c0.0277 0.129 0.13016 0.22376 0.25156 0.24687zm15.842-0.14219c0.279-0.378 0.69594-0.95394 0.73594-1.4109 0.014-0.166-0.0181-0.48562-0.11406-0.71562h-0.77031c-0.086 0.191-0.16007 0.44025-0.18907 0.85625-0.041 0.556 0.1835 0.91031 0.3375 1.2703zm-11.37-0.16094c-0.103-0.635-0.20356-1.2628-0.32656-1.8938-0.121-0.624-0.26356-1.2451-0.40156-1.8531l0.28281-0.0531c0.11 0.535 0.25493 0.55656 0.53593 0.50156l3.4375-0.66875c0.281-0.055 0.40588-0.12656 0.29688-0.72656l0.28125-0.0547c0.111 0.675 0.22313 1.3581 0.35313 2.0281 0.127 0.652 0.27174 1.2921 0.41874 1.9391-0.43 0.154-0.85987 0.31375-1.2719 0.51875l-0.0625-0.32188c0.78-0.319 0.77757-0.91106 0.62657-1.6891l-0.0578-0.29531c-0.038-0.196-0.12319-0.2755-0.31719-0.2375l-1.6719 0.325 0.10312 0.5375c0.104 0.536 0.27482 0.69706 0.83282 0.58906l0.0547 0.28281c-0.218 0.021-0.53837 0.061-0.85937 0.125-0.323 0.062-0.58744 0.13588-0.79844 0.19688l-0.0547-0.28281c0.51-0.099 0.60713-0.313 0.50313-0.85l-0.10313-0.53594-1.625 0.31562c-0.141 0.027-0.19337 0.0864-0.15937 0.25938l0.0562 0.28281c0.135 0.699 0.25324 1.1641 1.1062 1.0391l0.0656 0.33438c-0.327 0.037-0.84331 0.1085-1.2453 0.1875zm68.711-0.84219c0.172 0.03 0.33618-0.0854 0.36718-0.25937l0.0453-0.26094c0.031-0.173-0.0848-0.33719-0.25782-0.36719l-0.21562-0.0391c-0.173-0.031-0.33719 0.0853-0.36719 0.25625l-0.0469 0.2625c-0.031 0.173 0.0838 0.33875 0.25781 0.36875l0.21719 0.0391zm-73.319-0.13437 0.21562-0.0391c0.173-0.03 0.28681-0.19519 0.25781-0.36719l-0.0453-0.2625c-0.031-0.172-0.19675-0.28725-0.36875-0.25625l-0.21562 0.0359c-0.173 0.031-0.28938 0.19575-0.25938 0.36875l0.0469 0.26094c0.031 0.173 0.19575 0.28938 0.36875 0.25938zm54.43-0.12969c0.238-0.1 0.47812-0.47656 0.47812-0.57656 0-0.04-0.005-0.0694-0.0141-0.0984h-0.65782c-0.027 0.21 0.0208 0.533 0.19375 0.675zm-36.366-0.18437c0.172-0.14 0.21975-0.466 0.19375-0.675h-0.65625c-0.009 0.029-0.0141 0.058-0.0141 0.1 0 0.099 0.23756 0.476 0.47656 0.575zm48.867-0.3625c-0.18599 0.008-0.38125 0.00025-0.5875-0.025-1.649-0.202-2.4158-1.3168-2.2188-2.9188 0.197-1.601 1.2088-2.4973 2.8578-2.2953 1.65 0.202 2.4168 1.3173 2.2188 2.9203-0.17063 1.4018-0.96838 2.2609-2.2703 2.3188zm6.6094-0.475c0.173 0.024 0.33281-0.0979 0.35781-0.27188l0.0375-0.26093c0.024-0.174-0.0963-0.33694-0.27031-0.36094l-0.21719-0.0297c-0.174-0.023-0.33437 0.0979-0.35937 0.27187l-0.0375 0.26094c-0.025 0.174 0.0963 0.33594 0.27031 0.36094l0.21875 0.0297zm-19.998-0.13125h3.4859c0.066-0.128 0.15413-0.27732 0.25313-0.42032h-3.9938c0.093 0.136 0.18069 0.28132 0.25469 0.42032zm-53.758-0.005 0.21563-0.0297c0.174-0.024 0.29587-0.18381 0.27187-0.35781l-0.0391-0.26403c-0.024-0.174-0.18538-0.29431-0.35938-0.27031l-0.21562 0.0312c-0.174 0.024-0.29531 0.18382-0.27031 0.35782l0.0359 0.2625c0.024 0.174 0.18593 0.29431 0.36093 0.27031zm15.683-0.17813h3.4859c0.073-0.141 0.16013-0.28587 0.25313-0.42187h-3.9922c0.098 0.143 0.18613 0.29287 0.25313 0.42187zm37.788-0.28594h0.0172 4.025 0.0172c0.071-0.097 0.146-0.18931 0.225-0.27031h-4.5062c0.075 0.078 0.15088 0.16931 0.22188 0.27031zm14.014-0.17812c0.74634-0.0364 1.4268-0.31169 1.5266-1.1172 0.131-1.073-0.96888-1.4826-1.9469-1.6016-0.976-0.121-2.143 0.01-2.275 1.0828-0.132 1.073 0.96732 1.4831 1.9453 1.6031 0.24425 0.0302 0.50122 0.0449 0.75 0.0328zm-52.088-0.005h0.0156 4.025 0.0188c0.072-0.1 0.14532-0.19231 0.22032-0.27031h-4.5031c0.077 0.08 0.15344 0.17231 0.22344 0.27031zm37.808-0.13438h0.0219 4.5469 0.025c0.002-0.002 0.004-0.006 0.006-0.008v-0.38906c-0.05-0.029-0.10225-0.0641-0.15625-0.10312h-0.0328-4.2297-0.0328c-0.054 0.039-0.10781 0.0741-0.15781 0.10312v0.3875c0.002 0.003 0.006 0.006 0.009 0.009zm-38.077-0.18437h0.0234 4.5469 0.0234l0.009-0.008v-0.38906c-0.051-0.029-0.10381-0.0641-0.15781-0.10313h-0.0328-4.2297-0.0328c-0.054 0.039-0.10782 0.0741-0.15782 0.10313v0.39062c0.003 0.003 0.005 0.004 0.008 0.006zm58.83-0.2c0.175 0.017 0.331-0.10882 0.35-0.28282l0.0281-0.26562c0.017-0.174-0.10881-0.33044-0.28281-0.34844l-0.21875-0.0234c-0.174-0.018-0.331 0.10881-0.35 0.28281l-0.0281 0.26407c-0.018 0.175 0.10881 0.33143 0.28281 0.34843l0.21876 0.025zm-74.106-0.13594 0.21876-0.0234c0.175-0.019 0.30181-0.17344 0.28281-0.34844l-0.0281-0.26406c-0.019-0.174-0.175-0.30238-0.35-0.28438l-0.21718 0.0234c-0.174 0.019-0.30082 0.17601-0.28282 0.35l0.0281 0.26251c0.018 0.17399 0.17444 0.30237 0.34843 0.28437zm53.589-0.0391h4.1703c-0.15-0.118-0.30412-0.26569-0.42812-0.42969h-0.0188-3.2766-0.0188c-0.125 0.164-0.27813 0.31169-0.42813 0.42969zm-38.075-0.18438h4.1703c-0.15-0.117-0.30412-0.26512-0.42812-0.42812h-0.0188-3.2766-0.0188c-0.124 0.163-0.27713 0.31112-0.42813 0.42812zm38.538-0.29219h3.2453c-0.095-0.133-0.16869-0.27293-0.20469-0.41093h-0.008-2.8219-0.006c-0.036 0.138-0.10969 0.27793-0.20469 0.41093zm-49.792-0.005c0.004-0.234 0.008-0.46743-0.008-0.69843-0.017-0.252-0.0557-0.50269-0.0937-0.75469l0.28594-0.0203c0.06 0.381 0.0784 0.54293 0.20937 0.53593 0.068-0.007 0.1435-0.0114 0.5875-0.23437l2.5562-1.2703v-0.0125l-2.8734-0.7875c-0.32098-0.0859-0.39654-0.0955-0.45154-0.0905-0.095 0.006-0.14775 0.14606-0.11875 0.56406l-0.28594 0.0188c-0.006-0.369-0.0103-0.73087-0.0453-1.2219-0.029-0.418-0.079-0.83819-0.125-1.1922l0.2875-0.0188 0.008 0.10781c0.021 0.306 0.11519 0.37694 0.54219 0.51094l4.2906 1.3438 0.0391 0.55938-4.0703 2.075c-0.311 0.16-0.47043 0.25318-0.44843 0.56718l-0.28594 0.0188zm11.717-0.17969h3.2453c-0.094-0.133-0.16769-0.27081-0.20469-0.40781h-0.008-2.8219-0.006c-0.037 0.137-0.10969 0.27481-0.20469 0.40781zm6.1062-0.12656 27.934-14.292 0.002-0.002c-0.046-0.134-0.0937-0.26757-0.14375-0.40157l-27.781 14.214-0.0109 0.006v0.475zm32.184-0.14687h2.8141c-0.009-0.046-0.0172-0.0904-0.0172-0.13438v-0.13593h-2.7812v0.13593c0 0.044-0.006 0.0884-0.0156 0.13438zm-38.075-0.18281h2.8141c-0.009-0.046-0.0156-0.0904-0.0156-0.13438v-0.13594h-2.7812v0.13594c0 0.044-0.006 0.0884-0.0172 0.13438zm58.044-0.008c0.176 0.013 0.32863-0.12032 0.34063-0.29532l0.0172-0.2625c0.013-0.176-0.11875-0.32918-0.29375-0.34218l-0.21875-0.0141c-0.175-0.011-0.32706 0.11931-0.33906 0.29531l-0.0188 0.26563c-0.012 0.174 0.12031 0.32606 0.29531 0.33906l0.21719 0.0141zm-19.953-0.12657h2.7828v-0.8875h-2.7828v0.8875zm-54.409-0.009 0.21719-0.0141c0.175-0.012 0.30831-0.16406 0.29531-0.33906l-0.0172-0.26562c-0.013-0.175-0.16463-0.30575-0.34063-0.29375l-0.21719 0.0156c-0.176 0.011-0.30731 0.1625-0.29531 0.3375l0.0172 0.26406c0.013 0.176 0.16562 0.30731 0.34062 0.29531zm22.209-0.0547 27.773-14.209 0.003-0.002c-1.907-5.0908-5.9705-10.188-13.062-11.742-10.717 2.348-14.714 12.774-14.714 18.812v7.1406zm-5.8734-0.12031h2.7812v-0.88594h-2.7844l0.003 0.88594zm38.073-0.75h2.7812v-0.11563c-0.003-0.027-0.0378-0.0872-0.0828-0.15625h-0.0156-2.5828-0.0141c-0.046 0.073-0.0829 0.139-0.0859 0.175v0.0969zm-38.077-0.18438h2.7844v-0.11406c-0.004-0.027-0.0394-0.0877-0.0844-0.15469h-0.0141-2.5828-0.0156c-0.046 0.0731-0.0835 0.13913-0.0875 0.17513v0.0937zm58.116-0.0547c0.175 0.006 0.32269-0.13181 0.32969-0.30781l0.009-0.26406c0.007-0.176-0.13181-0.32269-0.30781-0.32969l-0.21875-0.006c-0.175-0.006-0.32212 0.12969-0.32812 0.30469l-0.009 0.2673c-0.006 0.175 0.13069 0.32213 0.30469 0.32813l0.22031 0.008zm-19.922-0.0797h2.55c-0.06-0.088-0.13124-0.183-0.18124-0.25l-0.19376-0.28282h-1.8031l-0.19219 0.28282c-0.05 0.067-0.11969 0.161-0.17969 0.25zm-54.608-0.0578 0.21875-0.008c0.175-0.006 0.31225-0.15156 0.30625-0.32656l-0.009-0.26563c-0.006-0.175-0.15369-0.31381-0.32969-0.30781l-0.21719 0.009c-0.176 0.006-0.31381 0.15312-0.30781 0.32812l0.009 0.26406c0.007 0.175 0.15369 0.31225 0.32969 0.30625zm16.533-0.125h2.55c-0.061-0.088-0.13124-0.183-0.18124-0.25l-0.19219-0.28281h-1.8047l-0.19219 0.28281c-0.05 0.067-0.11869 0.161-0.17969 0.25zm48.292-0.55469c-0.002-0.61-0.006-1.3059-0.0328-2.0719-0.025-0.718-0.0668-1.3598-0.10782-1.9328 0.469-0.092 0.95082-0.20531 1.4328-0.34531l0.0109 0.33594c-0.916 0.216-1.0415 0.94744-1.0125 1.7734 0.014 0.397 0.0888 0.40018 0.29375 0.39218l3.5672-0.12343c0.288-0.011 0.42325-0.0628 0.40625-0.73282l0.2875-0.009c-0.002 0.519-0.008 0.92406 0.006 1.3141 0.012 0.389 0.0468 0.78994 0.0828 1.1859l-0.28906 0.0109c-0.026-0.546-0.16456-0.58968-0.45156-0.57968l-3.4984 0.12187c-0.287 0.011-0.42238 0.062-0.40938 0.65l-0.28593 0.0109zm-10.416-0.19219h0.26719l0.1375-0.19843 1.6266 0.19843h0.9125c-0.141-1.621-1.0554-12.058-1.0734-12.239-0.004-0.029-0.0285-0.0684-0.0625-0.10937l0.6375 11.375h-0.28594l-0.52812-9.3828v9.3828h-0.28906v-9.925l-0.55782 9.925h-0.28594l0.63907-11.388c-0.036 0.048-0.0611 0.0913-0.0641 0.12031-0.018 0.181-0.93143 10.62-1.0734 12.241zm-38.075-0.18437h0.26875l0.13594-0.19688 1.6281 0.19688h0.9125c-0.142-1.62-1.057-12.06-1.075-12.241-0.003-0.029-0.0271-0.0733-0.0641-0.12031l0.63906 11.389h-0.28594l-0.55781-9.925v9.925h-0.28906v-9.3906l-0.52657 9.3906h-0.2875l0.63907-11.377c-0.035 0.042-0.0591 0.0804-0.0641 0.10938-0.018 0.181-0.93144 10.619-1.0734 12.239zm58.014-0.10781h0.22031c0.175 0 0.31875-0.14375 0.31875-0.31875v-0.26563c0-0.175-0.14375-0.31719-0.31875-0.31719h-0.22031c-0.174 0-0.31719 0.14219-0.31719 0.31719v0.26563c0 0.175 0.14319 0.31875 0.31719 0.31875zm-74.378-0.0141h0.22032c0.174 0 0.31718-0.14118 0.31718-0.31718v-0.26563c0-0.175-0.14318-0.31875-0.31718-0.31875h-0.22032c-0.176 0-0.31718 0.14375-0.31718 0.31875v0.26563c0 0.176 0.14118 0.31718 0.31718 0.31718zm74.383-1.1578 0.21875-0.008c0.176-0.006 0.31381-0.15313 0.30781-0.32813l-0.009-0.26406c-0.006-0.177-0.15268-0.31381-0.32968-0.30781l-0.21875 0.008c-0.175 0.005-0.31225 0.15213-0.30625 0.32813l0.009 0.26406c0.006 0.175 0.15313 0.31181 0.32813 0.30781zm-74.156-0.13737c0.176 0.007 0.32369-0.13124 0.32969-0.30624l0.009-0.26407c0.006-0.176-0.13181-0.32212-0.30781-0.32812l-0.21875-0.009c-0.175-0.005-0.32213 0.13081-0.32813 0.30781l-0.009 0.26407c-0.006 0.177 0.13125 0.32368 0.30625 0.32968l0.21875 0.006zm9.0109-0.75468-0.28593-0.0203c0.031-0.544-0.10207-0.60288-0.38907-0.62188l-3.4922-0.24531c-0.287-0.02-0.42688 0.0191-0.47188 0.56406l-0.28594-0.0188c0.048-0.395 0.0954-0.79594 0.12344-1.1859 0.027-0.389 0.0336-0.79406 0.0406-1.1891l0.28593 0.0203c-0.031 0.545 0.10307 0.60244 0.38907 0.62344l3.4938 0.24375c0.286 0.02 0.42587-0.0191 0.47187-0.56406l0.28594 0.0203c-0.048 0.394-0.097 0.79538-0.125 1.1844-0.027 0.39-0.0326 0.79206-0.0406 1.1891zm65.097-0.40469 0.21719-0.0156c0.176-0.01 0.30731-0.16307 0.29531-0.33907l-0.0187-0.26406c-0.011-0.175-0.16507-0.30575-0.33907-0.29375l-0.21874 0.0156c-0.174 0.012-0.30832 0.16406-0.29532 0.33906l0.0203 0.26406c0.012 0.176 0.16307 0.30775 0.33907 0.29375zm-74.053-0.13437c0.175 0.013 0.32706-0.12032 0.33906-0.29532l0.0188-0.26406c0.012-0.176-0.12032-0.32706-0.29532-0.33906l-0.21875-0.0156c-0.176-0.012-0.32706 0.12032-0.33906 0.29532l-0.0188 0.26406c-0.013 0.175 0.11875 0.32806 0.29375 0.33906l0.22032 0.0156zm73.955-1.1578 0.21875-0.0219c0.175-0.019 0.30238-0.175 0.28438-0.35l-0.0281-0.26406c-0.019-0.175-0.176-0.30181-0.35-0.28281l-0.21719 0.0234c-0.174 0.018-0.30181 0.174-0.28281 0.35l0.0266 0.26093c0.019 0.176 0.17544 0.30238 0.34844 0.28438zm-9.5156-0.0125c-0.041-0.395-0.0847-0.79625-0.14375-1.1812-0.062-0.385-0.14457-0.77975-0.22657-1.1688l0.28282-0.0453c0.092 0.539 0.23475 0.56631 0.51875 0.52031l3.4578-0.54844c0.285-0.045 0.41181-0.11169 0.33281-0.65469l0.28438-0.0453c0.042 0.396 0.0843 0.79681 0.14531 1.1828 0.061 0.385 0.143 0.77975 0.225 1.1688l-0.28281 0.0438c-0.092-0.538-0.23475-0.56375-0.51875-0.51875l-3.4578 0.54687c-0.283 0.046-0.41024 0.11369-0.33124 0.65469l-0.28594 0.0453zm-64.342-0.12344c0.175 0.02 0.331-0.10881 0.35-0.28281l0.0281-0.26406c0.019-0.174-0.10781-0.33044-0.28281-0.34844l-0.21719-0.0234c-0.175-0.018-0.332 0.10781-0.35 0.28281l-0.0281 0.26563c-0.018 0.173 0.10781 0.32987 0.28281 0.34687l0.21719 0.0234zm73.72-1.1516 0.21563-0.0312c0.175-0.024 0.29587-0.18593 0.27187-0.36093l-0.0375-0.26094c-0.024-0.174-0.18538-0.29531-0.35938-0.27031l-0.21719 0.0297c-0.173 0.025-0.29475 0.18538-0.26875 0.35938l0.0359 0.2625c0.025 0.174 0.18638 0.29487 0.35938 0.27187zm-73.573-0.13437c0.174 0.022 0.33538-0.0979 0.35938-0.27188l0.0359-0.2625c0.025-0.175-0.0973-0.33537-0.27031-0.35937l-0.21719-0.0297c-0.173-0.024-0.33438 0.0953-0.35938 0.27031l-0.0375 0.2625c-0.024 0.174 0.0979 0.33438 0.27188 0.35938l0.21719 0.0312zm9.0875-0.20313-4.1281-0.875c-0.281-0.06-0.42412-0.0431-0.52812 0.41094l-0.28126-0.0594c0.056-0.163 0.14276-0.47406 0.19376-0.71406 0.052-0.242 0.0977-0.55987 0.14374-0.87187l0.27969 0.0594c-0.12 0.598 0.006 0.67382 0.28594 0.73282l2.3688 0.50312 0.002-0.0141-2.5438-3.1281c0.083-0.289 0.164-0.57394 0.225-0.86094 0.06-0.282 0.10119-0.57206 0.14219-0.86406l0.28125 0.0594-0.0172 0.0797c-0.03 0.14-0.0369 0.36981 0.10312 0.53281l3.6391 0.77187c0.282 0.061 0.42538 0.043 0.55938-0.55l0.27969 0.0594c-0.085 0.303-0.17244 0.61212-0.22344 0.85312s-0.0972 0.55988-0.14219 0.87188l-0.28281-0.0594c0.121-0.596-0.004-0.67381-0.28438-0.73281l-3.1641-0.67187-0.003 0.0141 3.2109 3.9047-0.11563 0.54843zm64.302-0.94531 0.21562-0.0391c0.172-0.029 0.28781-0.19575 0.25781-0.36875l-0.0453-0.25938c-0.03-0.174-0.19675-0.28981-0.36875-0.25781l-0.21718 0.0359c-0.172 0.031-0.28682 0.19675-0.25782 0.36875l0.0469 0.26094c0.031 0.172 0.19575 0.28838 0.36875 0.25938zm-9.6938-0.0578c-0.073-0.305-0.14775-0.62025-0.21875-0.85625-0.072-0.234-0.18544-0.53625-0.29844-0.83125l0.275-0.0844c0.185 0.581 0.32869 0.58456 0.60469 0.50156l3.0938-0.94375-0.005-0.0141-4.7016-1.8594-0.16406-0.5375 4.0344-1.2328c0.276-0.084 0.3915-0.16963 0.2625-0.61563l0.275-0.0844c0.03 0.171 0.10356 0.48319 0.17656 0.71719 0.072 0.237 0.18387 0.53625 0.29687 0.83125l-0.275 0.0844c-0.184-0.579-0.32812-0.58556-0.60312-0.50156l-2.3156 0.70781 0.005 0.0125 3.7406 1.5031c0.068 0.293 0.13331 0.58206 0.22031 0.86406 0.085 0.273 0.19132 0.54844 0.29532 0.82344l-0.27188 0.0844-0.025-0.0797c-0.042-0.139-0.148-0.33906-0.35-0.41406l-3.5578 1.0859c-0.275 0.084-0.39131 0.17069-0.22031 0.75469l-0.27344 0.0844zm-63.506-0.0766c0.173 0.029 0.33875-0.0864 0.36875-0.25937l0.0453-0.25938c0.031-0.175-0.0842-0.33931-0.25625-0.37031l-0.21562-0.0391c-0.173-0.028-0.33875 0.0864-0.36875 0.25937l-0.0453 0.26094c-0.032 0.173 0.0833 0.33975 0.25625 0.36875l0.21563 0.0391zm72.844-1.1438c0.0407 0.008 0.0833 0.009 0.12656 0l0.21406-0.0469c0.172-0.036 0.28075-0.204 0.24375-0.375l-0.0547-0.26094c-0.037-0.171-0.20556-0.28075-0.37656-0.24375l-0.21406 0.0453c-0.173 0.035-0.28231 0.20556-0.24531 0.37656l0.0547 0.25937c0.027 0.12825 0.12935 0.22155 0.25156 0.24532zm-72.483-0.13281c0.12179-0.0231 0.22301-0.11706 0.25-0.24531l0.0563-0.25938c0.037-0.173-0.0733-0.34212-0.24532-0.37812l-0.2125-0.0453c-0.172-0.035-0.34112 0.0727-0.37812 0.24375l-0.0547 0.26094c-0.037 0.173 0.0717 0.34056 0.24375 0.37656l0.21406 0.0453c0.043 0.009 0.086 0.009 0.12656 0.002zm72.208-1.1297c0.0409 0.007 0.0841 0.006 0.12656-0.005l0.21406-0.0531c0.17-0.042 0.27325-0.21494 0.23125-0.38594l-0.0656-0.25625c-0.042-0.17-0.21594-0.27481-0.38594-0.23281l-0.21094 0.0531c-0.17 0.042-0.27481 0.21594-0.23281 0.38594l0.0641 0.25625c0.0315 0.12675 0.13675 0.21777 0.25937 0.2375zm-71.928-0.13124c0.12249-0.0198 0.22788-0.11 0.25938-0.2375l0.0641-0.25782c0.043-0.172-0.0602-0.34294-0.23125-0.38594l-0.2125-0.0516c-0.171-0.044-0.34394 0.0602-0.38594 0.23125l-0.0641 0.25781c-0.042 0.17 0.0628 0.34138 0.23281 0.38438l0.21094 0.0547c0.0428 0.0105 0.0857 0.0113 0.12656 0.005zm71.609-1.1219c0.041 0.005 0.0828 0.003 0.125-0.009l0.21093-0.0609c0.169-0.048 0.26676-0.22475 0.21876-0.39375l-0.0719-0.25469c-0.049-0.169-0.22575-0.26619-0.39375-0.21719l-0.21093 0.0594c-0.169 0.049-0.26675 0.22475-0.21875 0.39375l0.0734 0.25469c0.036 0.126 0.14414 0.21293 0.26718 0.22812zm-71.286-0.12969c0.12281-0.0145 0.23044-0.10137 0.26719-0.22812l0.0719-0.25625c0.049-0.167-0.0482-0.34363-0.21718-0.39063l-0.21094-0.0625c-0.168-0.049-0.34419 0.0498-0.39219 0.21875l-0.0734 0.25469c-0.049 0.169 0.0482 0.34475 0.21719 0.39375l0.21094 0.0594c0.0423 0.0122 0.0856 0.0158 0.12656 0.0109zm8.4672-0.61406c-0.28682-0.003-0.6115-0.0729-0.98125-0.22969l-2.1031-0.89531c-0.265-0.112-0.40944-0.12156-0.57344 0.24844l-0.26406-0.11094c0.107-0.2 0.21938-0.41356 0.30938-0.62656 0.11-0.258 0.199-0.51913 0.275-0.75313l0.26562 0.1125c-0.208 0.507-0.0999 0.60363 0.16406 0.71563l2.0578 0.87343c0.895 0.38 1.4656 0.27376 1.8406-0.60624 0.28-0.662 0.20919-1.2268-0.50781-1.5328l-2.4188-1.025c-0.264-0.113-0.40912-0.12387-0.62812 0.37813l-0.26563-0.11094c0.174-0.358 0.35113-0.72225 0.50313-1.0812 0.152-0.359 0.29237-0.73719 0.40937-1.0672l0.26406 0.1125c-0.189 0.462-0.0832 0.55888 0.18281 0.67188l2.3297 0.98906c1.328 0.564 1.2988 1.4879 0.80781 2.6469-0.29624 0.699-0.80674 1.2991-1.6672 1.2906zm52.628-0.25469c-0.107-0.253-0.21306-0.49762-0.33906-0.74062-0.127-0.243-0.27219-0.47382-0.41719-0.70782l0.25625-0.13281 0.0797 0.15c0.116 0.225 0.19144 0.37107 0.34844 0.28907 0.086-0.044 0.17212-0.14363 0.25312-0.24063l0.56875-0.6875-0.73594-1.4141-0.91093 0.12031c-0.122 0.018-0.23613 0.0457-0.30313 0.0797-0.109 0.058-0.10581 0.15519 0.0172 0.39219l0.14375 0.27343-0.25625 0.13281c-0.175-0.382-0.35075-0.76493-0.54375-1.1359-0.193-0.37-0.40619-0.73644-0.61719-1.0984l0.25313-0.13125 0.0672 0.12812c0.091 0.175 0.1995 0.25088 0.4625 0.22188l4.6656-0.53281 0.25 0.48125-2.8641 3.6547c-0.166 0.211-0.29643 0.43332-0.17343 0.67032l0.05 0.0969-0.25469 0.13125zm9.8297-0.24375c0.0411 0.004 0.0835-0.0008 0.125-0.0141l0.20937-0.0688c0.167-0.054 0.25813-0.23244 0.20313-0.39844l-0.0812-0.25313c-0.054-0.167-0.233-0.25868-0.4-0.20468l-0.20938 0.0672c-0.166 0.055-0.25868 0.23357-0.20468 0.40157l0.0828 0.25312c0.0398 0.1245 0.15158 0.20618 0.275 0.21719zm-70.559-0.12656c0.1236-0.0111 0.2345-0.0943 0.275-0.22031l0.0812-0.25156c0.054-0.168-0.0361-0.34557-0.20312-0.40157l-0.20781-0.0672c-0.167-0.055-0.34656 0.0377-0.40157 0.20469l-0.0812 0.25312c-0.054 0.166 0.0361 0.345 0.20312 0.4l0.20781 0.0687c0.0417 0.0133 0.0854 0.0178 0.12657 0.0141zm44.452-0.41875c-0.611 0-1.3312-0.25925-1.3312-1.0062 0-1.319 2.1328-0.66975 2.1328-1.5938 0-0.414-0.46869-0.58594-0.80469-0.58594-0.295 0-0.76875 0.15125-0.76875 0.53125 0 0.099 0.0478 0.18725 0.10782 0.25625l-0.14532 0.14532-0.69687-0.48282c0.389-0.622 0.772-0.9 1.525-0.9 0.683 0 1.4641 0.33275 1.4641 1.1438 0 1.411-2.1688 0.88457-2.1688 1.6266 0 0.358 0.41594 0.41562 0.68594 0.41562 0.26 0 0.73906-0.0921 0.73906-0.43906 0-0.058-0.0132-0.0979-0.0422-0.14688l0.16093-0.1125 0.53907 0.48906c-0.341 0.46-0.84688 0.65938-1.3969 0.65938zm-17.297-0.0719v-0.18281c0.208-0.038 0.20782-0.18532 0.20782-0.39532v-2.3359c0-0.21 0.00018-0.35632-0.20782-0.39532v-0.18281h1.0609v0.18281c-0.209 0.039-0.20938 0.18532-0.20938 0.39532v2.3359c0 0.21 0.00038 0.35732 0.20938 0.39532v0.18281h-1.0609zm13.753 0-1.0953-2.9531c-0.053-0.137-0.11407-0.34625-0.28907-0.35625v-0.18125h0.92813v0.18125c-0.218 0.059-0.22132 0.16094-0.14532 0.36094l0.26407 0.72813h1.1625l0.2875-0.72813c0.08-0.2 0.1045-0.32194-0.1375-0.36094v-0.18125h1.1094v0.18125c-0.147 0.018-0.18481 0.12557-0.23281 0.25157l-1.1656 3.0578h-0.68593zm-16.389-0.002v-0.17969c0.209-0.039 0.20938-0.18631 0.20938-0.39531v-2.3375c0-0.21-0.00038-0.35631-0.20938-0.39531v-0.18125h2.5063v0.78125h-0.23594c-0.029-0.313-0.25125-0.36094-0.50625-0.36094h-0.91094v2.4938c0 0.209 0.00037 0.35631 0.20937 0.39531v0.17969h-1.0625zm4.0156 0v-0.17969c0.209-0.039 0.20937-0.18631 0.20937-0.39531v-2.3391c0-0.21-0.00037-0.35475-0.20937-0.39375v-0.18125h1.7625c0.597 0 1.1672 0.29756 1.1672 0.97656 0 0.499-0.36163 0.84662-0.81563 0.91562v0.009c0.336 0.107 0.60625 0.3815 0.60625 0.7625 0 0.533-0.44494 0.825-0.88594 0.825h-1.8344zm3 0v-0.17969c0.208-0.039 0.20781-0.18631 0.20781-0.39531v-2.3391c0-0.21 0.00019-0.35475-0.20781-0.39375v-0.18125h2.7438v0.7375l-0.2375 0.00003c-0.042-0.253-0.17056-0.31719-0.40156-0.31719h-1.2516v1.3297h0.82968c0.18 0 0.33638-0.0248 0.35938-0.24375h0.2375v0.90781h-0.2375c-0.023-0.219-0.17938-0.24375-0.35938-0.24375h-0.82968v0.9h1.1375c0.251 0.004 0.32706-0.005 0.38906-0.28437h0.23594v0.70312h-2.6156zm2.8766 0v-0.18125c0.208-0.039 0.20938-0.18475 0.20938-0.39375v-2.3391c0-0.21-0.001-0.35575-0.20938-0.39375v-0.18125h1.0625v0.18125c-0.209 0.038-0.20937 0.18375-0.20937 0.39375v0.93125h0.50781l0.86719-1.5062h0.83281v0.18125c-0.151 0.023-0.21275 0.10168-0.29375 0.22968l-0.725 1.1922c0.451 0.093 0.76406 0.46419 0.76406 0.94219 0 0.641-0.53725 0.94375-1.1062 0.94375h-1.7zm2.9281 0v-0.72188h0.2375c0.033 0.274 0.14068 0.30157 0.35468 0.30157h0.50782v-2.4938c0-0.21-0.00038-0.35575-0.20938-0.39375v-0.18125h1.0625v0.18125c-0.209 0.038-0.20937 0.18375-0.20937 0.39375v2.4938h0.50625c0.214 0 0.32325-0.0276 0.35625-0.30157h0.2375v0.72188h-2.8438zm-7.9516-0.41875h0.66874c0.288 0 0.55313-0.129 0.55313-0.475 0-0.387-0.26831-0.48438-0.59531-0.48438h-0.62656v0.95938zm5.8766-0.002h0.56406c0.365-0.009 0.74375-0.1375 0.74375-0.5875 0-0.424-0.35563-0.55469-0.71563-0.55469h-0.59218v1.1422zm34.892-0.18906c0.0413 0.002 0.0835-0.004 0.125-0.0188l0.20626-0.0734c0.166-0.059 0.24806-0.24281 0.18906-0.40781l-0.0922-0.24844c-0.059-0.166-0.24225-0.25162-0.40625-0.19062l-0.20625 0.075c-0.165 0.06-0.25063 0.24225-0.19063 0.40625l0.0922 0.25c0.045 0.123 0.15878 0.20167 0.28281 0.20781zm-29.022-0.0297 0.44531-1.1594h-0.87187l0.42656 1.1594zm-40.725-0.0952c0.12347-0.006 0.23781-0.0856 0.28281-0.20938l0.0891-0.25c0.061-0.164-0.0241-0.34681-0.18906-0.40781l-0.20468-0.0734c-0.16501-0.06-0.34882 0.0246-0.40782 0.19062l-0.0906 0.24844c-0.06 0.166 0.0256 0.34782 0.19062 0.40782l0.20469 0.0734c0.041 0.0152 0.0838 0.0224 0.125 0.0203zm61.295-0.75157 1.1625-1.4234-1.7797 0.23906 0.61718 1.1844zm-32.317-0.31093h0.62031c0.422 0 0.81093-0.18231 0.81093-0.67031 0-0.446-0.36943-0.60157-0.74843-0.60157h-0.68281v1.2719zm40.322-0.0234c0.0413 0.00065 0.0842-0.007 0.125-0.0234l0.20313-0.0828c0.162-0.066 0.241-0.25106 0.175-0.41406l-0.0984-0.24375c-0.067-0.163-0.25206-0.24156-0.41406-0.17656l-0.20469 0.0813c-0.163 0.066-0.24 0.25106-0.175 0.41406l0.1 0.24688c0.0495 0.1215 0.16517 0.19647 0.28906 0.19843zm-68.848-0.125c0.12389-0.001 0.24113-0.0762 0.29063-0.19844l0.0984-0.24687c0.066-0.163-0.0136-0.34907-0.17657-0.41407l-0.20156-0.0813c-0.163-0.065-0.34806 0.012-0.41406 0.175l-0.0984 0.24844c-0.067 0.162 0.012 0.3465 0.175 0.4125l0.20313 0.0813c0.0407 0.0168 0.0821 0.0239 0.12343 0.0234zm68.358-1.0719c0.0414-0.0008 0.0832-0.009 0.12344-0.0266l0.2-0.0891c0.161-0.072 0.2335-0.26087 0.1625-0.42187l-0.10937-0.24063c-0.071-0.16-0.25875-0.23194-0.41875-0.16094l-0.2 0.0891c-0.16 0.072-0.23194 0.25874-0.16094 0.41874l0.10781 0.24376c0.0533 0.12074 0.17119 0.18993 0.29531 0.1875zm-67.864-0.12343c0.12375 0.003 0.24288-0.0683 0.29688-0.18906l0.10625-0.24376c0.072-0.159 0.00006-0.34731-0.16094-0.42031l-0.2-0.0891c-0.16-0.071-0.34831 0.002-0.42031 0.1625l-0.10625 0.24219c-0.072 0.161-0.00063 0.34875 0.15937 0.41875l0.20156 0.0906c0.04 0.018 0.0822 0.0273 0.12344 0.0281zm67.334-1.0531c0.0411-0.002 0.0811-0.0125 0.12031-0.0312l0.19687-0.0969c0.159-0.076 0.22444-0.268 0.14844-0.425l-0.11718-0.23906c-0.076-0.158-0.268-0.22231-0.425-0.14531l-0.19688 0.0953c-0.159 0.077-0.22488 0.267-0.14688 0.425l0.11719 0.2375c0.0578 0.11925 0.17985 0.18587 0.30313 0.17969zm-66.8-0.12343c0.12333 0.007 0.24462-0.0581 0.30312-0.17657l0.11719-0.23906c0.077-0.158 0.0111-0.34856-0.14687-0.42656l-0.19688-0.0953c-0.158-0.077-0.348-0.0131-0.425 0.14687l-0.11719 0.23906c-0.077 0.158-0.0111 0.34644 0.14688 0.42344l0.19687 0.0969c0.0392 0.0192 0.0808 0.0289 0.12188 0.0312zm66.228-1.0375c0.0412-0.004 0.0831-0.0154 0.12188-0.0359l0.19218-0.10313c0.156-0.081 0.21426-0.27468 0.13126-0.42968l-0.12344-0.23282c-0.082-0.156-0.27669-0.21325-0.42969-0.13125l-0.19375 0.10313c-0.154 0.082-0.21325 0.27469-0.13125 0.42969l0.125 0.23281c0.0615 0.117 0.1843 0.17815 0.30781 0.16719zm-65.653-0.11876c0.12328 0.0109 0.24712-0.0525 0.30937-0.16874l0.125-0.23438c0.082-0.154 0.0222-0.34669-0.13281-0.42969l-0.19375-0.10156c-0.154-0.084-0.34669-0.0248-0.42969 0.13125l-0.125 0.23281c-0.081 0.155-0.0228 0.34925 0.13125 0.43125l0.19375 0.10313c0.0387 0.0207 0.0808 0.0323 0.12188 0.0359zm65.041-1.0172c0.041-0.005 0.0823-0.0173 0.12032-0.0391l0.19062-0.11093c0.152-0.088 0.20262-0.28082 0.11562-0.43282l-0.13281-0.22968c-0.088-0.153-0.28081-0.20419-0.43281-0.11719l-0.19062 0.10937c-0.152 0.089-0.20419 0.28238-0.11719 0.43438l0.13437 0.22969c0.0645 0.11325 0.1895 0.17096 0.3125 0.15625zm-64.425-0.12032c0.12267 0.0152 0.24806-0.0422 0.31406-0.15624l0.13282-0.22969c0.088-0.153 0.0358-0.34694-0.11719-0.43594l-0.18906-0.10781c-0.152-0.088-0.34638-0.0354-0.43438 0.11562l-0.13281 0.23125c-0.087 0.151-0.0348 0.34581 0.11719 0.43281l0.18906 0.10938c0.0378 0.0217 0.0794 0.0355 0.12031 0.0406zm63.773-0.99687c0.0407-0.007 0.0815-0.0202 0.11875-0.0437l0.1875-0.11719c0.148-0.092 0.193-0.28694 0.1-0.43594l-0.14063-0.225c-0.094-0.149-0.2895-0.19512-0.4375-0.10312l-0.1875 0.11719c-0.148 0.093-0.19356 0.2885-0.10156 0.4375l0.14219 0.22343c0.0697 0.1125 0.19669 0.16657 0.31875 0.14688zm-63.12-0.11719c0.12234 0.0196 0.25056-0.0336 0.32031-0.14531l0.14062-0.22344c0.093-0.149 0.0464-0.34606-0.10156-0.43906l-0.18594-0.11719c-0.149-0.092-0.3445-0.0474-0.4375 0.10156l-0.14062 0.225c-0.093 0.148-0.0464 0.34607 0.10156 0.43907l0.18594 0.11562c0.0372 0.0233 0.0764 0.0372 0.11719 0.0437zm10.281-0.125c-0.65375-0.0141-1.2961-0.29225-1.8016-0.84375-1.123-1.225-0.98276-2.5704 0.20624-3.6594 0.726-0.665 1.5121-0.81882 2.3781-0.58282l-0.13125 0.46407c-0.548-0.194-1.2326-0.14194-1.6766 0.26406-0.892 0.817-0.41988 1.9614 0.27812 2.7234 0.693 0.756 1.6242 1.2455 2.4812 0.4625 0.585-0.537 0.59757-1.1604 0.0266-1.8234l0.36407-0.33437c0.151 0.196 0.30587 0.39668 0.47187 0.57968 0.189 0.205 0.404 0.40794 0.525 0.51094-0.381 0.544-0.77256 1.0579-1.2516 1.4969-0.5515 0.506-1.2166 0.75631-1.8703 0.74218zm52.03-0.85156c0.0799 0.0156 0.16607 0.001 0.23907-0.0484l0.17969-0.12188c0.146-0.099 0.18493-0.29562 0.0859-0.44062l-0.14687-0.22031c-0.098-0.146-0.29619-0.18394-0.44219-0.0859l-0.17969 0.12187c-0.147 0.098-0.1855 0.29563-0.0875 0.44063l0.14844 0.22031c0.0495 0.073 0.12325 0.11876 0.20312 0.13438zm-61.617-0.1125c0.12164 0.0236 0.25075-0.0256 0.325-0.13438l0.14687-0.22031c0.098-0.147 0.0606-0.34262-0.0844-0.44062l-0.18282-0.12344c-0.145-0.098-0.34262-0.0595-0.44062 0.0875l-0.14844 0.21875c-0.098 0.146-0.0585 0.34262 0.0875 0.44062l0.17969 0.12344c0.0365 0.0245 0.0766 0.0406 0.11719 0.0484zm49.361-0.1875c-0.383-0.354-0.67588-0.62881-0.97188-0.88281-0.296-0.253-0.61625-0.50019-0.93125-0.74219l0.1875-0.21875c0.42 0.35 0.54425 0.27737 0.73125 0.0594l2.275-2.6609c0.186-0.219 0.23675-0.35463-0.20625-0.74063l0.1875-0.21875c0.448 0.411 0.96544 0.87857 1.5484 1.3766 0.545 0.466 1.0469 0.869 1.4969 1.225-0.249 0.408-0.4905 0.8375-0.7125 1.2875l-0.25312-0.21719c0.458-0.822 0.003-1.4078-0.625-1.9438-0.302-0.258-0.35606-0.20544-0.48906-0.0484l-2.3172 2.7141c-0.186 0.219-0.23838 0.35275 0.26562 0.79375l-0.18593 0.21719zm11.53-0.76406c0.0802 0.0127 0.166-0.006 0.2375-0.0578l0.17656-0.12812c0.142-0.104 0.17332-0.30175 0.0703-0.44375l-0.15625-0.21406c-0.103-0.144-0.30175-0.17431-0.44375-0.0703l-0.17813 0.12812c-0.142 0.103-0.17275 0.30075-0.0688 0.44375l0.15469 0.21406c0.0515 0.071 0.12756 0.11538 0.20781 0.12813zm-60.036-0.10938c0.0803-0.0124 0.15476-0.0556 0.20626-0.12656l0.15781-0.21562c0.102-0.143 0.0701-0.34176-0.0719-0.44376l-0.17657-0.12968c-0.143-0.104-0.34131-0.0707-0.44531 0.0703l-0.15469 0.21563c-0.103 0.141-0.0717 0.33918 0.0703 0.44218l0.17813 0.12969c0.0705 0.0515 0.15569 0.0702 0.23594 0.0578zm12.098-0.28281-0.16094-0.23594c0.45-0.313 0.41357-0.45262 0.25157-0.69062l-1.9578-2.9031c-0.161-0.237-0.27638-0.325-0.73438-0.025l-0.15938-0.2375c0.34-0.205 0.68482-0.41425 1.0078-0.63125 0.323-0.218 0.64606-0.462 0.96406-0.7l0.16094 0.2375c-0.45 0.311-0.41313 0.45207-0.25313 0.68907l0.95313 1.4141 1.7906-1.2078-0.95156-1.4141c-0.16-0.238-0.27638-0.32344-0.73438-0.0234l-0.15937-0.23906c0.34-0.203 0.68481-0.41369 1.0078-0.62969 0.324-0.218 0.64763-0.461 0.96563-0.7l0.15937 0.2375c-0.449 0.312-0.41312 0.45363-0.25312 0.69063l1.9594 2.9031c0.16 0.238 0.27581 0.325 0.73281 0.025l0.16094 0.23594c-0.34 0.206-0.68537 0.41581-1.0094 0.63281-0.323 0.219-0.6455 0.46-0.9625 0.7l-0.16094-0.23906c0.449-0.312 0.41413-0.45206 0.25313-0.68906l-0.77657-1.1516-1.7922 1.2078 0.77657 1.15c0.16 0.24 0.27581 0.32656 0.73281 0.0266l0.16094 0.2375c-0.34 0.204-0.68538 0.41369-1.0094 0.62969-0.323 0.219-0.6445 0.461-0.9625 0.7zm47.173-0.64687c0.0806 0.0101 0.16538-0.0101 0.23438-0.0641l0.17187-0.13594c0.138-0.10699 0.16325-0.30687 0.0563-0.44687l-0.16406-0.20781c-0.108-0.138-0.30788-0.16269-0.44688-0.0547l-0.17187 0.13437c-0.139 0.108-0.16269 0.30888-0.0547 0.44688l0.1625 0.20781c0.0545 0.0695 0.13188 0.11019 0.2125 0.12032zm-58.505-0.10626c0.0807-0.01 0.15694-0.0502 0.21094-0.11874l0.16406-0.21094c0.108-0.137 0.0833-0.33832-0.0547-0.44532l-0.17343-0.13593c-0.138-0.108-0.33675-0.0833-0.44375 0.0547l-0.16406 0.20937c-0.108 0.138-0.0833 0.33787 0.0547 0.44687l0.17188 0.13438c0.069 0.054 0.15362 0.0755 0.23437 0.0656zm44.75-0.59062c-0.426-0.302-0.75369-0.538-1.0797-0.75-0.327-0.213-0.67631-0.41606-1.0203-0.61406l0.15625-0.24063c0.463 0.294 0.57838 0.20507 0.73438-0.0359l1.9062-2.9359c0.156-0.242 0.191-0.38281-0.3-0.70781l0.15781-0.24063c0.499 0.348 1.0726 0.74394 1.7156 1.1609 0.601 0.391 1.1523 0.72431 1.6453 1.0203-0.194 0.436-0.37863 0.89475-0.54063 1.3688l-0.28125-0.17969c0.348-0.875-0.17731-1.3979-0.87031-1.8469-0.333-0.216-0.38019-0.15694-0.49219 0.0141l-1.9438 2.9938c-0.157 0.24-0.19025 0.38213 0.36875 0.75313l-0.15625 0.24062zm12.955-0.31406c0.081 0.007 0.16375-0.0169 0.23125-0.0734l0.16719-0.14063c0.135-0.113 0.15262-0.31187 0.0406-0.44687l-0.17187-0.20313c-0.113-0.135-0.31288-0.15362-0.44688-0.0406l-0.16875 0.14062c-0.134 0.112-0.1505 0.31444-0.0375 0.44844l0.17031 0.20313c0.0565 0.0675 0.13462 0.1055 0.21562 0.1125zm-56.902-0.10313c0.081-0.007 0.15912-0.0466 0.21562-0.11406l0.17188-0.20313c0.113-0.134 0.0949-0.33543-0.0391-0.44843l-0.16875-0.14063c-0.134-0.112-0.33387-0.0949-0.44687 0.0391l-0.17031 0.20312c-0.113 0.134-0.0949 0.33544 0.0391 0.44844l0.16719 0.14062c0.0675 0.057 0.15025 0.0821 0.23125 0.075zm56.066-0.87812c0.0811 0.004 0.16419-0.0238 0.22969-0.0828l0.1625-0.14532c0.13-0.118 0.142-0.31744 0.025-0.44844l-0.17813-0.19687c-0.117-0.13-0.31843-0.141-0.44843-0.025l-0.1625 0.14687c-0.131 0.118-0.142 0.32-0.025 0.45l0.17812 0.19688c0.059 0.065 0.13763 0.10044 0.21875 0.10469zm-55.227-0.10313c0.0815-0.004 0.16131-0.0392 0.22031-0.10468l0.17657-0.19688c0.117-0.131 0.10656-0.333-0.0234-0.45l-0.1625-0.14531c-0.13-0.119-0.33244-0.10913-0.44844 0.0219l-0.17812 0.19844c-0.117 0.131-0.10757 0.33044 0.0234 0.44844l0.1625 0.14531c0.065 0.059 0.14818 0.0869 0.22968 0.0828zm40.842-0.21094c-0.351-0.188-0.70581-0.38043-1.0578-0.54843-0.35-0.167-0.72463-0.322-1.0906-0.475l0.12344-0.25938c0.496 0.229 0.59887 0.12719 0.72187-0.13281l1.5078-3.1609c0.124-0.259 0.13843-0.40175-0.35157-0.64375l0.12344-0.25937c0.349 0.189 0.70425 0.384 1.0562 0.55 0.352 0.169 0.72519 0.321 1.0922 0.475l-0.125 0.25937c-0.497-0.23-0.59788-0.12875-0.72188 0.13125l-1.5078 3.1594c-0.123 0.26-0.13844 0.40531 0.35156 0.64531l-0.12187 0.25937zm13.516-0.6375c0.0813 0.001 0.16463-0.0296 0.22813-0.0906l0.15781-0.15156c0.126-0.122 0.12881-0.324 0.008-0.45l-0.18594-0.19063c-0.121-0.126-0.323-0.12881-0.45-0.008l-0.15625 0.15313c-0.127 0.122-0.12981 0.32344-0.008 0.44844l0.18438 0.19218c0.0605 0.0635 0.14062 0.0958 0.22187 0.0969zm-53.488-0.10156c0.0813-0.001 0.16244-0.0323 0.22344-0.0953l0.18281-0.19375c0.123-0.124 0.11975-0.32588-0.006-0.44688l-0.15625-0.15468c-0.127-0.121-0.328-0.11819-0.45 0.008l-0.18594 0.19218c-0.122 0.127-0.11662 0.328 0.009 0.45l0.15625 0.15157c0.063 0.061 0.14531 0.0903 0.22656 0.0891zm15.392-0.28437-3.4469-3.1094c-0.199-0.183-0.41224-0.32943-0.65624-0.22343l-0.1 0.0437-0.11563-0.26407c0.259-0.09 0.5115-0.17793 0.7625-0.28593 0.25-0.109 0.49494-0.23607 0.73594-0.36407l0.11406 0.26407-0.15625 0.0672c-0.232 0.101-0.38194 0.16569-0.31094 0.32969 0.038 0.087 0.12932 0.18231 0.22032 0.27031l0.64687 0.6125 1.4625-0.63437-0.0547-0.91719c-0.009-0.122-0.0304-0.23838-0.0594-0.30938-0.05-0.111-0.14775-0.11581-0.39375-0.008l-0.28125 0.12188-0.11407-0.2625c0.391-0.149 0.78732-0.29806 1.1703-0.46406 0.382-0.167 0.7635-0.35463 1.1375-0.54063l0.11406 0.26406-0.13125 0.0563c-0.182 0.079-0.26469 0.18231-0.25469 0.44531l0.20625 4.6922-0.49531 0.21563zm22.002-0.20157c-0.372-0.145-0.74718-0.29218-1.1172-0.41718-0.369-0.122-0.75919-0.2305-1.1422-0.3375l0.0922-0.27188c0.52 0.167 0.609 0.0532 0.7-0.21875l0.44218-1.3188-2.05-0.68437-0.44218 1.3172c-0.092 0.273-0.0873 0.41531 0.42968 0.59531l-0.0922 0.275c-0.37-0.147-0.74463-0.29319-1.1156-0.41719-0.369-0.124-0.75819-0.23406-1.1422-0.33906l0.0906-0.27188c0.521 0.167 0.61156 0.0517 0.70156-0.22031l1.1109-3.3188c0.091-0.273 0.0904-0.419-0.42657-0.6l0.0906-0.27188c0.368 0.146 0.74663 0.29319 1.1156 0.41719 0.369 0.123 0.75862 0.23207 1.1406 0.33907l-0.0906 0.27031c-0.521-0.166-0.61057-0.0517-0.70157 0.22031l-0.54062 1.6156 2.05 0.68594 0.54062-1.6156c0.09-0.273 0.0894-0.41788-0.42656-0.59688l0.0906-0.27187c0.37 0.146 0.74562 0.29262 1.1156 0.41562 0.369 0.126 0.75819 0.23307 1.1422 0.33907l-0.0922 0.27187c-0.521-0.167-0.61156-0.0527-0.70156 0.22031l-1.1094 3.3203c-0.092 0.272-0.0904 0.41743 0.42656 0.59843l-0.0891 0.27031zm15.194-0.33437c0.0812-0.001 0.16088-0.0328 0.22188-0.0953l0.15312-0.15782c0.122-0.127 0.11875-0.329-0.006-0.45l-0.19375-0.18437c-0.12501-0.121-0.32544-0.11875-0.44844 0.006l-0.15157 0.15938c-0.121 0.126-0.11819 0.32743 0.008 0.44843l0.19063 0.18438c0.063 0.061 0.14531 0.0904 0.22656 0.0891zm-51.684-0.0984c0.0814 0.002 0.16306-0.0276 0.22656-0.0891l0.19062-0.18437c0.126-0.123 0.12982-0.32244 0.008-0.44844l-0.15156-0.15938c-0.122-0.125-0.324-0.12981-0.45-0.008l-0.19062 0.18438c-0.127 0.124-0.12982 0.325-0.008 0.45l0.15156 0.15784c0.061 0.063 0.14206 0.0953 0.22344 0.0969zm16.795-0.41093-0.0781-0.27657c0.577-0.172 0.58525-0.31875 0.50625-0.59375l-0.96562-3.3656c-0.079-0.277-0.16257-0.39319-0.80157-0.21719l-0.0797-0.27656c0.465-0.112 0.85862-0.20231 1.2656-0.32031 0.507-0.146 0.8905-0.27713 1.3375-0.42813l0.0797 0.27813-0.28281 0.0812c-0.493 0.14-0.452 0.28469-0.375 0.55469l0.34375 1.1969c0.225-0.086 0.42387-0.15807 0.62187-0.21407 1.085-0.311 1.9864-0.17174 2.3234 1.0063 0.375 1.308-0.90444 1.7159-1.4484 1.8719-0.442 0.128-0.81993 0.19331-1.2609 0.32031-0.374 0.107-0.78994 0.24882-1.1859 0.38282zm-3.0109-0.11094-0.11562-1.7906-1.2219 0.53125 1.3375 1.2594zm36.967-0.26875c0.0811-0.004 0.16131-0.0381 0.22031-0.10313l0.14531-0.16406c0.118-0.13 0.10757-0.332-0.0234-0.45l-0.19687-0.17656c-0.13-0.117-0.33044-0.10756-0.44844 0.0234l-0.14687 0.1625c-0.117 0.131-0.10656 0.33043 0.0234 0.44843l0.19844 0.17969c0.0655 0.058 0.147 0.0839 0.22812 0.0797zm-49.816-0.0969c0.0811 0.004 0.16418-0.0222 0.22968-0.0813l0.19688-0.17656c0.13-0.117 0.13987-0.31844 0.0219-0.44844l-0.12-0.24c-0.118-0.13-0.31744-0.13988-0.44844-0.0219l-0.19844 0.17812c-0.131 0.116-0.14044 0.31688-0.0234 0.44688l0.14688 0.16406c0.059 0.065 0.13918 0.0989 0.22031 0.10313zm17.653-0.46406c0.0915 0.009 0.20206-0.0164 0.31406-0.0484 0.717-0.207 0.88306-0.71519 0.68906-1.3922-0.203-0.711-0.72318-0.961-1.3672-0.775-0.131 0.038-0.24856 0.077-0.37656 0.15l0.54687 1.9062c0.03 0.1055 0.10225 0.15 0.19375 0.15938zm2.2109-0.0625-0.0344-0.28437c0.542-0.074 0.5725-0.21656 0.5375-0.50156l-0.42656-3.475c-0.035-0.286-0.0997-0.41387-0.70469-0.34687l-0.0344-0.28594c0.681-0.063 1.3694-0.12738 2.0484-0.20938 0.658-0.081 1.3055-0.18081 1.9625-0.28281 0.123 0.439 0.25269 0.87869 0.42969 1.3047l-0.32656 0.0406c-0.264-0.802-0.85419-0.83918-1.6422-0.74218l-0.29687 0.0359c-0.197 0.025-0.28338 0.103-0.25938 0.3l0.20625 1.6906 0.54375-0.0656c0.543-0.067 0.71744-0.22706 0.64844-0.78906l0.28281-0.0359c0.007 0.219 0.0256 0.54218 0.0656 0.86718 0.04 0.326 0.0936 0.59538 0.14062 0.80938l-0.28437 0.0359c-0.063-0.517-0.27007-0.6285-0.81407-0.5625l-0.54218 0.0672 0.20156 1.6422c0.017 0.14201 0.074 0.19857 0.25 0.17657l0.28437-0.0359c0.706-0.087 1.1775-0.17181 1.1125-1.0328l0.33907-0.0422c0.014 0.329 0.05 0.84924 0.1 1.2562-0.641 0.059-1.2751 0.11576-1.9141 0.19376-0.63 0.078-1.2584 0.17587-1.8734 0.27187zm28.988-0.23281c0.0811-0.007 0.15912-0.045 0.21562-0.1125l0.14063-0.16719c0.114-0.135 0.0965-0.33643-0.0375-0.44843l-0.20312-0.17032c-0.135-0.113-0.337-0.0949-0.45 0.0391l-0.13907 0.16719c-0.114 0.13499-0.0959 0.33543 0.0391 0.44843l0.20312 0.17031c0.067 0.0565 0.15013 0.0804 0.23125 0.0734zm-47.888-0.0937c0.081 0.007 0.16531-0.0174 0.23281-0.0734l0.20156-0.17031c0.136-0.112 0.15363-0.31188 0.0406-0.44688l-0.14063-0.16875c-0.113-0.135-0.31344-0.15206-0.44844-0.0391l-0.20156 0.17031c-0.135 0.113-0.15362 0.314-0.0406 0.45l0.14062 0.16719c0.0565 0.067 0.13463 0.10419 0.21563 0.11094zm25.606-0.0438c-0.519-0.036-0.92094-0.0656-1.3109-0.0766-0.39-0.01-0.79363 0.002-1.1906 0.0109l0.008-0.28593c0.547 0.007 0.59725-0.12919 0.60625-0.41719l0.0906-3.5c0.007-0.288-0.037-0.42388-0.625-0.44688l0.009-0.28593c0.608 0.034 1.3038 0.0758 2.0688 0.0937 0.717 0.02 1.3599 0.0169 1.9359 0.0109 0.063 0.472 0.14525 0.96 0.25625 1.45l-0.33437-0.009c-0.162-0.927-0.88238-1.0988-1.7094-1.1188-0.396-0.01-0.40437 0.0643-0.40937 0.27031l-0.0937 3.5672c-0.008 0.288 0.0362 0.426 0.70625 0.45l-0.008 0.2875zm21.289-0.68594c0.0809-0.01 0.15694-0.0503 0.21094-0.11875l0.13593-0.175c0.108-0.137 0.0843-0.33575-0.0547-0.44375l-0.20938-0.16406c-0.138-0.108-0.33787-0.0839-0.44687 0.0531l-0.13438 0.175c-0.109 0.138-0.0843 0.33731 0.0547 0.44531l0.20938 0.1625c0.0685 0.054 0.1535 0.0755 0.23437 0.0656zm-45.898-0.0891c0.0807 0.01 0.16488-0.0116 0.23438-0.0656l0.20937-0.1625c0.138-0.108 0.16113-0.30831 0.0531-0.44531l-0.13437-0.175c-0.108-0.138-0.30732-0.16212-0.44532-0.0531l-0.21093 0.16407c-0.138 0.108-0.16113 0.30631-0.0531 0.44531l0.13437 0.17187c0.0545 0.069 0.13175 0.11032 0.2125 0.12032zm44.878-0.69844c0.0802-0.0127 0.15475-0.0561 0.20625-0.12656l0.12969-0.17813c0.103-0.142 0.0717-0.34018-0.0703-0.44218l-0.21406-0.15782c-0.142-0.103-0.34231-0.0717-0.44531 0.0703l-0.12813 0.17657c-0.103 0.143-0.0727 0.34175 0.0703 0.44375l0.21563 0.15781c0.0705 0.0515 0.15569 0.069 0.23594 0.0562zm-43.855-0.0859c0.0802 0.013 0.16494-0.004 0.23594-0.0562l0.21406-0.15626c0.141-0.103 0.17331-0.30074 0.0703-0.44374l-0.12812-0.17813c-0.104-0.141-0.30332-0.17231-0.44532-0.0703l-0.21406 0.15468c-0.141 0.104-0.17331 0.30488-0.0703 0.44688l0.12969 0.175c0.052 0.071 0.12756 0.11512 0.20781 0.12812zm42.684-0.66718c0.12108 0.0238 0.25076-0.0241 0.325-0.13282l0.12344-0.18281c0.098-0.146 0.0601-0.34319-0.0859-0.44219l-0.22031-0.14687c-0.146-0.098-0.34262-0.0591-0.44062 0.0859l-0.12344 0.18125c-0.099 0.145-0.0601 0.34262 0.0859 0.44062l0.22031 0.14844c0.036 0.0245 0.0753 0.0405 0.11562 0.0484zm-41.634-0.0813c0.0799 0.0154 0.165 0.00056 0.2375-0.0484l0.22031-0.14844c0.145-0.098 0.18338-0.29363 0.0844-0.44063l-0.12188-0.18125c-0.098-0.146-0.29462-0.18293-0.44062-0.0859l-0.21875 0.14687c-0.145 0.099-0.18394 0.29719-0.0859 0.44219l0.12187 0.18281c0.049 0.0725 0.12326 0.11744 0.20313 0.13281zm40.562-0.62969c0.12263 0.02 0.25056-0.0328 0.32031-0.14531l0.11563-0.18438c0.094-0.149 0.049-0.3445-0.1-0.4375l-0.225-0.14062c-0.149-0.093-0.3455-0.049-0.4375 0.1l-0.11563 0.18593c-0.095 0.147-0.049 0.3445 0.1 0.4375l0.225 0.14063c0.0373 0.0235 0.0763 0.0371 0.11719 0.0437zm-39.364-0.0734c0.0406-0.006 0.0802-0.0208 0.11719-0.0438l0.225-0.14219c0.148-0.093 0.19456-0.2895 0.10156-0.4375l-0.11719-0.18594c-0.092-0.149-0.2885-0.19356-0.4375-0.10156l-0.225 0.14062c-0.149 0.093-0.194 0.28907-0.1 0.43907l0.11563 0.18437c0.0697 0.11175 0.19839 0.16577 0.32031 0.14688zm38.269-0.59688c0.12318 0.0158 0.24881-0.0422 0.31406-0.15625l0.10938-0.19062c0.089-0.153 0.0358-0.34638-0.11719-0.43438l-0.22813-0.13125c-0.152-0.087-0.34637-0.0354-0.43437 0.11563l-0.11094 0.18906c-0.087 0.151-0.0338 0.34738 0.11719 0.43438l0.22968 0.13281c0.0383 0.0223 0.0793 0.0354 0.12032 0.0406zm-37.17-0.0734c0.0409-0.005 0.081-0.0176 0.11876-0.0391l0.23124-0.13438c0.152-0.088 0.20263-0.28081 0.11563-0.43281l-0.10937-0.19062c-0.088-0.152-0.28238-0.20319-0.43438-0.11719l-0.22969 0.13437c-0.152 0.087-0.20419 0.28338-0.11719 0.43438l0.11094 0.18906c0.0652 0.11325 0.19144 0.17083 0.31406 0.15625zm36.05-0.55937c0.12333 0.0108 0.24638-0.0517 0.30938-0.16719l0.10312-0.19375c0.081-0.156 0.0238-0.34769-0.13124-0.42969l-0.23438-0.125c-0.156-0.083-0.34769-0.0232-0.42969 0.13282l-0.10469 0.19218c-0.082 0.155-0.0222 0.34613 0.13282 0.42813l0.23281 0.12656c0.0387 0.0205 0.0808 0.0324 0.12187 0.0359zm-34.93-0.0703c0.041-0.004 0.0818-0.0141 0.12031-0.0344l0.23437-0.125c0.156-0.083 0.21326-0.27525 0.13126-0.43125l-0.10313-0.19219c-0.082-0.156-0.27313-0.21525-0.42813-0.13125l-0.23437 0.12345c-0.155 0.082-0.21425 0.27468-0.13125 0.42968l0.10156 0.19375c0.0615 0.11625 0.18628 0.17778 0.30938 0.16719zm33.789-0.52344c0.1237 0.007 0.24381-0.0596 0.30156-0.17812l0.0984-0.19688c0.076-0.158 0.0106-0.347-0.14844-0.425l-0.2375-0.11562c-0.158-0.077-0.34856-0.0117-0.42656 0.14531l-0.0969 0.19844c-0.076 0.157-0.01 0.347 0.14844 0.425l0.2375 0.11562c0.0395 0.0195 0.0822 0.0289 0.12344 0.0312zm-32.645-0.0656c0.0412-0.002 0.0824-0.0118 0.12187-0.0312l0.2375-0.11719c0.158-0.077 0.22288-0.267 0.14688-0.425l-0.0953-0.19687c-0.078-0.157-0.268-0.22388-0.425-0.14688l-0.23906 0.11719c-0.158 0.077-0.22387 0.267-0.14687 0.425l0.0969 0.19688c0.0577 0.11775 0.17942 0.18482 0.30313 0.17812zm31.486-0.48906c0.12371 0.002 0.24207-0.0675 0.29532-0.1875l0.0891-0.2c0.072-0.16-0.00096-0.34932-0.16094-0.42032l-0.24218-0.10937c-0.16-0.07-0.34832 0.003-0.42032 0.16406l-0.0875 0.2c-0.072 0.16-0.00062 0.34675 0.15938 0.41875l0.24375 0.10781c0.04 0.0178 0.0822 0.0258 0.12343 0.0266zm-30.325-0.0609c0.0411-0.00088 0.0837-0.0101 0.12344-0.0281l0.24219-0.10781c0.161-0.071 0.23194-0.25931 0.16094-0.42031l-0.0891-0.19844c-0.071-0.161-0.25874-0.2335-0.41874-0.1625l-0.24219 0.10781c-0.161 0.072-0.2335 0.26031-0.1625 0.42031l0.0891 0.2c0.054 0.12075 0.17355 0.19165 0.29687 0.18907zm29.142-0.45156c0.12417-0.002 0.24113-0.0762 0.29063-0.19844l0.0813-0.20469c0.066-0.162-0.0136-0.3475-0.17657-0.4125l-0.24531-0.0984c-0.163-0.067-0.34906 0.012-0.41406 0.175l-0.0828 0.20312c-0.066 0.163 0.0136 0.34806 0.17656 0.41406l0.24531 0.1c0.0407 0.0163 0.0836 0.0226 0.125 0.0219zm-27.959-0.0578c0.0412 0.00066 0.0829-0.007 0.12344-0.0234l0.24531-0.1c0.163-0.065 0.24256-0.25006 0.17656-0.41406l-0.0828-0.20313c-0.066-0.163-0.25106-0.24-0.41406-0.175l-0.24532 0.0985c-0.163 0.067-0.24156 0.25206-0.17656 0.41406l0.0828 0.20468c0.0495 0.1215 0.16716 0.19647 0.29063 0.19844zm26.762-0.41406c0.12384-0.006 0.23856-0.0833 0.28281-0.20781l0.075-0.20625c0.061-0.166-0.0246-0.34782-0.19063-0.40782l-0.24843-0.0922c-0.165-0.059-0.34881 0.0256-0.40781 0.19062l-0.075 0.20625c-0.061 0.165 0.0251 0.34881 0.18906 0.40781l0.25 0.0906c0.0413 0.015 0.0837 0.0208 0.125 0.0188zm-25.566-0.0531c0.0412 0.002 0.0838-0.004 0.125-0.0188l0.24844-0.0906c0.165-0.06 0.25119-0.24225 0.19219-0.40625l-0.0766-0.20781c-0.059-0.164-0.24282-0.24962-0.40782-0.19062l-0.24844 0.0922c-0.165 0.06-0.24906 0.24281-0.18906 0.40781l0.075 0.20625c0.045 0.123 0.15764 0.20167 0.28125 0.20782zm24.353-0.37656c0.12337-0.0109 0.23531-0.0943 0.27656-0.21875l0.0672-0.20781c0.053-0.166-0.0377-0.347-0.20468-0.4l-0.25157-0.0828c-0.167-0.055-0.34656 0.0361-0.40156 0.20313l-0.0672 0.20937c-0.055 0.167 0.0361 0.34544 0.20312 0.39844l0.25313 0.0844c0.0417 0.0135 0.0839 0.0177 0.125 0.0141zm-23.139-0.0469c0.041 0.004 0.0835-0.002 0.125-0.0156l0.25312-0.0813c0.166-0.055 0.25712-0.23456 0.20312-0.40156l-0.0672-0.20781c-0.054-0.167-0.233-0.25769-0.4-0.20469l-0.25156 0.0812c-0.167 0.055-0.25869 0.23413-0.20469 0.40313l0.0687 0.20781c0.0405 0.12525 0.15053 0.20811 0.27344 0.21875zm21.912-0.33907c0.12304-0.0151 0.23118-0.10293 0.26718-0.22968l0.0609-0.21094c0.048-0.169-0.0498-0.34475-0.21875-0.39375l-0.25469-0.0719c-0.169-0.048-0.34475 0.0498-0.39375 0.21875l-0.0609 0.20937c-0.048 0.169 0.0498 0.34575 0.21874 0.39375l0.25469 0.0734c0.0423 0.0122 0.0856 0.016 0.12657 0.0109zm-20.683-0.0437c0.041 0.005 0.0846 0.003 0.12656-0.009l0.25469-0.0734c0.169-0.048 0.26619-0.22575 0.21719-0.39375l-0.0609-0.20938c-0.048-0.169-0.22262-0.26775-0.39062-0.21875l-0.25625 0.0719c-0.168 0.048-0.26619 0.22632-0.21719 0.39532l0.0594 0.21093c0.036 0.126 0.14428 0.21138 0.26718 0.22657zm19.444-0.30156c0.12211-0.0198 0.22557-0.11 0.25781-0.2375l0.0547-0.21094c0.042-0.171-0.0613-0.34394-0.23125-0.38594l-0.25937-0.0656c-0.17-0.042-0.34294 0.0608-0.38594 0.23281l-0.0516 0.2125c-0.042 0.17 0.0608 0.34238 0.23281 0.38438l0.25625 0.0656c0.0425 0.0105 0.0859 0.0113 0.12657 0.005zm-18.203-0.0391c0.0408 0.006 0.0841 0.004 0.12656-0.006l0.25781-0.0625c0.171-0.043 0.27425-0.21593 0.23125-0.38593l-0.0531-0.21407c-0.042-0.17-0.21337-0.27325-0.38437-0.23125l-0.25781 0.0641c-0.17 0.044-0.27425 0.21694-0.23125 0.38594l0.0531 0.21406c0.0315 0.1275 0.13547 0.21686 0.25781 0.23594zm16.952-0.26094c0.12169-0.0236 0.22381-0.11713 0.25156-0.24688l0.0437-0.21406c0.037-0.172-0.0718-0.34112-0.24374-0.37812l-0.25938-0.0547c-0.172-0.037-0.34056 0.0733-0.37656 0.24531l-0.0469 0.21407c-0.036 0.171 0.0749 0.33956 0.24688 0.37656l0.25781 0.0562c0.0428 0.009 0.086 0.009 0.12656 0.002zm-15.698-0.0344c0.0405 0.008 0.0823 0.007 0.125-0.002l0.25938-0.0563c0.172-0.036 0.28287-0.203 0.24687-0.375l-0.0453-0.21562c-0.037-0.171-0.20713-0.27975-0.37813-0.24375l-0.25937 0.0547c-0.171 0.037-0.28131 0.20556-0.24531 0.37656l0.0469 0.21406c0.027 0.129 0.12864 0.22335 0.25 0.24688zm14.311-0.22187c0.173 0.031 0.33775-0.0842 0.36875-0.25625l0.0375-0.21563c0.03-0.173-0.0848-0.33675-0.25782-0.36875l-0.2625-0.0469c-0.173-0.03-0.33618 0.0854-0.36718 0.25937l-0.0375 0.21563c-0.032 0.172 0.0848 0.33819 0.25781 0.36719l0.26094 0.0453zm-12.922-0.0281 0.26093-0.0453c0.173-0.031 0.28881-0.19475 0.25781-0.36875l-0.0391-0.21563c-0.03-0.174-0.19319-0.28981-0.36719-0.25781l-0.26093 0.0469c-0.173 0.031-0.28782 0.19475-0.25782 0.36875l0.0375 0.21406c0.031 0.173 0.19575 0.28982 0.36875 0.25782zm11.653-0.17812c0.173 0.024 0.33538-0.0973 0.35938-0.27032l0.0297-0.21875c0.025-0.174-0.0973-0.33281-0.27031-0.35781l-0.2625-0.0375c-0.174-0.025-0.33537 0.0963-0.35937 0.27032l-0.0312 0.21875c-0.024 0.174 0.0979 0.33381 0.27187 0.35781l0.2625 0.0375zm-10.384-0.0234 0.2625-0.0375c0.173-0.024 0.29532-0.18538 0.27032-0.35938l-0.0297-0.21718c-0.025-0.173-0.18538-0.29488-0.35938-0.27188l-0.2625 0.0391c-0.17399 0.025-0.29487 0.18481-0.27187 0.35781l0.0312 0.21875c0.024 0.173 0.18537 0.29431 0.35937 0.27031zm9.1094-0.14218c0.175 0.019 0.332-0.10825 0.35-0.28125l0.0234-0.21875c0.018-0.173-0.10781-0.331-0.28281-0.35l-0.26407-0.0266c-0.175-0.019-0.332 0.10881-0.35 0.28281l-0.0219 0.21719c-0.019 0.174 0.10782 0.33044 0.28282 0.34844l0.26249 0.0281zm-7.8344-0.0172 0.26407-0.0281c0.174-0.017 0.30025-0.17344 0.28125-0.34844l-0.0219-0.21875c-0.019-0.175-0.17444-0.30181-0.34844-0.28281l-0.26406 0.0281c-0.174 0.017-0.30082 0.175-0.28282 0.35l0.0219 0.21719c0.018 0.175 0.175 0.30181 0.35 0.28281zm6.5547-0.1c0.175 0.013 0.32807-0.11931 0.33907-0.29531l0.0156-0.21719c0.012-0.176-0.11931-0.32706-0.29531-0.33906l-0.26407-0.0203c-0.175-0.012-0.32706 0.12031-0.33906 0.29531l-0.0156 0.21875c-0.012 0.175 0.11875 0.32806 0.29375 0.33906l0.26562 0.0188zm-5.2734-0.0141 0.26406-0.0187c0.175-0.013 0.30575-0.16563 0.29375-0.34063l-0.0141-0.21875c-0.012-0.174-0.16406-0.30675-0.33906-0.29375l-0.26562 0.0188c-0.174 0.012-0.30675 0.16407-0.29375 0.33907l0.0141 0.21875c0.013 0.174 0.16463 0.30631 0.34063 0.29531zm3.9922-0.0609c0.175 0.007 0.32056-0.12968 0.32656-0.30468l0.008-0.21875c0.007-0.176-0.13125-0.32369-0.30625-0.32969l-0.26562-0.008c-0.176-0.007-0.32156 0.13125-0.32656 0.30625l-0.009 0.21718c-0.006 0.17601 0.13125 0.32469 0.30625 0.32969l0.26719 0.008zm-2.7094-0.009 0.26406-0.009c0.175-0.007 0.31225-0.15212 0.30625-0.32812l-0.006-0.21875c-0.006-0.175-0.15313-0.31382-0.32813-0.30782l-0.26563 0.009c-0.175 0.007-0.31225 0.15212-0.30625 0.32812l0.008 0.22031c0.005 0.175 0.15213 0.31226 0.32813 0.30626zm1.1594-0.0172h0.26563c0.175 0 0.31875-0.14118 0.31875-0.31718v-0.21875c0-0.176-0.14375-0.31719-0.31875-0.31719h-0.26563c-0.176 0-0.31718 0.14119-0.31718 0.31719v0.21875c0 0.176 0.14118 0.31718 0.31718 0.31718z" fill="#4b9cd3"/></g></g></svg>
