<?xml version="1.0" encoding="UTF-8" standalone="no"?>
<!-- Created with Inkscape (http://www.inkscape.org/) -->

<svg
   xmlns:dc="http://purl.org/dc/elements/1.1/"
   xmlns:cc="http://creativecommons.org/ns#"
   xmlns:rdf="http://www.w3.org/1999/02/22-rdf-syntax-ns#"
   xmlns:svg="http://www.w3.org/2000/svg"
   xmlns="http://www.w3.org/2000/svg"
   version="1.1"
   width="300"
   height="299.99274"
   id="svg2">
  <title
     id="title3649">University of Idaho seal</title>
  <defs
     id="defs4" />
  <metadata
     id="metadata7">
    <rdf:RDF>
      <cc:Work
         rdf:about="">
        <dc:format>image/svg+xml</dc:format>
        <dc:type
           rdf:resource="http://purl.org/dc/dcmitype/StillImage" />
        <dc:title>University of Idaho seal</dc:title>
      </cc:Work>
    </rdf:RDF>
  </metadata>
  <g
     transform="translate(-139.69373,-486.96018)"
     id="layer1">
    <g
       transform="matrix(3.6242494,0,0,3.6242494,139.69441,486.13974)"
       id="g3429">
      <g
         transform="translate(0.729492,0.956055)"
         id="g2987"
         style="fill:#ffffff;fill-rule:nonzero;stroke:none">
        <path
           d="m 40.6572,0 c 22.4541,0 40.6592,18.2031 40.6592,40.6572 0,22.4551 -18.2051,40.6572 -40.6592,40.6572 C 18.2031,81.3144 0,63.1123 0,40.6572 0,18.2031 18.2031,0 40.6572,0 z"
           id="path2989" />
      </g>
      <g
         transform="translate(0.729492,0.956055)"
         id="g2991"
         style="fill:none;stroke:#161413;stroke-width:1.45936;stroke-linecap:butt;stroke-linejoin:miter;stroke-dasharray:none">
        <path
           d="m 40.6572,0 c 0,0 4.1563,0.208985 4.1563,0.208985 0,0 4.0371,0.61621 4.0371,0.61621 0,0 3.8965,1.001955 3.8965,1.001955 0,0 3.7353,1.36719 3.7353,1.36719 0,0 3.5547,1.71191 3.5547,1.71191 0,0 3.3516,2.03711 3.3516,2.03711 0,0 3.1308,2.34079 3.1308,2.34079 0,0 2.8867,2.62405 2.8867,2.62405 0,0 2.625,2.8867 2.625,2.8867 0,0 2.3409,3.1299 2.3409,3.1299 0,0 2.0361,3.3525 2.0361,3.3525 0,0 1.7119,3.5537 1.7119,3.5537 0,0 1.3682,3.7354 1.3682,3.7354 0,0 1.0019,3.8964 1.0019,3.8964 0,0 0.6162,4.0372 0.6162,4.0372 0,0 0.21,4.1572 0.21,4.1572 0,0 -0.21,4.1562 -0.21,4.1562 0,0 -0.6162,4.0371 -0.6162,4.0371 0,0 -1.0019,3.8965 -1.0019,3.8965 0,0 -1.3682,3.7354 -1.3682,3.7354 0,0 -1.7119,3.5547 -1.7119,3.5547 0,0 -2.0361,3.3515 -2.0361,3.3515 0,0 -2.3409,3.1299 -2.3409,3.1299 0,0 -2.625,2.8877 -2.625,2.8877 0,0 -2.8867,2.624 -2.8867,2.624 0,0 -3.1308,2.3399 -3.1308,2.3399 0,0 -3.3516,2.0371 -3.3516,2.0371 0,0 -3.5547,1.7119 -3.5547,1.7119 0,0 -3.7353,1.3672 -3.7353,1.3672 0,0 -3.8965,1.0019 -3.8965,1.0019 0,0 -4.0371,0.6162 -4.0371,0.6162 0,0 -4.1563,0.21 -4.1563,0.21 0,0 -4.1572,-0.21 -4.1572,-0.21 0,0 -4.0371,-0.6162 -4.0371,-0.6162 0,0 -3.8965,-1.0019 -3.8965,-1.0019 0,0 -3.7354,-1.3672 -3.7354,-1.3672 0,0 -3.5537,-1.7119 -3.5537,-1.7119 0,0 -3.3525,-2.0371 -3.3525,-2.0371 0,0 -3.1299,-2.3399 -3.1299,-2.3399 0,0 -2.8867,-2.624 -2.8867,-2.624 0,0 -2.62399,-2.8877 -2.62399,-2.8877 0,0 -2.34085,-3.1299 -2.34085,-3.1299 0,0 -2.03711,-3.3515 -2.03711,-3.3515 0,0 -1.71191,-3.5547 -1.71191,-3.5547 0,0 -1.36719,-3.7354 -1.36719,-3.7354 0,0 -1.001952,-3.8965 -1.001952,-3.8965 0,0 -0.616213,-4.0371 -0.616213,-4.0371 0,0 -0.208985,-4.1562 -0.208985,-4.1562 0,0 0.208985,-4.1572 0.208985,-4.1572 0,0 0.616213,-4.0372 0.616213,-4.0372 0,0 1.001952,-3.8964 1.001952,-3.8964 0,0 1.36719,-3.7354 1.36719,-3.7354 0,0 1.71191,-3.5537 1.71191,-3.5537 0,0 2.03711,-3.3525 2.03711,-3.3525 0,0 2.34085,-3.1299 2.34085,-3.1299 0,0 2.62399,-2.8867 2.62399,-2.8867 0,0 2.8867,-2.62405 2.8867,-2.62405 0,0 3.1299,-2.34079 3.1299,-2.34079 0,0 3.3525,-2.03711 3.3525,-2.03711 0,0 3.5537,-1.71191 3.5537,-1.71191 0,0 3.7354,-1.36719 3.7354,-1.36719 0,0 3.8965,-1.001955 3.8965,-1.001955 0,0 4.0371,-0.61621 4.0371,-0.61621 C 36.5,0.208985 40.6572,0 40.6572,0"
           id="path2993" />
      </g>
      <g
         transform="translate(30.6963,73.7549)"
         id="g2995"
         style="fill:#161413;fill-rule:nonzero;stroke:none">
        <path
           d="M 0.25,0.3281 C 0.7119,0.2695 1.166,0.1601 1.6094,0 c 0,0 0.8134,0.2324 0.8134,0.2324 0,0 -1.2617,4.4063 -1.2617,4.4063 0,0 -0.9531,-0.2715 -0.9531,-0.2715 0,0 0.9814,-3.4278 0.9814,-3.4278 C 0.9658,1.0254 0.5361,1.1484 0,1.2051 c 0,0 0.25,-0.877 0.25,-0.877 z"
           id="path2997" />
      </g>
      <g
         transform="translate(36.0176,74.6689)"
         id="g2999"
         style="fill:#161413;fill-rule:nonzero;stroke:none">
        <path
           d="M 1.6435,4.1231 C 1.3291,4.0909 1.0058,3.8399 1.0537,3.376 1.0918,2.9903 1.3955,2.7315 1.7754,2.7696 2.1211,2.8047 2.4033,3.084 2.3613,3.4961 2.3086,4.0059 1.9189,4.1504 1.6435,4.1231 z M 1.124,2.2872 C 0.9492,2.3291 0.7334,2.3731 0.4902,2.5665 0.2744,2.7364 0.1103,2.9766 0.0742,3.3291 0,4.0606 0.5801,4.7207 1.5068,4.8145 2.4013,4.9063 3.2285,4.4961 3.3144,3.6582 3.3359,3.4375 3.3086,3.1973 3.1748,2.9581 2.9687,2.5938 2.6689,2.4844 2.4912,2.4141 2.9629,2.3897 3.4306,2.0547 3.4863,1.5059 3.5605,0.794 2.9804,0.2071 2.0654,0.1133 0.956,0 0.4179,0.6709 0.3623,1.2266 0.29,1.9317 0.9033,2.1924 1.124,2.2872 z M 1.8613,1.9864 C 1.501,1.9493 1.3017,1.6582 1.333,1.3389 1.3691,0.9922 1.6592,0.7969 1.9853,0.8321 2.2929,0.8624 2.5732,1.0889 2.5351,1.461 2.499,1.8262 2.1953,2.0196 1.8613,1.9864 z"
           id="path3001" />
      </g>
      <g
         transform="translate(42.5381,74.7822)"
         id="g3003"
         style="fill:#161413;fill-rule:nonzero;stroke:none">
        <path
           d="M 1.8174,4.0908 C 1.5019,4.1143 1.1396,3.9248 1.1035,3.461 1.0732,3.0742 1.3271,2.7657 1.707,2.7364 2.0527,2.709 2.3808,2.9356 2.4131,3.3467 2.4512,3.8574 2.0908,4.0703 1.8174,4.0908 z M 0.9814,2.376 C 0.8154,2.4483 0.6103,2.5303 0.4043,2.7627 0.2217,2.9678 0.1045,3.2334 0.1318,3.5869 0.1885,4.3203 0.874,4.8662 1.8037,4.7959 2.7012,4.7285 3.4424,4.1778 3.3789,3.3399 3.3623,3.1172 3.291,2.8848 3.1162,2.6739 2.8506,2.3535 2.5351,2.2969 2.3486,2.2588 2.8086,2.1524 3.2109,1.7403 3.1709,1.1895 3.1142,0.4746 2.4394,0 1.5234,0.0694 0.4101,0.1543 0,0.9102 0.042,1.4668 0.0957,2.1739 0.7461,2.3223 0.9814,2.376 z M 1.6533,1.9492 C 1.2939,1.9776 1.0439,1.7266 1.0195,1.4063 0.9941,1.0586 1.2432,0.8145 1.5713,0.791 1.8789,0.7676 2.1953,0.9414 2.2246,1.3145 2.251,1.6807 1.9873,1.9239 1.6533,1.9492 z"
           id="path3005" />
      </g>
      <g
         transform="translate(48.4717,73.5068)"
         id="g3007"
         style="fill:#161413;fill-rule:nonzero;stroke:none">
        <path
           d="M 0.7793,4.2012 C 1.083,5.3633 2.208,5.0684 2.4541,5.0039 3.5273,4.7227 4.0234,4.0225 3.5312,2.1495 3.3457,1.4375 2.9277,0 1.4053,0.3985 0.4258,0.6553 0,1.4395 0.2178,2.2647 0.3554,2.792 0.8613,3.5821 1.9463,3.2979 2.1445,3.2461 2.4238,3.1524 2.666,2.7832 2.8457,3.3877 2.9756,4.0879 2.3144,4.2598 2.0488,4.3301 1.833,4.211 1.7383,3.9493 c 0,0 -0.959,0.2519 -0.959,0.2519 z M 1.9267,2.5215 C 1.375,2.668 1.1865,2.1328 1.1465,1.9805 1.0586,1.6436 1.1289,1.2383 1.5791,1.1211 1.9668,1.0196 2.2461,1.252 2.3467,1.6387 c 0.082,0.3106 0.0498,0.7608 -0.42,0.8828 z"
           id="path3009" />
      </g>
      <g
         transform="translate(11.374,11.5625)"
         id="g3011"
         style="fill:#161413;fill-rule:nonzero;stroke:none">
        <path
           d="m 30.0127,0 c 16.5752,0 30.0147,13.4365 30.0147,30.0127 0,16.5762 -13.4395,30.0137 -30.0147,30.0137 C 13.4395,60.0264 0,46.5889 0,30.0127 0,13.4365 13.4395,0 30.0127,0 z"
           id="path3013" />
      </g>
      <g
         transform="translate(37.959,33.4678)"
         id="g3015"
         style="fill:#ffffff;fill-rule:nonzero;stroke:none">
        <path
           d="M 4.8515,4.2646 C 5.0332,4.1328 4.9248,4.2226 5.3984,4.2773 3.8701,6.4345 0.0693,9.915 0.0693,9.915 c 0,0 0.002,2.7539 0.002,2.7539 0,0 3.6982,-2.6221 5.5097,-3.6474 -0.7998,1.7734 -1.8535,5.0878 -2.5009,6.9267 -0.086,0.249 0.2763,-0.2861 0.2763,-0.2861 0,0 3.4961,-5.2988 5.545,-7.7354 -0.2422,1.5313 -2.4727,9.8721 -2.4727,9.8721 0,0 0.5918,0.0273 0.5918,0.0273 0,0 3.7773,-8.7314 3.7773,-8.7314 0,0 0.7295,6.1289 0.7295,6.1289 0,0 0.584,-3.3564 1.0723,-5.6748 0.0078,-0.041 0.1992,-0.084 0.2715,0.1318 0.8594,2.583 2.9883,7.5215 2.9883,7.5215 0,0 0.6836,-0.247 1.081,-0.3701 0.4863,-0.1484 1.2637,0.3066 1.2637,0.3066 0,0 -1.5195,-4.6699 -2.2988,-7.0234 1.5537,1.7656 2.5166,3.9121 4.0878,5.6924 0.0958,-0.0967 0.252,-0.2783 0.252,-0.2783 0,0 -2.1025,-4.6397 -2.5869,-5.7051 2.1748,2.0156 6.1787,6.3555 6.1787,6.3555 0,0 0.7363,-0.1807 1.1621,-0.4454 0.3193,-0.1972 1.0488,-0.3652 1.4873,-0.2187 -1.9531,-1.8477 -5.7637,-6.1289 -5.7637,-6.1289 0,0 3.3565,0.5469 3.3565,0.5469 0,0 -3.626,-3.5782 -3.626,-3.5782 0,0 -10.4023,-4.6767 -13.4971,-6.1015 C 6.4082,0 6.0166,0.0664 6.0166,0.0664 c 0,0 -5.9453,3.9209 -6.0166,3.9209 0.1094,1.0674 0.0713,3.2099 0.0713,3.2099 0,0 3.2383,-1.8271 4.7802,-2.9326 z"
           id="path3017" />
      </g>
      <g
         transform="translate(38.0264,32.0186)"
         id="g3019"
         style="fill:#ffffff;fill-rule:nonzero;stroke:none">
        <path
           d="M 4.2285,2.0293 C 4.2285,2.0293 1.6552,0 1.6552,0 1.6552,0 0.0078,0.25 0.0058,0.2519 0.0039,0.2558 0,3.6591 0,3.6591 c 0,0 1.7158,-0.0293 1.7158,-0.0293 0,0 2.5517,-1.623 2.5127,-1.6005 -0.0381,0.0214 0,0 0,0 z"
           id="path3021" />
      </g>
      <g
         transform="translate(38.0303,28.7109)"
         id="g3023"
         style="fill:#ffffff;fill-rule:nonzero;stroke:none">
        <path
           d="m 4.7002,4.9424 c 0,0 1.1367,-0.5771 1.1367,-0.5771 C 5.8369,4.3653 0,0 0,0 c 0,0 0.0263,1.5127 0.0263,1.5127 0,0 4.6739,3.4297 4.6739,3.4297 z"
           id="path3025" />
      </g>
      <g
         transform="translate(38.251,11.5869)"
         id="g3027"
         style="fill:#ffffff;fill-rule:nonzero;stroke:none">
        <path
           d="m 16.9785,23.791 c 0,0 -0.0137,-0.8789 -0.0137,-0.8789 0,0 11.3457,-7.2597 11.3457,-7.2597 -0.1455,-0.7305 -1.0049,-2.043 -1.751,-2.92 0,0 -10.2402,9.1641 -10.2402,9.1641 -0.1719,0.1484 -0.4385,0.252 -0.706,0.1758 1.915,-4.8067 7.1523,-14.5928 7.1523,-14.5928 0,0 -2.335,-1.6055 -2.335,-1.6055 0,0 -5.8144,15.333 -5.8144,15.333 -0.1699,0.3907 -0.4619,0.0635 -0.4981,-0.0468 0,0 0,-19.1172 0,-19.1172 -0.3037,0.0469 -1.8066,-0.707 -1.8086,-0.6172 0,0 0.5313,20.0635 0.5313,20.0635 0,0 -0.168,0.2881 -0.376,-0.2569 C 12.2588,20.6875 5.7822,0.1387 5.7822,0.1387 5.7822,0.1387 2.5898,0 2.5898,0 c 0,0 8.6162,21.4102 8.7578,21.8692 0.1436,0.4589 -0.2275,0.4668 -0.2275,0.4668 0,0 -0.4219,-0.1924 -0.5918,-0.4249 C 7.1855,17.3203 0.7275,8.501 0.7275,8.501 c 0,0 -0.1123,1.8994 -0.1181,2.0107 C 0.583,11.0918 0.583,11.4561 0,11.3828 c 3.4736,4.0078 10.5019,11.8701 10.5019,11.8701 0,0 4.3916,1.962 4.3916,1.962 0,0 2.085,-1.4239 2.085,-1.4239 z"
           id="path3029" />
      </g>
      <g
         transform="translate(53.5723,32.5146)"
         id="g3031"
         style="fill:#ffffff;fill-rule:nonzero;stroke:none">
        <path
           d="m 0,4.502 c 5.5595,2.6641 11.1845,5.1641 16.7832,7.7344 0.3427,-2.4102 0.1806,-4.8662 0,-7.2959 C 14.4609,3.254 9.4873,0 9.4873,0 c 0,0 -2.4961,0.9629 -2.4961,0.9629 0,0 -1.4375,-0.3007 -1.4375,-0.3007 0,0 -4.4258,2.7968 -5.5537,3.8398 z"
           id="path3033" />
      </g>
      <g
         transform="translate(19.5703,12.0811)"
         id="g3035"
         style="fill:#ffffff;fill-rule:nonzero;stroke:none">
        <path
           d="m 14.1426,9.9492 c 0,0 0.0498,28.9961 0.0498,28.9961 0,0 2.1631,0.1425 1.7852,-0.0244 -0.3995,-0.1758 -0.8194,-1.3389 -0.3418,-1.7081 0.7119,-0.5546 2.2226,-0.1093 2.4785,-0.3291 0,0 -0.0635,-26.5039 -0.0635,-26.5039 0,0 0.8271,-0.0322 0.8271,-0.0322 0,0 0.0977,-3.4443 0.0977,-3.4443 0,0 0.8477,0.1963 0.9199,-0.3594 0.0703,-0.5342 0.0264,-1.5674 0.0264,-1.5674 0,0 -3.6465,-4.9765 -3.6465,-4.9765 0,0 -1.2373,0.3085 -1.2373,0.3085 0,0 -0.0859,-0.1328 0,0 0.5957,0.9454 2.7666,3.7579 2.7666,3.7579 0,0 -8.4258,-1.834 -8.4258,-1.834 0,0 -0.584,0.0185 -0.8496,0.3955 C 8.3672,2.8593 7.8535,3.164 7.8535,3.164 c 0,0 8.9278,2.1416 8.9278,2.1416 0,0 -0.1817,2.7012 -0.1817,2.7012 0,0 -6.7373,-1.6826 -6.7373,-1.6826 0,0 0.0567,-0.5508 0.0567,-0.5508 0,0 3.6757,0.9023 4.5673,1.168 0.3995,0.1162 0.7637,0.0439 0.836,-0.459 0.0693,-0.4903 0.1035,-0.7188 0.1035,-0.7188 0,0 -8.6895,-2.1767 -8.6895,-2.1767 0,0 0.4297,-0.1221 -0.2177,0.1386 C 6.3164,3.8066 5.251,4.5283 5.251,4.5283 c 0,0 3.248,0.8515 3.248,0.8515 0,0 -0.0517,0.5811 -0.0517,0.5811 0,0 -3.8135,-0.9775 -3.8135,-0.9775 0,0 -4.5781,3.8818 -4.5781,3.8818 0,0 -0.0557,4.1924 -0.0557,4.1924 0,0 3.2647,-0.1006 3.2647,-0.1006 0,0 0.0918,-5.3145 0.0918,-5.3145 0,0 3.6474,0.6563 3.6474,0.6563 0,0 -0.5888,18.9648 -0.5635,28.457 0,0.2295 0.3379,0.2051 0.4297,0.2188 0.9776,0.1406 1.8955,0.0918 2.8184,0.5039 0.1846,0.082 0.6103,0.1884 0.6103,0.1884 0,0 0.292,-19.0507 0.208,-28.4921 1.2686,-0.0205 2.4385,0.4101 3.6358,0.7744 0.042,0.0136 0,0 0,0 z"
           id="path3037" />
      </g>
      <g
         transform="translate(14.2686,28.915)"
         id="g3039"
         style="fill:#ffffff;fill-rule:nonzero;stroke:none">
        <path
           d="M 10.0507,0.1612 C 9.3632,0.4727 8.33,1.5098 7.538,2.044 7.0029,2.4034 6.621,2.9473 6.1328,3.3819 5.2695,4.1524 4.0605,3.4063 3.1523,3.8125 1.9052,4.3702 0.8935,5.3106 0.0878,6.5235 0,6.6524 0.1503,6.9268 0.4179,6.9727 1.4472,7.1455 2.3027,6.9971 3.0009,7.7354 3.6386,8.4082 4.4824,9.545 5.0019,10.3819 5.0615,10.4786 4.9853,10.1016 4.9882,9.9981 4.998,9.2637 4.3642,8.4766 4.6757,7.8047 4.9082,7.3028 5.4257,6.6602 5.9209,6.418 6.5048,6.1319 8.04,6.4034 9.1259,6.2012 9.2978,6.169 9.5712,5.9854 9.5537,5.4795 9.5332,4.8252 10.1689,4.8086 9.9209,4.0215 9.8476,3.7891 10.6328,3.8086 10.6044,3.5899 10.5546,3.2012 10.2568,2.2657 10.0615,2.0235 9.9609,1.9004 9.8877,2.295 9.8007,2.3868 9.6396,2.5567 9.4179,2.3174 9.2636,2.2276 9.1113,2.1407 9.4736,2.0176 9.3877,1.8262 10.0351,1.8008 10.6669,1.0743 10.705,0.5489 10.7187,0.3848 10.6709,0.2393 10.5488,0.1426 10.3691,0 10.2949,0.0508 10.0507,0.1612 z"
           id="path3041" />
      </g>
      <g
         transform="translate(19.2939,25.1719)"
         id="g3043"
         style="fill:#ffffff;fill-rule:nonzero;stroke:none">
        <path
           d="M 2.0352,2.9521 C 1.4834,3.3037 0.7823,3.789 0.8721,4.2236 1.0303,5.0088 2.2793,3.9267 3.0352,4.1582 3.0889,4.1748 2.9991,4.5654 3.1924,4.5127 4.1446,4.2568 4.75,3.7607 5.5313,3.2773 5.8956,3.0517 5.3995,1.0381 4.3262,0.5381 3.3047,0.0635 2.0332,0 1.0704,0.5674 0.5977,0.8437 0,1.6982 0.1504,1.9795 0.7745,3.1513 2.4893,1.4424 3.7784,1.3369 3.2422,1.9287 2.7491,2.497 2.0352,2.9521 z"
           id="path3045" />
      </g>
      <g
         transform="translate(15.1787,30.5947)"
         id="g3047"
         style="fill:#ffffff;fill-rule:nonzero;stroke:none">
        <path
           d="M 0.4717,1.3145 C 0.4678,1.6543 0,2.166 0.4678,2.2461 1.5166,2.4239 1.8447,0.8623 1.4727,0 1.0791,0.4766 0.4834,0.6582 0.4717,1.3145 z"
           id="path3049" />
      </g>
      <g
         transform="translate(13.9688,31.0322)"
         id="g3051"
         style="fill:#ffffff;fill-rule:nonzero;stroke:none">
        <path
           d="M 0.2099,1.0254 C 0,1.5196 0.1318,2.1221 0.3486,2.627 0.6103,1.8379 0.8574,1.0547 1.1835,0.2764 1.2041,0.2285 1.0302,0.0987 0.9316,0 0.7714,0.4024 0.3779,0.6338 0.2099,1.0254 z"
           id="path3053" />
      </g>
      <g
         transform="translate(13.6113,37.8877)"
         id="g3055"
         style="fill:#ffffff;fill-rule:nonzero;stroke:none">
        <path
           d="M 1.335,2.2031 C 0.8877,5.6953 0.4854,8.9463 0.0117,12.4141 0,12.498 0.17,12.6035 0.2676,12.7012 1.0098,11.2285 1.043,9.5605 1.6367,8.0527 2.0069,7.1162 2.2549,6.1602 2.7862,5.2812 2.8369,5.2012 3.128,5.3311 3.168,5.1084 3.4619,3.4062 3.7559,1.4668 2.1104,0.5371 1.1592,0 1.4229,1.5117 1.335,2.2031 z"
           id="path3057" />
      </g>
      <g
         transform="translate(12.5039,35.9316)"
         id="g3059"
         style="fill:#ffffff;fill-rule:nonzero;stroke:none">
        <path
           d="M 1.6328,1.7315 C 3.3262,1.0479 3.9795,2.9873 5.0654,3.8018 5.4649,4.1026 5.5527,3.4092 5.4268,3.1446 5.1934,2.6465 4.5576,2.3916 4.4756,1.8096 4.4658,1.7256 4.6914,1.628 4.7031,1.5186 4.7432,1.1329 4.4395,0.7823 4.1338,0.71 3.1582,0.4776 2.2051,0 1.251,0.2842 0.5957,0.4795 0.4121,1.21 0.0723,1.8213 0,1.9483 0.0938,2.0645 0.21,2.0909 0.7373,2.2139 1.209,1.9014 1.6328,1.7315 z"
           id="path3061" />
      </g>
      <g
         transform="translate(19.5723,36.3604)"
         id="g3063"
         style="fill:#ffffff;fill-rule:nonzero;stroke:none">
        <path
           d="M 0.0634,0.6699 C 0,1.4589 0.3496,2.3554 0.4033,3.1396 0.4297,3.498 0.8095,3.3505 0.8672,3.5761 1.1836,4.8183 1.1552,6.1601 1.7353,7.2841 1.8134,7.4375 1.831,7.5507 1.9306,7.6972 2.0791,7.5449 2.165,7.583 2.1631,7.4052 2.1611,7.2294 1.8867,6.2617 1.8769,6.1113 1.8593,5.7636 0.4736,0 0.4736,0 0.334,0.2294 0.084,0.4082 0.0634,0.6699 z"
           id="path3065" />
      </g>
      <g
         transform="translate(20.2998,35.4111)"
         id="g3067"
         style="fill:#ffffff;fill-rule:nonzero;stroke:none">
        <path
           d="M 1.169,1.8955 C 1.5449,2.1875 1.6494,2.6543 2.0508,2.9063 2.1748,2.9844 2.3145,2.8731 2.3106,2.7735 2.2744,1.8965 2.4648,0.6778 2.1094,0.2227 1.9326,0 1.0195,0.1319 0.4414,0.1895 0.2822,0.2061 0.1455,0.4375 0,0.584 0.4258,0.9893 0.6836,1.5176 1.169,1.8955 z"
           id="path3069" />
      </g>
      <g
         transform="translate(30.5049,40.5127)"
         id="g3071"
         style="fill:#ffffff;fill-rule:nonzero;stroke:none">
        <path
           d="M 0.0215,1.8037 C 0.0215,1.8037 0,4.7881 0,4.7881 0,4.7881 2.792,3.0088 2.8203,3.0391 2.8877,3.1191 2.7344,0 2.7344,0 c 0,0 -2.7129,1.8037 -2.7129,1.8037 z"
           id="path3073" />
      </g>
      <g
         transform="translate(30.4082,33.292)"
         id="g3075"
         style="fill:#ffffff;fill-rule:nonzero;stroke:none">
        <path
           d="m 0.0801,0.6445 c 0,0 -0.0801,1.6504 -0.0801,1.6504 0,0 2.9189,0.0449 2.9189,0.0449 0,0 -0.1181,-2.3398 0,-2.3017 0.1163,0.0381 -2.8388,0.6064 -2.8388,0.6064 z"
           id="path3077" />
      </g>
      <g
         transform="translate(30.4063,23.5166)"
         id="g3079"
         style="fill:#ffffff;fill-rule:nonzero;stroke:none">
        <path
           d="m 1.4414,3.1055 c 0.5283,0.2988 1.4794,0.8437 1.4794,0.8437 0,0 -0.0058,-1.8554 -0.0058,-1.8554 C 2.915,2.0938 0,0 0,0 c 0,0 0.0039,2.3945 0.0039,2.3945 0,0 0.9521,0.4375 1.4375,0.711 z"
           id="path3081" />
      </g>
      <g
         transform="translate(23.0762,45.626)"
         id="g3083"
         style="fill:#ffffff;fill-rule:nonzero;stroke:none">
        <path
           d="m 0,1.6396 c 0,0 1.2832,1.6201 1.2832,1.6201 0,0 0.9697,-0.0527 0.9697,-0.0527 0,0 0.042,-3.207 0.042,-3.207 C 2.2949,0 0,1.6396 0,1.6396 z"
           id="path3085" />
      </g>
      <g
         transform="translate(20.2637,47.4883)"
         id="g3087"
         style="fill:#ffffff;fill-rule:nonzero;stroke:none">
        <path
           d="M 2.4365,0 C 2.4365,0 0,1.5683 0,1.5683 0,1.5683 3.458,1.4717 3.458,1.4717 3.458,1.4717 2.4365,0 2.4365,0 z"
           id="path3089" />
      </g>
      <g
         transform="translate(14.0908,49.2197)"
         id="g3091"
         style="fill:#ffffff;fill-rule:nonzero;stroke:none">
        <path
           d="m 4.9756,0.3399 c 0,0 -4.9756,1.8125 -4.9756,1.8125 0,0 0.3281,1.4648 0.836,1.5566 2.289,0.418 4.0478,-0.7666 6.3222,-0.8808 0,0.0976 0.3321,0.2373 0.3799,0.2685 0.4639,0.3057 1.0059,0.0625 1.415,-0.0654 1.1358,-0.3555 2.2657,-0.3926 3.4063,-0.7071 0.8535,-0.2353 1.9678,-0.3251 2.4951,0.4356 0.4317,0.623 0.7735,1.3437 0.9151,2.125 0.0839,0.459 -0.1797,0.9785 -0.1573,1.4434 0.0157,0.3808 0.5371,0.3613 0.7871,0.121 0.4502,-0.4335 0.836,-0.9316 1.1319,-1.4658 C 18.1367,3.8916 17.5508,2.6826 17.5908,1.5147 16.1035,1.0801 14.8789,0.3047 13.4951,0.2022 10.7442,0 4.9756,0.3399 4.9756,0.3399 z"
           id="path3093" />
      </g>
      <g
         transform="translate(14.1826,27.6787)"
         id="g3095"
         style="fill:#ffffff;fill-rule:nonzero;stroke:none">
        <path
           d="M 2.1973,1.9131 C 2.2832,1.8184 2.377,1.9609 2.4766,2.0274 2.5987,2.1094 2.711,2.0059 2.751,1.8906 2.9112,1.4219 2.5987,1.1426 2.3369,0.8252 2.1797,0.6338 2.1094,0.4043 1.9737,0.1777 1.8692,0 1.4619,0.1641 1.3477,0.3233 0.8115,1.0752 0.1963,1.7012 0.0186,2.6309 0,2.7188 0.1299,2.8047 0.2803,2.7744 0.7539,2.6787 0.8721,2.2051 1.2559,1.9668 1.6299,1.7324 1.8955,2.2383 2.1973,1.9131 z"
           id="path3097" />
      </g>
      <g
         transform="translate(24.0537,35.2295)"
         id="g3099"
         style="fill:#ffffff;fill-rule:nonzero;stroke:none">
        <path
           d="M 1.6455,0.4394 C 1.6455,0.4394 1.585,0 1.585,0 1.585,0 0,0.332 0,0.332 c 0,0 1.6455,0.1074 1.6455,0.1074 z"
           id="path3101" />
      </g>
      <g
         transform="translate(24.4678,37.0303)"
         id="g3103"
         style="fill:#ffffff;fill-rule:nonzero;stroke:none">
        <path
           d="M 0.5078,0.0293 C 0.2695,0.0547 0,0.541 0.3701,0.6845 0.5332,0.748 0.8271,0.8281 0.9238,0.5635 1.0429,0.2236 0.7715,0 0.5078,0.0293 z"
           id="path3105" />
      </g>
      <g
         transform="translate(12.0361,42.8545)"
         id="g3107"
         style="fill:#ffffff;fill-rule:nonzero;stroke:none">
        <path
           d="M 0.8252,0.873 C 0.7481,0.582 0.9717,0.251 0.6758,0 0,1.0254 0.4678,2.5605 0.4336,3.7949 0.4297,3.9375 0.6758,4.0859 0.8213,4.2314 1.1612,3.7226 1.0733,3.0576 0.8653,2.6826 0.5381,2.0928 0.9932,1.4922 0.8252,0.873 z"
           id="path3109" />
      </g>
      <g
         transform="translate(12.6113,39.4971)"
         id="g3111"
         style="fill:#ffffff;fill-rule:nonzero;stroke:none">
        <path
           d="M 0.3721,0.7295 C 0.3838,0.4883 0.5186,0.1992 0.2461,0 0,0.4863 0,0.9726 0.2461,1.459 0.5323,1.2636 0.3604,0.9707 0.3721,0.7295 z"
           id="path3113" />
      </g>
      <g
         transform="translate(31.1719,48.1592)"
         id="g3115"
         style="fill:#ffffff;fill-rule:nonzero;stroke:none">
        <path
           d="m 0,2.2109 c 0,0 2.1533,-1.4238 2.1572,-1.4092 C 2.2109,0.9775 2.1552,0 2.1552,0 1.8037,0.25 0,2.2109 0,2.2109 z"
           id="path3117" />
      </g>
      <g
         transform="translate(12.9658,50.4785)"
         id="g3119"
         style="fill:#ffffff;fill-rule:nonzero;stroke:none">
        <path
           d="m 0,0 c 0,0 1.6787,4.5967 2.4824,5.5098 0,0 1.7149,-0.876 1.7149,-0.876 0,0 4.3398,-0.875 4.3398,-0.875 0,0 3.1026,-1.8965 3.1026,-1.8965 0,0 -9.3389,1.6035 -9.3389,1.6035 C 2.3008,3.4658 1.7149,3.5029 0,0 z"
           id="path3121" />
      </g>
      <g
         transform="translate(12.9658,50.4785)"
         id="g3123"
         style="fill:none;stroke:#161413;stroke-width:0.145945;stroke-linecap:butt;stroke-linejoin:miter;stroke-dasharray:none">
        <path
           d="m 0,0 c 0,0 0.0733,0.1992 0.0733,0.1992 0,0 0.2011,0.5332 0.2011,0.5332 0,0 0.2989,0.7696 0.2989,0.7696 0,0 0.3662,0.9101 0.3662,0.9101 0,0 0.4043,0.9522 0.4043,0.9522 0,0 0.4111,0.8984 0.4111,0.8984 0,0 0.3897,0.7481 0.3897,0.7481 0,0 0.3378,0.499 0.3378,0.499 0,0 1.7149,-0.876 1.7149,-0.876 0,0 4.3398,-0.875 4.3398,-0.875 0,0 3.1026,-1.8965 3.1026,-1.8965 0,0 -9.3389,1.6035 -9.3389,1.6035 0,0 -0.0293,-0.0058 -0.0293,-0.0058 0,0 -0.0898,-0.044 -0.0898,-0.044 0,0 -0.1573,-0.124 -0.1573,-0.124 0,0 -0.2314,-0.2461 -0.2314,-0.2461 0,0 -0.3115,-0.4101 -0.3115,-0.4101 0,0 -0.3994,-0.6172 -0.3994,-0.6172 0,0 -0.4913,-0.8643 -0.4913,-0.8643 C 0.5908,1.1543 0,0 0,0"
           id="path3125" />
      </g>
      <g
         transform="translate(15.958,55.8428)"
         id="g3127"
         style="fill:none;stroke:#ffffff;stroke-width:0.29189;stroke-linecap:butt;stroke-linejoin:miter;stroke-dasharray:none">
        <path
           d="M 0,0.7656 C 0,0.7656 1.4229,0 1.4229,0"
           id="path3129" />
      </g>
      <g
         transform="translate(18.001,54.7842)"
         id="g3131"
         style="fill:none;stroke:#ffffff;stroke-width:0.29189;stroke-linecap:butt;stroke-linejoin:miter;stroke-dasharray:none">
        <path
           d="M 0,0.6933 C 0,0.6933 3.2099,0 3.2099,0"
           id="path3133" />
      </g>
      <g
         transform="translate(21.9434,53.4717)"
         id="g3135"
         style="fill:none;stroke:#ffffff;stroke-width:0.29189;stroke-linecap:butt;stroke-linejoin:miter;stroke-dasharray:none">
        <path
           d="M 0,1.0215 C 0,1.0215 2.1504,0 2.1504,0"
           id="path3137" />
      </g>
      <g
         transform="translate(16.5801,56.8271)"
         id="g3139"
         style="fill:none;stroke:#ffffff;stroke-width:0.233503;stroke-linecap:butt;stroke-linejoin:miter;stroke-dasharray:none">
        <path
           d="M 0,0.4375 C 0,0.4375 0.4375,0 0.4375,0"
           id="path3141" />
      </g>
      <g
         transform="translate(17.5273,56.0967)"
         id="g3143"
         style="fill:none;stroke:#ffffff;stroke-width:0.233503;stroke-linecap:butt;stroke-linejoin:miter;stroke-dasharray:none">
        <path
           d="M 0,2.664 C 0,2.664 1.3868,0 1.3868,0"
           id="path3145" />
      </g>
      <g
         transform="translate(18.5488,56.207)"
         id="g3147"
         style="fill:none;stroke:#ffffff;stroke-width:0.233503;stroke-linecap:butt;stroke-linejoin:miter;stroke-dasharray:none">
        <path
           d="M 0,4.0127 C 0,4.0127 2.1524,0 2.1524,0"
           id="path3149" />
      </g>
      <g
         transform="translate(19.5342,54.8936)"
         id="g3151"
         style="fill:none;stroke:#ffffff;stroke-width:0.233503;stroke-linecap:butt;stroke-linejoin:miter;stroke-dasharray:none">
        <path
           d="M 0,6.3496 C 0,6.3496 3.2842,0 3.2842,0"
           id="path3153" />
      </g>
      <g
         transform="translate(20.4834,58.835)"
         id="g3155"
         style="fill:none;stroke:#ffffff;stroke-width:0.233503;stroke-linecap:butt;stroke-linejoin:miter;stroke-dasharray:none">
        <path
           d="M 0,3.4648 C 0,3.4648 1.8232,0 1.8232,0"
           id="path3157" />
      </g>
      <g
         transform="translate(21.6875,52.7783)"
         id="g3159"
         style="fill:none;stroke:#ffffff;stroke-width:0.233503;stroke-linecap:butt;stroke-linejoin:miter;stroke-dasharray:none">
        <path
           d="M 0,10.3985 C 0,10.3985 4.4492,0 4.4492,0"
           id="path3161" />
      </g>
      <g
         transform="translate(22.5625,52.3037)"
         id="g3163"
         style="fill:none;stroke:#ffffff;stroke-width:0.233503;stroke-linecap:butt;stroke-linejoin:miter;stroke-dasharray:none">
        <path
           d="M 0,11.7109 C 0,11.7109 5.3994,0 5.3994,0"
           id="path3165" />
      </g>
      <g
         transform="translate(23.6201,53.1064)"
         id="g3167"
         style="fill:#ffffff;fill-rule:nonzero;stroke:none">
        <path
           d="M 5.291,0 C 5.291,0 0,12.1856 0,12.1856 c 0,0 0.9492,0.8027 0.9492,0.8027 0,0 4.7061,-10.6543 4.7061,-10.6543 0,0 0.292,-0.9472 0.1094,-1.3857 C 5.5811,0.5108 5.291,0 5.291,0 z"
           id="path3169" />
      </g>
      <g
         transform="translate(27.9258,54.3096)"
         id="g3171"
         style="fill:#ffffff;fill-rule:nonzero;stroke:none">
        <path
           d="m 20.3935,3.5761 c 0,0 0.1104,-0.4023 0.1104,-0.4023 0,0 1.0566,-0.8379 1.0566,-0.8379 0,0 0.2559,-0.0742 0.3662,0.1084 0.1075,0.1826 0.6914,0.9854 0.6914,0.9854 0,0 0.9854,-0.1465 1.2774,-0.1094 0.292,0.0371 0.4736,0.1816 0.4736,0.3652 0,0.1826 -0.0361,1.9336 -0.0361,1.9336 0,0 -1.8584,0.0723 -1.8584,0.0723 0,0 0,0.1826 0,0.1826 0,0 1.2031,0.0361 1.2031,0.0361 0,0 -0.1103,4.1231 -0.1103,4.1231 0,0 -5.6182,4.3789 -5.6182,4.3789 0,0 -0.7305,-0.9131 -0.7305,-0.9131 0,0 -0.4375,-1.0576 -0.4375,-1.0576 0,0 -0.3281,-0.0371 -0.3281,-0.0371 0,0 -0.2178,-0.8389 -0.1816,-0.9473 0.0361,-0.1103 0.6562,-0.3291 0.6562,-0.3291 0,0 1.5684,-0.0732 1.5684,-0.0732 0,0 0.0361,-0.2188 0.0361,-0.2188 0,0 -1.5312,0.0733 -1.5312,0.0733 0,0 -0.5479,0.0361 -0.5479,0.0361 0,0 -0.4736,0.293 -0.4736,0.293 0,0 0.0361,0.875 0.0722,0.9111 0.0381,0.0361 0.292,0.7295 0.292,0.7295 0,0 0.0362,0.8027 0.0362,0.8027 0,0 -2.1895,0.875 -2.1895,0.875 0,0 -1.6045,1.2051 -1.6045,1.1318 0,-0.0732 -1.6777,0.7657 -1.6777,0.7657 0,0 -0.4375,0.1836 -0.4375,0.1836 0,0 -1.3516,-0.0362 -1.3516,-0.0362 0,0 -0.3271,-0.33 -0.3271,-0.33 0,0 0,-0.3643 0,-0.3643 0,0 -0.4385,-0.1826 -0.4385,-0.1826 0,0 -0.0732,-0.875 -0.2178,-1.1309 -0.1455,-0.2558 -0.4375,-0.292 -0.4375,-0.292 0,0 -0.0742,-1.0927 -0.0742,-1.0927 0,0 0.1465,-0.293 0.1465,-0.293 0,0 -0.0723,-0.3291 -0.0723,-0.3291 0,0 0.4375,-0.5459 0.4375,-0.5459 0,0 0.0362,-0.3652 0.1817,-0.4756 0.1464,-0.1084 0.6943,-0.5459 0.6943,-0.5459 0,0 0.3633,0 0.3994,0 0.0381,0 0.6934,-0.5117 0.6934,-0.5117 0,0 -1.8604,-0.3643 -1.8604,-0.584 C 8.2441,9.705 7.8056,9.2617 9.8135,7.2607 9.8388,7.2343 9.959,7.0049 9.959,7.0049 9.959,7.0049 9.4111,6.2392 9.0478,5.582 8.6816,4.9258 8.3896,3.9043 8.3896,3.6123 8.3896,3.3203 8.0976,3.1738 7.8799,3.2832 7.6601,3.3935 6.8945,3.7949 6.6767,4.0136 6.457,4.2324 3.9043,5.7285 3.7197,5.8379 3.5381,5.9472 3.0263,6.2392 2.8828,5.9843 2.7344,5.7285 2.8447,5.1445 3.1367,4.7802 3.4287,4.415 4.706,3.1015 4.706,3.1015 c 0,0 0.4375,-0.6201 0.1094,-0.9843 C 4.4873,1.7519 3.7558,1.8974 3.7558,1.8974 c 0,0 -0.0712,0.7295 -0.0712,0.7295 0,0 -3.6846,2.9922 -3.6846,2.9922 0,0 1.4951,-3.8672 1.4951,-3.8672 0,0 1.0215,-0.0371 1.0215,-0.0371 0,0 1.2773,-1.3125 1.2773,-1.3125 0,0 6.8584,-0.0371 6.8584,-0.0371 0,0 0.8037,-0.3652 0.8037,-0.3652 0,0 2.0791,1.4238 2.8809,3.4668 0.8037,2.0429 1.8984,5.3261 1.8984,6.457 0,1.1309 0.2178,-3.9395 0.2178,-3.9395 0,0 1.752,-0.1464 1.752,-0.1103 0,0.0361 0,-0.1826 0,-0.1826 0,0 -3.1006,-0.0362 -3.1006,-0.0362 0,0 0,-0.9853 0,-0.9853 0,0 1.6406,-2.0781 1.6406,-2.0781 0,0 2.4814,0.0351 2.4814,0.0351 0,0 0.6973,0.8643 0.6973,0.8643 0,0 -0.4414,3.2226 -0.4414,3.2226 0,0 -0.0361,0.8018 -0.0361,0.8018 0,0 0,3.4297 0,3.4297 0,0 1.8232,0.0742 1.8232,0.0742 0,0 0,-4.999 0,-4.999 0,0 0.5469,-0.5108 0.5469,-0.5108 0,0 0.0361,-1.3144 0.0361,-1.3144 0,0 -0.1094,-0.4375 -0.4736,-0.5098 C 21.0156,3.6123 20.3935,3.5761 20.3935,3.5761 z"
           id="path3173" />
      </g>
      <g
         transform="translate(28.1074,61.5342)"
         id="g3175"
         style="fill:#ffffff;fill-rule:nonzero;stroke:none">
        <path
           d="m 0,5.9101 c 0,0 0.584,-0.6201 0.9502,-0.7304 0.3633,-0.1084 0.4375,-0.0723 0.4375,-0.0723 0,0 1.0576,0.291 1.0576,0.291 0,0 10.0684,-5.0703 10.0684,-5.0703 0,0 0.7656,-0.3281 0.9473,0.0723 0.1845,0.4013 0.1845,0.8037 -0.253,1.0586 -0.4384,0.2558 -9.122,4.5254 -9.122,4.5254 0,0 1.0214,0.6543 1.0214,0.6543 0,0 0.0362,0.5488 -0.2177,0.622 C 4.6338,7.332 3.9405,7.4424 3.9405,7.4424 3.9405,7.4424 0,5.9101 0,5.9101 z"
           id="path3177" />
      </g>
      <g
         transform="translate(28.1074,61.748)"
         id="g3179"
         style="fill:none;stroke:#161413;stroke-width:0.233503;stroke-linecap:butt;stroke-linejoin:miter;stroke-dasharray:none">
        <path
           d="m 0,5.6963 c 0,0 0.0967,-0.0986 0.0967,-0.0986 0,0 0.2402,-0.2256 0.2402,-0.2256 0,0 0.3096,-0.2461 0.3096,-0.2461 0,0 0.3037,-0.1601 0.3037,-0.1601 0,0 0.3545,-0.0772 0.3545,-0.0772 0,0 0.083,0.0049 0.083,0.0049 0,0 1.0576,0.291 1.0576,0.291 0,0 10.0684,-5.0703 10.0684,-5.0703 0,0 0.1221,-0.0459 0.1221,-0.0459 0,0 0.2832,-0.0684 0.2832,-0.0684 0,0 0.3164,0.0059 0.3164,0.0059 0,0 0.2256,0.1807 0.2256,0.1807 0,0 0.1064,0.584 0.1064,0.584 0,0 -0.3594,0.4746 -0.3594,0.4746 0,0 -0.5185,0.2675 -0.5185,0.2675 0,0 -1.0918,0.5469 -1.0918,0.5469 0,0 -1.4688,0.7295 -1.4688,0.7295 0,0 -1.6465,0.8145 -1.6465,0.8145 0,0 -1.6259,0.8017 -1.6259,0.8017 0,0 -1.4073,0.6934 -1.4073,0.6934 0,0 -0.9902,0.4873 -0.9902,0.4873 0,0 -0.373,0.1846 -0.373,0.1846 0,0 1.0214,0.6543 1.0214,0.6543 0,0 10e-4,0.0859 10e-4,0.0859 0,0 -0.0146,0.1973 -0.0146,0.1973 0,0 -0.0635,0.2099 -0.0635,0.2099 0,0 -0.1406,0.1289 -0.1406,0.1289 0,0 -0.2569,0.0576 -0.2569,0.0576 0,0 -0.3144,0.0596 -0.3144,0.0596 0,0 -0.2656,0.0459 -0.2656,0.0459 0,0 -0.1123,0.0186 -0.1123,0.0186 C 3.9405,7.2286 0,5.6963 0,5.6963"
           id="path3181" />
      </g>
      <g
         transform="translate(36.7178,64.7803)"
         id="g3183"
         style="fill:#ffffff;fill-rule:nonzero;stroke:none">
        <path
           d="m 1.751,0 c 0,0 0.038,0.6572 -0.2559,0.8027 -0.292,0.1465 -0.876,0.1094 -0.876,0.1094 0,0 0.0381,0.4746 -0.0723,0.5478 C 0.4375,1.5332 0,1.9336 0,1.9336 c 0,0 0.4736,0.4023 0.4013,0.6572 -0.0742,0.2559 -0.1455,0.8389 -0.1455,0.8389 0,0 0.3633,0 0.4375,0.3291 0.0723,0.3271 -0.0361,1.167 -0.0361,1.167 0,0 0.7275,0.1093 0.9111,0.4023 0.1827,0.291 0.292,0.6924 0.292,0.6924 0,0 0.2178,0.2549 0.2178,0.2549 0,0 0.4023,0.1103 0.6943,-0.0733 0.292,-0.1816 0.3633,-0.1816 0.3633,-0.1816 0,0 0.6934,-0.0733 0.9141,0.0361 0.2178,0.1104 0.2558,-0.0361 0.2558,-0.0361 0,0 0,-0.5108 0.2178,-0.7666 C 4.7431,4.999 4.7051,4.999 4.7051,4.999 c 0,0 0.4013,-0.2188 0.4013,-0.2188 0,0 0.1465,-0.0732 0.1465,-0.0732 0,0 -0.2178,-0.584 -0.2178,-0.8398 0,-0.2549 0.3282,-1.0205 0.3282,-1.0205 0,0 -0.5127,0.0361 -0.6582,-0.4385 C 4.5615,1.9336 4.5976,1.1318 4.5976,1.1318 c 0,0 -0.292,-0.1103 -0.6943,-0.2197 C 3.5019,0.8027 3.54,0.6572 3.5019,0.4746 3.4658,0.2929 3.2099,0.6211 2.8086,0.4023 2.4082,0.1836 1.751,0 1.751,0 z"
           id="path3185" />
      </g>
      <g
         transform="translate(36.7178,64.7803)"
         id="g3187"
         style="fill:none;stroke:#161413;stroke-width:0.233503;stroke-linecap:butt;stroke-linejoin:miter;stroke-dasharray:none">
        <path
           d="m 1.751,0 c 0,0 9e-4,0.1045 9e-4,0.1045 0,0 -0.0195,0.2422 -0.0195,0.2422 0,0 -0.0742,0.2685 -0.0742,0.2685 0,0 -0.1631,0.1875 -0.1631,0.1875 0,0 -0.2608,0.0781 -0.2608,0.0781 0,0 -0.2871,0.0313 -0.2871,0.0313 0,0 -0.2324,0.0029 -0.2324,0.0029 0,0 -0.0957,-0.0029 -0.0957,-0.0029 0,0 0.0049,0.2461 0.0049,0.2461 0,0 -0.0772,0.3017 -0.0772,0.3017 0,0 -0.1318,0.1045 -0.1318,0.1045 0,0 -0.1826,0.1592 -0.1826,0.1592 0,0 -0.1631,0.1455 -0.1631,0.1455 C 0.0693,1.8691 0,1.9336 0,1.9336 0,1.9336 0.0722,2 0.0722,2 c 0,0 0.1553,0.166 0.1553,0.166 0,0 0.1416,0.2139 0.1416,0.2139 0,0 0.0322,0.2109 0.0322,0.2109 0,0 -0.1005,0.5146 -0.1005,0.5146 0,0 -0.045,0.3243 -0.045,0.3243 0,0 0.0577,0.0048 0.0577,0.0048 0,0 0.1328,0.0362 0.1328,0.0362 0,0 0.1464,0.0976 0.1464,0.0976 0,0 0.1006,0.1905 0.1006,0.1905 0,0 0.0244,0.3203 0.0244,0.3203 0,0 -0.0156,0.3857 -0.0156,0.3857 0,0 -0.0293,0.3242 -0.0293,0.3242 0,0 -0.0156,0.1368 -0.0156,0.1368 0,0 0.1162,0.0214 0.1162,0.0214 0,0 0.2705,0.0694 0.2705,0.0694 0,0 0.3037,0.125 0.3037,0.125 0,0 0.2207,0.1865 0.2207,0.1865 0,0 0.2139,0.4551 0.2139,0.4551 0,0 0.0781,0.2373 0.0781,0.2373 0,0 0.2178,0.2549 0.2178,0.2549 0,0 0.0674,0.0136 0.0674,0.0136 0,0 0.1699,0.0186 0.1699,0.0186 0,0 0.2246,-0.0166 0.2246,-0.0166 0,0 0.2324,-0.0889 0.2324,-0.0889 0,0 0.2911,-0.1592 0.2911,-0.1592 0,0 0.0722,-0.0224 0.0722,-0.0224 0,0 0.1113,-0.0098 0.1113,-0.0098 0,0 0.2627,-0.0137 0.2627,-0.0137 0,0 0.3038,0.0069 0.3038,0.0069 0,0 0.2363,0.0527 0.2363,0.0527 0,0 0.209,0.0225 0.209,0.0225 0,0 0.0468,-0.0586 0.0468,-0.0586 0,0 0.003,-0.084 0.003,-0.084 0,0 0.0234,-0.2041 0.0234,-0.2041 0,0 0.0654,-0.251 0.0654,-0.251 0,0 0.126,-0.2275 0.126,-0.2275 0,0 0.1729,-0.2237 0.1729,-0.2237 0,0 0.0088,-0.0312 0.0088,-0.0312 0,0 0.4013,-0.2188 0.4013,-0.2188 0,0 0.1465,-0.0732 0.1465,-0.0732 0,0 -0.0342,-0.0957 -0.0342,-0.0957 0,0 -0.0752,-0.2285 -0.0752,-0.2285 0,0 -0.0752,-0.2774 -0.0752,-0.2774 0,0 -0.0332,-0.2382 -0.0332,-0.2382 0,0 0.0508,-0.2676 0.0508,-0.2676 0,0 0.1133,-0.3389 0.1133,-0.3389 0,0 0.1123,-0.291 0.1123,-0.291 0,0 0.0518,-0.123 0.0518,-0.123 0,0 -0.0831,-0.002 -0.0831,-0.002 0,0 -0.1923,-0.04 -0.1923,-0.04 0,0 -0.2188,-0.128 -0.2188,-0.128 0,0 -0.164,-0.2685 -0.164,-0.2685 0,0 -0.0782,-0.4004 -0.0782,-0.4004 0,0 -0.0302,-0.416 -0.0302,-0.416 0,0 -0.003,-0.3282 -0.003,-0.3282 0,0 0.0039,-0.1318 0.0039,-0.1318 0,0 -0.1963,-0.0693 -0.1963,-0.0693 0,0 -0.498,-0.1504 -0.498,-0.1504 0,0 -0.3369,-0.1914 -0.3369,-0.1914 0,0 -0.0645,-0.2461 -0.0645,-0.2461 0,0 -0.0674,-0.0576 -0.0674,-0.0576 0,0 -0.1425,0.0351 -0.1425,0.0351 0,0 -0.211,0.0274 -0.211,0.0274 0,0 -0.2724,-0.0772 -0.2724,-0.0772 0,0 -0.335,-0.1553 -0.335,-0.1553 0,0 -0.3447,-0.1279 -0.3447,-0.1279 0,0 -0.2696,-0.0879 -0.2696,-0.0879 C 1.8593,0.0312 1.751,0 1.751,0"
           id="path3189" />
      </g>
      <g
         transform="translate(38.4121,66.7832)"
         id="g3191"
         style="fill:#161413;fill-rule:nonzero;stroke:none">
        <path
           d="M 1.29,0.3027 C 1.8633,0.8291 2.1397,1.5186 1.8018,2.1504 1.6934,2.3486 1.1514,2.4619 0.8858,2.1689 0.4199,1.6533 0,0.9648 0.3457,0.3359 0.4805,0.0947 0.96,0 1.29,0.3027 z"
           id="path3193" />
      </g>
      <g
         transform="translate(35.8779,68.1729)"
         id="g3195"
         style="fill:none;stroke:#161413;stroke-width:0.18970001;stroke-linecap:butt;stroke-linejoin:miter;stroke-dasharray:none">
        <path
           d="M 0,0.5488 C 0,0.5488 1.0957,0 1.0957,0"
           id="path3197" />
      </g>
      <g
         transform="translate(35.624,66.751)"
         id="g3199"
         style="fill:none;stroke:#161413;stroke-width:0.18970001;stroke-linecap:butt;stroke-linejoin:miter;stroke-dasharray:none">
        <path
           d="M 0,0.3281 C 0,0.3281 1.1289,0 1.1289,0"
           id="path3201" />
      </g>
      <g
         transform="translate(36.6816,69.6709)"
         id="g3203"
         style="fill:none;stroke:#161413;stroke-width:0.18970001;stroke-linecap:butt;stroke-linejoin:miter;stroke-dasharray:none">
        <path
           d="M 0,0.5459 C 0,0.5459 0.7295,0 0.7295,0"
           id="path3205" />
      </g>
      <g
         transform="translate(32.084,68.5029)"
         id="g3207"
         style="fill:#ffffff;fill-rule:nonzero;stroke:#161413;stroke-width:0.18970001;stroke-linecap:butt;stroke-linejoin:miter;stroke-dasharray:none">
        <path
           d="m 0,0.4375 c 0,0 0.0381,0.7657 0.0381,0.7657 0,0 1.2031,0.2919 1.2031,0.2919 C 1.2412,1.4951 1.1308,0 1.1308,0 1.1308,0 0,0.4375 0,0.4375 z"
           id="path3209" />
      </g>
      <g
         transform="translate(30.6982,68.5029)"
         id="g3211"
         style="fill:#ffffff;fill-rule:nonzero;stroke:#161413;stroke-width:0.18970001;stroke-linecap:butt;stroke-linejoin:miter;stroke-dasharray:none">
        <path
           d="M 0.1817,0 C 0.1817,0 0,0.5821 0,0.5821 c 0,0 1.3858,0.5117 1.3858,0.5117 0,0 -0.0361,-0.6201 -0.0361,-0.6201 0,0 -1.168,-0.4737 -1.168,-0.4737 z"
           id="path3213" />
      </g>
      <g
         transform="translate(28.3252,67.5537)"
         id="g3215"
         style="fill:#ffffff;fill-rule:nonzero;stroke:none">
        <path
           d="M 1.1699,0.4375 C 1.1699,0.4375 0.0742,0 0.0742,0 0.0742,0 0,0.3652 0,0.3281 0,0.292 0.9863,1.0215 1.0215,1.0215 c 0.0381,0 0.1484,-0.584 0.1484,-0.584 z"
           id="path3217" />
      </g>
      <g
         transform="translate(28.3252,67.5537)"
         id="g3219"
         style="fill:none;stroke:#161413;stroke-width:0.18970001;stroke-linecap:butt;stroke-linejoin:miter;stroke-dasharray:none">
        <path
           d="M 1.1699,0.4375 C 1.1699,0.4375 0.0742,0 0.0742,0 c 0,0 -0.0371,0.1777 -0.0371,0.1777 0,0 -0.0371,0.1504 -0.0371,0.1504 0,0 0.1543,0.0928 0.1543,0.0928 0,0 0.3428,0.2402 0.3428,0.2402 0,0 0.3496,0.2461 0.3496,0.2461 0,0 0.1748,0.1143 0.1748,0.1143 0,0 0.039,-0.0918 0.039,-0.0918 0,0 0.0489,-0.2002 0.0489,-0.2002 0,0 0.042,-0.2012 0.042,-0.2012 0,0 0.0185,-0.0908 0.0185,-0.0908"
           id="path3221" />
      </g>
      <g
         transform="translate(27.3037,67.1885)"
         id="g3223"
         style="fill:#ffffff;fill-rule:nonzero;stroke:none">
        <path
           d="m 0.3662,0.1094 c 0,0 -0.2197,-0.1094 -0.292,0 C 0,0.2187 0.1104,0.4013 0.1104,0.4013 c 0,0 0.292,0.2559 0.3281,0.1827 0.0381,-0.0723 0.1094,-0.3653 0.1094,-0.3653 0,0 -0.1817,-0.1093 -0.1817,-0.1093 z"
           id="path3225" />
      </g>
      <g
         transform="translate(27.3682,67.2568)"
         id="g3227"
         style="fill:none;stroke:#161413;stroke-width:0.18970001;stroke-linecap:butt;stroke-linejoin:miter;stroke-dasharray:none">
        <path
           d="M 0.3017,0.0411 C 0.3017,0.0411 0.1826,0 0.1826,0 c 0,0 -0.1729,0.0411 -0.1729,0.0411 0,0 -0.0097,0.1865 -0.0097,0.1865 0,0 0.0459,0.1054 0.0459,0.1054 0,0 0.1504,0.1182 0.1504,0.1182 0,0 0.1777,0.0645 0.1777,0.0645 0,0 0.0683,-0.21 0.0683,-0.21 0,0 0.0411,-0.1553 0.0411,-0.1553 0,0 -0.1817,-0.1093 -0.1817,-0.1093"
           id="path3229" />
      </g>
      <g
         transform="translate(45.2188,56.2803)"
         id="g3231"
         style="fill:#ffffff;fill-rule:nonzero;stroke:none">
        <path
           d="m 2.8828,1.7148 c 0,0 -0.9141,0.4375 -0.9141,0.7656 0,0.3291 -0.0352,0.8399 0.2559,1.2403 C 2.5166,4.122 0,5.6191 0,5.6191 c 0,0 0.1464,0.6914 0.1464,0.6914 0,0 3.2461,-2.1152 3.2461,-2.1152 0,0 -0.4023,-0.584 -0.5097,-0.7656 C 2.7724,3.2461 2.663,2.9179 2.9189,2.6269 3.1748,2.3359 3.6845,1.8974 3.6845,1.8974 c 0,0 2.7002,-1.7509 2.8106,-1.8252 C 6.6025,0 7.332,0.1826 7.04,0.4375 6.749,0.6924 4.5234,2.2246 4.5234,2.2246 c 0,0 -0.7295,0.4385 -0.7295,0.7305 0,0.291 -0.0713,0.7656 -0.0713,0.7656 0,0 -0.3301,0.1103 -0.3301,0.1103 0,0 -0.2558,-0.0732 -0.3281,-0.2558 C 2.9902,3.3926 2.9003,3.4111 2.8828,3.2285 2.8642,3.0459 2.7724,2.9375 2.9003,2.7734 3.0283,2.6074 3.0644,2.5176 3.1748,2.4443 3.2841,2.3711 3.374,2.1347 3.5019,2.0801 3.6298,2.0244 3.6123,1.9336 3.6123,1.9336 c 0,0 -0.7295,-0.2188 -0.7295,-0.2188 z"
           id="path3233" />
      </g>
      <g
         transform="translate(45.2188,56.3428)"
         id="g3235"
         style="fill:none;stroke:#161413;stroke-width:0.145945;stroke-linecap:butt;stroke-linejoin:miter;stroke-dasharray:none">
        <path
           d="m 2.8828,1.6523 c 0,0 -0.1436,0.0733 -0.1436,0.0733 0,0 -0.3135,0.1865 -0.3135,0.1865 0,0 -0.3144,0.2471 -0.3144,0.2471 0,0 -0.1426,0.2587 -0.1426,0.2587 0,0 0.0186,0.5928 0.0186,0.5928 0,0 0.2373,0.6475 0.2373,0.6475 0,0 -0.0127,0.1963 -0.0127,0.1963 0,0 -0.2119,0.2695 -0.2119,0.2695 0,0 -0.3516,0.3105 -0.3516,0.3105 0,0 -0.4268,0.3233 -0.4268,0.3233 0,0 -0.4414,0.3037 -0.4414,0.3037 0,0 -0.3926,0.2549 -0.3926,0.2549 0,0 -0.2802,0.1748 -0.2802,0.1748 0,0 -0.1074,0.0654 -0.1074,0.0654 0,0 0.1464,0.6914 0.1464,0.6914 0,0 3.2461,-2.1152 3.2461,-2.1152 0,0 -0.0654,-0.0947 -0.0654,-0.0947 0,0 -0.1494,-0.2207 -0.1494,-0.2207 0,0 -0.1709,-0.2549 -0.1709,-0.2549 0,0 -0.124,-0.1953 -0.124,-0.1953 0,0 -0.1202,-0.3614 -0.1202,-0.3614 0,0 0.1563,-0.4414 0.1563,-0.4414 0,0 0.2275,-0.2373 0.2275,-0.2373 0,0 0.251,-0.2373 0.251,-0.2373 0,0 0.2031,-0.1826 0.2031,-0.1826 0,0 0.084,-0.0723 0.084,-0.0723 0,0 0.1162,-0.0761 0.1162,-0.0761 0,0 0.3067,-0.1993 0.3067,-0.1993 0,0 0.4365,-0.2832 0.4365,-0.2832 0,0 0.5039,-0.3261 0.5039,-0.3261 0,0 0.5088,-0.3311 0.5088,-0.3311 0,0 0.4521,-0.293 0.4521,-0.293 0,0 0.333,-0.2168 0.333,-0.2168 0,0 0.1534,-0.0996 0.1534,-0.0996 0,0 0.1709,-0.0097 0.1709,-0.0097 0,0 0.2509,0.0693 0.2509,0.0693 0,0 0.1758,0.1309 0.1758,0.1309 0,0 -0.0527,0.1748 -0.0527,0.1748 0,0 -0.1924,0.1494 -0.1924,0.1494 0,0 -0.3242,0.2373 -0.3242,0.2373 0,0 -0.4082,0.29 -0.4082,0.29 0,0 -0.4434,0.3116 -0.4434,0.3116 0,0 -0.4297,0.2998 -0.4297,0.2998 0,0 -0.3671,0.2548 -0.3671,0.2548 0,0 -0.2559,0.1778 -0.2559,0.1778 0,0 -0.0957,0.0664 -0.0957,0.0664 0,0 -0.1143,0.0722 -0.1143,0.0722 0,0 -0.2509,0.1827 -0.2509,0.1827 0,0 -0.251,0.2373 -0.251,0.2373 0,0 -0.1133,0.2383 -0.1133,0.2383 0,0 -0.0361,0.4912 -0.0361,0.4912 0,0 -0.0352,0.2744 -0.0352,0.2744 0,0 -0.3301,0.1103 -0.3301,0.1103 0,0 -0.1377,-0.0595 -0.1377,-0.0595 0,0 -0.1904,-0.1963 -0.1904,-0.1963 0,0 -0.1123,-0.1739 -0.1123,-0.1739 0,0 -0.0693,-0.1728 -0.0693,-0.1728 0,0 -0.0469,-0.2354 -0.0469,-0.2354 0,0 0.0644,-0.2197 0.0644,-0.2197 0,0 0.1436,-0.2002 0.1436,-0.2002 0,0 0.1309,-0.1289 0.1309,-0.1289 0,0 0.1562,-0.1894 0.1562,-0.1894 0,0 0.1709,-0.1748 0.1709,-0.1748 0,0 0.1025,-0.0948 0.1025,-0.0948 0,0 0.0079,-0.0517 0.0079,-0.0517 0,0 -0.7295,-0.2188 -0.7295,-0.2188"
           id="path3237" />
      </g>
      <g
         transform="translate(31.9375,51.1357)"
         id="g3239"
         style="fill:#ffffff;fill-rule:nonzero;stroke:none">
        <path
           d="m 0.0566,3.2832 c 0,0 6.1641,0.0743 6.2002,0.0743 0.0381,0 0.8936,-0.1836 1.1133,-0.584 0.2188,-0.4024 0.2188,-0.292 0.2188,-0.292 0,0 0.1836,0.1084 0.1836,0.1084 0,0 0.8369,1.1308 0.8369,1.1308 0,0 8.7217,0 8.7217,0 0,0 18.789,0.2559 18.789,0.2188 0,-0.0352 1.3125,-3.1006 1.3125,-3.1006 0,0 -11.2734,-0.0361 -11.2734,-0.0361 0,0 -17.877,-0.3281 -17.877,-0.3281 C 8.2822,0.4747 0,0 0,0 0,0 0.1846,1.3135 0.2197,1.6788 0.2559,2.043 0.292,2.4444 0.2559,2.5899 c 0,0 -0.1993,0.6933 -0.1993,0.6933 z"
           id="path3241" />
      </g>
      <g
         transform="translate(31.9375,51.1357)"
         id="g3243"
         style="fill:none;stroke:#161413;stroke-width:0.145945;stroke-linecap:butt;stroke-linejoin:miter;stroke-dasharray:none">
        <path
           d="m 0.0566,3.2832 c 0,0 0.2647,0.003 0.2647,0.003 0,0 0.6982,0.0078 0.6982,0.0078 0,0 0.9893,0.0127 0.9893,0.0127 0,0 1.1338,0.0137 1.1338,0.0137 0,0 1.1357,0.0127 1.1357,0.0127 0,0 0.9942,0.0126 0.9942,0.0126 0,0 0.707,0.0079 0.707,0.0079 0,0 0.2773,0.0039 0.2773,0.0039 0,0 0.1582,-0.0352 0.1582,-0.0352 0,0 0.3301,-0.1074 0.3301,-0.1074 0,0 0.3633,-0.1817 0.3633,-0.1817 0,0 0.2617,-0.2597 0.2617,-0.2597 0,0 0.126,-0.2158 0.126,-0.2158 0,0 0.0654,-0.0811 0.0654,-0.0811 0,0 0.0235,-0.0068 0.0235,-0.0068 0,0 0.0039,0.0117 0.0039,0.0117 0,0 0.1836,0.1084 0.1836,0.1084 0,0 0.8369,1.1308 0.8369,1.1308 0,0 8.7217,0 8.7217,0 0,0 0.8066,0.0108 0.8066,0.0108 0,0 2.1289,0.0283 2.1289,0.0283 0,0 3.0088,0.0391 3.0088,0.0391 0,0 3.4502,0.0449 3.4502,0.0449 0,0 3.4492,0.042 3.4492,0.042 0,0 3.0088,0.0351 3.0088,0.0351 0,0 2.1289,0.0196 2.1289,0.0196 0,0 0.8076,-0.001 0.8076,-0.001 0,0 0.0557,-0.1436 0.0557,-0.1436 0,0 0.1494,-0.3564 0.1494,-0.3564 0,0 0.21,-0.4971 0.21,-0.4971 0,0 0.2412,-0.5664 0.2412,-0.5664 0,0 0.2402,-0.5654 0.2402,-0.5654 0,0 0.2109,-0.4922 0.2109,-0.4922 0,0 0.1485,-0.3486 0.1485,-0.3486 0,0 0.0566,-0.1309 0.0566,-0.1309 0,0 -11.2734,-0.0361 -11.2734,-0.0361 0,0 -17.877,-0.3281 -17.877,-0.3281 C 8.2822,0.4747 0,0 0,0 c 0,0 0.0293,0.211 0.0293,0.211 0,0 0.0674,0.4912 0.0674,0.4912 0,0 0.0732,0.5596 0.0732,0.5596 0,0 0.0498,0.417 0.0498,0.417 0,0 0.0449,0.5371 0.0449,0.5371 0,0 -0.0087,0.374 -0.0087,0.374 0,0 -0.1993,0.6933 -0.1993,0.6933"
           id="path3245" />
      </g>
      <g
         transform="translate(44.5996,49.2021)"
         id="g3247"
         style="fill:#ffffff;fill-rule:nonzero;stroke:none">
        <path
           d="m 6.4199,20.2129 c 0,0 -3.4297,1.3125 -4.4511,1.3125 -1.0215,0 -1.9688,-2.7734 -0.2178,-3.6845 1.751,-0.9112 2.1142,-0.4737 2.4062,-0.4737 0.292,0 0.3662,-1.5703 0.3662,-1.5703 0,0 6.2383,-5.9824 6.2383,-5.9824 0,0 1.7158,-0.9746 3.3203,0.3281 1.168,0.9492 1.0577,1.9698 1.0577,1.9698 0,0 -0.0362,0.2558 -0.0362,0.2558 0,0 2.2256,-5.1807 2.2256,-5.1807 0,0 -0.0742,-0.6201 0.0713,-0.6933 0.1484,-0.0723 0.1846,-0.2188 0.1846,-0.2188 0,0 -0.2207,-0.6211 -0.0742,-0.7656 0.1455,-0.1465 -0.0723,-0.5488 0,-0.8027 C 17.585,4.4512 18.0225,3.0284 18.0586,2.9913 18.0947,2.9551 17.6201,2.5899 17.5108,2.4083 17.4004,2.2256 17.1826,1.46 17.1826,1.3497 c 0,-0.1084 -2.7724,-0.6563 -2.7724,-0.6563 0,0 0,-0.6201 0,-0.6201 0,0 3.1748,0.6201 3.1748,0.6201 0,0 0.2539,0 0.2539,0 0,0 0.3652,-0.6934 1.3125,-0.584 0.9502,0.1094 1.1699,0.9483 1.1699,0.9483 0,0 4.3037,0.8759 4.3037,0.8759 0,0 -0.2178,0.875 -0.2178,0.875 0,0 -4.1601,-0.7656 -4.1601,-0.7656 0,0 -0.0742,0.4746 0,0.6572 0.0742,0.1827 0.7676,2.1163 0.7676,2.2256 0,0.1094 -0.0743,0.4737 -0.1094,0.5469 -0.0381,0.0732 0.0713,0.6934 -0.0381,0.876 -0.1084,0.1826 -0.1084,0.3271 -0.1084,0.3271 0,0 0.9121,1.8252 0.9121,1.8252 0,0 -0.5478,0.9854 -0.5478,0.9854 0,0 -0.9502,-1.7158 -0.9502,-1.7158 0,0 0.038,3.0654 0.038,3.0654 0,0 -1.4228,1.5683 -1.4228,1.5683 0,0 -0.0742,-4.6337 -0.0742,-4.6337 0,0 -0.2539,-0.2188 -0.4737,0.3291 -0.2177,0.5468 -3.1367,7.625 -3.1367,7.625 0,0 -2.5908,1.7148 -2.5908,1.7148 0,0 -0.291,-1.2041 0.292,-1.3867 0.584,-0.1817 0.4736,0.1826 0.4736,0.1826 0,0 0.584,-0.292 0.584,-0.292 0,0 0,-0.4736 0,-0.4736 0,0 -1.8613,0.7295 -2.7002,0.2549 -0.8379,-0.4737 -1.8232,-1.2041 -1.751,-2.043 0.0733,-0.8389 1.0948,-0.9492 1.0948,-0.9492 0,0 0,-0.3643 0,-0.3643 0,0 -1.2412,0.876 -1.3135,0.9483 -0.0713,0.0722 -3.8672,3.0293 -3.8672,3.0644 0,0.0371 0.9492,-0.5098 0.9492,-0.5098 0,0 0.2178,-0.1464 0.292,-0.1464 0.0713,0 0.2539,0.1093 0.2539,0.2187 0,0.1094 1.3867,0.1094 1.461,0.1094 0.0722,0 0.1816,0.8769 0.1816,0.8769 0,0 -0.1455,0.2911 -0.292,0.3272 -0.1455,0.0361 -0.6934,0.4014 -0.8027,0.5478 -0.1104,0.1446 -0.6201,0.583 -0.6201,0.6202 0,0.0361 -0.1817,0.0732 -0.3663,-0.0733 -0.1816,-0.1465 -0.581,-0.5107 -0.6191,-0.5107 -0.0361,0 0.4014,0.6201 0.584,1.0947 0.1836,0.4736 0.1836,1.0576 0.0732,1.2773 z"
           id="path3249" />
      </g>
      <g
         transform="translate(45.3799,49.2754)"
         id="g3251"
         style="fill:none;stroke:#161413;stroke-width:0.145945;stroke-linecap:butt;stroke-linejoin:miter;stroke-dasharray:none">
        <path
           d="m 5.6396,20.1396 c 0,0 -0.5527,0.2051 -0.5527,0.2051 0,0 -1.29,0.4512 -1.29,0.4512 0,0 -1.4825,0.4512 -1.4825,0.4512 0,0 -1.1259,0.205 -1.1259,0.205 0,0 -0.375,-0.1211 -0.375,-0.1211 0,0 -0.337,-0.3271 -0.337,-0.3271 0,0 -0.2675,-0.4775 -0.2675,-0.4775 0,0 -0.17,-0.5752 -0.17,-0.5752 0,0 -0.039,-0.6182 -0.039,-0.6182 0,0 0.1221,-0.6055 0.1221,-0.6055 0,0 0.3125,-0.541 0.3125,-0.541 0,0 0.5361,-0.4189 0.5361,-0.4189 0,0 0.5937,-0.2823 0.5937,-0.2823 0,0 0.4795,-0.1767 0.4795,-0.1767 0,0 0.3799,-0.0918 0.3799,-0.0918 0,0 0.2969,-0.0283 0.2969,-0.0283 0,0 0.2275,0.0146 0.2275,0.0146 0,0 0.1758,0.0361 0.1758,0.0361 0,0 0.1367,0.0372 0.1367,0.0372 0,0 0.1162,0.0175 0.1162,0.0175 0,0 0.1797,-0.2461 0.1797,-0.2461 0,0 0.1123,-0.539 0.1123,-0.539 0,0 0.0576,-0.5401 0.0576,-0.5401 0,0 0.0166,-0.2451 0.0166,-0.2451 0,0 6.2383,-5.9824 6.2383,-5.9824 0,0 0.0762,-0.04 0.0762,-0.04 0,0 0.2168,-0.0928 0.2168,-0.0928 0,0 0.334,-0.1074 0.334,-0.1074 0,0 0.4306,-0.085 0.4306,-0.085 0,0 0.5069,-0.0234 0.5069,-0.0234 0,0 0.5596,0.0752 0.5596,0.0752 0,0 0.5927,0.2129 0.5927,0.2129 0,0 0.6035,0.3886 0.6035,0.3886 0,0 0.6573,0.708 0.6573,0.708 0,0 0.3095,0.6328 0.3095,0.6328 0,0 0.0889,0.4541 0.0889,0.4541 0,0 0.002,0.1749 0.002,0.1749 0,0 -0.0362,0.2558 -0.0362,0.2558 0,0 2.2256,-5.1807 2.2256,-5.1807 0,0 -0.0098,-0.0986 -0.0098,-0.0986 0,0 -0.0097,-0.2207 -0.0097,-0.2207 0,0 0.0176,-0.2353 0.0176,-0.2353 0,0 0.0732,-0.1387 0.0732,-0.1387 0,0 0.1475,-0.1367 0.1475,-0.1367 0,0 0.0371,-0.0821 0.0371,-0.0821 0,0 -0.0323,-0.0996 -0.0323,-0.0996 0,0 -0.0605,-0.2295 -0.0605,-0.2295 0,0 -0.0322,-0.2568 -0.0322,-0.2568 0,0 0.0508,-0.1797 0.0508,-0.1797 0,0 0.0273,-0.3613 0.0273,-0.3613 0,0 -0.0273,-0.4414 -0.0273,-0.4414 0,0 0.1113,-0.3711 0.1113,-0.3711 0,0 0.1767,-0.5693 0.1767,-0.5693 0,0 0.169,-0.5284 0.169,-0.5284 0,0 0.0908,-0.247 0.0908,-0.247 0,0 -0.0557,-0.0811 -0.0557,-0.0811 0,0 -0.164,-0.1562 -0.164,-0.1562 0,0 -0.1914,-0.1836 -0.1914,-0.1836 0,0 -0.1367,-0.1621 -0.1367,-0.1621 0,0 -0.0987,-0.2276 -0.0987,-0.2276 0,0 -0.1074,-0.3291 -0.1074,-0.3291 0,0 -0.0869,-0.3164 -0.0869,-0.3164 0,0 -0.0352,-0.1855 -0.0352,-0.1855 0,0 -0.1191,-0.0596 -0.1191,-0.0596 0,0 -0.3145,-0.0889 -0.3145,-0.0889 0,0 -0.4443,-0.1074 -0.4443,-0.1074 0,0 -0.5088,-0.1133 -0.5088,-0.1133 0,0 -0.5088,-0.1084 -0.5088,-0.1084 0,0 -0.4443,-0.0918 -0.4443,-0.0918 0,0 -0.3145,-0.0635 -0.3145,-0.0635 0,0 -0.1181,-0.0234 -0.1181,-0.0234 0,0 0,-0.6201 0,-0.6201 0,0 3.1748,0.6201 3.1748,0.6201 0,0 0.2539,0 0.2539,0 0,0 0.0713,-0.1074 0.0713,-0.1074 0,0 0.2295,-0.2256 0.2295,-0.2256 0,0 0.4062,-0.2061 0.4062,-0.2061 0,0 0.6055,-0.0449 0.6055,-0.0449 0,0 0.583,0.1934 0.583,0.1934 0,0 0.3574,0.3213 0.3574,0.3213 0,0 0.1797,0.3008 0.1797,0.3008 0,0 0.0498,0.1328 0.0498,0.1328 0,0 4.3037,0.8759 4.3037,0.8759 0,0 -0.2178,0.875 -0.2178,0.875 0,0 -4.1601,-0.7656 -4.1601,-0.7656 0,0 -0.0283,0.2598 -0.0283,0.2598 0,0 0.0283,0.3974 0.0283,0.3974 0,0 0.1504,0.4092 0.1504,0.4092 0,0 0.2607,0.7305 0.2607,0.7305 0,0 0.2461,0.7168 0.2461,0.7168 0,0 0.1104,0.3691 0.1104,0.3691 0,0 -0.042,0.2862 -0.042,0.2862 0,0 -0.0674,0.2607 -0.0674,0.2607 0,0 -0.0069,0.1416 -0.0069,0.1416 0,0 0.0137,0.2549 0.0137,0.2549 0,0 0.001,0.2754 0.001,0.2754 0,0 -0.0459,0.2041 -0.0459,0.2041 0,0 -0.0957,0.2314 -0.0957,0.2314 0,0 -0.0127,0.0957 -0.0127,0.0957 0,0 0.9121,1.8252 0.9121,1.8252 0,0 -0.5478,0.9854 -0.5478,0.9854 0,0 -0.9502,-1.7158 -0.9502,-1.7158 0,0 0.038,3.0654 0.038,3.0654 0,0 -1.4228,1.5683 -1.4228,1.5683 0,0 -0.0742,-4.6337 -0.0742,-4.6337 0,0 -0.044,-0.0264 -0.044,-0.0264 0,0 -0.1113,-0.0147 -0.1113,-0.0147 0,0 -0.1523,0.087 -0.1523,0.087 0,0 -0.1661,0.2832 -0.1661,0.2832 0,0 -0.1982,0.4843 -0.1982,0.4843 0,0 -0.3838,0.9375 -0.3838,0.9375 0,0 -0.5068,1.2305 -0.5068,1.2305 0,0 -0.5615,1.3652 -0.5615,1.3652 0,0 -0.5518,1.3389 -0.5518,1.3389 0,0 -0.4756,1.1533 -0.4756,1.1533 0,0 -0.334,0.8096 -0.334,0.8096 0,0 -0.125,0.3057 -0.125,0.3057 0,0 -2.5908,1.7148 -2.5908,1.7148 0,0 -0.0371,-0.1914 -0.0371,-0.1914 0,0 -0.0361,-0.4336 -0.0361,-0.4336 0,0 0.0732,-0.4687 0.0732,-0.4687 0,0 0.292,-0.293 0.292,-0.293 0,0 0.3203,-0.0488 0.3203,-0.0488 0,0 0.1348,0.0712 0.1348,0.0712 0,0 0.0263,0.1055 0.0263,0.1055 0,0 -0.0078,0.0547 -0.0078,0.0547 0,0 0.584,-0.292 0.584,-0.292 0,0 0,-0.4736 0,-0.4736 0,0 -0.082,0.0302 -0.082,0.0302 0,0 -0.2227,0.0762 -0.2227,0.0762 0,0 -0.3291,0.0987 -0.3291,0.0987 0,0 -0.4023,0.0996 -0.4023,0.0996 0,0 -0.4414,0.0771 -0.4414,0.0771 0,0 -0.4473,0.0332 -0.4473,0.0332 0,0 -0.4189,-0.0351 -0.4189,-0.0351 0,0 -0.3565,-0.125 -0.3565,-0.125 0,0 -0.6377,-0.4014 -0.6377,-0.4014 0,0 -0.5791,-0.4834 -0.5791,-0.4834 0,0 -0.4092,-0.5518 -0.4092,-0.5518 0,0 -0.125,-0.6064 -0.125,-0.6064 0,0 0.2012,-0.5029 0.2012,-0.5029 0,0 0.3731,-0.2871 0.3731,-0.2871 0,0 0.3593,-0.129 0.3593,-0.129 0,0 0.1612,-0.0302 0.1612,-0.0302 0,0 0,-0.3643 0,-0.3643 0,0 -0.1953,0.1377 -0.1953,0.1377 0,0 -0.4346,0.3086 -0.4346,0.3086 0,0 -0.4483,0.3232 -0.4483,0.3232 0,0 -0.2353,0.1788 -0.2353,0.1788 0,0 -0.1875,0.1503 -0.1875,0.1503 0,0 -0.4473,0.3536 -0.4473,0.3536 0,0 -0.6211,0.4873 -0.6211,0.4873 0,0 -0.705,0.5547 -0.705,0.5547 0,0 -0.7022,0.5517 -0.7022,0.5517 0,0 -0.6103,0.4824 -0.6103,0.4824 0,0 -0.4307,0.3448 -0.4307,0.3448 0,0 -0.1631,0.1396 -0.1631,0.1396 0,0 0.1475,-0.0644 0.1475,-0.0644 0,0 0.3271,-0.1768 0.3271,-0.1768 0,0 0.3262,-0.1846 0.3262,-0.1846 0,0 0.1484,-0.084 0.1484,-0.084 0,0 0.1182,-0.0732 0.1182,-0.0732 0,0 0.1738,-0.0732 0.1738,-0.0732 0,0 0.1533,0.0683 0.1533,0.0683 0,0 0.1006,0.1504 0.1006,0.1504 0,0 0.2178,0.0625 0.2178,0.0625 0,0 0.4844,0.0332 0.4844,0.0332 0,0 0.499,0.0117 0.499,0.0117 0,0 0.2598,0.002 0.2598,0.002 0,0 0.0586,0.1367 0.0586,0.1367 0,0 0.0585,0.3018 0.0585,0.3018 0,0 0.0459,0.3007 0.0459,0.3007 0,0 0.0186,0.1377 0.0186,0.1377 0,0 -0.0918,0.1495 -0.0918,0.1495 0,0 -0.2002,0.1777 -0.2002,0.1777 0,0 -0.1719,0.0801 -0.1719,0.0801 0,0 -0.2431,0.1523 -0.2431,0.1523 0,0 -0.2373,0.1729 -0.2373,0.1729 0,0 -0.1504,0.1425 -0.1504,0.1425 0,0 -0.1436,0.1524 -0.1436,0.1524 0,0 -0.208,0.1972 -0.208,0.1972 0,0 -0.1875,0.1778 -0.1875,0.1778 0,0 -0.081,0.0928 -0.081,0.0928 0,0 -0.1143,0.0312 -0.1143,0.0312 0,0 -0.252,-0.1045 -0.252,-0.1045 0,0 -0.1689,-0.1416 -0.1689,-0.1416 0,0 -0.1953,-0.1689 -0.1953,-0.1689 0,0 -0.168,-0.1416 -0.168,-0.1416 0,0 -0.0869,-0.0586 -0.0869,-0.0586 0,0 0.0498,0.1035 0.0498,0.1035 0,0 0.1602,0.2656 0.1602,0.2656 0,0 0.2002,0.3535 0.2002,0.3535 0,0 0.1738,0.3721 0.1738,0.3721 0,0 0.1465,0.7334 0.1465,0.7334 0,0 -0.0733,0.5439 -0.0733,0.5439"
           id="path3253" />
      </g>
      <g
         transform="translate(62.8398,52.5225)"
         id="g3255"
         style="fill:#161413;fill-rule:nonzero;stroke:none">
        <path
           d="m 1.3877,0 c 0,0 -0.8398,0 -0.8398,0 0,0 -0.3281,0.0371 -0.4375,0.3642 C 0,0.6933 0,1.1308 0,1.1308 c 0,0 0,0.4014 0,0.4014 0,0 1.9707,0.0361 1.9707,0.0361 0,0 0,-0.875 0,-0.9492 C 1.9707,0.5468 1.9327,0.292 1.7891,0.2187 1.6436,0.1455 1.459,0 1.3877,0 z"
           id="path3257" />
      </g>
      <g
         transform="translate(63.3516,49.6768)"
         id="g3259"
         style="fill:#161413;fill-rule:nonzero;stroke:none">
        <path
           d="M 0,0.3281 C 0,0.3281 0.1103,0 0.4736,0.1093 0.8379,0.2187 0.7656,0.4375 0.7656,0.4746 0.7656,0.5107 0,0.3281 0,0.3281 z"
           id="path3261" />
      </g>
      <g
         transform="translate(62.1484,50.8076)"
         id="g3263"
         style="fill:#161413;fill-rule:nonzero;stroke:none">
        <path
           d="m 1.9688,0.7656 c 0,0 -0.2178,0.1465 -0.4736,0.1104 C 1.2393,0.8389 1.0928,0.7285 1.0215,0.6572 0.9473,0.584 0.4737,0.7656 0.3995,0.6572 0.3272,0.5469 0,0.5098 0.1075,0.2559 0.2178,0 0.5459,0.1817 0.5459,0.1817 c 0,0 0.2559,0.2558 0.2559,0.2558 0,0 0.1455,0.1094 0.291,0.0371 C 1.2393,0.4014 1.4952,0.3653 1.6407,0.4014 1.7871,0.4375 1.9688,0.6201 1.9688,0.7656 z"
           id="path3265" />
      </g>
      <g
         transform="translate(63.6074,55.624)"
         id="g3267"
         style="fill:#161413;fill-rule:nonzero;stroke:none">
        <path
           d="m 1.2393,0 c 0,0 -0.2559,0.3281 -0.2559,0.3281 C 0.9834,0.3281 0,0.4375 0,0.3643 0,0.291 0.2539,0 0.2539,0 c 0,0 0.9854,0 0.9854,0 z"
           id="path3269" />
      </g>
      <g
         transform="translate(54.084,50.5156)"
         id="g3271"
         style="fill:#ffffff;fill-rule:nonzero;stroke:none">
        <path
           d="m 6.8584,3.5752 c 0,0 -2.8086,-2.0058 -3.0645,-2.1523 C 3.5381,1.2764 2.0791,0.4014 2.0791,0.4014 2.0791,0.4014 1.3877,0 1.1318,0 0.876,0 0.5459,0.1104 0.4023,0.1826 0.2558,0.2549 0,0.4014 0.3281,0.6201 c 0.3281,0.2188 1.0957,0.7305 1.0957,0.7305 0,0 2.043,1.2402 2.043,1.2402 0,0 1.9326,1.2032 1.9326,1.2032 0,0 0.6201,0.2558 0.6201,0.2558 0,0 0.2559,0.1465 0.4375,0.0723 C 6.6406,4.0498 6.8584,3.794 6.8584,3.794 c 0,0 0,-0.2188 0,-0.2188 z"
           id="path3273" />
      </g>
      <g
         transform="translate(54.2705,50.5156)"
         id="g3275"
         style="fill:none;stroke:#161413;stroke-width:0.145945;stroke-linecap:butt;stroke-linejoin:miter;stroke-dasharray:none">
        <path
           d="m 6.6719,3.5752 c 0,0 -0.1221,-0.0869 -0.1221,-0.0869 0,0 -0.3213,-0.2295 -0.3213,-0.2295 0,0 -0.459,-0.3262 -0.459,-0.3262 0,0 -0.5341,-0.3789 -0.5341,-0.3789 0,0 -0.5459,-0.3857 -0.5459,-0.3857 0,0 -0.4961,-0.3477 -0.4961,-0.3477 0,0 -0.3809,-0.2636 -0.3809,-0.2636 0,0 -0.2051,-0.1338 -0.2051,-0.1338 0,0 -0.3759,-0.2217 -0.3759,-0.2217 0,0 -0.5782,-0.3447 -0.5782,-0.3447 0,0 -0.5293,-0.3164 -0.5293,-0.3164 0,0 -0.2314,-0.1387 -0.2314,-0.1387 0,0 -0.1123,-0.0635 -0.1123,-0.0635 0,0 -0.2656,-0.1377 -0.2656,-0.1377 0,0 -0.3135,-0.1377 -0.3135,-0.1377 0,0 -0.2559,-0.0625 -0.2559,-0.0625 0,0 -0.4072,0.0635 -0.4072,0.0635 0,0 -0.3223,0.1191 -0.3223,0.1191 0,0 -0.2158,0.1631 -0.2158,0.1631 0,0 0.1416,0.2744 0.1416,0.2744 0,0 0.3096,0.2061 0.3096,0.2061 0,0 0.3613,0.2412 0.3613,0.2412 0,0 0.2988,0.1992 0.2988,0.1992 0,0 0.126,0.084 0.126,0.084 0,0 2.043,1.2402 2.043,1.2402 0,0 1.9326,1.2032 1.9326,1.2032 0,0 0.6201,0.2558 0.6201,0.2558 0,0 0.1504,0.0635 0.1504,0.0635 0,0 0.2871,0.0088 0.2871,0.0088 0,0 0.2695,-0.1914 0.2695,-0.1914 0,0 0.1319,-0.1367 0.1319,-0.1367 0,0 0,-0.2188 0,-0.2188"
           id="path3277" />
      </g>
      <g
         transform="translate(30.1143,12.3535)"
         id="g3279"
         style="fill:#ffffff;fill-rule:nonzero;stroke:none">
        <path
           d="m 0,1.4951 c 0,0 3.1748,0.8399 3.3564,0.877 C 3.539,2.4082 4.7441,1.8233 4.4502,0.9131 4.1582,0 4.1962,0.1826 4.1962,0.1826 4.1962,0.1826 0,1.4951 0,1.4951 z"
           id="path3281" />
      </g>
      <g
         transform="translate(34.9443,49.0928)"
         id="g3283"
         style="fill:#ffffff;fill-rule:nonzero;stroke:none">
        <path
           d="m 2.795,0 c 0,0 -2.0079,0 -2.0079,0 0,0 -0.7871,0.1758 -0.7275,0.875 0.0361,0.4385 0.1084,0.4385 0.3281,0.6943 0.2178,0.2549 2.333,2.6631 2.333,2.6631 0,0 0.1475,0.3467 1.461,0.4004 C 4.8252,4.6601 4.3633,4.25 4.2539,3.9404 4.1563,3.6631 4.0342,3.4297 3.8897,3.3926 3.7442,3.3564 3.2881,3.2656 3.25,3.5566 3.2139,3.8496 3.0323,3.9043 3.0147,3.7217 3.0059,3.6484 2.9766,3.7939 2.8301,3.4297 2.6846,3.0644 2.6123,2.9365 2.8301,2.7177 3.0508,2.499 3.378,2.4433 3.378,2.4433 c 0,0 0.3662,-0.1084 0.3662,-0.1084 0,0 -0.3662,0.1084 -0.3662,0.1084 0,0 -0.1094,0.0743 0.1103,0.3301 C 3.7061,3.0293 3.8897,3.0293 4.0342,3.248 4.1817,3.4668 4.5459,4.3418 4.5098,4.4873 4.4717,4.6328 4.9473,3.539 4.9092,3.1738 4.875,2.8095 4.875,2.5351 4.6914,2.372 4.5098,2.207 4.3819,2.2246 4.3819,2.2246 c 0,0 -0.6377,0.1103 -0.6377,0.1103 0,0 0.6553,-0.1826 0.6553,-0.1826 0,0 -0.5479,-0.8388 -0.5479,-0.8388 C 3.8516,1.3135 2.795,0 2.795,0 z"
           id="path3285" />
      </g>
      <g
         transform="translate(35.0039,49.0928)"
         id="g3287"
         style="fill:none;stroke:#161413;stroke-width:0.145945;stroke-linecap:butt;stroke-linejoin:miter;stroke-dasharray:none">
        <path
           d="m 2.7354,0 c 0,0 -2.0079,0 -2.0079,0 0,0 -0.122,0.0381 -0.122,0.0381 0,0 -0.2647,0.1367 -0.2647,0.1367 0,0 -0.2529,0.2676 -0.2529,0.2676 0,0 -0.0879,0.4326 -0.0879,0.4326 0,0 0.0947,0.415 0.0947,0.415 0,0 0.2334,0.2793 0.2334,0.2793 0,0 0.1621,0.1875 0.1621,0.1875 0,0 0.294,0.3359 0.294,0.3359 0,0 0.3769,0.4307 0.3769,0.4307 0,0 0.4151,0.4727 0.4151,0.4727 0,0 0.4033,0.4599 0.4033,0.4599 0,0 0.3477,0.3955 0.3477,0.3955 0,0 0.2421,0.2764 0.2421,0.2764 0,0 0.0918,0.1045 0.0918,0.1045 0,0 0.043,0.0547 0.043,0.0547 0,0 0.1943,0.125 0.1943,0.125 0,0 0.4405,0.1347 0.4405,0.1347 0,0 0.7832,0.086 0.7832,0.086 0,0 0.2978,-0.0537 0.2978,-0.0537 0,0 0.0205,-0.167 0.0205,-0.167 0,0 -0.1211,-0.2295 -0.1211,-0.2295 0,0 -0.125,-0.2422 -0.125,-0.2422 0,0 -0.165,-0.3643 -0.165,-0.3643 0,0 -0.1992,-0.1835 -0.1992,-0.1835 0,0 -0.1563,-0.0313 -0.1563,-0.0313 0,0 -0.2041,-0.0098 -0.2041,-0.0098 0,0 -0.1845,0.0508 -0.1845,0.0508 0,0 -0.0948,0.1543 -0.0948,0.1543 0,0 -0.125,0.2608 -0.125,0.2608 0,0 -0.1103,-0.0957 -0.1103,-0.0957 0,0 -0.041,-0.0372 -0.041,-0.0372 0,0 -0.1436,-0.2548 -0.1436,-0.2548 0,0 -0.1367,-0.4112 -0.1367,-0.4112 0,0 0.1367,-0.3008 0.1367,-0.3008 0,0 0.3565,-0.2197 0.3565,-0.2197 0,0 0.1914,-0.0547 0.1914,-0.0547 0,0 0.3662,-0.1084 0.3662,-0.1084 0,0 -0.3662,0.1084 -0.3662,0.1084 0,0 -0.0274,0.0684 -0.0274,0.0684 0,0 0.1377,0.2617 0.1377,0.2617 0,0 0.2998,0.251 0.2998,0.251 0,0 0.2461,0.2236 0.2461,0.2236 0,0 0.1416,0.2647 0.1416,0.2647 0,0 0.1651,0.3818 0.1651,0.3818 0,0 0.1298,0.3682 0.1298,0.3682 0,0 0.0391,0.2246 0.0391,0.2246 0,0 0.0508,-0.0928 0.0508,-0.0928 0,0 0.1484,-0.373 0.1484,-0.373 0,0 0.1485,-0.4688 0.1485,-0.4688 0,0 0.0517,-0.3789 0.0517,-0.3789 0,0 -0.0537,-0.4766 -0.0537,-0.4766 0,0 -0.1641,-0.3252 -0.1641,-0.3252 0,0 -0.2236,-0.1357 -0.2236,-0.1357 0,0 -0.0859,-0.0117 -0.0859,-0.0117 0,0 -0.6377,0.1103 -0.6377,0.1103 0,0 0.6553,-0.1826 0.6553,-0.1826 0,0 -0.5479,-0.8388 -0.5479,-0.8388 C 3.792,1.3135 2.7354,0 2.7354,0"
           id="path3289" />
      </g>
      <g
         transform="translate(46.4219,50.2236)"
         id="g3291"
         style="fill:#ffffff;fill-rule:nonzero;stroke:none">
        <path
           d="m 4.6699,3.211 c 0,0 -2.4443,-2.6641 -2.4443,-2.6641 0,0 -0.4004,-0.5469 -1.0577,-0.5107 -0.6562,0.0371 -0.7656,0.1465 -0.7656,0.1465 0,0 -0.4023,0.5478 -0.292,0.9482 0.1084,0.4004 0.2178,0.4375 0.4737,0.6934 0.2558,0.2558 1.497,1.6054 1.497,1.6054 0,0 0.7276,0.7656 0.7276,0.7656 0,0 0.2558,0.4014 0.2558,0.4014 0,0 0.0362,0.5108 0.1826,0.6572 0.1475,0.1465 0.5469,0.3282 0.5469,0.3282 0,0 0.3281,-0.1094 0.3281,-0.1094 0,0 -0.0341,-0.3652 -0.1816,-0.5108 C 3.7939,4.8164 3.5381,4.5244 3.6484,4.378 3.7588,4.2325 4.0146,3.9766 4.0146,3.9766 c 0,0 0.3633,-0.3281 0.3633,-0.3281 0,0 0.292,-0.0723 0.4375,-0.0723 0.1465,0 0.3662,0.1445 0.3662,0.1445 0,0 -0.6221,-0.0722 -0.6221,-0.0722 0,0 -0.4375,0.2558 -0.4375,0.2558 0,0 -0.1816,0.3653 -0.1816,0.3653 0,0 -0.1465,0.4004 0.0742,0.5468 C 4.2324,4.9619 4.5244,5.1817 4.6699,5.0723 4.8154,4.9619 5.0713,4.9619 4.998,4.7432 4.9258,4.5244 4.708,4.2696 4.708,4.2696 c 0,0 0,-0.2188 0.1816,-0.1836 0.1817,0.0371 0.292,0.1836 0.292,0.3652 0,0.1816 0,0.5469 0,0.5469 0,0 -0.0361,0.2929 -0.0361,0.2929 0,0 0.1084,0.1817 0.2539,0.0723 0.1465,-0.1094 0.292,-0.4375 0.292,-0.4375 0,0 0,-0.4746 0,-0.4746 0,0 -0.1074,-0.3652 -0.1074,-0.3652 0,0 -0.1104,-0.291 -0.2569,-0.3282 C 5.1816,3.7207 4.9619,3.4297 4.9619,3.4297 c 0,0 -0.292,-0.2187 -0.292,-0.2187 z"
           id="path3293" />
      </g>
      <g
         transform="translate(46.5313,50.2598)"
         id="g3295"
         style="fill:none;stroke:#161413;stroke-width:0.145945;stroke-linecap:butt;stroke-linejoin:miter;stroke-dasharray:none">
        <path
           d="m 4.5605,3.1748 c 0,0 -2.4443,-2.6641 -2.4443,-2.6641 0,0 -0.0733,-0.085 -0.0733,-0.085 0,0 -0.2099,-0.1845 -0.2099,-0.1845 0,0 -0.3321,-0.1768 -0.3321,-0.1768 0,0 -0.4424,-0.0644 -0.4424,-0.0644 0,0 -0.6289,0.0869 -0.6289,0.0869 0,0 -0.1367,0.0596 -0.1367,0.0596 0,0 -0.0615,0.0917 -0.0615,0.0917 0,0 -0.126,0.2315 -0.126,0.2315 0,0 -0.1054,0.3076 -0.1054,0.3076 0,0 9e-4,0.3174 9e-4,0.3174 0,0 0.1807,0.4004 0.1807,0.4004 0,0 0.293,0.293 0.293,0.293 0,0 0.3418,0.3584 0.3418,0.3584 0,0 0.5019,0.54 0.5019,0.54 0,0 0.4551,0.4912 0.4551,0.4912 0,0 0.1982,0.2158 0.1982,0.2158 0,0 0.7276,0.7656 0.7276,0.7656 0,0 0.2558,0.4014 0.2558,0.4014 0,0 0.0362,0.2735 0.0362,0.2735 0,0 0.1464,0.3837 0.1464,0.3837 0,0 0.3282,0.2188 0.3282,0.2188 0,0 0.2187,0.1094 0.2187,0.1094 0,0 0.3281,-0.1094 0.3281,-0.1094 0,0 -0.0361,-0.2012 -0.0361,-0.2012 0,0 -0.1455,-0.3096 -0.1455,-0.3096 0,0 -0.2432,-0.2919 -0.2432,-0.2919 0,0 -0.0488,-0.292 -0.0488,-0.292 0,0 0.2236,-0.2559 0.2236,-0.2559 0,0 0.1426,-0.1455 0.1426,-0.1455 0,0 0.3633,-0.3281 0.3633,-0.3281 0,0 0.1641,-0.0362 0.1641,-0.0362 0,0 0.2734,-0.0361 0.2734,-0.0361 0,0 0.2373,0.0723 0.2373,0.0723 0,0 0.1289,0.0722 0.1289,0.0722 0,0 -0.6221,-0.0722 -0.6221,-0.0722 0,0 -0.4375,0.2558 -0.4375,0.2558 0,0 -0.1816,0.3653 -0.1816,0.3653 0,0 -0.0195,0.0644 -0.0195,0.0644 0,0 -0.0264,0.1533 -0.0264,0.1533 0,0 0.0147,0.1817 0.0147,0.1817 0,0 0.1054,0.1474 0.1054,0.1474 0,0 0.3545,0.2227 0.3545,0.2227 0,0 0.3008,0.0332 0.3008,0.0332 0,0 0.2461,-0.124 0.2461,-0.124 0,0 0.082,-0.2051 0.082,-0.2051 0,0 -0.1728,-0.3193 -0.1728,-0.3193 0,0 -0.1172,-0.1543 -0.1172,-0.1543 0,0 0.0224,-0.1055 0.0224,-0.1055 0,0 0.1592,-0.0781 0.1592,-0.0781 0,0 0.2139,0.1279 0.2139,0.1279 0,0 0.0781,0.2373 0.0781,0.2373 0,0 0,0.3408 0,0.3408 0,0 0,0.2061 0,0.2061 0,0 -0.0361,0.2929 -0.0361,0.2929 0,0 0.0722,0.0772 0.0722,0.0772 0,0 0.1817,-0.0049 0.1817,-0.0049 0,0 0.2002,-0.2598 0.2002,-0.2598 0,0 0.0918,-0.1777 0.0918,-0.1777 0,0 0,-0.4746 0,-0.4746 0,0 -0.1074,-0.3652 -0.1074,-0.3652 0,0 -0.0743,-0.1504 -0.0743,-0.1504 0,0 -0.1826,-0.1778 -0.1826,-0.1778 0,0 -0.2373,-0.1787 -0.2373,-0.1787 0,0 -0.1279,-0.1494 -0.1279,-0.1494 0,0 -0.292,-0.2187 -0.292,-0.2187"
           id="path3297" />
      </g>
      <g
         transform="translate(11.374,11.5625)"
         id="g3299"
         style="fill:none;stroke:#161413;stroke-width:1.16746998;stroke-linecap:butt;stroke-linejoin:miter;stroke-dasharray:none">
        <path
           d="m 30.0127,0 c 0,0 3.0684,0.1543 3.0684,0.1543 0,0 2.9795,0.4551 2.9795,0.4551 0,0 2.8769,0.7392 2.8769,0.7392 0,0 2.7569,1.0098 2.7569,1.0098 0,0 2.624,1.2637 2.624,1.2637 0,0 2.4746,1.5029 2.4746,1.5029 0,0 2.3105,1.7275 2.3105,1.7275 0,0 2.1319,1.9375 2.1319,1.9375 0,0 1.9375,2.1309 1.9375,2.1309 0,0 1.7275,2.3105 1.7275,2.3105 0,0 1.5039,2.4747 1.5039,2.4747 0,0 1.2637,2.624 1.2637,2.624 0,0 1.0098,2.7568 1.0098,2.7568 0,0 0.7392,2.877 0.7392,2.877 0,0 0.4551,2.9795 0.4551,2.9795 0,0 0.1553,3.0693 0.1553,3.0693 0,0 -0.1553,3.0684 -0.1553,3.0684 0,0 -0.4551,2.9794 -0.4551,2.9794 0,0 -0.7392,2.877 -0.7392,2.877 0,0 -1.0098,2.7578 -1.0098,2.7578 0,0 -1.2637,2.6231 -1.2637,2.6231 0,0 -1.5039,2.4746 -1.5039,2.4746 0,0 -1.7275,2.3105 -1.7275,2.3105 0,0 -1.9375,2.1319 -1.9375,2.1319 0,0 -2.1319,1.9365 -2.1319,1.9365 0,0 -2.3105,1.7285 -2.3105,1.7285 0,0 -2.4746,1.5029 -2.4746,1.5029 0,0 -2.624,1.2637 -2.624,1.2637 0,0 -2.7569,1.0098 -2.7569,1.0098 0,0 -2.8769,0.7392 -2.8769,0.7392 0,0 -2.9795,0.4551 -2.9795,0.4551 0,0 -3.0684,0.1553 -3.0684,0.1553 0,0 -3.0683,-0.1553 -3.0683,-0.1553 0,0 -2.9805,-0.4551 -2.9805,-0.4551 0,0 -2.876,-0.7392 -2.876,-0.7392 0,0 -2.7568,-1.0098 -2.7568,-1.0098 0,0 -2.624,-1.2637 -2.624,-1.2637 0,0 -2.4747,-1.5029 -2.4747,-1.5029 0,0 -2.3105,-1.7285 -2.3105,-1.7285 0,0 -2.1309,-1.9365 -2.1309,-1.9365 0,0 -1.9375,-2.1319 -1.9375,-2.1319 0,0 -1.7275,-2.3105 -1.7275,-2.3105 0,0 -1.5039,-2.4746 -1.5039,-2.4746 0,0 -1.2637,-2.6231 -1.2637,-2.6231 0,0 -1.0097,-2.7578 -1.0097,-2.7578 0,0 -0.7393,-2.877 -0.7393,-2.877 0,0 -0.4551,-2.9794 -0.4551,-2.9794 0,0 -0.1543,-3.0684 -0.1543,-3.0684 0,0 0.1543,-3.0449 0.1543,-3.0449 0,0 0.4551,-2.9619 0.4551,-2.9619 0,0 0.7402,-2.8643 0.7402,-2.8643 0,0 1.0098,-2.75 1.0098,-2.75 0,0 1.2637,-2.6201 1.2637,-2.6201 0,0 1.5039,-2.4756 1.5039,-2.4756 0,0 1.7275,-2.3145 1.7275,-2.3145 0,0 1.9375,-2.1367 1.9375,-2.1367 0,0 2.1319,-1.9443 2.1319,-1.9443 0,0 2.3105,-1.7363 2.3105,-1.7363 0,0 2.4746,-1.5127 2.4746,-1.5127 0,0 2.624,-1.2725 2.624,-1.2725 0,0 2.7569,-1.0176 2.7569,-1.0176 0,0 2.8759,-0.7461 2.8759,-0.7461 0,0 2.9786,-0.4589 2.9786,-0.4589 0,0 3.0683,-0.1563 3.0683,-0.1563"
           id="path3301" />
      </g>
      <g
         transform="translate(7.42676,56.6182)"
         id="g3303"
         style="fill:#161413;fill-rule:nonzero;stroke:none">
        <path
           d="m 1.84668,2.7754 c 0,0 0.66797,1.2431 0.66797,1.2431 0,0 -0.69532,0.3731 -0.69532,0.3731 C 1.81933,4.3916 0,1.0019 0,1.0019 c 0,0 0.69433,-0.373 0.69433,-0.373 0,0 0.66797,1.2441 0.66797,1.2441 0,0 3.48924,-1.873 3.48924,-1.873 0,0 0.4834,0.9023 0.4834,0.9023 0,0 -3.48826,1.8731 -3.48826,1.8731 z"
           id="path3305" />
      </g>
      <g
         transform="translate(4.875,49.0146)"
         id="g3307"
         style="fill:#161413;fill-rule:nonzero;stroke:none">
        <path
           d="m 1.08203,5.0235 c 0,0 -0.28613,-0.9766 -0.28613,-0.9766 0,0 1.82031,-0.5351 1.82031,-0.5351 0,0 -0.50488,-1.7188 -0.50488,-1.7188 0,0 -1.82031,0.5342 -1.82031,0.5342 C 0.29102,2.3272 0,1.3379 0,1.3379 0,1.3379 4.55469,0 4.55469,0 c 0,0 0.28515,0.9756 0.28515,0.9756 0,0 -1.99609,0.5869 -1.99609,0.5869 0,0 0.50879,1.7325 0.50879,1.7325 0,0 1.99706,-0.5869 1.99706,-0.5869 0,0 0.2881,0.9765 0.2881,0.9765 0,0 -4.55567,1.3389 -4.55567,1.3389 z"
           id="path3309" />
      </g>
      <g
         transform="translate(3.87988,42.5049)"
         id="g3311"
         style="fill:#161413;fill-rule:nonzero;stroke:none">
        <path
           d="M 0.25391,3.6191 C 0.25391,3.6191 0,0.4512 0,0.4512 c 0,0 0.77442,-0.0616 0.77442,-0.0616 0,0 0.17187,2.1534 0.17187,2.1534 0,0 1.125,-0.0899 1.125,-0.0899 0,0 -0.16211,-2.0176 -0.16211,-2.0176 0,0 0.77246,-0.0605 0.77246,-0.0605 0,0 0.16211,2.0156 0.16211,2.0156 0,0 1.27637,-0.1016 1.27637,-0.1016 0,0 -0.17871,-2.2255 -0.17871,-2.2255 0,0 0.78516,-0.0635 0.78516,-0.0635 0,0 0.25976,3.2402 0.25976,3.2402 0,0 -4.73242,0.3789 -4.73242,0.3789 z"
           id="path3313" />
      </g>
      <g
         transform="translate(4.64355,29.9189)"
         id="g3315"
         style="fill:#161413;fill-rule:nonzero;stroke:none">
        <path
           d="m 0.26465,2.9874 c 0,0 2.79004,0.75 2.79004,0.75 C 3.55567,3.8721 4.19239,4.003 4.4502,3.0459 4.49317,2.8868 4.61524,2.4102 4.29004,2.0499 4.17579,1.918 4.0127,1.8184 3.54981,1.6944 c 0,0 -2.74023,-0.7354 -2.74023,-0.7354 0,0 0.25781,-0.959 0.25781,-0.959 0,0 2.86035,0.7696 2.86035,0.7696 C 5.29102,1.1368 5.43655,2.3389 5.1875,3.2637 5.06446,3.7207 4.73829,4.5313 3.93067,4.7754 3.52247,4.9034 3.16504,4.8204 2.73926,4.7071 2.73926,4.7071 0,3.9688 0,3.9688 c 0,0 0.26465,-0.9814 0.26465,-0.9814 z"
           id="path3317" />
      </g>
      <g
         transform="translate(7.31934,22.1084)"
         id="g3319"
         style="fill:#161413;fill-rule:nonzero;stroke:none">
        <path
           d="m 0,3.6992 c 0,0 0.69238,-1.2969 0.69238,-1.2969 0,0 4.13378,0.1895 4.13378,0.1895 0,0 -3.29589,-1.7588 -3.29589,-1.7588 0,0 0.44629,-0.833 0.44629,-0.833 0,0 4.1875,2.2354 4.1875,2.2354 0,0 -0.6602,1.2333 -0.6602,1.2333 0,0 -4.3398,-0.2343 -4.3398,-0.2343 0,0 3.4746,1.8554 3.4746,1.8554 0,0 -0.4512,0.8457 -0.4512,0.8457 C 4.18746,5.9355 0,3.6992 0,3.6992 z"
           id="path3321" />
      </g>
      <g
         transform="translate(11.6338,17.9658)"
         id="g3323"
         style="fill:#161413;fill-rule:nonzero;stroke:none">
        <path
           d="M 0,0.7988 C 0,0.7988 0.6299,0 0.6299,0 c 0,0 3.7383,2.9483 3.7383,2.9483 0,0 -0.6299,0.7988 -0.6299,0.7988 C 3.7383,3.7471 0,0.7988 0,0.7988 z"
           id="path3325" />
      </g>
      <g
         transform="translate(14.7344,12.084)"
         id="g3327"
         style="fill:#161413;fill-rule:nonzero;stroke:none">
        <path
           d="m 0.8261,2.333 c 0,0 3.4102,1.9414 3.4102,1.9414 0,0 -1.5576,-3.6035 -1.5576,-3.6035 0,0 0.748,-0.6709 0.748,-0.6709 0,0 1.8565,4.6846 1.8565,4.6846 0,0 -0.8272,0.7412 -0.8272,0.7412 0,0 -4.456,-2.3526 -4.456,-2.3526 0,0 0.8261,-0.7402 0.8261,-0.7402 z"
           id="path3329" />
      </g>
      <g
         transform="translate(21.335,8.24707)"
         id="g3331"
         style="fill:#161413;fill-rule:nonzero;stroke:none">
        <path
           d="M 0,1.59863 C 0,1.59863 2.747,0 2.747,0 c 0,0 0.3897,0.66797 0.3897,0.66797 0,0 -1.8672,1.08786 -1.8672,1.08786 0,0 0.5674,0.9756 0.5674,0.9756 0,0 1.749,-1.01756 1.749,-1.01756 0,0 0.3906,0.66996 0.3906,0.66996 0,0 -1.747,1.0175 -1.747,1.0175 0,0 0.6435,1.1065 0.6435,1.1065 0,0 1.9287,-1.124 1.9287,-1.124 0,0 0.3955,0.6806 0.3955,0.6806 0,0 -2.8086,1.6358 -2.8086,1.6358 0,0 -2.3886,-4.1016 -2.3886,-4.1016 z"
           id="path3333" />
      </g>
      <g
         transform="translate(27.7881,5.61621)"
         id="g3335"
         style="fill:#161413;fill-rule:nonzero;stroke:none">
        <path
           d="m 1.5215,5.42379 c 0,0 0.9834,-0.332 0.9834,-0.332 0,0 -0.6143,-1.8164 -0.6143,-1.8164 0,0 0.8457,-0.28613 0.8457,-0.28613 0.1621,-0.05567 0.3975,-0.13477 0.5723,0.09082 0.1191,0.15234 0.6416,1.24414 0.7695,1.47851 0,0 1.0635,-0.35937 1.0635,-0.35937 C 5.0674,4.1416 5.0137,4.10352 4.8955,3.92188 4.8213,3.80859 4.7109,3.60352 4.4639,3.09766 4.1855,2.54102 4.0039,2.1709 3.3066,2.33887 3.5019,2.20313 4.1582,1.75977 3.8721,0.91992 3.7734,0.62793 3.5498,0.33594 3.1885,0.1875 2.7226,0 2.2187,0.16992 1.7226,0.34375 1.7226,0.34375 0,0.92774 0,0.92774 c 0,0 1.5215,4.49605 1.5215,4.49605 z M 1.1914,1.31445 c 0,0 0.6475,-0.21875 0.6475,-0.21875 C 2.1426,0.99219 2.3223,0.93164 2.5088,0.98633 2.6142,1.0127 2.8125,1.10547 2.916,1.41016 3.0224,1.72656 2.8945,1.94434 2.8447,2.0166 2.7305,2.19336 2.5068,2.26953 2.3945,2.30859 c 0,0 -0.7773,0.26172 -0.7773,0.26172 0,0 -0.4258,-1.25586 -0.4258,-1.25586 z"
           id="path3337" />
      </g>
      <g
         transform="translate(35.2256,4.12793)"
         id="g3339"
         style="fill:#161413;fill-rule:nonzero;stroke:none">
        <path
           d="M 1.1963,3.46289 C 1.2217,3.68555 1.29,4.3584 2.1572,4.25293 2.7051,4.1875 3.0166,3.88379 2.9707,3.48633 2.9189,3.07031 2.6172,3.0332 1.999,2.96289 0.8457,2.81836 0.1924,2.55957 0.0947,1.74512 0,0.96875 0.4726,0.21875 1.7812,0.05859 2.2715,0 2.8633,0.04102 3.2685,0.44141 3.5762,0.74805 3.623,1.12598 3.6426,1.2832 c 0,0 -0.9717,0.11719 -0.9717,0.11719 C 2.6387,1.23828 2.5195,0.69141 1.8213,0.77539 1.3515,0.83203 1.0781,1.12305 1.124,1.50781 1.1758,1.94531 1.5312,1.98047 2.2295,2.06836 3.0693,2.16602 3.8965,2.29004 4.0088,3.20898 4.1103,4.05664 3.4883,4.82617 2.1855,4.98437 0.3799,5.20215 0.2285,4.04297 0.164,3.58789 c 0,0 1.0323,-0.125 1.0323,-0.125 z"
           id="path3341" />
      </g>
      <g
         transform="translate(42.4658,4.00488)"
         id="g3343"
         style="fill:#161413;fill-rule:nonzero;stroke:none">
        <path
           d="m 0.2168,0 c 0,0 1.0195,0.04688 1.0195,0.04688 0,0 -0.2187,4.7539 -0.2187,4.7539 C 1.0176,4.80078 0,4.75391 0,4.75391 0,4.75391 0.2168,0 0.2168,0 z"
           id="path3345" />
      </g>
      <g
         transform="translate(47.2402,4.41895)"
         id="g3347"
         style="fill:#161413;fill-rule:nonzero;stroke:none">
        <path
           d="M 1.3809,1.06445 C 1.3809,1.06445 0,0.77148 0,0.77148 0,0.77148 0.1612,0 0.1612,0 c 0,0 3.7666,0.79785 3.7666,0.79785 0,0 -0.1641,0.7705 -0.1641,0.7705 0,0 -1.3809,-0.29296 -1.3809,-0.29296 0,0 -0.8203,3.87402 -0.8203,3.87402 0,0 -1.0009,-0.21289 -1.0009,-0.21289 0,0 0.8193,-3.87207 0.8193,-3.87207 z"
           id="path3349" />
      </g>
      <g
         transform="translate(53.9844,6.24121)"
         id="g3351"
         style="fill:#161413;fill-rule:nonzero;stroke:none">
        <path
           d="m 1.4873,0.4707 c 0,0 0.0459,2.36914 0.0459,2.36914 0,0 1.7695,-1.58984 1.7695,-1.58984 0,0 0.959,0.41406 0.959,0.41406 0,0 -2.6563,2.12303 -2.6563,2.12303 0,0 -0.6835,1.585 -0.6835,1.585 0,0 -0.9219,-0.3965 -0.9219,-0.3965 0,0 0.6875,-1.59864 0.6875,-1.59864 0,0 -0.292,-3.37695 -0.292,-3.37695 0,0 1.0918,0.4707 1.0918,0.4707 z"
           id="path3353" />
      </g>
      <g
         transform="translate(63.0459,12.9268)"
         id="g3355"
         style="fill:#161413;fill-rule:nonzero;stroke:none">
        <path
           d="M 0.7871,1.4619 C 0.4912,1.7773 0,2.3964 0.002,3.1543 0.0059,3.7812 0.3281,4.3515 0.7812,4.7793 1.0693,5.0488 1.6885,5.5117 2.4746,5.4394 3.0547,5.3886 3.71,4.9961 4.1816,4.4931 4.502,4.1533 4.9375,3.5449 4.9629,2.7773 4.9834,2.0761 4.5557,1.5136 4.1875,1.1679 2.9424,0 1.6484,0.5429 0.7871,1.4619 z M 1.585,2.166 C 1.9551,1.7724 2.3604,1.4531 2.7822,1.3984 3.0879,1.3515 3.416,1.4423 3.6943,1.7031 4.0479,2.0351 4.166,2.4961 3.9082,3.0576 3.7842,3.3349 3.5723,3.5878 3.416,3.7558 2.8984,4.3066 2.5264,4.4628 2.251,4.5273 1.9111,4.6113 1.6055,4.5253 1.3027,4.2421 0.959,3.9189 0.9072,3.6181 0.9375,3.375 0.9814,2.914 1.2754,2.4961 1.585,2.166 z"
           id="path3357" />
      </g>
      <g
         transform="translate(67.543,18.8594)"
         id="g3359"
         style="fill:#161413;fill-rule:nonzero;stroke:none">
        <path
           d="m 3.8779,0 c 0,0 1.7598,2.5029 1.7598,2.5029 0,0 -0.6241,0.4375 -0.6241,0.4375 0,0 -1.1728,-1.6699 -1.1728,-1.6699 0,0 -0.9561,0.6728 -0.9561,0.6728 0,0 1.0957,1.5577 1.0957,1.5577 0,0 -0.6455,0.4531 -0.6455,0.4531 0,0 -1.0957,-1.5576 -1.0957,-1.5576 0,0 -1.6533,1.163 -1.6533,1.163 C 0.5859,3.5595 0,2.7275 0,2.7275 0,2.7275 3.8779,0 3.8779,0 z"
           id="path3361" />
      </g>
      <g
         transform="translate(72.4307,29.1289)"
         id="g3363"
         style="fill:#161413;fill-rule:nonzero;stroke:none">
        <path
           d="m 4.5136,0 c 0,0 0.3223,0.9639 0.3223,0.9639 0,0 -4.5117,1.5136 -4.5117,1.5136 C 0.3242,2.4775 0,1.5127 0,1.5127 0,1.5127 4.5136,0 4.5136,0 z"
           id="path3365" />
      </g>
      <g
         transform="translate(73.6406,34.0547)"
         id="g3367"
         style="fill:#161413;fill-rule:nonzero;stroke:none">
        <path
           d="m 0,0.7002 c 0,0 0.2198,1.4609 0.2198,1.4609 C 0.291,2.6357 0.3399,2.8271 0.3975,2.998 0.6934,3.8633 1.5625,4.5224 3.0039,4.3076 3.6719,4.207 4.3819,3.8896 4.7276,3.2324 5.0586,2.6055 4.9473,1.8125 4.9092,1.5527 4.9092,1.5527 4.6817,0 4.6817,0 4.6817,0 0,0.7002 0,0.7002 z M 4.0752,1.1328 C 4.1875,1.707 4.1953,1.9785 4.167,2.1943 4.0879,2.8506 3.5098,3.1689 2.8487,3.2685 2.6201,3.3027 1.917,3.3818 1.461,3.0439 1.125,2.7959 1.0371,2.4307 0.9727,2.0029 0.9551,1.8857 0.9356,1.7158 0.9248,1.6045 c 0,0 3.1504,-0.4717 3.1504,-0.4717 z"
           id="path3369" />
      </g>
      <g
         transform="translate(74.1143,41.1201)"
         id="g3371"
         style="fill:#161413;fill-rule:nonzero;stroke:none">
        <path
           d="M 4.8994,1.9785 C 4.8994,1.9785 0.2578,0 0.2578,0 c 0,0 -0.0567,0.9707 -0.0567,0.9707 0,0 1.0039,0.4112 1.0039,0.4112 0,0 -0.1054,1.875 -0.1054,1.875 0,0 -1.042,0.2822 -1.042,0.2822 0,0 -0.0576,1.0224 -0.0576,1.0224 0,0 4.831,-1.3779 4.831,-1.3779 0,0 0.0684,-1.2051 0.0684,-1.2051 z M 1.957,1.6875 c 0,0 1.9785,0.8145 1.9785,0.8145 0,0 -2.0547,0.542 -2.0547,0.542 0,0 0.0762,-1.3565 0.0762,-1.3565 z"
           id="path3373" />
      </g>
      <g
         transform="translate(72.5684,48.5732)"
         id="g3375"
         style="fill:#161413;fill-rule:nonzero;stroke:none">
        <path
           d="m 5.6054,1.2784 c 0,0 -0.2734,0.9795 -0.2734,0.9795 0,0 -1.8272,-0.5108 -1.8272,-0.5108 0,0 -0.4843,1.7266 -0.4843,1.7266 0,0 1.8291,0.5107 1.8291,0.5107 0,0 -0.2774,0.9922 -0.2774,0.9922 0,0 -4.5722,-1.2773 -4.5722,-1.2773 0,0 0.2744,-0.9805 0.2744,-0.9805 0,0 2.0049,0.5605 2.0049,0.5605 0,0 0.4853,-1.7392 0.4853,-1.7392 0,0 -2.0049,-0.5596 -2.0049,-0.5596 0,0 0.2744,-0.9805 0.2744,-0.9805 0,0 4.5713,1.2784 4.5713,1.2784 z"
           id="path3377" />
      </g>
      <g
         transform="translate(69.792,55.7217)"
         id="g3379"
         style="fill:#161413;fill-rule:nonzero;stroke:none">
        <path
           d="M 3.6846,0.5215 C 3.3047,0.3164 2.5791,0 1.8476,0.1943 1.2432,0.3594 0.7734,0.8154 0.4775,1.3642 0.29,1.7109 0,2.4277 0.2705,3.1699 0.4678,3.7168 1.0156,4.251 1.6211,4.5791 2.0312,4.8008 2.7305,5.0664 3.4805,4.8965 4.1641,4.7363 4.5976,4.1797 4.8379,3.7344 5.6494,2.2324 4.7939,1.1211 3.6846,0.5215 z M 3.209,1.4746 C 3.6826,1.7295 4.0957,2.0429 4.2559,2.4355 4.3799,2.7178 4.374,3.0586 4.1943,3.3945 3.9639,3.8222 3.5488,4.0527 2.9404,3.9472 2.6387,3.8984 2.3408,3.7578 2.1387,3.6494 1.4736,3.29 1.2275,2.9717 1.0957,2.7207 0.9258,2.4121 0.9336,2.0947 1.1299,1.7314 1.3535,1.3154 1.6318,1.1894 1.873,1.1553 2.331,1.082 2.8105,1.2588 3.209,1.4746 z"
           id="path3381" />
      </g>
      <g
         transform="translate(51.3115,50.5342)"
         id="g3383"
         style="fill:#ffffff;fill-rule:nonzero;stroke:none">
        <path
           d="M 2.2432,0.4199 C 2.2432,0.4199 1.4776,0 1.2393,0.0176 1.0039,0.0371 0.5098,0.0722 0.4375,0.2363 0.3643,0.4004 0,0.7295 0.4922,1.1123 c 0.4912,0.3828 1.6787,1.0771 1.6787,1.0771 0,0 2.5166,1.6778 2.5166,1.6778 0,0 1.2774,0.6562 1.2774,0.6562 0,0 0.6377,0.0918 0.7656,0.0176 0.1279,-0.0723 0.0918,0.0195 0.0918,0.2012 0,0.1826 -0.0557,0.6015 0.0547,0.6933 0.1094,0.0918 0.2734,0.2198 0.3838,0.2198 0.1093,0 0.3457,-0.0372 0.3457,-0.0372 0,0 0.0361,-0.1084 -0.0186,-0.1279 C 7.5342,5.4726 7.3145,5.3633 7.3321,5.2168 7.3526,5.0713 7.3145,4.8711 7.4785,4.7793 7.6426,4.6875 7.6602,4.706 7.8438,4.7422 8.0264,4.7793 8.0977,4.8525 8.1905,4.9433 8.2823,5.0351 8.4278,5.125 8.4815,5.1074 8.5381,5.0898 8.666,5.0351 8.6094,4.9062 8.5557,4.7793 8.6094,4.414 8.4278,4.2861 8.2461,4.1582 8.0625,4.1035 7.9541,4.123 c -0.1103,0.0176 -0.4375,0 -0.5293,0 C 7.3321,4.123 7.4063,4.0674 7.4063,3.9765 7.4063,3.8847 7.3701,3.666 7.1885,3.5019 7.0049,3.3379 6.4571,2.9375 6.2754,2.8633 c 0,0 -4.0322,-2.4434 -4.0322,-2.4434 z"
           id="path3385" />
      </g>
      <g
         transform="translate(51.5635,50.5518)"
         id="g3387"
         style="fill:none;stroke:#161413;stroke-width:0.145945;stroke-linecap:butt;stroke-linejoin:miter;stroke-dasharray:none">
        <path
           d="m 1.9912,0.4023 c 0,0 -0.124,-0.0654 -0.124,-0.0654 0,0 -0.2891,-0.1426 -0.2891,-0.1426 0,0 -0.334,-0.1397 -0.334,-0.1397 0,0 -0.2568,-0.0546 -0.2568,-0.0546 0,0 -0.4629,0.0546 -0.4629,0.0546 0,0 -0.3389,0.1641 -0.3389,0.1641 0,0 -0.0918,0.1514 -0.0918,0.1514 0,0 -0.0937,0.2041 -0.0937,0.2041 0,0 0.0136,0.2451 0.0136,0.2451 0,0 0.2266,0.2754 0.2266,0.2754 0,0 0.4688,0.3291 0.4688,0.3291 0,0 0.5546,0.3525 0.5546,0.3525 0,0 0.462,0.2803 0.462,0.2803 0,0 0.1933,0.1152 0.1933,0.1152 0,0 2.5166,1.6778 2.5166,1.6778 0,0 1.2774,0.6562 1.2774,0.6562 0,0 0.1015,0.0127 0.1015,0.0127 0,0 0.2325,0.0235 0.2325,0.0235 0,0 0.2578,0.0097 0.2578,0.0097 0,0 0.1738,-0.0283 0.1738,-0.0283 0,0 0.0937,0.0049 0.0937,0.0049 0,0 -0.0019,0.1963 -0.0019,0.1963 0,0 -0.0147,0.3799 -0.0147,0.3799 0,0 0.0694,0.3134 0.0694,0.3134 0,0 0.1914,0.1436 0.1914,0.1436 0,0 0.1924,0.0762 0.1924,0.0762 0,0 0.2138,-0.0186 0.2138,-0.0186 0,0 0.1319,-0.0186 0.1319,-0.0186 0,0 0.0107,-0.0566 0.0107,-0.0566 0,0 -0.0293,-0.0713 -0.0293,-0.0713 0,0 -0.1553,-0.0889 -0.1553,-0.0889 0,0 -0.1005,-0.1845 -0.1005,-0.1845 0,0 0.0185,-0.2393 0.0185,-0.2393 0,0 0.1279,-0.1982 0.1279,-0.1982 0,0 0.1748,-0.0674 0.1748,-0.0674 0,0 0.1905,0.0303 0.1905,0.0303 0,0 0.3467,0.2011 0.3467,0.2011 0,0 0.1591,0.1231 0.1591,0.1231 0,0 0.1319,0.041 0.1319,0.041 0,0 0.1064,-0.0596 0.1064,-0.0596 0,0 0.0215,-0.1416 0.0215,-0.1416 0,0 -0.043,-0.3105 -0.043,-0.3105 0,0 -0.1386,-0.3096 -0.1386,-0.3096 0,0 -0.4737,-0.1631 -0.4737,-0.1631 0,0 -0.2724,0.0059 -0.2724,0.0059 0,0 -0.2569,-0.0059 -0.2569,-0.0059 0,0 -0.0449,-0.04 -0.0449,-0.04 0,0 0.0264,-0.1065 0.0264,-0.1065 0,0 -0.041,-0.2109 -0.041,-0.2109 0,0 -0.1768,-0.2637 -0.1768,-0.2637 0,0 -0.1953,-0.1591 -0.1953,-0.1591 0,0 -0.2627,-0.1944 -0.2627,-0.1944 0,0 -0.2617,-0.1777 -0.2617,-0.1777 0,0 -0.1934,-0.1074 -0.1934,-0.1074 0,0 -4.0322,-2.4434 -4.0322,-2.4434"
           id="path3389" />
      </g>
      <g
         transform="translate(61.083,54.4463)"
         id="g3391"
         style="fill:#ffffff;fill-rule:nonzero;stroke:none">
        <path
           d="M 0.3477,0.0781 C 0.2774,0.0361 0,0 0.0557,0.1367 0.1377,0.333 0.3477,0.4473 0.3691,0.6933 0.3731,0.7305 0.4414,0.7363 0.4531,0.7851 0.5098,0.7695 0.5713,0.7676 0.5957,0.7109 0.7012,0.4512 0.5557,0.1982 0.3477,0.0781 z"
           id="path3393" />
      </g>
      <g
         transform="translate(61.1387,54.4863)"
         id="g3395"
         style="fill:none;stroke:#161413;stroke-width:0.145945;stroke-linecap:butt;stroke-linejoin:miter;stroke-dasharray:none">
        <path
           d="M 0.292,0.0381 C 0.292,0.0381 0.0986,0 0.0986,0 0.0986,0 0,0.0967 0,0.0967 c 0,0 0.1787,0.2588 0.1787,0.2588 0,0 0.1347,0.2978 0.1347,0.2978 0,0 0.084,0.0918 0.084,0.0918 0,0 0.1426,-0.0742 0.1426,-0.0742 0,0 -0.0068,-0.3691 -0.0068,-0.3691 0,0 -0.2412,-0.2637 -0.2412,-0.2637"
           id="path3397" />
      </g>
      <g
         transform="translate(60.3672,54.6514)"
         id="g3399"
         style="fill:#ffffff;fill-rule:nonzero;stroke:none">
        <path
           d="M 0.3838,0.0507 C 0.2314,0 0.0498,0.084 0.0195,0.2519 0,0.3701 0.084,0.4453 0.1533,0.5195 0.2598,0.6308 0.4414,0.6347 0.5596,0.5507 0.7558,0.4121 0.5732,0.1132 0.3838,0.0507 z"
           id="path3401" />
      </g>
      <g
         transform="translate(60.3867,54.7021)"
         id="g3403"
         style="fill:none;stroke:#161413;stroke-width:0.145945;stroke-linecap:butt;stroke-linejoin:miter;stroke-dasharray:none">
        <path
           d="m 0.3643,0 c 0,0 -0.2285,0.0186 -0.2285,0.0186 0,0 -0.1358,0.1826 -0.1358,0.1826 0,0 0.1338,0.2676 0.1338,0.2676 0,0 0.1983,0.0889 0.1983,0.0889 0,0 0.208,-0.0577 0.208,-0.0577 0,0 0.0566,-0.2792 0.0566,-0.2792 C 0.5967,0.2208 0.3643,0 0.3643,0"
           id="path3405" />
      </g>
      <g
         transform="translate(60.2793,55.4404)"
         id="g3407"
         style="fill:#ffffff;fill-rule:nonzero;stroke:none">
        <path
           d="M 0.4355,0.001 C 0.2959,0.0039 0.1416,0.042 0.0781,0.1358 0,0.2481 0.1094,0.4258 0.2061,0.5508 0.3379,0.7237 0.5898,0.6739 0.6992,0.5137 0.7529,0.4375 0.7412,0.3379 0.7217,0.2481 0.6895,0.1172 0.5811,0 0.4355,0.001 z"
           id="path3409" />
      </g>
      <g
         transform="translate(60.3555,55.4414)"
         id="g3411"
         style="fill:none;stroke:#161413;stroke-width:0.145945;stroke-linecap:butt;stroke-linejoin:miter;stroke-dasharray:none">
        <path
           d="m 0.3593,0 c 0,0 -0.3574,0.1348 -0.3574,0.1348 0,0 -0.0019,0.2021 -0.0019,0.2021 0,0 0.1299,0.2129 0.1299,0.2129 0,0 0.2548,0.1055 0.2548,0.1055 0,0 0.2383,-0.1426 0.2383,-0.1426 0,0 0.0225,-0.2656 0.0225,-0.2656 0,0 -0.1006,-0.1739 -0.1006,-0.1739 C 0.5449,0.0732 0.3593,0 0.3593,0"
           id="path3413" />
      </g>
      <g
         transform="translate(16.1475,66.1162)"
         id="g3415"
         style="fill:#161413;fill-rule:nonzero;stroke:none">
        <path
           d="m 2.8769,1.6211 c 0,0 1.3037,1.0195 1.3037,1.0195 0,0 -1.6093,-0.1035 -1.6093,-0.1035 0,0 -0.4795,1.4531 -0.4795,1.4531 0,0 -0.5,-1.5156 -0.5,-1.5156 0,0 -1.5918,-0.1172 -1.5918,-0.1172 0,0 1.2978,-0.8144 1.2978,-0.8144 0,0 -0.5,-1.543 -0.5,-1.543 0,0 1.2998,1.0137 1.2998,1.0137 0,0 1.2569,-0.7988 1.2569,-0.7988 0,0 -0.4776,1.4062 -0.4776,1.4062 z"
           id="path3417" />
      </g>
      <g
         transform="translate(62.2998,66.1162)"
         id="g3419"
         style="fill:#161413;fill-rule:nonzero;stroke:none">
        <path
           d="m 0.8262,0.2149 c 0,0 1.2568,0.7988 1.2568,0.7988 0,0 1.2998,-1.0137 1.2998,-1.0137 0,0 -0.5019,1.543 -0.5019,1.543 0,0 1.2988,0.8144 1.2988,0.8144 0,0 -1.5908,0.1172 -1.5908,0.1172 0,0 -0.5,1.5156 -0.5,1.5156 0,0 -0.4795,-1.4531 -0.4795,-1.4531 0,0 -1.6094,0.1035 -1.6094,0.1035 0,0 1.3037,-1.0195 1.3037,-1.0195 0,0 -0.4775,-1.4062 -0.4775,-1.4062 z"
           id="path3421" />
      </g>
    </g>
  </g>
</svg>
