<?xml version="1.0" encoding="utf-8"?>
<!-- Generator: Adobe Illustrator 19.0.0, SVG Export Plug-In . SVG Version: 6.00 Build 0)  -->
<svg version="1.1" id="Layer_1" xmlns="http://www.w3.org/2000/svg" xmlns:xlink="http://www.w3.org/1999/xlink" x="0px" y="0px"
	 viewBox="0 0 353.5 350.4" width="317.623524312" height="314.838141213" style="enable-background:new 0 0 353.5 350.4;" xml:space="preserve">
<style type="text/css">
	.st0{fill:#676767;}
</style>
<g>
	<path class="st0" d="M0.2,170.6c1.9-0.2,3.7-0.3,5.6-0.5c4.3-0.5,8.6-1.1,12.9-1.6c4.4-0.5,8.9-1.1,13.3-1.6c0.5-0.1,1-0.1,1.6-0.1
		c0.2,2.8,0.4,5.6,0.6,8.5c-4.3,0.4-8.5,0.9-12.7,1.3c-4.2,0.4-8.4,0.8-12.5,1.4c3.5,0.7,6.9,1.4,10.4,2.1c4.6,0.9,9.1,1.9,13.7,2.9
		c0.7,0.2,1,0.5,1,1.2c0.1,1.6,0.2,3.3,0.3,4.9c0.1,0.8-0.2,1.2-0.9,1.4c-7.3,2.2-14.7,4.3-22,6.5c-0.3,0.1-0.6,0.2-1,0.3
		c0,0.1,0,0.2,0,0.3c0.5,0,1,0,1.5,0c7.4-0.2,14.9-0.5,22.3-0.7c1.5,0,1.5,0,1.6,1.5c0.1,2.1,0.3,4.2,0.4,6.6c-11.2,0-22.3,0-33.6,0
		c-0.1-0.7-0.2-1.6-0.3-2.5c-0.2-2.7-0.3-5.3-0.6-8c-0.1-0.9,0.3-1.3,1.1-1.6c6.2-1.9,12.4-3.7,18.7-5.6c0.3-0.1,0.6-0.2,0.9-0.6
		c-1.2-0.2-2.3-0.4-3.5-0.6c-5.7-1.1-11.3-2.2-17-3.2c-0.9-0.2-1.1-0.7-1.1-1.5c-0.1-2.9-0.3-5.7-0.5-8.6c0-0.3-0.2-0.7-0.3-1
		C0.2,171.3,0.2,171,0.2,170.6z"/>
	<path class="st0" d="M176.2,0.2c1.3,0.3,2.6,0.5,3.8,0.8c0.7,0.2,1.4,0.4,2.1,0.7c-0.5,2.4-1,4.7-1.5,6.9c-2.1-0.4-4-0.8-6-1
		c-1.2-0.1-2.5,0.2-3.8,0.4c-1,0.2-1.7,0.9-1.8,2c-0.1,1.1,0.6,1.9,1.5,2.3c1.6,0.7,3.3,1.3,5,2c1.4,0.6,2.8,1.1,4,1.8
		c6.6,4,6.4,13.1-0.3,16.9c-3.1,1.8-6.6,2.3-10.1,2.1c-2.5-0.2-5-0.8-7.5-1.2c-0.9-0.1-1.1-0.7-0.9-1.5c0.4-2,0.8-4.1,1.2-6.1
		c1.7,0.4,3.3,0.9,5,1.3c2,0.4,4.1,0.6,6.2-0.1c1.2-0.4,2.1-1.1,2.2-2.4c0.1-1.2-0.7-2-1.7-2.5c-1.2-0.6-2.5-0.9-3.8-1.5
		c-2.1-1-4.3-1.7-6.2-3.1c-4.7-3.4-4.9-10.2-0.6-14.1c2.2-2,4.9-2.9,7.8-3.3c0.5-0.1,1-0.2,1.5-0.3C173.6,0.2,174.9,0.2,176.2,0.2z"
		/>
	<path class="st0" d="M353.8,178.6c-0.2,1.9-0.4,3.8-0.5,5.7c-0.1,2-0.1,2-2,1.9c-5.1-0.3-10.1-0.7-15.2-1.1
		c-2.6-0.2-5.2-0.3-7.8-0.6c-1.1-0.1-1.4,0.3-1.4,1.3c-0.2,3.7-0.5,7.3-0.7,11c0,0.2-0.1,0.4-0.1,0.6c-2.4-0.2-4.7-0.3-7.3-0.5
		c0.5-7.2,1-14.4,1.5-21.7c2.4,0.1,4.7,0.2,6.9,0.4c4,0.3,8,0.6,11.9,0.9c4.3,0.3,8.6,0.6,12.9,0.9c0.6,0,1.2,0,1.8,0
		C353.8,177.8,353.8,178.2,353.8,178.6z"/>
	<path class="st0" d="M230.5,211.9c1.6,3,4.3,4.4,7.1,5.8c2.3,1.1,4.6,2.1,6.8,3.3c1.7,0.9,3.2,2.2,4.9,3.3c0.4-0.9,0-1.8-0.5-2.5
		c-0.9-1.1-1.9-2.1-2.9-2.9c-2-1.5-4.1-2.8-6-4.4c-5.1-4-6.7-8.8-4.8-15.1c0.4-1.5,1.1-3,1.7-4.5c0.1-0.4,0.3-0.7,0.5-1.2
		c-3.5,0.4-6.2,1.6-7.9,4.5c-0.8,1.4-1.6,2.9-2.4,4.3c-2.9,5-6.8,9-12.4,10.8c-11.7,4-27.7-1.8-30.7-17.8c-0.5-2.7-0.5-5.5-1-8.2
		c-1.2-6.7-4.5-11.9-11.4-13.9c-6.4-1.9-11.7,0.2-16.3,4.6c-1.3,1.3-2.4,2.7-3.6,4.1c-0.7,0.9-1.4,1-2.2,0.1
		c-0.2-0.2-0.3-0.4-0.5-0.5c-1.1-1.3-2.2-2.4-4.2-2.1c0.1-2.6-0.8-4.9-2-7c-0.2-0.4-0.9-0.9-1.1-0.8c-2.1,0.9-3.9-0.2-5.7-0.8
		c-4.6-1.5-9.2-3.2-13.7-4.9c-6.9-2.6-13.9-5-21.2-6.2c-4.7-0.8-9.5-1.4-14.3-0.6c-2,0.3-3.8,1.1-5,2.9c-4.3-1.8-8.5-3.5-12.7-5.2
		c-5.2-2.2-10.4-4.3-15.6-6.5c-0.8-0.4-1.6-0.9-2.4-1.4c-1-0.7-1.1-1.1-0.3-2.1c1.3-1.8,3.2-2.5,5.3-3c4.3-1,8.6-0.9,12.9-0.4
		c15.5,1.7,30.4,5.8,45.1,10.7c6.5,2.2,12.9,4.9,19.3,7.4c1.4,0.5,1.8,0.3,1.5-1.2c-0.3-2.3-0.8-4.6-1.1-6.8c-0.1-0.6,0-1.3,0.1-2.1
		c2.8,0.7,4,2.5,5,4.9c2.2,5.6,5.5,10.4,11.5,12.5c3,1,6.1,0.8,9.3,0.5c4.4-0.4,8.8-1.2,13.2-0.1c5.9,1.4,10.2,4.8,12.5,10.5
		c0.3,0.6,0.5,1.3,0.9,1.8c0.4,0.5,1,0.9,1.5,1.3c0.1-0.1,0.3-0.2,0.4-0.2c-0.1-0.7-0.2-1.4-0.3-2.1c-1.1-5-3.1-9.5-7.4-12.6
		c-3.4-2.5-7.2-3.5-11.3-3.7c-5-0.2-10-0.2-15-0.3c-1.6,0-3.2-0.3-4.5-1.4c-1.2-0.9-1.2-1.6-0.3-2.7c1.8-2.4,4.4-3.6,7.2-4.3
		c6.2-1.7,12.5-1.9,18.9-0.8c0.2,0,0.3,0,0.7,0c-13.7-17.2-19.7-36.9-20.2-58.4c0.1,0,0.2-0.1,0.4-0.1c0.7,3.4,1.3,6.9,2.1,10.2
		c2.9,12.4,7.4,24.2,15.1,34.5c6.7,9.1,15.1,16.2,25.8,20.3c0.5,0.2,1,0.3,1.7,0.3c-0.3-0.5-0.6-1.1-0.9-1.6
		c-1.5-1.9-3.1-3.8-4.5-5.7c-0.7-0.9-1.4-1.9-1.9-2.9c-1.1-2.2-0.5-4.3,1.6-5.8c0,0.5-0.1,1-0.1,1.4c0.1,1.8,0.8,3.2,2.3,4.3
		c0.8,0.6,1.7,1.1,2.5,1.6c2.1,1.2,2.4,1.5,3.5,3.9c2.4-2.1,3.1-6.1,1.5-9.1c-0.6-1.1-1.4-2-2-3.1c-0.8-1.6-1.7-3.2-2.2-4.9
		c-0.6-1.7,0.4-3.3,2.2-4c-0.5,2.9,1.3,4.6,3,6.4c0.6,0.6,1.2,1.3,1.7,2c2.8,3.2,3.3,6.8,1.8,10.7c-1.7,4.5-4.2,8.5-6.7,12.5
		c-3.1,4.9-6.2,9.8-8.4,15.2c-1.3,3.4-2.3,6.8-2.1,10.5c0.3,4.4,2.2,7.9,5.3,11c3.2,3.1,6.8,5.3,11.3,5.9c4.2,0.5,7.8-0.7,10.7-3.7
		c1.5-1.5,2.7-3.2,4-4.9c0.4-0.5,0.8-1.1,1.2-1.7c1.9-2.6,3.6-5.5,7.1-6.5c-0.1-0.2-0.1-0.3-0.2-0.4c-2.5-3.3-2.2-6.6,0.3-9.5
		c2.3-2.8,5-5.2,7.6-7.8c3.2-3.3,6.5-6.4,9.5-9.8c2.6-3,4.2-6.6,4.3-10.6c0-2-0.4-4.1-0.6-6.1c-0.1-0.4-0.2-0.8-0.1-1.5
		c0.6,0.5,1.2,0.9,1.6,1.5c2.2,3,4.1,6.1,3.9,9.9c-0.2,2.8-0.9,5.6-1.4,8.4c-0.2,1.1-0.7,2.1-1.1,3.2c1.5-0.7,3.9-3.7,4.9-6.8
		c0.9-2.7,1.3-5.5,2.1-8.8c0.3,0.5,0.5,1,0.8,1.4c1.5,2,2.2,4.3,2.5,6.8c0.7,5.5-0.9,10.5-3.6,15.2c-2.7,4.6-5.6,9.1-8.3,13.6
		c-1.8,2.9-3.4,6-4.1,9.4c-0.6,3.3,0.2,6.1,2.7,8.3c1.6,1.4,3.4,2.6,5.1,4c5.3,4.4,9.8,9.4,11.7,16.2c0.8,2.9,1.1,6,1.6,9
		c0.2,1.5,0.3,3,0.6,4.5c0.7,3.8,3,6.2,6.6,7.4c0.4,0.1,0.8,0.3,1.5,0.5c-4.5,2.6-8.7,5.1-14,3.7c-2.8-0.7-4.7-2.7-6.3-4.9
		c-1.9-2.7-3.6-5.5-5.4-8.3c-2.2-3.5-4.6-6.9-8-9.3c-2.1-1.4-4.4-2.5-6.5-3.8c-2-1.2-3.9-2.5-5.7-3.9c-3.7-2.8-4.8-6.5-3.5-11
		c0.1-0.5,0.3-1,0.4-1.5C230.3,212.1,230.4,212.1,230.5,211.9z"/>
	<path class="st0" d="M261.1,197.6c0.2,0.3,0.3,0.4,0.4,0.6c1.5,3.6,4.2,6.1,7.6,8c3.3,1.8,3.3,1.9,5.3,4.7
		c-0.1-0.9-0.2-1.8-0.3-2.7c-0.5-2.5-1.9-4.5-3.6-6.3c-0.9-1-1.9-2-2.8-3c-3.7-4.1-4.6-8.7-2.5-13.7c1.3-3.2,2.8-6.4,4.2-9.6
		c1.6-3.6,3.2-7.3,3.8-11.3c0.6-3.7,0.1-7.2-1.4-10.6c-3.1-7.4-9.1-11.7-15.8-15.4c-4.1-2.3-8.6-3.7-13.3-4.2c-0.1,0-0.2,0-0.4,0.2
		c0.4,0.2,0.7,0.3,1.1,0.5c2.9,1.2,5.8,2.5,8.2,4.7c1.8,1.7,3,3.7,3.5,6.1c0.1,0.3,0,0.5,0,1.2c-3.8-4.8-9.4-5.9-14.2-8.6
		c-0.1,0.1-0.2,0.1-0.3,0.2c0.6,1.2,1.1,2.4,1.8,3.5c0.7,1,1.6,1.9,2.4,2.8c3.8,4.1,4.3,9.1,1.3,13.9c-0.6,1-1.4,2-2.2,3
		c-0.5,0.6-1.1,1.2-1.8,1.7c0.1-0.8,0.2-1.5,0.2-2.3c0.5-5.2-1.6-9.5-4.9-13.3c-1.6-1.8-3.3-3.3-5.1-4.9c-2-1.7-3.8-3.6-5-5.9
		c-1.6-3.2-2.1-6.4,0.2-9.5c-1.6-0.2-3.2-0.4-4.7-0.6c-5.1-0.8-8.3-3.8-9.8-8.7c-0.3-1.1-0.7-2.3-1-3.5c-1.7-6.9-6.2-11.6-12.4-15
		c1.6-0.9,3.1-1.8,4.9-1.6c1.6,0.2,3.2,0.9,4.9,1.4c-2.1-3.6-4.3-7.3-2-11.6c1.6-3,4.5-4.6,7.5-6.1c-0.3,1.2-0.7,2.2-0.8,3.2
		c0,1.7,0.8,3.1,2.2,4c1.9,1.3,4,2.5,6,3.7c1.4,0.9,2.9,1.7,4.2,2.8c2.8,2.3,3.8,5.3,2.7,8.8c-0.5,1.6-1.3,3.2-2.1,4.7
		c0.2-4.5-2.7-7-6-9.1c-1.3-0.8-2.6-1.5-3.9-2.4c-1.8-1.3-3.5-2.6-5.3-4c-0.1,1.9,0.4,3.7,1.9,5c1.3,1.2,2.8,2.2,4.3,3.3
		c1.5,1.1,3.1,2.1,4.5,3.4c0.7,0.7,0.9,1.8,1.3,2.7c-2.5-0.7-4.7-1.3-7-1.8c-0.3-0.1-0.6,0-1.1,0.1c0.3,0.3,0.4,0.5,0.6,0.6
		c3.2,2.4,4.3,5.7,4.5,9.5c0,1,0.2,2.1,0.5,3.1c0.5,1.9,1.6,3.4,3.6,3.8c3.1,0.7,6.2,1.5,9.4,1.9c12.3,1.3,23.9,4.9,34.5,11.3
		c4.6,2.8,8.6,6.3,12,10.4c5.9,7.2,6.7,15.2,3.3,23.6c-1.3,3.3-3.1,6.4-4.4,9.7c-0.8,1.9-1.3,3.9-1.7,6c-0.5,3.2,0.5,5.9,2.8,8.2
		c3.1,3,5,6.7,4.9,11.1c-0.1,2.4-0.5,4.8-0.9,7.2c-0.3,1.7-0.8,3.3-1,5c-0.3,2.2,0,4.2,2,5.5c1.7,1.1,3.3,0.8,4.5-0.8
		c1.3-1.8,1.7-3.8,1.6-6.2c2,2,3.2,4.2,3.4,6.8c0.3,5.8-4.1,10.7-9.9,11.1c-3.8,0.2-8.1-3-9-6.8c-1-4.4-3.6-7.9-6.8-10.9
		c-2.2-2-4.4-4-6.4-6.1c-3.2-3.4-3.7-7.5-2.4-11.8C260.8,198.1,261,197.9,261.1,197.6z"/>
	<path class="st0" d="M251.1,94.9c2.6-0.8,5.1-1.7,7.7-2.4c6.4-1.7,12.9-2.2,19.4-0.4c1.2,0.4,2.6,0.9,3.4,1.8
		c5.1,5.1,8.3,11.3,8.5,18.7c0.1,1.9-0.4,3.7-2.1,4.8c-1.5,1-3.2,1.1-4.9,0.7c-2.7-0.6-5.3-1.5-7.9-2.2c-5.5-1.5-11.1-1.6-16.8-1.5
		c-0.9,0-1.9,0-2.8,0c0,0.1,0,0.2,0,0.3c2,0.3,3.9,0.5,5.9,0.8c5.9,0.9,11.6,2.1,17,4.6c1.2,0.6,2.3,1.2,3.5,1.9
		c4.5,2.8,7.1,6.8,7.6,12.1c0.6,5.5,0.1,10.9-1,16.3c-0.1,0.3-0.2,0.5-0.3,0.8c-0.5-2.1-0.9-4.1-1.6-6c-2.5-7.3-7.7-12.5-14.1-16.6
		c-7.2-4.5-15.1-7.2-23.4-8.8c-1.6-0.3-3.1-0.5-4.7-0.7c-1.2-0.2-2.2-1.6-2.3-3.3c-0.2-2.5,0.7-4.1,3.2-5.2c4.7-2,9.7-2.7,14.8-2.3
		c4.8,0.4,9.6,1,14.4,1.6c2.3,0.3,4.1-1.4,3.6-3.6c-0.6-2.5-1.9-4.4-4.7-5.1c-6.4-1.7-12.8-1.2-19,0.5c-3.4,0.9-6.7,2.2-10,3.3
		c-0.4,0.1-0.9,0.3-1.7,0.5c0.3-2.2,0.5-4.2,0.7-6.2c1-7,1.7-14.1-0.2-21c-2.3-8.7-8.2-13.7-16.8-15.7c-4.5-1-9-1.2-13.6-0.8
		c-0.3,0-0.6,0-0.9,0c-0.1-0.1-0.2-0.2-0.2-0.3c0.8-0.6,1.4-1.4,2.3-1.9c2.4-1.4,5-1.9,7.7-2.1c6.4-0.5,12.6,0.3,18.3,3.6
		c7,4.2,11.3,10.2,12,18.5c0.4,4.3,0.5,8.5-0.3,12.8C251.5,93.2,251.3,94,251.1,94.9z"/>
	<path class="st0" d="M182.5,284.9c-2.9,0.8-4.8-0.9-5.1-4.2c-0.1-0.6-0.1-1.3,0-1.9c0-0.8-0.3-1.1-1.1-0.8
		c-2.2,0.6-3.9,1.8-5.4,3.4c-2.2,2.2-4.2,4.5-6.3,6.7c-4.2,4.4-8.9,8.1-14.9,9.6c-8.6,2.1-16.9,1.1-24.5-3.3
		c-4.2-2.4-7.4-6-8.7-10.9c-1.4-5.2,2-10.8,7.2-11.9c2-0.4,3.6,0.2,4.3,1.9c-0.2,0.1-0.4,0.3-0.6,0.4c-5,3.3-4.7,9.7,0.6,12.5
		c3.2,1.6,6.6,1.8,9.9,1c3.5-0.8,7-2,10.7-3.1c2,3.8-0.9,6.2-3,9.1c0.9-0.2,1.7-0.2,2.6-0.5c4.1-1.1,7.3-3.7,10.3-6.6
		c2.4-2.4,4.7-5,7-7.6c3.2-3.6,7-6.3,11.7-7.5c1.9-0.5,3.8-0.3,5.7,0.5c0.5-1.1-0.1-1.9-0.7-2.5c-1.1-1.1-2.4-2-3.5-3
		c-1.5-1.4-3.2-2.7-4.5-4.2c-1.6-1.9-1.3-4.2,0.3-5.9c1.5,3.1,4.3,4.5,7.2,5.7c1.7,0.7,3.5,1.4,5.2,2.2c2,0.9,3.7,2.2,4.3,4.6
		c0.3-0.2,0.5-0.3,0.8-0.4c1-0.4,1.6-0.1,1.9,0.9c0,0.1,0.1,0.2,0.1,0.3c2.5,4.1,5.9,6.9,10.7,7.7c1.5,0.2,3.1,0,4.8,0
		c-0.1,0.3-0.2,1-0.5,1.4c-1.2,1.7-2.9,2.8-5,3c-3.4,0.4-6.6-0.3-9.7-1.7c-1.8-0.8-3.8-1.6-5.8-1.8c-3.6-0.3-6.3,2.8-5.9,6.5
		C182.4,284.5,182.5,284.7,182.5,284.9z"/>
	<path class="st0" d="M194.5,220.5c1.7,3.4,4.9,4.9,7.7,6.9c4.7,3.4,9.4,6.9,14.1,10.3c4.9,3.5,7.5,8.3,7.8,14.3
		c0.1,1.3,0,2.5-0.1,3.8c0,0.3-0.5,0.8-0.8,0.9c-0.3,0.1-0.9-0.3-1-0.5c-1.9-4.2-5.3-6.6-9.2-8.5c-1.3-0.6-2.6-1.2-4.1-1.7
		c0.2,0.6,0.4,1.2,0.7,1.8c1.4,3,3.9,4.8,6.5,6.5c4.1,2.6,8.4,5.1,12.5,7.9c1.9,1.3,3.7,2.8,5.3,4.5c4,4.1,5,11.5,2.3,16.7
		c-0.5,0.9-1.2,1.8-2,2.5c-0.9,0.8-1.4,0.6-1.7-0.6c-0.2-0.8-0.3-1.6-0.4-2.5c-0.7-4.6-3.6-7.6-7.4-9.9c-3.3-2-6.7-3.9-9.9-6.1
		c-5.1-3.5-7.3-8.6-7.6-14.7c-0.1-2.1-0.2-4.2-0.2-6.3c0-0.8-0.3-1.2-1-1.6c-4.4-2.4-8.2-5.4-11.3-9.3c-1.8-2.3-3.2-4.8-3.5-7.8
		c-0.2-2,0.2-3.9,1.6-5.4C193.2,221.1,193.8,220.9,194.5,220.5z"/>
	<path class="st0" d="M295.9,257.2c1.4-2.7,2.7-5.2,4.1-7.7c0.2-0.3,0.7-0.6,1-0.6c6.4,0.1,12.7,0.2,19.1,0.4c2,0.1,4,0.2,6.1,0.2
		c-6.8-3.5-13.6-7-20.6-10.6c1.3-2.5,2.5-4.8,3.8-7.2c9.9,5.3,19.7,10.5,29.7,15.8c-1.6,3-3.1,5.9-4.7,8.8c-0.1,0.3-0.6,0.4-1,0.4
		c-7.6-0.1-15.3,0.1-22.9-0.9c-0.2,0-0.4,0-0.6,0c6.5,3.3,13,6.5,19.5,9.8c-1.3,2.5-2.6,4.8-3.9,7.3
		C315.7,267.7,305.9,262.5,295.9,257.2z"/>
	<path class="st0" d="M51.1,87.9c-6.2-3.8-12.3-7.6-18.6-11.5c1.6-2.4,3-4.6,4.5-6.9c9.4,6.1,18.7,12.2,28.1,18.3
		c-0.3,0.4-0.5,0.8-0.7,1.2c-1.3,2-2.6,4-3.9,6c-0.2,0.3-0.8,0.7-1.2,0.6c-5.1-0.5-10.2-1-15.4-1.6c-2.9-0.3-5.8-0.9-8.6-1.3
		c-0.3,0-0.6-0.1-1,0.1c6.5,4.1,13,8.2,19.6,12.4c-1.5,2.4-2.9,4.5-4.4,6.9c-9.4-6.1-18.8-12.2-28.2-18.3c1.8-2.8,3.6-5.6,5.4-8.3
		c0.2-0.3,0.8-0.4,1.1-0.4c2.9,0.2,5.9,0.5,8.8,0.8c4.7,0.6,9.3,1.3,14,2C50.8,87.9,51,87.9,51.1,87.9z"/>
	<path class="st0" d="M291.8,263.1c4.3,4,8.4,7.8,12.6,11.7c3.5,3.3,7.1,6.6,10.6,9.9c0.7,0.7,0.9,1.1,0.2,2
		c-3.1,4-6.3,7.9-10.2,11.1c-7.5,6.2-15.7,5.7-22.4-1.4c-3.5-3.7-5.6-8-5-13.2c0.3-3.1,1.6-5.7,3.2-8.3
		C283.9,270.4,287.7,266.7,291.8,263.1z M290.4,273.9c-1,1.3-2.1,2.4-3,3.6c-1.6,2.3-2,4.9-1,7.6c1.4,3.6,4,6.2,7.5,7.7
		c1.1,0.5,2.4,0.6,3.6,0.5c3.4-0.2,5.6-2.5,7.5-5.1c0.1-0.2-0.1-0.8-0.3-1c-1.6-1.6-3.2-3.1-4.9-4.6
		C296.7,279.8,293.7,276.9,290.4,273.9z"/>
	<path class="st0" d="M215.3,218.8c0.6,1.2,1,2.2,1.6,3.1c1.3,2,3.3,3.1,5.4,4c4.2,1.9,8.5,3.7,12.3,6.4c2.6,1.8,5.1,3.9,6.9,6.6
		c2.4,3.6,2.8,7.5,1.2,11.5c-0.1,0.2-0.2,0.4-0.2,0.7c0,0,0,0.1,0,0.3c1.3,0.4,2.6,0.9,3.9,1.3c1.9,0.6,3.8,1.1,5.6,1.7
		c8.6,3,9.1,11.2,6.2,16.4c-0.5,0.9-1.3,1.6-2,2.4c-0.1-0.1-0.2-0.1-0.3-0.2c-0.1-0.5-0.2-1-0.3-1.4c-1.3-5.1-4.8-7.9-9.5-9.3
		c-3.4-1-6.8-1.9-9.9-3.7c-4.5-2.6-7.8-6.2-8.8-11.5c-0.2-1.3-0.1-2.7-0.2-4.3c3.7,4,8.3,5.8,12.8,7.6c0.1-0.1,0.3-0.3,0.4-0.4
		c-1.4-1.5-2.6-3.1-4.1-4.4c-3.5-3.2-7.8-5.4-12.1-7.4c-1.7-0.8-3.5-1.6-5.2-2.5c-5.3-2.6-7.3-7.2-5.3-12.9
		C214,221.6,214.6,220.3,215.3,218.8z"/>
	<path class="st0" d="M95.9,309.2c-1.2,2-2.3,3.9-3.5,5.9c-3.8-2.3-7.4-4.5-11.2-6.7c1.9-3.1,3.7-6.1,5.5-9.1c1.2-2,2.3-3.9,3.5-5.8
		c0.2-0.3,0.8-0.7,1.1-0.6c6.2,1.7,12,4.3,16.4,9.1c4.8,5.2,5.5,11.8,1.9,18.3c-3.4,6.2-8.5,9.7-15.8,9.3c-5.2-0.3-9.6-2.5-13.6-5.6
		c-1.6-1.2-3-2.7-4.4-4c1.9-1.9,3.6-3.5,5-5c2.1,1.6,4.1,3.4,6.3,4.9c2.3,1.6,5,2.3,7.9,1.6c3.9-1,7.4-5.6,7.6-9.8
		c0.3-5.3-3.6-8.2-6.7-9.5c-0.3-0.1-0.9,0.1-1.1,0.3c-0.9,1.4-1.8,2.9-2.7,4.5C93.4,307.6,94.6,308.3,95.9,309.2z"/>
	<path class="st0" d="M143.9,22c3.1,0.6,4.7,2.6,6,4.8c1.7,2.8,3.3,5.6,5,8.5c-2.8,0.8-5.5,1.5-8.2,2.2c-0.2,0.1-0.7-0.3-0.9-0.6
		c-1.2-1.9-2.3-3.8-3.5-5.7c-0.4-0.6-0.7-1.3-1.2-2c-2-2.9-3.6-2.4-6.1-1.7c-0.2,0.1-0.4,0.8-0.3,1.1c0.9,3.5,1.8,7,2.8,10.5
		c0,0.2,0.1,0.4,0.2,0.7c-2.8,0.8-5.6,1.5-8.4,2.3c-0.4-1.5-0.8-2.9-1.2-4.3c-2.4-8.9-4.7-17.7-7.1-26.6c-0.2-0.9-0.1-1.3,0.8-1.6
		c4.8-1.8,9.6-3.5,14.7-4.1c5.3-0.6,9.7,1.1,11.1,6.7c0.9,3.3,0,6.2-2.4,8.7C144.9,21.3,144.5,21.5,143.9,22z M132.9,21.8
		c1.8-0.7,3.4-1.2,4.9-2.1c1.4-0.8,2-2.3,1.7-3.9c-0.4-1.8-1.4-3.3-3.3-3.2c-1.7,0-3.3,0.6-5,1c-0.1,0-0.3,0.5-0.3,0.7
		C131.5,16.7,132.1,19.1,132.9,21.8z"/>
	<path class="st0" d="M201.7,62.1c-0.9-0.1-1.8-0.2-2.6-0.3c-5.2-0.7-10.3,0-15.3,1.5c-7.2,2.1-13.5,5.8-18.1,11.9
		c-1.3,1.7-2.2,3.6-3.3,5.4c-0.4,0.6-0.8,1.2-1.4,1.5c-31,15.7-62,31.5-92.2,48.7c-6.5,3.7-12.7,7.8-18.5,12.7
		c-0.4,0.4-1,0.5-1.5,0.8c-0.1-0.1-0.2-0.2-0.3-0.3c0.7-0.9,1.4-1.8,2.2-2.6c4.5-4.6,9.7-8.3,15.2-11.6
		c12.6-7.4,25.2-14.6,37.9-21.8c17.6-10.1,35.3-20,52.9-30.1c0.9-0.5,1.8-1.3,2.2-2.2c4.4-8,11-13.1,19.8-15.4
		c6.8-1.8,13.6-1.6,20.3,0.2c0.9,0.2,1.7,0.6,2.5,1C201.8,61.8,201.7,61.9,201.7,62.1z"/>
	<path class="st0" d="M12.1,115.8c0.8-2.6,1.6-5,2.4-7.5c0.2-0.7,0.6-0.8,1.3-0.6c5.9,2,11.8,3.9,17.7,5.8c1,0.3,1.9,0.8,2.8,1.2
		c6.1,3.1,8.6,8.4,7,15c-0.6,2.6-1.6,5.1-3.2,7.3c-2.1,2.8-5,4.3-8.5,4.4c-3,0.2-5.9-0.5-8.7-1.4c-5.3-1.7-10.6-3.5-15.9-5.2
		c-0.8-0.2-1-0.5-0.7-1.4c0.7-2.1,1.4-4.2,2.1-6.4c0.3-0.8,0.6-1,1.5-0.7c6,2,12,4,18.1,5.8c1.4,0.4,3.1,0.5,4.6,0.4
		c2-0.2,3.2-1.6,3.8-3.6c0.6-2,0.1-3.6-1.5-5c-1.9-1.6-4.2-2.3-6.5-3c-5-1.6-10.1-3.3-15.1-4.9C12.9,116.1,12.5,116,12.1,115.8z"/>
	<path class="st0" d="M14.6,245.5c-0.9-2.8-1.8-5.6-2.7-8.4c3.2-1,6.2-2,9.3-3c3-1,6-1.9,9-2.9c1.3-0.4,2.5-1,3.6-1.8
		c2.4-1.6,3-3.9,2-6.3c-1-2.2-3.2-3.5-5.8-2.9c-3.1,0.7-6.1,1.7-9.1,2.6c-4.1,1.3-8.2,2.6-12.4,4c-0.9-2.8-1.8-5.5-2.7-8.4
		c1.7-0.6,3.4-1.1,5-1.6c4.8-1.5,9.5-3.2,14.4-4.6c7.3-2.1,13,0.1,16,5.9c1.1,2.1,1.8,4.5,2.3,6.9c0.8,3.9-0.1,7.6-3.2,10.3
		c-1.7,1.5-3.7,2.9-5.8,3.7c-5,1.9-10.1,3.4-15.2,5.1C17.7,244.5,16.2,245,14.6,245.5z"/>
	<path class="st0" d="M227.5,310.7c2.8-1.4,5.5-2.7,8.2-3.9c0.2-0.1,0.8,0.1,1,0.4c1.4,1.5,2.8,3.1,4.1,4.7c0.4,0.5,0.8,0.7,1.5,0.4
		c2.1-1.1,4.1-2.1,6.2-3c0.7-0.3,0.9-0.7,0.7-1.5c-0.6-2.2-1-4.5-1.5-6.8c2.7-1.3,5.3-2.6,8.2-4c2,11.6,4,23,6,34.4
		c-3.4,1.7-6.8,3.3-10.3,4.9c-0.3,0.1-0.9-0.3-1.2-0.6c-6-6.5-12-13-18-19.5C231,314.4,229.3,312.6,227.5,310.7z M253.9,327.8
		c0.1,0,0.2-0.1,0.3-0.1c-1-4.1-1.9-8.3-2.9-12.6c-2,1-3.8,1.9-5.8,2.8C248.4,321.3,251.1,324.6,253.9,327.8z"/>
	<path class="st0" d="M254,55.5c-2.7-1.3-5.4-2.6-8-3.9c-0.3-0.1-0.4-0.8-0.4-1.2c0.3-2.1,0.8-4.2,1.1-6.2c0.1-0.3-0.2-0.9-0.5-1.1
		c-2.1-1.1-4.3-2.1-6.4-3.2c-0.6-0.3-1-0.2-1.4,0.3c-1.3,1.6-2.6,3.2-4,4.8c-0.2,0.2-0.7,0.5-0.9,0.4c-2.6-1.2-5.2-2.5-7.8-3.8
		c2-2.3,4-4.4,5.9-6.6c5.5-6.1,11.1-12.2,16.6-18.3c0.7-0.8,1.2-0.9,2.2-0.4c2.8,1.4,5.6,2.8,8.4,4.1c0.8,0.4,1.1,0.7,0.9,1.7
		c-1.8,10.8-3.6,21.7-5.4,32.5C254.3,54.9,254.1,55.1,254,55.5z M248.8,37c0.9-4.4,1.8-8.6,2.6-12.8c-0.1,0-0.2-0.1-0.3-0.1
		c-2.7,3.3-5.3,6.6-8.1,10C244.9,35.1,246.7,36,248.8,37z"/>
	<path class="st0" d="M311.1,228.6c0.8-3,1.5-5.8,2.3-8.6c0.1-0.3,0.7-0.6,1.1-0.6c2-0.1,4-0.1,6-0.1c0.9,0,1.3-0.2,1.5-1.1
		c0.5-2.1,1.1-4.3,1.7-6.4c0.3-0.9,0-1.3-0.7-1.7c-2-1.1-4-2.2-6-3.3c0.8-2.9,1.6-5.8,2.4-8.8c1.9,1.1,3.6,2.1,5.3,3.2
		c7.9,4.8,15.8,9.6,23.7,14.3c0.8,0.5,0.9,0.9,0.7,1.7c-0.9,3.2-1.8,6.4-2.6,9.6c-0.2,0.7-0.5,0.9-1.1,0.9
		c-7.6,0.2-15.2,0.4-22.8,0.6c-3.4,0.1-6.9,0.2-10.3,0.4C311.8,228.6,311.5,228.6,311.1,228.6z M328.2,219.9c4.5,0,8.7,0,13,0
		c0-0.1,0-0.2,0-0.2c-3.7-2-7.5-4-11.4-6C329.3,215.8,328.8,217.7,328.2,219.9z"/>
	<path class="st0" d="M121.9,37.4c1.1,2.2,2.1,4.2,3.2,6.5c-6.7,3.3-13.4,6.5-20.2,9.8c-4.9-10.1-9.8-20-14.7-30.2
		c6.5-3.2,13-6.3,19.5-9.5c1.1,2.2,2.1,4.3,3.2,6.5c-3.9,1.9-7.7,3.7-11.5,5.6c0.8,1.7,1.6,3.3,2.4,5c3.6-1.8,7.2-3.5,10.9-5.3
		c1,2.1,2.1,4.2,3.1,6.4c-3.6,1.8-7.2,3.5-10.9,5.4c0.9,1.9,1.8,3.7,2.8,5.7C113.8,41.3,117.8,39.4,121.9,37.4z"/>
	<path class="st0" d="M161,225.6c-1.1,2.7-2.1,5.1-3.1,7.4c-2,4.3-4.4,8.3-7.3,12.1c-4.1,5.5-9.5,8.7-16.4,9.6
		c-6.7,0.9-13.4,2.1-20.1,2.8c-3.1,0.3-6.3,0.1-9.4-0.5c-3.1-0.5-5.8-2.1-7-5.5c-0.8-2.1-0.4-4.3,0.2-6.3c0.1-0.3,0.4-0.4,0.6-0.6
		c0.2,0.3,0.5,0.5,0.6,0.8c0.1,0.3,0.2,0.7,0.3,1c1.1,5,4.8,6.8,9.3,6.1c2.2-0.3,4.4-1.2,6.6-1.7c3-0.8,6.1-1.6,9.2-2.2
		c7.9-1.4,14.4-5,18.8-12c1.1-1.8,2.3-3.5,3.6-5.1c2-2.4,4.8-3.4,7.8-3.6c1.8-0.1,3.5,0,4.6-1.9C159.3,225.7,160.1,225.7,161,225.6z
		"/>
	<path class="st0" d="M214.8,321.8c-4.4,1.1-8.7,2.2-13.1,3.2c-0.6-2.3-1.2-4.6-1.8-7c1.2-0.3,2.3-0.6,3.4-0.9
		c5.8-1.4,11.5-2.9,17.3-4.3c0.8-0.2,1.1-0.1,1.4,0.7c2.5,10.2,5.1,20.4,7.6,30.6c0.1,0.3,0.1,0.6,0.1,1c-6.9,1.7-13.9,3.5-21,5.2
		c-0.6-2.4-1.1-4.6-1.7-7c4.2-1.1,8.2-2.1,12.4-3.1c-0.5-1.8-0.9-3.6-1.4-5.4c-4,1-7.8,1.9-11.7,2.9c-0.5-2.1-1-4.1-1.6-6.1
		c-0.2-0.6,0.1-0.9,0.8-1.1c3.1-0.7,6.2-1.5,9.3-2.3c0.5-0.1,0.9-0.3,1.5-0.4C215.8,325.9,215.4,324,214.8,321.8z"/>
	<path class="st0" d="M55.4,49c2.4-1.9,4.7-3.8,7-5.7c0.2-0.2,0.8-0.1,1.1,0.1c6.3,4.6,12.5,9.3,18.8,13.9c0.4,0.3,0.7,0.6,1.3,0.7
		c-0.9-1.8-1.8-3.6-2.6-5.4c-2.5-5.6-5-11.3-7.6-16.9c-0.3-0.7-0.3-1.1,0.4-1.6c2.2-1.7,4.3-3.4,6.6-5.3c0.7,1.9,1.4,3.6,2,5.3
		c3.4,8.8,6.7,17.7,10.1,26.5c0.4,0.9,0.3,1.5-0.6,2.1c-2.2,1.7-4.3,3.4-6.4,5.2c-0.5,0.4-0.8,0.6-1.4,0.2
		C74.7,61.8,65.3,55.6,56,49.4C55.8,49.3,55.7,49.2,55.4,49z"/>
	<path class="st0" d="M329.7,90.4c-2.3,0.8-4.6,1.5-6.6,2.2c-0.9-2.2-1.7-4.3-2.7-6.3c-0.5-1-1.3-1.9-2.3-2.6
		c-0.6-0.4-1.8-0.5-2.4-0.2c-0.6,0.3-1.1,1.3-1.1,2c0.1,1.7,0.6,3.4,0.8,5.1c0.2,2.2,0.7,4.5,0.5,6.6c-0.6,6.1-8,10.1-14,6.9
		c-3.8-2-6.4-5.3-8.2-9.1c-0.9-1.8-1.5-3.9-2.1-5.8c-0.2-0.7,0-1.2,0.8-1.4c1.7-0.5,3.3-1.2,4.9-1.8c0.8-0.3,1.2-0.3,1.3,0.7
		c0.5,2.7,1.4,5.2,2.9,7.4c0.4,0.6,0.9,1.2,1.4,1.6c0.9,0.8,1.9,1.4,3.1,0.8c1.1-0.5,1.6-1.7,1.4-3.2c-0.2-1.3-0.6-2.6-0.8-4
		c-0.2-2.3-0.6-4.7-0.4-7c0.5-5.7,7.1-9.4,12.9-6.8c1.4,0.7,2.8,1.6,3.9,2.7C326.6,81.5,328.7,85.6,329.7,90.4z"/>
	<path class="st0" d="M152.9,326.2c-2.3-1.2-4.4-2.4-6.6-3.3c-1.4-0.5-3.1-0.8-4.6-0.6c-2.2,0.3-2.9,2.4-1.3,4.1
		c0.9,1,2.2,1.8,3.2,2.6c1.5,1.2,3.1,2.4,4.5,3.7c5.2,5.4,2.5,13.8-4.9,15.6c-4.8,1.2-12.8-0.8-16.6-4.1c1.1-2.1,2.3-4.1,3.3-6.1
		c2.1,1,4,2,6.1,2.7c1.2,0.4,2.5,0.5,3.7,0.4c1.9-0.2,2.6-2.1,1.3-3.5c-0.8-0.9-1.9-1.7-2.9-2.5c-1.7-1.4-3.6-2.6-5.1-4.1
		c-2.8-2.8-3.3-6.3-2-10c1.4-3.7,4.3-5.7,8.1-6.2c5.9-0.8,11.3,1,16.2,4.2c0.6,0.4,0.8,0.7,0.4,1.4
		C154.7,322.5,153.8,324.4,152.9,326.2z"/>
	<path class="st0" d="M325.6,145.5c-0.9,3.5-1.3,6.7-0.5,10c0.1,0.2,0.1,0.5,0.2,0.7c0.6,1.6,1.5,2.4,2.7,2.4
		c1.5-0.1,2.2-1.1,2.6-2.3c0.5-1.8,0.9-3.6,1.4-5.4c0.5-1.5,1-3,1.7-4.3c3.3-6.1,11.2-5.9,15-1.4c2.2,2.6,3.4,5.6,3.7,8.9
		c0.2,2.6-0.1,5.2-0.1,7.9c0,0.9-0.6,1.1-1.4,1c-2-0.3-3.9-0.5-5.9-0.7c0.1-2.1,0.4-4.2,0.3-6.2c0-1.2-0.4-2.4-0.8-3.6
		c-0.3-0.9-1.1-1.6-2.2-1.6c-1.1,0-1.8,0.8-2.1,1.7c-0.6,1.8-1,3.7-1.5,5.5c-0.4,1.3-0.7,2.6-1.3,3.8c-3.1,6.8-12,7.7-16.6,1.8
		c-2-2.6-2.9-5.6-3.3-8.7c-0.5-2.9-0.3-5.9,0.2-8.8c0.2-1.1,0.6-1.5,1.8-1.2c1.4,0.3,2.9,0.3,4.4,0.4
		C324.5,145.3,325,145.4,325.6,145.5z"/>
	<path class="st0" d="M171.6,97.7c4.1,5.1,10.1,6.6,15.7,8.7c3.7,1.4,7.5,2.7,11.2,4.3c1.8,0.8,3.4,2,5.2,3.1
		c-1-5.3-5.2-7.6-9.3-10.1c0.7-0.8,1.7-0.9,3.1-0.5c3.3,1,6,2.9,8.1,5.5c5.5,6.8,7.1,14.5,4.8,22.9c-0.1,0.4-0.3,0.7-0.5,1.3
		c-0.3-8.3-4.8-13.2-11.7-16.5c-2.4-1.2-5-2.1-7.5-3.1c-2.9-1.2-5.9-2.2-8.3-4.2c-5.8,4.3-12,3.9-18.2,1.5c-1.5-0.6-2.8-1.6-3.6-3.1
		c-0.4-0.8-0.5-1.8-0.7-2.6c1.2-0.2,2.1-0.3,3.1-0.4c-3.4-6-3.2-12.3-2.7-18.6c0.1-0.6,0-1.6,1.2-1.7c0,7.7,2.2,14.5,8,19.8
		c1.8,1.6,3.9,2.8,6.7,3.1C174.2,104.1,171.2,101.7,171.6,97.7z"/>
	<path class="st0" d="M293.7,43.9c-1.5,2-3,3.9-4.5,5.9c-2.3-1.7-4.6-3.4-7-5.2c-5.2,7-10.5,13.9-15.7,20.9
		c-2.4-1.8-4.7-3.5-7.1-5.3c5.3-7,10.5-13.9,15.7-20.9c-2.3-1.7-4.5-3.4-6.8-5.2c1.5-2,3-3.9,4.5-5.9
		C279.8,33.4,286.7,38.6,293.7,43.9z"/>
	<path class="st0" d="M225.3,15c-2.3,8.5-4.5,16.8-6.8,25.2c-2.9-0.8-5.6-1.5-8.6-2.3c2.3-8.4,4.5-16.8,6.7-25.3
		c-2.8-0.8-5.4-1.5-8.3-2.2c0.6-2.4,1.2-4.7,1.9-7.2c2.3,0.6,4.4,1.2,6.5,1.7c5.9,1.6,11.8,3.2,17.8,4.7c0.8,0.2,1,0.5,0.8,1.3
		c-0.5,1.7-1,3.5-1.4,5.3c-0.2,0.7-0.4,0.8-1.1,0.6C230.4,16.4,228,15.7,225.3,15z"/>
	<path class="st0" d="M30.5,274.4c-1.5-2.6-3-5-4.6-7.6c7.4-4.5,14.8-8.9,22.4-13.5c-2.2-3.7-4.4-7.4-6.7-11.1
		c2.1-1.3,4.2-2.5,6.3-3.8c3.8,6.3,7.5,12.4,11.3,18.7C49.7,262.8,40.1,268.5,30.5,274.4z"/>
	<path class="st0" d="M56,265.2c1.9-1.6,3.8-3.2,5.7-4.8c4.7,5.6,9.3,11.1,14.1,16.8c-8.6,7.2-17.1,14.4-25.7,21.6
		c-1.9-2.3-3.8-4.5-5.7-6.8c6.7-5.6,13.3-11.2,20-16.8C61.5,271.8,58.8,268.6,56,265.2z"/>
	<path class="st0" d="M81.6,165.9c1.7,2.7,4.2,3.6,7.1,2.5c1-0.4,2.1-0.8,3-1.5c4.2-2.8,8.7-2.9,13.1-1.1c4.1,1.7,8,3.8,11.9,5.9
		c4,2.1,7.9,4.2,12.3,5.3c0.4,0.1,1,0.4,1.2,0.7c0.2,0.4,0.2,1,0.1,1.4c0,0.2-0.6,0.5-0.8,0.4c-3.4-0.9-6.7,0-10.1,0.5
		c-3.3,0.5-6.7,1-9.8-0.9c-1.9-1.2-3.6-2.7-5.4-4.1c-1.1-0.9-2.2-1.9-3.4-2.7c-3.4-2.2-6.8-1.9-9.7,1c-2.3,2.3-4.9,2.3-7.3,0
		c-1.5-1.4-2.5-3-2.9-5C80.6,167.6,80.5,166.6,81.6,165.9z"/>
	<path class="st0" d="M181.3,219.8c-0.2,1.5-0.5,3-0.6,4.5c-0.3,5.5,1.3,10.1,6,13.3c4.3,2.9,7.2,7.1,9.5,11.7
		c1.5,3,1.5,6.2,0.8,9.3c-0.2,1-0.7,2-2,2.3c-0.2-0.4-0.3-0.8-0.5-1.1c-0.7-1.9-1.7-3.5-3.2-4.8c-5-4.3-9.6-9-12.8-14.9
		c-1.9-3.6-3.1-7.4-2.8-11.5c0.2-3,1-5.8,3.3-8c0.5-0.5,1.3-0.7,2-1.1C181.2,219.6,181.2,219.7,181.3,219.8z"/>
	<path class="st0" d="M167,335.3c0-6.4,5-11.4,11.3-11.3c6.4,0,11.3,5,11.3,11.4c0,6.3-5.1,11.4-11.3,11.4
		C172,346.7,167,341.6,167,335.3z M172.6,341.6c1.4,0,2.4-1.6,1.6-2.7c-0.7-1-1.5-1.9-2.4-2.8c-0.8-0.7-1.8-0.4-2.3,0.5
		C168.6,338.4,170.6,341.6,172.6,341.6z M180.9,334.8c0-1.7-1.1-3-2.3-2.9c-1.1,0-2,1.2-1.9,2.5c0,1.3,1,2.4,2.2,2.4
		C180,336.8,180.9,335.9,180.9,334.8z M170.3,333.7c1.5,0,2.8-1.2,3.2-2.6c0.2-0.8-0.1-1.2-0.8-1.5c-1.4-0.6-3.3,0.4-3.9,1.9
		C168.2,332.8,168.8,333.7,170.3,333.7z M181.8,343.5c0-1.2-1.2-2.5-2.4-2.5c-1.1,0-2,0.8-2,1.7c0,1.2,1.4,2.6,2.7,2.7
		C181.1,345.5,181.7,344.7,181.8,343.5z M178.3,329.5c1.6,0,2.2-0.6,2.2-1.8c0-1.2-1-2.5-1.9-2.5c-1.1,0-2,1.3-2,3.1
		C176.7,329.4,177.6,329.4,178.3,329.5z M185.8,340.4c0.8-0.1,1.8-0.3,2.2-1.5c0.1-0.5,0-1.3-0.3-1.7c-0.8-0.9-1.8-0.5-2.8-0.2
		c-0.1,0-0.1,0.1-0.2,0.1c-0.8,0.4-1.3,1.1-1.1,2C183.9,340.1,184.6,340.4,185.8,340.4z M185.6,333c0.8-0.6,1.6-1,2.1-1.6
		c0.3-0.4,0.5-1.2,0.2-1.6c-0.3-0.4-1-0.9-1.5-0.9c-0.7,0-1.5,0.4-2,0.9c-0.4,0.4-0.7,1.2-0.5,1.6
		C184.2,332.1,184.9,332.5,185.6,333z"/>
	<path class="st0" d="M120.7,307.6c2.8,1.1,5.5,2.2,8.2,3.3c-1.6,4-3.1,7.8-4.7,11.7c-2.5,6.1-5,12.2-7.4,18.3
		c-0.4,0.9-0.7,1.2-1.6,0.7c-2.3-1-4.6-1.9-7.1-2.9C112.3,328.4,116.4,318.1,120.7,307.6z"/>
	<path class="st0" d="M260,292.8c2.4-1.8,4.7-3.5,7.1-5.3c6.7,9,13.4,17.8,20.2,26.8c-2.4,1.8-4.7,3.5-7.1,5.4
		C273.5,310.7,266.8,301.8,260,292.8z"/>
	<path class="st0" d="M66.3,313.4c-2.3-1.9-4.5-3.8-6.8-5.7c7.2-8.6,14.3-17.1,21.6-25.7c2.3,1.9,4.5,3.8,6.8,5.7
		C80.7,296.3,73.5,304.8,66.3,313.4z"/>
	<path class="st0" d="M283.6,81.9c-2-2.2-4-4.2-6.1-6.5c8.2-7.6,16.3-15.2,24.5-22.9c2,2.2,4,4.3,6.1,6.5
		C300,66.6,291.8,74.2,283.6,81.9z"/>
	<path class="st0" d="M314.6,138.2c-0.9-2.7-1.7-5.2-2.5-7.7c-0.3-0.9,0.4-1,0.9-1.1c5.8-1.9,11.7-3.8,17.5-5.7
		c4.1-1.3,8.2-2.7,12.3-4c0.3-0.1,0.5-0.1,1-0.3c0.9,2.7,1.8,5.4,2.7,8.4C335.9,131.3,325.4,134.7,314.6,138.2z"/>
	<path class="st0" d="M44.6,61.1c2-2.2,4-4.3,6.1-6.5c8.2,7.6,16.3,15.2,24.5,22.9c-2,2.2-4,4.3-6,6.5
		C60.9,76.3,52.8,68.8,44.6,61.1z"/>
	<path class="st0" d="M193.9,1.6c2.7,0.3,5.4,0.6,8,1c0.3,0,0.7,0.8,0.6,1.1c-0.2,2.3-0.5,4.6-0.8,6.9c-0.5,4.2-1,8.5-1.6,12.7
		c-0.5,4-1,8-1.5,12c0,0.2-0.5,0.6-0.7,0.6c-2.5-0.3-4.9-0.6-7.4-0.9c-0.3,0-0.6-0.7-0.6-1c0.2-2.3,0.5-4.6,0.8-6.9
		c0.5-4.3,1.1-8.6,1.6-12.9C192.8,10,193.3,5.8,193.9,1.6z"/>
	<path class="st0" d="M171,177.3c0.9,0.2,1.5,0.2,2.1,0.4c4.1,1.6,6.6,6.3,5.4,10.5c-0.9,3.2-0.3,6.3-0.4,9.5
		c-0.1,2.5-0.2,5-0.5,7.5c-0.2,1.8-1.4,3.1-3.1,3.9c-3.4,1.6-5.8,4.1-6.9,7.8c-0.1,0.3-0.3,0.7-0.4,1c-1.8,4-4.5,5.3-8.8,4.3
		c-1.9-0.5-3.2-1.5-3.7-3.4c-0.4-1.3-0.6-2.7-0.9-4.3c0.8,0.8,1.4,1.4,2,1.9c1.5,1.1,3.2,1.5,5,0.7c1.7-0.7,2.4-2.2,2.6-4
		c0.2-1.4,0.4-2.8,0.8-4.2c0.5-1.9,1.6-3.2,3.5-3.8c0.9-0.3,1.8-0.6,2.7-0.9c1.9-0.7,2.7-1.9,2.6-3.9c-0.2-3.6,0.6-7.1,1.4-10.5
		c1.1-4.4,0.6-8.4-2.8-11.7C171.4,178,171.3,177.8,171,177.3z"/>
	<path class="st0" d="M94.2,202.7c0.5-0.3,0.9-0.7,1.4-0.8c3.3-0.2,5.8,1.2,7.6,3.9c1.6,2.5,1.4,5-0.2,7.4c-1.1,1.7-2.9,2.1-4.7,2.6
		c-0.2,0.1-0.6-0.3-0.8-0.5c-0.8-1.1-1.9-1.4-3.1-1.3c-0.4,0-0.7,0.2-1,0.3c-1.7,0.4-2.8,1.3-2.8,3.2c0,1.1-0.2,2.1-0.3,3.2
		c-0.1,0.3-0.3,0.6-0.5,1c-0.1,0-0.2,0-0.4,0c-0.2-0.6-0.5-1.3-0.7-1.9c-0.1-0.5-0.1-0.9-0.2-1.4c-0.5-2.6-2.3-3.9-5-3.6
		c-1,0.1-1.9,0.2-2.9,0.2c-2.2,0-3.9-1.4-3.9-3.7c0-1.8,0.1-3.8,0.6-5.5c2.3-7.8,4.8-15.5,7.3-23.2c0.1-0.4,0.6-0.7,0.9-1
		c0.1,0.5,0.3,1.1,0.2,1.5c-2.2,5.8-3.7,11.9-4.9,18c-0.3,1.3-0.4,2.6-0.5,3.9c-0.2,2.2,1.1,3.7,3.3,3.6c2.3-0.1,4.5-0.3,6.8-0.8
		c2.4-0.5,4.7-0.5,7.1,0.4c0.2,0.1,0.4,0.1,0.6,0.2c0.8,0.3,1.8,0.3,2.1-0.5c0.3-0.7,0.3-1.8,0-2.4c-0.9-1.4-2.3-2.1-4-2.2
		c-0.5,0-1.1-0.1-1.6-0.1C94.3,203,94.2,202.9,94.2,202.7z"/>
	<path class="st0" d="M197.6,288.4c-0.2-3.4,1.4-5,4.6-5.2c2.4-0.1,4.3,0.8,6.1,2.3c1.4,1.1,3,2,4.5,2.8c2,1,4,0.8,5.9-0.4
		c0.3-0.2,0.6-0.4,1-0.6c1,0.9,1.1,2,0.8,3.2c-0.8,3-4.2,5.1-7.2,4.7c-4-0.5-6.4-2.7-7.4-6.6c-0.6-2.4-3-3.5-5.3-2.8
		c-0.4,0.1-0.9,0.4-1.2,0.8c-0.3,0.4-0.5,1-0.3,1.4c0.1,0.3,0.8,0.7,1.2,0.6c1.1-0.1,2.2-0.4,3.4-0.6c0.1,1.6-0.5,2.9-1.4,4.1
		c-2.2,2.9-5.9,4.4-8.9,3.4c-3.8-1.2-6.7-3.7-7.4-7.8c-0.3-1.7,0-3.6,0.2-5.3c0.1-0.6,0.5-1.3,0.9-1.8c0.8-1,1.5-0.8,2,0.3
		c1.3,3.2,3.7,5.4,6.7,6.8C196.4,288.1,197,288.2,197.6,288.4z"/>
	<path class="st0" d="M142.2,106.9c-1.3,1-2.6,2.1-4,3.1c-0.2,0.2-0.9,0.1-1-0.1c-0.4-0.5-0.8-1.2-1.1-1.8c-0.4-0.7-0.9-1-1.7-0.8
		c-1.9,0.5-3.8,1.1-5.8,1.5c-0.3,0.1-0.8-0.2-1.1-0.5c-0.2-0.2-0.3-0.6-0.6-1.1c-1.6,0.7-3.1,1.3-4.6,1.9
		c-7.5,3.1-14.9,6.1-22.4,9.2c-0.7,0.3-1.3,0.7-2.1,1c-0.5,0.2-1,0.1-1.5,0.1c0-0.1-0.1-0.3-0.1-0.4c0.4-0.3,0.8-0.7,1.3-0.9
		c5.6-3,11.1-5.9,16.7-8.8c7.1-3.7,14.2-7.3,21.3-11c0.8-0.4,1.3-0.4,1.7,0.4c0.5,0.9,1.1,1.8,1.6,2.7
		C140.1,103.1,141.2,105,142.2,106.9z"/>
	<path class="st0" d="M134.2,192.7c1.1,1.6,1.9,3.1,3.1,4.3c1.7,1.7,3.9,2.3,6.4,1.9c1.7-0.3,2.8-1.3,3.2-2.9c0.4-1.7,0.7-3.5,1-5.3
		c0.1-0.7,0.3-1.1,1.1-1.1c1,0,2.3-0.5,3-0.1c0.6,0.4,0.7,1.7,1,2.7c1.4,4.6,5.7,6.9,10.3,5.5c0.4-0.1,0.8-0.2,1.4-0.3
		c-0.3,1.4-1.3,2.1-2.4,2.5c-3.1,1.1-6.1,1-9.1-0.5c-0.2-0.1-0.4-0.2-0.5-0.3c-0.7,1.3-1.3,2.6-2.1,3.7c-1.1,1.5-2.5,2.6-4.3,3
		c-2.6,0.5-4.9-0.3-7-1.8c-3-2.2-4.6-5.3-5.2-9C133.9,194.3,134.1,193.5,134.2,192.7z"/>
	<path class="st0" d="M161.3,151c-1.3,0.3-1.9-0.1-2.5-1.1c-5.5-9.6-11-19.1-16.5-28.6c-1.3-2.2-2.5-4.3-3.9-6.5
		c-0.5-0.8-0.5-1.4,0.1-2c0.9-0.9,1.9-1.8,2.9-2.6c0.6-0.5,1.1-0.3,1.5,0.5c5.9,13,11.9,26,17.8,39.1
		C161,150.1,161.1,150.6,161.3,151z"/>
	<path class="st0" d="M232.6,167c-0.1,0.5-0.1,1-0.4,1.3c-1,1.3-1.9,2.8-3.2,3.8c-2.2,1.8-4.6,1.3-7,0.3c-1.7-0.7-3-1.8-4-3.4
		c-3-4.8-3.8-10-3.2-15.5c0.1-1,0.5-2.1,1.8-2c1,5.1,3,9.6,6.6,13.3c2.5,2.5,5.3,3.6,8.8,2.2C232.2,167,232.3,167,232.6,167z"/>
	<path class="st0" d="M153.1,186.8c0.1-0.7,0.1-1.4,0.3-2c2.4-5.8,7.8-7.7,13.3-5.8c3.3,1.1,4.6,4,5.1,7.3c0.1,0.9,0.3,1.8,0.2,2.7
		c0,0.5-0.5,1.2-0.9,1.3c-0.4,0.1-1.1-0.3-1.4-0.7c-3.1-4.8-9.7-7.1-15.1-3.1c-0.4,0.3-0.8,0.4-1.2,0.7
		C153.3,186.9,153.2,186.9,153.1,186.8z"/>
	<path class="st0" d="M133.6,259.2c-0.4-0.1-0.8-0.1-1.1-0.2c-2.2-0.4-3.8,1.2-3.2,3.3c0.3,1.2,1,2.3,1.6,3.4
		c0.7,1.4,1.7,2.7,2.3,4.2c1.2,3.1-0.5,5.3-3.9,5.1c0-0.1-0.1-0.2-0.1-0.2c1.4-2.3,0.6-4.4-1-6.2c-0.6-0.6-1.2-1.2-1.7-1.8
		c-0.7-0.7-1.4-1.4-2.1-2.1c-1.1-1.3-2.4-2.7-1.5-4.6c0.9-2,2.5-3.3,4.7-3.6c1.9-0.3,3.7-0.1,5.2,1.1c0.4,0.3,0.7,0.8,1,1.3
		C133.7,259.1,133.6,259.2,133.6,259.2z"/>
	<path class="st0" d="M199,297.4c-0.6,1.1-0.9,2-1.5,2.7c-2.2,2.4-4.9,3.5-8.2,2.7c-3.6-0.9-6.2-3.1-6.8-6.9c-0.3-1.9-0.2-4,0-5.9
		c0.1-0.9,0.7-1.7,1.2-2.5C185.3,296,190.4,298.9,199,297.4z"/>
	<path class="st0" d="M109.8,225.8c-0.4,1.8-1.9,3.2-4,3.3c-1.2,0.1-2.6,0-3.8-0.3c-2-0.5-3.8-0.5-5.8,0.1c-0.8,0.3-1.6,0.5-2.4,0.6
		c-2.6,0.3-4.7-1.2-5.4-4c0-0.1,0.1-0.2,0.1-0.2c2.2-0.4,4.2-1.5,6.1-2.7c0.8-0.5,1.6-0.4,2.4,0.1c3.9,2.2,8.1,2.9,12.4,2.9
		C109.5,225.6,109.6,225.7,109.8,225.8z"/>
	<path class="st0" d="M207.9,79.4c0.1-1.5,0.3-2.6,0.3-3.7c0-1.7,0-3.4-0.4-5c-0.8-3.2-3.2-5-6.6-5.2c-0.9,0-1.8,0-2.6,0
		c2.9-2.5,7.7-3.1,10.9-1.1c3,1.9,4.2,5.3,3.1,8.9C211.7,75.7,210.8,78.1,207.9,79.4z"/>
	<path class="st0" d="M98,242.5c-0.2-3.4-2.4-4.8-4.7-6.1c-0.7-0.4-0.7-1-0.3-1.4c0.7-0.6,1.6-1.4,2.5-1.5c2-0.3,4.1-0.4,6.2-0.5
		c1.6,0,3.2,0.3,4.4-1.3c0.5-0.6,1.2-0.2,1.1,0.5c-0.1,0.9-0.3,2-0.8,2.6c-0.8,1-2,1.9-3,2.7c-0.8,0.6-1.7,1.1-2.5,1.6
		c-0.9,0.6-1.8,1.2-2,2.4C98.7,241.7,98.5,241.9,98,242.5z"/>
	<path class="st0" d="M159.6,236c0.1,0.8,0.2,1.5,0.3,2.2c0.3,1.3,1,2.3,2.4,2.6c1.5,0.3,2.8-0.1,3.9-1.2c0.4-0.4,1-0.8,1.5-1.1
		c0.1,0.6,0.4,1.3,0.4,1.9c0,3-3.3,6.1-6.3,5.8c-0.9-0.1-1.9-0.6-2.6-1.2c-1.9-1.7-2.5-4.8-1.5-7.2
		C158.1,236.6,158.5,236.3,159.6,236z"/>
	<path class="st0" d="M96.3,185.3c2.4,1.1,4.6,0.3,6.6-0.9c0.8-0.5,1.7-1.1,2.5-1.7c1.3-1,1.9-1.1,3.1,0c0.4,0.3,0.5,1.3,0.3,1.9
		c-0.8,2.6-2.7,4.2-5.3,4.9c-2.6,0.7-4.8-0.4-6.8-1.8C95.9,187.2,95.5,186.4,96.3,185.3z"/>
	<path class="st0" d="M138.5,119.8c-1.3,2-2.6,3.8-4.8,4.1c-0.9,0.1-2.2-0.3-2.9-0.9c-2.7-2.7-3.6-6-3-9.7c0.1-0.5,0.4-0.9,0.8-1.6
		c0.3,0.7,0.5,1.1,0.7,1.4c0.7,1.3,1.3,2.7,2.1,3.9C133,119.2,135.2,120.5,138.5,119.8z"/>
	<path class="st0" d="M160.7,202.9c1.2,1.2,1.2,2.6,0.8,3.8c-0.4,1.2-1.1,2.4-1.8,3.4c-1,1.4-2.5,1.8-4.1,1.3
		c-1.7-0.5-2.8-1.8-3-3.5c-0.2-1.1,0.1-2.4,0.5-3.5c0.3-1,0.9-1,1.5-0.1c0.3,0.3,0.5,0.7,0.7,1.1c1.2,1.7,3.6,1.5,4.5-0.4
		C160.1,204.5,160.4,203.8,160.7,202.9z"/>
	<path class="st0" d="M155.8,251.6c0-0.2,0-0.7,0.2-1.2c0.2-0.4,0.6-0.9,0.9-0.9c0.3,0,0.8,0.4,1,0.8c1.4,2.8,4.1,3.6,6.8,1.9
		c0.3-0.2,0.9-0.4,1.2-0.3c0.3,0.1,0.4,0.7,0.4,1.1c0,3-3.8,5.3-6.8,4.2C157.2,256.4,155.8,254.5,155.8,251.6z"/>
	<path class="st0" d="M169,234.4c-0.8-0.3-1.3-0.5-1.7-0.7c-0.9-0.4-1.8-1-2.7-1.3c-1.7-0.6-2.9-0.1-3.8,1.5c-0.2,0.3-0.7,0.5-1,0.8
		c-0.3-0.4-0.8-0.9-0.8-1.3c-0.1-2.7,2.9-6.1,5.6-6.3c0.7,0,1.6,0.1,2.1,0.6C168.2,229.5,168.7,231.7,169,234.4z"/>
	<path class="st0" d="M105,181c-1.4,0.7-2.8,1.4-4.2,2.2c0-1,0-1.8-0.1-2.5c-0.2-0.6-0.7-1.2-1-1.7c-1.3,1.4-2.4,2.5-3.5,3.8
		c-0.6-0.7-1.2-1.3-0.4-2.3c0.6-0.9,0.5-1.9-0.1-2.8c-0.7-1.1-1.8-1.3-3-1.3c-0.4,0-0.9-0.2-1.3-0.3c0.3-0.4,0.6-0.9,1-1
		c2.6-0.7,5.1-0.5,7.2,1.3C101.3,177.8,103,179.3,105,181z"/>
	<path class="st0" d="M157.4,277.3c1.8,1.9,1.2,5.5-1.1,6.5c-1,0.4-2.2,0-2.8-1.2c-0.3-0.5-0.4-1.1-0.6-1.6
		C156.6,279.5,156.6,279.5,157.4,277.3z"/>
	<path class="st0" d="M161.1,274.4c1.7-0.4,2.7-1.5,3.2-3.1c1.2,0.9,1.6,2.3,1.2,3.4c-0.4,1-1.6,1.7-2.8,1.5
		C161.7,276.1,161.2,275.5,161.1,274.4z"/>
</g>
</svg>
