<svg xmlns="http://www.w3.org/2000/svg" height="99.591" width="350" viewBox="0 0 349.99997 99.591308">
 <g>
  <path fill="#bf5700" d="m60.666 3.3304v24.766 0.44407c0 9.3255-0.91908 21.35-8.1015 31.905-1.4978 2.152-3.1657 4.1674-5.1741 6.1145 0 0-0.03407 0.03415-0.03407 0.03415-3.9146 3.7575-9.0546 7.3101-16.407 11.409-7.3526-4.0991-12.527-7.6517-16.407-11.409 0 0-0.03404-0.03415-0.03404-0.03415-2.008-1.948-3.71-3.929-5.1741-6.115-7.1824-10.521-8.1015-22.579-8.1015-31.905v-3.0743-22.135l1.1914-0.13664c0.1702-0.0344 16.101-2.0156 28.525-2.0156 12.425 0 28.355 1.9812 28.525 2.0154l1.1914 0.13664z"/>
  <path d="m30.949 3.9453c-9.259 0-20.525 1.1273-25.529 1.6738l-1.4298 19.846h26.959 26.959l-1.394-19.846c-5.038-0.5464-16.306-1.6737-25.565-1.6737zm0 23.194l-26.994 1.504c0.0001 8.915 0.8852 20.393 7.625 30.265 1.396 2.016 2.996 3.927 4.902 5.772 5.923 5.465 12.595 8.472 14.467 9.258 1.872-0.786 8.544-3.793 14.467-9.258 1.906-1.845 3.507-3.722 4.902-5.772 6.706-9.872 7.59-21.35 7.59-30.265l-26.959-1.504z" fill="#fff"/>
  <path fill="#bf5700" d="m27.715 7.4631c-1.3956 0-2.8943 0.24074-4.4601 0.4457-1.736 0.27327-3.5381 0.5107-5.3422 0.5107h-0.85116v3.5192h-1.2597v2.049h1.2597v2.8011h-1.2597v2.049h1.2597v3.8256h0.85116c1.9403 0 3.8445-0.30552 5.6486-0.57879 1.5658-0.23912 3.0304-0.47975 4.2558-0.47975 1.0212 0 1.7705 0.13827 2.3492 0.4457h1.6342c0.57868-0.30744 1.328-0.4457 2.3492-0.4457 1.2595 0 2.7209 0.24063 4.2527 0.47975 1.8382 0.27328 3.7455 0.57879 5.6517 0.57879h0.85116v-3.8256h1.2597v-2.049h-1.2597v-2.8011h1.2597v-2.0149h-1.2597v-3.5532h-0.85116c-1.8041 0-3.6093-0.27158-5.3453-0.5107-1.6-0.2396-3.096-0.4462-4.458-0.4462-1.2935 0-2.3834 0.20602-3.2685 0.61593-0.885-0.4099-1.975-0.6159-3.269-0.6159zm3.2344 21.078c-0.03404 0-0.06809 0.03395-0.06809 0.0681l-2.962 9.1183h-9.5299c-0.03404 0-0.0681 0.003-0.10214 0.03715 0 0.06833 0.000014 0.10214 0.06809 0.10214l7.7255 5.6362-2.962 9.1864s0.000008 0.03404 0.03405 0.03404h0.03404l7.7967-5.6703 7.7936 5.6703h0.03404c0.03404-0.03417 0.03404-0.06809 0-0.06809l-2.962-9.1523 7.7286-5.6362c0.03404 0 0.06808-0.03382 0.03404-0.10214 0-0.03417-0.03406-0.03714-0.06809-0.03714h-9.564l-2.962-9.1183c0-0.03415-0.03406-0.06809-0.0681-0.06809zm-17.599 1.8447-0.54474 0.47665c-1.3276 0.99062-2.2471 2.4274-2.5535 4.067-0.1702 0.81982-0.1702 1.6378 0 2.4235-0.6461-0.514-1.3954-0.889-2.1783-1.162l-0.715-0.204-0.1702 0.715c-0.37444 1.6396-0.10198 3.3133 0.71498 4.7479 0.81696 1.4347 2.1793 2.4962 3.7451 2.9744l0.61284 0.17023c0.06808 0.51239 0.20431 1.0228 0.37451 1.5352-0.88504-0.58071-1.9068-0.92213-2.962-0.99044l-0.71498-0.06809v0.75212c-0.03404 1.6738 0.579 3.2458 1.6683 4.4756 1.1233 1.2297 2.6219 1.9804 4.2899 2.1171l0.64688 0.06809c0.1702 0.51239 0.40861 0.99219 0.68093 1.4021-0.71484-0.27328-1.4982-0.41165-2.2811-0.41165-0.27232 0-0.5448-0.000103-0.81712 0.03404l-0.71498 0.10213 0.13618 0.71807c0.30636 1.6396 1.2259 3.0764 2.5875 4.067 1.1233 0.81982 2.4176 1.2288 3.8132 1.2288 0.27232 0.000002 0.5448 0.000105 0.81712-0.03404l0.64379-0.0681c0.27232 0.44407 0.57886 0.85302 0.9533 1.2288-1.0212-0.1708-2.108-0.06922-3.0951 0.27237l-0.68093 0.24142 0.27237 0.68093c0.64676 1.5372 1.8357 2.768 3.3335 3.417 0.851 0.37575 1.7365 0.58189 2.6216 0.58189 0.71484 0 1.4641-0.13849 2.1449-0.37761l0.5107-0.17023c0.851 0.71735 1.8047 1.4362 3.1323 2.3585-0.61272 0.40991-1.2599 0.81852-2.0087 1.3309l1.2938 0.78616c0.71484-0.47824 1.362-0.89004 1.9407-1.3 0.57868 0.37576 1.2258 0.82172 1.9407 1.3l1.2938-0.78616c-0.74888-0.47823-1.396-0.921-2.0087-1.3309 1.3276-0.9223 2.2813-1.6412 3.1323-2.3585l0.5076 0.17023c0.6808 0.23912 1.4301 0.37761 2.1449 0.37761 0.91908 0 1.8046-0.20613 2.6216-0.58189 1.4978-0.68319 2.6898-1.8799 3.3366-3.417l0.27237-0.68093-0.68093-0.24142c-0.98716-0.34159-2.077-0.44317-3.0982-0.27237 0.37444-0.37575 0.68098-0.7847 0.9533-1.2288l0.64688 0.0681c0.27232 0.03415 0.5448 0.03404 0.81712 0.03404 1.3956 0 2.6899-0.40895 3.8132-1.2288 1.3276-0.99062 2.2471-2.4274 2.5875-4.067l0.13619-0.71807-0.71498-0.10213c-0.27232-0.03415-0.54479-0.03404-0.81712-0.03404-0.78292 0-1.5322 0.13838-2.2811 0.41165 0.27232-0.44407 0.51073-0.92387 0.68093-1.4021l0.64688-0.06809c1.668-0.13663 3.1665-0.88734 4.2899-2.1171 1.1233-1.2297 1.6993-2.8359 1.6652-4.4756v-0.75212l-0.74902 0.06809c-1.0552 0.06832-2.0739 0.4439-2.959 0.99044 0.20424-0.47823 0.30645-1.0228 0.37451-1.5352l0.74902-0.17023c1.5999-0.47823 2.9251-1.5397 3.742-2.9744 0.81696-1.4347 1.0894-3.1083 0.71498-4.7479l-0.17023-0.71498-0.71498 0.20428c-0.81696 0.23912-1.5291 0.64829-2.1759 1.1607 0.13616-0.78566 0.13616-1.6037 0-2.4235-0.30637-1.6396-1.2259-3.0764-2.5535-4.067l-0.57879-0.4426-0.37451 0.61284c-0.88505 1.4005-1.1916 3.0742-0.88521 4.7139 0.30636 1.6396 1.2259 3.0423 2.5535 4.033-0.23828 0.54655-0.40858 1.1619-0.5107 1.7426-0.40848-1.0931-1.0556-2.0496-1.9747-2.8011l-0.582-0.481-0.442 0.616c-0.95312 1.3664-1.3959 3.0062-1.1576 4.6458 0.20424 1.6396 1.0557 3.1412 2.3152 4.2001l0.03404 0.03404c-0.37444 0.5124-0.68096 1.0596-0.8852 1.6745-0.1702-1.1273-0.61298-2.2192-1.3619-3.1756l-0.4426-0.58189-0.54474 0.5107c-1.2254 1.1273-1.9747 2.6657-2.1109 4.3053-0.13616 1.6396 0.37471 3.2797 1.3959 4.5777l0.03404 0.03404c-0.47656 0.40991-0.88528 0.92375-1.2257 1.4361 0.06808-1.1614-0.13628-2.324-0.68093-3.383l-0.34047-0.64998-0.64688 0.37761c-1.4297 0.85398-2.4855 2.1861-2.962 3.7915-0.47656 1.6055-0.30627 3.279 0.44261 4.782v0.03404c-0.54464 0.30743-1.0555 0.7166-1.464 1.1607 0.30636-1.1273 0.34041-2.2897 0.03404-3.4511l-0.17023-0.71498-0.68093 0.23832c-1.5658 0.54655-2.857 1.6387-3.6739 3.1075-0.74888 1.4005-0.95323 3.0404-0.57879 4.6118-0.20424 0.13663-0.44264 0.30907-0.64688 0.4457-0.23828-0.1708-0.44264-0.30907-0.64688-0.4457 0.37444-1.5713 0.17009-3.2112-0.57879-4.6118-0.7829-1.4688-2.0771-2.561-3.677-3.1075l-0.68093-0.23832-0.17023 0.71498c-0.30636 1.1273-0.27231 2.3238 0.03404 3.4511-0.44252-0.44407-0.91937-0.85324-1.498-1.1607l0.03405-0.03404c0.74888-1.503 0.88512-3.1765 0.44261-4.782-0.47656-1.6055-1.5324-2.9376-2.962-3.7915l-0.64688-0.37761-0.34047 0.64998c-0.54464 1.0589-0.74591 2.2216-0.67784 3.383-0.3404-0.54655-0.74912-1.0262-1.2257-1.4361l0.03405-0.03404c1.0212-1.2981 1.5321-2.938 1.3959-4.6118-0.13616-1.6738-0.88545-3.1781-2.1109-4.3053l-0.54476-0.51071-0.4426 0.58189c-0.74888 0.9223-1.1917 2.0142-1.3619 3.1756-0.207-0.58-0.513-1.162-0.888-1.674l0.03405-0.03404c1.2935-1.0589 2.1109-2.5605 2.3152-4.2001 0.20424-1.6396-0.20446-3.3136-1.1576-4.6458l-0.4426-0.61593-0.57879 0.47975c-0.91908 0.75151-1.6003 1.708-1.9747 2.8011-0.06808-0.61487-0.23838-1.196-0.5107-1.7426 1.3276-0.99062 2.2471-2.4275 2.5535-4.033 0.30636-1.6396-0.000172-3.3134-0.88521-4.7139l-0.37451-0.61284z"/>
  <path d="m27.681 9.1376c-1.2595 0-2.69 0.20349-4.2218 0.44261-1.3616 0.20496-2.7209 0.37727-4.1506 0.47975l-0.37451 10.83c1.4297-0.06832 2.8911-0.27468 4.3208-0.51379 1.5999-0.23912 3.1326-0.47975 4.5282-0.47975 0.74888 0 1.396 0.07073 1.9747 0.20737l0.30642-9.0533v-1.5042c-0.612-0.2732-1.395-0.4084-2.383-0.4084zm6.5369 0c-0.98716 0-1.7365 0.13528-2.3833 0.40856v1.5042l0.30642 9.0533c0.57868-0.13663 1.2258-0.20737 1.9747-0.20737 1.3956 0 2.9252 0.24063 4.5251 0.47975 1.4297 0.23912 2.8942 0.44548 4.3239 0.51379l-0.374-10.83c-1.43-0.1026-2.826-0.2749-4.154-0.4798-1.532-0.2391-2.959-0.4426-4.219-0.4426zm-21.208 23.331c-0.74888 0.7515-1.2257 1.6742-1.43 2.699-0.1702 1.0248-0.06801 2.0831 0.34047 3.0054 0.74888-0.7515 1.2257-1.6742 1.43-2.699 0.1702-1.0248 0.06801-2.0489-0.34046-3.0054zm35.777 0c-0.40848 0.95646-0.5447 2.0146-0.34046 3.0394s0.71512 1.9475 1.43 2.699c0.40848-0.95646 0.5447-2.0146 0.34047-3.0394-0.20424-1.0248-0.71512-1.9816-1.43-2.699zm-17.837 2.5287-1.7704 4.4384-4.8006 0.34356 3.7111 3.0735-1.1916 4.6458 4.0515-2.5628 4.0515 2.5628-1.1916-4.6458 3.6739-3.0735-4.7634-0.30952-1.7704-4.4725zm-22.536 2.801c-0.068079 1.0248 0.17033 2.0832 0.68093 2.9713 0.5106 0.88814 1.2939 1.6049 2.213 2.049 0.10212-1.0248-0.13629-2.049-0.68093-2.9713-0.5106-0.88814-1.2939-1.6049-2.213-2.049zm45 0c-0.95312 0.44407-1.6993 1.1608-2.2099 2.049-0.51059 0.9223-0.74901 1.9466-0.68093 2.9713 0.91908-0.44407 1.6993-1.1608 2.2099-2.049 0.5106-0.9223 0.74901-1.9466 0.68093-2.9713zm-38.497 2.5597c-0.6808 0.78566-1.1236 1.7423-1.2597 2.7671-0.13616 1.0248 0.03414 2.0831 0.5107 3.0054 0.6808-0.78567 1.1236-1.7392 1.2597-2.764 0.13616-1.0589-0.03414-2.0862-0.5107-3.0085zm31.998 0c-0.47656 0.9223-0.64686 1.9837-0.5107 3.0085s0.57892 1.9783 1.2597 2.764c0.47656-0.9223 0.64686-1.9806 0.5107-3.0054s-0.57892-1.9814-1.2597-2.7671zm-36.526 6.2522c0.1702 1.0248 0.61297 1.9814 1.2938 2.7671 0.6808 0.78566 1.6004 1.3333 2.5875 1.5383-0.1702-1.0248-0.61297-2.0156-1.2938-2.7671-0.6808-0.75151-1.6004-1.2992-2.5875-1.5383zm41.02 0c-0.98716 0.23912-1.8727 0.75262-2.5875 1.5383-0.71483 0.78566-1.1576 1.7423-1.2938 2.7671 0.98716-0.23912 1.9067-0.75262 2.5875-1.5383 0.71484-0.75151 1.1576-1.7081 1.2938-2.7671zm-6.8774 1.1607c-0.64676 0.81982-1.0555 1.7762-1.1235 2.8351-0.06808 1.0589 0.17032 2.0832 0.64688 2.9713 0.64676-0.81982 1.0555-1.8104 1.1235-2.8351 0.10212-1.0589-0.13628-2.0832-0.64688-2.9713zm-27.265 0.03404c-0.5106 0.88814-0.71497 1.9124-0.68093 2.9713 0.10212 1.0589 0.47678 2.0153 1.1235 2.8351 0.5106-0.88814 0.74901-1.9124 0.68093-2.9713-0.10212-1.0589-0.47678-2.0153-1.1235-2.8351zm3.8442 6.7629c-0.30636 0.99062-0.34041 2.0519-0.03404 3.0425 0.30636 0.99062 0.88536 1.8766 1.6683 2.5256 0.30636-0.99062 0.34041-2.0488 0.03406-3.0394-0.30636-0.99062-0.88536-1.8797-1.6683-2.5287zm19.574 0c-0.78292 0.64903-1.3619 1.5381-1.6683 2.5287-0.30636 0.99062-0.27231 2.0488 0.03404 3.0394 0.78292-0.64903 1.3619-1.535 1.6683-2.5256 0.30636-0.99062 0.27231-2.0519-0.03404-3.0425zm-26.55 0.30952c0.37444 0.95646 0.98751 1.8086 1.8385 2.4235 0.851 0.61487 1.8387 0.92213 2.8259 0.99044-0.3404-0.99062-0.95347-1.8086-1.8045-2.4235-0.851-0.61487-1.8387-0.95628-2.8599-0.99044zm33.496 0c-1.0212 0.03415-2.0089 0.37558-2.8599 0.99044-0.81696 0.61487-1.4641 1.4329-1.8045 2.4235 1.0212-0.03415 2.0089-0.37558 2.8599-0.99044 0.851-0.61487 1.4641-1.467 1.8045-2.4235zm-12.117 5.5001c-0.88504 0.47823-1.6343 1.2288-2.1449 2.1511s-0.71495 1.9466-0.57879 2.9713c0.91908-0.47823 1.6684-1.2288 2.1449-2.1511 0.47656-0.9223 0.68091-1.9466 0.57879-2.9713zm-9.2266 0.03404c-0.10212 1.0248 0.10223 2.0491 0.57879 2.9373 0.47656 0.9223 1.2259 1.6729 2.1449 2.1511 0.10212-1.0248-0.10223-2.049-0.57879-2.9713-0.47656-0.88814-1.2259-1.6388-2.1449-2.1171zm-5.9736 1.6311c-0.25424 0.0074-0.5092 0.03467-0.7645 0.07738 0.54464 0.88814 1.3249 1.605 2.278 2.0149 0.91908 0.40991 1.9749 0.54531 2.9961 0.37451-0.54464-0.88814-1.328-1.605-2.2811-2.0149-0.71484-0.33305-1.4658-0.47431-2.2285-0.45189zm21.202 0.0062c-0.77068-0.01442-1.5361 0.13827-2.2254 0.4457-0.95312 0.44407-1.7365 1.1268-2.2811 2.0149 0.30636 0.03415 0.6129 0.06809 0.91926 0.06809 0.71484 0 1.4301-0.13516 2.0768-0.4426 0.95312-0.44407 1.7365-1.1268 2.2811-2.0149-0.2553-0.04269-0.51379-0.06638-0.77069-0.07118z" fill="#fff"/>
  <path d="m329.27 4.2534c-12.22 2.562-21.038 8.1982-21.038 17.831 0 7.8566 5.2103 11.92 11.542 14.652l10.653 4.6799c5.2762 2.2887 9.1554 5.7402 9.1554 11.752 0 6.4561-4.3904 11.204-11.947 11.204-4.9358 0-9.7688-2.2889-12.39-5.5682l-3.0642-7.515h-6.1593l1.9376 11.922c4.6635 3.6892 10.11 6.0108 18.212 6.0108 16.543-3.4501 22.161-11.477 22.161-19.778 0-9.0181-6.0585-13.426-13.003-16.432l-10.112-4.4044c-4.8337-2.1179-8.2702-5.125-8.2702-9.9756 0-5.9096 4.1179-9.7002 11.096-9.7002 5.2762 2e-7 8.1004 1.9451 10.381 4.3363l2.5535 8.0288h4.392v-11.922c-4.39-3.2782-10.55-5.1214-16.1-5.1214zm-53.58 0.71807-5.2741 1.5011-21.821 57.217-4.2218 0.58189-4.2187-0.64998-19.54-28.865 18.042-24.9 6.8743-0.9564-0.44259-3.0766-10.279 0.27547-10.279-0.27547-0.44259 3.0766 7.6574 1.1607-13.956 20.598-12.424-20.666 7.4871-1.1607-0.44261-3.0766-12.492 0.34356-12.594-0.34356-0.44261 3.0766 6.8774 0.9564 18.209 27.633-18.992 26.234-6.8774 0.9564 0.44261 3.1787 9.8364-0.27547 10.282 0.27547 0.44259-3.1787-7.2178-1.0585 15.011-21.997 13.684 21.929-7.4872 1.1607 0.44261 3.1787 12.594-0.27547 10.279 0.20738 7.2179-0.20738 10.551 0.27547 0.44261-3.0766-7.6574-1.1607 5.7167-16.5h21.719l5.9922 16.5-7.4902 1.1607 0.44261 3.0766 11.607-0.27547 12.155 0.27547 0.44261-3.0766-6.8774-0.9564-22.978-58.82zm-198.89 0.78307v15.612h3.4387l4.0484-11.204 13.176-0.17023v53.493l-10.554 1.1607 0.4426 3.0735 14.773-0.27237 14.262 0.27237 0.4426-3.0735-10.109-1.1607v-53.493l13.173 0.17023 4.0515 11.204h3.4387v-15.612l-25.328 0.27547-25.256-0.27547zm55.858 0-0.44261 3.0766 7.9328 1.1607v53.493l-7.9328 1.1607 0.44261 3.0735 12.155-0.27237 34.922 0.27237 3.0642-16.327h-3.3366l-5.887 11.922-24.204 0.27237v-26.507l12.325 0.37451 3.5037 9.2576h3.0982l-0.8852-11.922 0.8852-11.031h-3.0982l-3.5037 9.2545-12.325 0.37761v-23.501l23.319 0.27237 4.9367 11.477h2.993l-0.8852-15.884-34.922 0.27547-12.155-0.27547zm-105.11 5.0014c-0.96535-0.0096-1.9927 0.10627-3.0394 0.25999v1.399c1.4637-0.20496 2.792-0.3408 3.9494-0.23833l0.03404-1.365c-0.30636-0.03416-0.62223-0.05251-0.94402-0.05571zm7.481 0.03405c-0.56166-0.02989-1.1066-0.02957-1.6342 0.02167l0.03404 1.365c0.98716-0.06832 2.108-0.000563 3.3335 0.17023v-1.399c-0.5957-0.06832-1.1716-0.12796-1.7333-0.15785zm2.7547 0.25999v1.4021c0.23828 0.03416 0.44265 0.06798 0.68093 0.10214 0.88504 0.13664 1.7706 0.27203 2.6897 0.37451l-0.03405-1.399c-0.81696-0.10248-1.6344-0.20692-2.4514-0.34356-0.30636-0.03416-0.57885-0.06787-0.88521-0.13619zm-14.296 0.10214c-0.10212 0.03416-0.17025 0.03405-0.27237 0.03405-0.81696 0.13664-1.6344 0.24108-2.4514 0.34356l-0.03406 1.399c0.91908-0.10248 1.8046-0.23788 2.6897-0.37451h0.0681v-1.4021zm3.6987 2.7485c-1.2334 0.03683-2.5499 0.22527-3.903 0.43022v1.399c0.06808 0 0.10215 0.000119 0.17023-0.03406 1.8382-0.27328 3.5071-0.51104 4.9027-0.40856l0.03404-1.3681c-0.39145-0.02561-0.79286-0.03084-1.204-0.01856zm6.345 0.01857 0.03404 1.3681c0.88504-0.06832 1.8697-0.000449 2.9249 0.13619v-1.3681c-1.0552-0.10248-2.0399-0.17035-2.9589-0.13619zm3.9804 0.23833v1.4021c0.30636 0.03415 0.64694 0.10204 0.9533 0.13619 0.91908 0.13663 1.8387 0.27203 2.7918 0.37451l-0.03405-1.399c-0.851-0.10248-1.7025-0.23799-2.5535-0.34047-0.37444-0.06832-0.78314-0.10501-1.1576-0.17333zm-15.284 0.30951c-0.5106 0.06832-1.0555 0.13596-1.5661 0.20428l-0.03405 1.399 1.6342-0.20428v-1.399h-0.03404zm248.94 1.8788 9.598 26.473h-18.723l9.1245-26.473zm-237.53 0.68093 0.03404 1.3681c1.1233-0.06832 2.4485 0.06741 3.8442 0.27237v-1.365c-1.362-0.204-2.687-0.343-3.878-0.275zm-5.3794 0.03406c-1.1574-0.06832-2.4176 0.07061-3.7451 0.24142v1.399c1.3616-0.20496 2.6218-0.34069 3.7111-0.27237l0.03404-1.3681zm10.313 0.34356v1.433h-0.03404c0.91908 0.13663 1.8728 0.27512 2.8599 0.37761l-0.03404-1.4021c-0.91908-0.10248-1.8046-0.23788-2.6556-0.37451-0.03404 0-0.06811 0.000119-0.13619-0.03406zm-15.08 0.03405c-0.10212 0-0.17025 0.03404-0.23833 0.03404-0.88504 0.13663-1.7706 0.27203-2.6556 0.37451l-0.03406 1.4021c0.98716-0.10248 1.9749-0.24097 2.928-0.37761h0.06809v-1.433h-0.06809zm75.515 63.967-2.0118 0.23214-4.5994 0.03404-5.3855-0.03404v3.2189h0.71498l0.85116-2.2904 2.829-0.065v11.056l-2.2502 0.23213 0.10214 0.63141 3.1385-0.06809 3.0301 0.06809 0.10524-0.63141-2.148-0.23213v-11.056l3.8163 0.065 0.68093-0.09904v11.189l-1.1235 0.16714 0.10214 0.62831 1.9778-0.065 1.7704 0.065 0.10213-0.62831-1.0214-0.16714v-5.4134l0.54474-0.33118c0.68163-0.4316 1.3984-0.8295 1.9778-0.8295 0.74979 0 1.1916 0.39907 1.1916 1.3619v5.2122l-0.91926 0.16714 0.10213 0.62831 1.7704-0.065 2.114 0.03404 0.10214-0.63141-1.3959-0.16714v-4.847c0-2.324-0.40922-3.188-2.7949-3.188l-2.7268 1.7271v-5.9086h-0.64689zm203.57 0.065-1.1266 0.30023-4.6334 11.817-1.4671 0.20118 0.10205 0.63141 2.0118-0.0681 2.2502 0.0681 0.10222-0.63141-1.6373-0.23214 1.2288-3.4201v0.03404h4.5994l1.2597 3.417-1.6002 0.23523 0.10205 0.62831 2.4885-0.065 2.5906 0.065 0.10206-0.62831-1.4671-0.20118-4.9058-12.152zm-82.718 0.06807-1.5661 1.7271c-0.68163 0.73039-1.0214 1.4579-1.0214 2.5535v0.16714h-1.0926l-0.57878 0.63141v0.29713h1.6373v6.7412l-1.3309 0.16714 0.10205 0.62831 2.148-0.065 2.8971 0.065 0.10221-0.69641-2.148-0.13308v-6.7381h2.3523v-0.86354h-2.3523v-0.46427c0-1.1952 0.13597-1.7263 0.40856-2.0583l0.37451-0.49832h2.4204v-1.4609h-2.3523zm-100.34 0.09904-0.10213 0.63141 1.7054 0.23214v7.4036c0 2.9216 1.3303 4.847 5.011 4.847 3.7489-0.86318 4.7356-2.4226 4.7356-4.8129v-7.4376l1.6033-0.23214-0.10213-0.63141-2.1821 0.065-2.3864-0.065-0.10214 0.63141 1.6373 0.19809v7.6357c0 2.3572-1.0906 3.6182-3.0332 3.6182-2.1471-0.000001-3.1354-1.2926-3.1354-3.5501v-7.6698l1.6002-0.23214-0.10214-0.63141-2.5566 0.065-2.5906-0.065zm107.73 0.03404v3.2189h0.74901l0.85116-2.3245 2.829-0.03095v11.053l-2.2471 0.23523 0.10222 0.62831 3.1354-0.065 3.0332 0.065 0.0681-0.62831-2.148-0.23523v-11.053l2.829 0.03095 0.85116 2.3245h0.71498v-3.2189l-5.3824 0.065-5.3855-0.065zm-81.08 0.03095-1.3619 0.10214-0.17023 0.86045 0.10213 1.0307 0.5107 0.09904 1.3278-0.09904 0.20428-0.86354-0.10214-1.0276-0.5107-0.10214zm38.819 0-1.365 0.10214-0.17023 0.86045 0.10206 1.0307 0.51379 0.09904 1.3278-0.09904 0.20428-0.86354-0.10205-1.0276-0.51071-0.10213zm151.53 0-1.365 0.10214-0.17023 0.86045 0.10206 1.0307 0.5107 0.09904 1.3309-0.09904 0.20428-0.86354-0.10221-1.0276-0.51069-0.10214zm-34.765 1.7611 0.13612 0.99664 1.7735 4.8129h-3.9865l2.0768-5.8096zm-111.65 0.09904-1.2288 1.1947v1.1947h-1.2257l-0.64688 0.63141v0.30023h1.8045v5.4444c0 1.66 0.27332 2.3894 2.3864 2.3894l2.3523-1.2597-0.30642-0.63141c-0.51121 0.2324-1.092 0.49832-1.6373 0.49832-0.78388 0-0.98736-0.56449-0.98736-1.0957v-5.5774h2.829l3.1354 7.7007 0.74903-0.23214-1.8757 2.7547h-1.6002v1.8261 0.06809h2.2502l2.1109-4.6149 3.0332-7.4717 1.1947-0.19809-0.10205-0.63141-1.5692 0.06809-1.6342-0.06809-0.10222 0.63141 0.85117 0.19809-2.3183 6.6081-0.13613-1.2628-2.0799-5.3453 1.2288-0.19809-0.10206-0.63141h-5.8962v-2.2904h-0.47665zm98.085 0-1.2288 1.1947v1.1947h-1.2257l-0.64689 0.63141v0.30023h1.8045v5.4444c0 1.66 0.27332 2.3894 2.3864 2.3894l2.1821-1.1947-0.30642-0.63141c-0.5453 0.2324-0.95585 0.43332-1.5012 0.43332-0.78386-0.000001-0.98734-0.56448-0.98734-1.0957v-5.3453h2.829v-0.8295h-2.829v-2.4916h-0.47667zm41.271 0-1.2257 1.1947v1.1947h-1.2257l-0.64998 0.63141v0.30023h1.8076v5.4444c0 1.66 0.27331 2.3894 2.3864 2.3894l2.179-1.1947-0.30642-0.63141c-0.51121 0.2324-0.91871 0.43332-1.464 0.43332-0.78387 0-0.98735-0.56448-0.98735-1.0957v-5.3453h2.7918v-0.8295h-2.8259v-2.4916h-0.47976zm-151.28 1.9252c-2.1812 0.46479-3.4077 1.196-3.4077 2.4575 0 1.0292 0.7482 1.7249 1.5661 2.1233l1.4671 0.7645c0.98835 0.498 1.3619 0.83181 1.3619 1.529 0 0.76359-0.50971 1.3928-1.4981 1.3928-0.57939 0-1.1262-0.19867-1.5352-0.46427l-0.64688-1.529h-1.1947l0.34357 2.0614c0.51122 0.2656 1.7011 0.8295 2.8599 0.8295 2.1471-0.46479 3.513-1.0637 3.513-2.7237 0-1.0292-0.51253-1.7246-1.7735-2.3554l-1.43-0.6995c-0.81795-0.3984-1.2969-0.76117-1.2969-1.3588 0-0.66399 0.71735-1.0647 1.433-1.0647 0.68162 0 1.2255 0.29967 1.43 0.39927l0.47665 1.2938h0.99044v-1.8261c-0.5453-0.3984-1.6363-0.8295-2.6587-0.8295zm90.381 0c-2.1812 0.46479-3.4077 1.196-3.4077 2.4575 0 1.0292 0.75129 1.7249 1.5692 2.1233l1.464 0.7645c0.98835 0.498 1.365 0.83181 1.365 1.529 0 0.76359-0.51278 1.3928-1.5011 1.3928-0.57939 0-1.1231-0.19867-1.5321-0.46427l-0.64999-1.529h-1.1916l0.34046 2.0614c0.51121 0.2656 1.7383 0.8295 2.863 0.8295 2.1471-0.46479 3.5099-1.0637 3.5099-2.7237 0-1.0292-0.50942-1.7246-1.7704-2.3554l-1.433-0.6995c-0.81795-0.3984-1.2938-0.76117-1.2938-1.3588 0-0.66399 0.71425-1.0647 1.43-1.0647 0.68163 0 1.2286 0.29967 1.433 0.39927l0.47665 1.2938h0.98736v-1.8261c-0.5453-0.3984-1.6363-0.8295-2.6587-0.8295zm54.326 0c-2.1812 0.4648-3.4078 1.196-3.4078 2.4575 0 1.0292 0.7513 1.7249 1.5692 2.1233l1.464 0.7645c0.95426 0.498 1.365 0.83181 1.365 1.529 0 0.76359-0.51278 1.3928-1.5011 1.3928-0.57937 0-1.1231-0.19867-1.5321-0.46427l-0.64998-1.529h-1.1916l0.34046 2.0614c0.51122 0.26559 1.7042 0.8295 2.863 0.8295 2.1471-0.4648 3.5099-1.0637 3.5099-2.7237 0-1.0292-0.50943-1.7246-1.7704-2.3554l-1.433-0.6995c-0.81795-0.39839-1.2938-0.76117-1.2938-1.3588 0-0.66399 0.71424-1.0647 1.43-1.0647 0.68163 0 1.2626 0.29967 1.433 0.39927l0.47665 1.2938h0.98736v-1.8261c-0.55-0.398-1.64-0.83-2.66-0.83zm-211.27 0.06809c-2.5561 0.5312-4.228 1.9907-4.228 4.6799 0 2.8884 2.0466 4.4477 4.3301 4.4477 1.1928-0.2988 2.3854-0.82926 3.2716-1.4269l-0.30642-0.69641c-0.7157 0.4316-1.6025 0.7645-2.3523 0.7645-1.9426 0-3.1013-1.4616-3.1013-3.5532v-0.03404h5.692v-0.7645c0-1.8924-0.81769-3.417-3.3056-3.417zm50.677 0c-2.5561 0.53119-4.2248 1.9907-4.2248 4.6799 0 2.8884 2.0435 4.4477 4.327 4.4477 1.1928-0.2988 2.3886-0.82926 3.2747-1.4269l-0.30951-0.69641c-0.71572 0.4316-1.5994 0.7645-2.3492 0.7645-1.9426 0-3.1013-1.4616-3.1013-3.5532v-0.03404h5.692v-0.7645c0-1.8924-0.82077-3.417-3.3087-3.417zm48.293 0c-2.8969 0.49799-4.5994 2.0233-4.5994 4.7789 0 2.4568 1.7029 4.3487 4.1908 4.3487 2.8969-0.4648 4.6025-2.0225 4.6025-4.7448 0-2.49-1.6719-4.3827-4.1939-4.3827zm30.877 0c-2.5561 0.53119-4.2249 1.9907-4.2249 4.6799 0 2.8884 2.0095 4.4477 4.293 4.4477 1.1928-0.2988 2.3886-0.82926 3.2747-1.4269l-0.30951-0.69641c-0.7157 0.4316-1.5994 0.7645-2.3492 0.7645-1.9426 0-3.1013-1.4616-3.1013-3.5532v-0.03404h5.726v-0.7645c0-1.8924-0.82077-3.417-3.3087-3.417zm18.199 0-3.4077 1.4919v1.3959h1.6033l0.30642-1.4609c0.40897-0.166 1.0209-0.33118 1.5321-0.33118 0.98839 0 1.0926 0.66246 1.0926 1.758v0.89759l-4.228 1.3619c-0.40897 0.56439-0.64688 1.029-0.64688 1.693 0 1.4608 1.159 2.3214 2.7608 2.3214l2.2502-1.5909 0.57878 1.3928 2.4204-0.46427-0.0682-0.63141h-0.91924c-0.17044-0.2988-0.30953-0.56508-0.30953-1.3619v-3.5842c0-2.2908-0.61352-2.8878-2.9651-2.8878zm21.233 0-3.3396 1.4919v1.3959h1.6033l0.3064-1.4609c0.40899-0.166 1.0209-0.33118 1.5321-0.33118 0.98839 0 1.0926 0.66246 1.0926 1.758v0.89759l-4.2279 1.3619c-0.40899 0.56439-0.6469 1.029-0.6469 1.693 0 1.4608 1.1591 2.3214 2.7609 2.3214l2.2161-1.5909 0.57879 1.3928 2.4204-0.46427-0.0682-0.63141h-0.95331c-0.17044-0.2988-0.30951-0.56507-0.30951-1.3619v-3.5842c0-2.2908-0.61354-2.8878-2.9651-2.8878zm-142.29 0.03095-2.7609 1.7611-0.10214-1.529-0.82021 0.0681-2.2471 0.56332 0.10213 0.63141 1.2938-0.09904v6.6731l-1.2938 0.16714 0.10214 0.62831 2.148-0.065 1.8045 0.09905 0.10214-0.63141-1.0214-0.16404v-5.4134l0.54474-0.36523c0.64755-0.43159 1.2962-0.8295 1.9438-0.8295 0.78387 0 1.2257 0.39908 1.2257 1.3619v5.2122l-0.9533 0.16714 0.10213 0.62831 1.8045-0.065 2.148 0.065 0.10214-0.62831-1.43-0.16714v-5.0791c0-2.1912-0.40923-2.9899-2.7949-2.9899zm206.4 0-2.7609 1.7611-0.10206-1.529-0.82021 0.0681-2.2471 0.56332 0.10206 0.63141 1.2938-0.09904v6.6731l-1.2938 0.16714 0.10221 0.62831 2.1449-0.065 1.7735 0.09905 0.10206-0.63141-1.0214-0.16404v-5.4134l0.5788-0.36523c0.64753-0.4316 1.2931-0.8295 1.9407-0.8295 0.78386 0 1.2288 0.39907 1.2288 1.3619v5.2122l-0.95332 0.16714 0.10221 0.62831 1.8045-0.065 2.148 0.065 0.10205-0.62831-1.433-0.16714v-5.0791c-0.00001-2.1912-0.40613-2.9899-2.7918-2.9899zm-173.03 0.06809-2.148 2.5566-0.0681-2.4235-0.74903 0.065-2.2502 0.56641 0.10206 0.62831 1.2938-0.09904v6.6731l-1.2938 0.16714 0.10221 0.63141 2.114-0.06809 2.7268 0.06809 0.10221-0.6995-1.9778-0.16404v-4.3487l0.37452-0.43332c0.51121-0.5976 1.3305-1.1942 1.7735-1.2938h1.3959v-1.8261h-1.498zm139.42 0.13308-0.91924 0.065-2.2502 0.46427 0.10221 0.6995 1.3309-0.10214v4.782c0 2.1248 0.40914 2.9868 2.8971 2.9868l2.7268-1.659 0.5107 1.495 2.4204-0.46427-0.0681-0.63141h-0.95639c-0.13629-0.2988-0.23834-0.56508-0.23834-1.3619v-6.2738l-0.9533 0.065-2.0799 0.46427 0.10222 0.6995 1.1266-0.10214v5.1472l-0.37452 0.23214c-0.7157 0.46479-1.4665 0.92854-2.0459 0.92854-0.92018 0-1.3309-0.39598-1.3309-1.3588v-6.0758zm-164.78 0.03095-0.9533 0.06809-2.2502 0.56332 0.10214 0.63141 1.2969-0.09905v6.6731l-1.2969 0.16714 0.10213 0.62831 2.148-0.065 2.148 0.065 0.10214-0.62831-1.399-0.16714v-7.8369zm1.5692 0-0.10214 0.63141 1.1576 0.20118 3.2716 8.0659 1.365-0.56332 3.0673-7.5026 1.1916-0.20118-0.10212-0.63141-1.5662 0.06811-1.6373-0.06809-0.10214 0.63141 0.85117 0.20118-2.2811 6.605-0.0712-1.2597-2.0428-5.3453 1.2257-0.20118-0.10214-0.63141-1.9747 0.06809-2.148-0.06809zm37.182 0-0.91926 0.06809-2.2502 0.56332 0.10222 0.63141 1.2938-0.09905v6.6731l-1.2938 0.16714 0.10205 0.62831 2.148-0.065 2.114 0.065 0.10221-0.62831-1.399-0.16714v-7.8369zm60.358 0-0.10205 0.66546 1.1576 0.19809 2.7268 3.6213-2.7609 3.318-1.3278 0.16714 0.10206 0.63141 1.9406-0.06809 1.4671 0.06809 0.10222-0.63141-0.91926-0.13308 1.9747-2.7887 0.13613 0.43022 1.6714 2.3585-0.78307 0.16714 0.10221 0.62831 1.7704-0.065 2.148 0.065 0.10205-0.62831-1.1576-0.16714-2.9311-4.0515 2.4854-2.9218 1.365-0.19809-0.10222-0.66546-1.9438 0.0681-1.464-0.0681-0.10206 0.66546 0.91926 0.19809-1.7735 2.4916-0.13613-0.46427-1.3959-2.0273 0.74903-0.19809-0.10221-0.66546-1.7704 0.0681-2.148-0.0681zm91.167 0-0.91926 0.06809-2.2502 0.56332 0.10206 0.63141 1.2938-0.09905v6.6731l-1.2938 0.16714 0.10205 0.62831 2.148-0.065 2.1109 0.065 0.10221-0.62831-1.3959-0.16714v-7.8369zm-225.65 0.63142c1.4655 0 1.7364 0.99816 1.7364 2.3925l-3.7482 0.16404c0.13634-1.5272 0.85309-2.5566 2.0118-2.5566zm50.711 0c1.4655 0 1.7395 0.99816 1.7395 2.3925l-3.7482 0.16404c0.13629-1.5272 0.85-2.5566 2.0088-2.5566zm48.225 0c1.6018 0 2.7609 1.5604 2.7609 3.8844 0 1.9588-0.78464 3.4542-2.2842 3.4542-1.67 0-2.7949-1.7588-2.7609-3.8504 0-1.992 0.75057-3.4882 2.2842-3.4882zm30.877 0c1.4655 0 1.7395 0.99816 1.7395 2.3925l-3.7482 0.16404c0.13629-1.5272 0.88405-2.5566 2.0087-2.5566zm19.769 3.5873v2.3894l-0.78307 0.53236c-0.23856 0.166-0.71756 0.46427-1.2288 0.46427-0.5453-0.000002-1.0895-0.33323-1.0895-1.2628 0-0.3984 0.1019-0.76199 0.37451-1.0276l2.7268-1.0957zm21.233 0v2.3894l-0.78307 0.53236c-0.23856 0.166-0.71755 0.46427-1.2288 0.46427-0.5453 0-1.0895-0.33323-1.0895-1.2628 0-0.3984 0.1019-0.762 0.37452-1.0276l2.7268-1.0957z" fill="#bf5700"/>
 </g>
</svg>
