<?xml version="1.0" encoding="UTF-8"?>
<!DOCTYPE svg PUBLIC "-//W3C//DTD SVG 1.1//EN" "http://www.w3.org/Graphics/SVG/1.1/DTD/svg11.dtd">
<!-- Creator: CorelDRAW X8 -->
<svg xmlns="http://www.w3.org/2000/svg" xml:space="preserve" width="21.1666mm" height="21.1666mm" version="1.1" style="shape-rendering:geometricPrecision; text-rendering:geometricPrecision; image-rendering:optimizeQuality; fill-rule:evenodd; clip-rule:evenodd"
viewBox="0 0 2117 2117"
 xmlns:xlink="http://www.w3.org/1999/xlink">
 <defs>
  <style type="text/css">
   <![CDATA[
    .fil0 {fill:#005CAA}
    .fil1 {fill:#005CAA;fill-rule:nonzero}
   ]]>
  </style>
 </defs>
 <g id="Layer_x0020_1">
  <metadata id="CorelCorpID_0Corel-Layer"/>
  <path class="fil0" d="M2074 1058c0,-561 -455,-1016 -1016,-1016 -561,0 -1016,455 -1016,1016 0,561 455,1016 1016,1016 561,0 1016,-455 1016,-1016zm-34 0c0,-542 -439,-982 -982,-982 -542,0 -982,440 -982,982 0,543 440,982 982,982 543,0 982,-439 982,-982z"/>
  <path class="fil0" d="M1187 605c-71,-18 -146,-31 -227,-35 36,8 115,79 129,100 8,12 -17,-34 -6,-49 11,-15 71,-20 104,-16z"/>
  <path class="fil0" d="M1054 1385l11 0 27 0c-20,-95 162,-56 229,-48 91,11 134,6 158,7 0,0 0,2 -13,-7 -14,-10 -29,-30 -29,-30 -87,-1 -133,-9 -209,-38 -41,-15 -147,-35 -167,58l-3 0c-20,-93 -126,-73 -167,-58 -76,29 -122,37 -209,38 0,0 -15,20 -28,30 -14,9 -14,7 -14,7 24,-1 67,4 158,-7 67,-8 249,-47 229,48l27 0z"/>
  <path class="fil0" d="M1385 1274c53,-110 92,-262 25,-404 -61,-129 -202,-198 -278,-223 10,5 17,9 34,19 34,25 60,60 71,101 1,4 2,8 2,12 3,13 4,26 4,39 0,3 0,5 0,7 1,65 -17,137 -59,199 -96,146 -287,224 -333,248 121,-34 290,-147 344,-237 58,-87 70,-198 54,-273 64,118 63,295 -151,493 60,-36 159,-149 186,-248 37,-127 -5,-234 -54,-292 52,55 120,160 118,262 1,55 -36,193 -97,286 53,-75 112,-178 112,-295 0,-109 -73,-216 -132,-266 61,39 134,101 174,192 62,143 6,299 -20,380z"/>
  <path class="fil1" d="M719 910l0 109 -27 0 0 -71c-4,3 -8,6 -13,9 -4,2 -9,4 -15,6l0 -24c9,-3 16,-7 21,-12 5,-4 9,-10 12,-17l22 0z"/>
  <path id="_1" class="fil1" d="M758 995l26 -4c1,4 2,7 3,9 2,2 4,2 6,2 5,0 8,-2 10,-7 2,-3 4,-11 4,-22 -3,3 -6,6 -9,8 -4,1 -8,2 -12,2 -9,0 -16,-3 -22,-10 -5,-7 -8,-15 -8,-26 0,-7 1,-13 4,-19 3,-6 7,-10 12,-13 6,-3 12,-5 20,-5 10,0 17,2 23,6 6,4 11,9 14,17 3,8 5,19 5,32 0,19 -4,33 -11,42 -7,9 -17,13 -30,13 -7,0 -13,-1 -18,-2 -4,-2 -8,-5 -11,-9 -3,-4 -5,-8 -6,-14zm48 -48c0,-5 -1,-10 -3,-13 -3,-3 -6,-5 -10,-5 -3,0 -6,1 -9,4 -2,3 -3,8 -3,14 0,6 1,10 3,13 3,3 6,5 9,5 4,0 7,-1 10,-5 2,-3 3,-7 3,-13z"/>
  <path id="_2" class="fil1" d="M865 912l63 0 0 24 -43 0 -2 16c3,-2 6,-3 9,-4 2,0 5,-1 8,-1 10,0 17,3 23,10 6,6 9,14 9,24 0,7 -1,14 -4,20 -3,6 -8,11 -13,14 -6,4 -13,5 -22,5 -6,0 -12,0 -16,-2 -5,-1 -8,-3 -11,-6 -4,-2 -6,-5 -8,-9 -2,-3 -4,-7 -5,-12l27 -3c0,5 2,8 4,11 3,2 5,4 9,4 4,0 7,-2 9,-5 2,-3 4,-8 4,-14 0,-7 -2,-11 -4,-14 -2,-3 -6,-5 -10,-5 -2,0 -5,1 -7,3 -2,1 -4,2 -6,5l-23 -4 9 -57z"/>
  <path id="_3" class="fil1" d="M968 961c-4,-2 -8,-5 -9,-8 -3,-4 -4,-9 -4,-14 0,-9 3,-16 11,-22 6,-4 14,-7 23,-7 13,0 22,3 28,9 7,5 10,12 10,20 0,5 -2,9 -4,13 -2,4 -5,6 -9,9 5,3 9,7 12,11 2,5 4,10 4,16 0,5 -1,10 -4,14 -2,5 -5,9 -8,11 -3,3 -7,5 -12,6 -4,1 -9,1 -15,1 -10,0 -18,-1 -23,-3 -5,-3 -9,-7 -12,-12 -3,-5 -4,-11 -4,-18 0,-6 1,-11 4,-15 2,-5 6,-8 12,-11zm12 -20c0,3 1,6 3,8 2,3 4,4 8,4 3,0 5,-1 7,-3 2,-3 3,-6 3,-9 0,-4 -1,-7 -3,-9 -2,-2 -4,-4 -8,-4 -3,0 -5,2 -7,4 -2,2 -3,5 -3,9zm-2 45c0,5 1,9 4,12 2,3 5,4 9,4 3,0 6,-1 8,-4 3,-3 4,-7 4,-12 0,-4 -1,-8 -4,-11 -2,-3 -5,-5 -9,-5 -3,0 -6,2 -8,5 -3,2 -4,6 -4,11z"/>
  <path class="fil0" d="M1058 519c298,0 539,242 539,539 0,298 -241,539 -539,539 -297,0 -539,-241 -539,-539 0,-297 242,-539 539,-539zm0 22c286,0 518,232 518,517 0,286 -232,518 -518,518 -285,0 -517,-232 -517,-518 0,-285 232,-517 517,-517z"/>
  <path class="fil1" d="M197 705c15,-15 28,-23 38,-22l20 11 10 -37c6,-11 12,-17 16,-16l6 4c5,11 8,22 11,33l2 19c4,-10 10,-17 19,-22l5 0c6,3 6,11 2,26 -1,5 1,18 6,40 18,10 29,19 33,27 10,7 15,11 16,13 -2,4 -10,4 -25,0 -4,0 -14,-1 -28,-4 -2,8 -8,12 -17,10 -6,12 -19,18 -39,20l-24 -5c-11,-5 -15,-9 -13,-15 5,-6 10,-9 14,-10 -3,-9 -4,-23 -3,-41l-2 -2c-34,-14 -50,-23 -47,-29zm86 7l3 1c4,3 6,4 7,3 -3,-20 -7,-35 -13,-45l-1 -1c-5,14 -7,26 -6,35l10 7zm-6 60c16,4 25,5 26,2l1 -1 -5 -12 0 0 -6 -3 -5 -2 -4 -3 -6 -2 -7 -4 0 0c-2,5 0,14 6,25zm102 -364c12,-10 22,-15 32,-15 15,5 30,15 47,30l13 13 30 25 21 18c8,7 12,16 11,25 -2,12 -6,22 -14,31l-27 11 -6 14 0 0 -14 21c-4,4 -10,6 -18,6l0 1c3,4 3,8 1,10 -6,4 -13,2 -23,-5 -11,-16 -22,-29 -34,-38l-31 -21c-15,-17 -20,-27 -17,-30 -3,-13 -3,-24 1,-33 2,-20 12,-41 28,-63zm5 100c-2,-18 1,-31 9,-41 8,-6 14,-7 15,-5 7,4 13,11 17,22 3,-2 6,-4 10,-6 2,0 5,0 8,-3l2 -1c12,-10 20,-13 24,-10l2 0 2 1c4,8 5,17 3,25 0,22 -5,41 -15,56l-2 3c-5,2 -9,2 -14,-1l-1 0c-4,-4 -6,-11 -8,-21l0 0 -4 5 -1 1c-5,3 -11,3 -18,0 -5,-4 -5,-15 1,-34l-7 -11 -1 -1c-11,20 -14,32 -11,35 4,3 8,9 14,17l2 4 4 4 19 15 9 11c6,5 12,4 20,-4 10,-14 14,-22 13,-24l-8 0 -2 -2 2 -2 15 -7 9 -17 1 0 0 0 1 6 8 -8c6,-13 7,-22 2,-28 -2,-2 -6,-7 -14,-14l-8 -8 -6 -5 -15 -11 -18 -16 -40 -23c-4,-1 -8,1 -11,4l-7 8c-12,13 -17,29 -16,46 -2,17 3,30 15,40zm49 -5l1 2 -1 -5 -4 -5c1,4 2,6 4,8zm10 -23l8 7 5 7 2 -6c0,-4 -1,-7 -3,-9 -4,-1 -7,-1 -9,-1l-3 2zm-25 42l2 2 2 0 0 0c1,-3 1,-7 -1,-11l-2 -1 -1 3 0 7zm224 -319c5,-2 13,1 24,7 6,4 11,11 15,18l6 9c13,6 23,11 29,16 14,1 21,3 22,5 3,4 -1,11 -14,20 -7,8 -9,14 -7,18l4 13 1 8c3,7 7,20 10,39l6 20 2 4 0 3 -1 1c-12,-4 -25,-18 -39,-42l-6 -11 -3 -3c-1,5 -10,14 -26,27 -5,2 -10,3 -13,2l-2 -2 -2 -3 -1 -2 -2 -5c-1,-3 0,-8 4,-14 4,-20 6,-33 5,-39l-9 -7c-3,10 -5,23 -6,38 -1,17 -1,26 0,27l2 5c5,10 12,19 19,27 1,4 2,7 1,7l-2 1c-10,0 -18,-6 -25,-18l-1 0 -2 3c0,2 -3,9 -9,20 -2,5 -7,9 -15,13 -5,-1 -10,-4 -14,-9l-1 -4c-2,-4 -1,-16 4,-35l4 -26 -1 -2c-9,13 -16,20 -19,22 -4,3 -8,1 -10,-3 -3,-5 -1,-13 4,-23l7 -25 5 -25c1,-6 1,-14 -2,-23l4 -10c5,-4 10,-4 16,2l1 0c1,8 0,16 -2,25 -5,13 -9,25 -12,37l-11 28 1 0 2 -1c3,-4 12,-13 26,-27 -2,-10 -2,-21 2,-33 0,-1 1,-2 3,-3 5,-3 14,-1 28,6 0,-6 0,-11 -3,-16l-1 0 -1 1 -1 1c-1,0 -2,0 -3,-2 -2,-11 0,-18 7,-21 4,1 9,3 13,7l2 -1 -1 -4 -4 -9 -3 -8 -6 -18 1 -6zm-22 96l0 1 2 -1c2,-4 3,-7 3,-11l-2 -3 -2 1c-1,2 -1,6 -1,13zm39 -25c2,1 3,1 5,2 1,1 1,-1 -2,-7l-2 -3 -1 1c-1,2 -1,4 0,7zm-31 57c1,-1 3,-8 7,-24l1 -5 1 -6 -6 5c-6,5 -8,10 -7,14 1,5 3,10 4,16zm73 -65l2 5 0 1 1 -1 1 2c0,-2 0,-4 -1,-6 -1,-2 -2,-2 -2,-2l-1 1zm-95 58l1 1 5 -2 1 0 -1 -4 -1 1 -5 4zm64 -6l1 -2c5,-5 7,-9 7,-11l-1 -3 -4 -1c-2,8 -3,13 -3,17zm-56 51l2 0 1 0c5,-11 7,-18 5,-21l-3 -6 -5 27zm246 -238l1 0c2,0 5,4 11,14 3,2 5,6 6,12l3 2c1,9 0,15 -3,17 -6,1 -12,-3 -19,-13l-4 -8 -1 -20c2,-2 4,-3 6,-4zm84 -4c13,-3 22,1 25,10 -2,4 -9,8 -20,12l-14 11 0 1c12,2 22,7 31,16 5,7 7,13 8,17 -1,12 -5,19 -14,21l-17 5c1,10 -1,19 -6,27 1,6 2,9 4,8l8 -3 0 -1 -5 -3 5 -1c20,0 30,3 32,10l0 1c0,6 -3,10 -9,11l-12 -2 -10 0 3 16c1,8 -4,15 -15,22l-19 1 -23 -8 0 -2c22,-3 36,-10 40,-19l-1 -3 -2 1 -14 4c-19,4 -29,3 -30,-3l-1 0c0,-3 10,-7 31,-11 2,-1 5,-3 9,-5l-3 -3 -4 -6c-1,-3 1,-8 5,-17l1 -9 -3 -3 -2 1c-3,1 -9,6 -17,17 -1,0 -3,-1 -4,-4 1,-16 4,-25 10,-26l4 -2 4 -1 4 1c2,-1 5,1 11,5l20 -15c1,-6 2,-9 2,-11 -2,-7 -9,-12 -23,-15 -9,3 -21,15 -37,38 -10,9 -15,22 -17,41l-3 9c-10,1 -19,-5 -26,-20 0,-8 6,-19 20,-35 27,-28 45,-44 53,-48l0 -1c-9,-1 -16,-2 -21,-6 -3,1 -5,0 -5,-3l6 -3 12 -1c11,-5 21,-10 29,-16zm-15 23l1 0c5,-3 8,-6 8,-9l-1 -1c-2,2 -5,5 -8,10zm307 -17c10,4 14,11 12,21l-1 5c-2,2 4,7 16,14 7,-1 11,2 15,7l-1 5c-8,5 -24,13 -48,23 -2,0 -4,3 -5,9 13,2 21,9 22,19l-2 15c-2,8 -4,15 -6,20 20,14 29,25 26,36 -5,6 -10,10 -16,11 -3,-1 -10,-7 -20,-17l-6 -7c-7,4 -20,5 -39,3 -7,0 -14,-7 -21,-19l-1 0 0 1 1 23 -2 3 -5 0c-3,-3 -8,-11 -13,-25 -5,-11 -9,-17 -11,-17 -4,1 -11,2 -21,0 -12,-4 -18,-10 -17,-18l13 -11 0 -2 0 -1c1,-5 4,-7 8,-6l6 2c10,2 23,-1 40,-9l14 -39 -13 1c-7,-2 -12,-5 -14,-8 1,-7 6,-9 13,-7l15 0c4,0 7,-2 10,-7 4,-6 7,-11 9,-14 5,-7 10,-10 15,-12 5,1 8,4 11,9l-3 7c-5,7 -11,15 -17,25 -5,9 -11,20 -17,33l-2 5 1 -1 12 -8 -2 -3c0,-3 8,-5 22,-6 8,-24 13,-39 15,-43 1,-4 0,-7 -1,-11l0 -3c1,-3 4,-4 8,-3zm9 31l-12 26c14,-3 22,-6 23,-8 -2,-7 -5,-13 -10,-17l-1 -1zm-48 42c-5,9 -14,20 -27,32 -2,3 -3,7 -4,12l-3 17c7,11 15,18 23,19 11,-1 19,-3 23,-7l-8 -12 -17 -17 7 -2c14,5 25,10 31,15l7 -14c1,-10 1,-15 -1,-15l-3 0c-2,1 -6,4 -10,10l-2 -1c-5,0 -7,-8 -6,-23l4 -10 -1 -1 -6 1 -3 -1 -4 -3zm-52 53l1 3 1 1 -1 -3 0 -2 1 -1 -2 2zm396 -7c12,12 20,24 24,34l-1 0 -1 2 0 1c-3,6 -9,8 -18,9 -8,-5 -13,-10 -12,-16 -1,-2 -2,-8 -1,-17l0 -8 1 -4c1,-2 4,-2 8,-1zm-32 -15c6,3 3,15 -6,34l-1 2 -2 3c-4,4 -8,11 -15,21l0 1 1 0c12,1 19,0 21,-1l1 -12 1 -1 1 1c2,4 5,8 10,12l5 1c5,5 7,8 6,11 -2,3 -9,4 -21,2l-19 0c-5,1 -11,1 -18,1l-18 25c4,2 11,2 19,-1l3 2c7,9 9,17 6,22 -4,11 -5,17 -3,18 0,4 0,9 0,15 -4,8 -11,10 -23,6 -11,-6 -14,-14 -9,-24 4,-15 4,-24 0,-26l0 0 -12 19 -12 25c-2,3 -4,4 -5,4l-1 -1c-4,-4 -5,-12 -5,-24l4 -10 13 -18 -1 0c-17,3 -27,6 -30,10 -16,10 -25,14 -29,10 -7,-10 -8,-19 -2,-29 8,-14 30,-22 68,-26l5 1 4 7 0 6 6 -9 3 -4 0 0 -1 -1 -15 -4c-5,-2 -7,-10 -6,-23 2,-3 4,-4 7,-4l7 7c5,3 12,5 21,7l33 -44 2 -5c3,-5 5,-7 7,-6zm-92 96l1 1 16 2 3 -5c2,-7 3,-11 1,-12 -5,2 -12,6 -21,14zm310 96c7,8 -1,21 -22,39l-18 13 21 13 1 0c3,-3 4,-9 5,-19l3 2c2,11 8,23 18,36 1,5 -1,8 -4,10 -3,3 -12,0 -25,-8 -26,-15 -40,-21 -43,-19 -17,11 -36,16 -59,15l-9 -3c-6,-7 -9,-14 -8,-22l2 -3c6,-1 13,1 21,7 3,3 12,3 28,0l11 -5 -1 -1 -15 -13c-5,-8 -6,-19 -1,-32l0 -1 2 -2c1,-1 3,0 6,1 3,10 6,17 9,19 11,13 20,17 25,13l20 -15 2 -2c9,-9 14,-17 15,-23l2 -4c4,-3 9,-2 14,4zm-67 96c5,14 6,30 2,48l-4 6c-6,5 -15,4 -28,-3 -5,-5 -2,-14 7,-28 5,-10 5,-19 3,-26l-1 -1 1 -1c10,-1 17,1 20,5zm229 133l1 1c0,2 -3,6 -12,13 -1,4 -4,7 -10,9l-1 3c-9,3 -15,4 -18,1 -2,-5 1,-13 9,-22l7 -5 19 -5c3,1 4,3 5,5zm22 81c5,13 4,22 -4,27 -5,-1 -11,-7 -17,-17l-13 -11 -1 0c0,11 -3,23 -9,34 -6,6 -12,9 -15,11 -13,1 -20,-2 -23,-9l-10 -16c-9,2 -18,2 -27,-1 -5,3 -8,5 -7,6l5 7 0 0 3 -5 2 4c4,19 3,31 -4,33l-1 1c-6,1 -10,-1 -12,-7l0 -12 -3 -10 -15 7c-7,2 -15,-1 -24,-11l-5 -18 3 -24 1 -1c8,21 17,33 27,36l3 -1 -1 -3 -7 -12c-7,-18 -8,-28 -3,-30l0 -1c3,-1 9,8 17,28 1,1 3,4 6,8l3 -4 5 -5c2,-2 8,-1 17,1l9 -1 3 -4 -2 -1c-1,-3 -8,-8 -20,-14 0,-1 1,-2 3,-5 16,-1 26,0 28,6l2 2 2 5 1 3c0,2 -1,6 -3,12l19 16c5,1 9,1 10,0 8,-3 11,-11 10,-25 -4,-8 -19,-18 -44,-29 -11,-7 -25,-10 -43,-7l-10 -2c-4,-10 1,-19 14,-29 7,-2 20,2 38,12 33,21 53,35 58,42l1 0c-1,-9 -1,-16 1,-22 -1,-3 0,-5 3,-6l4 6 4 11c6,10 14,19 21,25zm-26 -10l1 1c4,5 7,7 10,7l0 -1c-2,-2 -5,-4 -11,-7z"/>
  <path class="fil1" d="M245 1066l3 0c1,7 1,13 1,16 1,4 1,9 2,16l-3 1 -1 -4c0,-4 -1,-6 -2,-7 -2,0 -8,0 -18,1l-22 2c-8,0 -13,1 -16,2 -3,1 -6,4 -7,8 -2,3 -3,8 -2,14 0,7 2,12 4,16 2,3 5,5 8,6 4,1 10,1 19,0l21 -1c10,-1 15,-2 16,-3 2,-1 2,-4 2,-7l0 -3 3 -1c0,8 1,13 1,15 0,3 0,7 1,12l-3 1 -1 -4c0,-3 -1,-5 -2,-6 -2,0 -8,0 -17,1l-20 1c-10,1 -16,1 -20,0 -3,0 -6,-2 -9,-4 -3,-2 -5,-5 -7,-9 -2,-4 -3,-9 -3,-15 -1,-6 -1,-11 0,-15 1,-5 3,-8 5,-10 2,-3 4,-5 7,-6 3,-1 7,-2 14,-2l11 -1 17 -1c10,-1 16,-2 17,-3 1,-1 1,-3 1,-6l0 -4z"/>
  <path id="_1_0" class="fil1" d="M223 1176l9 7c1,1 1,2 2,3 1,2 2,5 2,7 1,4 1,7 0,11 -1,3 -3,5 -5,7 -3,1 -6,3 -12,4l-17 2c-6,1 -9,2 -10,3 -1,1 -1,2 -1,4l1 4 -3 1c-1,-4 -1,-8 -2,-10 0,-3 -1,-6 -2,-9 7,-1 17,-2 29,-4 5,-1 8,-2 10,-3 2,-2 3,-3 4,-5 1,-3 1,-5 1,-8 -1,-4 -2,-6 -4,-9 -3,-2 -5,-3 -7,-3 -1,0 -5,0 -11,1 -7,1 -13,3 -18,4 -2,0 -3,0 -4,1 0,1 0,3 0,5l1 3 -4 1c0,-6 -1,-11 -2,-15 0,-3 -1,-8 -2,-13l3 0 1 4c0,2 1,4 2,4 1,0 9,-1 23,-3 6,-1 11,-2 14,-3 1,0 2,-1 3,-1 0,-1 0,-2 -1,-5l0 -4 3 0c1,3 2,6 3,8 1,2 2,5 4,8 0,0 0,0 0,1 1,0 0,1 -1,1l-2 0 -7 1z"/>
  <path id="_2_1" class="fil1" d="M270 1233c0,1 0,3 -1,4 -1,2 -3,3 -4,3 -2,1 -3,0 -5,-1 -1,-1 -2,-2 -3,-3 0,-2 0,-4 1,-5 1,-2 2,-3 4,-3 2,0 3,0 5,1 1,1 2,2 3,4zm-23 10l-1 1c-2,0 -5,1 -9,2 -10,2 -18,4 -23,5 -4,1 -8,2 -12,3 -1,0 -2,1 -2,2 0,0 0,2 0,4l0 4 -3 0c-1,-5 -2,-10 -3,-14 -1,-4 -2,-9 -3,-13l3 0 1 4c1,2 2,3 2,3 1,0 3,0 6,0 4,-1 10,-3 18,-5 6,-1 10,-2 13,-3 1,0 2,-1 2,-1 0,-1 0,-2 0,-4l-1 -4 3 -1c2,4 3,7 4,9 1,2 3,5 5,8z"/>
  <path id="_3_2" class="fil1" d="M257 1298l3 -1c0,3 1,7 2,10 1,3 2,6 3,10l-3 1 0 -2c0,0 -1,-1 -1,-2 -1,0 -1,-1 -2,-1 0,0 -3,-1 -8,-2 -9,-1 -17,-3 -22,-4 -5,0 -13,-1 -22,-2l-1 -6c10,-8 20,-16 30,-24 3,-2 6,-4 7,-5 2,-2 3,-3 4,-4 0,-1 0,-3 0,-4l-1 -2 3 -1c2,6 3,10 4,13 1,4 2,8 3,13l-3 0 0 -2c-1,-2 -2,-3 -2,-4 -1,-1 -1,-1 -2,-1 -1,0 -2,1 -4,2 -1,1 -11,9 -28,22l25 3c6,1 10,1 13,1 0,0 1,0 1,0 1,0 1,-1 1,-1 1,-1 0,-2 0,-4l0 -3z"/>
  <path id="_4" class="fil1" d="M248 1342c-6,3 -11,7 -13,11 -2,5 -2,10 0,15 1,3 2,5 4,7 2,2 4,4 6,6l0 1 -5 0c-3,-2 -5,-5 -7,-7 -2,-3 -4,-6 -5,-9 -3,-7 -3,-14 0,-20 2,-6 7,-10 15,-13 6,-3 11,-3 16,-3 4,1 7,3 11,6 4,3 7,7 9,11 2,6 2,12 0,17 -2,5 -6,8 -13,11l-3 1c-1,-2 -2,-4 -3,-6 -2,-4 -4,-9 -7,-15l-5 -13zm4 -1c2,5 4,11 7,17 1,3 2,5 3,8l3 -1c3,-2 5,-3 8,-6 1,-1 2,-3 2,-5 1,-3 0,-5 -1,-8 -1,-3 -4,-6 -8,-7 -3,-1 -8,-1 -14,2z"/>
  <path id="_5" class="fil1" d="M286 1397c2,1 4,2 7,3 3,0 6,1 7,3 2,1 3,2 4,4 1,2 1,3 1,5 0,0 0,1 0,1l-1 0c-3,1 -7,2 -12,4l-1 -2c2,-2 2,-3 3,-4 0,-2 0,-3 -1,-5 -1,-2 -2,-3 -5,-4 -2,-1 -4,-2 -7,-1 -2,0 -7,2 -14,5 -5,2 -9,4 -12,6 -1,1 -1,2 -2,2 0,2 1,4 2,6l1 3 -3 2c-2,-6 -4,-10 -6,-15 -2,-5 -4,-9 -6,-13l3 -2 2 5c1,2 2,3 3,3 1,0 2,0 5,-1 5,-2 11,-5 18,-8 8,-3 12,-6 13,-7 1,-1 1,-3 0,-5l-2 -4 3 -1c2,3 3,5 5,8 2,2 4,4 5,5 1,1 1,1 1,1 0,1 0,1 0,1 0,1 0,1 -1,1l-10 4z"/>
  <path id="_6" class="fil1" d="M280 1441l-3 1c-2,2 -4,3 -4,3 -1,2 -1,4 -1,7 0,3 1,6 3,8 1,4 4,6 6,7 3,1 6,1 9,0 2,-1 3,-2 4,-4 0,-2 0,-5 -1,-9 -2,-7 -3,-12 -3,-15 -1,-2 0,-4 1,-6 1,-2 3,-4 5,-5 5,-2 9,-2 13,-1 5,2 8,6 11,12 3,4 4,9 4,15 -2,1 -6,2 -11,5l-2 -3c3,-1 5,-3 6,-4 0,-1 1,-3 1,-6 0,-2 -1,-5 -2,-7 -1,-3 -3,-5 -6,-6 -2,-1 -5,-1 -7,0 -2,2 -3,3 -4,5 0,2 1,7 3,14 1,5 2,9 2,11 0,1 -1,3 -2,5 -1,2 -3,3 -5,4 -5,3 -10,3 -15,1 -5,-3 -9,-7 -12,-13 -2,-4 -4,-9 -5,-15 0,-1 0,-1 0,-2l1 0c1,0 1,0 3,-1 3,-1 6,-2 7,-3l3 -1 1 3z"/>
  <path id="_7" class="fil1" d="M362 1464c1,2 1,3 1,5 0,1 -1,3 -3,4 -1,0 -3,1 -5,0 -1,0 -3,-1 -3,-3 -1,-1 -2,-3 -1,-4 0,-2 1,-3 3,-4 1,-1 3,-1 5,-1 1,1 3,2 3,3zm-19 16l0 2c-2,1 -5,2 -8,4 -9,5 -16,9 -21,11 -4,2 -7,5 -10,7 -1,0 -2,1 -2,2 0,1 0,2 1,4l1 3 -2 2c-3,-5 -5,-9 -7,-13 -2,-4 -5,-8 -7,-11l3 -2 3 4c1,1 1,2 2,2 1,1 2,0 5,-2 4,-2 10,-5 17,-9 5,-3 9,-5 11,-6 1,-1 2,-2 2,-3 0,0 0,-2 -1,-3l-2 -4 3 -1c2,3 4,6 6,7 1,2 4,4 6,6z"/>
  <path id="_8" class="fil1" d="M354 1515l-18 12c-5,3 -8,5 -9,6 -1,1 -2,3 -2,4 0,1 0,3 1,4 1,1 2,2 2,3 1,0 2,1 4,1l-1 3 -8 -2c-1,0 -2,-1 -3,-2 -1,-1 -1,-2 -2,-2 -1,-3 -2,-5 -2,-7 -1,-2 0,-4 1,-5 0,-2 2,-4 5,-5l9 -6 17 -11c-1,-3 -3,-5 -5,-8l2 -1c3,2 6,4 8,5 5,-2 10,-6 15,-9 3,3 6,4 8,5l0 2c-3,1 -8,5 -18,10 3,4 5,7 6,10l3 3 -5 3 -1 -2 -6 -9 -1 -2z"/>
  <path id="_9" class="fil1" d="M308 1578l8 -3 1 1c0,1 0,3 0,4 0,1 0,2 1,3 1,2 3,3 6,3 3,0 10,-2 20,-5 2,-4 7,-12 13,-23l7 -12 5 -9c2,-3 2,-6 0,-8l-1 -2 2 -2c2,4 5,6 6,9 2,1 5,6 10,12l-2 2 -2 -3c-1,-1 -2,-2 -3,-2 -1,0 -1,0 -2,0 0,1 -1,2 -2,3 -6,10 -12,20 -18,31 12,-3 22,-6 32,-9 3,-1 5,-2 5,-2 1,-1 1,-2 0,-5l-2 -3 2 -2c3,3 5,6 7,9 2,3 4,5 7,7l-3 2 -1 -1c-1,-1 -2,-1 -2,-2 -1,0 -2,0 -3,0 -3,0 -10,2 -23,5 -4,1 -14,4 -29,8 -14,4 -21,6 -23,6 -2,1 -5,0 -7,-1 -3,-1 -5,-2 -7,-4 0,-1 -1,-2 -1,-3 -1,-1 -1,-2 -1,-4z"/>
  <path id="_10" class="fil1" d="M427 1635c4,-4 8,-6 12,-7 5,-2 10,-1 14,0 5,2 9,4 13,8 5,6 8,12 7,19 0,6 -3,12 -8,18 -7,6 -14,9 -22,8 -7,-1 -14,-4 -19,-9 -5,-6 -7,-12 -7,-19 0,-6 4,-13 10,-18zm10 4c-6,6 -9,11 -11,17 -2,6 -1,11 3,16 3,3 7,4 11,4 5,0 9,-3 14,-8 4,-4 7,-7 9,-11 2,-4 3,-8 2,-11 0,-3 -2,-6 -4,-9 -2,-2 -4,-3 -7,-4 -2,-1 -5,0 -8,0 -3,2 -6,4 -9,6z"/>
  <path id="_11" class="fil1" d="M497 1678l-15 16c-6,8 -10,13 -10,14 -1,1 0,3 3,5l3 3 -2 3c-4,-5 -7,-8 -9,-9l-14 -11 3 -3 2 3c2,1 4,2 5,2 2,-1 6,-5 13,-13l14 -16 -7 -5 2 -2c3,1 5,2 8,3l5 -6c2,-2 5,-4 7,-5 2,-1 5,-2 9,-2 6,-1 10,-1 13,-1 1,1 3,2 4,3 1,1 3,2 4,4 -2,1 -3,2 -4,3 0,1 -1,2 -3,4l-1 -1c0,-3 -2,-5 -4,-7 -2,-2 -4,-2 -7,-2 -2,1 -6,4 -11,11l-5 5c5,4 8,7 11,9l0 1 -4 3 -5 -4c-1,-1 -3,-3 -5,-5z"/>
  <path id="_12" class="fil1" d="M611 1727c-3,3 -6,6 -10,12l-3 -3 3 -3c1,-3 2,-5 2,-6 0,-1 -1,-3 -3,-6 -2,-3 -4,-5 -7,-7 -5,-4 -10,-5 -14,-5 -5,1 -8,3 -11,7 -2,2 -3,5 -3,7 0,3 1,5 2,7 2,2 5,6 11,11 6,5 9,9 11,11 1,3 2,5 2,9 -1,3 -2,6 -4,9 -4,6 -10,9 -18,10 -9,1 -17,-2 -25,-8 -3,-2 -6,-4 -8,-7 -3,-2 -5,-5 -7,-9 3,-3 6,-7 10,-13l3 2 -1 3c-2,2 -3,4 -4,5 0,1 0,2 1,4 1,2 2,5 4,7 2,2 4,4 7,6 5,4 11,6 16,5 5,0 9,-3 11,-7 2,-2 3,-4 3,-7 0,-2 0,-5 -2,-7 -1,-2 -4,-5 -9,-9 -6,-5 -10,-10 -12,-12 -2,-3 -2,-6 -2,-9 0,-4 2,-7 4,-11 4,-6 10,-9 16,-10 7,0 14,2 22,7 3,2 6,5 8,8 3,2 5,6 7,9z"/>
  <path id="_13" class="fil1" d="M621 1810l0 2 -3 2c-3,0 -6,0 -8,-1 -3,-1 -6,-2 -8,-3 -5,-3 -8,-6 -10,-9 -3,-4 -4,-8 -4,-13 1,-4 2,-9 5,-13 2,-4 5,-8 8,-10 3,-2 6,-3 10,-4 3,0 7,0 12,0 3,1 6,2 10,4 2,1 4,2 5,4 2,1 4,3 5,5 -3,4 -6,8 -9,12l-2 -1 1 -3c1,-2 1,-4 1,-5 0,-1 -1,-3 -2,-5 -2,-2 -4,-3 -6,-5 -5,-2 -9,-3 -13,-2 -3,2 -7,5 -10,10 -4,7 -5,13 -4,20 1,5 4,9 9,12 2,1 4,2 6,2 2,1 5,1 7,1z"/>
  <path id="_14" class="fil1" d="M677 1761c2,1 2,2 3,4 1,2 0,3 0,5 -1,1 -2,2 -4,3 -2,0 -3,0 -5,-1 -1,0 -2,-2 -3,-3 0,-2 0,-4 1,-5 0,-2 2,-3 3,-3 2,-1 4,-1 5,0zm-7 24l1 1c-2,3 -4,5 -5,8 -5,10 -9,17 -11,21 -3,5 -4,8 -6,11 0,2 0,3 0,3 0,1 1,2 3,3l3 2 -1 3c-5,-2 -9,-5 -13,-7 -4,-2 -8,-4 -12,-6l1 -2 5 1c2,1 3,1 3,1 1,0 2,-2 4,-4 2,-4 5,-10 9,-18 2,-5 4,-8 6,-11 0,-1 0,-2 0,-3 0,-1 -1,-2 -3,-2l-4 -2 2 -3c4,1 7,2 9,3 2,0 5,1 9,1z"/>
  <path id="_15" class="fil1" d="M684 1822c-3,7 -3,13 -2,18 2,5 5,8 11,11 2,1 4,2 7,2 3,0 5,0 8,-1l1 2 -4 3c-3,0 -7,0 -10,0 -3,-1 -6,-2 -9,-3 -7,-3 -12,-8 -14,-14 -2,-7 -1,-13 2,-21 3,-5 6,-10 10,-13 3,-2 7,-3 12,-3 5,-1 10,0 14,2 6,3 9,6 11,11 2,6 2,11 -1,18l-2 3c-2,-1 -4,-2 -6,-2 -4,-2 -9,-4 -15,-7l-13 -6zm2 -3c5,2 11,5 17,8 2,1 5,2 7,3l2 -3c1,-3 2,-6 2,-9 0,-2 -1,-4 -2,-6 -2,-2 -3,-3 -6,-5 -4,-1 -7,-1 -11,0 -3,2 -6,6 -9,12z"/>
  <path id="_16" class="fil1" d="M747 1832l10 -4c2,-1 3,-1 4,-1 2,0 5,0 7,1 4,1 7,3 9,6 2,2 4,5 4,8 0,2 0,6 -2,12l-6 16c-2,6 -3,9 -2,10 0,1 1,2 3,3l4 1 -1 3c-4,-1 -7,-2 -10,-3 -3,-1 -5,-2 -8,-3 3,-6 6,-15 10,-27 1,-5 2,-8 2,-10 0,-3 -1,-5 -3,-6 -1,-2 -3,-4 -6,-5 -3,-1 -7,-1 -10,0 -2,1 -5,2 -6,4 -1,2 -2,5 -4,11 -2,6 -4,12 -6,18 0,1 0,2 0,3 1,1 2,2 4,3l4 1 -1 3c-6,-2 -11,-4 -14,-5 -4,-1 -8,-3 -13,-4l1 -3 4 1c2,1 4,1 5,0 1,-1 3,-8 8,-22 2,-6 3,-10 4,-14 1,-1 1,-2 0,-2 0,-1 -1,-2 -4,-2l-3 -2 1 -3c3,1 6,1 8,2 3,0 6,0 9,0 0,0 1,0 1,0 0,0 1,0 0,1l0 2 -3 7z"/>
  <path id="_17" class="fil1" d="M827 1894l1 2 -3 3c-3,0 -5,1 -8,1 -3,0 -6,-1 -8,-1 -5,-2 -9,-4 -13,-7 -3,-3 -5,-7 -5,-11 -1,-5 -1,-9 0,-15 2,-4 4,-8 6,-11 3,-3 5,-5 9,-6 3,-1 7,-2 12,-3 3,0 6,0 10,1 2,1 5,2 7,3 1,1 3,2 5,4 -2,4 -4,9 -5,14l-4 -1 1 -3c1,-2 1,-4 1,-5 -1,-1 -2,-3 -4,-4 -2,-2 -5,-3 -7,-4 -5,-1 -9,-1 -13,1 -3,3 -5,7 -7,12 -2,8 -2,14 0,20 3,5 7,8 12,10 2,1 4,1 6,1 3,0 5,0 7,-1z"/>
  <path id="_18" class="fil1" d="M855 1881c-1,8 -1,13 2,18 2,4 6,7 12,8 3,1 5,1 8,1 2,0 5,-1 8,-2l1 1 -3 4c-3,1 -7,2 -10,2 -3,0 -7,0 -10,-1 -7,-2 -13,-5 -16,-11 -3,-6 -4,-13 -3,-20 2,-6 4,-12 8,-15 2,-3 6,-5 11,-6 5,-2 9,-2 14,-1 6,2 11,4 13,9 3,5 4,10 2,17l-1 3c-2,0 -4,0 -7,0 -3,-1 -9,-2 -16,-4l-13 -3zm1 -4c6,2 12,4 18,5 3,1 6,1 8,2l1 -4c1,-3 1,-6 0,-9 0,-2 -1,-4 -3,-5 -2,-2 -4,-3 -6,-4 -4,-1 -8,0 -11,3 -3,2 -5,6 -7,12z"/>
  <path id="_19" class="fil1" d="M955 1887l1 -4 0 -4 6 -3c3,-1 6,-2 8,-2 2,-1 4,-1 6,-1 5,1 9,2 12,5 3,2 5,5 5,9 0,3 0,9 -1,20 -1,9 -1,15 0,16 0,1 1,2 2,2l4 0 0 4c-4,-1 -7,-1 -9,-1 -2,0 -4,-1 -8,-1l1 -5c0,-1 0,-3 0,-4l-12 7c-1,1 -2,2 -3,2 -1,0 -3,0 -4,0 -5,0 -9,-2 -11,-4 -2,-3 -3,-6 -3,-10 1,-4 2,-7 4,-10 2,-2 4,-4 8,-5 3,-1 11,-2 23,-3 0,-5 -1,-9 -2,-11 -3,-3 -6,-5 -11,-5 -1,-1 -3,-1 -5,0 -1,0 -3,1 -4,1 -1,3 -3,5 -4,8l-3 -1zm29 11c-11,1 -17,3 -20,4 -3,2 -5,5 -5,9 0,3 0,5 2,7 1,2 3,3 6,3 2,0 5,-1 8,-2 2,-1 5,-3 7,-6l1 -13 1 -2z"/>
  <path id="_20" class="fil1" d="M1027 1886l9 -7c1,-1 2,-1 3,-2 3,0 5,-1 8,-1 3,1 7,1 10,3 2,2 4,4 6,6 1,3 1,7 1,13l-1 17c0,6 0,9 1,10 0,2 2,2 4,2l4 0 0 4c-4,-1 -8,-1 -10,-1 -3,0 -6,0 -9,0 0,-7 1,-17 1,-29 1,-5 0,-9 -1,-11 0,-2 -2,-3 -4,-5 -2,-1 -4,-2 -7,-2 -4,0 -7,1 -9,3 -3,1 -4,3 -5,5 0,2 -1,6 -1,12 0,6 0,13 0,19 0,1 0,2 0,3 1,1 3,1 5,1l4 0 0 4c-6,-1 -11,-1 -15,-1 -4,0 -8,0 -13,0l0 -3 4 0c2,0 4,-1 5,-2 0,-1 0,-9 1,-23 0,-6 0,-11 0,-15 0,-1 0,-2 -1,-2 0,-1 -2,-1 -4,-1l-4 0 0 -4c3,0 6,0 9,-1 2,0 5,-1 8,-2 0,0 1,-1 1,0 1,0 1,0 1,1l0 2 -1 7z"/>
  <path id="_21" class="fil1" d="M1120 1875l-1 -20c0,-2 -1,-3 -1,-4 -1,0 -2,-1 -4,0l-5 0 0 -3c7,-1 13,-3 18,-6l1 1c0,3 0,8 0,13l1 15 1 5 2 33c1,6 1,9 2,10 0,1 2,1 4,2l4 0 1 3c-5,0 -9,0 -12,0 -1,0 -3,1 -7,1 0,-2 0,-6 0,-10 -3,2 -7,6 -11,11 -4,1 -6,2 -9,2 -6,1 -11,-1 -16,-6 -4,-4 -7,-10 -7,-18 -1,-5 0,-9 1,-12 1,-4 3,-7 5,-8 2,-2 6,-5 10,-7 4,-2 7,-4 10,-4 2,0 4,0 6,0 3,1 5,2 7,2zm1 10c-3,-3 -5,-4 -8,-6 -3,-1 -6,-1 -9,-1 -5,0 -8,3 -11,6 -3,4 -4,9 -3,16 0,7 3,12 6,16 4,4 8,5 13,5 3,0 5,-1 8,-3 2,-2 4,-4 5,-7 1,-3 1,-7 0,-13l-1 -13z"/>
  <path id="_22" class="fil1" d="M1225 1835c1,5 2,11 3,17l7 31c3,11 5,17 6,18 0,1 3,2 6,1l4 -1 1 3c-7,1 -12,3 -16,4 -5,1 -10,2 -16,4l-1 -4 5 -1c2,0 3,-1 4,-2 1,-1 1,-2 0,-4 0,-4 -1,-10 -3,-16l-7 -31c-1,-6 -3,-12 -4,-17l-5 2c-9,2 -14,3 -15,4 -1,0 -1,2 -1,5l1 7 -3 1 -1 -7c-1,-2 -2,-6 -4,-10 20,-5 31,-7 35,-8l29 -7c1,6 2,12 3,18l-3 0 -2 -7c-1,-2 -2,-3 -2,-4 -1,0 -2,0 -3,0 -4,1 -9,2 -14,3l-4 1z"/>
  <path id="_23" class="fil1" d="M1281 1869c2,7 5,11 9,14 5,3 10,3 15,2 3,-1 5,-2 7,-4 2,-1 5,-3 7,-5l1 0 -1 5c-2,3 -5,5 -8,6 -3,2 -6,4 -9,4 -7,2 -14,2 -19,-1 -6,-4 -10,-9 -12,-17 -2,-6 -2,-12 -1,-17 1,-3 3,-7 7,-10 4,-4 8,-6 12,-8 6,-1 11,-1 16,2 5,2 8,7 10,14l1 3c-2,1 -5,2 -7,3 -3,1 -8,3 -15,5l-13 4zm-1 -5c5,-1 11,-2 18,-4 2,-1 5,-2 7,-3l-1 -3c0,-3 -2,-6 -4,-8 -1,-2 -3,-3 -5,-3 -2,-1 -5,-1 -7,0 -4,1 -7,3 -9,7 -1,4 -1,8 1,14z"/>
  <path id="_24" class="fil1" d="M1371 1857l2 1 -1 4c-2,2 -4,4 -6,6 -3,1 -5,3 -8,4 -5,2 -9,2 -13,2 -5,-1 -8,-3 -12,-5 -3,-3 -6,-7 -8,-12 -1,-5 -2,-9 -2,-13 0,-4 1,-7 3,-10 2,-3 5,-6 8,-9 2,-3 5,-4 9,-6 2,-1 5,-2 7,-2 2,0 4,0 7,0 1,5 2,10 4,14l-4 1 0 -2c-1,-2 -2,-4 -3,-4 -1,-1 -3,-1 -6,-1 -2,0 -5,0 -7,1 -5,2 -8,5 -10,9 -1,3 -1,8 2,14 2,7 6,12 12,15 5,3 10,3 15,1 2,-1 4,-2 6,-3 1,-1 3,-3 5,-5z"/>
  <path id="_25" class="fil1" d="M1384 1813l4 -9c1,-2 2,-4 3,-5 1,-1 3,-3 5,-4 4,-1 7,-2 11,-2 3,1 6,1 8,3 2,2 4,6 7,12l6 15c2,3 3,5 4,7 1,1 1,1 2,2 1,0 2,0 3,-1l4 -1 2 3c-4,1 -7,2 -10,4 -2,1 -5,2 -8,4 -3,-9 -6,-17 -10,-25 -3,-6 -5,-10 -6,-11 -2,-2 -4,-3 -6,-3 -2,0 -5,0 -7,1 -3,2 -5,3 -7,6 -2,2 -3,4 -3,7 0,1 1,4 3,9l5 9c3,8 5,12 6,13 1,0 2,0 5,-1l4 -1 2 3c-6,2 -10,4 -13,5 -3,2 -8,4 -13,6l-1 -3 3 -1c2,-1 3,-2 3,-3 1,0 1,-1 0,-3 0,-2 -2,-6 -5,-12l-16 -34c-4,-9 -6,-14 -7,-15 -1,0 -2,0 -5,1l-3 2 -2 -3c5,-3 9,-6 12,-8l3 -4c1,0 1,0 1,1l1 2 4 9c2,5 4,9 5,11l6 14z"/>
  <path id="_26" class="fil1" d="M1445 1782l3 -10c1,-1 1,-3 2,-3 2,-2 4,-4 6,-5 3,-2 6,-3 10,-3 3,0 6,1 8,2 2,2 5,5 8,10l8 15c3,5 5,8 6,9 1,1 2,0 4,-1l4 -2 1 3c-3,2 -6,4 -9,5 -2,1 -5,3 -8,5 -3,-7 -7,-15 -13,-26 -2,-4 -4,-7 -6,-9 -2,-1 -4,-2 -6,-2 -3,0 -5,1 -8,2 -3,2 -5,4 -6,7 -2,3 -2,5 -1,7 0,2 2,5 5,11 3,5 6,11 9,16 1,1 2,2 2,2 2,1 3,0 5,-1l3 -2 2 3c-6,3 -10,5 -13,7 -4,2 -7,4 -12,7l-1 -3 3 -2c3,-1 4,-2 3,-4 0,-1 -3,-8 -10,-20 -3,-6 -6,-10 -8,-13 0,-1 -1,-2 -2,-2 0,0 -2,1 -4,2l-3 2 -2 -3c3,-2 5,-4 7,-5 2,-2 4,-4 6,-7 0,0 0,-1 1,-1 0,0 1,0 1,1l1 2 4 6z"/>
  <path id="_27" class="fil1" d="M1498 1770c-3,-4 -5,-8 -5,-13 -1,-5 0,-9 2,-14 3,-4 6,-8 10,-11 6,-5 13,-6 19,-5 7,1 12,4 17,11 5,7 7,15 5,23 -2,7 -5,13 -12,17 -6,4 -12,6 -19,5 -6,-2 -12,-6 -17,-13zm6 -9c5,6 10,10 15,13 6,3 11,2 16,-1 3,-3 5,-6 6,-11 0,-4 -2,-9 -6,-15 -3,-4 -7,-8 -10,-10 -4,-2 -7,-3 -11,-3 -3,0 -6,1 -8,2 -3,2 -5,4 -6,7 -1,2 -1,5 0,8 0,3 2,7 4,10z"/>
  <path id="_28" class="fil1" d="M1531 1677c6,9 12,17 18,24l17 22c7,9 11,13 13,14 0,1 2,0 3,-1l5 -2 2 2c-4,3 -7,5 -10,7 -3,3 -7,6 -12,10l-2 -2 4 -3c1,-2 2,-3 1,-4 0,-1 -4,-7 -11,-16l-18 -22 -6 -8 -5 -6c-1,-1 -2,-2 -2,-2 -1,0 -2,1 -4,2l-3 3 -3 -3c6,-5 10,-10 12,-15l1 0z"/>
  <path id="_29" class="fil1" d="M1581 1708c-3,-4 -5,-8 -6,-12 -1,-5 0,-10 1,-14 2,-5 5,-9 9,-12 6,-5 12,-8 19,-7 6,0 12,3 17,9 6,7 8,15 7,23 -1,7 -4,13 -10,18 -6,5 -12,7 -19,6 -6,0 -12,-4 -18,-11zm6 -9c4,5 10,9 16,11 6,2 11,2 15,-2 3,-3 5,-7 5,-11 0,-4 -2,-9 -7,-15 -3,-4 -7,-7 -11,-9 -4,-2 -7,-3 -11,-3 -3,1 -6,2 -8,4 -2,2 -4,4 -5,7 0,3 -1,5 0,8 1,3 3,7 6,10z"/>
  <path id="_30" class="fil1" d="M1649 1621c2,1 3,2 5,3 2,2 4,5 4,9 1,3 1,7 0,11 -1,4 -3,8 -6,11l-2 2c0,3 0,5 0,6 0,1 0,2 1,2 1,1 2,1 4,1 2,-1 4,-2 7,-6 1,-1 3,-3 5,-5 3,-4 5,-6 6,-8 2,-2 4,-3 6,-4 1,0 4,0 6,1 3,1 5,2 7,4 3,3 5,7 6,11 1,5 1,9 -1,14 -2,5 -4,10 -9,15 -5,5 -10,8 -15,9 -5,1 -10,0 -13,-4 -2,-2 -4,-5 -5,-8 2,-4 3,-8 3,-11 -3,1 -5,2 -6,2 -1,0 -2,0 -3,-1 -1,-1 -2,-2 -3,-4 0,-1 0,-3 0,-5l1 -7c-4,3 -7,4 -10,4 -3,0 -7,-1 -10,-4 -3,-3 -4,-6 -5,-9 -1,-4 -1,-7 0,-11 2,-5 4,-9 7,-13 2,-2 4,-3 6,-4 2,-1 4,-2 7,-2l3 -4c4,-3 6,-6 8,-8l1 0c0,2 1,4 1,6l-6 7zm0 12c-3,-3 -7,-5 -10,-5 -4,0 -7,1 -10,4 -2,2 -3,5 -3,8 0,3 2,6 5,9 3,4 7,5 11,6 3,0 6,-1 9,-4 2,-3 3,-5 3,-9 0,-3 -2,-6 -5,-9zm15 35c-1,2 -2,4 -3,5 0,3 0,6 0,7 1,2 2,4 4,6 3,3 7,4 10,4 4,0 8,-2 12,-6 3,-3 4,-7 6,-10 1,-3 1,-6 0,-9 -1,-3 -2,-6 -4,-8 -2,-1 -4,-2 -6,-3 -2,0 -4,0 -6,1 0,0 -2,2 -4,4l-9 9z"/>
  <path id="_31" class="fil1" d="M1717 1654l-5 -8 1 0c2,0 3,-1 4,-1 1,0 2,-1 3,-2 1,-1 2,-4 1,-7 0,-2 -3,-9 -8,-18 -4,-2 -12,-5 -25,-9l-12 -4 -10 -4c-4,-1 -6,-1 -8,1l-1 2 -3 -2c3,-3 5,-5 7,-8 2,-1 5,-5 10,-12l3 2 -3 3c-1,1 -1,2 -1,3 -1,1 0,1 0,2 1,0 2,1 4,2 10,4 21,7 33,11 -5,-10 -10,-20 -15,-30 -1,-2 -2,-4 -3,-4 -1,-1 -2,-1 -4,1l-3 3 -2 -2c2,-4 5,-6 7,-9 2,-2 4,-5 6,-7l3 2 -1 1c-1,1 -1,2 -2,3 0,1 0,2 1,3 0,2 3,9 9,21 2,4 6,13 13,28 6,12 9,19 10,21 0,2 1,5 0,7 0,3 -1,5 -3,7 -1,1 -2,2 -3,2 -1,1 -2,2 -3,2z"/>
  <path id="_32" class="fil1" d="M1746 1525c-4,-3 -7,-6 -10,-10 -2,-5 -3,-9 -3,-14 1,-5 2,-10 5,-14 4,-7 10,-11 16,-12 6,-2 13,-1 19,3 8,5 13,12 14,20 1,7 0,14 -4,20 -4,7 -10,11 -16,12 -7,1 -14,-1 -21,-5zm2 -11c7,4 13,6 19,6 6,1 11,-2 14,-7 3,-4 3,-7 2,-12 -2,-4 -5,-8 -11,-11 -5,-3 -9,-5 -14,-6 -4,-1 -8,0 -11,1 -3,1 -5,3 -7,6 -1,2 -2,5 -2,8 0,2 1,5 2,7 2,3 5,6 8,8z"/>
  <path id="_33" class="fil1" d="M1773 1447l19 10c9,5 14,7 16,7 1,0 2,-1 4,-4l2 -5 3 2c-3,5 -5,9 -7,11l-7 16 -3 -1 2 -4c1,-2 1,-4 0,-5 -1,-1 -6,-4 -14,-9l-19 -10 -4 7 -2 -1c0,-3 0,-6 0,-9l-6 -3c-3,-2 -5,-3 -7,-5 -1,-2 -3,-5 -4,-9 -2,-6 -3,-10 -3,-12 0,-2 0,-4 1,-5 1,-2 2,-3 3,-4 2,1 3,1 4,2 1,0 3,1 4,2l0 1c-2,1 -4,3 -6,6 -1,2 -1,5 0,7 1,2 6,5 13,9l6 3c3,-5 5,-9 6,-13l1 0 4 3 -3 6c-1,2 -2,4 -3,7z"/>
  <path id="_34" class="fil1" d="M1815 1313l-9 -4c-3,3 -6,5 -8,8 -3,3 -5,7 -6,10 -4,9 -4,18 0,26 3,8 10,13 19,17 7,3 13,4 19,3 7,-1 12,-3 17,-8 5,-4 9,-8 11,-14 2,-5 3,-10 4,-15 0,-3 0,-7 -1,-12l1 0c2,1 3,2 4,3 1,5 1,10 0,14 0,5 -2,9 -3,13 -3,9 -8,16 -14,21 -5,5 -12,8 -19,9 -7,1 -14,1 -21,-2 -8,-3 -13,-7 -18,-13 -4,-6 -6,-12 -7,-20 -1,-8 1,-16 4,-25 2,-5 5,-11 9,-16 2,-3 4,-6 5,-8 3,3 8,6 14,9l-1 4z"/>
  <path id="_35" class="fil1" d="M1838 1289l-4 -9c-1,-2 -1,-4 -2,-6 0,-2 1,-4 1,-6 1,-4 3,-7 5,-9 3,-3 6,-4 8,-5 3,0 7,1 13,2l16 5c3,1 6,2 8,2 1,0 2,0 2,0 1,-1 2,-2 2,-3l2 -4 3 1c-1,3 -2,7 -3,10 -1,3 -2,5 -2,8 -9,-3 -18,-6 -26,-8 -6,-2 -10,-3 -12,-2 -3,0 -4,1 -6,2 -2,2 -3,4 -4,7 -1,3 -1,5 0,8 0,3 2,5 3,7 1,1 4,2 9,3l9 3c9,2 14,4 15,3 1,0 1,-1 2,-3l2 -5 3 1c-2,6 -3,10 -4,13 -1,4 -2,8 -4,14l-3 -1 1 -3c0,-2 0,-4 0,-4 0,-1 -1,-2 -2,-2 -2,-1 -6,-2 -13,-4l-35 -10c-10,-3 -15,-4 -16,-4 -1,0 -2,1 -3,4l-1 3 -3 -1c1,-5 2,-10 1,-14l0 -4c0,-1 1,-1 1,-1l3 1 9 3c5,2 9,3 11,4l14 4z"/>
  <path id="_36" class="fil1" d="M1820 1217c1,-2 2,-3 3,-4 1,-1 3,-1 5,0 1,0 3,1 4,2 0,2 1,3 0,5 0,2 -1,3 -2,4 -2,1 -3,1 -5,1 -2,-1 -3,-2 -4,-3 -1,-2 -1,-3 -1,-5zm25 1l1 -1c3,1 6,2 9,3 10,2 18,4 23,5 5,1 8,2 12,3 1,0 2,0 3,-1 0,0 1,-2 2,-4l1 -3 3 1c-1,5 -2,9 -3,14 -1,4 -2,8 -3,13l-3 -1 1 -5c0,-2 0,-3 -1,-3 0,-1 -2,-1 -5,-2 -4,-1 -10,-3 -18,-5 -6,-1 -10,-2 -13,-2 -1,-1 -2,0 -3,0 0,0 -1,2 -1,4l-1 4 -3 -1c0,-5 0,-8 0,-10 0,-2 0,-5 -1,-9z"/>
  <path id="_37" class="fil1" d="M1862 1187l-6 -9c-1,-1 -2,-2 -2,-3 0,-3 0,-6 0,-8 1,-4 2,-7 4,-10 2,-2 4,-4 7,-5 3,-1 7,-1 12,0l17 2c6,1 9,1 10,1 2,-1 2,-2 3,-4l0 -4 3 1c0,4 -1,7 -1,10 -1,3 -1,6 -1,9 -7,-2 -17,-4 -29,-5 -5,-1 -8,-1 -10,0 -2,0 -4,1 -6,3 -1,2 -2,4 -3,7 0,4 0,7 2,10 1,2 3,4 5,5 1,1 5,1 11,2 7,1 13,2 19,3 1,0 2,0 3,-1 1,0 2,-2 2,-4l0 -4 4 1c-2,6 -2,11 -3,14 0,4 -1,9 -1,13l-3 0 0 -4c0,-3 0,-4 -1,-5 -1,-1 -9,-2 -23,-4 -6,-1 -11,-1 -14,-1 -1,-1 -2,0 -3,0 0,1 -1,2 -1,4l-1 4 -3 0c0,-3 0,-6 0,-9 0,-2 -1,-5 -2,-9 0,0 0,0 0,-1 0,0 1,0 2,0l2 0 7 1z"/>
  <path id="_38" class="fil1" d="M1873 1131l-3 -1 -4 0 -3 -6c-1,-3 -2,-6 -3,-8 0,-2 0,-4 0,-6 0,-5 2,-9 4,-12 3,-3 6,-5 9,-5 3,0 10,0 20,1 10,0 15,1 16,0 1,0 2,-1 2,-2l1 -5 3 1c0,4 -1,7 -1,8 0,3 0,5 0,9l-5 -1c-2,0 -3,0 -5,0l8 12c1,1 1,2 1,3 0,1 1,3 0,4 0,5 -1,9 -4,11 -3,2 -6,3 -10,3 -3,0 -7,-1 -9,-4 -3,-2 -5,-4 -6,-8 -1,-3 -2,-11 -3,-23 -5,0 -8,0 -11,2 -3,3 -4,6 -5,11 0,1 0,3 0,5 1,1 1,3 2,4 3,1 5,3 7,4l-1 3zm11 -29c2,11 3,17 5,20 2,3 4,5 8,5 3,0 5,0 7,-2 2,-1 3,-3 3,-6 0,-2 0,-5 -2,-8 -1,-2 -3,-5 -6,-7l-12 -1 -3 -1z"/>
  <path class="fil0" d="M695 563c-426,109 -348,572 -218,680 -38,281 249,550 580,430 330,120 617,-149 580,-430 129,-108 207,-571 -219,-680 -79,-123 -170,-203 -361,-202 -191,-1 -282,79 -362,202zm362 -64c309,0 560,251 560,561 0,310 -251,561 -560,561 -310,0 -561,-251 -561,-561 0,-310 251,-561 561,-561z"/>
 </g>
</svg>
