<?xml version="1.0" encoding="UTF-8" standalone="no"?>
<svg
   xmlns:dc="http://purl.org/dc/elements/1.1/"
   xmlns:cc="http://creativecommons.org/ns#"
   xmlns:rdf="http://www.w3.org/1999/02/22-rdf-syntax-ns#"
   xmlns:svg="http://www.w3.org/2000/svg"
   xmlns="http://www.w3.org/2000/svg"
   xmlns:sodipodi="http://sodipodi.sourceforge.net/DTD/sodipodi-0.dtd"
   xmlns:inkscape="http://www.inkscape.org/namespaces/inkscape"
   width="100pt"
   height="100pt"
   viewBox="0 0 100 100"
   version="1.1"
   id="svg23"
   sodipodi:docname="厦门大学.svg"
   inkscape:version="0.92.3 (2405546, 2018-03-11)">
  <metadata
     id="metadata29">
    <rdf:RDF>
      <cc:Work
         rdf:about="">
        <dc:format>image/svg+xml</dc:format>
        <dc:type
           rdf:resource="http://purl.org/dc/dcmitype/StillImage" />
        <dc:title></dc:title>
      </cc:Work>
    </rdf:RDF>
  </metadata>
  <defs
     id="defs27" />
  <sodipodi:namedview
     pagecolor="#ffffff"
     bordercolor="#666666"
     borderopacity="1"
     objecttolerance="10"
     gridtolerance="10"
     guidetolerance="10"
     inkscape:pageopacity="0"
     inkscape:pageshadow="2"
     inkscape:window-width="1366"
     inkscape:window-height="706"
     id="namedview25"
     showgrid="false"
     inkscape:zoom="5.6190476"
     inkscape:cx="101.67353"
     inkscape:cy="119.48482"
     inkscape:window-x="-8"
     inkscape:window-y="-8"
     inkscape:window-maximized="1"
     inkscape:current-layer="svg23"
     inkscape:document-units="pc" />
  <g
     id="surface1"
     transform="matrix(0.40418316,0,0,0.40418316,-0.69665233,-0.72298522)">
    <path
       style="fill:#0042a8;fill-opacity:1;fill-rule:evenodd;stroke:none"
       d="m 35.144531,99.597656 2.671875,6.812504 6.679688,-2.9375 -2.941406,6.67968 6.816406,2.67188 -6.816406,2.67187 2.941406,6.67969 -6.679688,-2.9414 -2.671875,6.8164 -2.671875,-6.8164 -6.679687,2.9414 2.9375,-6.67969 -6.8125,-2.67187 6.8125,-2.67188 -2.9375,-6.67968 6.679687,2.9375 z m 182.085939,0 2.67187,6.812504 6.67969,-2.9375 -2.9375,6.67968 6.8125,2.67188 -6.8125,2.67187 2.9375,6.67969 -6.67969,-2.9414 -2.67187,6.8164 -2.67188,-6.8164 -6.67968,2.9414 2.9414,-6.67969 -6.8164,-2.67187 6.8164,-2.67188 -2.9414,-6.67968 6.67968,2.9375 z m 0,0"
       id="path2"
       inkscape:connector-curvature="0" />
    <path
       style="fill:#0042a8;fill-opacity:1;fill-rule:evenodd;stroke:none"
       d="m 205.07422,58.117188 c 0,-0.46875 0,-0.933594 -0.13281,-1.535157 -0.0664,-0.46875 -0.19922,-0.804687 -0.46875,-1.003906 -0.26563,-0.132813 -0.53516,-0.06641 -0.66797,0.269531 -0.0664,0.265625 -0.19922,0.53125 -0.46875,0.867188 -0.13282,0.265625 -0.39844,0.535156 -0.73438,0.800781 -0.60156,0.402344 -1.19922,0.800781 -1.9375,1.203125 -1.66797,1.066406 -3.26953,1.9375 -4.875,2.671875 -1.60156,0.734375 -3.14062,1.335937 -4.60937,1.734375 -2.00391,0.535156 -3.94141,0.871094 -5.74219,0.9375 -1.07031,0.132812 -2.07031,0.199219 -3.07422,0.265625 -0.19922,0 -0.40234,0 -0.53516,0.06641 -0.19921,0.06641 -0.26562,0.203125 -0.0664,0.402344 0.13281,0.132813 0.46875,0.265625 0.9375,0.332031 0.53125,0.07031 1.0664,0.136719 1.53515,0.136719 1.66797,0.265625 3.47266,0.199219 5.54297,-0.203125 1.73828,-0.332031 3.53907,-0.800781 5.41016,-1.535156 2.00391,-0.800782 3.94141,-1.738282 5.8125,-2.804688 0.73437,-0.46875 1.40234,-0.800781 2.07031,-1.136718 0.40235,-0.199219 0.73438,-0.398438 1.20313,-0.535157 0.13281,0 0.26562,-0.06641 0.33203,-0.06641 0.0664,0.203125 0.13672,0.402344 0.20312,0.601563 0.26563,0.535156 0.60157,1.003906 1.13282,1.46875 2.20703,2.070312 4.47656,4.144531 6.8164,6.347656 1.06641,0.933594 1.73438,1.46875 2.07031,1.535156 0.26563,0.06641 0.39844,0 0.46485,-0.199219 0.13672,-0.269531 0.0664,-0.667969 -0.13281,-1.203125 C 214.89453,67 214.49219,66.464844 213.95703,66.132812 212.55469,65.128906 211.15234,64.0625 209.75,62.859375 208.28125,61.523438 206.74609,59.988281 205.20703,58.316406 205.14062,58.25 205.14062,58.25 205.07422,58.25 Z M 145.02344,33.402344 c 0.0664,0 0.19922,0.06641 0.33593,0.06641 0.80079,0 2.07032,0.199219 3.73829,0.535156 0,0.06641 0.0664,0.265625 0.13281,0.46875 0.26953,0.800782 0.73828,1 1.33594,0.53125 0.46875,-0.332031 0.80468,-0.667968 0.9375,-1.132812 0.39843,-1.136719 0.80078,-2.273438 1.26953,-3.476563 0.39843,-1.066406 0.93359,-1.867187 1.53515,-2.46875 0.40235,-0.335937 0.46875,-0.667969 0.26563,-1.070312 -0.33203,-0.46875 -0.73438,-0.933594 -1.33594,-1.46875 -0.33203,-0.265625 -0.66797,-0.335938 -1,-0.265625 -1.53516,0.132812 -3.07422,0.132812 -4.74219,-0.07031 0,0 -0.0664,-0.06641 -0.13281,-0.132812 -0.40234,-0.601563 -0.9375,-1.066407 -1.47266,-1.46875 -0.19921,-0.132813 -0.39843,-0.132813 -0.59765,0.06641 -0.13672,0.132813 -0.13672,0.335937 0,0.601563 0.13281,0.800781 0.13281,1.671874 0,2.40625 0,0.667968 -0.20313,1.535156 -0.46875,2.535156 -0.9375,3.675781 -1.8711,6.480468 -2.67188,8.417968 -0.73437,1.9375 -1.67187,3.808594 -2.80468,5.476563 -0.40235,0.535156 -0.60157,1.070313 -0.66797,1.605469 0,0.867187 0.0664,1.46875 0.19922,1.867187 0.19921,0.402344 0.46875,0.46875 0.73437,0.203125 0.40234,-0.269531 0.80078,-0.667968 1.13672,-1.402344 0.73437,-1.402343 1.40234,-2.941406 1.87109,-4.476562 0.59766,-2.003906 1.19922,-3.941406 1.80078,-5.878906 0.13282,-0.535156 0.33594,-1.066406 0.46875,-1.601563 z m 4.00781,-0.734375 c -0.26563,-0.269531 -0.73438,-0.402344 -1.40234,-0.402344 -0.80079,0 -1.53516,0 -2.26954,0 0.26563,-0.867187 0.53125,-1.667969 0.80079,-2.269531 1.13671,0.06641 2.13671,0.199218 2.9375,0.332031 0.53515,0 0.66796,-0.132813 0.53515,-0.464844 -0.13281,-0.335937 -0.46875,-0.601562 -1,-0.871093 -0.46875,-0.132813 -1.13672,-0.199219 -2.07422,-0.199219 0,0 -0.0664,0.06641 -0.0664,0.06641 0.46875,-1.402344 0.87109,-2.335937 1.13672,-2.871094 0.0664,0 0.19921,0 0.33593,0 0.86719,0.06641 1.60157,0.06641 2.20313,0.132813 0.86719,0.06641 1.40234,0.199218 1.66797,0.46875 0.13672,0.199218 0.13672,0.601562 -0.0664,1.269531 -0.60156,1.800781 -1.20312,3.472656 -1.80078,5.007813 -0.0703,0.199218 -0.20313,0.402343 -0.33594,0.535156 C 149.5,33.203125 149.36719,33 149.03125,32.734375 Z m 8.75,2.804687 c 0.13281,0.06641 0.33594,0.132813 0.60156,0.199219 1.07031,0.06641 2.67188,0.402344 4.875,1.003906 -1.40234,5.210938 -2.73828,9.550781 -4.00781,13.023438 -0.19922,0.601562 -0.39844,1.003906 -0.59766,1.203125 -0.13672,0.06641 -0.46875,0 -0.80468,-0.199219 -0.53125,-0.335937 -1.06641,-0.601563 -1.66797,-0.9375 -0.40235,-0.265625 -0.66797,-0.332031 -0.66797,-0.06641 0.93359,1.472656 1.60156,2.738281 2.07031,3.808593 0.13281,0.535157 0.40234,0.933594 0.73438,1.136719 0.19921,0.132813 0.40234,0.132813 0.66796,0 0.40235,-0.269531 0.86719,-0.667969 1.46875,-1.269531 0.46875,-0.535156 0.80079,-1.136719 0.9375,-1.871094 1.06641,-4.808594 2.73829,-11.089844 4.875,-18.769531 0.33204,-1.335937 0.80079,-2.269531 1.26954,-2.804687 0.39843,-0.335938 0.53515,-0.667969 0.26562,-1.003907 -0.33203,-0.535156 -0.93359,-1.132812 -1.66797,-1.734375 -0.40234,-0.269531 -0.73437,-0.402344 -1.13672,-0.335937 -1,0.199219 -1.80468,0.335937 -2.33593,0.335937 -0.66797,0 -1.60547,-0.136718 -2.8086,-0.269531 -0.33203,-0.535156 -0.80078,-1 -1.26953,-1.335937 -0.13281,-0.132813 -0.26562,-0.132813 -0.39844,-0.06641 -0.19922,0.06641 -0.19922,0.199219 -0.13281,0.535157 0.13281,0.867187 0.13281,1.738281 -0.0664,2.738281 -0.33593,1.402343 -0.73828,2.871093 -1.20312,4.273437 -0.20313,0.667969 -0.26953,1.40625 -0.20313,2.140625 0.0703,0.53125 0.20313,0.933594 0.33594,1.066407 0.33203,0.269531 0.60156,0.06641 0.86719,-0.535157 0,-0.06641 0.0664,-0.132812 0.0664,-0.132812 z m 5.41016,-0.199218 c -0.26563,-0.335938 -0.80079,-0.46875 -1.53516,-0.535157 -1.26953,-0.06641 -2.47266,-0.199219 -3.53906,-0.335937 0.0664,-0.265625 0.13281,-0.597656 0.19922,-0.933594 0.13281,-0.535156 0.33593,-1.070312 0.46875,-1.667969 0,0 0.0664,0 0.19921,0.06641 1.33594,0.199218 2.53907,0.398437 3.47266,0.53125 0.53516,0.07031 0.73438,-0.06641 0.60156,-0.398438 -0.13281,-0.335938 -0.46875,-0.667969 -0.93359,-0.867188 -0.46875,-0.203124 -1.13672,-0.335937 -2.07031,-0.335937 -0.40235,0.06641 -0.73438,0.06641 -1.00391,0.132813 0.33594,-1.066407 0.60156,-2.003907 0.9375,-2.871094 0.13281,0 0.33203,0 0.59766,0.06641 1.20312,0.132812 2.40625,0.199219 3.60937,0.199219 0.53516,0.06641 0.80078,0.203125 0.80078,0.46875 0.0664,0.601562 0,1.269531 -0.13281,2.136719 -0.40234,1.671874 -0.86719,3.273437 -1.26953,4.878906 -0.13281,-0.136719 -0.19922,-0.269532 -0.33594,-0.46875 z m -70.000004,5.742187 c 0.734375,0.667969 2.335938,1.9375 4.742188,3.808594 2.671876,2.003906 4.874996,3.472656 6.746096,4.542969 0.86719,0.535156 1.60156,0.667968 2.20312,0.46875 1.73828,-0.738282 3.33985,-1.40625 4.875,-2.074219 0.66797,-0.265625 0.9375,-0.464844 0.8711,-0.597657 -0.0664,-0.203124 -0.46875,-0.335937 -1.33594,-0.46875 -1.07031,-0.06641 -2.20703,-0.199218 -3.40625,-0.269531 -1.40234,-0.06641 -2.53906,-0.199219 -3.47656,-0.53125 -1.19922,-0.402343 -3.00391,-1.203125 -5.273441,-2.539062 -2.605469,-1.402344 -4.675781,-2.671875 -6.148438,-3.742188 -0.06641,-0.464843 -0.132812,-0.867187 -0.199219,-1.335937 1.9375,-1.066406 4.609376,-2.269532 7.949218,-3.605469 0.53516,-0.199219 1,-0.335937 1.46875,-0.535156 0.46875,-0.199219 0.73438,-0.402344 0.73438,-0.667969 0,-0.332031 -0.26563,-0.535156 -0.73438,-0.734375 -0.86719,-0.199219 -1.60156,-0.335937 -2.20312,-0.265625 -0.468754,0 -0.937504,0.199219 -1.402348,0.464844 -1.46875,1.003906 -3.542968,2.273437 -6.144531,3.808594 C 92.1875,35.875 91.988281,35.003906 91.71875,34.136719 91.519531,33.402344 91.320312,32.734375 91.1875,32.066406 90.851562,31.0625 90.71875,29.929688 90.71875,28.660156 c 0,-0.335937 -0.132812,-0.535156 -0.402344,-0.667968 -0.601562,-0.269532 -1.402344,-0.402344 -2.46875,-0.46875 -0.601562,0 -1.136718,0.132812 -1.472656,0.402343 -0.464844,0.398438 -0.398438,0.667969 0.203125,1 1,0.46875 1.601563,1.070313 1.871094,1.871094 0.933593,2.671875 1.667969,5.011719 2.136719,7.082031 -2.136719,1.199219 -4.34375,2.46875 -6.746094,3.738282 -0.46875,0.269531 -0.46875,0.535156 0.06641,0.734374 0.464844,0.136719 0.867188,0.203126 1.402344,0.203126 0.535156,-0.06641 1,-0.269532 1.335937,-0.46875 1.269531,-1.003907 2.738281,-1.871094 4.339844,-2.804688 0.06641,0.199219 0.06641,0.398438 0.136719,0.667969 0.464844,2.335937 0.53125,4.40625 0.199218,6.34375 -0.199218,1.402343 -0.601562,2.804687 -1.335937,4.210937 -0.601563,1.402344 -1.804687,3.136719 -3.609375,5.207032 -0.265625,0.269531 -0.398438,0.46875 -0.464844,0.601562 -0.06641,0.203125 0.132813,0.269531 0.535156,0.132812 0.332032,-0.132812 1.066407,-0.667968 2.269532,-1.734374 0.800781,-0.734376 1.738281,-1.871094 2.804687,-3.40625 0.734375,-1.203126 1.335938,-2.472657 1.605469,-3.808594 0.332031,-1.535156 0.464844,-3.273438 0.265625,-5.34375 C 93.324219,41.75 93.324219,41.417969 93.257812,41.015625 Z M 41.757812,66.667969 c 0.464844,-0.203125 1,-0.46875 1.535157,-0.734375 0.265625,-0.136719 0.46875,-0.269532 0.601562,-0.402344 0.06641,-0.06641 0,-0.199219 -0.06641,-0.332031 -0.06641,-0.136719 -0.402344,-0.269531 -1.003906,-0.335938 -0.332031,0 -0.601563,0.06641 -0.800781,0.199219 -0.132813,0.06641 -0.265626,0.136719 -0.402344,0.269531 C 41.55469,64.929688 41.421875,64.53125 41.355469,64.128906 41.222656,63.726562 41.15625,63.328125 41.15625,63.125 c 0,-0.199219 -0.132812,-0.332031 -0.335938,-0.398438 -0.132812,-0.06641 -0.464843,-0.06641 -1,0 -0.402343,0.132813 -0.734374,0.332032 -0.9375,0.46875 -0.132812,0.199219 -0.06641,0.398438 0.203126,0.464844 0.265624,0.06641 0.464843,0.203125 0.601562,0.46875 0.332031,0.667969 0.667969,1.335938 0.867188,2.003906 -0.06641,0.06641 -0.132813,0.06641 -0.199219,0.132813 -0.738281,0.667969 -1.335938,1.203125 -1.738281,1.605469 -0.06641,0.132812 -0.06641,0.199218 0.06641,0.265625 0.132812,0.06641 0.335937,0.06641 0.46875,-0.06641 0.535156,-0.335937 1.132812,-0.601562 1.734375,-0.9375 0.203125,0.535157 0.335937,1.136719 0.402343,1.738282 0,0.199218 0,0.335937 0.06641,0.402344 0.06641,0.132812 0.199219,0.132812 0.265625,0 0.07031,-0.136719 0.136718,-0.46875 0.136718,-0.9375 0,-0.398438 0,-0.933594 -0.06641,-1.601563 z m 4.339844,2.46875 c 0.535156,-0.199219 1.070313,-0.398438 1.738282,-0.667969 0.265624,-0.06641 0.535156,-0.199219 0.667968,-0.398438 0.06641,-0.06641 0.06641,-0.199218 0,-0.335937 C 48.4375,67.535156 48.101562,67.402344 47.5,67.335938 c -0.265625,-0.06641 -0.535156,-0.06641 -0.867188,0.06641 -0.199218,0.06641 -0.46875,0.199218 -0.800781,0.46875 -0.06641,-0.136719 -0.132812,-0.335938 -0.132812,-0.46875 C 45.5625,67 45.496094,66.667969 45.496094,66.398438 45.429688,66.199219 45.363281,66.066406 45.164062,66.066406 45.03125,66 44.695312,66 44.226562,66.066406 43.828125,66.199219 43.558594,66.332031 43.425781,66.535156 43.292969,66.734375 43.359375,66.867188 43.625,67 c 0.269531,0.06641 0.46875,0.203125 0.601562,0.402344 0.203126,0.398437 0.402344,0.800781 0.667969,1.269531 -0.734375,0.535156 -1.269531,0.933594 -1.667969,1.269531 -0.06641,0.06641 -0.06641,0.132813 0.06641,0.265625 0.132812,0.06641 0.265625,0.06641 0.46875,0 0.464843,-0.199219 0.933593,-0.46875 1.46875,-0.667969 0,0 0,0.06641 0.06641,0.132813 0.265625,0.734375 0.535156,1.605469 0.734375,2.539063 0,0.199218 0,0.335937 0.06641,0.402343 0.06641,0.132813 0.199219,0.132813 0.269532,-0.06641 0.06641,-0.136719 0.132812,-0.402344 0.06641,-0.871094 0,-0.464843 0,-1.066406 -0.136719,-1.734375 -0.06641,-0.203125 -0.132813,-0.46875 -0.132813,-0.734375 z m -1.535156,10.6875 c 0.734375,-0.265625 1.269531,-0.800781 1.535156,-1.46875 0.535156,-1.734375 1.136719,-3.539063 1.871094,-5.277344 0.800781,-1.9375 1.9375,-4.40625 3.40625,-7.347656 0.867188,-1.800781 1.46875,-2.9375 1.871094,-3.273438 0.332031,-0.199219 0.601562,-0.265625 0.734375,-0.132812 0.06641,0 0.199219,0.203125 0.402343,0.46875 0.332032,0.535156 0.667969,1.070312 1.066407,1.667969 0.199219,0.269531 0.335937,0.402343 0.46875,0.335937 0.132812,-0.06641 0.265625,-0.335937 0.265625,-0.800781 0.06641,-1.402344 0.203125,-2.605469 0.601562,-3.609375 0.269532,-0.800781 0.269532,-1.269531 0.132813,-1.335938 -0.199219,-0.06641 -1.269531,0.203125 -3.203125,0.9375 -0.535156,0.199219 -0.9375,0.535157 -1.203125,1.066407 -0.402344,0.871093 -0.800781,1.804687 -1.203125,2.738281 -2.605469,-2.601563 -4.273438,-4.605469 -4.941406,-6.078125 -0.07031,-0.332032 -0.203126,-0.464844 -0.46875,-0.53125 -0.402344,-0.07031 -1.136719,0.265625 -2.273438,0.933594 -0.332031,0.199218 -0.53125,0.46875 -0.597656,0.734374 -0.402344,1.070313 -0.871094,2.203126 -1.40625,3.40625 -0.199219,0.402344 -0.199219,0.535157 0.136718,0.601563 0.332032,-0.06641 0.667969,-0.199219 0.933594,-0.46875 0.335938,-0.265625 0.601563,-0.601563 0.667969,-1 0.199219,-0.46875 0.402344,-1.003906 0.535156,-1.535156 0.06641,-0.136719 0.132813,-0.203125 0.199219,-0.203125 0.199219,-0.132813 0.535156,0 1.003906,0.335937 0.332032,0.332031 0.734375,0.667969 1.132813,1.066407 -0.199219,0.06641 -0.398438,0.136718 -0.667969,0.402343 -0.265625,0.332031 -0.601562,0.867188 -0.867188,1.667969 -0.132812,0.46875 -0.199218,0.871094 -0.332031,1.335938 -0.136719,0.269531 0,0.335937 0.53125,0.203124 0.136719,0 0.269531,-0.132812 0.402344,-0.402343 0.601563,-1 1.136719,-1.9375 1.535156,-2.671875 0.402344,0.402344 0.871094,0.9375 1.402344,1.402344 -0.132813,0.06641 -0.332031,0.203124 -0.464844,0.402343 C 47.5,63.726562 47.234375,64.261719 46.964844,65.0625 46.832031,65.53125 46.765625,66 46.699219,66.464844 c -0.06641,0.269531 0.06641,0.335937 0.46875,0.203125 0.132812,-0.06641 0.265625,-0.203125 0.398437,-0.402344 0.46875,-1 0.9375,-1.871094 1.269532,-2.605469 0.535156,0.601563 1.136718,1.269532 1.804687,1.9375 -0.265625,0.46875 -0.46875,0.9375 -0.667969,1.402344 -1.070312,2.136719 -2.339844,5.011719 -3.875,8.484375 -0.06641,0.06641 -0.06641,0.132813 -0.06641,0.265625 -1,-0.332031 -1.9375,-0.667969 -2.738281,-1 0.402343,-1.003906 0.800781,-1.871094 1.070312,-2.605469 0.132813,-0.402343 0.06641,-0.601562 -0.269531,-0.601562 -0.332031,0.06641 -0.601562,0.265625 -0.933594,0.667969 -0.269531,0.335937 -0.46875,0.933593 -0.601562,1.738281 0,0.199219 -0.06641,0.398437 0,0.53125 -0.402344,-0.132813 -0.800782,-0.265625 -1.070313,-0.398438 -0.265625,-0.06641 -0.535156,-0.199219 -0.800781,-0.335937 0.335938,-1.199219 0.667969,-2.136719 1.003906,-3.003906 0.132813,-0.402344 0.06641,-0.601563 -0.269531,-0.535157 -0.332031,0.06641 -0.601563,0.265625 -0.867187,0.601563 -0.269532,0.332031 -0.402344,0.933594 -0.535157,1.667968 -0.06641,0.335938 -0.06641,0.601563 -0.06641,0.9375 -0.402344,-0.199218 -0.667969,-0.335937 -0.800781,-0.402343 -0.203125,-0.132813 -0.46875,-0.199219 -0.601563,-0.199219 0,-0.535156 0,-0.933594 -0.06641,-1.335938 0,-0.335937 0,-0.734374 -0.06641,-1.136718 -0.136719,-0.398438 -0.136719,-0.867188 -0.06641,-1.269532 0.06641,-0.398437 -0.136718,-0.601562 -0.46875,-0.601562 -0.402343,0.07031 -0.800781,0.203125 -1.203124,0.46875 -0.402344,0.269531 -0.667969,0.46875 -0.734376,0.667969 -0.06641,0.199219 0,0.335937 0.199219,0.402343 0.269531,0.06641 0.535157,0.332032 0.734375,0.734376 0.203125,0.332031 0.402344,0.667968 0.601563,1.066406 0.132812,0.335937 0.269531,0.738281 0.402343,1.070312 -0.535156,0.265625 -0.9375,0.601563 -1.269531,1.070313 -0.199219,0.199219 -0.265625,0.464843 -0.265625,0.667969 0.06641,0.199218 0.265625,0.332031 0.597656,0.265624 0.871094,-0.06641 1.738282,0 2.605469,0.132813 0.804688,0.203125 2.808594,0.800781 5.945313,1.871094 -0.464844,0.867187 -0.867188,1.738281 -1.269532,2.539062 -0.06641,0.06641 -0.06641,0.132813 -0.06641,0.199219 0,0 -0.06641,0 -0.132812,-0.06641 -0.535156,-0.06641 -1,0 -1.269532,0.132812 -0.46875,0.132813 -0.46875,0.402344 0,0.734375 0.132813,0.06641 0.269532,0.136719 0.402344,0.203125 0.332032,0.265625 0.601563,0.53125 0.734375,0.867188 0.265625,0.601562 0.535157,1.335937 0.734375,2.136718 0.06641,0.269532 0.332032,0.535157 0.800782,0.667969 0.601562,0.265625 1.070312,0.335938 1.46875,0.335938 0.667968,0.06641 0.804687,-0.269531 0.535156,-0.9375 -0.265625,-0.535157 -0.667969,-1.132813 -1.203125,-1.800781 -0.667969,-0.738282 -1.132813,-1.40625 -1.535157,-1.871094 z M 57.453125,73.8125 c 1.070313,-2.003906 2.40625,-4.40625 4.140625,-7.011719 0.402344,-0.601562 0.734375,-1.136719 1.003906,-1.601562 0.265625,-0.402344 0.332032,-0.667969 0.199219,-0.9375 -0.199219,-0.265625 -0.535156,-0.332031 -1,-0.199219 -0.804687,0.332031 -1.402344,0.667969 -1.871094,1 -0.402343,0.335938 -0.667969,0.734375 -0.867187,1.203125 -0.667969,1.871094 -1.671875,4.277344 -2.941406,7.214844 -0.06641,0 -0.199219,-0.06641 -0.332032,-0.06641 -0.402344,-0.06641 -0.734375,0 -1.070312,0.06641 -0.06641,-0.867188 -0.132813,-1.804688 -0.199219,-2.738281 -0.06641,-1.070313 -0.06641,-1.871094 0.132813,-2.40625 0.132812,-0.464844 0,-0.734376 -0.335938,-0.800782 -0.332031,-0.132812 -1.265625,0.199219 -2.738281,0.933594 -0.398438,0.203125 -0.667969,0.601562 -0.800781,1.070312 -0.332032,1.402344 -0.867188,3.207032 -1.46875,5.277344 -0.132813,0.601563 -0.601563,1.402344 -1.402344,2.402344 -0.269532,0.402344 -0.199219,0.671875 0.265625,0.738281 0.335937,0 0.734375,-0.06641 1.136719,-0.269531 0.734374,-0.398438 1.070312,-1 1.136718,-1.800781 0.132813,-0.535157 0.53125,-2.140625 1.199219,-4.878907 0.07031,-0.332031 0.269531,-0.535156 0.535156,-0.667968 0.269531,-0.132813 0.535157,-0.06641 0.667969,0.203125 0.402344,0.933593 0.800781,2.003906 1.335938,3.070312 -0.265626,0.132813 -0.535157,0.269531 -0.734376,0.535157 -0.398437,0.332031 -0.601562,0.601562 -0.535156,0.933593 0,0.335938 0.203125,0.46875 0.601563,0.335938 0.601562,-0.269531 1.203125,-0.335938 1.871093,-0.335938 -1.535156,3.207031 -3.140624,6.613281 -4.875,10.355469 -0.269531,0.464844 -0.06641,0.601562 0.464844,0.535156 0.46875,-0.136718 0.871094,-0.335937 1.203125,-0.601562 0.402344,-0.335938 0.667969,-0.734375 0.734375,-1.136719 0.734375,-2.40625 1.738282,-4.808594 2.941406,-7.28125 0.199219,-0.46875 0.464844,-0.933594 0.734376,-1.46875 0.933593,0.402344 1.804687,0.800781 2.605468,1.402344 0.867188,0.601562 1.46875,1.203125 1.800782,1.804687 0.335937,0.535156 0.269531,1.132813 -0.265626,1.734375 -0.46875,0.535157 -0.933593,1.070313 -1.335937,1.605469 -0.199219,0.199219 -0.132813,0.332031 0.132813,0.332031 0.203124,0 0.535156,-0.132812 0.9375,-0.332031 1.132812,-0.402344 2.070312,-0.601562 2.671874,-0.601562 0.464844,0 0.800782,-0.132813 0.933594,-0.46875 0.132813,-0.265626 0.06641,-0.800782 -0.132812,-1.667969 C 63.734375,78.488281 63.332031,77.753906 62.597656,77.085938 61.796875,76.285156 60.726562,75.484375 59.324219,74.75 58.65625,74.414062 57.988281,74.148438 57.453125,73.882812 Z M 196.65625,69.941406 c 0.13672,0.199219 0.26953,0.398438 0.46875,0.601563 1.67187,1.667969 3.14062,3.203125 4.27734,4.539062 -0.26953,0.535157 -0.33593,0.804688 -0.20312,0.9375 0.20312,0.199219 0.60156,0.265625 1.20312,0.132813 0.53516,-0.06641 0.9336,-0.199219 1.20313,-0.46875 0.80078,-0.734375 1.87109,-1.601563 3.27344,-2.605469 0.39843,-0.332031 0.86718,-0.464844 1.33593,-0.464844 0.39844,-0.06641 0.60157,-0.203125 0.66797,-0.402343 0.0664,-0.734376 -0.0664,-1.601563 -0.33594,-2.605469 -0.13281,-0.265625 -0.39843,-0.601563 -0.80078,-0.867188 -0.86718,-0.46875 -1.73828,-1.003906 -2.67187,-1.738281 -0.40235,-0.398438 -0.80078,-0.734375 -1.20313,-1.066406 0.0664,0 0.20313,0 0.26953,0 0.39844,0.06641 0.80079,0.132812 1.26954,0.132812 0.19921,0 0.46484,0.06641 0.73437,0.132813 0.26563,0.132812 0.46484,0.06641 0.53125,-0.06641 0.0703,-0.132812 0.13672,-0.265624 0.20313,-0.46875 0.66796,0.601563 1.40234,1.269532 2.20312,2.003907 0.93359,0.9375 1.73828,1.738281 2.47266,2.472656 0.13281,0.199219 0.33203,0.265625 0.60156,0.265625 0.19922,-0.132812 0.26562,-0.398438 0.13281,-0.933594 0,-0.132812 -0.0664,-0.402344 -0.19922,-0.734375 -0.13672,-0.335937 -0.33593,-0.667969 -0.66797,-0.9375 -0.9375,-0.734375 -1.87109,-1.46875 -2.80859,-2.269531 -1.13281,-0.933594 -2.13672,-1.804688 -3.07031,-2.738281 -0.60156,-0.667969 -1.26953,-1.335938 -2.00391,-2.003907 -0.40234,-0.402343 -0.60156,-0.335937 -0.60156,0.199219 0,0.269531 0,0.601563 0.0664,0.9375 0.0664,0.332031 0.26562,0.601563 0.60156,0.867188 0.60156,0.535156 1.33594,1.203125 2.13672,1.871093 -0.53516,0.132813 -1.20313,0.265626 -2.00391,0.464844 -0.19922,0 -0.40234,0 -0.53516,0.136719 -0.0664,-0.136719 -0.19921,-0.203125 -0.26562,-0.269531 0,-0.398438 -0.13281,-0.800782 -0.26953,-1.132813 -0.0664,-0.136719 -0.19922,-0.203125 -0.33203,-0.203125 -0.0664,0.06641 -0.19922,0.132813 -0.26563,0.335938 -0.13672,0.199218 -0.26953,0.398437 -0.40234,0.667968 -0.13281,0.199219 -0.33594,0.398438 -0.60156,0.601563 -0.86719,0.800781 -1.60157,1.402344 -2.13672,1.800781 -0.53516,0.402344 -1.07032,0.667969 -1.73828,0.9375 -0.39844,0.132813 -0.73438,0.332032 -0.9336,0.601563 -0.33594,0.464843 -0.53515,0.800781 -0.53515,1.066406 -0.0664,0.269531 0,0.402344 0.33593,0.402344 0.13282,0 0.33203,-0.06641 0.53125,-0.132813 z m 5.41406,4.074219 c -0.20312,-0.402344 -0.66797,-0.9375 -1.26953,-1.46875 -1.20312,-1.070313 -2.27344,-2.003906 -3.33984,-2.941406 0.39843,-0.199219 0.80078,-0.46875 1.19922,-0.734375 0.13671,-0.06641 0.20312,-0.199219 0.33593,-0.265625 0.0664,0.199219 0.19922,0.332031 0.40235,0.601562 1.19922,1.066407 2.26953,2.070313 3.13672,2.871094 0.33593,0.265625 0.53515,0.265625 0.60156,0 0.0664,-0.335937 0,-0.667969 -0.19922,-1.070313 -0.19922,-0.398437 -0.66797,-0.800781 -1.26953,-1.269531 -0.73438,-0.53125 -1.46875,-1.066406 -2.13672,-1.535156 0.26562,-0.199219 0.53516,-0.46875 0.86719,-0.667969 0.19922,-0.132812 0.33593,-0.265625 0.46875,-0.402344 0.0664,0.136719 0.19922,0.335938 0.39843,0.535157 1.13672,1.003906 2.20704,1.9375 3.00782,2.671875 0.33203,0.269531 0.53515,0.269531 0.66797,0 0.0664,-0.332032 0,-0.667969 -0.26954,-1.066406 -0.26562,-0.335938 -0.66796,-0.734376 -1.33593,-1.203126 -0.73438,-0.46875 -1.40235,-0.867187 -2.00391,-1.269531 C 202,66.265625 202.46875,66 202.73828,65.796875 c 0.0664,0.136719 0.19922,0.203125 0.26563,0.335937 0.80078,0.667969 1.53515,1.269532 2.13671,1.804688 1.33594,1 2.00391,1.800781 2.00391,2.203125 -0.13281,0.265625 -0.53516,0.734375 -1.13672,1.269531 -1.93359,1.601563 -3.13672,2.472656 -3.60547,2.671875 0,0 -0.0664,0 -0.19922,0.06641 0,0 0,-0.132813 -0.0664,-0.265626 z m -9.35156,3.136719 c -1.00391,-0.199219 -2.00391,-0.464844 -3.00781,-0.933594 -1.46875,-0.734375 -2.8711,-1.667969 -4.33985,-2.804688 -0.20312,-0.199218 -0.33593,-0.199218 -0.33593,0.132813 0,0.132813 0.33593,0.601563 1.0039,1.335937 0.80078,0.933594 1.9336,1.738282 3.33985,2.472657 1.0664,0.601562 2.20312,1 3.33984,1.203125 -0.0703,1.933594 -0.0703,3.871094 0,5.808594 0,0.734374 0.26562,1.402343 0.80078,2.003906 1,1.136718 2.13672,2.203125 3.47266,3.140625 0.33203,0.265625 0.53515,0.398437 0.60156,0.332031 0.13281,-0.06641 0.13281,-0.265625 0,-0.601562 -0.53516,-1.199219 -1.07031,-2.535157 -1.67188,-3.871094 -0.66796,-1.605469 -1.13281,-3.140625 -1.40234,-4.542969 -0.13281,-0.734375 -0.26562,-1.46875 -0.39844,-2.203125 1,0 2.20313,-0.136719 3.53907,-0.335938 0.60156,-0.132812 1.20312,-0.06641 1.73828,0.06641 0.46484,0.132812 0.80078,0.06641 0.86718,-0.265625 0.0664,-0.335938 0.0664,-0.871094 -0.0664,-1.605469 -0.13281,-0.464844 -0.46875,-0.867187 -1.00391,-1.199219 -0.53515,-0.335937 -1.0664,-0.734375 -1.66797,-1.203125 -0.40234,-0.335937 -0.80078,-0.734375 -1.40234,-1.269531 0.13281,-0.132812 0.19922,-0.265625 0.26562,-0.46875 0.0664,-0.332031 0.13282,-0.734375 0.0664,-1.066406 -0.0664,-0.402344 -0.13281,-0.667969 -0.26562,-0.871094 -0.0664,-0.132812 -0.26954,-0.132812 -0.40235,0.06641 -0.19922,0.136719 -0.53515,0.335938 -0.86719,0.46875 -0.9375,0.132813 -1.80468,0.199219 -2.60546,0.132813 -0.9336,-0.06641 -1.8711,-0.199219 -2.67188,-0.398438 -0.86719,-0.203125 -2.20312,-0.601562 -4.00781,-1.269531 -0.13281,-0.06641 -0.19922,-0.06641 -0.13281,0.132812 0.0664,0.132813 0.26562,0.335938 0.66796,0.535157 0.53516,0.398437 1.06641,0.734375 1.73438,1.136719 0.80469,0.398437 1.73828,0.800781 2.80859,1.066406 0.59766,0.132812 1.46875,0.269531 2.40235,0.46875 0,0 0,0.06641 0,0.132812 -0.0664,1.46875 -0.19922,2.871094 -0.26563,4.339844 z m 3.53906,-2.671875 c 0.86719,0.601562 1.40235,1.003906 1.53516,1.136719 0.19922,0.402343 0.0664,0.667968 -0.33203,0.800781 -1.20313,0.46875 -2.33985,0.734375 -3.47657,0.800781 -0.0664,-0.53125 -0.13281,-1.132812 -0.13281,-1.667969 0,-1.203125 -0.0664,-2.070312 -0.0664,-2.671875 0.33593,0 0.80078,0.06641 1.20312,0.132813 0.26563,0.535156 0.66797,1.070312 1.33594,1.539062 z m 0,0"
       id="path4"
       inkscape:connector-curvature="0" />
    <path
       style="fill:#0042a8;fill-opacity:1;fill-rule:evenodd;stroke:none"
       d="m 208.34766,187.63672 -13.82813,-10.08594 2.53906,-3.54297 6.7461,2.47266 c 0.73437,0.26562 1.53515,0.53515 2.27343,0.86719 0.80079,0.33593 1.60157,0.66796 2.46875,1.0039 -0.73437,-0.40234 -1.46875,-0.86719 -2.20312,-1.33594 -0.73438,-0.46875 -1.53516,-1.0039 -2.47266,-1.67187 l -5.14062,-3.73828 2.20312,-3.07422 13.82813,10.08594 -2.47266,3.40625 -7.21484,-2.53516 c -0.73438,-0.26953 -1.53516,-0.53516 -2.33594,-0.87109 -0.80469,-0.33203 -1.60547,-0.66797 -2.40625,-1.06641 1.07031,0.66797 2.13672,1.33594 3.07422,1.9375 0.93359,0.59766 1.80078,1.19922 2.60156,1.80078 l 4.47656,3.27344 -2.20312,3.07422 z m 12.15625,-38.67578 0.66796,-3.74219 1.33594,0.26953 c 0.60156,0.13281 1.00391,0.0664 1.33594,-0.0664 0.33594,-0.13671 0.53516,-0.46875 0.60156,-0.87109 0.0664,-0.39844 0,-0.73437 -0.19922,-1 -0.20312,-0.26953 -0.53515,-0.46875 -0.9375,-0.53516 -0.33203,-0.0664 -0.73437,0 -1.13281,0.13282 -0.40234,0.13281 -0.80469,0.40234 -1.20312,0.80078 -0.19922,0.13672 -0.46875,0.40234 -0.80079,0.73437 -1.20312,1.07032 -2.07031,1.80469 -2.60546,2.20703 -0.53516,0.33204 -1.07032,0.60157 -1.73829,0.73438 -0.66796,0.13281 -1.26953,0.13281 -2.0039,0 -1.40235,-0.26953 -2.40235,-0.86719 -3.07031,-1.87109 -0.66797,-1 -0.80469,-2.26954 -0.53516,-3.875 0.26562,-1.53516 0.86719,-2.67188 1.66797,-3.33985 0.87109,-0.66797 2.0039,-0.86719 3.40625,-0.60156 l 1.40234,0.26953 -0.66797,3.60547 -1.13281,-0.19922 c -0.53516,-0.0664 -0.9375,-0.0664 -1.26953,0.0664 -0.26953,0.13281 -0.46875,0.40234 -0.53516,0.86718 -0.0664,0.33594 0,0.60157 0.19922,0.8711 0.20313,0.26562 0.46875,0.39844 0.8711,0.46484 0.60156,0.13281 1.80078,-0.53515 3.40625,-2.0039 l 0.13281,-0.0664 0.26562,-0.26563 c 1.47266,-1.26953 2.53907,-2.0039 3.07422,-2.20703 0.40235,-0.13281 0.80078,-0.19922 1.26953,-0.19922 0.46875,0 0.9336,0 1.40235,0.0664 1.46875,0.26953 2.47265,0.9375 3.14062,1.9375 0.66797,1.07031 0.86719,2.40625 0.53125,4.00781 -0.26562,1.60547 -0.93359,2.73828 -1.86719,3.47266 -0.9375,0.66797 -2.20703,0.9375 -3.80859,0.60156 l -1.26953,-0.19922 z m 3.20703,10.21875 -16.23047,-5.27735 1.19922,-3.67187 16.23437,5.27734 z m -11.28907,11.82422 1.53516,-3.47266 1.26953,0.53125 c 0.53516,0.26953 0.9375,0.33594 1.26953,0.26953 0.33594,-0.0664 0.60157,-0.33594 0.80078,-0.66797 0.13672,-0.33594 0.20313,-0.66797 0,-1.0039 -0.13281,-0.33204 -0.39843,-0.53125 -0.80078,-0.73438 -0.33203,-0.13281 -0.73437,-0.19922 -1.13672,-0.13281 -0.39843,0.0664 -0.86718,0.19922 -1.40234,0.46875 -0.19922,0.13281 -0.53125,0.26562 -1,0.53515 -1.40234,0.73438 -2.40625,1.26563 -3.07422,1.46875 -0.60156,0.19922 -1.20312,0.33204 -1.87109,0.26563 -0.66797,-0.0664 -1.26563,-0.19922 -1.9336,-0.46875 -1.33593,-0.59766 -2.14062,-1.46875 -2.53906,-2.53516 -0.40234,-1.13672 -0.26953,-2.40625 0.39844,-3.875 0.66797,-1.46875 1.47266,-2.40625 2.47266,-2.80468 1.0039,-0.46875 2.13671,-0.33594 3.47265,0.26562 l 1.26953,0.60156 -1.46875,3.33985 -1.07031,-0.46875 c -0.46484,-0.19922 -0.93359,-0.26563 -1.19922,-0.19922 -0.33594,0.0664 -0.53515,0.33203 -0.73828,0.66797 -0.13281,0.33203 -0.13281,0.60156 0,0.86718 0.13672,0.26954 0.33594,0.53516 0.73828,0.66797 0.59766,0.26953 1.86719,-0.13281 3.80469,-1.0664 l 0.13281,-0.0664 0.33594,-0.20312 c 1.73828,-0.86719 2.9375,-1.33594 3.53906,-1.33594 0.40235,0 0.80078,0 1.26953,0.0664 0.46875,0.0664 0.86719,0.20313 1.33594,0.40235 1.33594,0.60156 2.20313,1.46875 2.60547,2.67187 0.40234,1.20313 0.26562,2.53907 -0.46875,4.00782 -0.66797,1.46875 -1.53516,2.47265 -2.67188,2.87109 -1.13281,0.46875 -2.40234,0.33594 -3.80468,-0.33203 l -1.20313,-0.53516 z m -13.35937,27.58593 -12.28906,-11.89062 6.01172,-6.21094 2.40234,2.26953 -3.33984,3.47656 2.47265,2.33594 2.9375,-3.07031 2.33985,2.26953 -2.94141,3.07422 2.74219,2.67187 3.40625,-3.54296 2.40234,2.27343 -6.07812,6.34375 z m -7.28125,6.54688 -11.42188,-12.69141 2.8711,-2.60547 11.42187,12.69141 z m -17.36719,-3.07422 4.60938,6.88281 c 0.33593,0.46485 0.60156,0.73438 0.93359,0.86719 0.26953,0.13281 0.60156,0.0664 0.9375,-0.19922 0.33203,-0.20312 0.53516,-0.46875 0.53516,-0.80469 0,-0.33203 -0.13672,-0.66797 -0.46875,-1.13281 l -4.60938,-6.88281 c -0.33203,-0.46485 -0.60156,-0.73438 -0.93359,-0.86719 -0.26953,-0.13281 -0.60156,-0.0664 -0.9375,0.19922 -0.33203,0.20312 -0.53516,0.46875 -0.53516,0.80469 0,0.33203 0.13672,0.73437 0.46875,1.13281 z m -2.87109,2.73828 c -1.00391,-1.46875 -1.33594,-2.80469 -1.13672,-4.00781 0.19922,-1.19922 1.00391,-2.26953 2.40625,-3.20313 1.40234,-0.9375 2.73828,-1.33593 3.875,-1.07031 1.19922,0.26563 2.26953,1.13672 3.26953,2.60547 l 3.94141,5.8125 c 1.0039,1.46875 1.40234,2.80469 1.13672,4.00781 -0.19922,1.19922 -1,2.26953 -2.40625,3.20313 -1.40235,0.9375 -2.67188,1.26953 -3.8711,1.0039 -1.20312,-0.26562 -2.27344,-1.13672 -3.27344,-2.53906 z m -12.29297,18.76953 -6.54297,-15.82812 5.47656,-2.27344 2.80469,4.74609 c 0.33594,0.59766 0.66797,1.19922 1.07031,1.86719 0.33203,0.66797 0.73438,1.40234 1.06641,2.20703 -0.33203,-0.9375 -0.60156,-1.80469 -0.80078,-2.53906 -0.19922,-0.73438 -0.40235,-1.33594 -0.46875,-1.73828 l -1.33594,-5.47656 5.48047,-2.26954 6.54297,15.82813 -3.40625,1.40234 -2.40235,-5.80859 c -0.46875,-1.20313 -1.0039,-2.47266 -1.53906,-3.74219 -0.53125,-1.26953 -1,-2.60547 -1.53515,-4.00781 0.33593,1.46875 0.66796,2.67187 0.86718,3.67578 0.26953,1 0.40235,1.60156 0.46875,1.86719 l 2.07032,8.82031 -2.26954,0.93359 -4.60937,-7.34765 c -0.66797,-1.07031 -1.20313,-2.00391 -1.73828,-2.80469 -0.46485,-0.86719 -1,-1.67187 -1.40235,-2.40625 0.53516,1.20313 1.07032,2.40625 1.60547,3.60938 0.53125,1.19921 1.06641,2.53515 1.66797,4.00781 l 2.40625,5.80859 -3.40625,1.40235 z m -16.83203,3.60938 0.46875,-17.36719 5.14453,-0.80078 5.67578,16.42969 -4.07422,0.60156 -0.86719,-3.00391 -2.60546,0.39844 0.0664,3.07422 -3.875,0.60156 z m 3.74219,-6.8125 1.80468,-0.26953 -1.40625,-5.07422 c -0.0664,-0.33594 -0.19922,-0.73438 -0.26562,-1.07032 -0.0664,-0.39843 -0.26563,-1 -0.46875,-1.73437 0,0.46484 0.0664,0.93359 0.0664,1.46875 0,0.46484 0.0703,1 0.0703,1.53516 l 0.13281,5.27734 z m -23.44532,2.33593 3.80469,0.19922 -0.0664,1.40625 c 0,0.59766 0.0664,1 0.26953,1.26563 0.19922,0.26953 0.46484,0.46875 0.93359,0.46875 0.40234,0 0.73437,-0.0664 0.9375,-0.33203 0.26562,-0.26953 0.39844,-0.60157 0.39844,-1.00391 0,-0.33203 -0.0664,-0.73437 -0.26563,-1.06641 -0.20312,-0.40234 -0.53515,-0.73828 -0.9375,-1.13671 -0.19922,-0.19922 -0.46484,-0.40235 -0.86718,-0.73438 -1.20313,-1.00391 -2.00391,-1.80469 -2.47266,-2.33984 -0.39844,-0.46485 -0.73438,-1 -0.93359,-1.60157 -0.19922,-0.60156 -0.26563,-1.26953 -0.26563,-2.0039 0.0664,-1.40235 0.59766,-2.53906 1.46875,-3.27344 0.93359,-0.73437 2.13672,-1.07031 3.73828,-1 1.60547,0.0664 2.73828,0.53125 3.47656,1.26563 0.73438,0.80468 1.06641,1.87109 1,3.33984 l -0.0664,1.40625 -3.67578,-0.20313 0.0703,-1.20312 c 0,-0.53125 -0.0703,-0.93359 -0.20313,-1.19922 -0.19922,-0.26953 -0.46484,-0.40234 -0.86718,-0.40234 -0.33594,0 -0.60157,0.0664 -0.86719,0.33593 -0.20313,0.19922 -0.33594,0.53125 -0.33594,0.86719 -0.0664,0.66797 0.73438,1.66797 2.40625,3.20703 l 0.33203,0.33203 c 1.40235,1.33594 2.27344,2.27344 2.53906,2.80469 0.19922,0.40235 0.33594,0.80078 0.40235,1.20313 0.0664,0.46875 0.13281,0.9375 0.0664,1.40234 -0.0664,1.46875 -0.60156,2.60547 -1.53906,3.33984 -0.93359,0.80079 -2.26953,1.13672 -3.87109,1.00391 -1.60547,-0.0664 -2.875,-0.53516 -3.67578,-1.47266 -0.80078,-0.86718 -1.13281,-2.13671 -1.06641,-3.67187 l 0.0664,-1.26953 z m -15.5625,4.67579 4.53907,-16.76563 5.14453,0.46875 1.67187,17.30078 -4.07812,-0.33594 -0.13281,-3.07031 -2.67188,-0.20312 -0.66797,3.00781 -3.875,-0.33594 z m 5.20704,-5.74219 1.87109,0.13281 -0.13281,-5.27734 c 0,-0.33594 0,-0.73438 0,-1.13672 0,-0.39844 0,-1 0,-1.80078 -0.0664,0.46484 -0.19922,0.93359 -0.26563,1.40234 -0.0703,0.46484 -0.20312,1 -0.33594,1.53516 l -1.07031,5.14453 z m -15.226568,3.26953 2.871098,-13.49219 -2.47266,-0.53125 0.667969,-3.20703 8.683591,1.87109 -0.66797,3.20313 -2.47265,-0.53125 -2.8711,13.49219 z m -11.625,-4.20703 6.546876,-15.82813 3.539062,1.46875 -6.546875,15.82813 z m -10.886718,-12.48828 3.273437,2.0039 -0.734375,1.19922 c -0.335937,0.46875 -0.46875,0.9375 -0.402344,1.26953 0,0.33594 0.199219,0.66797 0.601563,0.8711 0.332031,0.19922 0.667969,0.26562 1,0.19922 0.335937,-0.0664 0.601563,-0.33594 0.804687,-0.66797 0.199219,-0.33594 0.265626,-0.66797 0.265626,-1.07032 0,-0.39843 -0.06641,-0.86718 -0.265626,-1.40234 -0.06641,-0.26562 -0.203124,-0.60156 -0.402343,-1.06641 -0.535157,-1.47265 -0.867188,-2.53906 -1,-3.27343 -0.136719,-0.60157 -0.136719,-1.26953 0,-1.8711 0.132812,-0.60156 0.398437,-1.26953 0.734375,-1.87109 0.734375,-1.20313 1.734375,-1.9375 2.871094,-2.13672 1.136718,-0.19922 2.40625,0.13281 3.742187,0.93359 1.335937,0.8711 2.136719,1.80469 2.46875,2.80469 0.269531,1.07031 0.06641,2.20703 -0.734375,3.41016 l -0.734375,1.19922 -3.074219,-1.9375 0.601563,-1 c 0.269531,-0.46875 0.402343,-0.86719 0.402343,-1.20313 0,-0.33203 -0.199218,-0.60156 -0.601562,-0.80078 -0.265625,-0.19922 -0.601562,-0.19922 -0.867188,-0.13281 -0.269531,0.0664 -0.535156,0.26562 -0.734374,0.60156 -0.335938,0.53125 -0.136719,1.86719 0.53125,3.94141 l 0.07031,0.13281 0.132812,0.33203 c 0.601563,1.87109 0.867188,3.07422 0.867188,3.67578 0,0.39844 -0.132812,0.80078 -0.265625,1.26953 -0.136719,0.39844 -0.335937,0.86719 -0.601563,1.26953 -0.800781,1.26563 -1.804687,2.00391 -3.007812,2.20313 -1.203125,0.19922 -2.539062,-0.13281 -3.941406,-1.00391 -1.402344,-0.86718 -2.203125,-1.86718 -2.46875,-3.0039 -0.269532,-1.13672 0,-2.40625 0.867187,-3.74219 l 0.667969,-1.06641 z m -6.480469,-9.6211 c 0.667969,0.53516 1.203125,0.80078 1.605469,0.80078 0.398437,0 0.734375,-0.19921 1.066406,-0.60156 l 0.601562,-0.73437 c 0.335938,-0.46485 0.46875,-0.86719 0.402344,-1.19922 -0.06641,-0.33594 -0.46875,-0.80469 -1.070312,-1.26953 l -0.132813,-0.0664 -2.539062,3.13672 z m -9.417969,5.54297 10.753906,-13.28906 4.277344,3.47266 c 1.132813,0.86718 1.734375,1.80078 1.933594,2.73828 0.203125,0.93359 -0.132812,1.87109 -0.867188,2.80468 l -0.132812,0.13282 -0.601562,0.73437 c -0.535157,0.66797 -1.136719,1.13672 -1.738282,1.33594 -0.597656,0.20312 -1.265625,0.13672 -2.003906,-0.0664 0.46875,0.66797 0.601562,1.26953 0.535156,1.8711 -0.06641,0.60156 -0.398437,1.26953 -0.933594,2.0039 l -2.472656,3.07422 c -0.265625,0.33203 -0.46875,0.66797 -0.601562,0.9336 -0.132813,0.26562 -0.199219,0.46875 -0.265625,0.73437 l -3.007813,-2.47266 c 0.06641,-0.19921 0.136719,-0.39843 0.269532,-0.66796 0.132812,-0.26563 0.398437,-0.59766 0.734374,-1 l 2.070313,-2.53907 c 0.601563,-0.73437 0.867187,-1.26953 0.800781,-1.66797 -0.06641,-0.40234 -0.398437,-0.87109 -1.066406,-1.47265 l -4.746094,5.8125 -2.9375,-2.40235 z M 48.4375,193.78125 l 12.355469,-11.75781 5.945312,6.28125 -2.40625,2.26953 -3.269531,-3.47266 -2.472656,2.33594 2.9375,3.07422 -2.335938,2.26953 -2.941406,-3.07031 -2.738281,2.60547 3.40625,3.60546 -2.402344,2.27344 z M 40.355469,182.69141 52.976562,170.87109 55.25,174.27734 49.839844,178.75 c -0.269532,0.20312 -0.800782,0.66797 -1.671875,1.33594 -0.867188,0.66797 -1.800781,1.40625 -2.9375,2.27343 1.269531,-0.73437 2.738281,-1.53515 4.476562,-2.47265 0.265625,-0.13281 0.53125,-0.26563 0.667969,-0.33203 l 6.210938,-3.33985 2.203124,3.33985 -15.695312,7.28125 -2.738281,-4.07813 z m -6.28125,-10.88672 15.363281,-7.48047 1.671875,3.47265 -15.363281,7.48047 z m -6.210938,-15.4961 16.164063,-5.61328 1.402344,4.07813 -5.878907,4.14062 c -0.667969,0.46485 -1.335937,0.9336 -2.003906,1.40235 -0.734375,0.46875 -1.46875,0.93359 -2.269531,1.40234 0.800781,-0.40234 1.535156,-0.73438 2.335937,-1.07031 0.804688,-0.33203 1.738281,-0.66797 2.808594,-1.06641 l 6.011719,-2.07031 1.199218,3.53906 -16.164062,5.60938 -1.335938,-3.94141 6.214844,-4.47266 c 0.667969,-0.46875 1.335938,-0.9375 2.070313,-1.40234 0.734375,-0.46875 1.46875,-0.9375 2.269531,-1.33594 -1.203125,0.53125 -2.269531,1 -3.339844,1.40235 -1.070312,0.39843 -2.003906,0.80078 -2.9375,1.13281 l -5.210937,1.80469 -1.203125,-3.53907 z m 14.027344,-14.49609 -12.625,1.40234 c -0.535156,0.0664 -0.933594,0.20313 -1.203125,0.40235 -0.199219,0.19922 -0.332031,0.53515 -0.265625,0.93359 0.06641,0.40234 0.199219,0.66797 0.464844,0.87109 0.269531,0.13282 0.667969,0.19922 1.203125,0.13282 l 12.625,-1.40235 0.402344,3.8711 -11.957032,1.33593 c -1.738281,0.20313 -3.140625,-0.0664 -4.074218,-0.80078 -1.003907,-0.73437 -1.539063,-1.9375 -1.738282,-3.60547 -0.199218,-1.67187 0.132813,-2.9414 0.9375,-3.875 0.800782,-0.93359 2.070313,-1.46875 3.804688,-1.66796 l 11.957031,-1.33594 0.402344,3.87109 z m 0,0"
       id="path6"
       inkscape:connector-curvature="0" />
    <path
       style="fill:#0042a8;fill-opacity:1;fill-rule:evenodd;stroke:none"
       d="m 125.98828,4.078125 c 67.26172,0 122.10156,54.839844 122.10156,122.105465 0,67.26172 -54.83984,122.10157 -122.10156,122.10157 -67.265624,0 -122.105468,-54.83985 -122.105468,-122.10157 0,-67.265621 54.839844,-122.105465 122.105468,-122.105465 z m 0,10.554687 c 61.45313,0 111.61719,50.164063 111.61719,111.617188 0,61.45312 -50.16406,111.61719 -111.61719,111.61719 -61.453124,0 -111.617186,-50.16407 -111.617186,-111.61719 0,-61.453125 50.164062,-111.617188 111.617186,-111.617188 z m 0,2.472657 c 60.11719,0 109.14453,49.027343 109.14453,109.144531 0,60.11719 -49.02734,109.14453 -109.14453,109.14453 -60.117186,0 -109.148436,-49.02734 -109.148436,-109.14453 0,-60.117188 49.03125,-109.144531 109.148436,-109.144531 z m 0,33.464843 c 41.67969,0 75.67969,33.996094 75.67969,75.679688 0,41.67969 -34,75.67969 -75.67969,75.67969 -41.683592,0 -75.683592,-34 -75.683592,-75.67969 0,-41.683594 34,-75.679688 75.683592,-75.679688 z m 0,2.136719 c 40.47656,0 73.54297,33.0625 73.54297,73.542969 0,40.47656 -33.06641,73.54297 -73.54297,73.54297 -40.480468,0 -73.542968,-33.06641 -73.542968,-73.54297 0,-40.480469 33.0625,-73.542969 73.542968,-73.542969 z m 0,-43.019531 c 64.19141,0 116.55859,52.371094 116.55859,116.5625 0,64.19141 -52.36718,116.55859 -116.55859,116.55859 C 61.796875,242.80859 9.425781,190.44141 9.425781,126.25 9.425781,62.058594 61.796875,9.6875 125.98828,9.6875 Z m 0,0"
       id="path8"
       inkscape:connector-curvature="0" />
    <path
       style="fill:#0042a8;fill-opacity:1;fill-rule:evenodd;stroke:none"
       d="m 140.34766,98.996094 h 2.80468 v -3.539063 h 1.8711 v 3.539063 h 3.74218 v -3.539063 h 2.00391 v 5.343749 h -14.96484 v -2.941405 h 1.40234 v -2.402344 h 2.07422 v 3.539063 z m -13.96094,8.617186 c 0.66797,0.0664 1.33594,0.19922 2.0039,0.40235 l 0.80079,-2.14063 c -0.80079,-0.26562 -1.66797,-0.46484 -2.53516,-0.53125 h -0.20312 v 2.26953 z m 2.875,0.73438 c 0.53125,0.26562 1.0664,0.60156 1.53515,1.07031 l 1.66797,-1.67188 c -0.73437,-0.60156 -1.53515,-1.13671 -2.46875,-1.53515 l -0.80468,2.13672 z m 2.26953,1.67187 c 0.26562,0.33203 0.53516,0.66797 0.80078,1 l 2.40625,-0.66797 c -0.40234,-0.73437 -0.9375,-1.40234 -1.53906,-2.0039 z m 1.26953,1.86719 c 0.19922,0.46875 0.39844,1.00391 0.53516,1.53906 h 2.33593 v -1.13672 h -0.0664 c -0.13281,-0.33593 -0.26563,-0.66797 -0.40235,-1.0039 l -2.40234,0.66797 z m -0.19922,2.07031 h -0.0703 c -0.13281,-0.66797 -0.33203,-1.26562 -0.59766,-1.80078 l -0.0703,-0.13281 c -0.39844,-0.66797 -0.86719,-1.33594 -1.40234,-1.80469 l -0.19922,-0.13281 c -1.13672,-1.00391 -2.67188,-1.60547 -4.27344,-1.60547 -3.27344,0 -6.01172,2.40625 -6.61328,5.54687 h -0.0664 v 10.41797 h 13.29297 z m -14.02734,-0.53125 c 0.13281,-0.53515 0.26562,-1.0039 0.53125,-1.53906 l -2.40234,-0.66797 c -0.13282,0.33594 -0.26954,0.66797 -0.40235,1.00391 h -0.0664 v 1.13672 h 2.33984 z m 1,-2.33984 c 0.19922,-0.33203 0.46875,-0.66797 0.73437,-1 l -1.66796,-1.67188 c -0.60157,0.60157 -1.07032,1.26953 -1.53907,2.00391 l 2.40625,0.66797 z m 1.40234,-1.66797 c 0.46875,-0.40234 1.00391,-0.73438 1.53907,-1.07031 l -0.80469,-2.13672 c -0.86719,0.39844 -1.66797,0.93359 -2.40235,1.53515 z m 2.40625,-1.40234 c 0.66797,-0.26954 1.40235,-0.40235 2.13672,-0.40235 v -2.26953 h -0.19922 c -0.9375,0.0664 -1.80468,0.26563 -2.67187,0.53125 l 0.80078,2.14063 z m 6.94531,-2.67188 c 1.67188,0.73438 3.07422,1.86719 4.20704,3.26953 v -3.26953 z m 4.67579,3.87109 c 0.0664,0.13672 0.19921,0.26954 0.26953,0.46875 v -0.46875 z m 0.40234,0.66797 c 0.33203,0.60157 0.66797,1.26953 0.93359,1.9375 h 2.13672 v -1.9375 z m -19.97266,1.9375 c 0.26563,-0.66797 0.53516,-1.33593 0.9336,-1.9375 h -3.00391 v 1.9375 z m 1.26954,-2.53906 c 0,0 0,0 0,-0.0664 z m 0.46875,-0.59766 c 1.13281,-1.40625 2.60156,-2.60546 4.27343,-3.33984 h -4.27343 z m 18.36718,5.74219 h -2.07031 v 1.80469 h 2.07031 z m 0,2.73828 h -2.07031 v 1.80469 h 2.07031 z m 0,2.73828 h -2.07031 v 1.80469 h 2.07031 z m 0,2.73829 h -2.07031 v 1.80468 h 2.07031 z m -17.30078,-8.21485 h -2.07031 v 1.80469 h 2.07031 z m 0,2.73828 h -2.07031 v 1.80469 h 2.07031 z m 0,2.73828 h -2.07031 v 1.73829 h 2.07031 v -1.80469 z m 0,2.73829 h -2.07031 v 1.80468 h 2.07031 z m -5.60937,-6.21094 v 3.33984 h 2.60547 v -3.33984 z m -0.9375,3.33984 v -3.33984 h -3.47266 v 3.33984 z m -0.80078,0.9375 v 3.73828 h 4.34375 v -3.73828 z m -0.9336,3.73828 v -3.73828 h -1.73828 v 3.73828 z m 0.9336,-11.62109 v 2.67187 h 4.34375 v -2.67187 z m -0.9336,2.67187 v -2.67187 h -1.73828 v 2.67187 z m 2.46875,-3.60937 v -1.9375 h -4.14062 v 1.9375 z m 3.8086,-2.87109 v -3.60547 h -5.34375 v 3.60547 z m -6.27735,0 v -3.60547 h -4.94531 v 3.60547 z m -5.8789,0 v -3.60547 h -2.8711 v 3.60547 z m 46.75781,-3.60547 h -3.20703 v 3.60547 h 3.20703 z m -4.14063,0 H 141.75 v 3.60547 h 4.94531 z m -5.8789,0 h -5.34375 v 3.60547 h 5.34375 z m -39.60938,-0.9375 h 2.00391 v -2.67188 h -2.00391 z m 2.9375,0 H 107.75 v -2.67188 h -3.60547 z m 4.54297,0 h 3.00391 v -2.67188 h -3.00391 z m 4.00781,0 h 6.41016 v -2.67188 h -6.41016 z m 7.41407,0 h 5.41015 v -2.67188 h -5.41015 z m 6.34375,0 h 5.41015 v -2.67188 h -5.41015 z m 6.34765,0 h 6.41016 v -2.67188 h -6.41016 z m 7.34766,0 h 3.0039 v -2.67188 h -3.0039 z m 4.00781,0 h 3.60547 v -2.67188 h -3.60547 z m 4.54297,0 h 2.26953 v -2.67188 h -2.26953 z m 2.26953,5.47656 h -6.27734 v 15.43359 h -37.14063 v -15.43359 h -7.07812 V 94.585938 h 3.87109 v 3.542968 h 1.87109 v -3.542968 h 3.74219 v 3.542968 h 1.8711 v -3.542968 h 2.80468 v -7.945313 h 4.07422 V 90.3125 h 2.20313 v -3.671875 h 4.07422 V 90.3125 h 2.20312 v -3.671875 h 4.07812 V 90.3125 h 2.20313 v -3.671875 h 4.00781 v 7.945313 h 3.00391 v 3.542968 h 1.87109 v -3.542968 h 3.74219 v 3.542968 h 1.87109 v -3.542968 h 3.8711 v 15.363282 h -0.9336 z m -7.28125,0 h -4.20703 v 1.9375 h 4.20703 z M 114.63281,95.523438 h -1.87109 V 99.0625 h -3.74219 v -3.539062 h -1.86719 V 99.0625 h -3.74218 v -3.539062 h -2.00391 v 5.343752 h 14.76172 v -2.941409 h -1.40234 v -2.402343 z m 2.33594,5.343752 v -2.941409 h 5.34375 v 2.941409 h -5.41016 z m 6.34766,0 v -2.941409 h 5.41015 v 2.941409 z m 6.34375,0 v -2.941409 h 5.41015 v 2.941409 z m 6.94921,23.57812 h 4.40625 v -3.73828 h -4.40625 z m 5.34375,0 h 1.80079 v -3.73828 h -1.80079 z m -5.48046,-36.871091 v 4.808593 h -20.90625 v -4.808593 h 2.20312 v 3.671875 h 4.00781 v -0.132813 h 0.0703 v -3.539062 h 2.20312 v 3.671875 h 4.00781 v -0.132813 h 0.0664 v -3.539062 h 2.20312 v 3.671875 h 4.00782 v -0.132813 h 0.0664 v -3.539062 h 2.20703 z m -20.90625,9.417969 v -3.671876 h 4.14062 v 3.671876 z m 5.14453,0 v -3.671876 h 5.00781 v 3.671876 z m 6.01172,0 v -3.671876 h 5.00781 v 3.671876 z m 6.01171,0 v -3.671876 h 3.80469 v 3.671876 z m 11.08594,22.777342 v -3.33984 h -3.53906 v 3.33984 z m 0,-4.27344 v -2.67187 h -1.80078 v 2.67187 z m -4.47265,0.9336 v 3.33984 h -2.60547 v -3.33984 z m 1.73437,-3.60547 v 2.67187 h -4.40625 v -2.67187 z m 0,0"
       id="path10"
       inkscape:connector-curvature="0" />
    <path
       style="fill:#0042a8;fill-opacity:1;fill-rule:evenodd;stroke:none"
       d="M 88.246094,89.3125 H 114.5 v 1.46875 H 88.246094 Z m 49.031246,0 h 26.38282 v 1.46875 H 137.27734 Z M 89.316406,104.875 h 11.222654 v 1.46875 H 89.316406 Z m 62.320314,0 h 11.02344 v 1.46875 H 151.63672 Z M 90.117188,117.03125 H 107.35156 V 118.5 H 90.117188 Z m 29.125002,0 h 13.28906 V 118.5 h -13.28906 z m 25.3125,0 h 17.30078 V 118.5 H 144.55469 Z M 93.125,131.79297 h 17.29688 l 6.75,-6.74609 h 2.07031 l -6.7461,6.74609 h 26.1836 l -7.08203,-7.07813 h 1.0039 v 0.39844 h 1.46875 l 6.7461,6.74609 h 18.10156 v 1.46875 H 93.257812 v -1.46875 z m 26.11719,-7.07813 h 0.39844 l -0.39844,0.39844 z m 0,0"
       id="path12"
       inkscape:connector-curvature="0" />
    <path
       style="fill:#0042a8;fill-opacity:1;fill-rule:evenodd;stroke:none"
       d="M 99.066406,67 79.5625,83.96875 c 5.410156,0.597656 9.019531,6.542969 9.085938,11.621094 v 11.824216 c 0,10.55078 0.398437,29.1875 11.890622,33.79688 2.07032,0.80078 12.69141,3.33984 17.83203,5.8789 6.21485,3.07422 6.88282,6.14453 7.6836,6.27735 1.13281,-1.06641 2.26953,-3.53907 6.74609,-5.8086 5.60938,-2.875 15.49609,-5.01172 18.70313,-6.34765 11.48828,-4.60938 11.82421,-23.2461 11.89062,-33.79688 V 96.257812 c 0,-5.410156 3.20313,-11.554687 9.08203,-12.222656 l -19.5039,-16.96875 c -9.28516,5.746094 -15.4961,8.351563 -26.71875,8.417969 -11.42188,0.06641 -17.76563,-2.539063 -27.117191,-8.417969 z m 0.269532,2.539062 -16.03125,13.625 c 0.332031,-0.06641 4.476562,2.070313 6.34375,8.015626 0.804687,2.40625 0.871093,5.34375 0.804687,8.351562 -0.07031,2.80469 0.06641,5.60938 0,8.01563 0.132813,9.82031 0.199219,27.18749 10.753905,31.86328 1.9375,0.80078 12.08985,3.07031 16.96485,5.47656 5.8125,2.87109 7.08203,4.9414 7.8164,5.27734 1.06641,-1.0039 2.26953,-2.53906 6.47656,-4.60937 5.27735,-2.67188 15.09766,-4.87891 18.17188,-6.14453 10.28515,-4.34375 10.41797,-22.04297 10.82031,-31.9961 L 161.39062,100 c 0,-3.207031 -0.26953,-5.679688 0.80079,-8.753906 1.20312,-3.339844 3.27343,-6.476563 6.54687,-8.011719 L 152.64062,69.339844 c -8.88671,5.542968 -15.63281,7.8125 -26.58593,7.878906 -10.42188,0.07031 -17.96875,-2.203125 -26.718752,-7.679688 z m 0,0"
       id="path14"
       inkscape:connector-curvature="0" />
    <path
       style="fill:#0042a8;fill-opacity:1;fill-rule:evenodd;stroke:none"
       d="m 152.03906,73.746094 2.07031,4.34375 4.74219,0.667968 -3.47265,3.339844 0.86718,4.742188 -4.27343,-2.273438 -4.27735,2.273438 0.86719,-4.742188 -3.47266,-3.339844 4.74219,-0.667968 2.07031,-4.34375 z m -26.2539,60.117186 2.07031,4.34375 4.74609,0.66797 -3.47656,3.33984 0.87109,4.74219 -4.27734,-2.27344 -4.27344,2.27344 0.86719,-4.74219 -3.47266,-3.33984 4.74219,-0.66797 2.07031,-4.34375 z m 0,3.00781 1.20312,2.46875 2.73828,0.40235 -2.0039,1.9375 0.46875,2.73828 -2.47266,-1.33594 -2.46875,1.33594 0.46484,-2.73828 -2.0039,-1.9375 2.73828,-0.40235 1.20312,-2.46875 z m -25.914066,-63.124996 2.070316,4.34375 4.74218,0.667968 -3.47265,3.339844 0.86719,4.742188 -4.273442,-2.273438 -4.277344,2.273438 0.867187,-4.742188 -3.472656,-3.339844 4.742187,-0.667968 2.070313,-4.34375 z m 0,3.007812 1.199216,2.472656 2.74219,0.398438 -2.00391,1.9375 0.46485,2.738281 -2.468752,-1.335937 -2.472657,1.335937 0.46875,-2.738281 -2.003906,-1.9375 2.738281,-0.398438 1.199219,-2.472656 z m 52.167966,0 1.19922,2.472656 2.74219,0.398438 -2.00391,1.9375 0.46485,2.738281 -2.46875,-1.335937 -2.47266,1.335937 0.46875,-2.738281 -2.00391,-1.9375 2.73828,-0.398438 1.19922,-2.472656 z m 0,0"
       id="path16"
       inkscape:connector-curvature="0" />
    <path
       style="fill:#0042a8;fill-opacity:1;fill-rule:evenodd;stroke:none"
       d="m 103.47656,163.52344 c -0.19922,0 -0.26562,0.13281 -0.26562,0.33203 0,0.19922 0,0.40234 -0.0664,0.46875 0,0.0664 -0.0703,0.13281 -0.20312,0.26562 -0.33203,0.33594 -0.53516,0.60157 -0.66797,0.73438 -0.13281,0.20312 -0.19922,0.26953 -0.19922,0.26953 0.0664,0.0664 0.19922,0 0.46875,-0.20313 0.13281,-0.0664 0.39844,-0.26562 0.86719,-0.53125 0.33203,-0.20312 0.53515,-0.26953 0.60156,-0.40234 0.0664,-0.0664 0.19922,-0.13281 0.39844,-0.19922 0.26953,-0.13281 0.40234,-0.26953 0.26953,-0.33594 -0.40235,-0.33203 -0.86719,-0.53515 -1.26953,-0.53515 z m 16.83203,-0.8711 c -0.0664,0 -0.0664,0 -0.13281,0.0664 -1,0.40234 -2.67187,0.66797 -5.14453,0.9375 -0.66797,0.0664 -0.73437,0.19922 -0.13281,0.33203 0.60156,0.0664 1.20312,0.0664 1.80469,-0.0664 0.19921,0.26954 0.13281,0.73438 -0.13282,1.26954 -0.60156,1.0039 -1.20312,1.60546 -1.9375,1.87109 -0.13281,0.0664 -0.20312,0.0664 -0.20312,0.13281 -0.13281,0.19922 -0.13281,0.46875 -0.0664,0.80078 0.0664,0.20313 0.13672,0.33594 0.26953,0.33594 0,0 0.13282,-0.0664 0.46485,-0.13281 0.46875,-0.13672 2.20703,-0.60156 5.07812,-1.47266 0.0664,0.0703 0.0664,0.0703 0.13281,0.13672 0.46875,0.46484 0.80079,0.66797 1.00391,0.60156 0.39844,-0.40234 0.33203,-0.87109 -0.13281,-1.47265 -0.33594,-0.33203 -0.8711,-0.60157 -1.60547,-0.80078 -0.73438,-0.19922 -0.93359,-0.13282 -0.66797,0.13281 0.26953,0.26953 0.60156,0.66797 1.00391,1.13672 -1.8711,0.33593 -3.33985,0.60156 -4.41016,0.80078 0.53516,-0.46485 1.26953,-1.20313 2.13672,-2.20313 0.0664,-0.0664 0.13281,-0.13281 0.26953,-0.26562 0.53125,-0.33594 0.46484,-0.66797 -0.26953,-1.00391 1.60547,-0.26562 2.73828,-0.40234 3.33984,-0.53515 0.33594,-0.0664 0.46875,-0.26563 0.33594,-0.46485 -0.13281,-0.13672 -0.46875,-0.20312 -0.9375,-0.20312 z m 16.16407,-0.19922 c -0.19922,0 -0.19922,0.13282 -0.0664,0.33594 0.20312,0.19922 0.13281,0.59766 -0.0664,1.26563 -0.60156,2.33984 -1.40234,4.00781 -2.33593,4.94531 -0.33594,0.33203 -0.26954,0.39844 0.13281,0.19922 1.13672,-0.80078 2.0039,-2.13672 2.67187,-4.00781 0.26563,0.33593 0.66797,1.07031 1.20313,2.20312 0.26562,0.46875 0.46484,0.80469 0.53125,1.00391 0.13672,0.53515 0.73828,0.80078 1.87109,0.66797 0.13281,0 0.20313,0 0.26953,0 0.39844,0 0.60157,-0.0664 0.73438,-0.13282 0.13281,-0.0664 0.0664,-0.13281 -0.13281,-0.20312 -1.73829,-1.06641 -2.94141,-2.07031 -3.47657,-2.9375 -0.39843,-0.46875 -0.66797,-0.80078 -0.86718,-0.9336 0.13281,-0.53515 0.33593,-0.9375 0.53515,-1.33593 0.0664,-0.13672 0.0664,-0.20313 0.0664,-0.26953 -0.13281,-0.19922 -0.53516,-0.46485 -1.13672,-0.66797 z m 14.29687,7.14844 c 0.33203,0.0664 0.86719,0.13281 1.66797,0.0664 0.53516,0 0.87109,0.0664 1.00391,0.0664 0.46484,0.0664 0.66796,-0.0664 0.73437,-0.26562 0,-0.26953 -0.19922,-0.46875 -0.60156,-0.60156 -0.26563,0 -0.73438,0 -1.40235,0.0664 -0.60156,0.0664 -1.0039,0.13282 -1.33593,0.13282 0.13281,-1.26954 0.33203,-2.13672 0.46875,-2.73829 0.0664,-0.19921 0.13281,-0.40234 0.19922,-0.60156 0.0664,-0.13281 0.0664,-0.26562 0.0664,-0.33594 -0.13281,-0.39843 -0.66797,-0.66796 -1.60156,-0.86718 -0.20313,0.0664 -0.26953,0.26953 -0.0703,0.60156 0.13672,0.26562 0.20312,0.53516 0.20312,0.66797 0.0664,1.20312 -0.20312,3.875 -0.80078,8.01562 l -2.14062,-0.0664 c 0,-0.33594 0,-0.80078 0.0664,-1.33594 0.0703,-1.46875 0.13672,-2.33984 0.20313,-2.67188 0,-0.13281 0.0664,-0.33593 0.13281,-0.53515 0.0664,-0.13281 0.0664,-0.26563 0.0664,-0.33203 -0.26563,-0.33594 -0.73438,-0.60157 -1.33594,-0.80469 -0.26563,0 -0.26563,0.13672 -0.0664,0.53516 0.13281,0.26953 0.26563,0.46875 0.26563,0.66796 0.0664,0.73438 0.0664,2.20704 -0.0664,4.41016 -0.86719,0.0664 -1.73437,0 -2.53906,-0.0664 -0.46485,0 -0.59766,0.0664 -0.53125,0.13282 0.19922,0.13281 0.60156,0.26562 1.13281,0.40234 1.73828,-0.0703 3.60938,0 5.54688,0.0664 0.86718,0.0664 1.80078,0.19922 2.67187,0.33203 0.86719,0.0664 1.66797,0.19922 2.40234,0.40234 0.60157,0.13281 0.8711,0 0.80079,-0.40234 -0.26563,-0.46875 -0.66797,-0.73438 -1.26563,-0.80078 -0.20312,0 -0.73828,0 -1.60547,0.0664 -1.20312,0 -2.13672,0 -2.73828,0 l 0.60156,-4.27343 z m -19.10547,-6.48047 c 0.60156,0.80078 1.13672,1.26953 1.53516,1.33594 0.53515,-0.13281 0.66797,-0.53516 0.20312,-1.07031 -1.26953,-0.59766 -1.87109,-0.73438 -1.73828,-0.33203 z m 2.07031,2.40625 c -0.0664,0 -0.33203,0.0664 -0.80078,0.13282 -1.66797,0.33203 -3.20703,0.53515 -4.60937,0.46875 -0.26563,0 -0.26563,0.13281 -0.0664,0.26562 0.26563,0.26563 0.60156,0.46875 0.9336,0.53516 0.13671,0 0.80468,-0.13282 2.0039,-0.46875 0.13672,1.53515 -0.93359,3.27343 -3.20312,5.21093 -0.33594,0.19922 -0.33594,0.26563 0,0.19922 0.26562,-0.0664 0.60156,-0.19922 0.93359,-0.46875 1.33594,-0.86718 2.20313,-1.93359 2.73828,-3.20312 0.0664,0 0.13281,0 0.19922,0.0664 0.46875,0.19922 0.73828,0.33204 0.73828,0.39844 0.0664,0.26953 -0.0703,0.80469 -0.33594,1.60547 -0.26562,0.73438 -0.53515,1.20313 -0.73437,1.26953 -0.0664,0 -0.19922,-0.0664 -0.46875,-0.13672 -0.53516,-0.19922 -0.73438,-0.26562 -0.60156,-0.0664 0.33593,0.40234 0.53515,0.80468 0.60156,1.20312 0,0.0664 0,0.13281 0.0664,0.13281 0.26953,0.13672 0.60156,0 1.0039,-0.33203 0.33203,-0.33593 0.60156,-0.86718 0.80078,-1.60547 0.26563,-0.86718 0.53516,-1.53515 0.80078,-1.93359 0.0664,-0.13672 0.0664,-0.20312 0.0664,-0.20312 -0.13281,-0.33204 -0.33203,-0.53516 -0.66797,-0.73438 -0.0664,0 -0.13281,0 -0.26562,-0.0664 -0.26563,0 -0.60157,-0.0664 -0.80078,-0.0664 0.0664,-0.13281 0.13281,-0.26563 0.26562,-0.40235 0.13281,-0.19921 0.13281,-0.33203 0.13281,-0.39843 0.0664,-0.0664 -0.19922,-0.26953 -0.73437,-0.60157 1.0039,-0.19921 1.87109,-0.26953 2.60547,-0.26953 0.40234,0 0.53515,-0.0664 0.46875,-0.33203 -0.13282,-0.19922 -0.40235,-0.33594 -0.80078,-0.40234 z m 2.07032,3.60547 c 0.0664,0.0664 0.0664,0.13281 0.13672,0.19922 0.59765,0.80469 1.0664,1.13672 1.19921,1.13672 0.53516,-0.19922 0.60157,-0.60156 0.26954,-1.07031 -1.20313,-0.53125 -1.73829,-0.59766 -1.67188,-0.26563 z m -0.46485,2.40625 c 0.80078,1.13281 1.46875,1.80078 2.00391,2.07031 0.60156,-0.20312 0.60156,-0.66796 0.19922,-1.33593 -0.33594,-0.26953 -0.86719,-0.53516 -1.60156,-0.80078 -0.53516,-0.13672 -0.66797,-0.13672 -0.53516,0.0664 z m -16.5664,-1.40234 c 0.53515,-0.0703 1.13672,-0.20313 1.73828,-0.33594 0.53125,-0.0664 0.80078,-0.19922 0.80078,-0.40234 -0.0664,-0.19922 -0.33594,-0.33203 -0.87109,-0.26563 -0.13282,0 -0.26563,0 -0.46485,0.0664 -0.20312,0 -0.60156,0.0664 -1.20312,0.19922 0,-0.26563 0,-0.59766 0.13281,-0.86719 0,-0.13281 0,-0.19922 0,-0.26563 -0.66797,-0.33593 -1.13672,-0.46875 -1.46875,-0.46875 -0.13281,0 -0.13281,0.13282 0,0.46875 0.26563,0.46485 0.40234,0.9336 0.40234,1.40235 -0.33593,0.0664 -0.80468,0.13281 -1.33593,0.26562 -0.60157,0.13282 -0.9375,0.13282 -1.00391,0.13282 -0.53516,0.13671 -0.46875,0.26953 0.26563,0.40234 0.60156,0.0664 1.26953,0 2.07421,-0.13281 l 0.13282,1.87109 c -1.53907,0.19922 -2.94141,0.39844 -4.34375,0.53125 -0.19922,0.0703 -0.39844,0.0703 -0.46485,0.0703 -0.53515,0.0664 -0.73828,0.13282 -0.60156,0.26563 0.19922,0.0664 0.60156,0.13281 1.19922,0.19922 0.0703,0 0.20312,0 0.40234,-0.0664 3.07422,-0.66797 6.27735,-0.93359 9.55078,-0.80078 0.60157,0 0.8711,-0.19922 0.66797,-0.53516 -0.26562,-0.33203 -0.80078,-0.53515 -1.46875,-0.60156 -0.13281,0 -0.33203,0.0664 -0.60156,0.0664 -0.93359,0.20312 -2.07031,0.40234 -3.40625,0.60156 l -0.0664,-1.87109 z m -19.371096,-5.61328 c -0.199219,0 -0.199219,0.0664 -0.132813,0.26953 0.132813,0.26562 0.332031,0.46484 0.667969,0.73437 0.19922,0.19922 0.39844,0.26563 0.53516,0.19922 0.19922,-0.0664 0.26562,-0.26562 0.19922,-0.46875 -0.13282,-0.46484 -0.60157,-0.66797 -1.269536,-0.66797 z m 2.937496,3.40625 c 0.9375,-0.13282 1.53907,-0.26563 1.80469,-0.39844 0.26563,-0.26953 0.0664,-0.33594 -0.60156,-0.33594 -0.13281,0 -0.33203,0.0664 -0.60156,0.13281 -0.26563,0.0664 -0.46485,0.13672 -0.60157,0.13672 0,-0.0703 0,-0.20312 0.0664,-0.33593 0,-0.13282 0.0703,-0.19922 0,-0.26563 0,-0.13672 -0.13281,-0.20312 -0.26562,-0.33594 1.26953,-0.26562 2.07031,-0.39843 2.47265,-0.53515 0.19922,-0.0664 0.26563,-0.19922 0.13281,-0.39844 -0.13281,-0.0664 -0.40234,-0.13281 -0.73437,-0.0664 -0.0664,0 -0.13281,0 -0.40234,0.0664 -1.33594,0.39844 -2.80469,0.73437 -4.542974,0.93359 -0.332031,0.0664 -0.332031,0.13282 -0.06641,0.26953 0.203125,0.0664 0.535156,0.13282 1.003914,0.0664 0.26562,0 0.60156,-0.0664 0.86718,-0.13672 0.19922,0.13672 0.33594,0.46875 0.46875,0.9375 -0.46875,0.13281 -1.0039,0.19922 -1.605469,0.26563 -0.199219,0.13281 -0.06641,0.20312 0.335939,0.26953 0.33203,0 0.73438,-0.0664 1.33594,-0.13672 l 0.0664,0.87109 c -1.20313,0.19922 -2.07032,0.33203 -2.605476,0.39844 -0.265626,0.0664 -0.265626,0.20313 0,0.33594 0.199218,0.0664 0.601562,0.0664 1.136726,0 0.39843,-0.0664 0.80078,-0.0664 1.13672,-0.13281 0.19921,-0.0664 0.33203,-0.0664 0.39843,-0.0664 l 0.13282,1.93359 c -0.13282,0 -0.26563,0.0703 -0.46485,0.0703 -2.671878,0.39843 -4.277346,0.53125 -4.812503,0.59765 -0.265625,0 -0.265625,0.0703 -0.132812,0.20313 0.269531,0.19922 0.535156,0.39843 0.871093,0.46484 0.06641,0 0.199219,0 0.398438,-0.0664 0.9375,-0.39843 3.273444,-0.80078 6.878914,-1.26953 0.9375,-0.0664 2.07422,-0.13281 3.33984,-0.0664 0.13672,0 0.13672,0 0.13672,0 0.39844,-0.0664 0.39844,-0.26563 0.0664,-0.60157 -0.33594,-0.26562 -0.73438,-0.33203 -1.20313,-0.33203 -0.19922,0 -0.66797,0.13282 -1.40234,0.26563 -0.60157,0.13672 -1.07032,0.26953 -1.26953,0.26953 0.46875,-0.46875 0.86718,-0.80078 1,-1.07031 0.13671,-0.13282 0.0703,-0.26563 -0.13282,-0.33203 -0.33203,-0.13672 -0.66797,-0.20313 -1,-0.13672 -0.13281,0 -0.20312,0.13672 -0.0664,0.26953 0.0664,0.19922 0.13281,0.33203 0.0664,0.46875 -0.13281,0.39844 -0.33593,0.66797 -0.53515,0.93359 l -1.13672,0.19922 -0.0664,-1.9375 c 0.26953,-0.0664 0.66797,-0.13281 1.26953,-0.19922 0.80078,-0.13281 1.33594,-0.26562 1.60157,-0.26562 0.26953,-0.0664 0.33593,-0.20313 0.20312,-0.33594 -0.20312,-0.0664 -0.46875,-0.13281 -0.9375,-0.0664 -0.0664,0 -0.26562,0.0664 -0.66797,0.13282 -0.53125,0.0664 -1,0.13281 -1.46875,0.20312 v -0.9375 z m -1.73437,2.53906 c -0.20313,-0.19922 -0.53516,-0.33203 -1.070314,-0.33203 -0.199218,0 -0.132812,0.19922 0.06641,0.53125 0.269532,0.46875 0.535154,0.66797 0.667964,0.66797 0.40235,-0.19922 0.46875,-0.46485 0.26953,-0.86719 z m 3.73828,1.80469 c -0.13281,0 -0.46484,0.0664 -1.13281,0.26562 -1.07031,0.26953 -2.00391,0.46875 -2.8086,0.66797 -0.26562,-0.19922 -0.531246,-0.26562 -0.734371,-0.19922 -0.199219,0.0664 -0.132813,0.19922 0,0.39844 0.136719,0.13672 0.269531,0.53516 0.402341,1.07031 0.13282,0.40235 0.19922,0.73438 0.26563,1.00391 0.13672,0.33203 0.26953,0.46484 0.46875,0.46484 0.13281,-0.0664 0.19922,-0.19922 0.13281,-0.53515 0.13281,0 0.53516,-0.0664 1.26953,-0.13282 1.60547,-0.26562 2.60547,-0.39843 3.14063,-0.39843 0.13281,-0.0664 0.13281,-0.13672 0.0664,-0.20313 -0.13281,-0.13281 -0.26562,-0.19922 -0.53515,-0.26562 0.26953,-0.53516 0.53515,-0.9336 0.9375,-1.13672 0.19922,-0.13282 0.0664,-0.26563 -0.26953,-0.53516 -0.46875,-0.26562 -0.86719,-0.39844 -1.20313,-0.39844 z m -3.80469,1.20312 c 0.0664,0 0.26563,-0.0703 0.66797,-0.13672 1,-0.19922 1.9375,-0.39843 2.8711,-0.46484 0.13281,0 0.19921,0.13281 0.19921,0.53125 -0.0664,0.40234 -0.13281,0.73828 -0.26562,1.00391 l -3.07422,0.66796 -0.33203,-1.60156 z m 0,0"
       id="path18"
       inkscape:connector-curvature="0" />
    <path
       style="fill:#0042a8;fill-opacity:1;fill-rule:evenodd;stroke:none"
       d="m 160.38672,161.58594 c 1.60547,-1.73828 2.07031,-3.33985 2.13672,-4.74219 0,-1.67188 -0.86719,-2.60547 -1.66797,-3.60938 -0.86719,-1.0664 -1.73828,-2.13671 -2.27344,-3.47265 -0.39844,-1 -0.19922,-2.60547 0.26953,-4.20703 1,-3.20703 4.14063,-5.34375 7.14844,-5.34375 h 7.41406 l 0.0664,-3.875 c 0.0664,-2.33985 -1.20313,-4.34375 -2.07031,-6.48047 -0.66797,-1.53516 -1.00391,-3.20703 -1.00391,-4.94141 l 0.13281,-9.28515 h 0.0664 c 0.87109,1.33593 1.67187,2.67187 2.53906,4.00781 1.07031,-1.73828 3.74219,-3.00781 6.88281,-3.00781 4.07422,0 7.34766,2.07422 7.34766,4.60937 0,1.40235 -1.00391,2.67188 -2.60547,3.47656 v 9.6836 c 0.66797,0.80078 1.26953,1.60156 1.80078,2.47265 1.13672,1.80078 1.73828,3.94141 1.33594,6.14453 -1,5.47657 -10.28516,10.95313 -10.41797,16.63282 0,1.13672 0.0664,3.80859 -0.0664,5.8125 -0.0664,0.93359 -0.0664,1.66797 -0.26953,2.13672 -0.46484,0.86718 -1.26953,1 -2.13672,0.86718 -1.87109,-0.40234 -4.27343,-3.0039 -6.01171,-2.53906 -1.46875,0.40234 -1.9375,1.87109 -2.20313,3.27344 -0.40234,2.13672 -0.9375,4.27734 -1.9375,6.34765 -0.9375,1.9375 -2.00391,3.40625 -2.94141,4.40625 -0.66796,0.73438 -1.19921,1.13672 -1.86718,1.33594 -0.66797,0.20313 -1.47266,0.26953 -2.47266,-0.0664 -19.90625,-5.67579 -43.08203,-5.67579 -63.054686,0 -1.003906,0.26953 -1.804688,0.26953 -2.472656,0.0664 -0.667969,-0.19922 -1.269532,-0.60156 -1.871094,-1.33594 -0.867188,-1 -2.003906,-2.46875 -2.9375,-4.40625 -1.003906,-2.0039 -1.605469,-4.14453 -1.9375,-6.34765 -0.269532,-1.40235 -0.667969,-2.8711 -2.203125,-3.27344 -1.671875,-0.46484 -4.144531,2.13672 -6.011719,2.53906 -0.871094,0.19922 -1.738281,0 -2.140625,-0.86718 -0.199219,-0.46875 -0.199219,-1.26954 -0.265625,-2.13672 -0.132812,-2.00391 -0.06641,-4.67578 -0.06641,-5.8125 -0.132813,-5.7461 -9.417969,-11.15625 -10.421875,-16.63282 -0.398438,-2.20312 0.203125,-4.27343 1.335937,-6.14453 0.535156,-0.87109 1.136719,-1.67187 1.804688,-2.47265 v -9.6836 c -1.601563,-0.87109 -2.605469,-2.14062 -2.605469,-3.47656 0,-2.53515 3.273437,-4.60937 7.347656,-4.60937 3.140625,0 5.8125,1.26953 6.878907,3.00781 0.871093,-1.33594 1.671874,-2.67188 2.539062,-4.00781 h 0.06641 l 0.132813,9.28515 c 0,1.73438 -0.332031,3.40625 -1,4.94141 -0.867188,2.13672 -2.136719,4.14062 -2.070313,6.48047 l 0.06641,3.875 h 7.414063 c 3.007813,0 6.144531,2.13672 7.148437,5.34375 0.464844,1.60156 0.667969,3.20703 0.265626,4.20703 -0.535157,1.26953 -1.402344,2.40625 -2.269532,3.47265 -0.800781,1.00391 -1.671875,1.8711 -1.671875,3.60938 0,1.40234 0.535157,3.00391 2.136719,4.74219 24.648436,-5.34375 43.820306,-5.34375 68.667966,-0.0664 z m -3.00391,18.16797 c 0.66797,0.19921 1.40235,0.26562 1.73438,-0.86719 1.40234,-3.94141 -0.26563,-8.95313 -0.13282,-12.89453 0.0664,-1.06641 0.19922,-2.07032 0.60157,-2.9375 -22.97657,-5.21094 -44.01953,-5.21094 -67.128909,0 0.398438,0.86718 0.597657,1.87109 0.597657,2.9375 0.136718,3.9414 -1.535157,8.95312 -0.132813,12.89453 0.335937,1.0664 1.070313,1.0664 1.738281,0.86719 19.972654,-5.47657 42.683594,-5.47657 62.656254,0 z m -65.593748,-0.19922 c -0.9375,-1.8711 -0.9375,-4.60938 -0.667968,-7.28125 0.265625,-2.80469 0.734375,-5.54688 0.332031,-7.48047 -0.265625,-1.33594 -0.867187,-1.80469 -1.601563,-2.875 -1.738281,-2.53906 -2.808593,-5.87891 -0.804687,-8.41406 1.335937,-1.67188 3.140625,-3.14063 3.140625,-4.8125 0,-1.9336 -0.46875,-5.875 -4.875,-6.8125 l -9.285156,-0.0664 c -0.402344,1.67187 -0.734375,5.8125 0.132812,7.34766 1.402344,2.40625 3.207032,5.34375 3.339844,8.88281 l 0.199219,6.61328 c 0.07031,0 0.203125,-0.0664 0.269531,-0.0664 0,0 2.605469,-1 3.941406,1.73828 0.867188,1.80469 0.933594,4.14063 1.535156,6.14454 0.535157,1.73828 1.46875,3.60546 2.605469,5.07812 0.332031,0.46484 1.335938,1.80078 1.738281,2.00391 z M 77.160156,141.54687 c 0,-0.73437 0.06641,-4.34375 0.132813,-6.28125 0.06641,-1.86718 1.269531,-3.67187 2.070312,-5.47656 0.601563,-1.33594 0.800781,-2.73828 1,-4.20703 C 80.5,123.77734 80.5,121.90625 80.5,119.83594 c 0,0 -2.738281,4.54297 -6.746094,9.62109 -2.074218,2.60547 -5.210937,5.34375 -6.816406,8.01563 -1,1.60156 -2.136719,4.47265 -0.734375,7.01171 0.402344,0.73438 0.871094,1.40235 1.402344,2.07032 v -0.0664 c 0,0 5.8125,0.0664 9.6875,-4.94141 z m -8.484375,6.41016 c 3.074219,3.54297 7.011719,6.88281 7.414063,11.82422 0,0.86719 -0.199219,6.54687 0.265625,7.08203 0.269531,0.26563 0.667969,0.46484 1.40625,0.13281 0,0 1.265625,-0.9375 2.671875,-1.67187 -0.07031,-1.19922 -0.136719,-3.8711 -0.269532,-6.8125 -0.132812,-2.33594 -1,-5.14453 -2.472656,-7.21485 -1.265625,-1.86718 -1.667968,-4.47265 -1.402344,-6.67968 0,0 -3.804687,2.67187 -7.613281,3.33984 z M 68.875,132.79687 c 1.539062,-1.67187 3.140625,-3.27343 4.476562,-5.01171 0.667969,-0.80078 1.269532,-1.66797 1.871094,-2.53907 h -6.414062 v 7.55078 z m 7.550781,-9.08593 c 0.597657,-0.80078 1.132813,-1.66797 1.667969,-2.53906 -0.199219,-1.73438 -2.9375,-3.13672 -5.945312,-3.13672 -3.140626,0 -5.945313,1.53515 -5.945313,3.33984 0,0.86719 0.601563,1.66797 1.605469,2.26953 0.332031,0.13281 0.734375,0.26563 1.066406,0.26563 h 6.949219 c 0.199219,0 0.332031,-0.13282 0.53125,-0.26563 z m 83.960939,55.91015 c 0.9375,-1.87109 0.9375,-4.60937 0.66797,-7.28125 -0.26563,-2.80468 -0.73438,-5.54297 -0.33203,-7.48047 0.26562,-1.33593 0.86718,-1.80468 1.60156,-2.875 1.73828,-2.53515 2.80469,-5.875 0.80078,-8.41406 -1.33594,-1.67187 -3.13672,-3.14062 -3.13672,-4.80859 0,-1.9375 0.46484,-5.87891 4.875,-6.81641 l 9.28516,-0.0664 c 0.39843,1.67187 0.73437,5.8125 -0.13282,7.34765 -1.40625,2.40625 -3.20703,5.34375 -3.33984,8.88672 l -0.20312,6.60938 c -0.0664,0 -0.19922,-0.0664 -0.26563,-0.0664 0,0 -2.60547,-1 -3.94141,1.73828 -0.86718,1.80469 -0.93359,4.14063 -1.53515,6.14453 -0.53516,1.73828 -1.47266,3.60938 -2.60547,5.07813 -0.33594,0.46484 -1.33594,1.80078 -1.73828,2.0039 z m 14.6289,-38.00781 c 0,-0.73437 -0.0664,-4.34375 -0.13281,-6.28125 -0.0664,-1.86719 -1.26953,-3.67187 -2.07031,-5.47656 -0.60156,-1.33594 -0.80078,-2.73828 -1.00391,-4.20703 -0.13281,-1.80469 -0.13281,-3.67578 -0.13281,-5.7461 0,0 2.73828,4.54297 6.74609,9.6211 2.07032,2.60547 5.21094,5.34375 6.8125,8.01562 1.00391,1.60156 2.14063,4.47266 0.73438,7.01172 -0.39844,0.73438 -0.86719,1.40234 -1.40234,2.07031 l 0.0664,-0.0664 c 0,0 -5.80859,0.0664 -9.68359,-4.94141 z m 8.48438,6.41016 c -3.07422,3.54297 -7.01563,6.88281 -7.41406,11.82422 0,0.86718 0.19922,6.54687 -0.26953,7.08203 -0.26563,0.26562 -0.66797,0.46484 -1.40235,0.13281 0,0 -1.26953,-0.93359 -2.67187,-1.67188 0.0664,-1.19921 0.13281,-3.87109 0.26953,-6.8125 0.13281,-2.33593 1,-5.14062 2.46875,-7.21484 1.26953,-1.86719 1.67187,-4.47266 1.40234,-6.67969 0,0 3.8086,2.67188 7.61719,3.33985 z m -0.20313,-15.16016 c -1.53515,-1.67187 -3.13671,-3.27344 -4.47265,-5.01172 -0.66797,-0.80078 -1.26953,-1.66797 -1.8711,-2.53906 h 6.41407 v 7.55078 z M 175.75,123.77734 c -0.60156,-0.80078 -1.13672,-1.66796 -1.66797,-2.53906 0.19922,-1.73437 2.9375,-3.13672 5.94531,-3.13672 3.13672,0 5.94141,1.53516 5.94141,3.33985 0,0.86718 -0.59766,1.66797 -1.60156,2.26953 -0.33203,0.13281 -0.73438,0.26562 -1.07032,0.26562 h -7.01171 c -0.19922,0 -0.33594,-0.13281 -0.53516,-0.26562 z m 0,0"
       id="path20"
       inkscape:connector-curvature="0" />
  </g>
</svg>
