<?xml version="1.0" encoding="UTF-8"?>
<svg xmlns="http://www.w3.org/2000/svg" xmlns:xlink="http://www.w3.org/1999/xlink" width="594pt" height="128pt" viewBox="0 0 594 128" version="1.1">
<g id="surface1">
<path style="fill-rule:nonzero;fill:rgb(39.215088%,74.902344%,100%);fill-opacity:1;stroke-width:1;stroke-linecap:round;stroke-linejoin:round;stroke:rgb(0%,0%,0%);stroke-opacity:1;stroke-miterlimit:10;" d="M 161.5 1200.5 L 213.5 1143 L 287.5 1154.5 L 298.5 1226 L 197.5 1261 Z M 161.5 1200.5 " transform="matrix(1,0,0,1,-161,-1134)"/>
<path style="fill:none;stroke-width:1;stroke-linecap:round;stroke-linejoin:round;stroke:rgb(0%,0%,0%);stroke-opacity:1;stroke-miterlimit:10;" d="M 276.140625 1174.855469 L 267.859375 1213.644531 " transform="matrix(1,0,0,1,-161,-1134)"/>
<path style=" stroke:none;fill-rule:nonzero;fill:rgb(0%,0%,0%);fill-opacity:1;" d="M 104.601562 80.058594 C 105.988281 79.160156 107.847656 79.554688 108.75 80.945312 C 109.648438 82.335938 109.253906 84.195312 107.863281 85.09375 C 106.472656 85.996094 104.613281 85.597656 103.714844 84.207031 C 102.8125 82.816406 103.210938 80.960938 104.601562 80.058594 "/>
<path style="fill:none;stroke-width:1;stroke-linecap:butt;stroke-linejoin:miter;stroke:rgb(0%,0%,0%);stroke-opacity:1;stroke-miterlimit:10;" d="M 265.601562 1214.058594 C 266.988281 1213.160156 268.847656 1213.554688 269.75 1214.945312 C 270.648438 1216.335938 270.253906 1218.195312 268.863281 1219.09375 C 267.472656 1219.996094 265.613281 1219.597656 264.714844 1218.210938 C 263.8125 1216.816406 264.210938 1214.960938 265.601562 1214.058594 " transform="matrix(1,0,0,1,-161,-1134)"/>
<path style=" stroke:none;fill-rule:nonzero;fill:rgb(0%,0%,0%);fill-opacity:1;" d="M 117.398438 40.441406 C 116.011719 41.339844 114.152344 40.945312 113.25 39.554688 C 112.351562 38.164062 112.746094 36.304688 114.136719 35.40625 C 115.527344 34.503906 117.386719 34.902344 118.285156 36.292969 C 119.1875 37.683594 118.789062 39.539062 117.398438 40.441406 "/>
<path style="fill:none;stroke-width:1;stroke-linecap:butt;stroke-linejoin:miter;stroke:rgb(0%,0%,0%);stroke-opacity:1;stroke-miterlimit:10;" d="M 278.398438 1174.441406 C 277.011719 1175.339844 275.152344 1174.945312 274.25 1173.554688 C 273.351562 1172.164062 273.746094 1170.304688 275.136719 1169.40625 C 276.527344 1168.503906 278.386719 1168.902344 279.285156 1170.289062 C 280.1875 1171.683594 279.789062 1173.539062 278.398438 1174.441406 " transform="matrix(1,0,0,1,-161,-1134)"/>
<path style=" stroke:none;fill-rule:nonzero;fill:rgb(39.215088%,74.902344%,100%);fill-opacity:1;" d="M 213.429688 44.59375 L 231.140625 25.011719 C 240.175781 15.019531 253.636719 10.246094 266.949219 12.316406 L 290.679688 16.003906 C 307.910156 18.679688 321.421875 32.210938 324.074219 49.445312 L 325.546875 59.042969 C 328.484375 78.132812 317.359375 96.59375 299.109375 102.917969 L 260.421875 116.324219 C 242.488281 122.539062 222.65625 115.296875 212.949219 98.984375 L 208.722656 91.878906 C 199.742188 76.792969 201.652344 57.617188 213.429688 44.59375 Z M 213.429688 44.59375 "/>
<path style="fill:none;stroke-width:1;stroke-linecap:round;stroke-linejoin:round;stroke:rgb(0%,0%,0%);stroke-opacity:1;stroke-miterlimit:10;" d="M 374.429688 1178.597656 L 392.140625 1159.011719 C 401.175781 1149.019531 414.636719 1144.246094 427.949219 1146.316406 L 451.679688 1150.003906 C 468.910156 1152.679688 482.421875 1166.210938 485.074219 1183.445312 L 486.546875 1193.039062 C 489.484375 1212.132812 478.359375 1230.59375 460.109375 1236.917969 L 421.421875 1250.324219 C 403.488281 1256.539062 383.65625 1249.296875 373.949219 1232.984375 L 369.722656 1225.878906 C 360.742188 1210.792969 362.652344 1191.617188 374.429688 1178.597656 Z M 374.429688 1178.597656 " transform="matrix(1,0,0,1,-161,-1134)"/>
<path style="fill:none;stroke-width:1;stroke-linecap:round;stroke-linejoin:round;stroke:rgb(0%,0%,0%);stroke-opacity:1;stroke-miterlimit:10;" d="M 400.261719 1174.855469 L 391.976562 1213.644531 " transform="matrix(1,0,0,1,-161,-1134)"/>
<path style=" stroke:none;fill-rule:nonzero;fill:rgb(0%,0%,0%);fill-opacity:1;" d="M 228.71875 80.058594 C 230.109375 79.160156 231.96875 79.554688 232.867188 80.945312 C 233.769531 82.335938 233.371094 84.195312 231.980469 85.09375 C 230.589844 85.996094 228.734375 85.597656 227.832031 84.207031 C 226.929688 82.816406 227.328125 80.960938 228.71875 80.058594 "/>
<path style="fill:none;stroke-width:1;stroke-linecap:butt;stroke-linejoin:miter;stroke:rgb(0%,0%,0%);stroke-opacity:1;stroke-miterlimit:10;" d="M 389.71875 1214.058594 C 391.109375 1213.160156 392.96875 1213.554688 393.867188 1214.945312 C 394.769531 1216.335938 394.371094 1218.195312 392.980469 1219.09375 C 391.589844 1219.996094 389.734375 1219.597656 388.832031 1218.210938 C 387.929688 1216.816406 388.328125 1214.960938 389.71875 1214.058594 " transform="matrix(1,0,0,1,-161,-1134)"/>
<path style=" stroke:none;fill-rule:nonzero;fill:rgb(0%,0%,0%);fill-opacity:1;" d="M 241.519531 40.441406 C 240.128906 41.339844 238.269531 40.945312 237.371094 39.554688 C 236.46875 38.164062 236.867188 36.304688 238.257812 35.40625 C 239.648438 34.503906 241.503906 34.902344 242.40625 36.292969 C 243.304688 37.683594 242.910156 39.539062 241.519531 40.441406 "/>
<path style="fill:none;stroke-width:1;stroke-linecap:butt;stroke-linejoin:miter;stroke:rgb(0%,0%,0%);stroke-opacity:1;stroke-miterlimit:10;" d="M 402.519531 1174.441406 C 401.128906 1175.339844 399.269531 1174.945312 398.371094 1173.554688 C 397.46875 1172.164062 397.867188 1170.304688 399.257812 1169.40625 C 400.648438 1168.503906 402.503906 1168.902344 403.40625 1170.289062 C 404.304688 1171.683594 403.910156 1173.539062 402.519531 1174.441406 " transform="matrix(1,0,0,1,-161,-1134)"/>
<path style=" stroke:none;fill-rule:nonzero;fill:rgb(39.215088%,74.902344%,100%);fill-opacity:1;" d="M 481.371094 99.023438 L 524 84.25 L 513 12.75 L 500.90625 10.871094 C 498.222656 12.671875 495.738281 14.808594 493.519531 17.261719 L 475.808594 36.84375 C 464.035156 49.867188 462.125 69.042969 471.101562 84.128906 L 475.332031 91.234375 C 477.046875 94.125 479.085938 96.726562 481.371094 99.023438 Z M 481.371094 99.023438 "/>
<path style="fill:none;stroke-width:1;stroke-linecap:round;stroke-linejoin:round;stroke:rgb(0%,0%,0%);stroke-opacity:1;stroke-miterlimit:10;" d="M 642.371094 1233.023438 L 685 1218.25 L 674 1146.75 L 661.90625 1144.871094 C 659.222656 1146.671875 656.738281 1148.808594 654.519531 1151.261719 L 636.808594 1170.847656 C 625.035156 1183.867188 623.125 1203.042969 632.101562 1218.128906 L 636.332031 1225.234375 C 638.046875 1228.121094 640.085938 1230.726562 642.371094 1233.023438 Z M 642.371094 1233.023438 " transform="matrix(1,0,0,1,-161,-1134)"/>
<path style="fill:none;stroke-width:1;stroke-linecap:round;stroke-linejoin:round;stroke:rgb(0%,0%,0%);stroke-opacity:1;stroke-miterlimit:10;" d="M 662.640625 1167.105469 L 654.359375 1205.894531 " transform="matrix(1,0,0,1,-161,-1134)"/>
<path style=" stroke:none;fill-rule:nonzero;fill:rgb(0%,0%,0%);fill-opacity:1;" d="M 491.101562 72.308594 C 492.488281 71.410156 494.347656 71.804688 495.25 73.195312 C 496.148438 74.585938 495.753906 76.445312 494.363281 77.34375 C 492.972656 78.246094 491.113281 77.847656 490.214844 76.457031 C 489.3125 75.066406 489.710938 73.210938 491.101562 72.308594 "/>
<path style="fill:none;stroke-width:1;stroke-linecap:butt;stroke-linejoin:miter;stroke:rgb(0%,0%,0%);stroke-opacity:1;stroke-miterlimit:10;" d="M 652.101562 1206.308594 C 653.488281 1205.410156 655.347656 1205.804688 656.25 1207.195312 C 657.148438 1208.585938 656.753906 1210.445312 655.363281 1211.34375 C 653.972656 1212.246094 652.113281 1211.847656 651.214844 1210.460938 C 650.3125 1209.066406 650.710938 1207.210938 652.101562 1206.308594 " transform="matrix(1,0,0,1,-161,-1134)"/>
<path style=" stroke:none;fill-rule:nonzero;fill:rgb(0%,0%,0%);fill-opacity:1;" d="M 503.898438 32.691406 C 502.511719 33.589844 500.652344 33.195312 499.75 31.804688 C 498.851562 30.414062 499.246094 28.554688 500.636719 27.65625 C 502.027344 26.753906 503.886719 27.152344 504.785156 28.542969 C 505.6875 29.933594 505.289062 31.789062 503.898438 32.691406 "/>
<path style="fill:none;stroke-width:1;stroke-linecap:butt;stroke-linejoin:miter;stroke:rgb(0%,0%,0%);stroke-opacity:1;stroke-miterlimit:10;" d="M 664.898438 1166.691406 C 663.511719 1167.589844 661.652344 1167.195312 660.75 1165.804688 C 659.851562 1164.414062 660.246094 1162.554688 661.636719 1161.65625 C 663.027344 1160.753906 664.886719 1161.152344 665.785156 1162.539062 C 666.6875 1163.933594 666.289062 1165.789062 664.898438 1166.691406 " transform="matrix(1,0,0,1,-161,-1134)"/>
<path style="fill:none;stroke-width:1;stroke-linecap:round;stroke-linejoin:round;stroke:rgb(0%,0%,0%);stroke-opacity:1;stroke-dasharray:1,4;stroke-miterlimit:10;" d="M 636.546875 1170.847656 L 654.257812 1151.261719 C 663.296875 1141.269531 676.753906 1136.496094 690.070312 1138.566406 L 713.800781 1142.253906 C 731.03125 1144.929688 744.539062 1158.460938 747.191406 1175.695312 L 748.667969 1185.289062 C 751.605469 1204.382812 740.480469 1222.84375 722.230469 1229.167969 L 683.539062 1242.574219 C 665.605469 1248.789062 645.773438 1241.546875 636.066406 1225.234375 L 631.839844 1218.128906 C 622.863281 1203.042969 624.773438 1183.867188 636.546875 1170.847656 Z M 636.546875 1170.847656 " transform="matrix(1,0,0,1,-161,-1134)"/>
<path style="fill:none;stroke-width:1;stroke-linecap:round;stroke-linejoin:round;stroke:rgb(0%,0%,0%);stroke-opacity:1;stroke-dasharray:1,4;stroke-miterlimit:10;" d="M 547.738281 1192.75 L 599.738281 1135.25 L 673.738281 1146.75 L 684.738281 1218.25 L 583.738281 1253.25 Z M 547.738281 1192.75 " transform="matrix(1,0,0,1,-161,-1134)"/>
</g>
</svg>
