<?xml version="1.0" encoding="UTF-8"?>
<svg xmlns="http://www.w3.org/2000/svg" xmlns:xlink="http://www.w3.org/1999/xlink" width="255px" height="195px" viewBox="0 0 255 195" version="1.1">
<g id="surface1">
<path style=" stroke:none;fill-rule:nonzero;fill:rgb(0%,0%,0%);fill-opacity:1;" d="M 152.058594 47.808594 L 149.011719 41.625 L 147.984375 41.625 L 144.9375 47.808594 L 146.082031 47.808594 L 148.484375 42.914062 L 148.511719 42.914062 L 150.914062 47.808594 Z M 152.058594 47.808594 "/>
<path style="fill:none;stroke-width:1;stroke-linecap:round;stroke-linejoin:round;stroke:rgb(0%,0%,0%);stroke-opacity:1;stroke-miterlimit:10;" d="M 161.2 167.5 L 284.977083 167.5 " transform="matrix(1.875,0,0,1.875,-292.5,-163.125)"/>
<path style="fill:none;stroke-width:1;stroke-linecap:butt;stroke-linejoin:miter;stroke:rgb(0%,0%,0%);stroke-opacity:1;stroke-miterlimit:10;" d="M 288.977083 167.5 L 284.977083 167.5 M 284.977083 166 L 288.977083 167.5 L 284.977083 169 " transform="matrix(1.875,0,0,1.875,-292.5,-163.125)"/>
<path style=" stroke:none;fill-rule:nonzero;fill:rgb(0%,0%,0%);fill-opacity:1;" d="M 148.046875 165.59375 C 147.722656 164.070312 147.460938 163.660156 146.875 163.660156 C 146.375 163.660156 145.613281 163.835938 144.265625 164.335938 L 144.003906 164.421875 L 144.0625 164.773438 L 144.472656 164.65625 C 144.910156 164.539062 145.175781 164.511719 145.351562 164.511719 C 145.90625 164.511719 146.082031 164.6875 146.40625 166.035156 L 147.019531 168.816406 L 145.175781 171.425781 C 144.707031 172.097656 144.265625 172.539062 144.03125 172.539062 C 143.886719 172.539062 143.679688 172.480469 143.445312 172.332031 C 143.152344 172.1875 142.917969 172.097656 142.714844 172.097656 C 142.273438 172.097656 141.953125 172.449219 141.953125 172.890625 C 141.953125 173.476562 142.390625 173.828125 143.09375 173.828125 C 143.769531 173.828125 144.238281 173.652344 145.234375 172.304688 L 147.195312 169.636719 L 147.839844 172.304688 C 148.132812 173.445312 148.457031 173.828125 149.1875 173.828125 C 150.039062 173.828125 150.625 173.300781 151.914062 171.277344 L 151.589844 171.074219 C 151.414062 171.308594 151.328125 171.425781 151.121094 171.6875 C 150.59375 172.390625 150.359375 172.597656 150.066406 172.597656 C 149.746094 172.597656 149.539062 172.304688 149.394531 171.6875 L 148.660156 168.671875 C 148.542969 168.113281 148.484375 167.820312 148.484375 167.644531 C 149.480469 165.917969 150.273438 164.921875 150.683594 164.921875 C 151.238281 164.921875 151.445312 165.300781 151.855469 165.300781 C 152.324219 165.300781 152.617188 164.980469 152.617188 164.511719 C 152.617188 164.011719 152.234375 163.660156 151.707031 163.660156 C 150.710938 163.660156 149.890625 164.480469 148.308594 166.882812 Z M 148.046875 165.59375 "/>
<path style="fill:none;stroke-width:1;stroke-linecap:round;stroke-linejoin:round;stroke:rgb(0%,0%,0%);stroke-opacity:1;stroke-miterlimit:10;" d="M 172 180.875 L 172 93.647917 " transform="matrix(1.875,0,0,1.875,-292.5,-163.125)"/>
<path style="fill:none;stroke-width:1;stroke-linecap:butt;stroke-linejoin:miter;stroke:rgb(0%,0%,0%);stroke-opacity:1;stroke-miterlimit:10;" d="M 172 89.647917 L 172 93.647917 M 170.5 93.647917 L 172 89.647917 L 173.5 93.647917 " transform="matrix(1.875,0,0,1.875,-292.5,-163.125)"/>
<path style=" stroke:none;fill-rule:nonzero;fill:rgb(0%,0%,0%);fill-opacity:1;" d="M 14.921875 63.722656 C 14.539062 61.730469 13.339844 57.980469 12.988281 57.980469 L 12.898438 57.980469 C 11.699219 58.15625 10.9375 58.300781 10.496094 58.390625 C 10.261719 58.449219 10.027344 58.476562 9.792969 58.535156 L 9.792969 58.917969 C 10.027344 58.828125 10.234375 58.828125 10.46875 58.828125 C 11.375 58.828125 11.785156 59.152344 12.195312 60.265625 C 12.8125 61.789062 14.042969 66.828125 14.042969 67.734375 C 14.042969 67.96875 13.953125 68.261719 13.835938 68.527344 C 13.660156 68.820312 12.636719 70.136719 12.226562 70.578125 C 11.726562 71.132812 11.433594 71.308594 11.140625 71.308594 C 10.554688 71.308594 10.554688 70.664062 9.792969 70.664062 C 9.296875 70.664062 8.914062 71.074219 8.914062 71.574219 C 8.914062 72.160156 9.382812 72.539062 10.058594 72.539062 C 11.347656 72.539062 13.75 69.960938 16.09375 66.09375 C 17.9375 62.988281 19.023438 60.5 19.023438 59.238281 C 19.023438 58.566406 18.523438 57.980469 17.851562 57.980469 C 17.351562 57.980469 16.972656 58.332031 16.972656 58.828125 C 16.972656 59.179688 17.089844 59.414062 17.527344 59.707031 C 17.96875 59.972656 18.113281 60.117188 18.113281 60.410156 C 18.113281 61.40625 17.292969 63.019531 15.390625 66.210938 Z M 14.921875 63.722656 "/>
<path style="fill-rule:nonzero;fill:rgb(100%,100%,100%);fill-opacity:1;stroke-width:1;stroke-linecap:round;stroke-linejoin:round;stroke:rgb(48.627451%,74.117649%,97.647059%);stroke-opacity:1;stroke-miterlimit:10;" d="M 198.460417 118.65625 C 199.045833 119.241667 199.045833 120.195833 198.460417 120.78125 C 197.875 121.3625 196.925 121.3625 196.339583 120.78125 C 195.754167 120.195833 195.754167 119.241667 196.339583 118.65625 C 196.925 118.075 197.875 118.075 198.460417 118.65625 " transform="matrix(1.875,0,0,1.875,-292.5,-163.125)"/>
<path style="fill:none;stroke-width:1;stroke-linecap:round;stroke-linejoin:round;stroke:rgb(48.627451%,74.117649%,97.647059%);stroke-opacity:1;stroke-miterlimit:10;" d="M 197.391667 121.21875 L 197.258333 140.25 " transform="matrix(1.875,0,0,1.875,-292.5,-163.125)"/>
<path style="fill-rule:nonzero;fill:rgb(100%,100%,100%);fill-opacity:1;stroke-width:1;stroke-linecap:round;stroke-linejoin:round;stroke:rgb(48.627451%,74.117649%,97.647059%);stroke-opacity:1;stroke-miterlimit:10;" d="M 187.960417 156.670833 C 188.545833 157.258333 188.545833 158.20625 187.960417 158.79375 C 187.375 159.379167 186.425 159.379167 185.839583 158.79375 C 185.254167 158.20625 185.254167 157.258333 185.839583 156.670833 C 186.425 156.085417 187.375 156.085417 187.960417 156.670833 " transform="matrix(1.875,0,0,1.875,-292.5,-163.125)"/>
<path style="fill:none;stroke-width:1;stroke-linecap:round;stroke-linejoin:round;stroke:rgb(48.627451%,74.117649%,97.647059%);stroke-opacity:1;stroke-miterlimit:10;" d="M 186.9375 156.233333 L 187.2375 144.691667 " transform="matrix(1.875,0,0,1.875,-292.5,-163.125)"/>
<path style="fill-rule:nonzero;fill:rgb(100%,100%,100%);fill-opacity:1;stroke-width:1;stroke-linecap:round;stroke-linejoin:round;stroke:rgb(48.627451%,74.117649%,97.647059%);stroke-opacity:1;stroke-miterlimit:10;" d="M 235.7625 141.858333 C 236.347917 142.445833 236.347917 143.39375 235.7625 143.98125 C 235.175 144.566667 234.227083 144.566667 233.639583 143.98125 C 233.054167 143.39375 233.054167 142.445833 233.639583 141.858333 C 234.227083 141.272917 235.175 141.272917 235.7625 141.858333 " transform="matrix(1.875,0,0,1.875,-292.5,-163.125)"/>
<path style="fill:none;stroke-width:1;stroke-linecap:round;stroke-linejoin:round;stroke:rgb(48.627451%,74.117649%,97.647059%);stroke-opacity:1;stroke-miterlimit:10;" d="M 234.745833 141.420833 L 235.295833 123.3875 " transform="matrix(1.875,0,0,1.875,-292.5,-163.125)"/>
<path style="fill-rule:nonzero;fill:rgb(100%,100%,100%);fill-opacity:1;stroke-width:1;stroke-linecap:round;stroke-linejoin:round;stroke:rgb(48.627451%,74.117649%,97.647059%);stroke-opacity:1;stroke-miterlimit:10;" d="M 215.25 99.039583 C 215.83125 99.625 215.83125 100.575 215.25 101.160417 C 214.664583 101.745833 213.710417 101.745833 213.125 101.160417 C 212.54375 100.575 212.54375 99.625 213.125 99.039583 C 213.710417 98.454167 214.664583 98.454167 215.25 99.039583 " transform="matrix(1.875,0,0,1.875,-292.5,-163.125)"/>
<path style="fill:none;stroke-width:1;stroke-linecap:round;stroke-linejoin:round;stroke:rgb(48.627451%,74.117649%,97.647059%);stroke-opacity:1;stroke-miterlimit:10;" d="M 214.170833 101.602083 L 213.835417 132.897917 " transform="matrix(1.875,0,0,1.875,-292.5,-163.125)"/>
<path style="fill-rule:nonzero;fill:rgb(100%,100%,100%);fill-opacity:1;stroke-width:1;stroke-linecap:round;stroke-linejoin:round;stroke:rgb(48.627451%,74.117649%,97.647059%);stroke-opacity:1;stroke-miterlimit:10;" d="M 274.5625 90.839583 C 275.147917 91.425 275.147917 92.375 274.5625 92.960417 C 273.977083 93.545833 273.022917 93.545833 272.4375 92.960417 C 271.85625 92.375 271.85625 91.425 272.4375 90.839583 C 273.022917 90.254167 273.977083 90.254167 274.5625 90.839583 " transform="matrix(1.875,0,0,1.875,-292.5,-163.125)"/>
<path style="fill:none;stroke-width:1;stroke-linecap:round;stroke-linejoin:round;stroke:rgb(48.627451%,74.117649%,97.647059%);stroke-opacity:1;stroke-miterlimit:10;" d="M 273.464583 93.397917 L 273.16875 106.597917 " transform="matrix(1.875,0,0,1.875,-292.5,-163.125)"/>
<path style="fill:none;stroke-width:1;stroke-linecap:round;stroke-linejoin:round;stroke:rgb(0%,0%,0%);stroke-opacity:1;stroke-miterlimit:10;" d="M 161.2 156.23125 L 290.875 98.75 " transform="matrix(1.875,0,0,1.875,-292.5,-163.125)"/>
<path style=" stroke:none;fill-rule:nonzero;fill:rgb(0%,0%,0%);fill-opacity:1;" d="M 148.457031 55.621094 C 148.078125 53.628906 146.875 49.878906 146.523438 49.878906 L 146.4375 49.878906 C 145.234375 50.054688 144.472656 50.203125 144.035156 50.289062 C 143.800781 50.347656 143.566406 50.378906 143.332031 50.4375 L 143.332031 50.816406 C 143.566406 50.730469 143.769531 50.730469 144.003906 50.730469 C 144.914062 50.730469 145.324219 51.050781 145.734375 52.164062 C 146.347656 53.6875 147.578125 58.726562 147.578125 59.636719 C 147.578125 59.871094 147.492188 60.164062 147.375 60.425781 C 147.199219 60.71875 146.171875 62.039062 145.761719 62.476562 C 145.265625 63.035156 144.972656 63.210938 144.679688 63.210938 C 144.09375 63.210938 144.09375 62.566406 143.332031 62.566406 C 142.832031 62.566406 142.453125 62.976562 142.453125 63.472656 C 142.453125 64.058594 142.921875 64.441406 143.59375 64.441406 C 144.882812 64.441406 147.285156 61.863281 149.628906 57.996094 C 151.476562 54.890625 152.558594 52.398438 152.558594 51.140625 C 152.558594 50.464844 152.0625 49.878906 151.386719 49.878906 C 150.890625 49.878906 150.507812 50.230469 150.507812 50.730469 C 150.507812 51.082031 150.625 51.316406 151.066406 51.609375 C 151.503906 51.871094 151.652344 52.019531 151.652344 52.3125 C 151.652344 53.308594 150.832031 54.917969 148.925781 58.113281 Z M 148.457031 55.621094 "/>
<path style=" stroke:none;fill-rule:nonzero;fill:rgb(0%,0%,0%);fill-opacity:1;" d="M 156.367188 44.78125 C 155.34375 45.71875 154.726562 46.304688 154.289062 47.039062 C 153.703125 47.976562 153.4375 49.117188 153.4375 50.289062 C 153.4375 51.726562 153.847656 53.191406 154.550781 54.363281 L 154.757812 54.273438 C 154.347656 53.132812 154.230469 52.457031 154.230469 51.34375 C 154.230469 49.058594 154.816406 46.570312 156.515625 44.957031 Z M 156.367188 44.78125 "/>
<path style=" stroke:none;fill-rule:nonzero;fill:rgb(0%,0%,0%);fill-opacity:1;" d="M 159.675781 45.574219 C 159.675781 45.25 159.441406 44.957031 159.117188 44.957031 C 158.824219 44.957031 158.589844 45.191406 158.589844 45.542969 C 158.589844 45.925781 158.796875 46.160156 159.148438 46.160156 C 159.441406 46.160156 159.675781 45.894531 159.675781 45.574219 Z M 159.207031 51.023438 C 158.738281 51.667969 158.472656 51.902344 158.269531 51.902344 C 158.179688 51.902344 158.121094 51.84375 158.121094 51.726562 C 158.121094 51.578125 158.179688 51.433594 158.210938 51.257812 L 159.292969 47.390625 L 159.234375 47.359375 C 158.09375 47.566406 157.886719 47.59375 157.449219 47.625 L 157.449219 47.800781 C 158.035156 47.828125 158.152344 47.859375 158.152344 48.09375 C 158.152344 48.179688 158.121094 48.386719 158.0625 48.589844 L 157.507812 50.554688 C 157.359375 51.199219 157.273438 51.578125 157.273438 51.8125 C 157.273438 52.222656 157.449219 52.429688 157.828125 52.429688 C 158.386719 52.429688 158.738281 52.105469 159.351562 51.140625 Z M 159.207031 51.023438 "/>
<path style=" stroke:none;fill-rule:nonzero;fill:rgb(0%,0%,0%);fill-opacity:1;" d="M 161.777344 44.839844 C 162.15625 45.75 162.304688 46.65625 162.304688 47.800781 C 162.304688 48.855469 162.128906 50.144531 161.777344 51.226562 C 161.398438 52.398438 160.957031 53.160156 160.019531 54.15625 L 160.164062 54.332031 C 161.191406 53.453125 161.777344 52.808594 162.21875 52.078125 C 162.773438 51.109375 163.09375 50.027344 163.09375 48.882812 C 163.09375 48.296875 163.007812 47.625 162.890625 47.007812 C 162.6875 46.160156 162.507812 45.71875 161.984375 44.78125 Z M 161.777344 44.839844 "/>
<path style=" stroke:none;fill-rule:nonzero;fill:rgb(0%,0%,0%);fill-opacity:1;" d="M 148.457031 122.1875 C 148.078125 120.195312 146.875 116.445312 146.523438 116.445312 L 146.4375 116.445312 C 145.234375 116.621094 144.472656 116.765625 144.035156 116.855469 C 143.800781 116.914062 143.566406 116.941406 143.332031 117 L 143.332031 117.382812 C 143.566406 117.292969 143.769531 117.292969 144.003906 117.292969 C 144.914062 117.292969 145.324219 117.617188 145.734375 118.730469 C 146.347656 120.253906 147.578125 125.292969 147.578125 126.199219 C 147.578125 126.433594 147.492188 126.726562 147.375 126.992188 C 147.199219 127.285156 146.171875 128.601562 145.761719 129.042969 C 145.265625 129.597656 144.972656 129.773438 144.679688 129.773438 C 144.09375 129.773438 144.09375 129.128906 143.332031 129.128906 C 142.832031 129.128906 142.453125 129.539062 142.453125 130.039062 C 142.453125 130.625 142.921875 131.003906 143.59375 131.003906 C 144.882812 131.003906 147.285156 128.425781 149.628906 124.558594 C 151.476562 121.453125 152.558594 118.964844 152.558594 117.703125 C 152.558594 117.03125 152.0625 116.445312 151.386719 116.445312 C 150.890625 116.445312 150.507812 116.796875 150.507812 117.292969 C 150.507812 117.644531 150.625 117.878906 151.066406 118.171875 C 151.503906 118.4375 151.652344 118.582031 151.652344 118.875 C 151.652344 119.871094 150.832031 121.484375 148.925781 124.675781 Z M 148.457031 122.1875 "/>
<path style=" stroke:none;fill-rule:nonzero;fill:rgb(0%,0%,0%);fill-opacity:1;" d="M 156.367188 111.347656 C 155.34375 112.285156 154.726562 112.871094 154.289062 113.601562 C 153.703125 114.539062 153.4375 115.683594 153.4375 116.855469 C 153.4375 118.289062 153.847656 119.753906 154.550781 120.925781 L 154.757812 120.839844 C 154.347656 119.695312 154.230469 119.023438 154.230469 117.910156 C 154.230469 115.625 154.816406 113.132812 156.515625 111.523438 Z M 156.367188 111.347656 "/>
<path style=" stroke:none;fill-rule:nonzero;fill:rgb(0%,0%,0%);fill-opacity:1;" d="M 159.675781 112.136719 C 159.675781 111.816406 159.441406 111.523438 159.117188 111.523438 C 158.824219 111.523438 158.589844 111.757812 158.589844 112.109375 C 158.589844 112.488281 158.796875 112.722656 159.148438 112.722656 C 159.441406 112.722656 159.675781 112.460938 159.675781 112.136719 Z M 159.207031 117.585938 C 158.738281 118.230469 158.472656 118.464844 158.269531 118.464844 C 158.179688 118.464844 158.121094 118.40625 158.121094 118.289062 C 158.121094 118.144531 158.179688 117.996094 158.210938 117.820312 L 159.292969 113.953125 L 159.234375 113.925781 C 158.09375 114.128906 157.886719 114.160156 157.449219 114.1875 L 157.449219 114.363281 C 158.035156 114.394531 158.152344 114.421875 158.152344 114.65625 C 158.152344 114.746094 158.121094 114.949219 158.0625 115.15625 L 157.507812 117.117188 C 157.359375 117.761719 157.273438 118.144531 157.273438 118.378906 C 157.273438 118.789062 157.449219 118.992188 157.828125 118.992188 C 158.386719 118.992188 158.738281 118.671875 159.351562 117.703125 Z M 159.207031 117.585938 "/>
<path style=" stroke:none;fill-rule:nonzero;fill:rgb(0%,0%,0%);fill-opacity:1;" d="M 161.777344 111.40625 C 162.15625 112.3125 162.304688 113.222656 162.304688 114.363281 C 162.304688 115.417969 162.128906 116.707031 161.777344 117.792969 C 161.398438 118.964844 160.957031 119.726562 160.019531 120.722656 L 160.164062 120.898438 C 161.191406 120.019531 161.777344 119.375 162.21875 118.640625 C 162.773438 117.675781 163.09375 116.589844 163.09375 115.449219 C 163.09375 114.863281 163.007812 114.1875 162.890625 113.574219 C 162.6875 112.722656 162.507812 112.285156 161.984375 111.347656 Z M 161.777344 111.40625 "/>
</g>
</svg>
