<?xml version="1.0" encoding="UTF-8"?>
<svg xmlns="http://www.w3.org/2000/svg" xmlns:xlink="http://www.w3.org/1999/xlink" width="332pt" height="119pt" viewBox="0 0 332 119" version="1.1">
<g id="surface1">
<path style="fill-rule:nonzero;fill:rgb(39.215088%,74.902344%,100%);fill-opacity:1;stroke-width:1;stroke-linecap:round;stroke-linejoin:round;stroke:rgb(0%,0%,0%);stroke-opacity:1;stroke-miterlimit:10;" d="M 161.5 1386 L 213.5 1328.5 L 287.5 1340 L 298.5 1411.5 L 197.5 1446.5 Z M 161.5 1386 " transform="matrix(1,0,0,1,-161,-1328)"/>
<path style=" stroke:none;fill-rule:nonzero;fill:rgb(39.215088%,74.902344%,100%);fill-opacity:1;" d="M 213.429688 36.09375 L 231.140625 16.511719 C 240.175781 6.519531 253.636719 1.746094 266.949219 3.816406 L 290.679688 7.503906 C 307.910156 10.179688 321.421875 23.710938 324.074219 40.945312 L 325.546875 50.542969 C 328.484375 69.632812 317.359375 88.09375 299.109375 94.417969 L 260.421875 107.824219 C 242.488281 114.039062 222.65625 106.796875 212.949219 90.484375 L 208.722656 83.378906 C 199.742188 68.292969 201.652344 49.117188 213.429688 36.09375 Z M 213.429688 36.09375 "/>
<path style="fill:none;stroke-width:1;stroke-linecap:round;stroke-linejoin:round;stroke:rgb(0%,0%,0%);stroke-opacity:1;stroke-miterlimit:10;" d="M 374.429688 1364.097656 L 392.140625 1344.511719 C 401.175781 1334.519531 414.636719 1329.746094 427.949219 1331.816406 L 451.679688 1335.503906 C 468.910156 1338.179688 482.421875 1351.710938 485.074219 1368.945312 L 486.546875 1378.539062 C 489.484375 1397.632812 478.359375 1416.09375 460.109375 1422.417969 L 421.421875 1435.824219 C 403.488281 1442.039062 383.65625 1434.796875 373.949219 1418.484375 L 369.722656 1411.378906 C 360.742188 1396.292969 362.652344 1377.117188 374.429688 1364.097656 Z M 374.429688 1364.097656 " transform="matrix(1,0,0,1,-161,-1328)"/>
<path style="fill:none;stroke-width:1;stroke-linecap:round;stroke-linejoin:round;stroke:rgb(0%,0%,0%);stroke-opacity:1;stroke-miterlimit:10;" d="M 392.007812 1384.785156 L 267.992188 1390.214844 " transform="matrix(1,0,0,1,-161,-1328)"/>
<path style=" stroke:none;fill-rule:nonzero;fill:rgb(0%,0%,0%);fill-opacity:1;" d="M 106.023438 60.132812 C 107.246094 61.253906 107.328125 63.152344 106.207031 64.375 C 105.089844 65.59375 103.191406 65.679688 101.96875 64.558594 C 100.75 63.441406 100.664062 61.542969 101.785156 60.320312 C 102.902344 59.097656 104.800781 59.015625 106.023438 60.132812 "/>
<path style="fill:none;stroke-width:1;stroke-linecap:butt;stroke-linejoin:miter;stroke:rgb(0%,0%,0%);stroke-opacity:1;stroke-miterlimit:10;" d="M 267.023438 1388.136719 C 268.246094 1389.253906 268.328125 1391.152344 267.207031 1392.371094 C 266.089844 1393.59375 264.191406 1393.679688 262.96875 1392.558594 C 261.75 1391.441406 261.664062 1389.542969 262.785156 1388.320312 C 263.902344 1387.097656 265.800781 1387.015625 267.023438 1388.136719 " transform="matrix(1,0,0,1,-161,-1328)"/>
<path style=" stroke:none;fill-rule:nonzero;fill:rgb(0%,0%,0%);fill-opacity:1;" d="M 231.976562 58.867188 C 230.753906 57.746094 230.671875 55.847656 231.792969 54.625 C 232.910156 53.40625 234.808594 53.320312 236.03125 54.441406 C 237.25 55.558594 237.335938 57.457031 236.214844 58.679688 C 235.097656 59.902344 233.199219 59.984375 231.976562 58.867188 "/>
<path style="fill:none;stroke-width:1;stroke-linecap:butt;stroke-linejoin:miter;stroke:rgb(0%,0%,0%);stroke-opacity:1;stroke-miterlimit:10;" d="M 392.976562 1386.863281 C 391.753906 1385.746094 391.671875 1383.847656 392.792969 1382.628906 C 393.910156 1381.40625 395.808594 1381.320312 397.03125 1382.441406 C 398.25 1383.558594 398.335938 1385.457031 397.214844 1386.679688 C 396.097656 1387.902344 394.199219 1387.984375 392.976562 1386.863281 " transform="matrix(1,0,0,1,-161,-1328)"/>
<path style="fill:none;stroke-width:2;stroke-linecap:round;stroke-linejoin:round;stroke:rgb(100%,14.901733%,0%);stroke-opacity:1;stroke-miterlimit:10;" d="M 364.511719 1385.988281 L 295.5 1389.25 " transform="matrix(1,0,0,1,-161,-1328)"/>
</g>
</svg>
