<?xml version="1.0" encoding="UTF-8"?>
<svg version="1.1" baseProfile="tiny" xmlns="http://www.w3.org/2000/svg" width="58" height="58">
<rect shape-rendering="optimizeSpeed"  x="0" y="0" width="58" height="58" fill="white" />
<rect shape-rendering="optimizeSpeed"  x="0" y="0" width="2" height="2" fill="black" />
<rect shape-rendering="optimizeSpeed"  x="2" y="0" width="2" height="2" fill="black" />
<rect shape-rendering="optimizeSpeed"  x="4" y="0" width="2" height="2" fill="black" />
<rect shape-rendering="optimizeSpeed"  x="6" y="0" width="2" height="2" fill="black" />
<rect shape-rendering="optimizeSpeed"  x="8" y="0" width="2" height="2" fill="black" />
<rect shape-rendering="optimizeSpeed"  x="10" y="0" width="2" height="2" fill="black" />
<rect shape-rendering="optimizeSpeed"  x="12" y="0" width="2" height="2" fill="black" />
<rect shape-rendering="optimizeSpeed"  x="18" y="0" width="2" height="2" fill="black" />
<rect shape-rendering="optimizeSpeed"  x="28" y="0" width="2" height="2" fill="black" />
<rect shape-rendering="optimizeSpeed"  x="36" y="0" width="2" height="2" fill="black" />
<rect shape-rendering="optimizeSpeed"  x="38" y="0" width="2" height="2" fill="black" />
<rect shape-rendering="optimizeSpeed"  x="40" y="0" width="2" height="2" fill="black" />
<rect shape-rendering="optimizeSpeed"  x="44" y="0" width="2" height="2" fill="black" />
<rect shape-rendering="optimizeSpeed"  x="46" y="0" width="2" height="2" fill="black" />
<rect shape-rendering="optimizeSpeed"  x="48" y="0" width="2" height="2" fill="black" />
<rect shape-rendering="optimizeSpeed"  x="50" y="0" width="2" height="2" fill="black" />
<rect shape-rendering="optimizeSpeed"  x="52" y="0" width="2" height="2" fill="black" />
<rect shape-rendering="optimizeSpeed"  x="54" y="0" width="2" height="2" fill="black" />
<rect shape-rendering="optimizeSpeed"  x="56" y="0" width="2" height="2" fill="black" />
<rect shape-rendering="optimizeSpeed"  x="0" y="2" width="2" height="2" fill="black" />
<rect shape-rendering="optimizeSpeed"  x="12" y="2" width="2" height="2" fill="black" />
<rect shape-rendering="optimizeSpeed"  x="16" y="2" width="2" height="2" fill="black" />
<rect shape-rendering="optimizeSpeed"  x="18" y="2" width="2" height="2" fill="black" />
<rect shape-rendering="optimizeSpeed"  x="22" y="2" width="2" height="2" fill="black" />
<rect shape-rendering="optimizeSpeed"  x="24" y="2" width="2" height="2" fill="black" />
<rect shape-rendering="optimizeSpeed"  x="26" y="2" width="2" height="2" fill="black" />
<rect shape-rendering="optimizeSpeed"  x="28" y="2" width="2" height="2" fill="black" />
<rect shape-rendering="optimizeSpeed"  x="30" y="2" width="2" height="2" fill="black" />
<rect shape-rendering="optimizeSpeed"  x="32" y="2" width="2" height="2" fill="black" />
<rect shape-rendering="optimizeSpeed"  x="36" y="2" width="2" height="2" fill="black" />
<rect shape-rendering="optimizeSpeed"  x="44" y="2" width="2" height="2" fill="black" />
<rect shape-rendering="optimizeSpeed"  x="56" y="2" width="2" height="2" fill="black" />
<rect shape-rendering="optimizeSpeed"  x="0" y="4" width="2" height="2" fill="black" />
<rect shape-rendering="optimizeSpeed"  x="4" y="4" width="2" height="2" fill="black" />
<rect shape-rendering="optimizeSpeed"  x="6" y="4" width="2" height="2" fill="black" />
<rect shape-rendering="optimizeSpeed"  x="8" y="4" width="2" height="2" fill="black" />
<rect shape-rendering="optimizeSpeed"  x="12" y="4" width="2" height="2" fill="black" />
<rect shape-rendering="optimizeSpeed"  x="18" y="4" width="2" height="2" fill="black" />
<rect shape-rendering="optimizeSpeed"  x="20" y="4" width="2" height="2" fill="black" />
<rect shape-rendering="optimizeSpeed"  x="22" y="4" width="2" height="2" fill="black" />
<rect shape-rendering="optimizeSpeed"  x="32" y="4" width="2" height="2" fill="black" />
<rect shape-rendering="optimizeSpeed"  x="38" y="4" width="2" height="2" fill="black" />
<rect shape-rendering="optimizeSpeed"  x="40" y="4" width="2" height="2" fill="black" />
<rect shape-rendering="optimizeSpeed"  x="44" y="4" width="2" height="2" fill="black" />
<rect shape-rendering="optimizeSpeed"  x="48" y="4" width="2" height="2" fill="black" />
<rect shape-rendering="optimizeSpeed"  x="50" y="4" width="2" height="2" fill="black" />
<rect shape-rendering="optimizeSpeed"  x="52" y="4" width="2" height="2" fill="black" />
<rect shape-rendering="optimizeSpeed"  x="56" y="4" width="2" height="2" fill="black" />
<rect shape-rendering="optimizeSpeed"  x="0" y="6" width="2" height="2" fill="black" />
<rect shape-rendering="optimizeSpeed"  x="4" y="6" width="2" height="2" fill="black" />
<rect shape-rendering="optimizeSpeed"  x="6" y="6" width="2" height="2" fill="black" />
<rect shape-rendering="optimizeSpeed"  x="8" y="6" width="2" height="2" fill="black" />
<rect shape-rendering="optimizeSpeed"  x="12" y="6" width="2" height="2" fill="black" />
<rect shape-rendering="optimizeSpeed"  x="16" y="6" width="2" height="2" fill="black" />
<rect shape-rendering="optimizeSpeed"  x="18" y="6" width="2" height="2" fill="black" />
<rect shape-rendering="optimizeSpeed"  x="22" y="6" width="2" height="2" fill="black" />
<rect shape-rendering="optimizeSpeed"  x="30" y="6" width="2" height="2" fill="black" />
<rect shape-rendering="optimizeSpeed"  x="32" y="6" width="2" height="2" fill="black" />
<rect shape-rendering="optimizeSpeed"  x="34" y="6" width="2" height="2" fill="black" />
<rect shape-rendering="optimizeSpeed"  x="38" y="6" width="2" height="2" fill="black" />
<rect shape-rendering="optimizeSpeed"  x="44" y="6" width="2" height="2" fill="black" />
<rect shape-rendering="optimizeSpeed"  x="48" y="6" width="2" height="2" fill="black" />
<rect shape-rendering="optimizeSpeed"  x="50" y="6" width="2" height="2" fill="black" />
<rect shape-rendering="optimizeSpeed"  x="52" y="6" width="2" height="2" fill="black" />
<rect shape-rendering="optimizeSpeed"  x="56" y="6" width="2" height="2" fill="black" />
<rect shape-rendering="optimizeSpeed"  x="0" y="8" width="2" height="2" fill="black" />
<rect shape-rendering="optimizeSpeed"  x="4" y="8" width="2" height="2" fill="black" />
<rect shape-rendering="optimizeSpeed"  x="6" y="8" width="2" height="2" fill="black" />
<rect shape-rendering="optimizeSpeed"  x="8" y="8" width="2" height="2" fill="black" />
<rect shape-rendering="optimizeSpeed"  x="12" y="8" width="2" height="2" fill="black" />
<rect shape-rendering="optimizeSpeed"  x="20" y="8" width="2" height="2" fill="black" />
<rect shape-rendering="optimizeSpeed"  x="24" y="8" width="2" height="2" fill="black" />
<rect shape-rendering="optimizeSpeed"  x="26" y="8" width="2" height="2" fill="black" />
<rect shape-rendering="optimizeSpeed"  x="34" y="8" width="2" height="2" fill="black" />
<rect shape-rendering="optimizeSpeed"  x="36" y="8" width="2" height="2" fill="black" />
<rect shape-rendering="optimizeSpeed"  x="38" y="8" width="2" height="2" fill="black" />
<rect shape-rendering="optimizeSpeed"  x="44" y="8" width="2" height="2" fill="black" />
<rect shape-rendering="optimizeSpeed"  x="48" y="8" width="2" height="2" fill="black" />
<rect shape-rendering="optimizeSpeed"  x="50" y="8" width="2" height="2" fill="black" />
<rect shape-rendering="optimizeSpeed"  x="52" y="8" width="2" height="2" fill="black" />
<rect shape-rendering="optimizeSpeed"  x="56" y="8" width="2" height="2" fill="black" />
<rect shape-rendering="optimizeSpeed"  x="0" y="10" width="2" height="2" fill="black" />
<rect shape-rendering="optimizeSpeed"  x="12" y="10" width="2" height="2" fill="black" />
<rect shape-rendering="optimizeSpeed"  x="16" y="10" width="2" height="2" fill="black" />
<rect shape-rendering="optimizeSpeed"  x="20" y="10" width="2" height="2" fill="black" />
<rect shape-rendering="optimizeSpeed"  x="26" y="10" width="2" height="2" fill="black" />
<rect shape-rendering="optimizeSpeed"  x="28" y="10" width="2" height="2" fill="black" />
<rect shape-rendering="optimizeSpeed"  x="30" y="10" width="2" height="2" fill="black" />
<rect shape-rendering="optimizeSpeed"  x="36" y="10" width="2" height="2" fill="black" />
<rect shape-rendering="optimizeSpeed"  x="44" y="10" width="2" height="2" fill="black" />
<rect shape-rendering="optimizeSpeed"  x="56" y="10" width="2" height="2" fill="black" />
<rect shape-rendering="optimizeSpeed"  x="0" y="12" width="2" height="2" fill="black" />
<rect shape-rendering="optimizeSpeed"  x="2" y="12" width="2" height="2" fill="black" />
<rect shape-rendering="optimizeSpeed"  x="4" y="12" width="2" height="2" fill="black" />
<rect shape-rendering="optimizeSpeed"  x="6" y="12" width="2" height="2" fill="black" />
<rect shape-rendering="optimizeSpeed"  x="8" y="12" width="2" height="2" fill="black" />
<rect shape-rendering="optimizeSpeed"  x="10" y="12" width="2" height="2" fill="black" />
<rect shape-rendering="optimizeSpeed"  x="12" y="12" width="2" height="2" fill="black" />
<rect shape-rendering="optimizeSpeed"  x="16" y="12" width="2" height="2" fill="black" />
<rect shape-rendering="optimizeSpeed"  x="20" y="12" width="2" height="2" fill="black" />
<rect shape-rendering="optimizeSpeed"  x="24" y="12" width="2" height="2" fill="black" />
<rect shape-rendering="optimizeSpeed"  x="28" y="12" width="2" height="2" fill="black" />
<rect shape-rendering="optimizeSpeed"  x="32" y="12" width="2" height="2" fill="black" />
<rect shape-rendering="optimizeSpeed"  x="36" y="12" width="2" height="2" fill="black" />
<rect shape-rendering="optimizeSpeed"  x="40" y="12" width="2" height="2" fill="black" />
<rect shape-rendering="optimizeSpeed"  x="44" y="12" width="2" height="2" fill="black" />
<rect shape-rendering="optimizeSpeed"  x="46" y="12" width="2" height="2" fill="black" />
<rect shape-rendering="optimizeSpeed"  x="48" y="12" width="2" height="2" fill="black" />
<rect shape-rendering="optimizeSpeed"  x="50" y="12" width="2" height="2" fill="black" />
<rect shape-rendering="optimizeSpeed"  x="52" y="12" width="2" height="2" fill="black" />
<rect shape-rendering="optimizeSpeed"  x="54" y="12" width="2" height="2" fill="black" />
<rect shape-rendering="optimizeSpeed"  x="56" y="12" width="2" height="2" fill="black" />
<rect shape-rendering="optimizeSpeed"  x="24" y="14" width="2" height="2" fill="black" />
<rect shape-rendering="optimizeSpeed"  x="26" y="14" width="2" height="2" fill="black" />
<rect shape-rendering="optimizeSpeed"  x="30" y="14" width="2" height="2" fill="black" />
<rect shape-rendering="optimizeSpeed"  x="38" y="14" width="2" height="2" fill="black" />
<rect shape-rendering="optimizeSpeed"  x="40" y="14" width="2" height="2" fill="black" />
<rect shape-rendering="optimizeSpeed"  x="0" y="16" width="2" height="2" fill="black" />
<rect shape-rendering="optimizeSpeed"  x="2" y="16" width="2" height="2" fill="black" />
<rect shape-rendering="optimizeSpeed"  x="4" y="16" width="2" height="2" fill="black" />
<rect shape-rendering="optimizeSpeed"  x="6" y="16" width="2" height="2" fill="black" />
<rect shape-rendering="optimizeSpeed"  x="8" y="16" width="2" height="2" fill="black" />
<rect shape-rendering="optimizeSpeed"  x="12" y="16" width="2" height="2" fill="black" />
<rect shape-rendering="optimizeSpeed"  x="14" y="16" width="2" height="2" fill="black" />
<rect shape-rendering="optimizeSpeed"  x="16" y="16" width="2" height="2" fill="black" />
<rect shape-rendering="optimizeSpeed"  x="18" y="16" width="2" height="2" fill="black" />
<rect shape-rendering="optimizeSpeed"  x="20" y="16" width="2" height="2" fill="black" />
<rect shape-rendering="optimizeSpeed"  x="24" y="16" width="2" height="2" fill="black" />
<rect shape-rendering="optimizeSpeed"  x="28" y="16" width="2" height="2" fill="black" />
<rect shape-rendering="optimizeSpeed"  x="32" y="16" width="2" height="2" fill="black" />
<rect shape-rendering="optimizeSpeed"  x="34" y="16" width="2" height="2" fill="black" />
<rect shape-rendering="optimizeSpeed"  x="36" y="16" width="2" height="2" fill="black" />
<rect shape-rendering="optimizeSpeed"  x="38" y="16" width="2" height="2" fill="black" />
<rect shape-rendering="optimizeSpeed"  x="42" y="16" width="2" height="2" fill="black" />
<rect shape-rendering="optimizeSpeed"  x="46" y="16" width="2" height="2" fill="black" />
<rect shape-rendering="optimizeSpeed"  x="50" y="16" width="2" height="2" fill="black" />
<rect shape-rendering="optimizeSpeed"  x="54" y="16" width="2" height="2" fill="black" />
<rect shape-rendering="optimizeSpeed"  x="2" y="18" width="2" height="2" fill="black" />
<rect shape-rendering="optimizeSpeed"  x="6" y="18" width="2" height="2" fill="black" />
<rect shape-rendering="optimizeSpeed"  x="8" y="18" width="2" height="2" fill="black" />
<rect shape-rendering="optimizeSpeed"  x="10" y="18" width="2" height="2" fill="black" />
<rect shape-rendering="optimizeSpeed"  x="18" y="18" width="2" height="2" fill="black" />
<rect shape-rendering="optimizeSpeed"  x="34" y="18" width="2" height="2" fill="black" />
<rect shape-rendering="optimizeSpeed"  x="36" y="18" width="2" height="2" fill="black" />
<rect shape-rendering="optimizeSpeed"  x="38" y="18" width="2" height="2" fill="black" />
<rect shape-rendering="optimizeSpeed"  x="40" y="18" width="2" height="2" fill="black" />
<rect shape-rendering="optimizeSpeed"  x="44" y="18" width="2" height="2" fill="black" />
<rect shape-rendering="optimizeSpeed"  x="46" y="18" width="2" height="2" fill="black" />
<rect shape-rendering="optimizeSpeed"  x="48" y="18" width="2" height="2" fill="black" />
<rect shape-rendering="optimizeSpeed"  x="56" y="18" width="2" height="2" fill="black" />
<rect shape-rendering="optimizeSpeed"  x="2" y="20" width="2" height="2" fill="black" />
<rect shape-rendering="optimizeSpeed"  x="8" y="20" width="2" height="2" fill="black" />
<rect shape-rendering="optimizeSpeed"  x="10" y="20" width="2" height="2" fill="black" />
<rect shape-rendering="optimizeSpeed"  x="12" y="20" width="2" height="2" fill="black" />
<rect shape-rendering="optimizeSpeed"  x="18" y="20" width="2" height="2" fill="black" />
<rect shape-rendering="optimizeSpeed"  x="22" y="20" width="2" height="2" fill="black" />
<rect shape-rendering="optimizeSpeed"  x="24" y="20" width="2" height="2" fill="black" />
<rect shape-rendering="optimizeSpeed"  x="30" y="20" width="2" height="2" fill="black" />
<rect shape-rendering="optimizeSpeed"  x="32" y="20" width="2" height="2" fill="black" />
<rect shape-rendering="optimizeSpeed"  x="34" y="20" width="2" height="2" fill="black" />
<rect shape-rendering="optimizeSpeed"  x="40" y="20" width="2" height="2" fill="black" />
<rect shape-rendering="optimizeSpeed"  x="46" y="20" width="2" height="2" fill="black" />
<rect shape-rendering="optimizeSpeed"  x="0" y="22" width="2" height="2" fill="black" />
<rect shape-rendering="optimizeSpeed"  x="4" y="22" width="2" height="2" fill="black" />
<rect shape-rendering="optimizeSpeed"  x="8" y="22" width="2" height="2" fill="black" />
<rect shape-rendering="optimizeSpeed"  x="14" y="22" width="2" height="2" fill="black" />
<rect shape-rendering="optimizeSpeed"  x="16" y="22" width="2" height="2" fill="black" />
<rect shape-rendering="optimizeSpeed"  x="18" y="22" width="2" height="2" fill="black" />
<rect shape-rendering="optimizeSpeed"  x="20" y="22" width="2" height="2" fill="black" />
<rect shape-rendering="optimizeSpeed"  x="22" y="22" width="2" height="2" fill="black" />
<rect shape-rendering="optimizeSpeed"  x="28" y="22" width="2" height="2" fill="black" />
<rect shape-rendering="optimizeSpeed"  x="30" y="22" width="2" height="2" fill="black" />
<rect shape-rendering="optimizeSpeed"  x="38" y="22" width="2" height="2" fill="black" />
<rect shape-rendering="optimizeSpeed"  x="40" y="22" width="2" height="2" fill="black" />
<rect shape-rendering="optimizeSpeed"  x="48" y="22" width="2" height="2" fill="black" />
<rect shape-rendering="optimizeSpeed"  x="50" y="22" width="2" height="2" fill="black" />
<rect shape-rendering="optimizeSpeed"  x="54" y="22" width="2" height="2" fill="black" />
<rect shape-rendering="optimizeSpeed"  x="0" y="24" width="2" height="2" fill="black" />
<rect shape-rendering="optimizeSpeed"  x="10" y="24" width="2" height="2" fill="black" />
<rect shape-rendering="optimizeSpeed"  x="12" y="24" width="2" height="2" fill="black" />
<rect shape-rendering="optimizeSpeed"  x="18" y="24" width="2" height="2" fill="black" />
<rect shape-rendering="optimizeSpeed"  x="22" y="24" width="2" height="2" fill="black" />
<rect shape-rendering="optimizeSpeed"  x="30" y="24" width="2" height="2" fill="black" />
<rect shape-rendering="optimizeSpeed"  x="32" y="24" width="2" height="2" fill="black" />
<rect shape-rendering="optimizeSpeed"  x="34" y="24" width="2" height="2" fill="black" />
<rect shape-rendering="optimizeSpeed"  x="38" y="24" width="2" height="2" fill="black" />
<rect shape-rendering="optimizeSpeed"  x="50" y="24" width="2" height="2" fill="black" />
<rect shape-rendering="optimizeSpeed"  x="52" y="24" width="2" height="2" fill="black" />
<rect shape-rendering="optimizeSpeed"  x="6" y="26" width="2" height="2" fill="black" />
<rect shape-rendering="optimizeSpeed"  x="8" y="26" width="2" height="2" fill="black" />
<rect shape-rendering="optimizeSpeed"  x="14" y="26" width="2" height="2" fill="black" />
<rect shape-rendering="optimizeSpeed"  x="16" y="26" width="2" height="2" fill="black" />
<rect shape-rendering="optimizeSpeed"  x="20" y="26" width="2" height="2" fill="black" />
<rect shape-rendering="optimizeSpeed"  x="24" y="26" width="2" height="2" fill="black" />
<rect shape-rendering="optimizeSpeed"  x="26" y="26" width="2" height="2" fill="black" />
<rect shape-rendering="optimizeSpeed"  x="28" y="26" width="2" height="2" fill="black" />
<rect shape-rendering="optimizeSpeed"  x="38" y="26" width="2" height="2" fill="black" />
<rect shape-rendering="optimizeSpeed"  x="40" y="26" width="2" height="2" fill="black" />
<rect shape-rendering="optimizeSpeed"  x="44" y="26" width="2" height="2" fill="black" />
<rect shape-rendering="optimizeSpeed"  x="46" y="26" width="2" height="2" fill="black" />
<rect shape-rendering="optimizeSpeed"  x="48" y="26" width="2" height="2" fill="black" />
<rect shape-rendering="optimizeSpeed"  x="56" y="26" width="2" height="2" fill="black" />
<rect shape-rendering="optimizeSpeed"  x="2" y="28" width="2" height="2" fill="black" />
<rect shape-rendering="optimizeSpeed"  x="4" y="28" width="2" height="2" fill="black" />
<rect shape-rendering="optimizeSpeed"  x="10" y="28" width="2" height="2" fill="black" />
<rect shape-rendering="optimizeSpeed"  x="12" y="28" width="2" height="2" fill="black" />
<rect shape-rendering="optimizeSpeed"  x="14" y="28" width="2" height="2" fill="black" />
<rect shape-rendering="optimizeSpeed"  x="20" y="28" width="2" height="2" fill="black" />
<rect shape-rendering="optimizeSpeed"  x="26" y="28" width="2" height="2" fill="black" />
<rect shape-rendering="optimizeSpeed"  x="28" y="28" width="2" height="2" fill="black" />
<rect shape-rendering="optimizeSpeed"  x="30" y="28" width="2" height="2" fill="black" />
<rect shape-rendering="optimizeSpeed"  x="32" y="28" width="2" height="2" fill="black" />
<rect shape-rendering="optimizeSpeed"  x="40" y="28" width="2" height="2" fill="black" />
<rect shape-rendering="optimizeSpeed"  x="42" y="28" width="2" height="2" fill="black" />
<rect shape-rendering="optimizeSpeed"  x="46" y="28" width="2" height="2" fill="black" />
<rect shape-rendering="optimizeSpeed"  x="50" y="28" width="2" height="2" fill="black" />
<rect shape-rendering="optimizeSpeed"  x="52" y="28" width="2" height="2" fill="black" />
<rect shape-rendering="optimizeSpeed"  x="0" y="30" width="2" height="2" fill="black" />
<rect shape-rendering="optimizeSpeed"  x="4" y="30" width="2" height="2" fill="black" />
<rect shape-rendering="optimizeSpeed"  x="18" y="30" width="2" height="2" fill="black" />
<rect shape-rendering="optimizeSpeed"  x="20" y="30" width="2" height="2" fill="black" />
<rect shape-rendering="optimizeSpeed"  x="24" y="30" width="2" height="2" fill="black" />
<rect shape-rendering="optimizeSpeed"  x="26" y="30" width="2" height="2" fill="black" />
<rect shape-rendering="optimizeSpeed"  x="32" y="30" width="2" height="2" fill="black" />
<rect shape-rendering="optimizeSpeed"  x="36" y="30" width="2" height="2" fill="black" />
<rect shape-rendering="optimizeSpeed"  x="40" y="30" width="2" height="2" fill="black" />
<rect shape-rendering="optimizeSpeed"  x="44" y="30" width="2" height="2" fill="black" />
<rect shape-rendering="optimizeSpeed"  x="48" y="30" width="2" height="2" fill="black" />
<rect shape-rendering="optimizeSpeed"  x="54" y="30" width="2" height="2" fill="black" />
<rect shape-rendering="optimizeSpeed"  x="2" y="32" width="2" height="2" fill="black" />
<rect shape-rendering="optimizeSpeed"  x="4" y="32" width="2" height="2" fill="black" />
<rect shape-rendering="optimizeSpeed"  x="8" y="32" width="2" height="2" fill="black" />
<rect shape-rendering="optimizeSpeed"  x="12" y="32" width="2" height="2" fill="black" />
<rect shape-rendering="optimizeSpeed"  x="16" y="32" width="2" height="2" fill="black" />
<rect shape-rendering="optimizeSpeed"  x="20" y="32" width="2" height="2" fill="black" />
<rect shape-rendering="optimizeSpeed"  x="24" y="32" width="2" height="2" fill="black" />
<rect shape-rendering="optimizeSpeed"  x="28" y="32" width="2" height="2" fill="black" />
<rect shape-rendering="optimizeSpeed"  x="34" y="32" width="2" height="2" fill="black" />
<rect shape-rendering="optimizeSpeed"  x="36" y="32" width="2" height="2" fill="black" />
<rect shape-rendering="optimizeSpeed"  x="40" y="32" width="2" height="2" fill="black" />
<rect shape-rendering="optimizeSpeed"  x="46" y="32" width="2" height="2" fill="black" />
<rect shape-rendering="optimizeSpeed"  x="50" y="32" width="2" height="2" fill="black" />
<rect shape-rendering="optimizeSpeed"  x="52" y="32" width="2" height="2" fill="black" />
<rect shape-rendering="optimizeSpeed"  x="0" y="34" width="2" height="2" fill="black" />
<rect shape-rendering="optimizeSpeed"  x="6" y="34" width="2" height="2" fill="black" />
<rect shape-rendering="optimizeSpeed"  x="14" y="34" width="2" height="2" fill="black" />
<rect shape-rendering="optimizeSpeed"  x="16" y="34" width="2" height="2" fill="black" />
<rect shape-rendering="optimizeSpeed"  x="18" y="34" width="2" height="2" fill="black" />
<rect shape-rendering="optimizeSpeed"  x="34" y="34" width="2" height="2" fill="black" />
<rect shape-rendering="optimizeSpeed"  x="36" y="34" width="2" height="2" fill="black" />
<rect shape-rendering="optimizeSpeed"  x="38" y="34" width="2" height="2" fill="black" />
<rect shape-rendering="optimizeSpeed"  x="40" y="34" width="2" height="2" fill="black" />
<rect shape-rendering="optimizeSpeed"  x="44" y="34" width="2" height="2" fill="black" />
<rect shape-rendering="optimizeSpeed"  x="46" y="34" width="2" height="2" fill="black" />
<rect shape-rendering="optimizeSpeed"  x="48" y="34" width="2" height="2" fill="black" />
<rect shape-rendering="optimizeSpeed"  x="52" y="34" width="2" height="2" fill="black" />
<rect shape-rendering="optimizeSpeed"  x="56" y="34" width="2" height="2" fill="black" />
<rect shape-rendering="optimizeSpeed"  x="0" y="36" width="2" height="2" fill="black" />
<rect shape-rendering="optimizeSpeed"  x="4" y="36" width="2" height="2" fill="black" />
<rect shape-rendering="optimizeSpeed"  x="6" y="36" width="2" height="2" fill="black" />
<rect shape-rendering="optimizeSpeed"  x="12" y="36" width="2" height="2" fill="black" />
<rect shape-rendering="optimizeSpeed"  x="16" y="36" width="2" height="2" fill="black" />
<rect shape-rendering="optimizeSpeed"  x="18" y="36" width="2" height="2" fill="black" />
<rect shape-rendering="optimizeSpeed"  x="22" y="36" width="2" height="2" fill="black" />
<rect shape-rendering="optimizeSpeed"  x="24" y="36" width="2" height="2" fill="black" />
<rect shape-rendering="optimizeSpeed"  x="30" y="36" width="2" height="2" fill="black" />
<rect shape-rendering="optimizeSpeed"  x="32" y="36" width="2" height="2" fill="black" />
<rect shape-rendering="optimizeSpeed"  x="34" y="36" width="2" height="2" fill="black" />
<rect shape-rendering="optimizeSpeed"  x="42" y="36" width="2" height="2" fill="black" />
<rect shape-rendering="optimizeSpeed"  x="46" y="36" width="2" height="2" fill="black" />
<rect shape-rendering="optimizeSpeed"  x="48" y="36" width="2" height="2" fill="black" />
<rect shape-rendering="optimizeSpeed"  x="52" y="36" width="2" height="2" fill="black" />
<rect shape-rendering="optimizeSpeed"  x="0" y="38" width="2" height="2" fill="black" />
<rect shape-rendering="optimizeSpeed"  x="6" y="38" width="2" height="2" fill="black" />
<rect shape-rendering="optimizeSpeed"  x="10" y="38" width="2" height="2" fill="black" />
<rect shape-rendering="optimizeSpeed"  x="14" y="38" width="2" height="2" fill="black" />
<rect shape-rendering="optimizeSpeed"  x="16" y="38" width="2" height="2" fill="black" />
<rect shape-rendering="optimizeSpeed"  x="18" y="38" width="2" height="2" fill="black" />
<rect shape-rendering="optimizeSpeed"  x="20" y="38" width="2" height="2" fill="black" />
<rect shape-rendering="optimizeSpeed"  x="22" y="38" width="2" height="2" fill="black" />
<rect shape-rendering="optimizeSpeed"  x="28" y="38" width="2" height="2" fill="black" />
<rect shape-rendering="optimizeSpeed"  x="40" y="38" width="2" height="2" fill="black" />
<rect shape-rendering="optimizeSpeed"  x="44" y="38" width="2" height="2" fill="black" />
<rect shape-rendering="optimizeSpeed"  x="54" y="38" width="2" height="2" fill="black" />
<rect shape-rendering="optimizeSpeed"  x="0" y="40" width="2" height="2" fill="black" />
<rect shape-rendering="optimizeSpeed"  x="4" y="40" width="2" height="2" fill="black" />
<rect shape-rendering="optimizeSpeed"  x="8" y="40" width="2" height="2" fill="black" />
<rect shape-rendering="optimizeSpeed"  x="10" y="40" width="2" height="2" fill="black" />
<rect shape-rendering="optimizeSpeed"  x="12" y="40" width="2" height="2" fill="black" />
<rect shape-rendering="optimizeSpeed"  x="16" y="40" width="2" height="2" fill="black" />
<rect shape-rendering="optimizeSpeed"  x="22" y="40" width="2" height="2" fill="black" />
<rect shape-rendering="optimizeSpeed"  x="30" y="40" width="2" height="2" fill="black" />
<rect shape-rendering="optimizeSpeed"  x="34" y="40" width="2" height="2" fill="black" />
<rect shape-rendering="optimizeSpeed"  x="38" y="40" width="2" height="2" fill="black" />
<rect shape-rendering="optimizeSpeed"  x="40" y="40" width="2" height="2" fill="black" />
<rect shape-rendering="optimizeSpeed"  x="42" y="40" width="2" height="2" fill="black" />
<rect shape-rendering="optimizeSpeed"  x="44" y="40" width="2" height="2" fill="black" />
<rect shape-rendering="optimizeSpeed"  x="46" y="40" width="2" height="2" fill="black" />
<rect shape-rendering="optimizeSpeed"  x="48" y="40" width="2" height="2" fill="black" />
<rect shape-rendering="optimizeSpeed"  x="52" y="40" width="2" height="2" fill="black" />
<rect shape-rendering="optimizeSpeed"  x="54" y="40" width="2" height="2" fill="black" />
<rect shape-rendering="optimizeSpeed"  x="56" y="40" width="2" height="2" fill="black" />
<rect shape-rendering="optimizeSpeed"  x="16" y="42" width="2" height="2" fill="black" />
<rect shape-rendering="optimizeSpeed"  x="20" y="42" width="2" height="2" fill="black" />
<rect shape-rendering="optimizeSpeed"  x="24" y="42" width="2" height="2" fill="black" />
<rect shape-rendering="optimizeSpeed"  x="26" y="42" width="2" height="2" fill="black" />
<rect shape-rendering="optimizeSpeed"  x="28" y="42" width="2" height="2" fill="black" />
<rect shape-rendering="optimizeSpeed"  x="32" y="42" width="2" height="2" fill="black" />
<rect shape-rendering="optimizeSpeed"  x="40" y="42" width="2" height="2" fill="black" />
<rect shape-rendering="optimizeSpeed"  x="48" y="42" width="2" height="2" fill="black" />
<rect shape-rendering="optimizeSpeed"  x="50" y="42" width="2" height="2" fill="black" />
<rect shape-rendering="optimizeSpeed"  x="52" y="42" width="2" height="2" fill="black" />
<rect shape-rendering="optimizeSpeed"  x="54" y="42" width="2" height="2" fill="black" />
<rect shape-rendering="optimizeSpeed"  x="56" y="42" width="2" height="2" fill="black" />
<rect shape-rendering="optimizeSpeed"  x="0" y="44" width="2" height="2" fill="black" />
<rect shape-rendering="optimizeSpeed"  x="2" y="44" width="2" height="2" fill="black" />
<rect shape-rendering="optimizeSpeed"  x="4" y="44" width="2" height="2" fill="black" />
<rect shape-rendering="optimizeSpeed"  x="6" y="44" width="2" height="2" fill="black" />
<rect shape-rendering="optimizeSpeed"  x="8" y="44" width="2" height="2" fill="black" />
<rect shape-rendering="optimizeSpeed"  x="10" y="44" width="2" height="2" fill="black" />
<rect shape-rendering="optimizeSpeed"  x="12" y="44" width="2" height="2" fill="black" />
<rect shape-rendering="optimizeSpeed"  x="16" y="44" width="2" height="2" fill="black" />
<rect shape-rendering="optimizeSpeed"  x="18" y="44" width="2" height="2" fill="black" />
<rect shape-rendering="optimizeSpeed"  x="26" y="44" width="2" height="2" fill="black" />
<rect shape-rendering="optimizeSpeed"  x="28" y="44" width="2" height="2" fill="black" />
<rect shape-rendering="optimizeSpeed"  x="30" y="44" width="2" height="2" fill="black" />
<rect shape-rendering="optimizeSpeed"  x="32" y="44" width="2" height="2" fill="black" />
<rect shape-rendering="optimizeSpeed"  x="38" y="44" width="2" height="2" fill="black" />
<rect shape-rendering="optimizeSpeed"  x="40" y="44" width="2" height="2" fill="black" />
<rect shape-rendering="optimizeSpeed"  x="44" y="44" width="2" height="2" fill="black" />
<rect shape-rendering="optimizeSpeed"  x="48" y="44" width="2" height="2" fill="black" />
<rect shape-rendering="optimizeSpeed"  x="50" y="44" width="2" height="2" fill="black" />
<rect shape-rendering="optimizeSpeed"  x="52" y="44" width="2" height="2" fill="black" />
<rect shape-rendering="optimizeSpeed"  x="0" y="46" width="2" height="2" fill="black" />
<rect shape-rendering="optimizeSpeed"  x="12" y="46" width="2" height="2" fill="black" />
<rect shape-rendering="optimizeSpeed"  x="18" y="46" width="2" height="2" fill="black" />
<rect shape-rendering="optimizeSpeed"  x="20" y="46" width="2" height="2" fill="black" />
<rect shape-rendering="optimizeSpeed"  x="24" y="46" width="2" height="2" fill="black" />
<rect shape-rendering="optimizeSpeed"  x="26" y="46" width="2" height="2" fill="black" />
<rect shape-rendering="optimizeSpeed"  x="30" y="46" width="2" height="2" fill="black" />
<rect shape-rendering="optimizeSpeed"  x="36" y="46" width="2" height="2" fill="black" />
<rect shape-rendering="optimizeSpeed"  x="38" y="46" width="2" height="2" fill="black" />
<rect shape-rendering="optimizeSpeed"  x="40" y="46" width="2" height="2" fill="black" />
<rect shape-rendering="optimizeSpeed"  x="48" y="46" width="2" height="2" fill="black" />
<rect shape-rendering="optimizeSpeed"  x="0" y="48" width="2" height="2" fill="black" />
<rect shape-rendering="optimizeSpeed"  x="4" y="48" width="2" height="2" fill="black" />
<rect shape-rendering="optimizeSpeed"  x="6" y="48" width="2" height="2" fill="black" />
<rect shape-rendering="optimizeSpeed"  x="8" y="48" width="2" height="2" fill="black" />
<rect shape-rendering="optimizeSpeed"  x="12" y="48" width="2" height="2" fill="black" />
<rect shape-rendering="optimizeSpeed"  x="16" y="48" width="2" height="2" fill="black" />
<rect shape-rendering="optimizeSpeed"  x="20" y="48" width="2" height="2" fill="black" />
<rect shape-rendering="optimizeSpeed"  x="24" y="48" width="2" height="2" fill="black" />
<rect shape-rendering="optimizeSpeed"  x="28" y="48" width="2" height="2" fill="black" />
<rect shape-rendering="optimizeSpeed"  x="34" y="48" width="2" height="2" fill="black" />
<rect shape-rendering="optimizeSpeed"  x="40" y="48" width="2" height="2" fill="black" />
<rect shape-rendering="optimizeSpeed"  x="42" y="48" width="2" height="2" fill="black" />
<rect shape-rendering="optimizeSpeed"  x="44" y="48" width="2" height="2" fill="black" />
<rect shape-rendering="optimizeSpeed"  x="46" y="48" width="2" height="2" fill="black" />
<rect shape-rendering="optimizeSpeed"  x="48" y="48" width="2" height="2" fill="black" />
<rect shape-rendering="optimizeSpeed"  x="52" y="48" width="2" height="2" fill="black" />
<rect shape-rendering="optimizeSpeed"  x="0" y="50" width="2" height="2" fill="black" />
<rect shape-rendering="optimizeSpeed"  x="4" y="50" width="2" height="2" fill="black" />
<rect shape-rendering="optimizeSpeed"  x="6" y="50" width="2" height="2" fill="black" />
<rect shape-rendering="optimizeSpeed"  x="8" y="50" width="2" height="2" fill="black" />
<rect shape-rendering="optimizeSpeed"  x="12" y="50" width="2" height="2" fill="black" />
<rect shape-rendering="optimizeSpeed"  x="16" y="50" width="2" height="2" fill="black" />
<rect shape-rendering="optimizeSpeed"  x="20" y="50" width="2" height="2" fill="black" />
<rect shape-rendering="optimizeSpeed"  x="32" y="50" width="2" height="2" fill="black" />
<rect shape-rendering="optimizeSpeed"  x="34" y="50" width="2" height="2" fill="black" />
<rect shape-rendering="optimizeSpeed"  x="36" y="50" width="2" height="2" fill="black" />
<rect shape-rendering="optimizeSpeed"  x="38" y="50" width="2" height="2" fill="black" />
<rect shape-rendering="optimizeSpeed"  x="40" y="50" width="2" height="2" fill="black" />
<rect shape-rendering="optimizeSpeed"  x="42" y="50" width="2" height="2" fill="black" />
<rect shape-rendering="optimizeSpeed"  x="50" y="50" width="2" height="2" fill="black" />
<rect shape-rendering="optimizeSpeed"  x="52" y="50" width="2" height="2" fill="black" />
<rect shape-rendering="optimizeSpeed"  x="54" y="50" width="2" height="2" fill="black" />
<rect shape-rendering="optimizeSpeed"  x="56" y="50" width="2" height="2" fill="black" />
<rect shape-rendering="optimizeSpeed"  x="0" y="52" width="2" height="2" fill="black" />
<rect shape-rendering="optimizeSpeed"  x="4" y="52" width="2" height="2" fill="black" />
<rect shape-rendering="optimizeSpeed"  x="6" y="52" width="2" height="2" fill="black" />
<rect shape-rendering="optimizeSpeed"  x="8" y="52" width="2" height="2" fill="black" />
<rect shape-rendering="optimizeSpeed"  x="12" y="52" width="2" height="2" fill="black" />
<rect shape-rendering="optimizeSpeed"  x="16" y="52" width="2" height="2" fill="black" />
<rect shape-rendering="optimizeSpeed"  x="18" y="52" width="2" height="2" fill="black" />
<rect shape-rendering="optimizeSpeed"  x="22" y="52" width="2" height="2" fill="black" />
<rect shape-rendering="optimizeSpeed"  x="24" y="52" width="2" height="2" fill="black" />
<rect shape-rendering="optimizeSpeed"  x="30" y="52" width="2" height="2" fill="black" />
<rect shape-rendering="optimizeSpeed"  x="34" y="52" width="2" height="2" fill="black" />
<rect shape-rendering="optimizeSpeed"  x="38" y="52" width="2" height="2" fill="black" />
<rect shape-rendering="optimizeSpeed"  x="42" y="52" width="2" height="2" fill="black" />
<rect shape-rendering="optimizeSpeed"  x="44" y="52" width="2" height="2" fill="black" />
<rect shape-rendering="optimizeSpeed"  x="46" y="52" width="2" height="2" fill="black" />
<rect shape-rendering="optimizeSpeed"  x="48" y="52" width="2" height="2" fill="black" />
<rect shape-rendering="optimizeSpeed"  x="50" y="52" width="2" height="2" fill="black" />
<rect shape-rendering="optimizeSpeed"  x="52" y="52" width="2" height="2" fill="black" />
<rect shape-rendering="optimizeSpeed"  x="54" y="52" width="2" height="2" fill="black" />
<rect shape-rendering="optimizeSpeed"  x="0" y="54" width="2" height="2" fill="black" />
<rect shape-rendering="optimizeSpeed"  x="12" y="54" width="2" height="2" fill="black" />
<rect shape-rendering="optimizeSpeed"  x="16" y="54" width="2" height="2" fill="black" />
<rect shape-rendering="optimizeSpeed"  x="18" y="54" width="2" height="2" fill="black" />
<rect shape-rendering="optimizeSpeed"  x="22" y="54" width="2" height="2" fill="black" />
<rect shape-rendering="optimizeSpeed"  x="28" y="54" width="2" height="2" fill="black" />
<rect shape-rendering="optimizeSpeed"  x="30" y="54" width="2" height="2" fill="black" />
<rect shape-rendering="optimizeSpeed"  x="40" y="54" width="2" height="2" fill="black" />
<rect shape-rendering="optimizeSpeed"  x="44" y="54" width="2" height="2" fill="black" />
<rect shape-rendering="optimizeSpeed"  x="48" y="54" width="2" height="2" fill="black" />
<rect shape-rendering="optimizeSpeed"  x="50" y="54" width="2" height="2" fill="black" />
<rect shape-rendering="optimizeSpeed"  x="54" y="54" width="2" height="2" fill="black" />
<rect shape-rendering="optimizeSpeed"  x="0" y="56" width="2" height="2" fill="black" />
<rect shape-rendering="optimizeSpeed"  x="2" y="56" width="2" height="2" fill="black" />
<rect shape-rendering="optimizeSpeed"  x="4" y="56" width="2" height="2" fill="black" />
<rect shape-rendering="optimizeSpeed"  x="6" y="56" width="2" height="2" fill="black" />
<rect shape-rendering="optimizeSpeed"  x="8" y="56" width="2" height="2" fill="black" />
<rect shape-rendering="optimizeSpeed"  x="10" y="56" width="2" height="2" fill="black" />
<rect shape-rendering="optimizeSpeed"  x="12" y="56" width="2" height="2" fill="black" />
<rect shape-rendering="optimizeSpeed"  x="16" y="56" width="2" height="2" fill="black" />
<rect shape-rendering="optimizeSpeed"  x="18" y="56" width="2" height="2" fill="black" />
<rect shape-rendering="optimizeSpeed"  x="22" y="56" width="2" height="2" fill="black" />
<rect shape-rendering="optimizeSpeed"  x="30" y="56" width="2" height="2" fill="black" />
<rect shape-rendering="optimizeSpeed"  x="32" y="56" width="2" height="2" fill="black" />
<rect shape-rendering="optimizeSpeed"  x="34" y="56" width="2" height="2" fill="black" />
<rect shape-rendering="optimizeSpeed"  x="38" y="56" width="2" height="2" fill="black" />
<rect shape-rendering="optimizeSpeed"  x="42" y="56" width="2" height="2" fill="black" />
<rect shape-rendering="optimizeSpeed"  x="44" y="56" width="2" height="2" fill="black" />
<rect shape-rendering="optimizeSpeed"  x="46" y="56" width="2" height="2" fill="black" />
<rect shape-rendering="optimizeSpeed"  x="48" y="56" width="2" height="2" fill="black" />
<rect shape-rendering="optimizeSpeed"  x="52" y="56" width="2" height="2" fill="black" /></svg>