<?xml version="1.0" encoding="UTF-8"?>
<svg version="1.1" baseProfile="tiny" xmlns="http://www.w3.org/2000/svg" width="75" height="75">
<rect shape-rendering="optimizeSpeed"  x="0" y="0" width="75" height="75" fill="white" />
<rect shape-rendering="optimizeSpeed"  x="12" y="12" width="2" height="2" fill="black" />
<rect shape-rendering="optimizeSpeed"  x="14" y="12" width="2" height="2" fill="black" />
<rect shape-rendering="optimizeSpeed"  x="16" y="12" width="2" height="2" fill="black" />
<rect shape-rendering="optimizeSpeed"  x="18" y="12" width="2" height="2" fill="black" />
<rect shape-rendering="optimizeSpeed"  x="20" y="12" width="2" height="2" fill="black" />
<rect shape-rendering="optimizeSpeed"  x="22" y="12" width="2" height="2" fill="black" />
<rect shape-rendering="optimizeSpeed"  x="24" y="12" width="2" height="2" fill="black" />
<rect shape-rendering="optimizeSpeed"  x="30" y="12" width="2" height="2" fill="black" />
<rect shape-rendering="optimizeSpeed"  x="36" y="12" width="2" height="2" fill="black" />
<rect shape-rendering="optimizeSpeed"  x="48" y="12" width="2" height="2" fill="black" />
<rect shape-rendering="optimizeSpeed"  x="50" y="12" width="2" height="2" fill="black" />
<rect shape-rendering="optimizeSpeed"  x="52" y="12" width="2" height="2" fill="black" />
<rect shape-rendering="optimizeSpeed"  x="54" y="12" width="2" height="2" fill="black" />
<rect shape-rendering="optimizeSpeed"  x="56" y="12" width="2" height="2" fill="black" />
<rect shape-rendering="optimizeSpeed"  x="58" y="12" width="2" height="2" fill="black" />
<rect shape-rendering="optimizeSpeed"  x="60" y="12" width="2" height="2" fill="black" />
<rect shape-rendering="optimizeSpeed"  x="12" y="14" width="2" height="2" fill="black" />
<rect shape-rendering="optimizeSpeed"  x="24" y="14" width="2" height="2" fill="black" />
<rect shape-rendering="optimizeSpeed"  x="30" y="14" width="2" height="2" fill="black" />
<rect shape-rendering="optimizeSpeed"  x="32" y="14" width="2" height="2" fill="black" />
<rect shape-rendering="optimizeSpeed"  x="44" y="14" width="2" height="2" fill="black" />
<rect shape-rendering="optimizeSpeed"  x="48" y="14" width="2" height="2" fill="black" />
<rect shape-rendering="optimizeSpeed"  x="60" y="14" width="2" height="2" fill="black" />
<rect shape-rendering="optimizeSpeed"  x="12" y="16" width="2" height="2" fill="black" />
<rect shape-rendering="optimizeSpeed"  x="16" y="16" width="2" height="2" fill="black" />
<rect shape-rendering="optimizeSpeed"  x="18" y="16" width="2" height="2" fill="black" />
<rect shape-rendering="optimizeSpeed"  x="20" y="16" width="2" height="2" fill="black" />
<rect shape-rendering="optimizeSpeed"  x="24" y="16" width="2" height="2" fill="black" />
<rect shape-rendering="optimizeSpeed"  x="30" y="16" width="2" height="2" fill="black" />
<rect shape-rendering="optimizeSpeed"  x="36" y="16" width="2" height="2" fill="black" />
<rect shape-rendering="optimizeSpeed"  x="42" y="16" width="2" height="2" fill="black" />
<rect shape-rendering="optimizeSpeed"  x="44" y="16" width="2" height="2" fill="black" />
<rect shape-rendering="optimizeSpeed"  x="48" y="16" width="2" height="2" fill="black" />
<rect shape-rendering="optimizeSpeed"  x="52" y="16" width="2" height="2" fill="black" />
<rect shape-rendering="optimizeSpeed"  x="54" y="16" width="2" height="2" fill="black" />
<rect shape-rendering="optimizeSpeed"  x="56" y="16" width="2" height="2" fill="black" />
<rect shape-rendering="optimizeSpeed"  x="60" y="16" width="2" height="2" fill="black" />
<rect shape-rendering="optimizeSpeed"  x="12" y="18" width="2" height="2" fill="black" />
<rect shape-rendering="optimizeSpeed"  x="16" y="18" width="2" height="2" fill="black" />
<rect shape-rendering="optimizeSpeed"  x="18" y="18" width="2" height="2" fill="black" />
<rect shape-rendering="optimizeSpeed"  x="20" y="18" width="2" height="2" fill="black" />
<rect shape-rendering="optimizeSpeed"  x="24" y="18" width="2" height="2" fill="black" />
<rect shape-rendering="optimizeSpeed"  x="28" y="18" width="2" height="2" fill="black" />
<rect shape-rendering="optimizeSpeed"  x="30" y="18" width="2" height="2" fill="black" />
<rect shape-rendering="optimizeSpeed"  x="32" y="18" width="2" height="2" fill="black" />
<rect shape-rendering="optimizeSpeed"  x="38" y="18" width="2" height="2" fill="black" />
<rect shape-rendering="optimizeSpeed"  x="42" y="18" width="2" height="2" fill="black" />
<rect shape-rendering="optimizeSpeed"  x="44" y="18" width="2" height="2" fill="black" />
<rect shape-rendering="optimizeSpeed"  x="48" y="18" width="2" height="2" fill="black" />
<rect shape-rendering="optimizeSpeed"  x="52" y="18" width="2" height="2" fill="black" />
<rect shape-rendering="optimizeSpeed"  x="54" y="18" width="2" height="2" fill="black" />
<rect shape-rendering="optimizeSpeed"  x="56" y="18" width="2" height="2" fill="black" />
<rect shape-rendering="optimizeSpeed"  x="60" y="18" width="2" height="2" fill="black" />
<rect shape-rendering="optimizeSpeed"  x="12" y="20" width="2" height="2" fill="black" />
<rect shape-rendering="optimizeSpeed"  x="16" y="20" width="2" height="2" fill="black" />
<rect shape-rendering="optimizeSpeed"  x="18" y="20" width="2" height="2" fill="black" />
<rect shape-rendering="optimizeSpeed"  x="20" y="20" width="2" height="2" fill="black" />
<rect shape-rendering="optimizeSpeed"  x="24" y="20" width="2" height="2" fill="black" />
<rect shape-rendering="optimizeSpeed"  x="28" y="20" width="2" height="2" fill="black" />
<rect shape-rendering="optimizeSpeed"  x="30" y="20" width="2" height="2" fill="black" />
<rect shape-rendering="optimizeSpeed"  x="32" y="20" width="2" height="2" fill="black" />
<rect shape-rendering="optimizeSpeed"  x="34" y="20" width="2" height="2" fill="black" />
<rect shape-rendering="optimizeSpeed"  x="36" y="20" width="2" height="2" fill="black" />
<rect shape-rendering="optimizeSpeed"  x="38" y="20" width="2" height="2" fill="black" />
<rect shape-rendering="optimizeSpeed"  x="44" y="20" width="2" height="2" fill="black" />
<rect shape-rendering="optimizeSpeed"  x="48" y="20" width="2" height="2" fill="black" />
<rect shape-rendering="optimizeSpeed"  x="52" y="20" width="2" height="2" fill="black" />
<rect shape-rendering="optimizeSpeed"  x="54" y="20" width="2" height="2" fill="black" />
<rect shape-rendering="optimizeSpeed"  x="56" y="20" width="2" height="2" fill="black" />
<rect shape-rendering="optimizeSpeed"  x="60" y="20" width="2" height="2" fill="black" />
<rect shape-rendering="optimizeSpeed"  x="12" y="22" width="2" height="2" fill="black" />
<rect shape-rendering="optimizeSpeed"  x="24" y="22" width="2" height="2" fill="black" />
<rect shape-rendering="optimizeSpeed"  x="30" y="22" width="2" height="2" fill="black" />
<rect shape-rendering="optimizeSpeed"  x="38" y="22" width="2" height="2" fill="black" />
<rect shape-rendering="optimizeSpeed"  x="40" y="22" width="2" height="2" fill="black" />
<rect shape-rendering="optimizeSpeed"  x="48" y="22" width="2" height="2" fill="black" />
<rect shape-rendering="optimizeSpeed"  x="60" y="22" width="2" height="2" fill="black" />
<rect shape-rendering="optimizeSpeed"  x="12" y="24" width="2" height="2" fill="black" />
<rect shape-rendering="optimizeSpeed"  x="14" y="24" width="2" height="2" fill="black" />
<rect shape-rendering="optimizeSpeed"  x="16" y="24" width="2" height="2" fill="black" />
<rect shape-rendering="optimizeSpeed"  x="18" y="24" width="2" height="2" fill="black" />
<rect shape-rendering="optimizeSpeed"  x="20" y="24" width="2" height="2" fill="black" />
<rect shape-rendering="optimizeSpeed"  x="22" y="24" width="2" height="2" fill="black" />
<rect shape-rendering="optimizeSpeed"  x="24" y="24" width="2" height="2" fill="black" />
<rect shape-rendering="optimizeSpeed"  x="28" y="24" width="2" height="2" fill="black" />
<rect shape-rendering="optimizeSpeed"  x="32" y="24" width="2" height="2" fill="black" />
<rect shape-rendering="optimizeSpeed"  x="36" y="24" width="2" height="2" fill="black" />
<rect shape-rendering="optimizeSpeed"  x="40" y="24" width="2" height="2" fill="black" />
<rect shape-rendering="optimizeSpeed"  x="44" y="24" width="2" height="2" fill="black" />
<rect shape-rendering="optimizeSpeed"  x="48" y="24" width="2" height="2" fill="black" />
<rect shape-rendering="optimizeSpeed"  x="50" y="24" width="2" height="2" fill="black" />
<rect shape-rendering="optimizeSpeed"  x="52" y="24" width="2" height="2" fill="black" />
<rect shape-rendering="optimizeSpeed"  x="54" y="24" width="2" height="2" fill="black" />
<rect shape-rendering="optimizeSpeed"  x="56" y="24" width="2" height="2" fill="black" />
<rect shape-rendering="optimizeSpeed"  x="58" y="24" width="2" height="2" fill="black" />
<rect shape-rendering="optimizeSpeed"  x="60" y="24" width="2" height="2" fill="black" />
<rect shape-rendering="optimizeSpeed"  x="42" y="26" width="2" height="2" fill="black" />
<rect shape-rendering="optimizeSpeed"  x="44" y="26" width="2" height="2" fill="black" />
<rect shape-rendering="optimizeSpeed"  x="12" y="28" width="2" height="2" fill="black" />
<rect shape-rendering="optimizeSpeed"  x="14" y="28" width="2" height="2" fill="black" />
<rect shape-rendering="optimizeSpeed"  x="22" y="28" width="2" height="2" fill="black" />
<rect shape-rendering="optimizeSpeed"  x="24" y="28" width="2" height="2" fill="black" />
<rect shape-rendering="optimizeSpeed"  x="26" y="28" width="2" height="2" fill="black" />
<rect shape-rendering="optimizeSpeed"  x="30" y="28" width="2" height="2" fill="black" />
<rect shape-rendering="optimizeSpeed"  x="38" y="28" width="2" height="2" fill="black" />
<rect shape-rendering="optimizeSpeed"  x="40" y="28" width="2" height="2" fill="black" />
<rect shape-rendering="optimizeSpeed"  x="52" y="28" width="2" height="2" fill="black" />
<rect shape-rendering="optimizeSpeed"  x="54" y="28" width="2" height="2" fill="black" />
<rect shape-rendering="optimizeSpeed"  x="14" y="30" width="2" height="2" fill="black" />
<rect shape-rendering="optimizeSpeed"  x="16" y="30" width="2" height="2" fill="black" />
<rect shape-rendering="optimizeSpeed"  x="18" y="30" width="2" height="2" fill="black" />
<rect shape-rendering="optimizeSpeed"  x="20" y="30" width="2" height="2" fill="black" />
<rect shape-rendering="optimizeSpeed"  x="22" y="30" width="2" height="2" fill="black" />
<rect shape-rendering="optimizeSpeed"  x="26" y="30" width="2" height="2" fill="black" />
<rect shape-rendering="optimizeSpeed"  x="28" y="30" width="2" height="2" fill="black" />
<rect shape-rendering="optimizeSpeed"  x="30" y="30" width="2" height="2" fill="black" />
<rect shape-rendering="optimizeSpeed"  x="32" y="30" width="2" height="2" fill="black" />
<rect shape-rendering="optimizeSpeed"  x="34" y="30" width="2" height="2" fill="black" />
<rect shape-rendering="optimizeSpeed"  x="36" y="30" width="2" height="2" fill="black" />
<rect shape-rendering="optimizeSpeed"  x="40" y="30" width="2" height="2" fill="black" />
<rect shape-rendering="optimizeSpeed"  x="42" y="30" width="2" height="2" fill="black" />
<rect shape-rendering="optimizeSpeed"  x="44" y="30" width="2" height="2" fill="black" />
<rect shape-rendering="optimizeSpeed"  x="50" y="30" width="2" height="2" fill="black" />
<rect shape-rendering="optimizeSpeed"  x="52" y="30" width="2" height="2" fill="black" />
<rect shape-rendering="optimizeSpeed"  x="54" y="30" width="2" height="2" fill="black" />
<rect shape-rendering="optimizeSpeed"  x="56" y="30" width="2" height="2" fill="black" />
<rect shape-rendering="optimizeSpeed"  x="58" y="30" width="2" height="2" fill="black" />
<rect shape-rendering="optimizeSpeed"  x="16" y="32" width="2" height="2" fill="black" />
<rect shape-rendering="optimizeSpeed"  x="18" y="32" width="2" height="2" fill="black" />
<rect shape-rendering="optimizeSpeed"  x="20" y="32" width="2" height="2" fill="black" />
<rect shape-rendering="optimizeSpeed"  x="24" y="32" width="2" height="2" fill="black" />
<rect shape-rendering="optimizeSpeed"  x="32" y="32" width="2" height="2" fill="black" />
<rect shape-rendering="optimizeSpeed"  x="40" y="32" width="2" height="2" fill="black" />
<rect shape-rendering="optimizeSpeed"  x="42" y="32" width="2" height="2" fill="black" />
<rect shape-rendering="optimizeSpeed"  x="44" y="32" width="2" height="2" fill="black" />
<rect shape-rendering="optimizeSpeed"  x="54" y="32" width="2" height="2" fill="black" />
<rect shape-rendering="optimizeSpeed"  x="58" y="32" width="2" height="2" fill="black" />
<rect shape-rendering="optimizeSpeed"  x="60" y="32" width="2" height="2" fill="black" />
<rect shape-rendering="optimizeSpeed"  x="12" y="34" width="2" height="2" fill="black" />
<rect shape-rendering="optimizeSpeed"  x="14" y="34" width="2" height="2" fill="black" />
<rect shape-rendering="optimizeSpeed"  x="30" y="34" width="2" height="2" fill="black" />
<rect shape-rendering="optimizeSpeed"  x="34" y="34" width="2" height="2" fill="black" />
<rect shape-rendering="optimizeSpeed"  x="40" y="34" width="2" height="2" fill="black" />
<rect shape-rendering="optimizeSpeed"  x="42" y="34" width="2" height="2" fill="black" />
<rect shape-rendering="optimizeSpeed"  x="46" y="34" width="2" height="2" fill="black" />
<rect shape-rendering="optimizeSpeed"  x="48" y="34" width="2" height="2" fill="black" />
<rect shape-rendering="optimizeSpeed"  x="50" y="34" width="2" height="2" fill="black" />
<rect shape-rendering="optimizeSpeed"  x="54" y="34" width="2" height="2" fill="black" />
<rect shape-rendering="optimizeSpeed"  x="60" y="34" width="2" height="2" fill="black" />
<rect shape-rendering="optimizeSpeed"  x="12" y="36" width="2" height="2" fill="black" />
<rect shape-rendering="optimizeSpeed"  x="14" y="36" width="2" height="2" fill="black" />
<rect shape-rendering="optimizeSpeed"  x="16" y="36" width="2" height="2" fill="black" />
<rect shape-rendering="optimizeSpeed"  x="20" y="36" width="2" height="2" fill="black" />
<rect shape-rendering="optimizeSpeed"  x="22" y="36" width="2" height="2" fill="black" />
<rect shape-rendering="optimizeSpeed"  x="24" y="36" width="2" height="2" fill="black" />
<rect shape-rendering="optimizeSpeed"  x="26" y="36" width="2" height="2" fill="black" />
<rect shape-rendering="optimizeSpeed"  x="30" y="36" width="2" height="2" fill="black" />
<rect shape-rendering="optimizeSpeed"  x="36" y="36" width="2" height="2" fill="black" />
<rect shape-rendering="optimizeSpeed"  x="42" y="36" width="2" height="2" fill="black" />
<rect shape-rendering="optimizeSpeed"  x="48" y="36" width="2" height="2" fill="black" />
<rect shape-rendering="optimizeSpeed"  x="50" y="36" width="2" height="2" fill="black" />
<rect shape-rendering="optimizeSpeed"  x="60" y="36" width="2" height="2" fill="black" />
<rect shape-rendering="optimizeSpeed"  x="12" y="38" width="2" height="2" fill="black" />
<rect shape-rendering="optimizeSpeed"  x="14" y="38" width="2" height="2" fill="black" />
<rect shape-rendering="optimizeSpeed"  x="16" y="38" width="2" height="2" fill="black" />
<rect shape-rendering="optimizeSpeed"  x="18" y="38" width="2" height="2" fill="black" />
<rect shape-rendering="optimizeSpeed"  x="20" y="38" width="2" height="2" fill="black" />
<rect shape-rendering="optimizeSpeed"  x="22" y="38" width="2" height="2" fill="black" />
<rect shape-rendering="optimizeSpeed"  x="30" y="38" width="2" height="2" fill="black" />
<rect shape-rendering="optimizeSpeed"  x="34" y="38" width="2" height="2" fill="black" />
<rect shape-rendering="optimizeSpeed"  x="36" y="38" width="2" height="2" fill="black" />
<rect shape-rendering="optimizeSpeed"  x="40" y="38" width="2" height="2" fill="black" />
<rect shape-rendering="optimizeSpeed"  x="42" y="38" width="2" height="2" fill="black" />
<rect shape-rendering="optimizeSpeed"  x="44" y="38" width="2" height="2" fill="black" />
<rect shape-rendering="optimizeSpeed"  x="46" y="38" width="2" height="2" fill="black" />
<rect shape-rendering="optimizeSpeed"  x="50" y="38" width="2" height="2" fill="black" />
<rect shape-rendering="optimizeSpeed"  x="58" y="38" width="2" height="2" fill="black" />
<rect shape-rendering="optimizeSpeed"  x="12" y="40" width="2" height="2" fill="black" />
<rect shape-rendering="optimizeSpeed"  x="18" y="40" width="2" height="2" fill="black" />
<rect shape-rendering="optimizeSpeed"  x="20" y="40" width="2" height="2" fill="black" />
<rect shape-rendering="optimizeSpeed"  x="22" y="40" width="2" height="2" fill="black" />
<rect shape-rendering="optimizeSpeed"  x="24" y="40" width="2" height="2" fill="black" />
<rect shape-rendering="optimizeSpeed"  x="28" y="40" width="2" height="2" fill="black" />
<rect shape-rendering="optimizeSpeed"  x="30" y="40" width="2" height="2" fill="black" />
<rect shape-rendering="optimizeSpeed"  x="32" y="40" width="2" height="2" fill="black" />
<rect shape-rendering="optimizeSpeed"  x="36" y="40" width="2" height="2" fill="black" />
<rect shape-rendering="optimizeSpeed"  x="40" y="40" width="2" height="2" fill="black" />
<rect shape-rendering="optimizeSpeed"  x="42" y="40" width="2" height="2" fill="black" />
<rect shape-rendering="optimizeSpeed"  x="44" y="40" width="2" height="2" fill="black" />
<rect shape-rendering="optimizeSpeed"  x="48" y="40" width="2" height="2" fill="black" />
<rect shape-rendering="optimizeSpeed"  x="50" y="40" width="2" height="2" fill="black" />
<rect shape-rendering="optimizeSpeed"  x="52" y="40" width="2" height="2" fill="black" />
<rect shape-rendering="optimizeSpeed"  x="54" y="40" width="2" height="2" fill="black" />
<rect shape-rendering="optimizeSpeed"  x="58" y="40" width="2" height="2" fill="black" />
<rect shape-rendering="optimizeSpeed"  x="60" y="40" width="2" height="2" fill="black" />
<rect shape-rendering="optimizeSpeed"  x="12" y="42" width="2" height="2" fill="black" />
<rect shape-rendering="optimizeSpeed"  x="16" y="42" width="2" height="2" fill="black" />
<rect shape-rendering="optimizeSpeed"  x="18" y="42" width="2" height="2" fill="black" />
<rect shape-rendering="optimizeSpeed"  x="26" y="42" width="2" height="2" fill="black" />
<rect shape-rendering="optimizeSpeed"  x="28" y="42" width="2" height="2" fill="black" />
<rect shape-rendering="optimizeSpeed"  x="40" y="42" width="2" height="2" fill="black" />
<rect shape-rendering="optimizeSpeed"  x="42" y="42" width="2" height="2" fill="black" />
<rect shape-rendering="optimizeSpeed"  x="44" y="42" width="2" height="2" fill="black" />
<rect shape-rendering="optimizeSpeed"  x="46" y="42" width="2" height="2" fill="black" />
<rect shape-rendering="optimizeSpeed"  x="50" y="42" width="2" height="2" fill="black" />
<rect shape-rendering="optimizeSpeed"  x="54" y="42" width="2" height="2" fill="black" />
<rect shape-rendering="optimizeSpeed"  x="56" y="42" width="2" height="2" fill="black" />
<rect shape-rendering="optimizeSpeed"  x="60" y="42" width="2" height="2" fill="black" />
<rect shape-rendering="optimizeSpeed"  x="12" y="44" width="2" height="2" fill="black" />
<rect shape-rendering="optimizeSpeed"  x="18" y="44" width="2" height="2" fill="black" />
<rect shape-rendering="optimizeSpeed"  x="22" y="44" width="2" height="2" fill="black" />
<rect shape-rendering="optimizeSpeed"  x="24" y="44" width="2" height="2" fill="black" />
<rect shape-rendering="optimizeSpeed"  x="28" y="44" width="2" height="2" fill="black" />
<rect shape-rendering="optimizeSpeed"  x="32" y="44" width="2" height="2" fill="black" />
<rect shape-rendering="optimizeSpeed"  x="38" y="44" width="2" height="2" fill="black" />
<rect shape-rendering="optimizeSpeed"  x="42" y="44" width="2" height="2" fill="black" />
<rect shape-rendering="optimizeSpeed"  x="44" y="44" width="2" height="2" fill="black" />
<rect shape-rendering="optimizeSpeed"  x="46" y="44" width="2" height="2" fill="black" />
<rect shape-rendering="optimizeSpeed"  x="48" y="44" width="2" height="2" fill="black" />
<rect shape-rendering="optimizeSpeed"  x="50" y="44" width="2" height="2" fill="black" />
<rect shape-rendering="optimizeSpeed"  x="52" y="44" width="2" height="2" fill="black" />
<rect shape-rendering="optimizeSpeed"  x="56" y="44" width="2" height="2" fill="black" />
<rect shape-rendering="optimizeSpeed"  x="28" y="46" width="2" height="2" fill="black" />
<rect shape-rendering="optimizeSpeed"  x="34" y="46" width="2" height="2" fill="black" />
<rect shape-rendering="optimizeSpeed"  x="38" y="46" width="2" height="2" fill="black" />
<rect shape-rendering="optimizeSpeed"  x="42" y="46" width="2" height="2" fill="black" />
<rect shape-rendering="optimizeSpeed"  x="44" y="46" width="2" height="2" fill="black" />
<rect shape-rendering="optimizeSpeed"  x="52" y="46" width="2" height="2" fill="black" />
<rect shape-rendering="optimizeSpeed"  x="12" y="48" width="2" height="2" fill="black" />
<rect shape-rendering="optimizeSpeed"  x="14" y="48" width="2" height="2" fill="black" />
<rect shape-rendering="optimizeSpeed"  x="16" y="48" width="2" height="2" fill="black" />
<rect shape-rendering="optimizeSpeed"  x="18" y="48" width="2" height="2" fill="black" />
<rect shape-rendering="optimizeSpeed"  x="20" y="48" width="2" height="2" fill="black" />
<rect shape-rendering="optimizeSpeed"  x="22" y="48" width="2" height="2" fill="black" />
<rect shape-rendering="optimizeSpeed"  x="24" y="48" width="2" height="2" fill="black" />
<rect shape-rendering="optimizeSpeed"  x="28" y="48" width="2" height="2" fill="black" />
<rect shape-rendering="optimizeSpeed"  x="30" y="48" width="2" height="2" fill="black" />
<rect shape-rendering="optimizeSpeed"  x="34" y="48" width="2" height="2" fill="black" />
<rect shape-rendering="optimizeSpeed"  x="44" y="48" width="2" height="2" fill="black" />
<rect shape-rendering="optimizeSpeed"  x="48" y="48" width="2" height="2" fill="black" />
<rect shape-rendering="optimizeSpeed"  x="52" y="48" width="2" height="2" fill="black" />
<rect shape-rendering="optimizeSpeed"  x="60" y="48" width="2" height="2" fill="black" />
<rect shape-rendering="optimizeSpeed"  x="12" y="50" width="2" height="2" fill="black" />
<rect shape-rendering="optimizeSpeed"  x="24" y="50" width="2" height="2" fill="black" />
<rect shape-rendering="optimizeSpeed"  x="28" y="50" width="2" height="2" fill="black" />
<rect shape-rendering="optimizeSpeed"  x="30" y="50" width="2" height="2" fill="black" />
<rect shape-rendering="optimizeSpeed"  x="32" y="50" width="2" height="2" fill="black" />
<rect shape-rendering="optimizeSpeed"  x="34" y="50" width="2" height="2" fill="black" />
<rect shape-rendering="optimizeSpeed"  x="42" y="50" width="2" height="2" fill="black" />
<rect shape-rendering="optimizeSpeed"  x="44" y="50" width="2" height="2" fill="black" />
<rect shape-rendering="optimizeSpeed"  x="52" y="50" width="2" height="2" fill="black" />
<rect shape-rendering="optimizeSpeed"  x="58" y="50" width="2" height="2" fill="black" />
<rect shape-rendering="optimizeSpeed"  x="12" y="52" width="2" height="2" fill="black" />
<rect shape-rendering="optimizeSpeed"  x="16" y="52" width="2" height="2" fill="black" />
<rect shape-rendering="optimizeSpeed"  x="18" y="52" width="2" height="2" fill="black" />
<rect shape-rendering="optimizeSpeed"  x="20" y="52" width="2" height="2" fill="black" />
<rect shape-rendering="optimizeSpeed"  x="24" y="52" width="2" height="2" fill="black" />
<rect shape-rendering="optimizeSpeed"  x="32" y="52" width="2" height="2" fill="black" />
<rect shape-rendering="optimizeSpeed"  x="34" y="52" width="2" height="2" fill="black" />
<rect shape-rendering="optimizeSpeed"  x="36" y="52" width="2" height="2" fill="black" />
<rect shape-rendering="optimizeSpeed"  x="38" y="52" width="2" height="2" fill="black" />
<rect shape-rendering="optimizeSpeed"  x="40" y="52" width="2" height="2" fill="black" />
<rect shape-rendering="optimizeSpeed"  x="42" y="52" width="2" height="2" fill="black" />
<rect shape-rendering="optimizeSpeed"  x="44" y="52" width="2" height="2" fill="black" />
<rect shape-rendering="optimizeSpeed"  x="46" y="52" width="2" height="2" fill="black" />
<rect shape-rendering="optimizeSpeed"  x="48" y="52" width="2" height="2" fill="black" />
<rect shape-rendering="optimizeSpeed"  x="50" y="52" width="2" height="2" fill="black" />
<rect shape-rendering="optimizeSpeed"  x="52" y="52" width="2" height="2" fill="black" />
<rect shape-rendering="optimizeSpeed"  x="56" y="52" width="2" height="2" fill="black" />
<rect shape-rendering="optimizeSpeed"  x="58" y="52" width="2" height="2" fill="black" />
<rect shape-rendering="optimizeSpeed"  x="12" y="54" width="2" height="2" fill="black" />
<rect shape-rendering="optimizeSpeed"  x="16" y="54" width="2" height="2" fill="black" />
<rect shape-rendering="optimizeSpeed"  x="18" y="54" width="2" height="2" fill="black" />
<rect shape-rendering="optimizeSpeed"  x="20" y="54" width="2" height="2" fill="black" />
<rect shape-rendering="optimizeSpeed"  x="24" y="54" width="2" height="2" fill="black" />
<rect shape-rendering="optimizeSpeed"  x="30" y="54" width="2" height="2" fill="black" />
<rect shape-rendering="optimizeSpeed"  x="32" y="54" width="2" height="2" fill="black" />
<rect shape-rendering="optimizeSpeed"  x="34" y="54" width="2" height="2" fill="black" />
<rect shape-rendering="optimizeSpeed"  x="36" y="54" width="2" height="2" fill="black" />
<rect shape-rendering="optimizeSpeed"  x="38" y="54" width="2" height="2" fill="black" />
<rect shape-rendering="optimizeSpeed"  x="40" y="54" width="2" height="2" fill="black" />
<rect shape-rendering="optimizeSpeed"  x="42" y="54" width="2" height="2" fill="black" />
<rect shape-rendering="optimizeSpeed"  x="44" y="54" width="2" height="2" fill="black" />
<rect shape-rendering="optimizeSpeed"  x="46" y="54" width="2" height="2" fill="black" />
<rect shape-rendering="optimizeSpeed"  x="48" y="54" width="2" height="2" fill="black" />
<rect shape-rendering="optimizeSpeed"  x="58" y="54" width="2" height="2" fill="black" />
<rect shape-rendering="optimizeSpeed"  x="60" y="54" width="2" height="2" fill="black" />
<rect shape-rendering="optimizeSpeed"  x="12" y="56" width="2" height="2" fill="black" />
<rect shape-rendering="optimizeSpeed"  x="16" y="56" width="2" height="2" fill="black" />
<rect shape-rendering="optimizeSpeed"  x="18" y="56" width="2" height="2" fill="black" />
<rect shape-rendering="optimizeSpeed"  x="20" y="56" width="2" height="2" fill="black" />
<rect shape-rendering="optimizeSpeed"  x="24" y="56" width="2" height="2" fill="black" />
<rect shape-rendering="optimizeSpeed"  x="30" y="56" width="2" height="2" fill="black" />
<rect shape-rendering="optimizeSpeed"  x="32" y="56" width="2" height="2" fill="black" />
<rect shape-rendering="optimizeSpeed"  x="54" y="56" width="2" height="2" fill="black" />
<rect shape-rendering="optimizeSpeed"  x="56" y="56" width="2" height="2" fill="black" />
<rect shape-rendering="optimizeSpeed"  x="60" y="56" width="2" height="2" fill="black" />
<rect shape-rendering="optimizeSpeed"  x="12" y="58" width="2" height="2" fill="black" />
<rect shape-rendering="optimizeSpeed"  x="24" y="58" width="2" height="2" fill="black" />
<rect shape-rendering="optimizeSpeed"  x="28" y="58" width="2" height="2" fill="black" />
<rect shape-rendering="optimizeSpeed"  x="34" y="58" width="2" height="2" fill="black" />
<rect shape-rendering="optimizeSpeed"  x="40" y="58" width="2" height="2" fill="black" />
<rect shape-rendering="optimizeSpeed"  x="42" y="58" width="2" height="2" fill="black" />
<rect shape-rendering="optimizeSpeed"  x="44" y="58" width="2" height="2" fill="black" />
<rect shape-rendering="optimizeSpeed"  x="48" y="58" width="2" height="2" fill="black" />
<rect shape-rendering="optimizeSpeed"  x="50" y="58" width="2" height="2" fill="black" />
<rect shape-rendering="optimizeSpeed"  x="52" y="58" width="2" height="2" fill="black" />
<rect shape-rendering="optimizeSpeed"  x="60" y="58" width="2" height="2" fill="black" />
<rect shape-rendering="optimizeSpeed"  x="12" y="60" width="2" height="2" fill="black" />
<rect shape-rendering="optimizeSpeed"  x="14" y="60" width="2" height="2" fill="black" />
<rect shape-rendering="optimizeSpeed"  x="16" y="60" width="2" height="2" fill="black" />
<rect shape-rendering="optimizeSpeed"  x="18" y="60" width="2" height="2" fill="black" />
<rect shape-rendering="optimizeSpeed"  x="20" y="60" width="2" height="2" fill="black" />
<rect shape-rendering="optimizeSpeed"  x="22" y="60" width="2" height="2" fill="black" />
<rect shape-rendering="optimizeSpeed"  x="24" y="60" width="2" height="2" fill="black" />
<rect shape-rendering="optimizeSpeed"  x="28" y="60" width="2" height="2" fill="black" />
<rect shape-rendering="optimizeSpeed"  x="32" y="60" width="2" height="2" fill="black" />
<rect shape-rendering="optimizeSpeed"  x="36" y="60" width="2" height="2" fill="black" />
<rect shape-rendering="optimizeSpeed"  x="44" y="60" width="2" height="2" fill="black" />
<rect shape-rendering="optimizeSpeed"  x="54" y="60" width="2" height="2" fill="black" />
<rect shape-rendering="optimizeSpeed"  x="60" y="60" width="2" height="2" fill="black" /></svg>