<?xml version="1.0" encoding="UTF-8"?>
<svg version="1.1" baseProfile="tiny" xmlns="http://www.w3.org/2000/svg" width="75" height="75">
<rect shape-rendering="optimizeSpeed"  x="0" y="0" width="75" height="75" fill="white" />
<rect shape-rendering="optimizeSpeed"  x="4" y="4" width="2" height="2" fill="black" />
<rect shape-rendering="optimizeSpeed"  x="6" y="4" width="2" height="2" fill="black" />
<rect shape-rendering="optimizeSpeed"  x="8" y="4" width="2" height="2" fill="black" />
<rect shape-rendering="optimizeSpeed"  x="10" y="4" width="2" height="2" fill="black" />
<rect shape-rendering="optimizeSpeed"  x="12" y="4" width="2" height="2" fill="black" />
<rect shape-rendering="optimizeSpeed"  x="14" y="4" width="2" height="2" fill="black" />
<rect shape-rendering="optimizeSpeed"  x="16" y="4" width="2" height="2" fill="black" />
<rect shape-rendering="optimizeSpeed"  x="24" y="4" width="2" height="2" fill="black" />
<rect shape-rendering="optimizeSpeed"  x="28" y="4" width="2" height="2" fill="black" />
<rect shape-rendering="optimizeSpeed"  x="32" y="4" width="2" height="2" fill="black" />
<rect shape-rendering="optimizeSpeed"  x="38" y="4" width="2" height="2" fill="black" />
<rect shape-rendering="optimizeSpeed"  x="40" y="4" width="2" height="2" fill="black" />
<rect shape-rendering="optimizeSpeed"  x="42" y="4" width="2" height="2" fill="black" />
<rect shape-rendering="optimizeSpeed"  x="44" y="4" width="2" height="2" fill="black" />
<rect shape-rendering="optimizeSpeed"  x="46" y="4" width="2" height="2" fill="black" />
<rect shape-rendering="optimizeSpeed"  x="48" y="4" width="2" height="2" fill="black" />
<rect shape-rendering="optimizeSpeed"  x="50" y="4" width="2" height="2" fill="black" />
<rect shape-rendering="optimizeSpeed"  x="52" y="4" width="2" height="2" fill="black" />
<rect shape-rendering="optimizeSpeed"  x="56" y="4" width="2" height="2" fill="black" />
<rect shape-rendering="optimizeSpeed"  x="58" y="4" width="2" height="2" fill="black" />
<rect shape-rendering="optimizeSpeed"  x="60" y="4" width="2" height="2" fill="black" />
<rect shape-rendering="optimizeSpeed"  x="62" y="4" width="2" height="2" fill="black" />
<rect shape-rendering="optimizeSpeed"  x="64" y="4" width="2" height="2" fill="black" />
<rect shape-rendering="optimizeSpeed"  x="66" y="4" width="2" height="2" fill="black" />
<rect shape-rendering="optimizeSpeed"  x="68" y="4" width="2" height="2" fill="black" />
<rect shape-rendering="optimizeSpeed"  x="4" y="6" width="2" height="2" fill="black" />
<rect shape-rendering="optimizeSpeed"  x="16" y="6" width="2" height="2" fill="black" />
<rect shape-rendering="optimizeSpeed"  x="20" y="6" width="2" height="2" fill="black" />
<rect shape-rendering="optimizeSpeed"  x="24" y="6" width="2" height="2" fill="black" />
<rect shape-rendering="optimizeSpeed"  x="30" y="6" width="2" height="2" fill="black" />
<rect shape-rendering="optimizeSpeed"  x="34" y="6" width="2" height="2" fill="black" />
<rect shape-rendering="optimizeSpeed"  x="38" y="6" width="2" height="2" fill="black" />
<rect shape-rendering="optimizeSpeed"  x="56" y="6" width="2" height="2" fill="black" />
<rect shape-rendering="optimizeSpeed"  x="68" y="6" width="2" height="2" fill="black" />
<rect shape-rendering="optimizeSpeed"  x="4" y="8" width="2" height="2" fill="black" />
<rect shape-rendering="optimizeSpeed"  x="8" y="8" width="2" height="2" fill="black" />
<rect shape-rendering="optimizeSpeed"  x="10" y="8" width="2" height="2" fill="black" />
<rect shape-rendering="optimizeSpeed"  x="12" y="8" width="2" height="2" fill="black" />
<rect shape-rendering="optimizeSpeed"  x="16" y="8" width="2" height="2" fill="black" />
<rect shape-rendering="optimizeSpeed"  x="28" y="8" width="2" height="2" fill="black" />
<rect shape-rendering="optimizeSpeed"  x="32" y="8" width="2" height="2" fill="black" />
<rect shape-rendering="optimizeSpeed"  x="40" y="8" width="2" height="2" fill="black" />
<rect shape-rendering="optimizeSpeed"  x="42" y="8" width="2" height="2" fill="black" />
<rect shape-rendering="optimizeSpeed"  x="44" y="8" width="2" height="2" fill="black" />
<rect shape-rendering="optimizeSpeed"  x="46" y="8" width="2" height="2" fill="black" />
<rect shape-rendering="optimizeSpeed"  x="50" y="8" width="2" height="2" fill="black" />
<rect shape-rendering="optimizeSpeed"  x="56" y="8" width="2" height="2" fill="black" />
<rect shape-rendering="optimizeSpeed"  x="60" y="8" width="2" height="2" fill="black" />
<rect shape-rendering="optimizeSpeed"  x="62" y="8" width="2" height="2" fill="black" />
<rect shape-rendering="optimizeSpeed"  x="64" y="8" width="2" height="2" fill="black" />
<rect shape-rendering="optimizeSpeed"  x="68" y="8" width="2" height="2" fill="black" />
<rect shape-rendering="optimizeSpeed"  x="4" y="10" width="2" height="2" fill="black" />
<rect shape-rendering="optimizeSpeed"  x="8" y="10" width="2" height="2" fill="black" />
<rect shape-rendering="optimizeSpeed"  x="10" y="10" width="2" height="2" fill="black" />
<rect shape-rendering="optimizeSpeed"  x="12" y="10" width="2" height="2" fill="black" />
<rect shape-rendering="optimizeSpeed"  x="16" y="10" width="2" height="2" fill="black" />
<rect shape-rendering="optimizeSpeed"  x="20" y="10" width="2" height="2" fill="black" />
<rect shape-rendering="optimizeSpeed"  x="22" y="10" width="2" height="2" fill="black" />
<rect shape-rendering="optimizeSpeed"  x="24" y="10" width="2" height="2" fill="black" />
<rect shape-rendering="optimizeSpeed"  x="28" y="10" width="2" height="2" fill="black" />
<rect shape-rendering="optimizeSpeed"  x="30" y="10" width="2" height="2" fill="black" />
<rect shape-rendering="optimizeSpeed"  x="34" y="10" width="2" height="2" fill="black" />
<rect shape-rendering="optimizeSpeed"  x="36" y="10" width="2" height="2" fill="black" />
<rect shape-rendering="optimizeSpeed"  x="38" y="10" width="2" height="2" fill="black" />
<rect shape-rendering="optimizeSpeed"  x="42" y="10" width="2" height="2" fill="black" />
<rect shape-rendering="optimizeSpeed"  x="50" y="10" width="2" height="2" fill="black" />
<rect shape-rendering="optimizeSpeed"  x="52" y="10" width="2" height="2" fill="black" />
<rect shape-rendering="optimizeSpeed"  x="56" y="10" width="2" height="2" fill="black" />
<rect shape-rendering="optimizeSpeed"  x="60" y="10" width="2" height="2" fill="black" />
<rect shape-rendering="optimizeSpeed"  x="62" y="10" width="2" height="2" fill="black" />
<rect shape-rendering="optimizeSpeed"  x="64" y="10" width="2" height="2" fill="black" />
<rect shape-rendering="optimizeSpeed"  x="68" y="10" width="2" height="2" fill="black" />
<rect shape-rendering="optimizeSpeed"  x="4" y="12" width="2" height="2" fill="black" />
<rect shape-rendering="optimizeSpeed"  x="8" y="12" width="2" height="2" fill="black" />
<rect shape-rendering="optimizeSpeed"  x="10" y="12" width="2" height="2" fill="black" />
<rect shape-rendering="optimizeSpeed"  x="12" y="12" width="2" height="2" fill="black" />
<rect shape-rendering="optimizeSpeed"  x="16" y="12" width="2" height="2" fill="black" />
<rect shape-rendering="optimizeSpeed"  x="22" y="12" width="2" height="2" fill="black" />
<rect shape-rendering="optimizeSpeed"  x="32" y="12" width="2" height="2" fill="black" />
<rect shape-rendering="optimizeSpeed"  x="40" y="12" width="2" height="2" fill="black" />
<rect shape-rendering="optimizeSpeed"  x="42" y="12" width="2" height="2" fill="black" />
<rect shape-rendering="optimizeSpeed"  x="44" y="12" width="2" height="2" fill="black" />
<rect shape-rendering="optimizeSpeed"  x="46" y="12" width="2" height="2" fill="black" />
<rect shape-rendering="optimizeSpeed"  x="48" y="12" width="2" height="2" fill="black" />
<rect shape-rendering="optimizeSpeed"  x="50" y="12" width="2" height="2" fill="black" />
<rect shape-rendering="optimizeSpeed"  x="52" y="12" width="2" height="2" fill="black" />
<rect shape-rendering="optimizeSpeed"  x="56" y="12" width="2" height="2" fill="black" />
<rect shape-rendering="optimizeSpeed"  x="60" y="12" width="2" height="2" fill="black" />
<rect shape-rendering="optimizeSpeed"  x="62" y="12" width="2" height="2" fill="black" />
<rect shape-rendering="optimizeSpeed"  x="64" y="12" width="2" height="2" fill="black" />
<rect shape-rendering="optimizeSpeed"  x="68" y="12" width="2" height="2" fill="black" />
<rect shape-rendering="optimizeSpeed"  x="4" y="14" width="2" height="2" fill="black" />
<rect shape-rendering="optimizeSpeed"  x="16" y="14" width="2" height="2" fill="black" />
<rect shape-rendering="optimizeSpeed"  x="20" y="14" width="2" height="2" fill="black" />
<rect shape-rendering="optimizeSpeed"  x="22" y="14" width="2" height="2" fill="black" />
<rect shape-rendering="optimizeSpeed"  x="26" y="14" width="2" height="2" fill="black" />
<rect shape-rendering="optimizeSpeed"  x="28" y="14" width="2" height="2" fill="black" />
<rect shape-rendering="optimizeSpeed"  x="32" y="14" width="2" height="2" fill="black" />
<rect shape-rendering="optimizeSpeed"  x="34" y="14" width="2" height="2" fill="black" />
<rect shape-rendering="optimizeSpeed"  x="36" y="14" width="2" height="2" fill="black" />
<rect shape-rendering="optimizeSpeed"  x="44" y="14" width="2" height="2" fill="black" />
<rect shape-rendering="optimizeSpeed"  x="46" y="14" width="2" height="2" fill="black" />
<rect shape-rendering="optimizeSpeed"  x="56" y="14" width="2" height="2" fill="black" />
<rect shape-rendering="optimizeSpeed"  x="68" y="14" width="2" height="2" fill="black" />
<rect shape-rendering="optimizeSpeed"  x="4" y="16" width="2" height="2" fill="black" />
<rect shape-rendering="optimizeSpeed"  x="6" y="16" width="2" height="2" fill="black" />
<rect shape-rendering="optimizeSpeed"  x="8" y="16" width="2" height="2" fill="black" />
<rect shape-rendering="optimizeSpeed"  x="10" y="16" width="2" height="2" fill="black" />
<rect shape-rendering="optimizeSpeed"  x="12" y="16" width="2" height="2" fill="black" />
<rect shape-rendering="optimizeSpeed"  x="14" y="16" width="2" height="2" fill="black" />
<rect shape-rendering="optimizeSpeed"  x="16" y="16" width="2" height="2" fill="black" />
<rect shape-rendering="optimizeSpeed"  x="20" y="16" width="2" height="2" fill="black" />
<rect shape-rendering="optimizeSpeed"  x="24" y="16" width="2" height="2" fill="black" />
<rect shape-rendering="optimizeSpeed"  x="28" y="16" width="2" height="2" fill="black" />
<rect shape-rendering="optimizeSpeed"  x="32" y="16" width="2" height="2" fill="black" />
<rect shape-rendering="optimizeSpeed"  x="36" y="16" width="2" height="2" fill="black" />
<rect shape-rendering="optimizeSpeed"  x="40" y="16" width="2" height="2" fill="black" />
<rect shape-rendering="optimizeSpeed"  x="44" y="16" width="2" height="2" fill="black" />
<rect shape-rendering="optimizeSpeed"  x="48" y="16" width="2" height="2" fill="black" />
<rect shape-rendering="optimizeSpeed"  x="52" y="16" width="2" height="2" fill="black" />
<rect shape-rendering="optimizeSpeed"  x="56" y="16" width="2" height="2" fill="black" />
<rect shape-rendering="optimizeSpeed"  x="58" y="16" width="2" height="2" fill="black" />
<rect shape-rendering="optimizeSpeed"  x="60" y="16" width="2" height="2" fill="black" />
<rect shape-rendering="optimizeSpeed"  x="62" y="16" width="2" height="2" fill="black" />
<rect shape-rendering="optimizeSpeed"  x="64" y="16" width="2" height="2" fill="black" />
<rect shape-rendering="optimizeSpeed"  x="66" y="16" width="2" height="2" fill="black" />
<rect shape-rendering="optimizeSpeed"  x="68" y="16" width="2" height="2" fill="black" />
<rect shape-rendering="optimizeSpeed"  x="22" y="18" width="2" height="2" fill="black" />
<rect shape-rendering="optimizeSpeed"  x="24" y="18" width="2" height="2" fill="black" />
<rect shape-rendering="optimizeSpeed"  x="26" y="18" width="2" height="2" fill="black" />
<rect shape-rendering="optimizeSpeed"  x="32" y="18" width="2" height="2" fill="black" />
<rect shape-rendering="optimizeSpeed"  x="34" y="18" width="2" height="2" fill="black" />
<rect shape-rendering="optimizeSpeed"  x="36" y="18" width="2" height="2" fill="black" />
<rect shape-rendering="optimizeSpeed"  x="46" y="18" width="2" height="2" fill="black" />
<rect shape-rendering="optimizeSpeed"  x="4" y="20" width="2" height="2" fill="black" />
<rect shape-rendering="optimizeSpeed"  x="6" y="20" width="2" height="2" fill="black" />
<rect shape-rendering="optimizeSpeed"  x="8" y="20" width="2" height="2" fill="black" />
<rect shape-rendering="optimizeSpeed"  x="10" y="20" width="2" height="2" fill="black" />
<rect shape-rendering="optimizeSpeed"  x="12" y="20" width="2" height="2" fill="black" />
<rect shape-rendering="optimizeSpeed"  x="16" y="20" width="2" height="2" fill="black" />
<rect shape-rendering="optimizeSpeed"  x="18" y="20" width="2" height="2" fill="black" />
<rect shape-rendering="optimizeSpeed"  x="20" y="20" width="2" height="2" fill="black" />
<rect shape-rendering="optimizeSpeed"  x="22" y="20" width="2" height="2" fill="black" />
<rect shape-rendering="optimizeSpeed"  x="26" y="20" width="2" height="2" fill="black" />
<rect shape-rendering="optimizeSpeed"  x="30" y="20" width="2" height="2" fill="black" />
<rect shape-rendering="optimizeSpeed"  x="36" y="20" width="2" height="2" fill="black" />
<rect shape-rendering="optimizeSpeed"  x="38" y="20" width="2" height="2" fill="black" />
<rect shape-rendering="optimizeSpeed"  x="50" y="20" width="2" height="2" fill="black" />
<rect shape-rendering="optimizeSpeed"  x="52" y="20" width="2" height="2" fill="black" />
<rect shape-rendering="optimizeSpeed"  x="54" y="20" width="2" height="2" fill="black" />
<rect shape-rendering="optimizeSpeed"  x="58" y="20" width="2" height="2" fill="black" />
<rect shape-rendering="optimizeSpeed"  x="62" y="20" width="2" height="2" fill="black" />
<rect shape-rendering="optimizeSpeed"  x="66" y="20" width="2" height="2" fill="black" />
<rect shape-rendering="optimizeSpeed"  x="8" y="22" width="2" height="2" fill="black" />
<rect shape-rendering="optimizeSpeed"  x="12" y="22" width="2" height="2" fill="black" />
<rect shape-rendering="optimizeSpeed"  x="14" y="22" width="2" height="2" fill="black" />
<rect shape-rendering="optimizeSpeed"  x="24" y="22" width="2" height="2" fill="black" />
<rect shape-rendering="optimizeSpeed"  x="28" y="22" width="2" height="2" fill="black" />
<rect shape-rendering="optimizeSpeed"  x="32" y="22" width="2" height="2" fill="black" />
<rect shape-rendering="optimizeSpeed"  x="38" y="22" width="2" height="2" fill="black" />
<rect shape-rendering="optimizeSpeed"  x="40" y="22" width="2" height="2" fill="black" />
<rect shape-rendering="optimizeSpeed"  x="42" y="22" width="2" height="2" fill="black" />
<rect shape-rendering="optimizeSpeed"  x="44" y="22" width="2" height="2" fill="black" />
<rect shape-rendering="optimizeSpeed"  x="48" y="22" width="2" height="2" fill="black" />
<rect shape-rendering="optimizeSpeed"  x="50" y="22" width="2" height="2" fill="black" />
<rect shape-rendering="optimizeSpeed"  x="56" y="22" width="2" height="2" fill="black" />
<rect shape-rendering="optimizeSpeed"  x="64" y="22" width="2" height="2" fill="black" />
<rect shape-rendering="optimizeSpeed"  x="66" y="22" width="2" height="2" fill="black" />
<rect shape-rendering="optimizeSpeed"  x="68" y="22" width="2" height="2" fill="black" />
<rect shape-rendering="optimizeSpeed"  x="6" y="24" width="2" height="2" fill="black" />
<rect shape-rendering="optimizeSpeed"  x="8" y="24" width="2" height="2" fill="black" />
<rect shape-rendering="optimizeSpeed"  x="10" y="24" width="2" height="2" fill="black" />
<rect shape-rendering="optimizeSpeed"  x="14" y="24" width="2" height="2" fill="black" />
<rect shape-rendering="optimizeSpeed"  x="16" y="24" width="2" height="2" fill="black" />
<rect shape-rendering="optimizeSpeed"  x="18" y="24" width="2" height="2" fill="black" />
<rect shape-rendering="optimizeSpeed"  x="24" y="24" width="2" height="2" fill="black" />
<rect shape-rendering="optimizeSpeed"  x="32" y="24" width="2" height="2" fill="black" />
<rect shape-rendering="optimizeSpeed"  x="34" y="24" width="2" height="2" fill="black" />
<rect shape-rendering="optimizeSpeed"  x="46" y="24" width="2" height="2" fill="black" />
<rect shape-rendering="optimizeSpeed"  x="56" y="24" width="2" height="2" fill="black" />
<rect shape-rendering="optimizeSpeed"  x="58" y="24" width="2" height="2" fill="black" />
<rect shape-rendering="optimizeSpeed"  x="60" y="24" width="2" height="2" fill="black" />
<rect shape-rendering="optimizeSpeed"  x="62" y="24" width="2" height="2" fill="black" />
<rect shape-rendering="optimizeSpeed"  x="66" y="24" width="2" height="2" fill="black" />
<rect shape-rendering="optimizeSpeed"  x="4" y="26" width="2" height="2" fill="black" />
<rect shape-rendering="optimizeSpeed"  x="8" y="26" width="2" height="2" fill="black" />
<rect shape-rendering="optimizeSpeed"  x="10" y="26" width="2" height="2" fill="black" />
<rect shape-rendering="optimizeSpeed"  x="14" y="26" width="2" height="2" fill="black" />
<rect shape-rendering="optimizeSpeed"  x="28" y="26" width="2" height="2" fill="black" />
<rect shape-rendering="optimizeSpeed"  x="34" y="26" width="2" height="2" fill="black" />
<rect shape-rendering="optimizeSpeed"  x="36" y="26" width="2" height="2" fill="black" />
<rect shape-rendering="optimizeSpeed"  x="40" y="26" width="2" height="2" fill="black" />
<rect shape-rendering="optimizeSpeed"  x="46" y="26" width="2" height="2" fill="black" />
<rect shape-rendering="optimizeSpeed"  x="48" y="26" width="2" height="2" fill="black" />
<rect shape-rendering="optimizeSpeed"  x="50" y="26" width="2" height="2" fill="black" />
<rect shape-rendering="optimizeSpeed"  x="54" y="26" width="2" height="2" fill="black" />
<rect shape-rendering="optimizeSpeed"  x="58" y="26" width="2" height="2" fill="black" />
<rect shape-rendering="optimizeSpeed"  x="64" y="26" width="2" height="2" fill="black" />
<rect shape-rendering="optimizeSpeed"  x="6" y="28" width="2" height="2" fill="black" />
<rect shape-rendering="optimizeSpeed"  x="8" y="28" width="2" height="2" fill="black" />
<rect shape-rendering="optimizeSpeed"  x="16" y="28" width="2" height="2" fill="black" />
<rect shape-rendering="optimizeSpeed"  x="20" y="28" width="2" height="2" fill="black" />
<rect shape-rendering="optimizeSpeed"  x="22" y="28" width="2" height="2" fill="black" />
<rect shape-rendering="optimizeSpeed"  x="24" y="28" width="2" height="2" fill="black" />
<rect shape-rendering="optimizeSpeed"  x="28" y="28" width="2" height="2" fill="black" />
<rect shape-rendering="optimizeSpeed"  x="30" y="28" width="2" height="2" fill="black" />
<rect shape-rendering="optimizeSpeed"  x="34" y="28" width="2" height="2" fill="black" />
<rect shape-rendering="optimizeSpeed"  x="38" y="28" width="2" height="2" fill="black" />
<rect shape-rendering="optimizeSpeed"  x="40" y="28" width="2" height="2" fill="black" />
<rect shape-rendering="optimizeSpeed"  x="42" y="28" width="2" height="2" fill="black" />
<rect shape-rendering="optimizeSpeed"  x="50" y="28" width="2" height="2" fill="black" />
<rect shape-rendering="optimizeSpeed"  x="52" y="28" width="2" height="2" fill="black" />
<rect shape-rendering="optimizeSpeed"  x="54" y="28" width="2" height="2" fill="black" />
<rect shape-rendering="optimizeSpeed"  x="58" y="28" width="2" height="2" fill="black" />
<rect shape-rendering="optimizeSpeed"  x="60" y="28" width="2" height="2" fill="black" />
<rect shape-rendering="optimizeSpeed"  x="62" y="28" width="2" height="2" fill="black" />
<rect shape-rendering="optimizeSpeed"  x="8" y="30" width="2" height="2" fill="black" />
<rect shape-rendering="optimizeSpeed"  x="14" y="30" width="2" height="2" fill="black" />
<rect shape-rendering="optimizeSpeed"  x="20" y="30" width="2" height="2" fill="black" />
<rect shape-rendering="optimizeSpeed"  x="22" y="30" width="2" height="2" fill="black" />
<rect shape-rendering="optimizeSpeed"  x="32" y="30" width="2" height="2" fill="black" />
<rect shape-rendering="optimizeSpeed"  x="36" y="30" width="2" height="2" fill="black" />
<rect shape-rendering="optimizeSpeed"  x="38" y="30" width="2" height="2" fill="black" />
<rect shape-rendering="optimizeSpeed"  x="40" y="30" width="2" height="2" fill="black" />
<rect shape-rendering="optimizeSpeed"  x="42" y="30" width="2" height="2" fill="black" />
<rect shape-rendering="optimizeSpeed"  x="44" y="30" width="2" height="2" fill="black" />
<rect shape-rendering="optimizeSpeed"  x="46" y="30" width="2" height="2" fill="black" />
<rect shape-rendering="optimizeSpeed"  x="48" y="30" width="2" height="2" fill="black" />
<rect shape-rendering="optimizeSpeed"  x="50" y="30" width="2" height="2" fill="black" />
<rect shape-rendering="optimizeSpeed"  x="56" y="30" width="2" height="2" fill="black" />
<rect shape-rendering="optimizeSpeed"  x="66" y="30" width="2" height="2" fill="black" />
<rect shape-rendering="optimizeSpeed"  x="68" y="30" width="2" height="2" fill="black" />
<rect shape-rendering="optimizeSpeed"  x="8" y="32" width="2" height="2" fill="black" />
<rect shape-rendering="optimizeSpeed"  x="10" y="32" width="2" height="2" fill="black" />
<rect shape-rendering="optimizeSpeed"  x="16" y="32" width="2" height="2" fill="black" />
<rect shape-rendering="optimizeSpeed"  x="18" y="32" width="2" height="2" fill="black" />
<rect shape-rendering="optimizeSpeed"  x="26" y="32" width="2" height="2" fill="black" />
<rect shape-rendering="optimizeSpeed"  x="28" y="32" width="2" height="2" fill="black" />
<rect shape-rendering="optimizeSpeed"  x="34" y="32" width="2" height="2" fill="black" />
<rect shape-rendering="optimizeSpeed"  x="36" y="32" width="2" height="2" fill="black" />
<rect shape-rendering="optimizeSpeed"  x="38" y="32" width="2" height="2" fill="black" />
<rect shape-rendering="optimizeSpeed"  x="44" y="32" width="2" height="2" fill="black" />
<rect shape-rendering="optimizeSpeed"  x="46" y="32" width="2" height="2" fill="black" />
<rect shape-rendering="optimizeSpeed"  x="48" y="32" width="2" height="2" fill="black" />
<rect shape-rendering="optimizeSpeed"  x="54" y="32" width="2" height="2" fill="black" />
<rect shape-rendering="optimizeSpeed"  x="56" y="32" width="2" height="2" fill="black" />
<rect shape-rendering="optimizeSpeed"  x="58" y="32" width="2" height="2" fill="black" />
<rect shape-rendering="optimizeSpeed"  x="60" y="32" width="2" height="2" fill="black" />
<rect shape-rendering="optimizeSpeed"  x="66" y="32" width="2" height="2" fill="black" />
<rect shape-rendering="optimizeSpeed"  x="6" y="34" width="2" height="2" fill="black" />
<rect shape-rendering="optimizeSpeed"  x="8" y="34" width="2" height="2" fill="black" />
<rect shape-rendering="optimizeSpeed"  x="12" y="34" width="2" height="2" fill="black" />
<rect shape-rendering="optimizeSpeed"  x="14" y="34" width="2" height="2" fill="black" />
<rect shape-rendering="optimizeSpeed"  x="18" y="34" width="2" height="2" fill="black" />
<rect shape-rendering="optimizeSpeed"  x="20" y="34" width="2" height="2" fill="black" />
<rect shape-rendering="optimizeSpeed"  x="24" y="34" width="2" height="2" fill="black" />
<rect shape-rendering="optimizeSpeed"  x="26" y="34" width="2" height="2" fill="black" />
<rect shape-rendering="optimizeSpeed"  x="32" y="34" width="2" height="2" fill="black" />
<rect shape-rendering="optimizeSpeed"  x="34" y="34" width="2" height="2" fill="black" />
<rect shape-rendering="optimizeSpeed"  x="42" y="34" width="2" height="2" fill="black" />
<rect shape-rendering="optimizeSpeed"  x="46" y="34" width="2" height="2" fill="black" />
<rect shape-rendering="optimizeSpeed"  x="48" y="34" width="2" height="2" fill="black" />
<rect shape-rendering="optimizeSpeed"  x="50" y="34" width="2" height="2" fill="black" />
<rect shape-rendering="optimizeSpeed"  x="52" y="34" width="2" height="2" fill="black" />
<rect shape-rendering="optimizeSpeed"  x="60" y="34" width="2" height="2" fill="black" />
<rect shape-rendering="optimizeSpeed"  x="64" y="34" width="2" height="2" fill="black" />
<rect shape-rendering="optimizeSpeed"  x="6" y="36" width="2" height="2" fill="black" />
<rect shape-rendering="optimizeSpeed"  x="8" y="36" width="2" height="2" fill="black" />
<rect shape-rendering="optimizeSpeed"  x="10" y="36" width="2" height="2" fill="black" />
<rect shape-rendering="optimizeSpeed"  x="16" y="36" width="2" height="2" fill="black" />
<rect shape-rendering="optimizeSpeed"  x="18" y="36" width="2" height="2" fill="black" />
<rect shape-rendering="optimizeSpeed"  x="20" y="36" width="2" height="2" fill="black" />
<rect shape-rendering="optimizeSpeed"  x="26" y="36" width="2" height="2" fill="black" />
<rect shape-rendering="optimizeSpeed"  x="38" y="36" width="2" height="2" fill="black" />
<rect shape-rendering="optimizeSpeed"  x="52" y="36" width="2" height="2" fill="black" />
<rect shape-rendering="optimizeSpeed"  x="54" y="36" width="2" height="2" fill="black" />
<rect shape-rendering="optimizeSpeed"  x="58" y="36" width="2" height="2" fill="black" />
<rect shape-rendering="optimizeSpeed"  x="60" y="36" width="2" height="2" fill="black" />
<rect shape-rendering="optimizeSpeed"  x="66" y="36" width="2" height="2" fill="black" />
<rect shape-rendering="optimizeSpeed"  x="6" y="38" width="2" height="2" fill="black" />
<rect shape-rendering="optimizeSpeed"  x="10" y="38" width="2" height="2" fill="black" />
<rect shape-rendering="optimizeSpeed"  x="18" y="38" width="2" height="2" fill="black" />
<rect shape-rendering="optimizeSpeed"  x="28" y="38" width="2" height="2" fill="black" />
<rect shape-rendering="optimizeSpeed"  x="30" y="38" width="2" height="2" fill="black" />
<rect shape-rendering="optimizeSpeed"  x="36" y="38" width="2" height="2" fill="black" />
<rect shape-rendering="optimizeSpeed"  x="40" y="38" width="2" height="2" fill="black" />
<rect shape-rendering="optimizeSpeed"  x="42" y="38" width="2" height="2" fill="black" />
<rect shape-rendering="optimizeSpeed"  x="44" y="38" width="2" height="2" fill="black" />
<rect shape-rendering="optimizeSpeed"  x="48" y="38" width="2" height="2" fill="black" />
<rect shape-rendering="optimizeSpeed"  x="50" y="38" width="2" height="2" fill="black" />
<rect shape-rendering="optimizeSpeed"  x="56" y="38" width="2" height="2" fill="black" />
<rect shape-rendering="optimizeSpeed"  x="58" y="38" width="2" height="2" fill="black" />
<rect shape-rendering="optimizeSpeed"  x="62" y="38" width="2" height="2" fill="black" />
<rect shape-rendering="optimizeSpeed"  x="66" y="38" width="2" height="2" fill="black" />
<rect shape-rendering="optimizeSpeed"  x="68" y="38" width="2" height="2" fill="black" />
<rect shape-rendering="optimizeSpeed"  x="4" y="40" width="2" height="2" fill="black" />
<rect shape-rendering="optimizeSpeed"  x="8" y="40" width="2" height="2" fill="black" />
<rect shape-rendering="optimizeSpeed"  x="12" y="40" width="2" height="2" fill="black" />
<rect shape-rendering="optimizeSpeed"  x="16" y="40" width="2" height="2" fill="black" />
<rect shape-rendering="optimizeSpeed"  x="18" y="40" width="2" height="2" fill="black" />
<rect shape-rendering="optimizeSpeed"  x="24" y="40" width="2" height="2" fill="black" />
<rect shape-rendering="optimizeSpeed"  x="30" y="40" width="2" height="2" fill="black" />
<rect shape-rendering="optimizeSpeed"  x="32" y="40" width="2" height="2" fill="black" />
<rect shape-rendering="optimizeSpeed"  x="34" y="40" width="2" height="2" fill="black" />
<rect shape-rendering="optimizeSpeed"  x="36" y="40" width="2" height="2" fill="black" />
<rect shape-rendering="optimizeSpeed"  x="44" y="40" width="2" height="2" fill="black" />
<rect shape-rendering="optimizeSpeed"  x="46" y="40" width="2" height="2" fill="black" />
<rect shape-rendering="optimizeSpeed"  x="52" y="40" width="2" height="2" fill="black" />
<rect shape-rendering="optimizeSpeed"  x="56" y="40" width="2" height="2" fill="black" />
<rect shape-rendering="optimizeSpeed"  x="62" y="40" width="2" height="2" fill="black" />
<rect shape-rendering="optimizeSpeed"  x="66" y="40" width="2" height="2" fill="black" />
<rect shape-rendering="optimizeSpeed"  x="6" y="42" width="2" height="2" fill="black" />
<rect shape-rendering="optimizeSpeed"  x="12" y="42" width="2" height="2" fill="black" />
<rect shape-rendering="optimizeSpeed"  x="14" y="42" width="2" height="2" fill="black" />
<rect shape-rendering="optimizeSpeed"  x="20" y="42" width="2" height="2" fill="black" />
<rect shape-rendering="optimizeSpeed"  x="24" y="42" width="2" height="2" fill="black" />
<rect shape-rendering="optimizeSpeed"  x="28" y="42" width="2" height="2" fill="black" />
<rect shape-rendering="optimizeSpeed"  x="30" y="42" width="2" height="2" fill="black" />
<rect shape-rendering="optimizeSpeed"  x="40" y="42" width="2" height="2" fill="black" />
<rect shape-rendering="optimizeSpeed"  x="42" y="42" width="2" height="2" fill="black" />
<rect shape-rendering="optimizeSpeed"  x="44" y="42" width="2" height="2" fill="black" />
<rect shape-rendering="optimizeSpeed"  x="46" y="42" width="2" height="2" fill="black" />
<rect shape-rendering="optimizeSpeed"  x="48" y="42" width="2" height="2" fill="black" />
<rect shape-rendering="optimizeSpeed"  x="50" y="42" width="2" height="2" fill="black" />
<rect shape-rendering="optimizeSpeed"  x="54" y="42" width="2" height="2" fill="black" />
<rect shape-rendering="optimizeSpeed"  x="64" y="42" width="2" height="2" fill="black" />
<rect shape-rendering="optimizeSpeed"  x="6" y="44" width="2" height="2" fill="black" />
<rect shape-rendering="optimizeSpeed"  x="10" y="44" width="2" height="2" fill="black" />
<rect shape-rendering="optimizeSpeed"  x="14" y="44" width="2" height="2" fill="black" />
<rect shape-rendering="optimizeSpeed"  x="16" y="44" width="2" height="2" fill="black" />
<rect shape-rendering="optimizeSpeed"  x="18" y="44" width="2" height="2" fill="black" />
<rect shape-rendering="optimizeSpeed"  x="20" y="44" width="2" height="2" fill="black" />
<rect shape-rendering="optimizeSpeed"  x="24" y="44" width="2" height="2" fill="black" />
<rect shape-rendering="optimizeSpeed"  x="28" y="44" width="2" height="2" fill="black" />
<rect shape-rendering="optimizeSpeed"  x="32" y="44" width="2" height="2" fill="black" />
<rect shape-rendering="optimizeSpeed"  x="34" y="44" width="2" height="2" fill="black" />
<rect shape-rendering="optimizeSpeed"  x="38" y="44" width="2" height="2" fill="black" />
<rect shape-rendering="optimizeSpeed"  x="42" y="44" width="2" height="2" fill="black" />
<rect shape-rendering="optimizeSpeed"  x="50" y="44" width="2" height="2" fill="black" />
<rect shape-rendering="optimizeSpeed"  x="52" y="44" width="2" height="2" fill="black" />
<rect shape-rendering="optimizeSpeed"  x="54" y="44" width="2" height="2" fill="black" />
<rect shape-rendering="optimizeSpeed"  x="58" y="44" width="2" height="2" fill="black" />
<rect shape-rendering="optimizeSpeed"  x="60" y="44" width="2" height="2" fill="black" />
<rect shape-rendering="optimizeSpeed"  x="66" y="44" width="2" height="2" fill="black" />
<rect shape-rendering="optimizeSpeed"  x="4" y="46" width="2" height="2" fill="black" />
<rect shape-rendering="optimizeSpeed"  x="6" y="46" width="2" height="2" fill="black" />
<rect shape-rendering="optimizeSpeed"  x="8" y="46" width="2" height="2" fill="black" />
<rect shape-rendering="optimizeSpeed"  x="12" y="46" width="2" height="2" fill="black" />
<rect shape-rendering="optimizeSpeed"  x="14" y="46" width="2" height="2" fill="black" />
<rect shape-rendering="optimizeSpeed"  x="18" y="46" width="2" height="2" fill="black" />
<rect shape-rendering="optimizeSpeed"  x="36" y="46" width="2" height="2" fill="black" />
<rect shape-rendering="optimizeSpeed"  x="40" y="46" width="2" height="2" fill="black" />
<rect shape-rendering="optimizeSpeed"  x="42" y="46" width="2" height="2" fill="black" />
<rect shape-rendering="optimizeSpeed"  x="48" y="46" width="2" height="2" fill="black" />
<rect shape-rendering="optimizeSpeed"  x="50" y="46" width="2" height="2" fill="black" />
<rect shape-rendering="optimizeSpeed"  x="52" y="46" width="2" height="2" fill="black" />
<rect shape-rendering="optimizeSpeed"  x="56" y="46" width="2" height="2" fill="black" />
<rect shape-rendering="optimizeSpeed"  x="62" y="46" width="2" height="2" fill="black" />
<rect shape-rendering="optimizeSpeed"  x="66" y="46" width="2" height="2" fill="black" />
<rect shape-rendering="optimizeSpeed"  x="68" y="46" width="2" height="2" fill="black" />
<rect shape-rendering="optimizeSpeed"  x="4" y="48" width="2" height="2" fill="black" />
<rect shape-rendering="optimizeSpeed"  x="8" y="48" width="2" height="2" fill="black" />
<rect shape-rendering="optimizeSpeed"  x="12" y="48" width="2" height="2" fill="black" />
<rect shape-rendering="optimizeSpeed"  x="14" y="48" width="2" height="2" fill="black" />
<rect shape-rendering="optimizeSpeed"  x="16" y="48" width="2" height="2" fill="black" />
<rect shape-rendering="optimizeSpeed"  x="22" y="48" width="2" height="2" fill="black" />
<rect shape-rendering="optimizeSpeed"  x="24" y="48" width="2" height="2" fill="black" />
<rect shape-rendering="optimizeSpeed"  x="26" y="48" width="2" height="2" fill="black" />
<rect shape-rendering="optimizeSpeed"  x="28" y="48" width="2" height="2" fill="black" />
<rect shape-rendering="optimizeSpeed"  x="34" y="48" width="2" height="2" fill="black" />
<rect shape-rendering="optimizeSpeed"  x="36" y="48" width="2" height="2" fill="black" />
<rect shape-rendering="optimizeSpeed"  x="44" y="48" width="2" height="2" fill="black" />
<rect shape-rendering="optimizeSpeed"  x="46" y="48" width="2" height="2" fill="black" />
<rect shape-rendering="optimizeSpeed"  x="60" y="48" width="2" height="2" fill="black" />
<rect shape-rendering="optimizeSpeed"  x="62" y="48" width="2" height="2" fill="black" />
<rect shape-rendering="optimizeSpeed"  x="66" y="48" width="2" height="2" fill="black" />
<rect shape-rendering="optimizeSpeed"  x="4" y="50" width="2" height="2" fill="black" />
<rect shape-rendering="optimizeSpeed"  x="8" y="50" width="2" height="2" fill="black" />
<rect shape-rendering="optimizeSpeed"  x="12" y="50" width="2" height="2" fill="black" />
<rect shape-rendering="optimizeSpeed"  x="14" y="50" width="2" height="2" fill="black" />
<rect shape-rendering="optimizeSpeed"  x="18" y="50" width="2" height="2" fill="black" />
<rect shape-rendering="optimizeSpeed"  x="24" y="50" width="2" height="2" fill="black" />
<rect shape-rendering="optimizeSpeed"  x="26" y="50" width="2" height="2" fill="black" />
<rect shape-rendering="optimizeSpeed"  x="32" y="50" width="2" height="2" fill="black" />
<rect shape-rendering="optimizeSpeed"  x="36" y="50" width="2" height="2" fill="black" />
<rect shape-rendering="optimizeSpeed"  x="42" y="50" width="2" height="2" fill="black" />
<rect shape-rendering="optimizeSpeed"  x="46" y="50" width="2" height="2" fill="black" />
<rect shape-rendering="optimizeSpeed"  x="48" y="50" width="2" height="2" fill="black" />
<rect shape-rendering="optimizeSpeed"  x="52" y="50" width="2" height="2" fill="black" />
<rect shape-rendering="optimizeSpeed"  x="56" y="50" width="2" height="2" fill="black" />
<rect shape-rendering="optimizeSpeed"  x="58" y="50" width="2" height="2" fill="black" />
<rect shape-rendering="optimizeSpeed"  x="62" y="50" width="2" height="2" fill="black" />
<rect shape-rendering="optimizeSpeed"  x="64" y="50" width="2" height="2" fill="black" />
<rect shape-rendering="optimizeSpeed"  x="4" y="52" width="2" height="2" fill="black" />
<rect shape-rendering="optimizeSpeed"  x="8" y="52" width="2" height="2" fill="black" />
<rect shape-rendering="optimizeSpeed"  x="10" y="52" width="2" height="2" fill="black" />
<rect shape-rendering="optimizeSpeed"  x="14" y="52" width="2" height="2" fill="black" />
<rect shape-rendering="optimizeSpeed"  x="16" y="52" width="2" height="2" fill="black" />
<rect shape-rendering="optimizeSpeed"  x="18" y="52" width="2" height="2" fill="black" />
<rect shape-rendering="optimizeSpeed"  x="22" y="52" width="2" height="2" fill="black" />
<rect shape-rendering="optimizeSpeed"  x="26" y="52" width="2" height="2" fill="black" />
<rect shape-rendering="optimizeSpeed"  x="36" y="52" width="2" height="2" fill="black" />
<rect shape-rendering="optimizeSpeed"  x="38" y="52" width="2" height="2" fill="black" />
<rect shape-rendering="optimizeSpeed"  x="50" y="52" width="2" height="2" fill="black" />
<rect shape-rendering="optimizeSpeed"  x="52" y="52" width="2" height="2" fill="black" />
<rect shape-rendering="optimizeSpeed"  x="54" y="52" width="2" height="2" fill="black" />
<rect shape-rendering="optimizeSpeed"  x="56" y="52" width="2" height="2" fill="black" />
<rect shape-rendering="optimizeSpeed"  x="58" y="52" width="2" height="2" fill="black" />
<rect shape-rendering="optimizeSpeed"  x="60" y="52" width="2" height="2" fill="black" />
<rect shape-rendering="optimizeSpeed"  x="62" y="52" width="2" height="2" fill="black" />
<rect shape-rendering="optimizeSpeed"  x="68" y="52" width="2" height="2" fill="black" />
<rect shape-rendering="optimizeSpeed"  x="20" y="54" width="2" height="2" fill="black" />
<rect shape-rendering="optimizeSpeed"  x="24" y="54" width="2" height="2" fill="black" />
<rect shape-rendering="optimizeSpeed"  x="28" y="54" width="2" height="2" fill="black" />
<rect shape-rendering="optimizeSpeed"  x="30" y="54" width="2" height="2" fill="black" />
<rect shape-rendering="optimizeSpeed"  x="32" y="54" width="2" height="2" fill="black" />
<rect shape-rendering="optimizeSpeed"  x="42" y="54" width="2" height="2" fill="black" />
<rect shape-rendering="optimizeSpeed"  x="46" y="54" width="2" height="2" fill="black" />
<rect shape-rendering="optimizeSpeed"  x="48" y="54" width="2" height="2" fill="black" />
<rect shape-rendering="optimizeSpeed"  x="52" y="54" width="2" height="2" fill="black" />
<rect shape-rendering="optimizeSpeed"  x="60" y="54" width="2" height="2" fill="black" />
<rect shape-rendering="optimizeSpeed"  x="64" y="54" width="2" height="2" fill="black" />
<rect shape-rendering="optimizeSpeed"  x="68" y="54" width="2" height="2" fill="black" />
<rect shape-rendering="optimizeSpeed"  x="4" y="56" width="2" height="2" fill="black" />
<rect shape-rendering="optimizeSpeed"  x="6" y="56" width="2" height="2" fill="black" />
<rect shape-rendering="optimizeSpeed"  x="8" y="56" width="2" height="2" fill="black" />
<rect shape-rendering="optimizeSpeed"  x="10" y="56" width="2" height="2" fill="black" />
<rect shape-rendering="optimizeSpeed"  x="12" y="56" width="2" height="2" fill="black" />
<rect shape-rendering="optimizeSpeed"  x="14" y="56" width="2" height="2" fill="black" />
<rect shape-rendering="optimizeSpeed"  x="16" y="56" width="2" height="2" fill="black" />
<rect shape-rendering="optimizeSpeed"  x="20" y="56" width="2" height="2" fill="black" />
<rect shape-rendering="optimizeSpeed"  x="22" y="56" width="2" height="2" fill="black" />
<rect shape-rendering="optimizeSpeed"  x="24" y="56" width="2" height="2" fill="black" />
<rect shape-rendering="optimizeSpeed"  x="30" y="56" width="2" height="2" fill="black" />
<rect shape-rendering="optimizeSpeed"  x="32" y="56" width="2" height="2" fill="black" />
<rect shape-rendering="optimizeSpeed"  x="34" y="56" width="2" height="2" fill="black" />
<rect shape-rendering="optimizeSpeed"  x="44" y="56" width="2" height="2" fill="black" />
<rect shape-rendering="optimizeSpeed"  x="50" y="56" width="2" height="2" fill="black" />
<rect shape-rendering="optimizeSpeed"  x="52" y="56" width="2" height="2" fill="black" />
<rect shape-rendering="optimizeSpeed"  x="56" y="56" width="2" height="2" fill="black" />
<rect shape-rendering="optimizeSpeed"  x="60" y="56" width="2" height="2" fill="black" />
<rect shape-rendering="optimizeSpeed"  x="62" y="56" width="2" height="2" fill="black" />
<rect shape-rendering="optimizeSpeed"  x="66" y="56" width="2" height="2" fill="black" />
<rect shape-rendering="optimizeSpeed"  x="4" y="58" width="2" height="2" fill="black" />
<rect shape-rendering="optimizeSpeed"  x="16" y="58" width="2" height="2" fill="black" />
<rect shape-rendering="optimizeSpeed"  x="24" y="58" width="2" height="2" fill="black" />
<rect shape-rendering="optimizeSpeed"  x="28" y="58" width="2" height="2" fill="black" />
<rect shape-rendering="optimizeSpeed"  x="30" y="58" width="2" height="2" fill="black" />
<rect shape-rendering="optimizeSpeed"  x="34" y="58" width="2" height="2" fill="black" />
<rect shape-rendering="optimizeSpeed"  x="36" y="58" width="2" height="2" fill="black" />
<rect shape-rendering="optimizeSpeed"  x="40" y="58" width="2" height="2" fill="black" />
<rect shape-rendering="optimizeSpeed"  x="42" y="58" width="2" height="2" fill="black" />
<rect shape-rendering="optimizeSpeed"  x="44" y="58" width="2" height="2" fill="black" />
<rect shape-rendering="optimizeSpeed"  x="46" y="58" width="2" height="2" fill="black" />
<rect shape-rendering="optimizeSpeed"  x="48" y="58" width="2" height="2" fill="black" />
<rect shape-rendering="optimizeSpeed"  x="50" y="58" width="2" height="2" fill="black" />
<rect shape-rendering="optimizeSpeed"  x="52" y="58" width="2" height="2" fill="black" />
<rect shape-rendering="optimizeSpeed"  x="60" y="58" width="2" height="2" fill="black" />
<rect shape-rendering="optimizeSpeed"  x="62" y="58" width="2" height="2" fill="black" />
<rect shape-rendering="optimizeSpeed"  x="64" y="58" width="2" height="2" fill="black" />
<rect shape-rendering="optimizeSpeed"  x="66" y="58" width="2" height="2" fill="black" />
<rect shape-rendering="optimizeSpeed"  x="68" y="58" width="2" height="2" fill="black" />
<rect shape-rendering="optimizeSpeed"  x="4" y="60" width="2" height="2" fill="black" />
<rect shape-rendering="optimizeSpeed"  x="8" y="60" width="2" height="2" fill="black" />
<rect shape-rendering="optimizeSpeed"  x="10" y="60" width="2" height="2" fill="black" />
<rect shape-rendering="optimizeSpeed"  x="12" y="60" width="2" height="2" fill="black" />
<rect shape-rendering="optimizeSpeed"  x="16" y="60" width="2" height="2" fill="black" />
<rect shape-rendering="optimizeSpeed"  x="20" y="60" width="2" height="2" fill="black" />
<rect shape-rendering="optimizeSpeed"  x="22" y="60" width="2" height="2" fill="black" />
<rect shape-rendering="optimizeSpeed"  x="28" y="60" width="2" height="2" fill="black" />
<rect shape-rendering="optimizeSpeed"  x="32" y="60" width="2" height="2" fill="black" />
<rect shape-rendering="optimizeSpeed"  x="38" y="60" width="2" height="2" fill="black" />
<rect shape-rendering="optimizeSpeed"  x="42" y="60" width="2" height="2" fill="black" />
<rect shape-rendering="optimizeSpeed"  x="52" y="60" width="2" height="2" fill="black" />
<rect shape-rendering="optimizeSpeed"  x="54" y="60" width="2" height="2" fill="black" />
<rect shape-rendering="optimizeSpeed"  x="56" y="60" width="2" height="2" fill="black" />
<rect shape-rendering="optimizeSpeed"  x="58" y="60" width="2" height="2" fill="black" />
<rect shape-rendering="optimizeSpeed"  x="60" y="60" width="2" height="2" fill="black" />
<rect shape-rendering="optimizeSpeed"  x="62" y="60" width="2" height="2" fill="black" />
<rect shape-rendering="optimizeSpeed"  x="66" y="60" width="2" height="2" fill="black" />
<rect shape-rendering="optimizeSpeed"  x="68" y="60" width="2" height="2" fill="black" />
<rect shape-rendering="optimizeSpeed"  x="4" y="62" width="2" height="2" fill="black" />
<rect shape-rendering="optimizeSpeed"  x="8" y="62" width="2" height="2" fill="black" />
<rect shape-rendering="optimizeSpeed"  x="10" y="62" width="2" height="2" fill="black" />
<rect shape-rendering="optimizeSpeed"  x="12" y="62" width="2" height="2" fill="black" />
<rect shape-rendering="optimizeSpeed"  x="16" y="62" width="2" height="2" fill="black" />
<rect shape-rendering="optimizeSpeed"  x="20" y="62" width="2" height="2" fill="black" />
<rect shape-rendering="optimizeSpeed"  x="36" y="62" width="2" height="2" fill="black" />
<rect shape-rendering="optimizeSpeed"  x="40" y="62" width="2" height="2" fill="black" />
<rect shape-rendering="optimizeSpeed"  x="42" y="62" width="2" height="2" fill="black" />
<rect shape-rendering="optimizeSpeed"  x="46" y="62" width="2" height="2" fill="black" />
<rect shape-rendering="optimizeSpeed"  x="48" y="62" width="2" height="2" fill="black" />
<rect shape-rendering="optimizeSpeed"  x="52" y="62" width="2" height="2" fill="black" />
<rect shape-rendering="optimizeSpeed"  x="54" y="62" width="2" height="2" fill="black" />
<rect shape-rendering="optimizeSpeed"  x="58" y="62" width="2" height="2" fill="black" />
<rect shape-rendering="optimizeSpeed"  x="60" y="62" width="2" height="2" fill="black" />
<rect shape-rendering="optimizeSpeed"  x="64" y="62" width="2" height="2" fill="black" />
<rect shape-rendering="optimizeSpeed"  x="66" y="62" width="2" height="2" fill="black" />
<rect shape-rendering="optimizeSpeed"  x="68" y="62" width="2" height="2" fill="black" />
<rect shape-rendering="optimizeSpeed"  x="4" y="64" width="2" height="2" fill="black" />
<rect shape-rendering="optimizeSpeed"  x="8" y="64" width="2" height="2" fill="black" />
<rect shape-rendering="optimizeSpeed"  x="10" y="64" width="2" height="2" fill="black" />
<rect shape-rendering="optimizeSpeed"  x="12" y="64" width="2" height="2" fill="black" />
<rect shape-rendering="optimizeSpeed"  x="16" y="64" width="2" height="2" fill="black" />
<rect shape-rendering="optimizeSpeed"  x="20" y="64" width="2" height="2" fill="black" />
<rect shape-rendering="optimizeSpeed"  x="24" y="64" width="2" height="2" fill="black" />
<rect shape-rendering="optimizeSpeed"  x="26" y="64" width="2" height="2" fill="black" />
<rect shape-rendering="optimizeSpeed"  x="28" y="64" width="2" height="2" fill="black" />
<rect shape-rendering="optimizeSpeed"  x="34" y="64" width="2" height="2" fill="black" />
<rect shape-rendering="optimizeSpeed"  x="36" y="64" width="2" height="2" fill="black" />
<rect shape-rendering="optimizeSpeed"  x="40" y="64" width="2" height="2" fill="black" />
<rect shape-rendering="optimizeSpeed"  x="44" y="64" width="2" height="2" fill="black" />
<rect shape-rendering="optimizeSpeed"  x="48" y="64" width="2" height="2" fill="black" />
<rect shape-rendering="optimizeSpeed"  x="50" y="64" width="2" height="2" fill="black" />
<rect shape-rendering="optimizeSpeed"  x="56" y="64" width="2" height="2" fill="black" />
<rect shape-rendering="optimizeSpeed"  x="64" y="64" width="2" height="2" fill="black" />
<rect shape-rendering="optimizeSpeed"  x="4" y="66" width="2" height="2" fill="black" />
<rect shape-rendering="optimizeSpeed"  x="16" y="66" width="2" height="2" fill="black" />
<rect shape-rendering="optimizeSpeed"  x="20" y="66" width="2" height="2" fill="black" />
<rect shape-rendering="optimizeSpeed"  x="22" y="66" width="2" height="2" fill="black" />
<rect shape-rendering="optimizeSpeed"  x="24" y="66" width="2" height="2" fill="black" />
<rect shape-rendering="optimizeSpeed"  x="26" y="66" width="2" height="2" fill="black" />
<rect shape-rendering="optimizeSpeed"  x="32" y="66" width="2" height="2" fill="black" />
<rect shape-rendering="optimizeSpeed"  x="34" y="66" width="2" height="2" fill="black" />
<rect shape-rendering="optimizeSpeed"  x="46" y="66" width="2" height="2" fill="black" />
<rect shape-rendering="optimizeSpeed"  x="48" y="66" width="2" height="2" fill="black" />
<rect shape-rendering="optimizeSpeed"  x="56" y="66" width="2" height="2" fill="black" />
<rect shape-rendering="optimizeSpeed"  x="62" y="66" width="2" height="2" fill="black" />
<rect shape-rendering="optimizeSpeed"  x="64" y="66" width="2" height="2" fill="black" />
<rect shape-rendering="optimizeSpeed"  x="4" y="68" width="2" height="2" fill="black" />
<rect shape-rendering="optimizeSpeed"  x="6" y="68" width="2" height="2" fill="black" />
<rect shape-rendering="optimizeSpeed"  x="8" y="68" width="2" height="2" fill="black" />
<rect shape-rendering="optimizeSpeed"  x="10" y="68" width="2" height="2" fill="black" />
<rect shape-rendering="optimizeSpeed"  x="12" y="68" width="2" height="2" fill="black" />
<rect shape-rendering="optimizeSpeed"  x="14" y="68" width="2" height="2" fill="black" />
<rect shape-rendering="optimizeSpeed"  x="16" y="68" width="2" height="2" fill="black" />
<rect shape-rendering="optimizeSpeed"  x="20" y="68" width="2" height="2" fill="black" />
<rect shape-rendering="optimizeSpeed"  x="22" y="68" width="2" height="2" fill="black" />
<rect shape-rendering="optimizeSpeed"  x="24" y="68" width="2" height="2" fill="black" />
<rect shape-rendering="optimizeSpeed"  x="26" y="68" width="2" height="2" fill="black" />
<rect shape-rendering="optimizeSpeed"  x="38" y="68" width="2" height="2" fill="black" />
<rect shape-rendering="optimizeSpeed"  x="44" y="68" width="2" height="2" fill="black" />
<rect shape-rendering="optimizeSpeed"  x="50" y="68" width="2" height="2" fill="black" />
<rect shape-rendering="optimizeSpeed"  x="52" y="68" width="2" height="2" fill="black" />
<rect shape-rendering="optimizeSpeed"  x="54" y="68" width="2" height="2" fill="black" />
<rect shape-rendering="optimizeSpeed"  x="58" y="68" width="2" height="2" fill="black" />
<rect shape-rendering="optimizeSpeed"  x="66" y="68" width="2" height="2" fill="black" /></svg>