<?xml version="1.0" encoding="UTF-8"?>
<svg version="1.1" baseProfile="tiny" xmlns="http://www.w3.org/2000/svg" width="75" height="75">
<rect shape-rendering="optimizeSpeed"  x="0" y="0" width="75" height="75" fill="white" />
<rect shape-rendering="optimizeSpeed"  x="8" y="8" width="2" height="2" fill="black" />
<rect shape-rendering="optimizeSpeed"  x="10" y="8" width="2" height="2" fill="black" />
<rect shape-rendering="optimizeSpeed"  x="12" y="8" width="2" height="2" fill="black" />
<rect shape-rendering="optimizeSpeed"  x="14" y="8" width="2" height="2" fill="black" />
<rect shape-rendering="optimizeSpeed"  x="16" y="8" width="2" height="2" fill="black" />
<rect shape-rendering="optimizeSpeed"  x="18" y="8" width="2" height="2" fill="black" />
<rect shape-rendering="optimizeSpeed"  x="20" y="8" width="2" height="2" fill="black" />
<rect shape-rendering="optimizeSpeed"  x="26" y="8" width="2" height="2" fill="black" />
<rect shape-rendering="optimizeSpeed"  x="36" y="8" width="2" height="2" fill="black" />
<rect shape-rendering="optimizeSpeed"  x="44" y="8" width="2" height="2" fill="black" />
<rect shape-rendering="optimizeSpeed"  x="46" y="8" width="2" height="2" fill="black" />
<rect shape-rendering="optimizeSpeed"  x="48" y="8" width="2" height="2" fill="black" />
<rect shape-rendering="optimizeSpeed"  x="52" y="8" width="2" height="2" fill="black" />
<rect shape-rendering="optimizeSpeed"  x="54" y="8" width="2" height="2" fill="black" />
<rect shape-rendering="optimizeSpeed"  x="56" y="8" width="2" height="2" fill="black" />
<rect shape-rendering="optimizeSpeed"  x="58" y="8" width="2" height="2" fill="black" />
<rect shape-rendering="optimizeSpeed"  x="60" y="8" width="2" height="2" fill="black" />
<rect shape-rendering="optimizeSpeed"  x="62" y="8" width="2" height="2" fill="black" />
<rect shape-rendering="optimizeSpeed"  x="64" y="8" width="2" height="2" fill="black" />
<rect shape-rendering="optimizeSpeed"  x="8" y="10" width="2" height="2" fill="black" />
<rect shape-rendering="optimizeSpeed"  x="20" y="10" width="2" height="2" fill="black" />
<rect shape-rendering="optimizeSpeed"  x="24" y="10" width="2" height="2" fill="black" />
<rect shape-rendering="optimizeSpeed"  x="26" y="10" width="2" height="2" fill="black" />
<rect shape-rendering="optimizeSpeed"  x="30" y="10" width="2" height="2" fill="black" />
<rect shape-rendering="optimizeSpeed"  x="32" y="10" width="2" height="2" fill="black" />
<rect shape-rendering="optimizeSpeed"  x="34" y="10" width="2" height="2" fill="black" />
<rect shape-rendering="optimizeSpeed"  x="36" y="10" width="2" height="2" fill="black" />
<rect shape-rendering="optimizeSpeed"  x="38" y="10" width="2" height="2" fill="black" />
<rect shape-rendering="optimizeSpeed"  x="44" y="10" width="2" height="2" fill="black" />
<rect shape-rendering="optimizeSpeed"  x="52" y="10" width="2" height="2" fill="black" />
<rect shape-rendering="optimizeSpeed"  x="64" y="10" width="2" height="2" fill="black" />
<rect shape-rendering="optimizeSpeed"  x="8" y="12" width="2" height="2" fill="black" />
<rect shape-rendering="optimizeSpeed"  x="12" y="12" width="2" height="2" fill="black" />
<rect shape-rendering="optimizeSpeed"  x="14" y="12" width="2" height="2" fill="black" />
<rect shape-rendering="optimizeSpeed"  x="16" y="12" width="2" height="2" fill="black" />
<rect shape-rendering="optimizeSpeed"  x="20" y="12" width="2" height="2" fill="black" />
<rect shape-rendering="optimizeSpeed"  x="26" y="12" width="2" height="2" fill="black" />
<rect shape-rendering="optimizeSpeed"  x="28" y="12" width="2" height="2" fill="black" />
<rect shape-rendering="optimizeSpeed"  x="30" y="12" width="2" height="2" fill="black" />
<rect shape-rendering="optimizeSpeed"  x="36" y="12" width="2" height="2" fill="black" />
<rect shape-rendering="optimizeSpeed"  x="38" y="12" width="2" height="2" fill="black" />
<rect shape-rendering="optimizeSpeed"  x="40" y="12" width="2" height="2" fill="black" />
<rect shape-rendering="optimizeSpeed"  x="46" y="12" width="2" height="2" fill="black" />
<rect shape-rendering="optimizeSpeed"  x="48" y="12" width="2" height="2" fill="black" />
<rect shape-rendering="optimizeSpeed"  x="52" y="12" width="2" height="2" fill="black" />
<rect shape-rendering="optimizeSpeed"  x="56" y="12" width="2" height="2" fill="black" />
<rect shape-rendering="optimizeSpeed"  x="58" y="12" width="2" height="2" fill="black" />
<rect shape-rendering="optimizeSpeed"  x="60" y="12" width="2" height="2" fill="black" />
<rect shape-rendering="optimizeSpeed"  x="64" y="12" width="2" height="2" fill="black" />
<rect shape-rendering="optimizeSpeed"  x="8" y="14" width="2" height="2" fill="black" />
<rect shape-rendering="optimizeSpeed"  x="12" y="14" width="2" height="2" fill="black" />
<rect shape-rendering="optimizeSpeed"  x="14" y="14" width="2" height="2" fill="black" />
<rect shape-rendering="optimizeSpeed"  x="16" y="14" width="2" height="2" fill="black" />
<rect shape-rendering="optimizeSpeed"  x="20" y="14" width="2" height="2" fill="black" />
<rect shape-rendering="optimizeSpeed"  x="24" y="14" width="2" height="2" fill="black" />
<rect shape-rendering="optimizeSpeed"  x="26" y="14" width="2" height="2" fill="black" />
<rect shape-rendering="optimizeSpeed"  x="30" y="14" width="2" height="2" fill="black" />
<rect shape-rendering="optimizeSpeed"  x="38" y="14" width="2" height="2" fill="black" />
<rect shape-rendering="optimizeSpeed"  x="40" y="14" width="2" height="2" fill="black" />
<rect shape-rendering="optimizeSpeed"  x="42" y="14" width="2" height="2" fill="black" />
<rect shape-rendering="optimizeSpeed"  x="46" y="14" width="2" height="2" fill="black" />
<rect shape-rendering="optimizeSpeed"  x="52" y="14" width="2" height="2" fill="black" />
<rect shape-rendering="optimizeSpeed"  x="56" y="14" width="2" height="2" fill="black" />
<rect shape-rendering="optimizeSpeed"  x="58" y="14" width="2" height="2" fill="black" />
<rect shape-rendering="optimizeSpeed"  x="60" y="14" width="2" height="2" fill="black" />
<rect shape-rendering="optimizeSpeed"  x="64" y="14" width="2" height="2" fill="black" />
<rect shape-rendering="optimizeSpeed"  x="8" y="16" width="2" height="2" fill="black" />
<rect shape-rendering="optimizeSpeed"  x="12" y="16" width="2" height="2" fill="black" />
<rect shape-rendering="optimizeSpeed"  x="14" y="16" width="2" height="2" fill="black" />
<rect shape-rendering="optimizeSpeed"  x="16" y="16" width="2" height="2" fill="black" />
<rect shape-rendering="optimizeSpeed"  x="20" y="16" width="2" height="2" fill="black" />
<rect shape-rendering="optimizeSpeed"  x="28" y="16" width="2" height="2" fill="black" />
<rect shape-rendering="optimizeSpeed"  x="32" y="16" width="2" height="2" fill="black" />
<rect shape-rendering="optimizeSpeed"  x="34" y="16" width="2" height="2" fill="black" />
<rect shape-rendering="optimizeSpeed"  x="42" y="16" width="2" height="2" fill="black" />
<rect shape-rendering="optimizeSpeed"  x="44" y="16" width="2" height="2" fill="black" />
<rect shape-rendering="optimizeSpeed"  x="46" y="16" width="2" height="2" fill="black" />
<rect shape-rendering="optimizeSpeed"  x="52" y="16" width="2" height="2" fill="black" />
<rect shape-rendering="optimizeSpeed"  x="56" y="16" width="2" height="2" fill="black" />
<rect shape-rendering="optimizeSpeed"  x="58" y="16" width="2" height="2" fill="black" />
<rect shape-rendering="optimizeSpeed"  x="60" y="16" width="2" height="2" fill="black" />
<rect shape-rendering="optimizeSpeed"  x="64" y="16" width="2" height="2" fill="black" />
<rect shape-rendering="optimizeSpeed"  x="8" y="18" width="2" height="2" fill="black" />
<rect shape-rendering="optimizeSpeed"  x="20" y="18" width="2" height="2" fill="black" />
<rect shape-rendering="optimizeSpeed"  x="24" y="18" width="2" height="2" fill="black" />
<rect shape-rendering="optimizeSpeed"  x="28" y="18" width="2" height="2" fill="black" />
<rect shape-rendering="optimizeSpeed"  x="34" y="18" width="2" height="2" fill="black" />
<rect shape-rendering="optimizeSpeed"  x="36" y="18" width="2" height="2" fill="black" />
<rect shape-rendering="optimizeSpeed"  x="38" y="18" width="2" height="2" fill="black" />
<rect shape-rendering="optimizeSpeed"  x="44" y="18" width="2" height="2" fill="black" />
<rect shape-rendering="optimizeSpeed"  x="52" y="18" width="2" height="2" fill="black" />
<rect shape-rendering="optimizeSpeed"  x="64" y="18" width="2" height="2" fill="black" />
<rect shape-rendering="optimizeSpeed"  x="8" y="20" width="2" height="2" fill="black" />
<rect shape-rendering="optimizeSpeed"  x="10" y="20" width="2" height="2" fill="black" />
<rect shape-rendering="optimizeSpeed"  x="12" y="20" width="2" height="2" fill="black" />
<rect shape-rendering="optimizeSpeed"  x="14" y="20" width="2" height="2" fill="black" />
<rect shape-rendering="optimizeSpeed"  x="16" y="20" width="2" height="2" fill="black" />
<rect shape-rendering="optimizeSpeed"  x="18" y="20" width="2" height="2" fill="black" />
<rect shape-rendering="optimizeSpeed"  x="20" y="20" width="2" height="2" fill="black" />
<rect shape-rendering="optimizeSpeed"  x="24" y="20" width="2" height="2" fill="black" />
<rect shape-rendering="optimizeSpeed"  x="28" y="20" width="2" height="2" fill="black" />
<rect shape-rendering="optimizeSpeed"  x="32" y="20" width="2" height="2" fill="black" />
<rect shape-rendering="optimizeSpeed"  x="36" y="20" width="2" height="2" fill="black" />
<rect shape-rendering="optimizeSpeed"  x="40" y="20" width="2" height="2" fill="black" />
<rect shape-rendering="optimizeSpeed"  x="44" y="20" width="2" height="2" fill="black" />
<rect shape-rendering="optimizeSpeed"  x="48" y="20" width="2" height="2" fill="black" />
<rect shape-rendering="optimizeSpeed"  x="52" y="20" width="2" height="2" fill="black" />
<rect shape-rendering="optimizeSpeed"  x="54" y="20" width="2" height="2" fill="black" />
<rect shape-rendering="optimizeSpeed"  x="56" y="20" width="2" height="2" fill="black" />
<rect shape-rendering="optimizeSpeed"  x="58" y="20" width="2" height="2" fill="black" />
<rect shape-rendering="optimizeSpeed"  x="60" y="20" width="2" height="2" fill="black" />
<rect shape-rendering="optimizeSpeed"  x="62" y="20" width="2" height="2" fill="black" />
<rect shape-rendering="optimizeSpeed"  x="64" y="20" width="2" height="2" fill="black" />
<rect shape-rendering="optimizeSpeed"  x="32" y="22" width="2" height="2" fill="black" />
<rect shape-rendering="optimizeSpeed"  x="34" y="22" width="2" height="2" fill="black" />
<rect shape-rendering="optimizeSpeed"  x="38" y="22" width="2" height="2" fill="black" />
<rect shape-rendering="optimizeSpeed"  x="40" y="22" width="2" height="2" fill="black" />
<rect shape-rendering="optimizeSpeed"  x="46" y="22" width="2" height="2" fill="black" />
<rect shape-rendering="optimizeSpeed"  x="48" y="22" width="2" height="2" fill="black" />
<rect shape-rendering="optimizeSpeed"  x="8" y="24" width="2" height="2" fill="black" />
<rect shape-rendering="optimizeSpeed"  x="10" y="24" width="2" height="2" fill="black" />
<rect shape-rendering="optimizeSpeed"  x="12" y="24" width="2" height="2" fill="black" />
<rect shape-rendering="optimizeSpeed"  x="14" y="24" width="2" height="2" fill="black" />
<rect shape-rendering="optimizeSpeed"  x="16" y="24" width="2" height="2" fill="black" />
<rect shape-rendering="optimizeSpeed"  x="20" y="24" width="2" height="2" fill="black" />
<rect shape-rendering="optimizeSpeed"  x="22" y="24" width="2" height="2" fill="black" />
<rect shape-rendering="optimizeSpeed"  x="24" y="24" width="2" height="2" fill="black" />
<rect shape-rendering="optimizeSpeed"  x="26" y="24" width="2" height="2" fill="black" />
<rect shape-rendering="optimizeSpeed"  x="28" y="24" width="2" height="2" fill="black" />
<rect shape-rendering="optimizeSpeed"  x="32" y="24" width="2" height="2" fill="black" />
<rect shape-rendering="optimizeSpeed"  x="36" y="24" width="2" height="2" fill="black" />
<rect shape-rendering="optimizeSpeed"  x="38" y="24" width="2" height="2" fill="black" />
<rect shape-rendering="optimizeSpeed"  x="40" y="24" width="2" height="2" fill="black" />
<rect shape-rendering="optimizeSpeed"  x="42" y="24" width="2" height="2" fill="black" />
<rect shape-rendering="optimizeSpeed"  x="44" y="24" width="2" height="2" fill="black" />
<rect shape-rendering="optimizeSpeed"  x="46" y="24" width="2" height="2" fill="black" />
<rect shape-rendering="optimizeSpeed"  x="50" y="24" width="2" height="2" fill="black" />
<rect shape-rendering="optimizeSpeed"  x="54" y="24" width="2" height="2" fill="black" />
<rect shape-rendering="optimizeSpeed"  x="58" y="24" width="2" height="2" fill="black" />
<rect shape-rendering="optimizeSpeed"  x="62" y="24" width="2" height="2" fill="black" />
<rect shape-rendering="optimizeSpeed"  x="8" y="26" width="2" height="2" fill="black" />
<rect shape-rendering="optimizeSpeed"  x="10" y="26" width="2" height="2" fill="black" />
<rect shape-rendering="optimizeSpeed"  x="14" y="26" width="2" height="2" fill="black" />
<rect shape-rendering="optimizeSpeed"  x="16" y="26" width="2" height="2" fill="black" />
<rect shape-rendering="optimizeSpeed"  x="18" y="26" width="2" height="2" fill="black" />
<rect shape-rendering="optimizeSpeed"  x="24" y="26" width="2" height="2" fill="black" />
<rect shape-rendering="optimizeSpeed"  x="26" y="26" width="2" height="2" fill="black" />
<rect shape-rendering="optimizeSpeed"  x="42" y="26" width="2" height="2" fill="black" />
<rect shape-rendering="optimizeSpeed"  x="44" y="26" width="2" height="2" fill="black" />
<rect shape-rendering="optimizeSpeed"  x="46" y="26" width="2" height="2" fill="black" />
<rect shape-rendering="optimizeSpeed"  x="48" y="26" width="2" height="2" fill="black" />
<rect shape-rendering="optimizeSpeed"  x="52" y="26" width="2" height="2" fill="black" />
<rect shape-rendering="optimizeSpeed"  x="54" y="26" width="2" height="2" fill="black" />
<rect shape-rendering="optimizeSpeed"  x="56" y="26" width="2" height="2" fill="black" />
<rect shape-rendering="optimizeSpeed"  x="64" y="26" width="2" height="2" fill="black" />
<rect shape-rendering="optimizeSpeed"  x="8" y="28" width="2" height="2" fill="black" />
<rect shape-rendering="optimizeSpeed"  x="16" y="28" width="2" height="2" fill="black" />
<rect shape-rendering="optimizeSpeed"  x="20" y="28" width="2" height="2" fill="black" />
<rect shape-rendering="optimizeSpeed"  x="26" y="28" width="2" height="2" fill="black" />
<rect shape-rendering="optimizeSpeed"  x="30" y="28" width="2" height="2" fill="black" />
<rect shape-rendering="optimizeSpeed"  x="32" y="28" width="2" height="2" fill="black" />
<rect shape-rendering="optimizeSpeed"  x="38" y="28" width="2" height="2" fill="black" />
<rect shape-rendering="optimizeSpeed"  x="42" y="28" width="2" height="2" fill="black" />
<rect shape-rendering="optimizeSpeed"  x="48" y="28" width="2" height="2" fill="black" />
<rect shape-rendering="optimizeSpeed"  x="54" y="28" width="2" height="2" fill="black" />
<rect shape-rendering="optimizeSpeed"  x="10" y="30" width="2" height="2" fill="black" />
<rect shape-rendering="optimizeSpeed"  x="12" y="30" width="2" height="2" fill="black" />
<rect shape-rendering="optimizeSpeed"  x="24" y="30" width="2" height="2" fill="black" />
<rect shape-rendering="optimizeSpeed"  x="26" y="30" width="2" height="2" fill="black" />
<rect shape-rendering="optimizeSpeed"  x="28" y="30" width="2" height="2" fill="black" />
<rect shape-rendering="optimizeSpeed"  x="30" y="30" width="2" height="2" fill="black" />
<rect shape-rendering="optimizeSpeed"  x="36" y="30" width="2" height="2" fill="black" />
<rect shape-rendering="optimizeSpeed"  x="40" y="30" width="2" height="2" fill="black" />
<rect shape-rendering="optimizeSpeed"  x="46" y="30" width="2" height="2" fill="black" />
<rect shape-rendering="optimizeSpeed"  x="48" y="30" width="2" height="2" fill="black" />
<rect shape-rendering="optimizeSpeed"  x="56" y="30" width="2" height="2" fill="black" />
<rect shape-rendering="optimizeSpeed"  x="58" y="30" width="2" height="2" fill="black" />
<rect shape-rendering="optimizeSpeed"  x="62" y="30" width="2" height="2" fill="black" />
<rect shape-rendering="optimizeSpeed"  x="8" y="32" width="2" height="2" fill="black" />
<rect shape-rendering="optimizeSpeed"  x="10" y="32" width="2" height="2" fill="black" />
<rect shape-rendering="optimizeSpeed"  x="12" y="32" width="2" height="2" fill="black" />
<rect shape-rendering="optimizeSpeed"  x="14" y="32" width="2" height="2" fill="black" />
<rect shape-rendering="optimizeSpeed"  x="20" y="32" width="2" height="2" fill="black" />
<rect shape-rendering="optimizeSpeed"  x="24" y="32" width="2" height="2" fill="black" />
<rect shape-rendering="optimizeSpeed"  x="26" y="32" width="2" height="2" fill="black" />
<rect shape-rendering="optimizeSpeed"  x="30" y="32" width="2" height="2" fill="black" />
<rect shape-rendering="optimizeSpeed"  x="38" y="32" width="2" height="2" fill="black" />
<rect shape-rendering="optimizeSpeed"  x="40" y="32" width="2" height="2" fill="black" />
<rect shape-rendering="optimizeSpeed"  x="42" y="32" width="2" height="2" fill="black" />
<rect shape-rendering="optimizeSpeed"  x="46" y="32" width="2" height="2" fill="black" />
<rect shape-rendering="optimizeSpeed"  x="58" y="32" width="2" height="2" fill="black" />
<rect shape-rendering="optimizeSpeed"  x="60" y="32" width="2" height="2" fill="black" />
<rect shape-rendering="optimizeSpeed"  x="8" y="34" width="2" height="2" fill="black" />
<rect shape-rendering="optimizeSpeed"  x="10" y="34" width="2" height="2" fill="black" />
<rect shape-rendering="optimizeSpeed"  x="16" y="34" width="2" height="2" fill="black" />
<rect shape-rendering="optimizeSpeed"  x="26" y="34" width="2" height="2" fill="black" />
<rect shape-rendering="optimizeSpeed"  x="28" y="34" width="2" height="2" fill="black" />
<rect shape-rendering="optimizeSpeed"  x="32" y="34" width="2" height="2" fill="black" />
<rect shape-rendering="optimizeSpeed"  x="34" y="34" width="2" height="2" fill="black" />
<rect shape-rendering="optimizeSpeed"  x="36" y="34" width="2" height="2" fill="black" />
<rect shape-rendering="optimizeSpeed"  x="46" y="34" width="2" height="2" fill="black" />
<rect shape-rendering="optimizeSpeed"  x="48" y="34" width="2" height="2" fill="black" />
<rect shape-rendering="optimizeSpeed"  x="52" y="34" width="2" height="2" fill="black" />
<rect shape-rendering="optimizeSpeed"  x="54" y="34" width="2" height="2" fill="black" />
<rect shape-rendering="optimizeSpeed"  x="56" y="34" width="2" height="2" fill="black" />
<rect shape-rendering="optimizeSpeed"  x="64" y="34" width="2" height="2" fill="black" />
<rect shape-rendering="optimizeSpeed"  x="8" y="36" width="2" height="2" fill="black" />
<rect shape-rendering="optimizeSpeed"  x="10" y="36" width="2" height="2" fill="black" />
<rect shape-rendering="optimizeSpeed"  x="16" y="36" width="2" height="2" fill="black" />
<rect shape-rendering="optimizeSpeed"  x="20" y="36" width="2" height="2" fill="black" />
<rect shape-rendering="optimizeSpeed"  x="24" y="36" width="2" height="2" fill="black" />
<rect shape-rendering="optimizeSpeed"  x="26" y="36" width="2" height="2" fill="black" />
<rect shape-rendering="optimizeSpeed"  x="28" y="36" width="2" height="2" fill="black" />
<rect shape-rendering="optimizeSpeed"  x="34" y="36" width="2" height="2" fill="black" />
<rect shape-rendering="optimizeSpeed"  x="36" y="36" width="2" height="2" fill="black" />
<rect shape-rendering="optimizeSpeed"  x="38" y="36" width="2" height="2" fill="black" />
<rect shape-rendering="optimizeSpeed"  x="40" y="36" width="2" height="2" fill="black" />
<rect shape-rendering="optimizeSpeed"  x="48" y="36" width="2" height="2" fill="black" />
<rect shape-rendering="optimizeSpeed"  x="50" y="36" width="2" height="2" fill="black" />
<rect shape-rendering="optimizeSpeed"  x="54" y="36" width="2" height="2" fill="black" />
<rect shape-rendering="optimizeSpeed"  x="58" y="36" width="2" height="2" fill="black" />
<rect shape-rendering="optimizeSpeed"  x="60" y="36" width="2" height="2" fill="black" />
<rect shape-rendering="optimizeSpeed"  x="10" y="38" width="2" height="2" fill="black" />
<rect shape-rendering="optimizeSpeed"  x="12" y="38" width="2" height="2" fill="black" />
<rect shape-rendering="optimizeSpeed"  x="22" y="38" width="2" height="2" fill="black" />
<rect shape-rendering="optimizeSpeed"  x="24" y="38" width="2" height="2" fill="black" />
<rect shape-rendering="optimizeSpeed"  x="26" y="38" width="2" height="2" fill="black" />
<rect shape-rendering="optimizeSpeed"  x="32" y="38" width="2" height="2" fill="black" />
<rect shape-rendering="optimizeSpeed"  x="34" y="38" width="2" height="2" fill="black" />
<rect shape-rendering="optimizeSpeed"  x="40" y="38" width="2" height="2" fill="black" />
<rect shape-rendering="optimizeSpeed"  x="44" y="38" width="2" height="2" fill="black" />
<rect shape-rendering="optimizeSpeed"  x="48" y="38" width="2" height="2" fill="black" />
<rect shape-rendering="optimizeSpeed"  x="52" y="38" width="2" height="2" fill="black" />
<rect shape-rendering="optimizeSpeed"  x="56" y="38" width="2" height="2" fill="black" />
<rect shape-rendering="optimizeSpeed"  x="62" y="38" width="2" height="2" fill="black" />
<rect shape-rendering="optimizeSpeed"  x="8" y="40" width="2" height="2" fill="black" />
<rect shape-rendering="optimizeSpeed"  x="10" y="40" width="2" height="2" fill="black" />
<rect shape-rendering="optimizeSpeed"  x="12" y="40" width="2" height="2" fill="black" />
<rect shape-rendering="optimizeSpeed"  x="14" y="40" width="2" height="2" fill="black" />
<rect shape-rendering="optimizeSpeed"  x="18" y="40" width="2" height="2" fill="black" />
<rect shape-rendering="optimizeSpeed"  x="20" y="40" width="2" height="2" fill="black" />
<rect shape-rendering="optimizeSpeed"  x="24" y="40" width="2" height="2" fill="black" />
<rect shape-rendering="optimizeSpeed"  x="26" y="40" width="2" height="2" fill="black" />
<rect shape-rendering="optimizeSpeed"  x="32" y="40" width="2" height="2" fill="black" />
<rect shape-rendering="optimizeSpeed"  x="36" y="40" width="2" height="2" fill="black" />
<rect shape-rendering="optimizeSpeed"  x="42" y="40" width="2" height="2" fill="black" />
<rect shape-rendering="optimizeSpeed"  x="44" y="40" width="2" height="2" fill="black" />
<rect shape-rendering="optimizeSpeed"  x="48" y="40" width="2" height="2" fill="black" />
<rect shape-rendering="optimizeSpeed"  x="54" y="40" width="2" height="2" fill="black" />
<rect shape-rendering="optimizeSpeed"  x="58" y="40" width="2" height="2" fill="black" />
<rect shape-rendering="optimizeSpeed"  x="60" y="40" width="2" height="2" fill="black" />
<rect shape-rendering="optimizeSpeed"  x="8" y="42" width="2" height="2" fill="black" />
<rect shape-rendering="optimizeSpeed"  x="24" y="42" width="2" height="2" fill="black" />
<rect shape-rendering="optimizeSpeed"  x="28" y="42" width="2" height="2" fill="black" />
<rect shape-rendering="optimizeSpeed"  x="42" y="42" width="2" height="2" fill="black" />
<rect shape-rendering="optimizeSpeed"  x="44" y="42" width="2" height="2" fill="black" />
<rect shape-rendering="optimizeSpeed"  x="46" y="42" width="2" height="2" fill="black" />
<rect shape-rendering="optimizeSpeed"  x="48" y="42" width="2" height="2" fill="black" />
<rect shape-rendering="optimizeSpeed"  x="52" y="42" width="2" height="2" fill="black" />
<rect shape-rendering="optimizeSpeed"  x="54" y="42" width="2" height="2" fill="black" />
<rect shape-rendering="optimizeSpeed"  x="56" y="42" width="2" height="2" fill="black" />
<rect shape-rendering="optimizeSpeed"  x="60" y="42" width="2" height="2" fill="black" />
<rect shape-rendering="optimizeSpeed"  x="64" y="42" width="2" height="2" fill="black" />
<rect shape-rendering="optimizeSpeed"  x="8" y="44" width="2" height="2" fill="black" />
<rect shape-rendering="optimizeSpeed"  x="16" y="44" width="2" height="2" fill="black" />
<rect shape-rendering="optimizeSpeed"  x="20" y="44" width="2" height="2" fill="black" />
<rect shape-rendering="optimizeSpeed"  x="22" y="44" width="2" height="2" fill="black" />
<rect shape-rendering="optimizeSpeed"  x="24" y="44" width="2" height="2" fill="black" />
<rect shape-rendering="optimizeSpeed"  x="26" y="44" width="2" height="2" fill="black" />
<rect shape-rendering="optimizeSpeed"  x="28" y="44" width="2" height="2" fill="black" />
<rect shape-rendering="optimizeSpeed"  x="30" y="44" width="2" height="2" fill="black" />
<rect shape-rendering="optimizeSpeed"  x="32" y="44" width="2" height="2" fill="black" />
<rect shape-rendering="optimizeSpeed"  x="38" y="44" width="2" height="2" fill="black" />
<rect shape-rendering="optimizeSpeed"  x="40" y="44" width="2" height="2" fill="black" />
<rect shape-rendering="optimizeSpeed"  x="42" y="44" width="2" height="2" fill="black" />
<rect shape-rendering="optimizeSpeed"  x="50" y="44" width="2" height="2" fill="black" />
<rect shape-rendering="optimizeSpeed"  x="54" y="44" width="2" height="2" fill="black" />
<rect shape-rendering="optimizeSpeed"  x="56" y="44" width="2" height="2" fill="black" />
<rect shape-rendering="optimizeSpeed"  x="60" y="44" width="2" height="2" fill="black" />
<rect shape-rendering="optimizeSpeed"  x="8" y="46" width="2" height="2" fill="black" />
<rect shape-rendering="optimizeSpeed"  x="14" y="46" width="2" height="2" fill="black" />
<rect shape-rendering="optimizeSpeed"  x="16" y="46" width="2" height="2" fill="black" />
<rect shape-rendering="optimizeSpeed"  x="18" y="46" width="2" height="2" fill="black" />
<rect shape-rendering="optimizeSpeed"  x="30" y="46" width="2" height="2" fill="black" />
<rect shape-rendering="optimizeSpeed"  x="36" y="46" width="2" height="2" fill="black" />
<rect shape-rendering="optimizeSpeed"  x="48" y="46" width="2" height="2" fill="black" />
<rect shape-rendering="optimizeSpeed"  x="52" y="46" width="2" height="2" fill="black" />
<rect shape-rendering="optimizeSpeed"  x="62" y="46" width="2" height="2" fill="black" />
<rect shape-rendering="optimizeSpeed"  x="8" y="48" width="2" height="2" fill="black" />
<rect shape-rendering="optimizeSpeed"  x="14" y="48" width="2" height="2" fill="black" />
<rect shape-rendering="optimizeSpeed"  x="16" y="48" width="2" height="2" fill="black" />
<rect shape-rendering="optimizeSpeed"  x="20" y="48" width="2" height="2" fill="black" />
<rect shape-rendering="optimizeSpeed"  x="22" y="48" width="2" height="2" fill="black" />
<rect shape-rendering="optimizeSpeed"  x="24" y="48" width="2" height="2" fill="black" />
<rect shape-rendering="optimizeSpeed"  x="28" y="48" width="2" height="2" fill="black" />
<rect shape-rendering="optimizeSpeed"  x="30" y="48" width="2" height="2" fill="black" />
<rect shape-rendering="optimizeSpeed"  x="38" y="48" width="2" height="2" fill="black" />
<rect shape-rendering="optimizeSpeed"  x="42" y="48" width="2" height="2" fill="black" />
<rect shape-rendering="optimizeSpeed"  x="46" y="48" width="2" height="2" fill="black" />
<rect shape-rendering="optimizeSpeed"  x="48" y="48" width="2" height="2" fill="black" />
<rect shape-rendering="optimizeSpeed"  x="50" y="48" width="2" height="2" fill="black" />
<rect shape-rendering="optimizeSpeed"  x="52" y="48" width="2" height="2" fill="black" />
<rect shape-rendering="optimizeSpeed"  x="54" y="48" width="2" height="2" fill="black" />
<rect shape-rendering="optimizeSpeed"  x="56" y="48" width="2" height="2" fill="black" />
<rect shape-rendering="optimizeSpeed"  x="60" y="48" width="2" height="2" fill="black" />
<rect shape-rendering="optimizeSpeed"  x="62" y="48" width="2" height="2" fill="black" />
<rect shape-rendering="optimizeSpeed"  x="64" y="48" width="2" height="2" fill="black" />
<rect shape-rendering="optimizeSpeed"  x="24" y="50" width="2" height="2" fill="black" />
<rect shape-rendering="optimizeSpeed"  x="26" y="50" width="2" height="2" fill="black" />
<rect shape-rendering="optimizeSpeed"  x="28" y="50" width="2" height="2" fill="black" />
<rect shape-rendering="optimizeSpeed"  x="32" y="50" width="2" height="2" fill="black" />
<rect shape-rendering="optimizeSpeed"  x="34" y="50" width="2" height="2" fill="black" />
<rect shape-rendering="optimizeSpeed"  x="36" y="50" width="2" height="2" fill="black" />
<rect shape-rendering="optimizeSpeed"  x="40" y="50" width="2" height="2" fill="black" />
<rect shape-rendering="optimizeSpeed"  x="48" y="50" width="2" height="2" fill="black" />
<rect shape-rendering="optimizeSpeed"  x="56" y="50" width="2" height="2" fill="black" />
<rect shape-rendering="optimizeSpeed"  x="58" y="50" width="2" height="2" fill="black" />
<rect shape-rendering="optimizeSpeed"  x="60" y="50" width="2" height="2" fill="black" />
<rect shape-rendering="optimizeSpeed"  x="62" y="50" width="2" height="2" fill="black" />
<rect shape-rendering="optimizeSpeed"  x="64" y="50" width="2" height="2" fill="black" />
<rect shape-rendering="optimizeSpeed"  x="8" y="52" width="2" height="2" fill="black" />
<rect shape-rendering="optimizeSpeed"  x="10" y="52" width="2" height="2" fill="black" />
<rect shape-rendering="optimizeSpeed"  x="12" y="52" width="2" height="2" fill="black" />
<rect shape-rendering="optimizeSpeed"  x="14" y="52" width="2" height="2" fill="black" />
<rect shape-rendering="optimizeSpeed"  x="16" y="52" width="2" height="2" fill="black" />
<rect shape-rendering="optimizeSpeed"  x="18" y="52" width="2" height="2" fill="black" />
<rect shape-rendering="optimizeSpeed"  x="20" y="52" width="2" height="2" fill="black" />
<rect shape-rendering="optimizeSpeed"  x="24" y="52" width="2" height="2" fill="black" />
<rect shape-rendering="optimizeSpeed"  x="28" y="52" width="2" height="2" fill="black" />
<rect shape-rendering="optimizeSpeed"  x="34" y="52" width="2" height="2" fill="black" />
<rect shape-rendering="optimizeSpeed"  x="36" y="52" width="2" height="2" fill="black" />
<rect shape-rendering="optimizeSpeed"  x="38" y="52" width="2" height="2" fill="black" />
<rect shape-rendering="optimizeSpeed"  x="40" y="52" width="2" height="2" fill="black" />
<rect shape-rendering="optimizeSpeed"  x="46" y="52" width="2" height="2" fill="black" />
<rect shape-rendering="optimizeSpeed"  x="48" y="52" width="2" height="2" fill="black" />
<rect shape-rendering="optimizeSpeed"  x="52" y="52" width="2" height="2" fill="black" />
<rect shape-rendering="optimizeSpeed"  x="56" y="52" width="2" height="2" fill="black" />
<rect shape-rendering="optimizeSpeed"  x="58" y="52" width="2" height="2" fill="black" />
<rect shape-rendering="optimizeSpeed"  x="60" y="52" width="2" height="2" fill="black" />
<rect shape-rendering="optimizeSpeed"  x="8" y="54" width="2" height="2" fill="black" />
<rect shape-rendering="optimizeSpeed"  x="20" y="54" width="2" height="2" fill="black" />
<rect shape-rendering="optimizeSpeed"  x="32" y="54" width="2" height="2" fill="black" />
<rect shape-rendering="optimizeSpeed"  x="34" y="54" width="2" height="2" fill="black" />
<rect shape-rendering="optimizeSpeed"  x="38" y="54" width="2" height="2" fill="black" />
<rect shape-rendering="optimizeSpeed"  x="44" y="54" width="2" height="2" fill="black" />
<rect shape-rendering="optimizeSpeed"  x="46" y="54" width="2" height="2" fill="black" />
<rect shape-rendering="optimizeSpeed"  x="48" y="54" width="2" height="2" fill="black" />
<rect shape-rendering="optimizeSpeed"  x="56" y="54" width="2" height="2" fill="black" />
<rect shape-rendering="optimizeSpeed"  x="8" y="56" width="2" height="2" fill="black" />
<rect shape-rendering="optimizeSpeed"  x="12" y="56" width="2" height="2" fill="black" />
<rect shape-rendering="optimizeSpeed"  x="14" y="56" width="2" height="2" fill="black" />
<rect shape-rendering="optimizeSpeed"  x="16" y="56" width="2" height="2" fill="black" />
<rect shape-rendering="optimizeSpeed"  x="20" y="56" width="2" height="2" fill="black" />
<rect shape-rendering="optimizeSpeed"  x="24" y="56" width="2" height="2" fill="black" />
<rect shape-rendering="optimizeSpeed"  x="32" y="56" width="2" height="2" fill="black" />
<rect shape-rendering="optimizeSpeed"  x="36" y="56" width="2" height="2" fill="black" />
<rect shape-rendering="optimizeSpeed"  x="42" y="56" width="2" height="2" fill="black" />
<rect shape-rendering="optimizeSpeed"  x="48" y="56" width="2" height="2" fill="black" />
<rect shape-rendering="optimizeSpeed"  x="50" y="56" width="2" height="2" fill="black" />
<rect shape-rendering="optimizeSpeed"  x="52" y="56" width="2" height="2" fill="black" />
<rect shape-rendering="optimizeSpeed"  x="54" y="56" width="2" height="2" fill="black" />
<rect shape-rendering="optimizeSpeed"  x="56" y="56" width="2" height="2" fill="black" />
<rect shape-rendering="optimizeSpeed"  x="60" y="56" width="2" height="2" fill="black" />
<rect shape-rendering="optimizeSpeed"  x="8" y="58" width="2" height="2" fill="black" />
<rect shape-rendering="optimizeSpeed"  x="12" y="58" width="2" height="2" fill="black" />
<rect shape-rendering="optimizeSpeed"  x="14" y="58" width="2" height="2" fill="black" />
<rect shape-rendering="optimizeSpeed"  x="16" y="58" width="2" height="2" fill="black" />
<rect shape-rendering="optimizeSpeed"  x="20" y="58" width="2" height="2" fill="black" />
<rect shape-rendering="optimizeSpeed"  x="24" y="58" width="2" height="2" fill="black" />
<rect shape-rendering="optimizeSpeed"  x="26" y="58" width="2" height="2" fill="black" />
<rect shape-rendering="optimizeSpeed"  x="28" y="58" width="2" height="2" fill="black" />
<rect shape-rendering="optimizeSpeed"  x="40" y="58" width="2" height="2" fill="black" />
<rect shape-rendering="optimizeSpeed"  x="42" y="58" width="2" height="2" fill="black" />
<rect shape-rendering="optimizeSpeed"  x="44" y="58" width="2" height="2" fill="black" />
<rect shape-rendering="optimizeSpeed"  x="46" y="58" width="2" height="2" fill="black" />
<rect shape-rendering="optimizeSpeed"  x="48" y="58" width="2" height="2" fill="black" />
<rect shape-rendering="optimizeSpeed"  x="50" y="58" width="2" height="2" fill="black" />
<rect shape-rendering="optimizeSpeed"  x="58" y="58" width="2" height="2" fill="black" />
<rect shape-rendering="optimizeSpeed"  x="60" y="58" width="2" height="2" fill="black" />
<rect shape-rendering="optimizeSpeed"  x="62" y="58" width="2" height="2" fill="black" />
<rect shape-rendering="optimizeSpeed"  x="64" y="58" width="2" height="2" fill="black" />
<rect shape-rendering="optimizeSpeed"  x="8" y="60" width="2" height="2" fill="black" />
<rect shape-rendering="optimizeSpeed"  x="12" y="60" width="2" height="2" fill="black" />
<rect shape-rendering="optimizeSpeed"  x="14" y="60" width="2" height="2" fill="black" />
<rect shape-rendering="optimizeSpeed"  x="16" y="60" width="2" height="2" fill="black" />
<rect shape-rendering="optimizeSpeed"  x="20" y="60" width="2" height="2" fill="black" />
<rect shape-rendering="optimizeSpeed"  x="24" y="60" width="2" height="2" fill="black" />
<rect shape-rendering="optimizeSpeed"  x="28" y="60" width="2" height="2" fill="black" />
<rect shape-rendering="optimizeSpeed"  x="30" y="60" width="2" height="2" fill="black" />
<rect shape-rendering="optimizeSpeed"  x="32" y="60" width="2" height="2" fill="black" />
<rect shape-rendering="optimizeSpeed"  x="38" y="60" width="2" height="2" fill="black" />
<rect shape-rendering="optimizeSpeed"  x="42" y="60" width="2" height="2" fill="black" />
<rect shape-rendering="optimizeSpeed"  x="46" y="60" width="2" height="2" fill="black" />
<rect shape-rendering="optimizeSpeed"  x="50" y="60" width="2" height="2" fill="black" />
<rect shape-rendering="optimizeSpeed"  x="52" y="60" width="2" height="2" fill="black" />
<rect shape-rendering="optimizeSpeed"  x="54" y="60" width="2" height="2" fill="black" />
<rect shape-rendering="optimizeSpeed"  x="56" y="60" width="2" height="2" fill="black" />
<rect shape-rendering="optimizeSpeed"  x="58" y="60" width="2" height="2" fill="black" />
<rect shape-rendering="optimizeSpeed"  x="60" y="60" width="2" height="2" fill="black" />
<rect shape-rendering="optimizeSpeed"  x="62" y="60" width="2" height="2" fill="black" />
<rect shape-rendering="optimizeSpeed"  x="8" y="62" width="2" height="2" fill="black" />
<rect shape-rendering="optimizeSpeed"  x="20" y="62" width="2" height="2" fill="black" />
<rect shape-rendering="optimizeSpeed"  x="24" y="62" width="2" height="2" fill="black" />
<rect shape-rendering="optimizeSpeed"  x="26" y="62" width="2" height="2" fill="black" />
<rect shape-rendering="optimizeSpeed"  x="30" y="62" width="2" height="2" fill="black" />
<rect shape-rendering="optimizeSpeed"  x="36" y="62" width="2" height="2" fill="black" />
<rect shape-rendering="optimizeSpeed"  x="38" y="62" width="2" height="2" fill="black" />
<rect shape-rendering="optimizeSpeed"  x="48" y="62" width="2" height="2" fill="black" />
<rect shape-rendering="optimizeSpeed"  x="52" y="62" width="2" height="2" fill="black" />
<rect shape-rendering="optimizeSpeed"  x="56" y="62" width="2" height="2" fill="black" />
<rect shape-rendering="optimizeSpeed"  x="58" y="62" width="2" height="2" fill="black" />
<rect shape-rendering="optimizeSpeed"  x="62" y="62" width="2" height="2" fill="black" />
<rect shape-rendering="optimizeSpeed"  x="8" y="64" width="2" height="2" fill="black" />
<rect shape-rendering="optimizeSpeed"  x="10" y="64" width="2" height="2" fill="black" />
<rect shape-rendering="optimizeSpeed"  x="12" y="64" width="2" height="2" fill="black" />
<rect shape-rendering="optimizeSpeed"  x="14" y="64" width="2" height="2" fill="black" />
<rect shape-rendering="optimizeSpeed"  x="16" y="64" width="2" height="2" fill="black" />
<rect shape-rendering="optimizeSpeed"  x="18" y="64" width="2" height="2" fill="black" />
<rect shape-rendering="optimizeSpeed"  x="20" y="64" width="2" height="2" fill="black" />
<rect shape-rendering="optimizeSpeed"  x="24" y="64" width="2" height="2" fill="black" />
<rect shape-rendering="optimizeSpeed"  x="28" y="64" width="2" height="2" fill="black" />
<rect shape-rendering="optimizeSpeed"  x="30" y="64" width="2" height="2" fill="black" />
<rect shape-rendering="optimizeSpeed"  x="38" y="64" width="2" height="2" fill="black" />
<rect shape-rendering="optimizeSpeed"  x="40" y="64" width="2" height="2" fill="black" />
<rect shape-rendering="optimizeSpeed"  x="42" y="64" width="2" height="2" fill="black" />
<rect shape-rendering="optimizeSpeed"  x="46" y="64" width="2" height="2" fill="black" />
<rect shape-rendering="optimizeSpeed"  x="50" y="64" width="2" height="2" fill="black" />
<rect shape-rendering="optimizeSpeed"  x="52" y="64" width="2" height="2" fill="black" />
<rect shape-rendering="optimizeSpeed"  x="54" y="64" width="2" height="2" fill="black" />
<rect shape-rendering="optimizeSpeed"  x="56" y="64" width="2" height="2" fill="black" />
<rect shape-rendering="optimizeSpeed"  x="60" y="64" width="2" height="2" fill="black" /></svg>